<svg width="81" height="78" viewBox="0 0 81 78" fill="none" xmlns="http://www.w3.org/2000/svg">
<path d="M76.0032 59.1513C76.6139 58.8269 75.4086 60.3978 76.5393 59.548C76.432 59.8029 76.3222 60.0589 76.2096 60.312C76.003 60.2672 75.7963 60.2231 75.5905 60.1763C75.7327 59.8358 75.8694 59.495 76.0024 59.1508C76.0027 59.151 76.0029 59.1511 76.0032 59.1513ZM74.0774 57.4882C74.4218 58.038 74.0319 58.9974 75.0418 58.3119C74.9164 58.1383 74.7912 57.9638 74.664 57.7922C74.9823 57.5379 75.299 57.2754 75.6108 57.0082C75.6093 56.8519 75.6066 56.696 75.6038 56.5408C75.9853 56.5416 76.3679 56.5397 76.7522 56.5316C76.6369 56.6515 76.5192 56.7719 76.4028 56.8897C76.361 57.5714 76.1622 58.1041 75.778 58.8714C75.8852 58.8467 75.9919 58.8209 76.0992 58.7951C75.7633 59.1069 75.4236 59.4104 75.0814 59.7055C75.1637 59.3166 75.2483 58.883 75.3117 58.523C74.5796 58.7319 74.3352 59.6962 74.1508 60.1805C73.9025 60.8373 73.7763 60.5674 73.5792 61.0467C73.547 61.1229 73.7053 61.243 73.6161 61.3776C73.1698 62.0625 72.1297 63.2475 72.3145 62.2378C73.1556 61.2115 73.4766 60.0744 74.2647 59.0498C73.6295 59.0581 73.8369 58.3919 74.0774 57.4882ZM57.8229 74.8314C58.0784 74.4232 58.8562 74.1517 59.4346 74.0455C59.4352 74.0452 59.4357 74.0449 59.4363 74.0446C59.5629 74.0221 59.9753 74.1924 59.611 74.372C59.0132 74.6623 58.4854 74.3165 58.3401 74.8004C58.1708 74.8072 57.998 74.823 57.8229 74.8314ZM56.5399 75.4524C56.1169 75.4894 56.1253 75.0422 56.6249 74.943C56.6248 74.9427 56.6247 74.9424 56.6245 74.9421C56.833 74.8992 56.5942 75.364 57.1393 74.7551C57.3847 74.9237 57.6204 75.0704 57.8648 75.2284C57.6985 75.3117 57.5475 75.3895 57.3712 75.4738C57.3153 75.037 56.9632 75.4131 56.5399 75.4524ZM72.0906 62.9127C72.3504 63.194 72.5113 62.9865 72.9939 62.7812C72.7264 63.1169 72.4528 63.4478 72.1762 63.773C72.1511 63.4841 72.1221 63.1987 72.0906 62.9127ZM77.1953 54.4226C77.1956 54.422 77.1958 54.4214 77.1961 54.4208C77.1968 54.2697 77.1965 54.1183 77.1952 53.9702C77.3516 53.9469 77.5071 53.9232 77.6637 53.898C77.7353 53.3948 77.7979 52.8893 77.8487 52.3864C78.2161 52.5863 77.839 53.3884 77.9158 53.949C77.522 54.5739 77.1561 54.795 76.8193 54.6945C76.9444 54.6052 77.0701 54.5156 77.1953 54.4226ZM2.53604 30.8553C2.45662 30.6777 2.37792 30.5009 2.30096 30.3212C2.20418 30.5157 2.12121 30.713 2.01904 30.9099C2.3967 31.5518 1.95412 31.5144 1.859 32.2414C1.61343 34.4744 2.4617 33.9433 1.15813 35.8544C1.34614 34.2353 0.766084 34.8141 0.472932 33.7669C0.80559 33.6038 1.38743 34.6574 1.60984 34.0187C1.41975 32.8592 1.29357 31.716 1.35336 30.4191C1.29287 30.4445 1.23225 30.4699 1.1718 30.4956C1.16245 30.7036 1.15589 30.907 1.15016 31.1131C1.05089 30.8702 0.953879 30.6313 0.858655 30.379C1.11875 30.7256 1.09291 29.9777 1.4397 30.1545C1.59334 30.2329 1.75256 30.5909 1.87187 30.8042C2.05398 30.3543 2.23954 29.8971 2.4361 29.4541C2.50609 29.7261 2.57918 29.9963 2.65527 30.2633C2.61502 30.4596 2.57545 30.6547 2.53823 30.852C2.5375 30.8531 2.53677 30.8542 2.53604 30.8553ZM78.5823 26.2973C78.0213 25.8249 77.5856 24.8123 77.7656 24.1005C78.0599 24.8261 78.3316 25.5555 78.5823 26.2973ZM76.5374 54.6193C76.6261 54.5832 76.7132 54.5483 76.8019 54.5114C76.7896 54.8421 76.7715 55.1751 76.7505 55.5076C76.5522 55.48 76.3535 55.4528 76.1557 55.4254C76.2854 55.1589 76.4137 54.8892 76.5374 54.6193ZM64.6545 69.9511C64.8255 69.805 64.8451 69.7981 65.082 69.6467C65.0816 69.6468 65.0813 69.6468 65.0809 69.6469C65.1757 69.5889 65.967 69.0894 65.9803 69.2668C65.6242 69.5645 65.2361 69.8708 64.8594 70.1601C64.7891 70.0921 64.7281 70.0178 64.6545 69.9511ZM68.7814 66.4312C68.782 66.431 68.7827 66.4308 68.7834 66.4305C68.9175 66.3269 69.0616 66.2449 69.1883 66.1257C68.9168 66.7368 68.5512 66.5136 68.229 66.9927C67.905 67.4708 67.7973 67.8839 67.0592 67.7848C67.1341 67.6021 67.1924 67.383 67.2579 67.1864C67.9942 66.8087 68.0017 66.4989 68.2897 65.8924C68.454 66.0723 68.6173 66.251 68.7814 66.4312ZM0.62813 40.7023C0.916987 40.8407 0.651322 41.0258 0.649122 41.0442C0.648778 41.0439 0.648434 41.0436 0.648091 41.0433C1.00149 42.378 0.472712 40.8779 0.530648 42.1604C0.443807 41.9766 0.354562 41.7948 0.269564 41.61C0.38322 41.306 0.51793 40.9941 0.62813 40.7023ZM24.6375 74.8749C24.617 74.9552 24.5987 75.0367 24.5783 75.1171C23.8759 74.7959 23.5604 75.0056 23.1022 74.4671C23.6124 74.6127 24.1242 74.7485 24.6379 74.874C24.6378 74.8743 24.6377 74.8746 24.6375 74.8749ZM61.1447 71.6571C61.777 71.0772 62.248 70.6807 63.0529 70.4183C63.0536 70.4182 63.0543 70.4181 63.055 70.4181C63.1022 70.4036 63.0158 70.6741 63.0905 70.6743C63.2133 70.5568 63.3316 70.4243 63.451 70.3004C63.5499 70.3984 63.6482 70.4968 63.7469 70.5938C63.3341 70.8445 62.9169 71.0878 62.4943 71.324C62.5982 71.3511 62.7034 71.3762 62.8077 71.4025C62.4898 71.6679 62.1698 71.927 61.8431 72.183C61.8439 71.916 61.8419 71.6498 61.8358 71.3844C61.606 71.4773 61.3761 71.5695 61.1447 71.6571ZM14.458 67.4103C14.4982 67.565 14.2146 67.515 14.3187 67.7092C14.4239 67.9035 14.8224 68.0252 14.5903 68.1587C14.3559 68.0026 14.109 67.8384 13.8725 67.6745C14.257 68.6321 15.2432 68.9017 14.898 69.3452C14.296 68.666 13.7022 68.2398 12.9569 67.7654C13.2878 67.4662 14.1765 67.7486 14.0611 67.0801C14.1912 67.1903 14.3301 67.3031 14.456 67.4098C14.4567 67.41 14.4573 67.4102 14.458 67.4103ZM74.1693 42.0871C74.2521 41.644 74.1474 40.6003 74.4259 40.0441C74.4964 39.91 75.3392 39.4583 75.448 39.4603C75.8165 39.4811 75.8505 40.0827 76.1071 39.4468C76.1049 39.6634 76.1123 39.8736 76.1104 40.088C76.3593 40.0594 76.6075 40.0301 76.8554 40.0015C76.8279 39.7338 76.7972 39.4659 76.763 39.1984C76.8451 39.1865 76.9275 39.1745 77.0096 39.1624C76.9921 40.1278 77.3204 39.5643 77.5991 40.0802C77.7656 39.6192 77.9229 39.1469 78.0719 38.672C78.0539 38.9461 78.0364 39.2682 78.0094 39.5077C78.4292 39.5502 78.3385 38.9687 78.4156 38.8696C78.874 38.313 78.5818 41.1599 79.1457 41.4454C79.2467 40.9864 79.339 40.5008 79.4224 40.0286C79.4929 40.1677 79.5627 40.3092 79.6318 40.4495C79.1621 41.5186 78.9117 42.7012 78.4811 43.899C78.483 44.0123 78.4848 44.1259 78.4851 44.2374C78.6774 44.2326 78.8687 44.2289 79.0611 44.2231C79.0586 44.3964 79.0548 44.5702 79.0497 44.7453C78.5091 44.1468 78.4186 44.8501 77.8925 45.5939C77.7581 45.1228 77.9749 44.6105 77.5652 44.5827C77.6413 46.1198 76.821 47.7248 76.748 49.2155C76.7279 49.5869 77.2397 49.739 76.925 50.5503C76.8791 50.5042 76.7813 50.4668 76.7148 50.4251C76.4844 51.9117 76.2919 52.8347 75.4281 54.1492C75.6376 54.1452 75.8476 54.1414 76.0577 54.1346C76.1062 53.7903 76.1481 53.4465 76.1857 53.1059C76.5592 53.0138 76.568 53.381 76.9285 52.4465C77.2159 51.677 76.9136 52.0863 76.9042 51.8461C76.8878 51.5223 77.2105 51.3571 77.181 51.005C77.1574 50.7338 76.8299 50.9077 77.0924 50.3138C77.3312 50.6638 77.574 51.0278 77.8066 51.3919C77.6827 51.5202 77.5574 51.6456 77.4315 51.771C77.4022 51.588 77.3717 51.4086 77.3398 51.2269C77.3063 51.8162 77.2616 52.3757 77.1977 52.9908C76.8186 52.6347 76.7639 53.268 76.6874 53.5957C76.569 54.1063 76.4352 53.569 76.3536 53.9013C76.2719 54.2324 76.4645 54.721 76.1304 55.2451C76.0751 54.8564 75.7109 55.1781 75.5679 55.0149C75.4259 54.8523 75.6518 54.2593 75.199 54.7199C74.8425 55.8482 76.0785 55.0234 75.8376 55.8017C75.5329 56.7479 74.3285 56.3656 74.2259 55.995C74.1443 55.7045 74.5204 55.0468 74.4265 54.7578C73.5012 55.7968 74.1374 56.1361 74.1582 56.4142C74.2155 57.4125 73.2606 56.2368 73.2137 57.3486C72.9952 57.2005 72.7977 57.0691 72.5882 56.9271C72.5457 57.0966 72.5445 57.2254 72.4732 57.4201C73.221 57.1607 72.953 57.5754 72.8213 57.7961C72.6146 58.1426 73.1505 57.7371 73.1509 57.8612C73.1513 58.1996 72.8409 58.5522 73.1822 58.4288C73.0259 58.4826 72.8637 58.5441 72.7063 58.5987C72.5725 59.0648 72.8546 60.6257 73.2682 59.5924C73.5558 59.8998 73.1961 60.0917 72.9904 60.2852C72.7845 60.4789 73.0017 60.6214 72.8234 60.7951C72.1087 61.4786 72.1135 60.6991 71.9123 60.3793C71.3771 61.5363 72.242 60.6396 71.2721 62.1922C71.3871 62.5087 72.1498 62.0138 71.8439 62.6803C71.3714 62.4821 70.7796 62.6788 70.0096 63.3382C70.0335 63.4857 70.0574 63.6341 70.0795 63.7824C69.3719 63.9016 69.2135 63.3747 68.9542 64.5015C68.5491 63.4004 68.7939 64.1335 67.8743 64.489C67.6888 64.5599 67.8181 64.1116 67.5669 64.217C67.4538 64.2643 67.3805 64.5755 67.0969 64.6835C66.9573 64.7377 66.2352 64.8919 66.0536 65.3246C66.6344 65.467 66.319 66.3578 67.1317 66.1592C66.0832 67.0155 65.5391 67.8002 66.1917 66.2919C65.8401 66.4087 65.489 66.5199 65.1383 66.6252C65.0423 66.8684 64.941 67.1122 64.8369 67.3556C64.542 67.0605 64.5006 66.9553 63.8371 67.5852C64.085 67.2615 64.325 66.9342 64.5612 66.603C64.5171 66.5308 64.5022 66.4292 64.4394 66.3762C64.1829 66.8145 63.1642 67.7183 62.963 68.0016C62.7656 68.2898 63.2936 67.926 63.2827 68.0681C63.1771 69.2556 62.8315 68.6994 62.4548 69.1585C62.23 69.4296 62.9471 69.0339 62.8216 69.1708C62.3525 69.6822 61.8251 69.4771 61.3285 69.8022C61.6516 69.9063 61.979 70.0105 62.3049 70.1115C61.7707 70.4633 61.1761 70.8474 60.7146 71.2321C60.5332 71.3829 60.7869 71.4588 60.7614 71.49C60.636 71.6493 60.0235 72.1375 59.9513 72.1781C59.414 72.4876 59.2649 72.2571 58.7324 72.5285C58.9282 72.3972 59.1118 72.2727 59.3008 72.1413C59.1751 71.7032 59.0478 71.2655 58.915 70.8296C58.4083 71.0813 57.8965 71.322 57.3794 71.5503C57.8144 71.4942 58.2508 71.4289 58.6887 71.3556C58.29 71.9864 57.8711 72.61 57.4242 73.2282C57.0125 73.1841 56.6075 73.1317 56.2034 73.0737C55.3788 73.5075 55.8939 74.252 55.1788 73.7054C54.9499 73.8729 54.7182 74.0383 54.4836 74.2008C54.4797 74.0823 54.4749 73.9638 54.4703 73.8454C54.1871 74.0316 53.9003 74.2142 53.6102 74.3946C54.0766 74.6451 54.5521 74.9092 55.027 75.1336C54.4275 75.4625 54.2941 75.1491 54.1714 75.1067C53.8456 74.9929 53.4526 75.4518 53.1852 75.3261C53.0966 75.2833 53.637 74.8579 53.3399 74.6927C53.2777 74.6639 52.1698 74.0585 51.7226 74.4227C51.7831 74.5816 51.8859 74.7674 51.9629 74.9367C51.2828 75.2588 50.6788 74.5039 50.7041 74.2395C50.3841 74.5135 49.8417 74.6716 49.8317 74.9539C49.6407 75.01 49.4528 75.0633 49.2617 75.1163C49.304 74.4269 48.5431 74.731 48.6108 75.2963C48.947 75.2359 49.2824 75.1717 49.616 75.1025C49.5321 75.8346 50.6544 76.0204 48.3711 75.8756C47.8876 75.6089 49.1069 75.7657 48.7162 75.5729C48.1082 75.5468 47.594 75.784 47.0021 75.6328C46.2674 75.4354 47.0586 75.0117 45.54 75.6438C49.207 76.0658 45.1722 76.4596 43.4933 76.8663C43.0033 76.022 41.8647 75.7694 40.272 75.9072C40.0649 75.925 39.8504 75.9492 39.6287 75.9794C39.7443 76.1442 40.0052 76.1652 40.272 76.1705C40.4584 76.1744 40.647 76.1708 40.7923 76.2063C41.1462 76.2917 40.7665 76.4629 41.2107 76.5828C41.6548 76.7042 42.6028 76.8355 43.0715 76.9954C42.7004 77.1893 40.8124 77.6293 42.0499 77.1364C41.3437 76.9614 40.9209 76.7607 40.272 76.6481C40.053 76.6097 39.8089 76.5804 39.5203 76.562C39.1681 76.9834 39.185 77.2643 38.0516 77.2198C38.749 76.6577 37.4998 76.1704 37.8214 75.5679C38.5862 75.7576 38.1221 76.3336 38.5628 76.6434C38.6085 76.6758 39.3494 76.5499 39.5203 76.562C38.788 76.0051 38.5613 75.7892 39.0233 75.1634C38.5154 75.2028 38.2056 75.1028 38.141 75.4071C38.0417 75.2681 37.9431 75.1286 37.848 74.9889C37.6833 74.9816 37.5345 74.9834 37.3609 74.9675C37.5657 75.4477 37.1217 75.1291 36.7718 75.307C36.4181 75.4832 36.8368 75.8974 35.9056 75.8016C36.203 75.9446 36.4786 76.0662 36.7695 76.1957C36.1589 76.2602 35.5316 76.3094 34.9118 76.3438C35.2936 76.6861 36.1888 77.2084 36.128 77.5747C35.8536 77.4085 34.8404 77.5309 34.7305 77.5229C34.3085 77.5017 34.5693 77.3012 34.5385 77.2911C33.905 77.0844 33.3538 77.0675 33.1742 76.673C32.6628 76.7424 32.3164 76.5801 31.8043 76.4779C31.523 76.4209 31.5199 76.6876 31.3662 76.6018C30.3512 76.0125 31.4796 75.9728 29.2273 76.0197C29.4279 76.2675 29.6285 76.517 29.8377 76.7635C29.5802 76.7655 29.3237 76.7658 29.0655 76.7628C28.9147 76.6848 28.7662 76.6061 28.617 76.5265C28.7347 76.1495 28.8531 75.7719 28.9705 75.3948C28.8081 75.3233 28.6442 75.2508 28.482 75.1768C28.7839 75.2316 29.0838 75.2821 29.3845 75.3292C29.4304 75.2702 29.4744 75.2105 29.5201 75.1514C29.1218 74.9243 28.7306 74.6902 28.3428 74.4493C28.292 74.5772 28.2409 74.706 28.19 74.8339C27.2928 74.3315 27.3227 74.2177 26.2896 74.2309C25.6042 73.9617 24.8274 74.2546 24.3272 74.2987C24.2148 74.1651 24.1039 74.0301 23.9925 73.8948C23.8544 73.9576 23.715 74.0188 23.5758 74.0801C23.4618 73.852 23.349 73.6228 23.2396 73.3944C22.9842 73.6702 22.8792 73.7509 23.5313 74.1962C23.0992 74.4968 21.9308 73.7046 21.5139 73.3035C21.194 73.0022 21.7854 72.8948 21.7595 72.829C21.6777 72.612 21.0082 72.3956 20.8949 72.3C20.4145 71.9038 20.0378 71.7003 19.6112 71.3382C19.528 71.2673 19.4018 70.9067 19.3849 70.8869C19.2396 70.7471 18.8973 70.3846 18.8539 70.351C16.6149 68.5822 18.515 71.1979 16.4084 69.5224C16.3905 69.6793 16.3687 69.8319 16.351 69.9883C16.1815 69.8713 16.0114 69.7513 15.8438 69.6316C15.7079 69.3816 16.0826 69.4144 15.5747 69.2253C15.7051 69.1153 15.8353 69.0051 15.9659 68.8962C15.736 68.8294 15.5129 68.7649 15.2789 68.69C15.3629 68.0169 14.4806 67.0763 15.0056 66.6261C15.1827 66.4764 16.0066 66.8751 15.8156 66.3826C15.5633 66.0982 15.5735 66.4744 15.4477 66.3834C14.5435 65.7136 14.8626 65.4654 14.4604 65.2301C14.2938 65.301 14.1216 65.3709 13.9516 65.4402C13.8604 65.2843 13.7702 65.1277 13.6804 64.9699C13.573 65.0208 13.4641 65.0703 13.3563 65.1206C13.4675 65.2422 13.5943 65.3777 13.6975 65.4884C13.2387 65.664 11.7342 64.3815 12.5196 64.6663C12.8364 64.7826 13.1772 65.2176 13.2987 64.6121C12.8865 64.2973 12.4314 63.9233 12.0136 63.568C12.0842 63.4818 12.1558 63.3964 12.2267 63.3104C11.6909 62.8143 11.799 63.6003 11.6243 63.7583C11.5065 63.6363 11.389 63.5117 11.2729 63.3881C11.3063 63.2639 11.3463 63.1394 11.3761 63.0154C11.2437 63.1209 10.8794 63.3068 10.6662 62.8231C10.5329 62.5121 11.1858 62.632 10.7511 62.1953C10.5745 62.3966 10.4655 62.7793 9.9639 62.2898C10.1373 62.0637 10.2776 61.8326 10.4738 61.612C9.74171 61.1037 9.85326 60.5431 9.03086 59.9069C8.5117 59.5058 7.44352 59.1317 8.13602 58.2174C7.91806 57.8107 7.76834 58.0734 7.64571 57.9872C7.06618 57.5758 7.26912 56.899 7.23755 56.7821C7.03349 56.0219 6.72131 55.8006 6.65511 55.1379C6.49318 55.2564 6.33404 55.3569 6.17393 55.4679C6.69926 55.8482 6.81571 56.1069 7.15079 56.841C6.98429 56.625 6.81942 56.4079 6.6575 56.1881C6.53648 56.3025 6.41557 56.417 6.29513 56.5304C8.07497 58.4081 6.92154 58.429 5.69292 56.6453C5.86866 56.3425 6.04383 56.0372 6.22741 55.7417C5.27713 54.8572 5.37958 54.1588 4.94159 52.8632C4.88902 52.7097 4.51065 52.2201 4.41289 51.9817C4.41333 51.9861 4.41378 51.9905 4.41423 51.9949C4.09513 51.9443 4.05091 52.1929 3.82618 52.3072C3.74642 52.1863 3.66723 52.0642 3.58876 51.9422C3.66045 51.5798 3.8435 51.6329 3.59763 51.065C3.44468 51.2057 3.29197 51.3464 3.14033 51.4893C2.90746 50.8427 2.96556 50.3495 2.69661 49.7688C2.79636 49.8506 2.89617 49.9303 2.9964 50.0105C2.77817 48.6387 4.16105 49.3787 3.34715 48.5437C3.42432 48.4552 3.50313 48.3685 3.58087 48.2809C3.71175 48.6794 3.84844 49.0749 3.99153 49.4648C4.12627 49.4328 4.2606 49.4016 4.3948 49.3679C4.2274 48.9587 4.06511 48.5432 3.9118 48.125C4.08416 48.4144 4.26052 48.7015 4.43952 48.9829C4.3603 48.4767 4.29086 47.9651 4.23408 47.4603C3.87233 48.1073 3.64148 47.4424 3.18491 47.6902C3.37416 46.6887 3.75813 45.9018 3.18079 44.5751C3.06878 44.3107 2.73815 44.5102 3.05205 43.666C2.52172 43.9363 2.13385 42.9676 1.62256 43.1555C1.68123 43.4368 1.73503 43.7285 1.8044 43.9975C1.94456 43.6596 2.44103 43.5477 2.65468 43.9883C2.92521 44.546 2.73246 45.4673 3.28154 45.33C3.29771 45.5663 3.32366 45.7842 3.34684 46.0126C3.19118 45.948 3.03518 45.8844 2.88012 45.8191C3.22048 46.4206 3.24239 46.8359 2.9707 47.226C2.71224 46.4729 2.47925 45.7158 2.26886 44.943C2.26453 45.0628 2.26085 45.1841 2.25847 45.3038C1.80271 44.7675 1.56263 45.4455 1.31199 44.3238C1.47599 44.3069 1.63988 44.2884 1.80468 44.2712C1.30424 43.9306 1.17281 42.7856 0.712441 43.2081C0.827395 42.8424 0.918815 42.7619 0.627209 42.5935C0.92002 41.6386 1.37788 41.0332 1.97719 41.3121C1.86108 40.9895 1.7488 40.66 1.64124 40.3367C1.4907 40.5346 1.34246 40.7354 1.19517 40.94C1.17096 40.3529 1.16003 39.7688 1.16148 39.183C1.62707 39.1221 1.3314 40.3005 1.74227 39.9494C1.82404 39.88 1.63486 39.575 1.68098 39.4918C2.17954 38.6243 1.8334 39.9771 2.22312 39.7138C2.289 38.8222 2.64844 39.0558 2.65464 38.672C2.65871 38.5095 2.60023 38.2381 2.44789 37.7198C2.58474 37.6775 2.7245 37.6324 2.86058 37.5945C2.88818 37.0012 2.58045 37.0402 2.55007 36.5195C2.53257 36.1909 3.09784 35.8299 2.76311 35.4476C2.70377 35.3761 1.98558 35.927 2.13926 34.6568C2.27301 33.6689 2.68901 34.137 2.92003 33.6343C3.14721 33.1435 2.71655 31.8278 3.50703 31.6185C3.35949 31.8692 3.24507 32.2053 3.11596 32.4952C3.23566 32.6421 3.3552 32.7843 3.47599 32.9269C3.40273 32.2072 3.75087 31.5463 3.51619 31.0179C4.21243 30.2166 4.01078 29.1124 3.37295 29.2317C3.37751 29.5537 3.70812 29.2895 3.44536 29.6664C3.30216 29.6763 3.159 29.6891 3.01571 29.7C3.20767 28.986 3.3472 28.4886 3.65891 28.923C3.69826 28.8156 3.73775 28.7096 3.77802 28.6028C3.49335 28.5018 3.20712 28.4023 2.92274 28.3004C2.92784 28.1574 2.93418 28.0138 2.9409 27.8706C3.04809 27.7408 3.15677 27.612 3.26654 27.4831C3.66308 27.8246 3.56903 28.1559 4.17412 27.1316C4.0185 27.0774 3.86401 27.0218 3.70843 26.9675C4.21963 26.0997 4.59624 26.2147 5.01865 25.0753C5.21485 26.1428 4.10282 26.2781 5.1849 26.6552C5.03829 26.8466 4.89163 27.0418 4.74811 27.2377C4.8953 27.323 5.04302 27.4075 5.1911 27.4903C5.46273 26.3173 5.22499 23.9756 6.24759 23.5111C6.20845 23.3832 6.18062 23.2595 6.1375 23.1264C6.87696 22.5819 6.15637 21.8228 7.04726 21.3475C7.14165 21.3021 7.86545 21.884 8.34822 20.953C8.23087 20.9166 8.04824 20.829 7.90576 20.7732C8.08333 20.6087 8.26443 20.4492 8.44484 20.2917C8.37025 20.1999 8.297 20.106 8.22221 20.0132C7.98376 20.33 7.74983 20.6501 7.52074 20.9761C7.64642 20.6695 7.7774 20.3625 7.9116 20.0589C7.53776 20.3386 7.43969 20.5112 7.31755 20.1387C7.4909 19.8019 7.66863 19.4669 7.85224 19.1353C7.80932 19.0631 7.7657 18.9904 7.72313 18.9179C7.43717 18.9581 7.15423 19.0054 6.86458 19.0507C7.5383 18.2796 8.03132 17.552 8.82678 17.174C8.96256 17.1102 8.93227 17.6496 9.23115 16.7799C9.36338 16.8582 9.47802 16.9118 9.60165 16.9823C9.88631 15.8658 10.216 15.6471 11.1611 14.9834C10.4789 15.3583 11.0323 14.9788 11.0326 14.738C11.0319 14.5718 10.7272 14.9636 10.6769 14.8498C10.6246 14.7372 10.7007 13.9468 10.3003 14.3433C10.1531 15.9813 9.05125 15.5944 8.39733 17.3033C8.45245 17.0131 8.51226 16.7207 8.57494 16.4297C8.43484 16.4876 8.30866 16.5397 8.15854 16.6053C8.88098 15.8983 8.50563 16.2267 8.63243 15.8114C8.76016 15.3969 9.12153 14.7272 9.40828 14.3113C9.4984 14.1804 9.55327 14.4388 9.79309 14.1751C9.95449 13.9964 10.1522 13.2899 10.526 13.4102C10.7656 13.4928 10.5731 14.6956 11.5163 13.6123C11.8666 13.5634 11.3586 14.0295 11.3709 14.0597C11.4965 14.33 12.2218 13.8131 12.3432 13.3786C12.3525 13.3419 11.9786 13.4335 12.1536 13.1205C12.5726 12.3768 13.092 12.2025 13.701 12.0665C13.4685 11.7524 13.6491 10.9227 14.3993 10.4406C14.3584 10.3283 14.3156 10.2164 14.2747 10.103C14.2117 10.2381 14.149 10.3728 14.0878 10.5082C13.931 10.5572 13.7806 10.6273 13.6179 10.6672C14.2036 9.99398 13.9483 9.51499 14.1474 9.08048C14.8537 7.60198 15.0668 9.27398 15.0298 9.62411C14.8223 9.6718 14.6118 9.70869 14.4019 9.75544C14.5067 9.84296 14.6123 9.93122 14.7161 10.0208C16.3611 8.61276 15.5315 10.4676 16.5203 9.97212C16.3121 9.28581 16.9077 8.72116 17.9729 8.46919C18.0612 8.40098 18.1516 8.33491 18.2401 8.26677C18.1991 8.17715 18.113 8.05674 18.101 7.98701C19.0442 7.18615 19.7947 7.93651 19.9388 7.95432C20.5896 8.04325 20.603 7.3379 20.7294 7.2545C21.2548 6.91135 21.5427 7.04913 22.0026 6.65874C22.5017 6.2412 22.022 6.27602 22.1061 6.02253C22.1756 5.81939 22.6145 5.55597 22.7352 5.32663C22.7163 5.47382 22.6889 5.62311 22.6722 5.77032C23.3417 5.60733 23.9014 5.50985 24.5996 5.23161C25.0114 4.05811 26.285 5.16782 25.536 4.15514C24.8342 4.3601 24.4096 4.40316 23.9218 4.28664C24.3414 4.04655 24.7677 3.81455 25.1989 3.58931C25.3816 3.65777 25.5232 3.74025 25.7279 3.80388C25.9502 3.40238 26.7755 3.21483 27.0555 3.02652C28.3674 2.15002 27.7962 1.82944 29.3764 2.20086C28.4316 2.56751 28.5528 2.94531 27.5994 3.21477C27.8947 3.41034 28.3477 3.1965 28.1509 3.62104C29.0222 3.24293 28.6408 3.05326 28.9171 2.68331C29.1561 2.36477 29.7825 2.1714 29.6656 1.89206C29.7756 2.03321 29.8688 2.17372 29.9771 2.31543C30.5797 2.14658 31.1836 1.99487 31.7925 1.85609C31.5707 2.08336 31.3536 2.31275 31.1408 2.54275C31.3486 2.55868 31.5562 2.57603 31.7632 2.59538C33.1313 1.70064 35.8686 2.3273 35.2782 1.04823C36.0109 0.912848 36.128 1.07503 36.5502 1.28949C36.5841 1.18311 36.6187 1.09408 36.6522 0.976231C37.1355 1.03949 37.4738 0.627961 37.9066 0.701886C38.3391 0.77606 38.4572 1.13682 38.4914 0.522471C38.7738 0.685417 39.0506 0.821736 39.3255 0.978215C39.4856 0.835315 39.6476 0.695007 39.8099 0.554946C39.9641 0.596368 40.1182 0.638583 40.272 0.681715C40.3774 0.711289 40.4825 0.741293 40.5871 0.771763C40.7284 0.477992 41.7415 0.625208 42.1954 0.454866C42.607 0.792979 42.5364 1.77352 43.517 1.67375C43.5128 1.42667 43.5084 1.18032 43.5032 0.933214C43.7254 1.00314 43.9466 1.07482 44.1676 1.14866C44.1732 1.22986 44.1769 1.31088 44.1823 1.39208C44.07 1.3557 43.9602 1.32022 43.848 1.28404C43.9348 1.42845 44.0185 1.57233 44.1014 1.71712C44.4621 1.55119 44.8275 1.39036 45.198 1.23495C44.7533 1.02449 44.2947 0.821016 43.8398 0.626765C44.4473 0.501477 44.8462 0.72814 45.3851 0.595002C45.7883 0.991254 45.5923 1.16254 45.3666 1.50365C45.5334 1.49416 45.7021 1.48709 45.8691 1.47977C45.709 1.83048 45.9509 2.07946 45.0151 1.92689C45.0668 2.03926 45.1198 2.14704 45.1681 2.26348C45.3234 2.26715 45.4103 2.36856 45.5828 2.35207C46.0496 2.30623 46.5111 1.72786 46.5163 1.49859C46.518 1.37774 46.02 1.52971 46.064 1.3671C46.1693 0.969483 47.2199 1.31363 45.7301 0.674648C46.2817 0.490096 46.3738 0.702709 46.9281 0.87256C46.9068 0.730391 46.8861 0.589283 46.8655 0.447393C47.1214 0.554211 47.3754 0.663321 47.6269 0.77498C47.1459 1.39445 48.9692 2.02078 47.1677 2.2945C47.657 2.41691 48.1446 2.54952 48.6272 2.69299C48.5104 2.74033 48.3941 2.78749 48.2782 2.8359C48.0659 2.75061 47.8517 2.66766 47.6381 2.58715C47.8725 2.76801 48.1072 2.95107 48.3357 3.13652C48.9789 3.11323 49.2757 2.93104 49.6325 2.70147C48.9717 2.30396 49.1309 2.6611 48.5595 2.59262C48.6221 2.4057 48.6354 2.22381 48.7303 2.034C48.9343 2.4928 49.9437 2.43916 50.1718 2.48304C50.8548 2.60688 50.2268 2.84793 50.666 2.97987C51.1022 3.11227 51.6931 3.04592 51.9274 3.53887C51.9897 3.32588 52.032 3.09831 52.0683 2.89776C52.779 3.0541 52.5561 3.26011 52.6159 3.3153C53.546 4.23065 54.2984 4.01163 55.5724 4.50188C55.4423 4.36956 55.3065 4.24333 55.1704 4.11554C56.3041 4.0945 55.615 3.94129 54.8377 3.45517C55.601 3.81824 56.2074 3.65153 56.8078 3.79839C57.4092 3.94343 58.2493 4.5997 58.5026 4.91975C57.623 4.74461 56.8676 4.18396 55.9645 3.86163C55.9721 4.11217 55.9893 4.32948 55.987 4.60103C56.7047 4.40624 56.8726 4.84183 57.0129 4.98C57.4263 5.38927 57.5949 5.0207 57.6913 5.56218C57.7485 5.4222 57.7978 5.30513 57.8503 5.17387C58.8468 5.75609 59.7636 6.60367 60.6928 6.5312C60.5592 6.87434 60.4171 7.19667 60.2847 7.54977C60.8338 7.57498 61.0224 8.0339 61.3887 8.20629C61.7541 8.37987 61.7951 8.05165 62.2484 8.23333C62.3324 8.26758 62.3741 8.52204 62.6279 8.54011C62.8798 8.55274 64.1473 8.24676 63.6846 9.00578C64.0062 9.26062 64.2883 9.52814 64.588 9.79536C64.255 9.58429 63.9208 9.37807 63.5842 9.1794C63.7151 9.55163 63.8377 9.92194 63.9544 10.2938C64.1074 10.173 64.263 10.05 64.414 9.93084C65.2517 10.3243 65.5354 10.9888 66.2409 11.5482C66.3588 11.643 66.3591 11.122 66.7794 11.6562C67.1982 12.1973 67.048 13.0304 68.0102 13.6705C68.0579 13.7016 68.6867 13.5901 68.6777 14.1438C68.6753 14.2684 68.3249 14.061 68.3819 14.2926C68.4414 14.5222 68.9791 15.2954 68.819 15.5205C68.8848 15.4533 68.9223 15.3467 68.9773 15.264C69.1138 15.3582 69.251 15.4547 69.387 15.553C69.2685 15.6683 69.1504 15.7847 69.0323 15.8992C69.896 16.3673 70.7026 16.3753 71.3261 17.6268C71.3023 17.172 71.2701 16.7139 71.229 16.2556C71.0296 16.2686 70.8296 16.2834 70.6322 16.3006C70.3019 15.7498 69.9552 15.2051 69.5953 14.6694C69.3808 14.7109 69.1686 14.755 68.9555 14.7995C68.8659 14.6556 68.7757 14.5139 68.684 14.3709C68.8158 14.3117 68.9475 14.2536 69.0809 14.1965C68.835 13.9645 68.5855 13.7363 68.3353 13.5128C69.4076 13.4676 69.5326 14.9925 69.9958 14.4858C70.012 14.6713 70.0264 14.857 70.039 15.0422C70.3377 14.8858 70.4619 15.1873 70.7548 15.6522C70.8075 15.4534 70.8489 15.2447 70.9064 15.0513C71.0604 15.6152 71.6446 16.362 71.8892 16.8682C71.997 17.0895 71.6611 17.0286 71.6795 17.1039C71.7702 17.4868 72.5084 17.8372 72.5618 17.9819C72.8824 18.8377 72.493 19.72 73.417 20.2837C73.0377 19.3646 73.2575 19.8578 73.3295 19.4057C73.3528 19.2649 72.8471 18.0606 73.6076 19.4896C73.725 19.6553 74.5951 22.4827 73.7762 21.8283C74.1064 22.1786 74.4063 22.4381 74.7178 22.7642C74.1489 24.1717 74.9435 23.4171 75.338 22.8983C75.4129 23.0556 75.4863 23.2043 75.5589 23.3685C74.8634 23.2699 75.5827 25.0292 76.0826 25.5414C76.2543 25.7125 76.2187 25.0668 76.4828 25.5139C76.5277 25.7564 76.5692 26.0338 76.6086 26.2913C76.8455 25.813 77.2249 26.4587 77.5881 26.3281C77.4141 26.8936 76.8202 27.451 76.3659 27.3292C76.6348 27.6427 76.899 27.9617 77.1601 28.2873C77.1993 28.0903 77.2356 27.8906 77.2717 27.6921C77.4105 28.9618 78.3098 30.4251 77.5643 30.8556C77.6045 31.0171 77.643 31.1794 77.6808 31.3402C77.8256 31.3636 77.9703 31.3857 78.1151 31.4103C78.1422 32.1747 78.1455 32.9412 78.1256 33.6977C77.9505 33.0473 77.7345 32.9247 77.7737 32.2088C77.6643 32.5011 77.5514 32.7971 77.4343 33.0784C78.0007 34.0382 78.3143 34.1698 78.3224 35.7563C78.327 35.8298 78.0412 37.047 78.0033 37.0837C77.8521 37.2748 77.6098 37.0048 77.533 37.0902C77.3248 37.3304 76.7813 38.7014 76.6906 38.6716C75.7074 38.3158 75.4139 33.9546 75.0807 32.7996C72.558 20.8508 64.3877 10.0843 52.6996 5.88071C52.5804 5.83862 52.5787 6.00275 52.526 5.99039C52.201 5.91198 51.9732 5.57818 51.8586 5.52855C51.6151 5.42405 51.6815 5.68145 51.4995 5.62062C49.6216 4.99516 47.8191 4.42262 45.8445 4.14916C45.7156 4.13165 45.8741 3.97579 45.6429 3.97247C45.5235 3.97158 45.122 4.18952 44.8602 4.16043C43.9408 4.05777 43.1812 3.89894 42.2008 3.84902C41.6699 3.82168 40.8738 3.7755 40.272 3.78107C40.2707 3.78108 40.2695 3.78109 40.2683 3.7811C40.0024 3.78285 39.7284 3.91088 39.4689 3.92085C39.1008 3.9356 39.1682 3.68149 39.1108 3.66726C38.858 3.60698 38.8341 3.88616 38.5988 3.89005C38.1598 3.89873 38.1223 3.71366 37.5634 3.76937C37.1636 3.80821 36.2669 4.04267 35.7742 4.15134C34.5825 4.08011 33.1208 4.43478 32.0718 4.76048C31.452 4.95229 31.3301 4.71961 31.0713 4.78783C30.1617 5.03642 29.5816 5.56199 28.7608 5.85367C27.6731 6.24374 26.6355 6.42149 25.5961 6.87364C25.4282 6.94726 25.5656 7.1462 25.4063 7.22656C24.8162 7.52328 24.0808 7.94271 23.5492 8.19245C22.9561 8.47229 22.5724 8.29303 22.0506 8.68379C21.8988 8.79921 22.0071 9.0869 21.7599 9.28503C21.3652 9.60044 20.7589 9.6781 20.4484 9.85248C20.0259 10.0927 20.5457 10.108 19.9901 10.4454C19.9674 10.4592 19.7603 10.3352 19.6523 10.4256C19.3388 10.6891 19.4735 10.8031 18.9887 11.1475C18.9414 11.1778 18.1887 11.4978 18.1272 11.5489C17.7618 11.8329 17.0009 12.3832 16.8262 12.6008C16.2001 13.3751 17.0016 13.0963 15.8966 13.1355C15.7468 13.5173 15.6087 13.8988 15.456 14.2931C15.5262 13.9945 14.62 14.5824 14.5811 14.6506C14.2466 15.1805 14.6992 15.1023 14.145 15.6418C14.3536 14.4463 13.4071 16.3307 13.1488 16.6932C11.8343 18.4138 10.5834 19.9499 9.5158 21.8579C9.15858 22.4962 8.83249 23.4286 8.50611 24.1227C8.43014 24.2852 8.3484 24.0975 8.27882 24.24C8.21076 24.3827 8.44003 24.2952 8.35701 24.455C7.84267 25.4453 7.21066 26.1563 7.24932 27.2603C7.17746 27.2878 7.13423 27.2709 7.04612 27.3278C7.10477 28.233 6.188 29.6346 5.98056 30.2233C5.65112 31.1284 5.84301 31.428 5.66037 32.0942C5.41497 32.9774 4.75744 34.2885 5.62637 33.7869C5.56319 34.4072 5.50055 35.0111 5.37218 35.6304C5.35776 35.6998 5.16135 35.6341 5.15479 35.6619C5.1107 35.8384 5.28596 35.9111 5.28498 36.0321C5.28313 36.361 5.10656 35.8102 5.13328 36.2827C5.14991 36.5315 5.29335 36.6851 5.2693 37.3635C5.25501 37.794 5.24769 38.2303 5.24802 38.672C5.24056 42.4272 5.84911 46.3975 7.07959 49.9801C7.17398 50.2542 7.29364 50.0101 7.40417 50.3543C7.77326 51.5529 8.4004 53.7566 8.96724 54.7055C9.52158 55.6501 9.65774 55.2939 10.0964 55.8223C10.1822 55.9235 9.98795 55.9127 10.0458 56.0164C10.4336 56.7107 10.7377 57.6524 11.0773 58.2127C11.3014 58.5833 11.4916 58.4079 11.6784 58.6397C11.9563 58.9842 12.0237 59.5035 12.1627 59.6985C12.8182 60.6102 13.4709 61.0644 14.0889 61.9089C14.1032 61.841 14.1237 61.7861 14.1418 61.7235C14.9584 62.6435 15.8226 63.5197 16.7324 64.3498C16.7236 64.2729 16.7167 64.1969 16.709 64.1194C17.7617 65.0972 17.2929 65.4008 17.9534 64.4269C18.0586 64.462 18.1727 64.4954 18.2723 64.5288C17.8519 64.9643 18.2315 65.8712 19.044 66.6675C19.1045 66.7285 19.8936 66.5729 19.4382 67.1031C19.655 67.0489 19.7928 67.0026 19.978 66.9498C20.0487 67.2579 20.1285 67.5663 20.2096 67.8746C20.3346 67.9211 20.4602 67.9683 20.5851 68.013C20.6762 67.9094 20.7421 67.783 20.85 67.6934C21.3511 68.0048 22.3038 68.7808 22.7242 68.9939C23.7655 69.5371 24.9787 69.7265 25.6347 70.4595C26.0542 70.6022 25.7629 70.1817 26.3473 70.4732C26.3615 70.6271 26.3746 70.7741 26.3918 70.9332C27.1217 70.5804 27.0753 70.9627 27.7209 71.3447C28.159 71.6009 28.5146 71.5697 28.9536 71.7481C29.065 71.7932 28.9928 71.9568 29.0731 71.9772C29.3425 72.0492 30.1654 72.0458 30.3518 72.0907C32.0576 72.5149 33.5173 72.852 35.1665 73.1589C35.3429 73.1907 35.138 72.9842 35.32 73.0175C35.613 73.0696 35.4033 73.3134 35.5737 73.3495C36.0512 73.4457 36.0894 73.1661 36.7605 73.2199C37.8659 73.3043 39.0552 73.4091 40.272 73.4587C41.4788 73.5088 42.6977 73.504 43.8484 73.3985C43.9204 73.3912 43.8997 73.2257 43.9779 73.216C44.4877 73.155 45.0319 73.3131 45.494 73.2426C46.2644 73.1248 46.7957 72.7922 47.5395 72.6393C48.9967 72.3334 50.3119 72.1002 51.7728 71.6105C52.9624 71.2066 53.9721 70.7829 55.2224 70.2051C60.7222 67.6518 65.196 63.2481 68.8727 58.532C68.9673 58.4114 69.0517 58.5471 69.0735 58.5052C69.2775 58.103 69.1327 57.9588 69.5668 58.0612C69.8169 57.5412 69.6527 57.223 70.0317 56.6572C70.231 56.3539 70.5065 56.8385 70.6091 56.1783C70.6911 55.579 70.172 55.9936 71.197 54.6762C71.2236 54.6416 71.5872 54.5881 71.6755 54.2442C71.7621 53.9001 71.3996 54.1634 71.7036 53.392C72.4117 51.5884 73.5215 49.3762 73.9993 47.1585C74.0361 47.0222 74.1892 45.6597 74.1624 45.3844C74.1225 44.8512 73.8888 44.9174 73.9488 44.2541C73.9923 43.7404 74.3003 43.3614 74.3249 42.7515C74.3269 42.6803 74.0891 42.5337 74.1693 42.0871ZM2.65395 28.2895C2.45174 28.0865 1.6292 27.5713 2.16445 26.8041C2.21455 26.7336 2.68564 27.3515 2.92782 26.922C2.84814 27.3911 2.73841 27.8327 2.65489 28.2897C2.65458 28.2896 2.65426 28.2896 2.65395 28.2895ZM80.234 38.8426C80.1848 39.5098 80.1194 40.1709 80.0373 40.8279C79.9504 40.3659 79.8556 39.9097 79.752 39.4557C79.9142 39.2536 80.075 39.0504 80.234 38.8426ZM21.0218 72.891C21.0223 72.8913 21.0229 72.8916 21.0234 72.8919C20.3612 72.6615 19.7042 72.4137 19.0493 72.1455C19.1579 72.1099 19.2666 72.0735 19.3746 72.037C19.9131 72.2066 20.4501 72.3622 20.9881 72.5055C20.9986 72.6339 21.01 72.7624 21.0218 72.891ZM26.2924 74.3283C26.6576 74.5795 26.4975 74.7062 26.6625 74.9504C26.6627 74.9501 26.6628 74.9498 26.6629 74.9495C26.7069 75.0136 26.9707 75.1509 27.0758 75.1949C27.0731 75.0771 27.0587 74.9566 27.0533 74.8385C28.0699 74.9238 29.717 76.4366 27.1081 75.9844C27.1907 75.8659 27.2711 75.7472 27.3529 75.6283C26.1117 75.2464 24.9092 74.4191 26.2924 74.3283ZM6.37617 18.6756C6.56147 17.499 6.68134 17.1253 7.7051 16.1984C7.70127 16.4281 7.69957 16.6572 7.70006 16.8854C7.46742 16.9928 7.2367 17.1023 7.00463 17.2155C7.00428 17.216 7.00394 17.2166 7.00359 17.2171C7.09468 17.3302 7.18622 17.4432 7.27891 17.5541C6.97228 17.9207 6.66997 18.2966 6.37617 18.6756ZM65.3429 68.1777C66.1594 68.6776 65.7593 68.3335 65.2086 69.0461C65.016 69.2923 65.3472 69.2305 65.2154 69.37C64.4958 70.1244 64.0575 69.6784 64.0465 69.2913C64.4874 68.9277 64.9245 68.5531 65.3415 68.1788C65.342 68.1784 65.3424 68.1781 65.3429 68.1777ZM78.2779 46.1182C78.278 46.1176 78.2781 46.117 78.2782 46.1164C78.5012 46.1332 78.4798 46.5449 78.7757 46.135C78.7076 46.4778 78.6331 46.8231 78.5548 47.1675C78.5574 47.0619 78.561 46.9543 78.5627 46.8487C78.4689 46.9219 78.3739 46.9946 78.2797 47.0665C78.5012 47.2433 78.3318 47.3251 78.1637 47.661C78.4522 47.6264 78.7409 47.5901 79.0296 47.551C78.852 47.9569 78.6684 48.3557 78.4776 48.7542C78.4099 48.7416 78.3421 48.729 78.2744 48.7163C78.3171 48.8959 78.3598 49.0748 78.3999 49.2557C78.309 49.2762 78.2193 49.295 78.1284 49.3149C78.1343 49.52 78.1385 49.7258 78.1419 49.9319C77.9341 49.9308 77.979 49.4958 77.8029 50.2382C77.6784 49.9545 77.5513 49.6741 77.4212 49.3941C77.7551 48.3151 78.0407 47.2239 78.2779 46.1182ZM58.9636 72.8311C60.0487 72.193 59.8091 72.4818 59.7726 73.0215C59.5019 72.9605 59.231 72.8976 58.9636 72.8311ZM4.6781 54.0057C4.25112 53.7974 3.82827 53.5783 3.4112 53.3385C2.96616 52.6989 3.23538 51.7954 3.63654 52.2464C4.1193 52.7807 4.11119 53.539 4.6781 54.0057ZM1.34609 37.6596C1.18529 38.563 0.835546 37.7044 0.630438 37.4877C0.98023 37.2427 0.960946 36.8967 1.03422 36.33C1.02309 36.8673 1.37348 37.5108 1.34707 37.6596C1.34675 37.6596 1.34642 37.6596 1.34609 37.6596ZM12.6141 66.128C12.8798 66.378 13.1997 66.5662 13.3659 66.8649C13.0924 67.0128 12.8018 66.3648 12.841 67.0045C12.665 66.8474 12.4903 66.6882 12.3178 66.5298C12.5501 66.5054 12.5024 66.2692 12.6141 66.1293C12.6141 66.1289 12.6141 66.1285 12.6141 66.128ZM47.5719 77.2027C46.8008 76.9887 46.6959 77.1568 46.0114 77.5018C45.8717 77.2368 46.6525 76.6435 47.1547 76.4452C47.2913 76.6985 47.43 76.9512 47.5719 77.2027ZM73.6503 17.9073C73.2552 17.9503 72.5261 16.9256 72.2429 16.3546C72.3299 16.3845 72.4177 16.4146 72.5054 16.4449C72.8978 16.9221 73.28 17.4103 73.6503 17.9073ZM1.07564 36.0622C1.05878 36.1561 1.04525 36.2454 1.03422 36.33C1.03594 36.2353 1.04788 36.1447 1.07564 36.0622ZM21.3635 6.33451C21.2853 6.77318 22.0777 6.44435 21.1193 6.84894C21.1195 6.84922 21.1196 6.8495 21.1198 6.84978C20.4886 7.1244 20.3462 7.1859 19.7975 7.50589C19.7493 7.01648 20.7779 6.17727 19.2059 7.0754C19.1859 7.08823 19.3674 7.27924 19.1089 7.4081C19.0295 7.44784 18.6731 7.42789 18.2802 7.62575C18.154 7.6894 17.2498 8.24498 18.4292 7.41342C18.2209 7.18684 18.1106 6.88843 17.9408 6.64654C18.3714 6.2479 19.0668 6.50452 19.5665 6.17307C20.3099 5.6813 20.41 4.93406 20.9529 5.53373C20.3976 6.0693 19.325 6.75324 18.924 6.45115C18.3099 6.84765 18.3625 7.28796 18.9508 7.12448C20.9131 5.57992 19.8148 7.22513 21.5157 5.86711C21.4839 5.75866 21.504 5.61166 21.4417 5.52799C22.2082 5.54549 21.3883 6.17635 21.3635 6.33451ZM16.6053 8.50662C16.805 8.05875 17.0132 7.61107 17.2318 7.16617C17.4536 7.47493 17.4546 7.88743 17.0431 8.46468C16.8977 8.47714 16.7506 8.49167 16.6053 8.50662ZM51.0149 1.86439C51.1313 1.68323 51.3444 1.54816 51.5179 1.39497C51.6099 1.57382 54.5213 2.75183 52.9596 2.39203C52.7401 2.33594 51.4963 1.55792 51.0149 1.86439ZM52.3384 75.6852C51.9401 75.6675 51.5483 75.6419 51.1577 75.6108C51.6743 75.3703 52.1866 75.1157 52.6894 74.852C52.5758 75.1302 52.4598 75.4077 52.3384 75.6852ZM3.0583 48.2544C3.09038 48.4065 2.68429 47.979 2.88427 48.5601C2.59041 48.1647 2.3383 47.7884 2.07015 47.3866C2.17034 47.2246 2.27069 47.0624 2.37286 46.9027C2.26632 46.8192 2.1601 46.7328 2.05408 46.6476C2.25831 46.669 2.45659 46.6836 2.66468 46.7057C2.41735 47.5284 2.92168 47.59 3.0583 48.2544ZM14.9693 66.3272C14.7858 66.7346 13.8171 66.1977 14.558 66.9591C14.2227 67.033 13.8787 66.9237 13.405 66.5099C13.4052 66.3631 13.4059 66.2173 13.4079 66.071C13.2 66.2669 13.01 66.2329 12.6141 66.128C12.6141 66.1275 12.6141 66.1271 12.6142 66.1266C11.9188 65.4614 12.032 65.4289 12.212 64.9408C12.7197 65.849 13.0538 65.5683 13.7154 65.8553C14.1707 66.0507 14.5644 66.5175 14.9693 66.3272ZM47.7865 1.09406C48.5516 0.884248 48.002 0.419799 49.1626 1.0685C49.0622 1.13876 48.9621 1.20855 48.8627 1.27956C48.5052 1.21364 48.1429 1.15098 47.7865 1.09406ZM16.7428 69.6614C17.0656 69.0838 16.8571 68.281 16.1082 69.051C16.4972 69.6278 16.6077 68.9488 16.7428 69.6614ZM2.36837 37.9868C2.35474 38.3061 2.29856 38.5275 2.21379 38.672C2.01769 39.0077 1.66392 38.9258 1.39059 38.672C1.32812 38.614 1.27001 38.5471 1.21919 38.4746C1.35455 38.3945 1.4904 38.3153 1.62539 38.2387C1.5666 38.0176 1.50957 37.7958 1.4554 37.5735C1.7587 37.7142 2.06359 37.8521 2.36837 37.9868ZM37.4974 76.632C36.5066 77.0321 38.5152 76.9612 37.8262 77.2091C37.2682 77.4111 36.6018 76.8754 36.8942 76.6037C37.0779 76.6113 37.2824 76.6217 37.4956 76.6318C37.4962 76.6319 37.4968 76.6319 37.4974 76.632ZM32.0167 75.9859C32.065 76.5082 31.8747 76.323 32.6378 76.3852C32.8507 76.4112 34.5248 76.8824 33.8771 76.3531C33.2703 76.2528 32.6417 76.1262 32.0167 75.9859ZM4.62038 23.8729C4.81942 23.95 4.7749 25.3392 4.61037 25.453C4.61067 25.4531 4.61098 25.4532 4.61128 25.4533C4.14208 25.7642 4.59805 24.449 3.96174 24.8503C4.81912 23.7475 4.12347 23.0086 5.23471 23.5973C4.97485 24.3361 4.88431 23.8954 4.62038 23.8729ZM78.3178 33.662C78.3179 33.6626 78.318 33.6632 78.3181 33.6638C78.3187 33.5761 78.5308 32.8091 78.6525 32.8791C78.686 33.7673 78.4545 33.6321 78.8952 34.4114C78.7892 34.4688 78.6857 34.519 78.579 34.5792C78.4778 34.2626 78.3245 34.1008 78.3178 33.662ZM54.0513 3.34207C53.7331 3.28031 53.2648 2.857 52.9135 2.7516C54.3291 2.27551 55.3327 3.60516 54.0513 3.34207ZM74.078 57.4853C74.0778 57.4863 74.0776 57.4873 74.0774 57.4882C74.0771 57.4878 74.0769 57.4872 74.0766 57.4867C74.0771 57.4863 74.0775 57.4858 74.078 57.4853ZM29.5485 1.74968C29.6049 1.79498 29.6415 1.8379 29.6619 1.8789C29.6631 1.88298 29.6642 1.88705 29.6654 1.89112C29.6287 1.84407 29.5903 1.79686 29.5485 1.74968ZM5.72527 21.3499C6.2415 21.0032 5.85387 22.8389 5.52331 23.3232C5.41341 23.2288 5.30102 23.1712 5.19552 23.0174C5.71342 22.7356 5.63182 21.4118 5.72527 21.3499ZM8.94992 61.0258C8.11677 59.849 10.1774 60.6642 9.45694 61.2891C9.44021 61.2989 8.9731 61.0561 8.94992 61.0258ZM2.23685 32.2128C2.53622 32.637 2.74593 31.9249 2.5011 33.0764C2.39774 33.1298 2.29426 33.1837 2.19111 33.2382C2.20151 32.8989 2.21671 32.5549 2.23685 32.2128ZM5.83286 52.1472C4.99434 50.608 4.17182 49.0582 3.56694 50.489C3.64064 50.6104 3.71455 50.7333 3.78943 50.8534C4.26082 50.7157 4.16515 51.278 4.41251 51.978C4.6313 52.0084 4.82086 52.3726 5.00305 52.3821C5.35355 52.3994 5.39353 51.8903 5.83286 52.1472ZM67.5779 64.5904C67.6179 64.6692 67.6586 64.748 67.6978 64.8265C67.5672 65.0964 67.4318 65.3659 67.2936 65.6342C67.2141 65.4874 67.1341 65.3408 67.0537 65.1946C67.2304 64.9949 67.404 64.7944 67.5763 64.5913C67.5768 64.591 67.5773 64.5907 67.5779 64.5904ZM15.8924 10.4121C15.4271 9.6039 15.0775 10.102 14.5415 11.2244C14.9873 10.9433 15.4384 10.672 15.8924 10.4121ZM24.6403 72.3298C24.5652 72.5829 24.4906 72.8354 24.4185 73.0898C25.0934 73.0939 25.1036 72.7688 24.9812 72.3364C24.8671 72.3344 24.7546 72.3329 24.6403 72.3298ZM32.9299 74.8846C32.6964 74.7824 32.7793 75.0141 32.7546 75.0049C32.1528 74.7671 32.0896 74.6563 31.2972 74.63C31.1916 74.6614 31.0865 74.6954 30.9799 74.7274C31.199 75.3462 31.5237 75.1224 32.2129 75.6006C32.1149 75.3875 32.0197 75.174 31.9265 74.9596C32.333 75.0917 32.7427 75.2165 33.1526 75.3345C33.213 75.287 33.2733 75.2399 33.3333 75.192C33.1985 75.0913 33.0619 74.9799 32.9299 74.8846ZM69.9315 62.2948C70.2125 61.9832 70.4904 61.6655 70.7614 61.3439C70.6632 61.2501 70.5638 61.1563 70.4654 61.0627C70.2959 61.4746 70.1174 61.8862 69.9315 62.2948ZM22.7352 5.32663C22.7426 5.2689 22.7493 5.21126 22.7525 5.15453C22.7773 5.20891 22.7664 5.26692 22.7352 5.32663ZM77.7123 34.8475C77.6672 35.3218 77.784 35.9889 77.7931 36.507C78.1334 36.4456 77.9447 35.1391 78.0924 34.6573C78.0239 34.5891 77.7312 34.6452 77.7123 34.8475ZM2.34619 39.695C2.51821 39.8093 2.68994 39.9217 2.8629 40.0309C2.85498 40.3142 2.84915 40.5962 2.84798 40.8843C2.9865 40.8845 3.12621 40.8845 3.26473 40.8845C3.02033 39.6512 3.43927 39.9189 3.81632 39.3044C3.32591 39.4307 2.83607 39.5595 2.34619 39.695ZM75.5222 50.4052C75.3194 51.2851 75.3614 51.6493 75.9296 51.3086C75.9498 50.9724 75.9659 50.6349 75.9767 50.2999C75.825 50.3364 75.6733 50.3721 75.5222 50.4052ZM38.806 1.41982C39.5447 1.24423 39.5845 1.76825 40.272 1.50557C40.2906 1.49858 40.3097 1.49104 40.3293 1.48291C40.3102 1.47798 40.2911 1.47307 40.272 1.46816C39.8902 1.37032 39.507 1.2772 39.1238 1.19072C39.0181 1.26645 38.9103 1.34322 38.806 1.41982ZM9.20492 20.4474C9.52595 20.2896 9.05036 19.2947 10.1035 18.9405C10.05 18.6557 9.96345 18.4387 9.90248 18.1769C10.1402 18.2128 10.3875 18.2405 10.6197 18.2832C10.62 18.2827 10.6203 18.2823 10.6206 18.2818C11.0171 17.5979 10.5021 17.855 10.3247 17.7081C10.2515 17.645 10.7296 17.2585 10.4533 17.2863C9.97143 17.3333 9.4507 18.4465 9.09283 18.2103C9.44575 17.9327 9.83284 17.1845 9.45461 17.2186C9.0344 17.2596 9.02153 18.2144 8.52953 18.4933C9.50066 18.2693 8.51811 19.3894 7.98017 19.2638C7.87675 20.2268 8.42581 19.6165 8.8902 18.8607C8.94091 19.5364 9.1855 18.7459 9.54101 18.8254C9.39608 19.3913 8.28849 20.9178 9.20492 20.4474ZM9.33003 58.5087C8.97864 58.0253 8.69726 57.1168 8.19801 56.9372C7.9031 56.8305 8.24742 57.7231 7.64567 57.3199C7.97165 57.8149 8.14935 57.8627 8.33224 57.6345C8.42955 57.7311 8.52759 57.8291 8.62521 57.9251C8.61199 58.0057 8.60051 58.0875 8.58784 58.1684C8.72119 58.1674 8.85381 58.1666 8.98591 58.163C9.04252 58.2935 9.1008 58.4252 9.15833 58.5557C9.21513 58.5384 9.27208 58.5348 9.33003 58.5087ZM59.7459 6.7454C59.5999 6.66165 59.4547 6.57968 59.307 6.49856C59.2893 6.56591 59.2731 6.63741 59.2566 6.70767C59.2422 6.7624 59.2277 6.8171 59.2132 6.87179C59.2316 6.65462 58.6922 5.97341 58.2928 5.99637C58.0946 6.00866 58.2544 6.51234 57.5985 6.23732C58.061 6.45884 58.5046 6.64589 58.9533 6.86861C58.8594 6.94151 58.7667 7.01658 58.6733 7.09001C58.6735 7.0903 58.6737 7.09059 58.6739 7.09087C58.8045 7.1943 58.9353 7.30051 59.0641 7.40546C59.2902 7.18423 59.5166 6.96408 59.7459 6.7454ZM24.4166 71.6558C23.8157 71.6097 23.5921 71.6204 23.6811 72.0543C23.6816 72.0547 23.6821 72.0551 23.6825 72.0555C23.9426 72.0103 24.2011 71.9623 24.4572 71.9112C24.4438 71.8263 24.4309 71.7413 24.4166 71.6558ZM27.6969 4.41648C28.3891 2.75423 26.0918 4.46229 26.7533 4.70501C26.7806 4.7141 27.5411 4.31405 27.6969 4.41648ZM2.7812 37.7703C2.78364 38.0696 2.78881 38.3701 2.79826 38.672C2.79937 38.7074 2.80054 38.7429 2.80177 38.7783C2.87558 38.7429 2.94932 38.7074 3.02309 38.672C3.11214 38.6293 3.20124 38.5869 3.29058 38.5453C3.11841 38.2901 2.94801 38.0314 2.7812 37.7703ZM73.5198 53.7874C73.0468 53.9474 72.5503 54.6616 72.7009 55.2234C72.8462 55.0452 72.9901 54.8651 73.1324 54.6832C72.9825 55.0864 72.8316 55.4852 72.6634 55.8854C73.0976 56.1474 73.0822 55.5698 73.5453 54.9569C73.618 54.8662 74.5169 54.4563 74.1942 54.0172C74.1282 53.9307 73.7293 54.6213 73.7077 54.0014C73.5855 54.2097 73.5006 54.398 73.3891 54.597C73.2733 54.5585 73.1576 54.5196 73.0412 54.4823C73.2037 54.2516 73.3626 54.0222 73.5198 53.7874ZM7.54063 55.549C7.18793 54.8129 6.96841 54.81 6.56915 54.8131C6.77508 55.1419 6.98527 55.467 7.20051 55.7874C7.31315 55.7072 7.42706 55.6292 7.54063 55.549ZM69.7427 59.9325C69.4327 60.2522 69.7788 60.2747 69.7157 60.4513C69.4709 61.1192 69.0182 61.3535 68.6902 61.9516C68.6756 61.8813 68.6613 61.8163 68.6465 61.7485C68.6462 61.7489 68.6458 61.7494 68.6454 61.7498C66.382 63.9711 67.9902 63.1906 69.133 61.6416C69.2454 61.6752 69.357 61.71 69.4691 61.7424C69.8646 60.952 70.1819 60.2067 69.7427 59.9325ZM18.3936 9.4292C18.4628 9.46312 18.4717 9.98979 18.8149 9.49011C18.8172 8.71252 18.3917 9.40285 18.097 9.32232C18.1874 9.17995 18.2827 9.03726 18.3741 8.89661C17.5035 9.31129 17.4898 9.52214 18.0395 9.6806C18.0771 9.6904 18.324 9.39574 18.3936 9.4292ZM23.7614 6.4971C23.4581 5.60641 22.5894 6.52833 22.77 6.76319C22.9181 6.69645 22.956 6.49831 23.1413 6.47972C23.3281 6.46087 23.4665 6.63243 23.7614 6.4971ZM4.16978 32.3131C4.17965 32.2788 4.62563 32.0117 4.31948 31.9892C3.5264 32.2775 3.84705 33.2261 4.12088 33.1102C4.15274 32.8264 4.07686 32.6201 4.17074 32.3132C4.17042 32.3132 4.1701 32.3131 4.16978 32.3131ZM75.1889 48.7354C75.1613 48.7458 74.7624 49.5128 74.8641 49.6624C74.9919 49.7996 75.1447 49.8975 75.2841 50.0164C75.2887 49.5134 75.6743 48.6275 75.1884 48.7371C75.1885 48.7365 75.1887 48.736 75.1889 48.7354Z" fill="#000F55"/>
</svg>
