<svg width="314" height="128" viewBox="0 0 314 128" fill="none" xmlns="http://www.w3.org/2000/svg">
<path d="M212.411 34.1634C211.31 32.929 215.549 36.2636 212.957 33.7392C213.584 34.1448 214.216 34.5521 214.843 34.9577C214.881 35.2301 214.922 35.5049 214.959 35.7773C214.111 35.2407 213.262 34.7038 212.41 34.1642C212.41 34.1639 212.41 34.1637 212.411 34.1634ZM209.842 35.3955C210.92 35.4687 213.379 37.047 211.124 34.7822C210.807 34.7948 210.484 34.8038 210.167 34.8164C209.366 34.0551 208.56 33.29 207.759 32.5294C207.396 32.3604 207.033 32.1918 206.67 32.0221C206.461 31.4541 206.256 30.888 206.048 30.3193C206.38 30.6192 206.717 30.9232 207.049 31.2231C208.639 32.0251 209.955 32.8766 211.925 34.2277C211.801 34.0402 211.677 33.8529 211.554 33.6654C212.459 34.4832 213.363 35.3008 214.264 36.1157C213.334 35.6133 212.295 35.051 211.433 34.586C212.385 35.9249 214.785 37.2832 216.01 38.0254C217.677 39.0356 217.172 38.9851 218.406 39.74C218.602 39.8607 218.739 39.7148 219.111 39.9775C220.986 41.3039 224.548 43.9904 222.159 42.8452C219.123 40.5926 216.288 39.0147 213.354 36.742C213.839 37.7487 212.146 36.7575 209.842 35.3955ZM267.243 74.5032C266.161 74.0464 264.327 72.6008 263.148 71.5327C263.147 71.5316 263.146 71.5305 263.144 71.5295C262.885 71.2944 262.446 70.5545 263.36 71.228C264.85 72.3271 265.26 73.2907 266.265 73.5574C266.578 73.8668 266.913 74.1827 267.243 74.5032ZM270.53 76.823C271.375 77.5934 270.717 77.6259 269.627 76.7068C269.627 76.7071 269.627 76.7073 269.627 76.7076C269.172 76.3239 270.307 76.7401 268.386 75.7663C268.183 75.3052 267.971 74.8666 267.766 74.4152C268.192 74.7156 268.582 74.9873 269.027 75.3033C268.484 75.4303 269.685 76.0536 270.53 76.823ZM223.852 43.7761C224.218 43.5731 223.609 43.139 222.728 42.1833C223.697 42.8942 224.666 43.6059 225.631 44.3138C225.036 44.1337 224.447 43.9563 223.852 43.7761ZM200.95 27.2638C200.949 27.2627 200.947 27.2616 200.946 27.2606C200.591 27.0794 200.235 26.8976 199.885 26.7187C199.773 26.4719 199.662 26.2271 199.55 25.9802C198.346 25.2719 197.136 24.5591 195.931 23.8515C196.309 23.6151 198.299 25.1259 199.584 25.6941C201.174 26.9879 201.835 27.7572 201.739 28.1185C201.477 27.8347 201.216 27.5506 200.95 27.2638ZM126.949 125.637C126.484 125.751 126.025 125.866 125.559 125.98C126.178 126.032 126.792 126.072 127.415 126.132C129.047 125.636 129.2 126.075 131.337 126.044C137.889 125.95 136.151 125.179 142.068 126.309C137.317 126.255 139.143 126.786 136.279 127.195C135.686 126.883 138.524 126.181 136.601 126.036C133.287 126.365 130.1 126.672 126.423 126.885C126.531 126.939 126.637 126.993 126.745 127.046C127.328 127.012 127.906 126.978 128.489 126.944C127.86 127.088 127.245 127.231 126.606 127.377C127.414 127.05 125.355 127.233 125.63 126.857C125.753 126.69 126.663 126.458 127.2 126.298C125.814 126.211 124.393 126.131 122.992 126.047C123.718 125.914 124.443 125.78 125.164 125.647C125.757 125.643 126.345 125.64 126.938 125.636C126.942 125.636 126.946 125.637 126.949 125.637ZM130.518 13.8892C129.315 15.2314 126.756 17.1482 125.136 17.7777C126.931 16.4809 128.723 15.1861 130.518 13.8892ZM201.68 28.4304C201.556 28.2605 201.438 28.0948 201.314 27.9249C202.1 28.3383 202.89 28.7554 203.676 29.1687C203.702 29.4224 203.73 29.6784 203.761 29.9344C203.068 29.4344 202.372 28.9304 201.68 28.4304ZM247.517 61.0726C246.988 60.7068 246.945 60.6685 246.31 60.179C246.311 60.1796 246.311 60.1803 246.312 60.181C246.06 59.9874 243.966 58.3468 244.292 58.4C245.366 59.1675 246.508 59.9904 247.605 60.7778C247.581 60.8803 247.533 60.9635 247.517 61.0726ZM234.949 51.9447C234.947 51.9434 234.946 51.942 234.945 51.9407C234.568 51.6425 234.225 51.3402 233.827 51.0444C235.412 51.8969 235.398 52.3989 236.784 53.2488C238.17 54.098 239.117 54.4959 239.903 55.7606C239.438 55.5316 238.919 55.3095 238.433 55.083C236.696 53.5561 236.068 53.3687 234.438 52.4745C234.609 52.2977 234.778 52.1215 234.949 51.9447ZM156.118 126.789C156.558 126.508 157.049 126.784 157.099 126.787C157.099 126.787 157.098 126.788 157.097 126.788C160.993 126.527 156.59 126.944 160.267 126.988C159.72 127.058 159.181 127.132 158.639 127.204C157.801 127.068 156.936 126.914 156.118 126.789ZM282.702 126.815C282.737 126.897 282.78 126.98 282.816 127.061C280.607 127.042 280.043 127.365 278.207 127.071C279.705 126.985 281.203 126.9 282.702 126.814C282.702 126.815 282.702 126.815 282.702 126.815ZM256.216 68.0513C254.135 66.7497 252.622 65.7489 250.856 64.1751C250.855 64.1738 250.853 64.1725 250.852 64.1711C250.751 64.0796 251.384 64.3229 251.265 64.1846C250.856 63.9223 250.426 63.6621 250.009 63.4009C250.036 63.2506 250.064 63.1021 250.09 62.9524C251.189 63.7893 252.288 64.6265 253.392 65.4663C253.272 65.2818 253.148 65.0949 253.029 64.9104C254.009 65.5627 254.985 66.2125 255.964 66.8648C255.501 66.8091 255.038 66.754 254.578 66.7021C255.124 67.1518 255.671 67.6008 256.216 68.0513ZM245.917 125.918C246.306 126.008 245.586 126.158 246.19 126.235C246.794 126.311 247.906 126.144 247.645 126.396C246.833 126.43 245.979 126.469 245.152 126.505C247.816 126.96 250.474 126.548 250.515 127.11C247.958 126.965 245.855 127.032 243.38 127.188C243.482 126.742 245.958 126.356 244.399 125.937C244.9 125.931 245.426 125.923 245.912 125.919C245.914 125.919 245.916 125.919 245.917 125.918ZM169.341 12.1037C168.13 11.1933 165.206 9.31835 163.804 7.99165C163.459 7.66516 162.669 6.07666 162.74 5.99245C162.992 5.71999 164.576 6.79585 163.051 5.40492C163.612 5.80519 164.164 6.1844 164.725 6.57834C164.769 6.30565 164.814 6.03387 164.862 5.76484C164.163 5.30893 163.463 4.85263 162.764 4.39738C162.778 4.30695 162.793 4.21639 162.808 4.12596C165.244 5.87243 163.991 4.5837 165.426 5.25096C164.349 4.29496 163.264 3.33335 162.192 2.38033C162.85 2.87524 163.632 3.45279 164.209 3.89378C164.533 3.60945 163.067 2.68036 162.871 2.44401C161.769 1.11167 168.556 6.25714 169.479 6.16724C168.413 5.3189 167.292 4.4328 166.202 3.56724C166.57 3.73867 166.942 3.91311 167.31 4.08453C169.627 6.26687 172.415 8.45156 175.249 10.8089C175.529 10.9885 175.81 11.1681 176.085 11.3454C176.117 11.1348 176.152 10.9279 176.184 10.7173C176.604 10.9914 177.029 11.2693 177.449 11.5435C175.885 11.1887 177.552 12.3752 179.337 14.1252C178.141 13.537 176.902 12.4835 176.754 12.8808C180.602 15.2557 184.634 18.6972 188.406 20.9676C189.342 21.5316 189.647 21.1012 191.699 22.6342C191.594 22.6306 191.521 22.7069 191.431 22.736C195.177 25.1138 197.448 26.5583 201.037 29.4519C200.932 29.1429 200.83 28.8358 200.725 28.5268C199.876 28.0338 199.025 27.5411 198.181 27.0511C197.823 26.4092 198.702 26.8699 196.332 25.1726C194.39 23.7817 195.464 24.7232 194.883 24.4197C194.094 24.0096 193.612 23.3572 192.761 22.9204C192.104 22.582 192.596 23.2532 191.085 22.0875C191.903 22.2632 192.74 22.4391 193.565 22.6143C193.899 22.947 194.23 23.2785 194.563 23.6118C194.129 23.41 193.702 23.2119 193.267 23.0102C194.707 23.846 196.067 24.636 197.556 25.4999C196.821 25.5676 198.366 26.4531 199.18 26.9674C200.449 27.7683 199.213 27.2903 200.043 27.8178C200.873 28.3447 201.95 28.6603 203.346 29.7598C202.447 29.38 203.386 30.2913 203.067 30.3069C202.748 30.3222 201.197 29.2632 202.536 30.491C205.449 32.3793 202.833 29.5704 204.807 30.8366C207.178 32.3572 207.003 33.7494 206.167 33.4759C205.509 33.2606 203.69 31.9026 203.028 31.6836C206.113 34.3594 206.573 33.7786 207.223 34.0665C209.583 35.1115 207.383 35.2652 210.111 36.5963C209.911 36.7774 209.736 36.9431 209.543 37.1154C209.991 37.3774 210.306 37.5254 210.835 37.8582C209.64 36.369 210.85 37.2648 211.478 37.7147C212.468 38.4233 211.087 37.1236 211.386 37.259C212.193 37.6257 213.265 38.4913 212.711 37.8158C212.957 38.1219 213.229 38.4468 213.484 38.7582C214.716 39.4812 218.071 40.5378 215.358 38.863C215.837 38.7044 216.559 39.4639 217.175 39.9826C217.791 40.5012 217.93 40.2812 218.475 40.7318C220.644 42.5251 218.893 41.8153 218.328 41.839C221.48 43.8062 218.624 41.5603 223.058 44.5458C223.644 44.6163 221.815 42.9304 223.58 43.9962C223.6 44.6178 224.624 45.7885 226.925 47.6424C227.224 47.7173 227.523 47.7909 227.822 47.8658C228.865 49.1753 227.92 49.0797 230.671 50.3599C228.765 50.2704 230.047 50.3723 231.969 52.2728C232.359 52.6582 231.216 52.1028 231.767 52.633C232.017 52.8731 232.789 53.2267 233.396 53.8175C233.693 54.1065 235.013 55.5475 236.2 56.1654C235.704 55.1898 237.999 56.3097 236.488 54.7127C239.669 57.1226 242.078 58.5544 238.046 56.5051C238.78 57.2195 239.515 57.9338 240.25 58.6474C240.893 58.9615 241.541 59.2799 242.188 59.5976C242.034 59.9963 241.878 60.0277 244.18 61.5901C243.143 60.9659 242.109 60.3458 241.067 59.7193C240.985 59.7633 240.797 59.7355 240.783 59.825C242.081 60.5613 245.516 62.9424 246.402 63.4434C247.289 63.9445 245.718 62.7796 246.017 62.8629C248.504 63.5638 247.969 63.9792 249.473 64.8728C250.356 65.3967 248.428 63.8936 248.895 64.1818C250.625 65.2517 251.117 66.1808 252.575 67.2349C252.211 66.6464 251.853 66.0575 251.503 65.4758C253.028 66.5879 254.735 67.8166 256.21 68.7704C256.789 69.1449 256.481 68.681 256.581 68.7358C257.073 69.006 258.981 70.2428 259.176 70.3823C260.647 71.4363 260.53 71.6887 261.949 72.7263C261.375 72.3426 260.836 71.981 260.274 71.6056C259.766 71.7872 259.253 71.9651 258.745 72.1473C260.126 73.1785 261.508 74.2095 262.893 75.2437C261.954 74.3867 261.01 73.5277 260.07 72.6707C261.883 73.5307 263.696 74.3901 265.51 75.2495C266.216 76.0279 266.92 76.8038 267.626 77.5822C269.928 79.163 269.993 78.109 270.612 79.5176C271.319 79.9438 272.027 80.3701 272.734 80.7969C272.573 80.8191 272.413 80.8422 272.252 80.8644C273.098 81.3872 273.944 81.9101 274.791 82.4323C274.174 81.5024 273.586 80.5678 272.971 79.6533C274.607 80.7221 274.442 81.0167 274.629 81.2546C275.127 81.8852 276.547 82.536 276.926 83.0608C277.054 83.239 275.37 82.3026 275.757 82.8943C275.833 83.0095 277.368 85.2647 278.822 86.0422C278.896 85.8864 278.915 85.6437 278.969 85.4549C280.815 86.6532 281.209 88.0267 280.827 88.0585C281.88 88.6002 283.279 89.5867 283.633 89.5063C284.123 89.8499 284.609 90.1911 285.099 90.5347C284.207 90.7083 286.305 92.0656 286.769 91.699C285.942 91.088 285.115 90.4758 284.288 89.8648C285.326 89.7519 283.034 87.5883 287.938 91.9036C288.736 92.9229 286.172 90.5751 286.836 91.3863C288.173 92.5406 289.592 93.3963 290.803 94.5766C292.31 96.0464 290.053 94.7998 294.226 97.301C286.125 90.2472 295.814 97.6043 300.076 100.28C300.593 101.816 303.58 104.367 308.115 107.343C308.335 107.487 308.55 107.638 308.76 107.795C308.68 107.622 308.491 107.41 308.226 107.189C307.597 106.664 306.65 106.047 306.082 105.561C305.275 104.869 306.301 105.404 305.305 104.53C304.309 103.656 302.135 101.879 301.164 100.942C302.174 101.474 306.925 104.43 303.667 102.638C305.505 104.255 306.412 105.211 308.493 106.816C308.779 107.036 309.06 107.268 309.363 107.543C310.336 107.991 310.88 107.503 312.58 110.751C311.848 109.902 311.856 110.488 311.864 111.135C311.873 111.794 311.81 112.537 311.402 112.255C310.739 110.16 311.758 111.047 311.341 109.691C311.333 109.511 309.788 107.838 309.363 107.543C310.647 109.501 310.642 110.203 309.442 109.611C310.365 110.66 310.588 111.515 310.93 111.507C310.925 111.831 310.902 112.153 310.858 112.458C310.993 112.879 311.098 113.266 311.167 113.732C311.51 113.009 311.485 114.309 311.649 115.243C311.765 116.198 312.423 114.939 311.888 117.625C312.228 116.77 312.433 115.934 312.537 115.024C312.658 116.844 312.281 118.732 311.436 120.42C312.451 119.489 313.556 116.624 313.848 116.72C313.7 117.665 312.717 120.784 312.437 121.071C311.723 122.28 311.93 121.497 311.871 121.586C310.573 123.32 309.098 124.432 308.23 124.536C306.945 125.479 305.722 125.819 304.079 126.062C303.16 126.171 303.362 126.402 302.81 126.377C302.709 126.37 302.614 126.362 302.523 126.353C299.679 126.031 302.451 125.729 296.329 126.354C297.091 126.536 297.843 126.722 298.605 126.906C297.894 126.975 297.188 127.044 296.477 127.113C296.001 127.08 295.529 127.046 295.054 127.013C295.064 126.618 295.076 126.223 295.087 125.828C294.565 125.806 294.041 125.785 293.519 125.764C294.414 125.725 295.312 125.686 296.207 125.647C296.289 125.578 296.365 125.508 296.447 125.439C295.117 125.331 293.792 125.222 292.462 125.114C292.436 125.251 292.411 125.39 292.386 125.527C289.388 125.336 289.317 125.219 286.468 125.598C284.274 125.594 282.487 126.168 281.219 126.41C280.764 126.333 280.308 126.255 279.848 126.178C279.556 126.292 279.262 126.406 278.97 126.52C278.392 126.361 277.807 126.202 277.229 126.044C276.907 126.405 276.74 126.517 278.995 126.644C278.222 127.093 274.252 126.895 272.636 126.744C271.41 126.63 272.77 126.255 272.617 126.21C272.105 126.055 270.084 126.189 269.66 126.163C267.865 126.056 266.607 126.075 264.985 125.992C264.67 125.976 263.787 125.738 263.713 125.731C263.13 125.69 261.69 125.575 261.527 125.572C253.084 125.395 262.105 126.424 254.255 126.315C254.49 126.451 254.706 126.586 254.936 126.722C254.343 126.73 253.744 126.738 253.151 126.746C252.399 126.633 253.309 126.426 251.816 126.593C251.913 126.426 252.01 126.258 252.113 126.092C251.463 126.182 250.837 126.272 250.172 126.362C249.129 125.781 245.32 125.65 245.59 124.968C245.682 124.736 248.383 124.499 246.956 124.251C245.796 124.202 246.581 124.479 246.108 124.494C242.692 124.595 242.89 124.207 241.494 124.31C241.274 124.476 241.043 124.646 240.818 124.814C240.291 124.765 239.763 124.716 239.232 124.668C239.109 124.779 238.981 124.891 238.858 125.003C239.354 125.01 239.913 125.018 240.368 125.025C239.733 125.458 233.904 125.653 236.127 125.284C237.032 125.134 238.69 125.198 237.643 124.686C236.083 124.76 234.313 124.835 232.671 124.909C232.62 124.799 232.572 124.688 232.521 124.578C230.309 124.649 232.321 125.09 232.317 125.326C231.811 125.332 231.299 125.338 230.793 125.345C230.579 125.238 230.375 125.126 230.15 125.023C230.129 125.193 229.846 125.587 228.338 125.441C227.368 125.346 228.895 124.917 227.046 124.977C227.184 125.242 227.852 125.564 225.792 125.649C225.587 125.373 225.304 125.12 225.146 124.829C222.584 125.095 221.418 124.668 218.411 124.977C216.503 125.172 213.89 125.866 212.657 124.797C211.262 124.769 211.705 125.035 211.292 125.095C209.343 125.378 207.894 124.871 207.531 124.841C205.215 124.65 204.176 124.826 202.289 124.586C202.392 124.784 202.447 124.972 202.529 125.165C204.258 124.868 205.133 124.882 207.558 124.946C206.745 124.986 205.931 125.026 205.118 125.066C205.251 125.227 205.383 125.387 205.511 125.547C213.009 124.914 211.26 125.914 204.974 126.132C204.432 125.835 203.87 125.539 203.333 125.241C199.702 125.691 197.993 125.3 193.886 125.207C193.398 125.196 191.62 125.367 190.856 125.376C190.868 125.377 190.881 125.378 190.894 125.379C190.418 125.66 191.062 125.789 191.139 126.04C190.725 126.071 190.31 126.102 189.896 126.134C188.971 125.943 189.296 125.786 187.476 125.831C187.721 126.021 187.964 126.212 188.209 126.402C186.214 126.409 184.909 126.202 183.052 126.291C183.364 126.219 183.672 126.147 183.984 126.075C179.944 125.891 183.159 124.772 180.106 125.329C179.912 125.231 179.722 125.133 179.528 125.035C180.786 125.011 182.045 124.988 183.298 124.964C183.323 124.826 183.351 124.688 183.371 124.55C182.026 124.591 180.674 124.634 179.329 124.675C180.311 124.583 181.299 124.49 182.281 124.397C180.721 124.331 179.161 124.265 177.601 124.198C179.258 124.707 177.11 124.769 177.514 125.272C174.752 124.853 172.583 124.301 168.302 124.654C167.453 124.725 167.914 125.077 165.505 124.649C166.088 125.208 163.07 125.471 163.458 126.003C164.297 125.977 165.166 125.961 165.979 125.93C165.054 125.745 164.9 125.237 166.306 125.086C168.102 124.894 170.72 125.246 170.613 124.683C171.329 124.709 171.994 124.725 172.69 124.747C172.403 124.887 172.123 125.028 171.842 125.168C173.821 124.948 175.064 125.02 176.015 125.372C173.657 125.453 171.305 125.533 168.948 125.614C169.295 125.638 169.647 125.662 169.994 125.685C168.209 126.045 170.05 126.386 166.721 126.463C166.741 126.299 166.758 126.134 166.778 125.968C165.566 126.409 162.247 126.406 163.306 126.913C162.303 126.757 162.099 126.659 161.531 126.932C158.887 126.547 157.189 126.06 158.13 125.479C157.148 125.573 156.166 125.666 155.189 125.76C155.757 125.919 156.325 126.077 156.892 126.236C155.184 126.226 153.463 126.216 151.76 126.207C151.596 125.737 155.048 126.064 154.052 125.644C153.853 125.56 152.934 125.74 152.692 125.693C150.145 125.179 154.144 125.55 153.393 125.156C149.598 125.035 152.635 124.375 147.407 124.929C147.269 124.794 147.121 124.655 146.993 124.52C145.179 124.512 145.326 124.819 143.766 124.877C142.789 124.913 141.563 124.374 140.484 124.741C140.292 124.808 142.107 125.466 138.293 125.438C135.333 125.415 136.565 124.95 134.965 124.785C133.364 124.62 129.702 125.265 128.623 124.534C129.461 124.631 130.529 124.683 131.46 124.763C131.839 124.62 132.207 124.48 132.58 124.338C130.453 124.522 128.253 124.305 126.821 124.645C123.983 124.125 120.808 124.607 121.667 125.193C122.601 125.109 121.585 124.853 122.883 125.016C123.016 125.153 123.156 125.289 123.289 125.425C121.079 125.409 119.545 125.413 120.552 124.996C120.21 124.986 119.87 124.976 119.528 124.966C119.466 125.268 119.412 125.57 119.35 125.872C118.941 125.906 118.53 125.939 118.121 125.973C117.666 125.907 117.21 125.84 116.75 125.773C117.369 125.296 118.423 125.28 114.935 125.014C114.925 125.178 114.91 125.343 114.9 125.507C111.979 125.298 111.902 124.899 108.236 124.914C111.049 124.342 112.588 125.356 112.577 124.208C113.283 124.283 113.995 124.36 114.701 124.435C114.808 124.269 114.914 124.102 115.017 123.936C111.227 124.023 104.932 125.118 102.395 124.392C102.088 124.481 101.78 124.558 101.468 124.653C98.9823 124.215 97.9088 125.198 95.3873 124.632C95.1272 124.572 95.6715 123.649 92.3892 123.682C92.471 123.802 92.5135 124.004 92.58 124.155C91.8693 124.082 91.1623 124.005 90.4567 123.929C90.3289 124.04 90.1948 124.151 90.067 124.263C91.2792 124.306 92.488 124.35 93.7002 124.393C92.6929 124.431 91.6793 124.469 90.6721 124.507C91.9861 124.688 92.5789 124.69 91.7868 124.981C90.6462 124.998 89.5041 125.016 88.3635 125.034C88.246 125.108 88.1294 125.183 88.0119 125.258C88.5643 125.48 89.1222 125.697 89.6745 125.922C86.703 125.741 84.1196 125.731 81.8385 125.294C81.4498 125.221 82.8245 124.932 80.1759 125.192C80.135 125.039 80.0639 124.915 80.0178 124.774C76.7751 125.202 75.7098 125.074 72.329 124.765C74.5181 125.054 72.5649 124.866 72.0074 125.021C71.6254 125.127 73.1164 125.111 72.9477 125.223C72.779 125.334 70.8416 125.782 72.498 125.836C76.5591 124.918 77.6654 126.016 82.8824 125.574C82.0794 125.693 81.2706 125.811 80.4676 125.93C80.8458 126.01 81.1843 126.083 81.5932 126.168C78.6835 125.988 80.0987 126.105 78.9031 126.247C77.7062 126.388 75.5311 126.508 74.0734 126.547C73.6142 126.56 74.0985 126.354 73.0622 126.334C72.3565 126.321 70.4276 126.627 69.9823 126.267C69.6908 126.032 72.7895 125.387 68.5051 125.389C67.6986 125.159 69.7528 125.23 69.797 125.203C70.1704 124.929 67.5365 124.724 66.3192 124.933C66.2206 124.951 67.1819 125.164 66.1365 125.247C63.6559 125.447 62.2233 125.202 60.6173 124.872C60.4434 125.26 58.3559 125.722 55.7576 125.579C55.6247 125.69 55.498 125.802 55.3651 125.914C55.7686 125.855 56.1718 125.797 56.5753 125.738C57.0151 125.808 57.4812 125.858 57.9108 125.94C55.2978 126.036 54.9283 126.57 53.6753 126.765C49.3874 127.433 51.9862 126.021 52.7595 125.777C53.317 125.876 53.8561 125.986 54.4085 126.089C54.3471 125.954 54.2848 125.818 54.2286 125.683C47.8099 125.687 53.2511 124.807 49.993 124.556C49.1543 125.22 46.7614 125.284 43.7133 124.862C43.3758 124.866 43.037 124.867 42.6994 124.871C42.6433 124.967 42.6441 125.115 42.5523 125.179C38.8799 125.292 38.2257 124.269 37.8779 124.172C36.3335 123.743 35.1307 124.337 34.6754 124.342C32.7575 124.363 32.2001 124.099 30.3744 124.212C28.4109 124.335 29.7535 124.538 29.1561 124.719C28.6769 124.863 27.1278 124.888 26.4878 125.038C26.7421 124.916 27.0247 124.796 27.2782 124.673C25.2431 124.507 23.5798 124.345 21.2683 124.304C18.6601 125.197 16.4409 123.691 17.3408 124.913C19.5299 124.996 20.7539 125.136 21.9252 125.447C20.4883 125.487 19.0503 125.525 17.6134 125.565C17.1941 125.431 16.8965 125.3 16.4005 125.164C15.3266 125.448 12.837 125.326 11.8597 125.41C11.3223 125.456 10.8675 125.503 10.4765 125.549C8.94972 125.702 8.29908 125.686 7.60806 125.548C6.93261 125.375 6.07482 125.087 4.66089 123.737C7.39394 125.208 7.59882 124.793 10.4765 125.049C10.4887 125.049 10.501 125.049 10.5133 125.049C10.5013 125.044 10.4891 125.039 10.4765 125.034C9.80655 124.791 8.45373 124.645 9.39963 124.43C6.72129 124.06 7.50482 124.414 6.36319 124.303C5.34437 124.178 3.72323 122.946 3.63219 123.223C3.58037 122.96 3.57051 122.734 3.53989 122.475C2.17852 121.171 1.20637 119.476 0.729578 117.654C1.10005 118.387 1.54975 119.058 2.05794 119.653C1.84678 119.112 1.68492 118.557 1.57378 117.998C0.571788 116.022 0.833277 112.785 1.96739 110.808C3.03037 108.791 4.37541 107.784 3.4213 107.676C3.84011 107.275 4.18618 107.013 4.49881 106.805C5.38973 106.217 5.78412 106.11 6.62977 105.739C6.67792 105.578 6.73317 105.433 6.77457 105.263C8.00033 104.515 8.66853 103.561 9.75302 102.906C10.837 102.25 11.304 102.363 11.0968 101.758C11.8638 101.424 12.6097 101.068 13.3653 100.726C13.6829 100.327 14.001 99.9297 14.3148 99.5343C14.9805 99.1462 15.6474 98.7568 16.3131 98.3686C16.4758 97.8922 18.9996 96.2355 19.9655 95.3007C21.1745 94.8204 21.7243 95.6458 24.0333 93.7697C23.8276 93.6147 23.6233 93.4596 23.4176 93.3047C24 92.9497 24.5835 92.5939 25.1701 92.2359C25.2501 92.2773 25.3257 92.3218 25.4057 92.3632C25.1088 92.5457 24.8157 92.7257 24.5183 92.9076C24.8426 92.842 25.1615 92.7794 25.4817 92.7167C26.2077 91.9479 26.9348 91.1783 27.665 90.4066C26.4338 91.1029 25.2021 91.7994 23.971 92.4957C25.2992 91.3201 26.4019 90.7502 27.5311 89.6919C28.8132 89.1893 28.5269 89.6355 28.3014 90.2509C28.6859 89.9361 29.0758 89.6188 29.4603 89.3041C29.4094 89.7941 30.2188 89.4832 27.8462 91.1498C28.0694 91.1189 28.293 91.0817 28.5144 91.0571C28.8911 90.7664 29.1935 90.6586 29.5935 90.3216C30.6839 89.4023 31.1922 88.241 30.981 88.1133C30.8691 88.0474 29.8626 89.0496 29.8104 88.8803C29.6842 88.4666 32.4041 86.7406 28.3959 89.1113C29.4945 88.0017 29.8886 87.9609 31.3119 87.0319C31.1243 86.9985 30.9403 86.9636 30.7569 86.9272C31.4332 86.5192 32.1102 86.1104 32.7865 85.7023C32.3063 86.9102 37.1758 83.7389 33.2883 87.2847C34.5612 86.4097 35.8299 85.5378 37.0996 84.6672C36.884 84.9105 36.6679 85.1534 36.4524 85.3968C35.8652 85.7714 35.2817 86.1441 34.695 86.5195C35.4364 86.1493 36.1784 85.7777 36.9197 85.4075C38.3951 84.1476 38.8645 83.5019 39.4027 82.7344C37.4432 83.8628 38.2204 83.6849 36.832 84.7571C36.7673 84.5621 36.5964 84.4627 36.6008 84.206C37.5735 84.0077 39.8019 82.0444 40.3469 81.6286C42.006 80.3634 40.9101 81.6413 42.0484 80.8346C43.1875 80.0271 44.3868 78.8737 45.5441 78.5301C45.3982 78.3618 45.1902 78.2286 45.006 78.1122C46.7294 76.7854 46.5299 77.2512 46.7325 77.1475C49.9747 75.5071 51.2826 73.9883 54.5857 71.5468C54.1219 71.7952 53.6576 72.0521 53.1921 72.3068C55.4345 70.1174 53.8229 71.4517 51.5468 72.894C53.6228 71.4619 54.562 70.294 55.9384 69.1592C57.3147 68.0247 59.9142 66.4122 60.914 65.8922C58.9913 67.5904 56.6557 69.0572 54.3954 70.7675C54.7888 70.7632 55.1547 70.736 55.5695 70.7439C56.6929 69.3536 57.6891 69.0288 58.187 68.7489C59.6488 67.9267 59.3689 67.6265 60.4426 67.3948C60.3215 67.2963 60.2233 67.2109 60.1081 67.1204C62.9409 65.1643 66.1123 63.2155 67.6078 61.4573C67.985 61.6319 68.3136 61.825 68.72 61.9877C69.7452 60.9166 70.9218 60.4153 71.8817 59.6478C72.8376 58.8832 72.2891 58.917 73.3908 57.9875C73.5948 57.8156 74.1514 57.6413 74.6046 57.1499C75.0625 56.6542 76.4548 54.413 77.2055 54.9589C78.2092 54.2435 79.1755 53.5894 80.1647 52.8977C79.2381 53.624 78.3103 54.3493 77.3878 55.0726C78.3266 54.6616 79.2601 54.2537 80.1989 53.8427C80.1917 53.6134 80.1828 53.3811 80.1729 53.1569C82.2315 51.3937 84.0051 50.5038 86.1767 48.8543C86.5392 48.5788 85.4473 48.8992 87.1439 47.7994C88.841 46.6993 90.4687 46.3959 93.1064 44.1684C93.2394 44.0555 93.7535 43.024 94.9722 42.6078C95.2493 42.5128 94.3631 43.3028 94.9508 43.0174C95.539 42.7317 97.9282 41.129 98.265 41.2123C98.1855 41.1542 97.9832 41.1802 97.8571 41.1536C98.2298 40.831 98.6065 40.5055 98.9838 40.1806C99.1173 40.2876 99.2538 40.3927 99.3868 40.499C101.457 38.5412 102.277 37.1824 105.796 34.911C104.701 35.4026 103.605 35.8936 102.514 36.3822C102.351 36.7067 102.187 37.0324 102.028 37.3538C100.422 38.4236 98.8129 39.4969 97.2077 40.5667C97.0616 40.907 96.9197 41.2436 96.7736 41.5839C96.3438 41.8619 95.9184 42.1377 95.4885 42.4157C95.5117 42.2288 95.5363 42.0419 95.5637 41.852C94.761 42.47 93.9577 43.0893 93.1591 43.7044C94.3492 41.8454 97.8522 40.4209 97.2386 40.021C97.67 39.8417 98.1023 39.6627 98.5342 39.4841C98.5032 39.0988 99.3103 38.6367 100.666 37.728C100.267 37.8133 99.8384 37.923 99.4639 37.989C100.886 37.2514 103.158 35.5931 104.543 34.7076C105.152 34.3188 104.707 34.9337 104.897 34.8316C105.877 34.31 107.34 32.7441 107.716 32.5145C109.967 31.1416 111.818 30.7904 113.843 28.6921C111.362 30.3141 112.703 29.4189 111.678 29.7973C111.357 29.9156 108.138 31.9922 112.079 29.2671C112.541 28.9482 119.923 24.3246 117.846 26.3324C118.911 25.4032 119.715 24.635 120.679 23.7677C123.885 22.8303 122.392 22.6208 121.314 22.6892C121.732 22.386 122.128 22.0947 122.56 21.7845C121.993 22.9326 126.693 19.6047 128.103 18.2185C128.576 17.7547 126.976 18.6657 128.153 17.7089C128.763 17.3228 129.46 16.8903 130.106 16.4844C128.986 16.8193 130.662 15.4357 130.411 15.1387C131.739 14.6109 133.027 14.5872 132.639 15.3535C133.476 14.5551 134.318 13.7533 135.154 12.9542C134.669 13.1897 134.178 13.43 133.692 13.6655C136.875 11.6799 140.463 8.42268 141.574 8.62749C141.973 8.33347 142.378 8.03702 142.777 7.743C142.822 7.54187 142.862 7.34354 142.906 7.14241C144.799 5.93016 146.689 4.72151 148.582 3.50927C147.008 4.74417 146.736 5.18056 144.94 6.27388C145.689 5.93124 146.45 5.58053 147.186 5.24682C148.685 3.83165 149.291 3.1322 150.6 2.09102C151.322 1.52836 152.336 0.890837 153.993 0.501357C154.097 0.474752 155.061 0.33027 155.999 0.386979C156.94 0.426617 157.826 0.655975 157.881 0.68234C158.391 0.920776 157.552 1.02777 157.777 1.1425C158.084 1.2898 159.158 1.69424 159.991 2.26893C160.837 2.8269 161.438 3.49022 161.386 3.50185C160.952 3.62019 159.653 2.9395 157.842 2.78416C156.044 2.59048 153.786 3.10654 152.214 4.33915C149.968 6.01558 147.919 7.50304 146.861 8.28564C114.777 32.0034 82.6471 54.1491 50.5164 77.371C50.1865 77.6102 50.421 77.632 50.2838 77.7387C49.4299 78.3994 48.4287 78.8217 48.0988 79.0463C47.3945 79.5267 47.9055 79.4337 47.3997 79.797C42.1713 83.5471 37.1625 86.9816 31.9537 90.7677C31.6144 91.0143 31.8585 90.62 31.2785 91.075C30.9797 91.3107 30.1721 92.2266 29.4774 92.7304C27.0508 94.4896 24.9546 95.8866 22.3893 97.7332C20.9863 98.7433 18.866 100.237 17.2982 101.367C16.6057 101.867 15.956 102.487 15.2732 102.982C14.3044 103.685 14.3552 103.336 14.1965 103.431C13.4999 103.846 13.5712 104.138 12.9441 104.58C11.7771 105.401 11.6065 105.295 10.1449 106.363C9.2971 106.984 7.60866 108.317 6.3074 109.324C6.07811 109.506 5.88809 109.675 5.7227 109.83C3.32132 111.41 2.62508 115.354 3.79427 117.745C4.4332 119.132 4.38958 119.343 4.76268 119.86C6.23172 121.597 7.95755 122.017 9.96958 122.16C10.136 122.169 10.3048 122.175 10.4765 122.175C13.9725 122.188 17.1301 122.382 20.5624 122.397C21.1553 122.399 21.0192 122.161 21.6009 122.155C23.7541 122.133 26.5077 122.089 28.4257 122.123C30.5632 122.161 31.3517 122.506 33.4434 122.436C34.0567 122.415 34.2364 122.112 35.2641 122.073C36.9057 122.012 38.7057 122.279 39.8512 122.309C41.4214 122.349 40.0559 122.04 42.1734 122.081C42.2604 122.083 42.5772 122.304 43.032 122.293C44.3567 122.263 44.2252 122.09 46.1636 122.106C46.3496 122.108 48.9199 122.319 49.1754 122.32C50.679 122.323 53.7064 122.396 54.5965 122.352C57.7779 122.193 55.2733 121.861 57.9789 122.581C59.1703 122.405 60.3519 122.226 61.6148 122.055C60.7719 122.215 64.1927 122.445 64.4331 122.43C66.4215 122.31 65.2371 122.03 67.7583 122.076C64.4286 122.724 71.011 122.16 72.4789 122.143C79.5471 122.063 85.972 122.225 93.076 122.22C95.4543 122.219 98.6412 122.082 101.157 122.085C101.744 122.085 101.301 122.239 101.817 122.242C102.332 122.244 101.761 122.072 102.348 122.081C106.005 122.141 108.87 122.465 112.22 122.06C112.383 122.118 112.378 122.165 112.648 122.229C115.39 121.866 120.669 122.355 122.654 122.422C125.758 122.526 126.551 122.28 128.805 122.33C131.787 122.396 136.264 122.876 134.265 122.084C136.31 122.059 138.279 122.052 140.345 122.126C140.575 122.134 140.417 122.335 140.509 122.34C141.092 122.368 141.282 122.188 141.676 122.18C142.743 122.158 141.001 122.373 142.523 122.313C143.326 122.281 143.782 122.124 146.012 122.12C159.453 122.103 174.046 122.159 187.825 122.186C188.771 122.187 188.148 121.993 189.335 122.005C193.457 122.048 200.836 122.376 204.391 122.331C207.945 122.287 207.143 122.002 209.368 121.883C209.797 121.859 209.445 122.022 209.834 122.024C212.447 122.039 215.563 122.292 217.681 122.33C219.081 122.356 218.969 122.1 219.94 122.082C221.388 122.056 222.877 122.314 223.65 122.322C227.28 122.358 229.777 122.151 233.167 122.257C233.035 122.2 232.947 122.148 232.835 122.093C236.849 122.102 240.859 122.111 244.874 122.12C244.684 122.069 244.501 122.017 244.312 121.965C249.022 121.993 248.485 122.55 248.071 121.375C248.413 121.333 248.776 121.285 249.104 121.247C248.971 121.852 251.82 122.295 255.446 122.449C255.712 122.461 257.496 121.871 257.302 122.568C257.768 122.397 258.045 122.28 258.439 122.13C259.206 122.341 259.983 122.55 260.75 122.76C261.164 122.728 261.584 122.698 261.998 122.667C262.06 122.53 262.012 122.388 262.145 122.254C264.068 122.233 268.012 122.402 269.532 122.385C273.306 122.341 277.149 121.972 280.085 122.371C281.515 122.33 280.095 122.062 282.222 122.096C282.462 122.232 282.688 122.362 282.939 122.502C284.677 121.895 285.04 122.264 287.422 122.391C289.033 122.477 290.088 122.329 291.622 122.358C292.011 122.365 291.956 122.543 292.222 122.537C293.113 122.519 295.654 122.274 296.283 122.267C298.455 122.243 300.511 122.231 302.523 122.231C304.95 122.232 307.058 121.193 308.451 119.183C308.683 118.834 308.246 119.196 308.479 118.837C308.831 118.245 308.87 118.727 309.07 118.365C309.556 117.311 309.355 117.203 309.547 115.666C309.746 113.331 308.791 110.934 306.655 109.376C303.221 106.847 299.737 104.261 296.402 101.855C296.211 101.717 296.125 101.861 295.917 101.713C294.558 100.748 293.318 99.5808 292.087 98.7001C290.045 97.2384 288.375 96.3281 286.361 94.8808C282.422 92.0527 278.973 89.4289 274.926 86.5155C271.614 84.1307 268.721 82.0816 265.086 79.4712C249.208 68.0688 232.694 56.8664 216.87 45.1605C216.467 44.8624 216.719 44.8615 216.591 44.7776C215.374 43.9824 215.153 44.0683 214.976 43.4289C213.425 42.4164 212.768 42.3301 210.966 41.0088C210.005 40.3048 211.01 40.4294 209.228 39.4575C207.618 38.5801 209.094 39.9668 204.857 36.5911C204.745 36.5015 204.344 35.8503 203.386 35.2567C202.423 34.6594 203.362 35.5943 201.115 34.0593C195.839 30.4552 189.419 25.5325 183.34 21.2658C182.959 20.9984 179.226 18.5128 178.465 18.056C176.991 17.1725 177.154 17.5595 175.315 16.3062C173.895 15.3377 172.888 14.3087 171.218 13.1709C171.024 13.0386 170.554 13.0167 169.341 12.1037ZM119.533 126.133C119.114 126.384 118.357 127.309 115.821 127.027C115.58 127.001 116.878 126.365 115.477 126.264C116.848 126.197 118.183 126.175 119.533 126.132C119.533 126.133 119.533 126.133 119.533 126.133ZM163.847 0.906521C165.362 2.05075 166.882 3.19841 168.396 4.34263C167.267 3.6699 166.137 2.99584 165.012 2.32677C164.622 1.85241 164.237 1.38088 163.847 0.906521ZM270.821 126.617C270.823 126.617 270.824 126.617 270.826 126.617C268.832 126.736 266.836 126.855 264.841 126.975C265.051 126.887 265.261 126.799 265.471 126.711C267.046 126.573 268.621 126.435 270.191 126.296C270.401 126.403 270.611 126.51 270.821 126.617ZM286.58 125.688C287.854 125.792 287.542 125.968 288.243 126.139C288.243 126.139 288.243 126.139 288.243 126.138C288.428 126.183 289.289 126.222 289.622 126.229C289.499 126.118 289.341 126.01 289.208 125.9C292.179 125.634 297.99 126.581 290.467 126.963C290.579 126.824 290.687 126.685 290.799 126.546C287.06 126.585 282.892 126.284 286.58 125.688ZM89.4701 126.534C86.2785 126.989 85.2551 127.085 81.3833 126.773C81.9302 126.644 82.4772 126.515 83.0241 126.386C83.6635 126.517 84.2981 126.648 84.9375 126.78C84.9393 126.78 84.9411 126.78 84.9429 126.78C85.0708 126.641 85.199 126.503 85.3218 126.365C86.7026 126.421 88.0893 126.477 89.4701 126.534ZM243.083 59.065C242.891 57.8074 242.791 58.3865 244.975 59.7016C245.731 60.1568 245.128 59.5275 245.588 59.8251C248.073 61.431 247.909 62.0638 247.189 61.9367C245.817 60.9789 244.433 60.0094 243.088 59.0681C243.086 59.0671 243.085 59.066 243.083 59.065ZM180.683 14.5034C180.681 14.5023 180.68 14.5013 180.678 14.5002C180.745 14.2753 181.748 14.9216 180.779 13.9673C181.609 14.564 182.438 15.1616 183.272 15.7613C183.016 15.6024 182.754 15.439 182.497 15.28C182.669 15.497 182.841 15.7152 183.012 15.9322C183.456 15.9368 183.643 16.2539 184.466 16.9494C184.384 16.5552 184.303 16.1616 184.221 15.7673C185.187 16.5608 186.157 17.3572 187.123 18.1507C187.096 18.2154 187.068 18.2804 187.041 18.3451C187.474 18.5481 187.904 18.7476 188.337 18.9506C188.393 19.0918 188.446 19.2295 188.502 19.3707C188.999 19.6512 189.497 19.9323 189.995 20.2121C190.02 20.4741 188.953 19.8144 190.784 21.0665C190.113 20.8353 189.443 20.6044 188.768 20.3702C186.072 18.4151 183.377 16.4592 180.683 14.5034ZM262.025 72.3175C259.024 70.21 259.946 70.6954 260.899 70.8247C261.273 71.3212 261.651 71.821 262.025 72.3175ZM196.705 125.896C195.641 126.203 194.572 126.507 193.483 126.803C191.314 126.975 189.145 126.415 190.777 126.195C192.741 125.932 194.792 126.227 196.705 125.896ZM147.312 126.032C149.965 126.175 147.469 126.54 146.87 126.752C146.136 126.41 145.113 126.441 143.469 126.401C145.013 126.379 146.873 126.008 147.312 126.031C147.312 126.032 147.312 126.032 147.312 126.032ZM239.403 126.241C240.467 126.232 241.524 126.146 242.475 126.25C242.188 126.544 240.286 126.276 241.646 126.712C240.966 126.719 240.285 126.727 239.61 126.735C240.039 126.554 239.462 126.42 239.406 126.242C239.405 126.241 239.404 126.241 239.403 126.241ZM291.09 92.756C292.583 94.2554 292.991 94.3651 294.839 95.3953C294.914 95.798 292.602 94.7216 291.265 93.8908C291.209 93.5138 291.151 93.136 291.09 92.756ZM108.415 30.8371C108.218 31.4225 105.243 33.6164 103.688 34.6008C103.835 34.4298 103.981 34.2578 104.127 34.0861C105.555 33.0045 106.987 31.9187 108.415 30.8371ZM142.687 126.376C142.962 126.387 143.223 126.395 143.469 126.401C143.195 126.405 142.931 126.399 142.687 126.376ZM31.5819 124.81C32.4561 124.47 29.8574 124.356 33.0128 124.489C33.0128 124.489 33.0128 124.488 33.0128 124.488C35.0996 124.576 35.5603 124.599 37.4936 124.626C36.7976 125.063 32.8754 125.219 38.2813 125.309C38.3525 125.31 38.2108 125.049 39.0744 125.085C39.341 125.096 40.1943 125.31 41.492 125.372C41.9114 125.391 45.0631 125.457 40.767 125.461C40.8949 125.766 40.6641 126.075 40.6743 126.37C38.9974 126.456 37.7086 125.859 35.9346 125.874C33.3005 125.897 31.9601 126.501 31.4538 125.709C33.6686 125.515 37.4718 125.51 37.9679 125.986C40.1106 125.992 40.7259 125.602 38.9981 125.409C31.5972 125.654 36.9664 124.83 30.4862 125.141C30.4095 125.251 30.143 125.37 30.1837 125.473C28.2056 125.086 31.2699 124.932 31.5819 124.81ZM47.0576 125.652C45.7789 125.885 44.5045 126.119 43.2309 126.353C43.231 125.973 43.9332 125.633 45.9483 125.419C46.3163 125.497 46.6897 125.575 47.0576 125.652ZM41.4378 79.8346C41.4672 79.5597 41.7558 79.12 41.9322 78.7519C42.3493 78.6664 49.9258 73.433 46.2202 76.303C45.6821 76.7199 42.0988 78.8434 41.4378 79.8346ZM279.139 84.5589C279.939 85.3035 280.736 86.0458 281.532 86.7874C280.131 85.8899 278.728 84.9935 277.326 84.0974C277.932 84.2521 278.533 84.4041 279.139 84.5589ZM179.054 125.534C179.512 125.541 177.991 125.825 179.795 125.78C178.45 125.962 177.19 126.115 175.876 126.286C175.482 126.152 175.084 126.018 174.69 125.884C174.383 125.97 174.07 126.055 173.764 126.142C173.948 125.946 174.112 125.755 174.306 125.557C176.521 125.976 177.028 125.501 179.054 125.534ZM244.906 124.77C245.305 125.194 242.098 125.447 245.252 125.515C244.654 125.794 243.692 125.94 241.845 125.965C241.549 125.858 241.253 125.752 240.957 125.646C240.916 125.931 240.441 126.037 239.403 126.241C239.402 126.24 239.401 126.24 239.401 126.24C236.594 126.26 236.761 126.165 236.086 125.696C239.058 125.961 239.147 125.532 241.172 125.277C242.563 125.102 244.38 125.181 244.906 124.77ZM33.472 85.5589C34.97 84.0423 33.2431 84.8703 36.4939 83.0055C36.3517 83.2197 36.2082 83.4339 36.066 83.648C35.2019 84.2857 34.3371 84.9226 33.472 85.5589ZM255.277 126.225C255.037 125.568 253.058 125.056 252.72 126.125C254.649 126.343 253.707 125.737 255.277 126.225ZM148.217 125.003C151.925 125.034 151.224 125.776 149.7 126.146C149.464 126.012 149.229 125.876 148.999 125.742C148.35 125.803 147.7 125.865 147.05 125.925C147.439 125.618 147.828 125.31 148.217 125.003ZM312.644 112.683C313.151 114.088 313.102 113.303 312.921 112.376C312.734 111.459 312.314 110.468 312.849 111.422C313.725 113.021 313.238 115.38 312.92 114.526C312.885 113.959 312.8 113.329 312.645 112.689C312.644 112.687 312.644 112.685 312.644 112.683ZM304.321 125.495C304.884 125.865 304.206 126.025 306.479 125.19C306.797 125.075 308.239 124.463 309.146 123.707C310.063 122.965 310.533 122.335 309.585 122.979C308.18 124.278 306.285 125.195 304.321 125.495ZM105.357 125.737C105.323 125.518 109.235 125.039 109.737 125.159C109.737 125.158 109.737 125.158 109.737 125.158C111.093 125.485 106.966 125.531 108.756 125.98C104.793 125.585 103.607 126.54 103.883 125.282C106.218 125.227 105.112 125.486 105.357 125.737ZM148.444 3.3681C148.445 3.36704 148.447 3.36598 148.448 3.36492C148.229 3.50977 146.283 4.51166 146.433 4.26795C148.603 2.8273 148.349 3.26924 150.115 1.57435C150.157 1.57751 150.197 1.58115 150.237 1.58496C150.37 1.59287 150.498 1.60516 150.64 1.61239C150.555 1.6789 150.474 1.74454 150.398 1.80957C149.799 2.32559 149.412 2.7287 148.444 3.3681ZM49.7807 74.3878C49.0371 74.992 47.4811 75.8175 46.6043 76.4642C48.8912 73.7035 52.7519 71.9757 49.7807 74.3878ZM209.835 35.3916C209.837 35.3929 209.839 35.3942 209.842 35.3955C209.841 35.3955 209.84 35.3952 209.839 35.3951C209.837 35.394 209.836 35.3927 209.835 35.3916ZM3.70201 123.502C3.63672 123.372 3.61419 123.285 3.62329 123.233C3.62605 123.23 3.6288 123.227 3.63155 123.224C3.64908 123.311 3.67103 123.403 3.70201 123.502ZM97.227 125.803C95.5977 125.498 101.026 125.014 102.782 125.129C102.659 125.268 102.64 125.395 102.354 125.554C100.937 125.194 97.4981 125.854 97.227 125.803ZM220.995 125.691C216.704 125.683 222.288 124.48 222.518 125.439C222.51 125.458 221.106 125.689 220.995 125.691ZM131.068 125.677C132.161 125.313 129.964 125.216 133.477 125.279C133.681 125.373 133.886 125.468 134.09 125.562C133.083 125.6 132.075 125.639 131.068 125.677ZM192.883 124.112C187.483 124.315 182.317 124.673 185.835 125.677C186.244 125.645 186.658 125.613 187.067 125.581C187.128 125.091 188.637 125.359 190.845 125.375C191.159 125.18 192.384 125.135 192.614 124.97C193.058 124.65 191.651 124.426 192.883 124.112ZM232.567 52.8789C232.686 52.8617 232.805 52.843 232.923 52.8264C233.672 53.2479 234.423 53.671 235.172 54.0924C234.966 54.1423 234.76 54.192 234.555 54.2419C233.892 53.788 233.233 53.3364 232.571 52.8825C232.57 52.8813 232.568 52.8801 232.567 52.8789ZM52.3207 124.618C51.8301 125.539 53.5446 125.369 57.0223 124.904C55.4572 124.809 53.8857 124.713 52.3207 124.618ZM279.671 124.485C279.783 124.746 279.894 125.007 280.011 125.269C281.858 124.996 281.515 124.697 280.63 124.351C280.308 124.395 279.993 124.44 279.671 124.485ZM305.92 123.767C305.237 123.955 305.643 124.03 305.572 124.052C304.189 124.375 303.713 124.33 302.523 124.407C302.164 124.42 301.744 124.442 301.222 124.477C300.93 124.533 300.644 124.591 300.352 124.648C301.043 124.992 301.616 125.002 302.523 125.042C303.065 125.063 303.706 125.071 304.584 125.024C304.127 124.921 303.705 124.786 303.287 124.627C304.519 124.579 305.751 124.301 306.882 123.782C306.988 123.664 307.089 123.546 307.189 123.424C306.774 123.571 306.335 123.682 305.92 123.767ZM224.682 46.9257C223.672 46.1745 222.658 45.4192 221.649 44.668C221.533 44.7508 221.418 44.8354 221.301 44.9182C222.427 45.5864 223.556 46.2574 224.682 46.9257ZM26.4878 125.038C26.3881 125.086 26.2908 125.134 26.2043 125.183C26.2128 125.123 26.3217 125.076 26.4878 125.038ZM151.564 2.07947C152.766 1.4278 154.653 0.771443 156.161 0.771104C156.102 0.60567 155.089 0.560656 153.951 0.826126C152.807 1.07064 151.609 1.66758 150.979 1.97821C150.828 2.15671 151.053 2.34689 151.564 2.07947ZM153.346 125.033C153.704 124.864 154.062 124.696 154.415 124.527C155.279 124.545 156.145 124.564 157.015 124.583C157.041 124.444 157.066 124.305 157.091 124.167C153.261 124.346 154.144 123.948 152.248 123.554C152.616 124.047 152.978 124.539 153.346 125.033ZM191.649 24.2927C193.951 25.8303 194.85 26.2607 193.825 25.0141C192.976 24.522 192.123 24.0265 191.274 23.5344C191.4 23.788 191.527 24.042 191.649 24.2927ZM12.3048 102.011C14.0954 100.535 14.4513 100.965 16.1085 99.3923C15.0642 100.016 14.0192 100.638 12.979 101.258C12.7565 101.507 12.5274 101.762 12.3048 102.011ZM89.6581 123.196C88.6813 123.003 86.8552 123.923 84.1089 123.244C83.4544 123.447 83.0443 123.64 82.4817 123.839C82.1544 123.623 81.7825 123.404 81.4706 123.19C81.4687 123.19 81.4669 123.19 81.4651 123.19C78.9743 123.262 80.5892 123.533 80.533 123.763C80.5066 123.858 78.6579 123.699 79.2356 123.906C80.233 124.261 83.9597 124.057 83.9699 124.49C82.6606 124.348 80.1038 124.467 80.86 124.755C81.6885 125.073 84.0981 124.541 85.6325 124.804C83.4337 124.112 87.9751 124.326 88.4916 124.857C91.1563 124.449 88.7071 124.283 85.9759 124.302C87.6433 123.895 85.189 124.115 84.7848 123.776C86.5042 123.572 92.4044 123.742 89.6581 123.196ZM215.377 123.947C213.536 123.973 210.658 123.74 209.398 124.084C208.663 124.284 211.547 124.439 209.558 124.754C211.353 124.723 211.762 124.6 211.455 124.325C211.864 124.292 212.278 124.259 212.687 124.227C212.876 124.281 213.071 124.334 213.26 124.388C213.474 124.274 213.691 124.162 213.9 124.048C214.335 124.071 214.774 124.093 215.208 124.116C215.26 124.059 215.347 124.01 215.377 123.947ZM66.3045 63.2265C65.891 63.5274 65.4816 63.8253 65.0686 64.1269C65.1535 64.1486 65.2488 64.1662 65.3415 64.1846C65.411 64.2018 65.4804 64.2191 65.5499 64.2364C65.1955 64.251 63.0278 65.4085 62.3155 66.1759C61.9572 66.5616 63.127 66.1779 61.3879 67.5059C62.6645 66.5661 63.8279 65.6687 65.0598 64.7456C65.0119 64.9156 64.969 65.0834 64.921 65.2534C64.9219 65.2529 64.9227 65.2526 64.9235 65.2522C65.3534 64.9742 65.7888 64.6936 66.2187 64.4156C66.2483 64.0183 66.2749 63.6238 66.3045 63.2265ZM278.172 123.968C276.428 124.184 275.844 124.296 276.667 124.646C276.669 124.646 276.671 124.646 276.673 124.646C277.322 124.491 277.972 124.337 278.621 124.182C278.473 124.111 278.325 124.039 278.172 123.968ZM11.4645 123.884C7.75645 125.212 16.1071 124.398 14.5171 123.946C14.4455 123.925 11.8123 124.031 11.4645 123.884ZM147.535 124.595C148.553 124.584 149.573 124.574 150.596 124.564C150.361 124.4 150.12 124.238 149.885 124.075C149.102 124.248 148.318 124.422 147.535 124.595ZM201.084 31.8074C201.742 32.728 203.899 34.4388 205.221 34.9007C204.675 34.4514 204.129 34.0019 203.582 33.5526C204.693 34.2938 205.794 35.0225 206.911 35.7717C207.265 35.4011 205.835 34.7367 204.022 33.2629C203.742 33.034 202.233 31.1759 201.309 31.0968C201.122 31.0825 203.078 32.5686 201.526 31.8038C202.119 32.2572 202.646 32.6288 203.211 33.0503C203.182 33.1783 203.153 33.3062 203.128 33.4372C202.445 32.8929 201.767 32.3517 201.084 31.8074ZM204.655 123.986C202.125 123.958 201.813 124.161 201.286 124.52C202.463 124.479 203.64 124.439 204.816 124.399C204.76 124.261 204.711 124.124 204.655 123.986ZM219.385 45.0876C220.476 45.9429 220.164 45.36 220.649 45.6399C222.482 46.6992 223.528 47.7067 225.295 48.8142C225.15 48.7794 225.017 48.7482 224.877 48.715C224.878 48.7161 224.88 48.7171 224.881 48.7182C232.744 54.6652 228.925 51.109 224.071 47.7575C224.022 47.5888 223.978 47.4233 223.928 47.2553C221.674 45.8703 219.591 44.5993 219.385 45.0876ZM44.4084 123.839C44.2958 123.771 45.2522 123.34 43.4571 123.542C42.0356 124.172 44.367 123.859 44.9508 124.101C44.4649 124.162 43.9679 124.22 43.4871 124.281C46.3923 124.459 46.8163 124.309 45.7575 123.849C45.6819 123.818 44.5211 123.907 44.4084 123.839ZM25.3158 123.528C24.9169 124.457 28.5832 124.039 28.4502 123.751C27.9441 123.74 27.5507 123.897 27.0138 123.827C26.4718 123.758 26.3332 123.541 25.3158 123.528ZM130.356 123.755C130.249 123.751 129.17 123.361 129.277 123.667C130.612 124.389 133.302 123.924 132.831 123.672C131.941 123.685 131.348 123.793 130.356 123.755C130.356 123.755 130.356 123.755 130.356 123.755ZM187.401 22.2547C187.428 22.3055 189.524 24.0029 189.891 24.0872C190.219 24.121 190.437 24.0612 190.71 24.0486C189.414 23.3115 187.044 21.4633 187.406 22.2579C187.404 22.2568 187.403 22.2557 187.401 22.2547Z" fill="#000F55"/>
</svg>
