<svg width="120" height="84" viewBox="0 0 120 84" fill="none" xmlns="http://www.w3.org/2000/svg">
<path d="M86.261 22.9753C86.0933 22.194 87.4058 24.1939 86.8311 22.6259C87.0666 22.8594 87.3043 23.0937 87.5398 23.3271C87.4372 23.5176 87.3362 23.7093 87.2336 23.8997C86.9097 23.5925 86.5856 23.285 86.2602 22.9759C86.2605 22.9757 86.2607 22.9755 86.261 22.9753ZM83.9376 24.0761C84.6352 24.0338 85.5634 24.9408 85.0967 23.5279C84.8752 23.5646 84.6521 23.5992 84.4306 23.6359C84.2445 23.1647 84.0566 22.6912 83.8699 22.2206C83.7027 22.1322 83.5356 22.044 83.369 21.9551C83.4938 21.5696 83.6206 21.185 83.746 20.799C83.8309 20.9831 83.9169 21.1698 84.0018 21.3539C84.7046 21.7849 85.1979 22.2753 85.901 23.0635C85.9052 22.941 85.9087 22.8187 85.913 22.6962C86.1433 23.1985 86.3732 23.7007 86.6021 24.2012C86.2067 23.9254 85.7653 23.6165 85.3984 23.3614C85.4162 24.2299 86.4079 24.9857 86.8905 25.4062C87.548 25.9786 87.2292 25.9868 87.7121 26.4156C87.7888 26.4843 87.9504 26.3686 88.0793 26.5228C88.7292 27.3018 89.886 28.9002 88.8017 28.295C87.7986 26.9591 86.6144 26.0853 85.6904 24.7261C85.5465 25.3994 84.8625 24.8428 83.9376 24.0761ZM104.544 46.8587C104.023 46.6286 103.457 45.7613 103.159 45.1049C103.158 45.1043 103.158 45.1037 103.157 45.1031C103.092 44.9586 103.141 44.4709 103.446 44.8698C103.941 45.5208 103.767 46.1701 104.324 46.2719C104.391 46.4644 104.47 46.6597 104.544 46.8587ZM105.686 48.2205C105.897 48.6943 105.436 48.7749 105.127 48.2168C105.127 48.217 105.127 48.2172 105.126 48.2174C104.998 47.9845 105.573 48.181 104.727 47.6567C104.805 47.3467 104.867 47.0534 104.94 46.7503C105.088 46.9267 105.225 47.0857 105.379 47.2714C104.95 47.4093 105.473 47.7474 105.686 48.2205ZM89.5145 28.8087C89.8582 28.6324 89.6487 28.377 89.4992 27.7746C89.8233 28.1952 90.1467 28.6165 90.4694 29.0354C90.1503 28.9593 89.8335 28.8848 89.5145 28.8087ZM81.7202 19.0725C81.7197 19.0719 81.7192 19.0713 81.7187 19.0706C81.563 18.9728 81.4068 18.8747 81.2531 18.7782C81.2928 18.6125 81.3326 18.4481 81.3723 18.2825C80.8875 17.8842 80.4006 17.4833 79.9151 17.0855C80.2827 16.8845 80.9239 17.7845 81.53 18.076C82.0014 18.8568 82.0891 19.3459 81.8543 19.6112C81.8097 19.4323 81.7662 19.2531 81.7202 19.0725ZM40.2852 81.7551C40.0797 81.8693 39.8767 81.9836 39.6712 82.0978C39.9444 82.1499 40.2155 82.1897 40.4911 82.2501C41.2117 81.7534 41.2794 82.1928 42.2235 82.1623C45.1176 82.0679 44.3498 81.2964 46.9635 82.4264C44.865 82.3727 45.6714 82.9036 44.4063 83.3126C44.1442 83.0013 45.3978 82.2992 44.5483 82.1535C43.0846 82.4829 41.677 82.7898 40.0528 83.0026C40.1003 83.0564 40.1475 83.1104 40.1949 83.1642C40.4525 83.1302 40.7079 83.0961 40.9654 83.0621C40.6875 83.2062 40.4159 83.349 40.1335 83.4947C40.4904 83.1677 39.5807 83.3504 39.7025 82.9747C39.7567 82.8075 40.1587 82.5755 40.3959 82.4157C39.7838 82.3288 39.156 82.2491 38.5371 82.1647C38.8577 82.0315 39.1782 81.8981 39.4966 81.7648C39.7585 81.7607 40.0185 81.7577 40.2804 81.7536C40.282 81.7541 40.2836 81.7546 40.2852 81.7551ZM51.7649 1.41215C51.4214 2.0312 50.8005 2.79034 50.2005 3.3912C49.9632 3.61587 49.7081 3.79334 49.4563 3.88912C49.6341 3.66614 49.8117 3.44326 49.9892 3.22041C50.5151 2.56192 51.11 1.95351 51.7649 1.41215ZM81.6673 19.8382C81.6634 19.7281 81.6607 19.6207 81.6569 19.5107C81.9964 19.7358 82.3367 19.9633 82.6762 20.1884C82.5743 20.3665 82.4736 20.546 82.3738 20.7254C82.1386 20.4305 81.9025 20.1331 81.6673 19.8382ZM97.4582 39.0357C97.2705 38.8219 97.2596 38.7984 97.0583 38.506C97.0584 38.5064 97.0585 38.5068 97.0587 38.5072C96.9784 38.3917 96.3272 37.4084 96.5239 37.4177C96.8923 37.8694 97.2812 38.3545 97.6561 38.8184C97.5922 38.8933 97.52 38.9568 97.4582 39.0357ZM93.2119 33.6456C93.2117 33.6447 93.2114 33.6439 93.2112 33.6431C93.0952 33.464 93.0042 33.2791 92.8731 33.1036C93.5487 33.571 93.3038 33.9292 93.8454 34.4122C94.3876 34.8947 94.8441 35.0947 94.7833 35.9251C94.5749 35.803 94.3271 35.6905 94.1036 35.572C93.6416 34.6383 93.3029 34.5601 92.6158 34.067C92.8151 33.9263 93.0127 33.7862 93.2119 33.6456ZM53.1698 82.9069C53.364 82.6254 53.5807 82.9016 53.6032 82.9049C53.6028 82.9052 53.6024 82.9056 53.602 82.9059C55.3229 82.6452 53.3781 83.0617 55.0022 83.1056C54.7605 83.1759 54.5228 83.2502 54.2834 83.3214C53.913 83.1856 53.5311 83.0318 53.1698 82.9069ZM109.212 82.8977C109.237 82.978 109.266 83.0582 109.291 83.1383C108.859 83.1656 108.551 83.2127 108.274 83.2518C107.892 83.3158 107.605 83.3724 107.099 83.1891C107.491 83.1381 107.882 83.0874 108.274 83.0368C108.593 83.0019 108.904 82.9551 109.212 82.8967C109.212 82.8971 109.212 82.8974 109.212 82.8977ZM100.087 43.2363C99.285 42.493 98.7281 41.9138 98.268 40.9494C98.2677 40.9485 98.2675 40.9477 98.2672 40.9469C98.2414 40.8907 98.557 41.0083 98.5414 40.9203C98.3867 40.7697 98.2168 40.6223 98.0568 40.473C98.1452 40.3638 98.2343 40.2557 98.322 40.1471C98.6752 40.6459 99.0286 41.145 99.3832 41.6456C99.3888 41.5248 99.3925 41.4028 99.3982 41.282C99.757 41.66 100.114 42.0367 100.473 42.4147C100.185 42.4157 99.8961 42.4171 99.6082 42.4203C99.7675 42.6924 99.9284 42.9637 100.087 43.2363ZM92.8361 82.0363C93.0078 82.1257 92.6899 82.2757 92.9565 82.3527C93.2232 82.4287 93.7146 82.2618 93.5994 82.5143C93.2405 82.5482 92.8635 82.5871 92.4978 82.6227C93.6748 83.0779 94.8491 82.666 94.8672 83.2281C93.7375 83.0824 92.8087 83.1501 91.7152 83.3058C91.7604 82.8595 92.8542 82.4737 92.1655 82.0548C92.3867 82.0491 92.6192 82.0406 92.8337 82.0373C92.8345 82.0369 92.8353 82.0366 92.8361 82.0363ZM67.3771 11.0598C66.9831 10.5183 65.8783 9.44115 65.5493 8.62058C65.4685 8.41864 65.6785 7.35832 65.7658 7.29229C66.0651 7.07649 66.6358 7.70277 66.2531 6.84734C66.4466 7.08277 66.6432 7.30407 66.8385 7.53516C66.997 7.33737 67.1551 7.14022 67.3143 6.94471C67.0538 6.68172 66.7929 6.41852 66.5318 6.15607C66.5842 6.09049 66.6368 6.02482 66.6892 5.95924C67.5227 6.98785 67.2774 6.18116 67.9384 6.53003C67.6567 5.94449 67.3715 5.35575 67.0912 4.77198C67.3057 5.06626 67.565 5.40852 67.7499 5.67154C68.1033 5.44107 67.5444 4.90874 67.5224 4.75784C67.3999 3.90698 69.5916 6.97148 70.2602 6.82686C69.9353 6.31692 69.5905 5.78498 69.2564 5.26502C69.4258 5.35472 69.5966 5.44613 69.766 5.53583C70.3145 6.88466 71.181 8.19405 71.9979 9.62216C72.1036 9.72536 72.2099 9.82848 72.3136 9.93045C72.434 9.77794 72.5553 9.62768 72.6758 9.47517C72.8323 9.63331 72.9905 9.79372 73.1471 9.95185C72.2512 9.83654 72.8261 10.5343 73.2159 11.6223C72.6804 11.3087 72.3336 10.6681 72.0468 10.9635C73.5438 12.3154 74.6651 14.4095 76.1596 15.6937C76.5303 16.0127 76.9394 15.6801 77.6127 16.5904C77.5435 16.597 77.458 16.6577 77.3831 16.6862C78.8094 18.0491 79.673 18.8774 80.751 20.6206C80.8245 20.4102 80.8999 20.2007 80.9735 19.9903C80.6288 19.714 80.2825 19.4381 79.9393 19.1636C79.9981 18.7385 80.3783 18.9892 79.5662 17.9899C78.9011 17.1709 79.1884 17.7462 78.9359 17.5813C78.5933 17.3587 78.5726 16.937 78.1999 16.701C77.9124 16.5179 77.9314 16.952 77.4525 16.2555C77.9256 16.3088 78.4116 16.3606 78.8894 16.413C78.96 16.6203 79.0288 16.827 79.0988 17.0348C78.8986 16.9294 78.7015 16.8259 78.5013 16.7205C79.0863 17.1888 79.6389 17.6314 80.2441 18.1154C79.7132 18.2278 80.3459 18.7222 80.6574 19.0167C81.1428 19.4751 80.5276 19.2434 80.8434 19.5459C81.1599 19.8478 81.7431 19.9779 82.1741 20.6376C81.7426 20.4461 81.9518 21.0119 81.7278 21.0509C81.5038 21.0897 80.9483 20.4725 81.2805 21.2283C82.3715 22.316 81.915 20.5478 82.6607 21.2753C83.5563 22.149 82.7831 23.1542 82.3441 23.0328C81.9986 22.9373 81.4008 22.131 81.0546 22.0332C81.892 23.6658 82.4776 23.2125 82.7834 23.3604C83.8951 23.8968 82.3292 24.1986 83.5559 24.9064C83.3356 25.0525 83.1388 25.1857 82.9268 25.325C83.1075 25.4722 83.2523 25.5498 83.4551 25.7402C83.3432 24.7859 83.7442 25.3169 83.9594 25.5818C84.2987 25.999 83.9711 25.1958 84.1108 25.2659C84.4867 25.456 84.8075 25.9777 84.7489 25.5458C84.7722 25.742 84.8041 25.9492 84.8309 26.1483C85.3277 26.5545 87.1102 27.0121 86.0544 26.0588C86.4542 25.9041 86.5874 26.381 86.7621 26.6958C86.9367 27.0106 87.1347 26.8421 87.2934 27.1147C87.9236 28.2 87.0678 27.8486 86.6732 27.9148C87.8895 29.0377 87.005 27.6908 88.6136 29.4254C88.9779 29.4244 88.528 28.3857 89.2264 28.989C88.9479 29.4292 89.0926 30.172 89.7845 31.2887C89.9522 31.3158 90.1206 31.3421 90.2883 31.3692C90.3815 32.2089 89.7846 32.2236 91.0517 32.8931C89.7991 32.9963 90.6217 32.9565 91.0341 34.1396C91.1183 34.3794 90.6028 34.0846 90.728 34.4133C90.7849 34.5622 91.1428 34.7461 91.2778 35.1129C91.3431 35.2925 91.5627 36.2015 92.0785 36.537C92.2002 35.8867 93.2321 36.4822 92.9566 35.4789C93.9846 36.914 94.9478 37.7212 93.1727 36.617C93.3355 37.0606 93.499 37.5042 93.6623 37.9473C93.9517 38.1143 94.242 38.284 94.5321 38.4533C94.2402 38.7502 94.1199 38.7862 94.9487 39.6956C94.5377 39.3426 94.1269 38.9922 93.7139 38.6379C93.6375 38.6764 93.5232 38.673 93.4714 38.7379C94.007 39.1478 95.2204 40.5402 95.5872 40.8189C95.9541 41.0976 95.4345 40.4068 95.5985 40.4398C96.9579 40.7206 96.3992 41.0628 97.0008 41.5665C97.3544 41.8617 96.7517 40.9616 96.9333 41.1257C97.6053 41.735 97.5026 42.3526 97.9976 42.9745C98.0267 42.5879 98.0605 42.2005 98.0959 41.8176C98.609 42.4748 99.1913 43.199 99.7448 43.7481C99.9619 43.9638 99.9711 43.6608 100.013 43.6911C100.22 43.8401 100.934 44.5525 101.002 44.6346C101.506 45.2552 101.307 45.445 101.784 46.0585C101.574 45.836 101.377 45.6261 101.173 45.4083C100.742 45.5818 100.31 45.7532 99.8795 45.9273C100.333 46.5396 100.787 47.1517 101.242 47.7658C101.006 47.2387 100.769 46.7105 100.534 46.1834C101.361 46.6363 102.188 47.0886 103.016 47.541C103.13 48.0326 103.243 48.5227 103.357 49.0143C104.178 49.9369 104.717 49.1818 104.476 50.1291C104.756 50.3702 105.036 50.6114 105.315 50.8531C105.195 50.8829 105.076 50.9133 104.956 50.9431C105.285 51.2408 105.614 51.5386 105.944 51.8358C105.962 51.2286 106.002 50.6156 106.013 50.0192C106.622 50.6359 106.372 50.8598 106.387 51.0125C106.429 51.4173 107.088 51.7558 107.099 52.0958C107.101 52.2113 106.398 51.6929 106.383 52.0797C106.38 52.155 106.363 53.6241 106.985 54.0496C107.109 53.9324 107.236 53.7582 107.361 53.6193C108.051 54.3097 107.674 55.2518 107.4 55.3078C107.86 55.6008 108.347 56.1798 108.625 56.0917C108.796 56.2931 108.966 56.4931 109.137 56.6945C108.449 56.8961 109.237 57.6775 109.724 57.3762C109.45 57.0142 109.176 56.6513 108.901 56.2893C109.659 56.1181 109.119 54.7804 110.422 57.4194C110.485 58.0743 109.847 56.6294 109.917 57.148C110.282 57.8517 110.844 58.336 111.112 59.0692C111.444 59.9824 110.497 59.2935 112.156 60.7067C109.969 56.4004 113.092 60.7834 114.729 62.3127C114.46 63.0725 114.823 64.098 115.684 65.2603C116.055 65.7624 116.469 66.307 116.899 66.9513C117.034 66.5911 116.507 65.9665 116.308 65.5474C116.107 65.1212 116.547 65.4297 116.285 64.8794C116.273 64.8557 116.26 64.8311 116.247 64.8055C115.963 64.2516 115.366 63.2449 115.157 62.6883C115.593 62.9785 117.431 64.6638 116.06 63.6751C116.232 64.0233 116.364 64.3234 116.491 64.6079C116.793 65.2736 117.034 65.841 117.479 66.8047C118.051 67.0453 118.37 66.8807 118.848 68.4226C118.029 67.7072 118.072 69.4782 117.365 69.2386C117.269 68.2636 117.986 68.6289 118.078 67.957C118.094 67.8805 117.584 67.0096 117.479 66.8047C117.42 67.9458 117.276 68.259 116.494 67.9919C116.776 68.5424 116.786 68.9341 117.099 68.9095C117.005 69.0703 116.905 69.2271 116.802 69.3768C116.847 69.5678 116.892 69.7368 116.92 69.9441C117.332 69.5862 117.147 70.1838 117.38 70.5759C117.605 70.9828 117.983 70.3829 117.975 71.5919C118.099 71.1942 118.185 70.817 118.255 70.4081C118.439 71.1991 118.526 72.0313 118.509 72.8721C118.907 72.3577 119.362 71.0304 119.721 71.047C119.613 71.4674 119.72 72.926 119.682 73.0914C119.609 73.7093 119.437 73.3305 119.424 73.3763C119.131 74.2884 118.931 75.0546 118.47 75.2521C118.36 75.9585 118.04 76.4028 117.666 77.0379C117.455 77.3857 117.714 77.4619 117.537 77.6364C116.261 78.7116 117.17 77.3863 115.365 79.9711C115.773 79.8722 116.183 79.7524 116.592 79.6013C116.381 79.9115 116.152 80.2145 115.907 80.5079C115.692 80.6437 115.474 80.771 115.253 80.8914C115.024 80.5691 114.796 80.2459 114.567 79.9243C114.355 80.0523 114.138 80.1746 113.919 80.2862C114.255 80.0298 114.574 79.7534 114.873 79.4606C114.859 79.3827 114.842 79.3067 114.826 79.2294C114.29 79.5338 113.738 79.7806 113.173 79.9742C113.23 80.0995 113.288 80.2257 113.344 80.3514C112.027 80.8126 112 80.6904 110.838 81.4107C109.867 81.6449 109.084 82.274 108.45 82.5262C108.391 82.5072 108.332 82.4877 108.274 82.4677C108.125 82.4103 107.975 82.3527 107.824 82.2956C107.695 82.4098 107.565 82.5236 107.436 82.6378C107.181 82.4789 106.922 82.3199 106.667 82.1618C106.525 82.5226 106.451 82.6352 107.447 82.7618C107.106 83.2106 105.352 83.0126 104.638 82.8619C104.097 82.7476 104.698 82.3733 104.63 82.3278C104.404 82.1731 103.511 82.3066 103.324 82.2809C102.531 82.1741 101.975 82.1928 101.259 82.11C101.119 82.0934 100.73 81.8562 100.697 81.8488C100.439 81.8082 99.8034 81.6929 99.7311 81.6896C96.0019 81.5126 99.9866 82.5417 96.519 82.4332C96.6228 82.569 96.7183 82.7038 96.82 82.8395C96.558 82.8477 96.2933 82.8556 96.0314 82.8639C95.6993 82.7505 96.1011 82.5442 95.4414 82.7106C95.4844 82.5433 95.5275 82.376 95.5727 82.2096C95.2857 82.2999 95.0092 82.3894 94.7155 82.4796C94.2546 81.8993 92.572 81.7675 92.6916 81.0861C92.7323 80.8543 93.9252 80.6164 93.2948 80.3689C92.7826 80.3202 93.1293 80.597 92.9204 80.6116C91.4112 80.7126 91.4989 80.3245 90.8821 80.428C90.785 80.5943 90.6829 80.7639 90.5835 80.9319C90.351 80.883 90.1177 80.8342 89.8828 80.7854C89.8286 80.8971 89.7721 81.009 89.7179 81.1208C89.937 81.1283 90.1838 81.1358 90.3849 81.1433C90.1045 81.5762 87.5297 81.7706 88.5115 81.4016C88.9114 81.2517 89.6437 81.3154 89.1809 80.8039C88.4919 80.8776 87.7101 80.9529 86.9849 81.0266C86.9623 80.9165 86.9413 80.8061 86.9187 80.696C85.9414 80.7673 86.8302 81.2076 86.8284 81.4435C86.6049 81.4502 86.379 81.456 86.1554 81.4626C86.0607 81.3559 85.9706 81.2442 85.8713 81.1408C85.8622 81.3106 85.737 81.7053 85.0707 81.5588C84.6422 81.4634 85.3169 81.035 84.5 81.0944C84.5611 81.3593 84.8562 81.682 83.9462 81.7673C83.8558 81.4908 83.7309 81.2375 83.6609 80.947C82.5292 81.2126 82.0142 80.7857 80.6859 81.0944C79.8432 81.2898 78.6889 81.9835 78.1444 80.9148C77.528 80.8866 77.7236 81.1528 77.5412 81.2126C76.6804 81.4958 76.0402 80.989 75.8798 80.9592C74.8568 80.7681 74.3981 80.9436 73.5646 80.7043C73.6098 80.9022 73.6344 81.0895 73.6705 81.2824C74.4342 80.986 74.8209 80.9999 75.8918 81.0637C75.5327 81.1034 75.1734 81.1441 74.8143 81.1838C74.873 81.3444 74.9312 81.505 74.9877 81.6647C78.2997 81.0322 77.5271 82.0316 74.7505 82.2501C74.511 81.953 74.2629 81.6566 74.0257 81.3586C72.4217 81.809 71.6669 81.418 69.8528 81.3244C69.6372 81.3137 68.8517 81.4849 68.514 81.4934C68.5197 81.4945 68.5253 81.4956 68.5309 81.4968C68.3209 81.7774 68.6054 81.9066 68.6393 82.1574C68.4563 82.1888 68.2732 82.2202 68.0903 82.2516C67.6817 82.0604 67.8253 81.9034 67.0212 81.9489C67.1296 82.1393 67.2366 82.3298 67.345 82.5202C66.4639 82.5268 65.8873 82.3199 65.0672 82.4093C65.205 82.3373 65.3411 82.2651 65.4789 82.193C63.6941 82.0092 65.1145 80.8898 63.7657 81.447C63.6799 81.3493 63.5963 81.2507 63.5105 81.153C64.0661 81.129 64.6221 81.1058 65.1755 81.0817C65.1868 80.9435 65.199 80.8059 65.208 80.6677C64.6138 80.7091 64.0168 80.7518 63.4226 80.7932C63.8564 80.7005 64.2927 80.6076 64.7264 80.5149C64.0375 80.4487 63.3483 80.3824 62.6593 80.3162C63.391 80.8244 62.4424 80.8865 62.6207 81.3898C61.4007 80.9709 60.4424 80.4187 58.5514 80.7722C58.1765 80.8426 58.3802 81.1943 57.3162 80.7663C57.5737 81.3259 56.2408 81.5885 56.412 82.1208C56.7824 82.0951 57.1666 82.079 57.5257 82.0475C57.1168 81.8629 57.049 81.355 57.6701 81.2043C58.4631 81.0122 59.6197 81.3642 59.5724 80.8005C59.8886 80.827 60.1826 80.8426 60.4898 80.865C60.3633 81.0048 60.2395 81.1455 60.1153 81.2854C60.9893 81.0661 61.5384 81.1374 61.9586 81.4899C60.9172 81.5711 59.8781 81.6513 58.8368 81.7316C58.9902 81.7556 59.1457 81.7798 59.2991 81.8029C58.5106 82.1631 59.3239 82.5042 57.8531 82.5812C57.8622 82.4165 57.8694 82.2516 57.8784 82.0861C57.343 82.5266 55.8769 82.5242 56.3446 83.0309C55.9018 82.8752 55.8115 82.7768 55.5608 83.0499C54.3928 82.6649 53.6426 82.1781 54.0583 81.5969C53.6246 81.6904 53.1907 81.7841 52.7592 81.8776C53.01 82.0365 53.261 82.1947 53.5117 82.3537C52.7571 82.3437 51.997 82.334 51.2447 82.3249C51.1724 81.8547 52.6971 82.1822 52.2572 81.7619C52.1692 81.6775 51.7631 81.8582 51.6564 81.8107C50.5314 81.2966 52.2975 81.668 51.9659 81.2741C50.2895 81.1524 51.631 80.4924 49.322 81.0471C49.261 80.9113 49.1954 80.7728 49.139 80.6379C48.3375 80.6298 48.4025 80.9364 47.7135 80.9944C47.2821 81.0304 46.7405 80.492 46.264 80.8586C46.179 80.9262 46.9806 81.5843 45.296 81.5554C43.9886 81.5329 44.5327 81.0678 43.826 80.903C43.1188 80.7383 41.5011 81.3832 41.0244 80.6521C41.3948 80.7489 41.8666 80.8012 42.2777 80.8806C42.4449 80.7382 42.6076 80.5974 42.7725 80.4558C41.8327 80.6396 40.8612 80.423 40.2286 80.7624C38.9747 80.2433 37.5724 80.725 37.9519 81.3112C38.3647 81.2267 37.9157 80.9711 38.4889 81.134C38.5476 81.2706 38.6096 81.4065 38.6683 81.5432C37.6923 81.5266 37.0144 81.5304 37.4595 81.114C37.3082 81.104 37.1582 81.0941 37.0068 81.0842C36.9797 81.3856 36.9557 81.688 36.9286 81.9894C36.7479 82.0234 36.5663 82.057 36.3856 82.091C36.1847 82.0248 35.9832 81.9578 35.78 81.8908C36.0534 81.4139 36.519 81.3981 34.9782 81.1316C34.9737 81.2963 34.9671 81.4604 34.9626 81.6252C33.6726 81.4157 33.6385 81.0166 32.0189 81.0315C33.2615 80.4594 33.9413 81.4734 33.9368 80.3259C34.2486 80.4013 34.5629 80.4776 34.8747 80.553C34.9221 80.3866 34.9691 80.2199 35.0143 80.0535C33.3403 80.1413 30.5597 81.2357 29.4389 80.51C29.3033 80.5986 29.1673 80.6755 29.0295 80.7707C27.9315 80.3327 27.4574 81.316 26.3435 80.7497C26.2286 80.6903 26.4691 79.7665 25.0192 79.7996C25.0553 79.9197 25.0741 80.1217 25.1035 80.2732C24.7895 80.1995 24.4773 80.1225 24.1656 80.0471C24.1091 80.158 24.0499 80.2689 23.9934 80.3806C24.5289 80.4237 25.0628 80.4674 25.5983 80.5105C25.1534 80.5486 24.7056 80.5867 24.2607 80.6247C24.8412 80.806 25.103 80.8079 24.7531 81.0984C24.2493 81.1157 23.7448 81.1342 23.241 81.1516C23.1891 81.226 23.1375 81.3013 23.0857 81.3757C23.3296 81.5975 23.5761 81.8145 23.8201 82.0397C22.5075 81.8584 21.3663 81.8486 20.3587 81.4123C20.187 81.3386 20.7942 81.0496 19.6243 81.3103C19.6062 81.1572 19.5748 81.0329 19.5545 80.8913C18.1221 81.3202 17.6516 81.1922 16.1582 80.8825C17.1251 81.1715 16.2624 80.9836 16.0161 81.1384C15.8474 81.2451 16.5059 81.2293 16.4315 81.341C16.3569 81.4519 15.5011 81.8999 16.2328 81.9538C18.0267 81.0356 18.5154 82.1334 20.8198 81.6921C20.4651 81.8105 20.1078 81.9291 19.7531 82.0475C19.9202 82.1278 20.0697 82.2006 20.2504 82.2858C18.9651 82.1062 19.5902 82.2229 19.0621 82.3644C18.5334 82.506 17.5726 82.6263 16.9287 82.6652C16.7259 82.6774 16.9398 82.4715 16.482 82.4523C16.1703 82.439 15.3183 82.7443 15.1216 82.3844C14.9928 82.1501 16.3615 81.505 14.469 81.5065C14.1128 81.2768 15.0202 81.3482 15.0397 81.3205C15.2046 81.0473 14.0412 80.8419 13.5035 81.0505C13.4599 81.0685 13.8845 81.2814 13.4228 81.3649C12.3271 81.5645 11.6942 81.3203 10.9848 80.99C10.9629 81.1008 10.8718 81.2177 10.7261 81.3249C10.3599 81.5933 9.59685 81.7786 8.76538 81.5208C8.68501 81.6188 8.60566 81.7175 8.52182 81.8145C8.72092 81.7948 8.91937 81.7705 9.11631 81.74C9.30781 81.8385 9.51971 81.9143 9.71754 82.014C8.4787 81.9767 8.18597 82.4163 7.50873 82.4458C5.16767 82.3687 6.97513 81.4909 7.36357 81.3697C7.58554 81.5456 7.79823 81.7208 8.0352 81.8858C8.03844 81.7476 8.04271 81.6085 8.05074 81.4705C5.22488 80.5413 7.87376 80.539 6.67565 79.7845C6.09209 80.2458 5.00971 79.7781 4.30139 78.5797C4.19042 78.4857 4.083 78.3872 3.97598 78.2891C3.89119 78.3417 3.78813 78.448 3.71437 78.465C2.47549 77.3431 3.23989 76.4568 3.23077 76.3096C3.25439 75.5735 2.53282 75.4484 2.44049 75.2721C2.08966 74.5662 2.26229 74.2656 1.95016 73.5985C1.63851 72.8603 1.57253 73.4313 1.33901 73.2303C1.1497 73.0634 1.01635 72.4099 0.847256 72.1448C0.979366 72.2437 1.11212 72.3508 1.24761 72.4408C1.30748 71.5675 1.45903 70.887 1.62024 69.9681C0.892824 68.7157 2.69359 68.2462 1.40021 68.2341C1.03239 69.1105 0.824461 69.6138 0.451792 70.1077C0.483253 69.4514 0.580407 68.7958 0.741946 68.1503C0.928435 68.0061 1.09481 67.9223 1.29994 67.7635C1.1871 67.207 1.81046 66.2385 1.9856 65.8342C2.22442 65.236 2.36124 64.8615 2.46658 64.5739C2.68212 63.9515 2.68599 63.8449 3.93787 63.2017C3.31868 64.0689 3.39254 64.401 3.0014 65.0062C2.90259 65.1591 2.77909 65.3295 2.61931 65.535C2.8946 65.4892 3.15271 65.2061 3.28468 65.2352C3.30698 65.2399 3.32527 65.2536 3.33898 65.2791C3.35932 65.3159 3.37031 65.377 3.37236 65.47C3.3975 65.4332 3.42139 65.3979 3.44405 65.364C4.06929 64.4382 3.61362 64.5394 3.71284 64.0044C3.80179 63.5254 4.33402 62.8463 4.06897 62.6947C4.25331 62.7302 4.42097 62.778 4.60499 62.8137C5.12338 62.1697 5.64298 61.5267 6.16138 60.8827C6.07442 61.2655 5.98777 61.6485 5.90016 62.0308C6.11842 61.8647 6.3367 61.6982 6.55496 61.5321C7.41461 59.6125 10.3858 57.5056 8.9823 57.0914C9.56515 56.3018 9.77411 56.313 10.3081 56.0592C10.2652 55.949 10.2348 55.8509 10.1828 55.7335C10.664 55.3091 10.6695 54.6894 11.0981 54.3184C11.5261 53.947 11.8963 54.068 11.4716 53.6202C11.8353 53.4494 12.1745 53.2616 12.5271 53.0848C12.5553 52.8289 12.5845 52.5741 12.6119 52.3205C12.8816 52.1027 13.1515 51.8842 13.4212 51.6665C13.3079 51.342 14.2434 50.385 14.4601 49.8049C15.0554 49.5691 15.8166 50.2041 16.5031 49.0722C16.2906 48.944 16.079 48.8159 15.8665 48.6877C16.0953 48.4864 16.3243 48.2844 16.5545 48.0812C16.6283 48.1176 16.7005 48.1559 16.7743 48.1923C16.6584 48.2961 16.5439 48.3984 16.4274 48.5018C16.6168 48.4834 16.804 48.4669 16.992 48.4503C17.1238 47.9672 17.256 47.4837 17.3892 46.9989C16.8803 47.3862 16.3711 47.7737 15.8622 48.161C16.2118 47.4414 16.6929 47.1326 16.9625 46.479C17.5971 46.2338 17.6123 46.5261 17.7482 46.9438C17.8615 46.7537 17.9772 46.5622 18.0904 46.3721C18.2861 46.716 18.6897 46.5659 17.8615 47.5431C17.9985 47.5407 18.1329 47.5338 18.2718 47.5357C18.391 47.362 18.5457 47.3118 18.659 47.1072C18.9675 46.549 18.767 45.7678 18.5636 45.6585C18.4566 45.6019 18.2441 46.2263 18.129 46.1014C17.849 45.7962 18.885 44.807 17.277 46.1419C17.5017 45.4491 17.7501 45.4546 18.2802 44.9186C18.1372 44.8785 17.9958 44.8375 17.8542 44.7956C18.1217 44.5647 18.3894 44.3332 18.6569 44.1023C18.8984 44.9191 20.7151 43.0904 19.7411 45.2713C20.1944 44.7605 20.6464 44.2517 21.0995 43.7437C21.0675 43.8979 21.0349 44.0517 21.0028 44.2059C20.7801 44.4208 20.559 44.6348 20.3369 44.8503C20.6664 44.652 20.9957 44.4527 21.3252 44.2544C21.7352 43.4877 21.7506 43.0697 21.7554 42.571C20.955 43.2019 21.3991 43.1434 20.96 43.7842C20.8245 43.6399 20.6618 43.5543 20.5441 43.3722C21.1115 43.3163 21.7023 42.1154 21.8771 41.8675C22.4093 41.1131 22.2656 41.9258 22.6595 41.4518C23.0536 40.9774 23.3262 40.2623 23.9507 40.1192C23.7725 39.9868 23.5687 39.8739 23.3889 39.775C23.9358 38.9825 24.0192 39.2962 24.1081 39.2402C25.539 38.3576 25.7136 37.3921 26.8096 35.9453C26.6113 36.0813 26.4168 36.2234 26.2203 36.3637C26.7144 35.0032 26.2469 35.8109 25.3789 36.6373C26.1158 35.8007 26.2048 35.0525 26.6063 34.3661C27.0079 33.6799 28.0156 32.7609 28.4502 32.4786C27.9424 33.5178 27.0456 34.3564 26.3142 35.3745C26.5794 35.4059 26.815 35.4186 27.1004 35.4605C27.2101 34.5703 27.734 34.4266 27.9406 34.2711C28.547 33.8144 28.2159 33.5766 28.8361 33.5057C28.7076 33.4251 28.6008 33.3558 28.48 33.2814C29.4847 32.1385 30.7228 31.0304 30.9122 29.9112C31.2504 30.0683 31.5643 30.2344 31.9168 30.3857C32.1097 29.7138 32.6732 29.4603 32.9645 28.9986C33.2543 28.5386 32.8977 28.5147 33.2092 27.9502C33.2669 27.8459 33.563 27.7706 33.6399 27.4609C33.7179 27.1485 33.6104 25.6768 34.3767 26.1307C34.7222 25.7098 35.0711 25.3294 35.4178 24.9241C35.1298 25.3594 34.8405 25.7939 34.5539 26.2275C34.9984 26.0174 35.4406 25.8091 35.885 25.599C35.7724 25.4353 35.6573 25.2694 35.5452 25.1091C36.1148 24.0357 36.9011 23.5582 37.6007 22.5754C37.7174 22.4112 37.1265 22.5434 37.7619 21.9099C38.3975 21.2763 39.3603 21.203 40.1049 19.85C40.1423 19.7815 40.0067 19.093 40.6387 18.9038C40.7823 18.8605 40.5517 19.3446 40.8167 19.1931C41.0819 19.0415 41.9513 18.111 42.2192 18.1997C42.138 18.1515 42.0128 18.1522 41.9146 18.1222C42.0161 17.9255 42.119 17.727 42.2226 17.5291C42.3635 17.6168 42.5056 17.7035 42.6459 17.7907C43.1317 16.5799 43.0505 15.6856 44.3731 14.3785C43.8604 14.6322 43.3468 14.8854 42.8355 15.1374C42.8768 15.3537 42.9187 15.571 42.9614 15.7856C42.3739 16.4057 41.7853 17.028 41.1978 17.6482C41.2585 17.8773 41.3203 18.1042 41.381 18.3334C41.2197 18.4935 41.0604 18.6523 40.8991 18.8123C40.8271 18.6815 40.7559 18.5508 40.6853 18.4182C40.4306 18.7873 40.176 19.1574 39.9227 19.5248C39.8575 18.3072 41.567 17.6009 40.9625 17.2629C41.1712 17.1732 41.3806 17.0837 41.59 16.9945C41.3879 16.7179 41.7189 16.4599 42.2123 15.9325C41.9818 15.9582 41.7422 15.9987 41.5189 16.0129C42.1382 15.6128 42.9017 14.6326 43.4265 14.1243C43.657 13.901 43.6437 14.2993 43.7252 14.2434C44.1451 13.9582 44.4031 12.973 44.551 12.8427C45.4342 12.0635 46.526 11.9757 46.9158 10.6611C45.993 11.5972 46.4828 11.078 45.9642 11.2573C45.8018 11.3134 44.5916 12.5082 45.9875 10.9155C46.1517 10.7292 48.992 8.08774 48.5255 9.33361C48.8118 8.7661 48.9969 8.29029 49.2441 7.75799C50.9805 7.372 49.8684 7.0924 49.1686 7.04675C49.3101 6.86773 49.442 6.69525 49.5897 6.51251C49.7386 7.25251 51.2605 5.45719 51.6416 4.55603C51.6558 4.52304 51.6685 4.49132 51.6798 4.46097C51.7421 4.29695 51.5552 4.38665 51.4442 4.39642C51.3987 4.39914 51.3663 4.38729 51.3699 4.3364C51.3742 4.29142 51.4062 4.21567 51.4838 4.09562C51.7314 3.86836 52.0304 3.62816 52.3139 3.42103C51.6756 3.5093 52.3101 2.69385 52.0576 2.41349C52.8171 2.20777 53.6319 2.5438 53.5971 3.0581C53.896 2.63109 54.2419 2.21736 54.6242 1.82901C54.3684 1.86196 54.1058 1.90964 53.8477 1.96433C55.3895 1.19367 57.5033 0.167255 57.9836 0.950577C58.2011 0.911887 58.4221 0.880855 58.642 0.856475C58.6986 0.713772 58.7556 0.571424 58.8177 0.429689C59.864 0.481612 60.8825 0.690077 61.8341 1.03586C60.9362 0.931543 60.718 1.09721 59.8036 0.892715C60.1563 1.0613 60.4979 1.25022 60.8074 1.45226C62.1739 1.27314 62.5598 0.97855 64.405 2.04566C64.515 2.07734 65.6201 3.25974 65.6091 3.33527C65.6931 3.60917 65.2689 3.56108 65.3001 3.69009C65.4327 4.03418 66.1391 5.60477 66.0167 5.63994C65.4835 5.80631 64.4427 4.95519 63.1768 4.42135C61.9274 3.8462 60.4657 3.6352 59.8456 3.65053C57.5395 3.63596 55.3633 4.69577 53.9945 6.45781C45.0547 17.7301 35.748 28.4717 26.7827 39.7302C26.671 39.8714 26.8406 39.9074 26.7975 39.9713C26.528 40.3663 26.0466 40.579 25.9281 40.7098C25.6755 40.9897 25.9788 40.9683 25.806 41.1823C24.0175 43.3912 22.2298 45.3948 20.4713 47.6309C20.3568 47.7765 20.3373 47.5175 20.1572 47.7903C20.0651 47.9318 19.9469 48.5123 19.7119 48.8097C18.8906 49.8481 18.1234 50.658 17.249 51.7464C16.7709 52.3419 16.0327 53.2182 15.4992 53.8848C15.2635 54.1792 15.1137 54.5633 14.8827 54.8557C14.5549 55.2705 14.4258 55.0273 14.3624 55.0807C14.0846 55.3151 14.2697 55.5282 14.0516 55.7876C13.645 56.2695 13.4794 56.1792 12.9889 56.8111C12.6386 57.2629 11.9301 58.3725 11.5106 58.96C10.2837 60.1355 9.01511 61.8409 8.08203 63.1085C7.52976 63.8589 7.27347 63.7627 7.03552 64.0584C6.27443 65.0073 5.89131 65.9187 5.24036 66.816C5.1937 66.8828 5.1462 66.9493 5.09726 67.0155C4.39451 67.9733 3.76607 68.8596 3.54414 70.0094C3.51106 70.1953 3.75287 70.1884 3.73576 70.3654C3.66838 71.0245 3.74947 71.8691 3.83119 72.4581C3.92359 73.1075 3.66868 73.4618 3.99025 74.0741C4.08921 74.2504 4.38613 74.1799 4.56409 74.4448C4.84576 74.8641 4.94094 75.4738 5.152 75.7814C5.44299 76.1892 5.39018 75.6706 5.80424 76.1738C5.82121 76.1934 5.73418 76.4202 5.84695 76.5121C6.17802 76.7708 6.25181 76.6197 6.71663 76.9827C6.751 77.0241 7.31896 77.6187 7.40024 77.6484C7.80651 77.8841 8.69323 78.2628 8.98645 78.2705C10.0171 78.3104 9.2432 77.8473 10.0366 78.6699C10.273 78.5888 10.4966 78.4964 10.7261 78.3959C10.9547 78.3207 11.1868 78.246 11.4255 78.1727C11.0531 78.3325 12.5642 78.5631 12.6703 78.5482C13.5487 78.4281 13.0255 78.1478 14.1392 78.1942C12.6684 78.8416 15.576 78.2776 16.2244 78.2611C19.3465 78.1808 22.1846 78.3424 25.3226 78.3382C26.3731 78.3365 27.7809 78.1997 28.8923 78.203C29.1513 78.2032 28.9556 78.3564 29.1836 78.3597C29.4111 78.362 29.1587 78.19 29.4184 78.1991C31.0337 78.2587 32.2993 78.5833 33.7791 78.1776C33.8511 78.2363 33.8488 78.2826 33.9681 78.347C35.1791 77.9836 37.5112 78.4723 38.3878 78.5394C39.7588 78.6437 40.109 78.398 41.1051 78.4476C42.4222 78.5138 44.3997 78.9938 43.5166 78.2015C44.4201 78.1767 45.29 78.1698 46.2026 78.2435C46.3041 78.2519 46.2341 78.4532 46.2748 78.4574C46.5323 78.4863 46.6162 78.306 46.7901 78.2977C47.2617 78.2754 46.492 78.4913 47.1645 78.431C47.5192 78.3987 47.7206 78.2415 48.7056 78.2381C54.6429 78.2208 61.0888 78.2771 67.1753 78.3036C67.5932 78.3052 67.3181 78.1105 67.8423 78.1229C69.6632 78.166 72.9226 78.4937 74.4928 78.4491C76.0629 78.4044 75.7087 78.1196 76.6912 78.0004C76.881 77.9772 76.7254 78.1395 76.8971 78.142C78.0516 78.1569 79.428 78.41 80.3633 78.4481C80.9818 78.4736 80.9322 78.2183 81.3613 78.2001C82.0007 78.1736 82.6587 78.4315 82.9999 78.4398C84.6037 78.4762 85.7063 78.2684 87.2041 78.3744C87.1455 78.3182 87.1068 78.2662 87.0572 78.2108C88.8305 78.2199 90.6016 78.229 92.375 78.2381C92.2914 78.1868 92.2106 78.135 92.127 78.0829C94.2076 78.111 93.9702 78.6674 93.7872 77.4926C93.9386 77.4512 94.099 77.4032 94.2435 77.3651C94.1848 77.9703 95.4434 78.4132 97.0451 78.5672C97.1626 78.5788 97.9508 77.9887 97.865 78.6859C98.0706 78.5153 98.1931 78.3978 98.367 78.2479C98.7058 78.459 99.0492 78.6675 99.388 78.8778C99.5709 78.8463 99.7564 78.816 99.9394 78.7845C99.9665 78.6479 99.9456 78.506 100.004 78.3719C100.854 78.3512 102.596 78.5201 103.267 78.5028C104.934 78.4589 106.632 78.0895 107.929 78.4886C108.212 78.4704 108.242 78.4063 108.274 78.3442C108.302 78.2665 108.336 78.2007 108.704 78.2018C108.787 78.3331 108.868 78.4579 108.963 78.59C109.463 77.9251 109.588 78.2939 110.368 78.2174C110.889 78.1513 111.148 77.8865 111.589 77.6967C111.701 77.6471 111.769 77.8119 111.842 77.7658C112.1 77.6181 112.625 76.9566 112.762 76.821C114.09 75.6317 114.925 74.2188 115.328 72.5427C115.368 72.3624 115.153 72.5645 115.193 72.3808C115.253 72.0855 115.492 72.3007 115.53 72.1235C115.619 71.6227 115.347 71.5959 115.32 70.9258C115.24 69.5363 114.794 68.0529 113.825 66.7628C113.046 65.7385 112.266 64.7198 111.494 63.7539C111.429 63.6731 111.303 63.7828 111.231 63.696C110.762 63.1285 110.468 62.4071 110.046 61.8887C109.346 61.028 108.64 60.5269 107.952 59.6742C106.606 58.008 105.497 56.4444 104.117 54.7271C102.988 53.3213 101.987 52.1176 100.745 50.5797C95.319 43.862 89.3683 37.3422 84.1222 30.404C83.9889 30.2273 84.1601 30.2047 84.1128 30.1562C83.6599 29.6973 83.4692 29.7777 83.6496 29.3385C83.072 28.7545 82.6666 28.7505 82.0635 27.9688C81.7419 27.5523 82.3658 27.553 81.6119 27.0179C80.9309 26.535 81.2818 27.3917 79.9906 25.3624C79.9566 25.3085 79.9907 24.8805 79.6185 24.5424C79.2454 24.2019 79.4441 24.7844 78.639 23.8898C76.7493 21.7889 74.7028 18.8506 72.5795 16.3489C72.4464 16.1921 71.0789 14.7516 70.7765 14.4934C70.191 13.9942 70.1195 14.2551 69.4601 13.5249C68.9507 12.9605 68.7504 12.3171 68.1508 11.6543C68.0808 11.5772 67.7723 11.6027 67.3771 11.0598ZM37.0093 82.2511C36.824 82.5022 36.4897 83.4264 35.3695 83.1451C35.2633 83.1186 35.8365 82.4831 35.2178 82.382C35.8232 82.3149 36.4128 82.2932 37.0093 82.2501C37.0093 82.2505 37.0093 82.2508 37.0093 82.2511ZM68.9077 3.57927C69.3986 4.26028 69.8916 4.94326 70.3824 5.62429C69.9319 5.24474 69.4811 4.86441 69.0313 4.48715C68.9896 4.18397 68.9495 3.88244 68.9077 3.57927ZM103.837 82.7345C103.837 82.7345 103.838 82.7345 103.839 82.7345C102.958 82.8537 102.076 82.9732 101.195 83.0924C101.288 83.0046 101.381 82.9165 101.473 82.8287C102.169 82.6905 102.865 82.5524 103.558 82.4142C103.651 82.521 103.744 82.6277 103.837 82.7345ZM110.91 81.4854C111.512 81.4341 111.419 81.6373 111.797 81.6978C111.797 81.6975 111.797 81.6972 111.797 81.6969C111.898 81.7125 112.305 81.6077 112.461 81.5495C112.364 81.4699 112.252 81.3972 112.154 81.3173C113.302 80.6312 116.365 79.8164 113.144 82.057C113.141 81.906 113.133 81.7572 113.126 81.6072C111.384 82.4775 109.302 82.3952 110.91 81.4854ZM23.7298 82.6515C22.32 83.1069 21.8679 83.2029 20.1577 82.8907C20.3992 82.7617 20.6409 82.6326 20.8824 82.5036C21.1648 82.6352 21.4452 82.7659 21.7276 82.8976C21.7284 82.8976 21.7292 82.8976 21.73 82.8976C21.7865 82.7593 21.8431 82.6208 21.8974 82.4826C22.5073 82.5389 23.1198 82.5952 23.7298 82.6515ZM95.3907 37.9962C95.8509 37.1189 95.5111 37.5394 96.3761 38.2833C96.6757 38.5408 96.5614 38.1462 96.734 38.3176C97.6672 39.2419 97.2589 39.7061 96.8292 39.6788C96.348 39.1178 95.8635 38.5496 95.3922 37.9981C95.3917 37.9975 95.3912 37.9968 95.3907 37.9962ZM73.9521 11.7734C73.9515 11.7728 73.951 11.7722 73.9505 11.7716C74.1018 11.6058 74.479 11.9775 74.2693 11.3838C74.5526 11.7355 74.835 12.0878 75.1196 12.4412C75.0199 12.3507 74.9191 12.2574 74.8194 12.1668C74.834 12.3061 74.848 12.4462 74.8627 12.5854C75.1618 12.5499 75.1402 12.759 75.3721 13.1815C75.5015 12.9084 75.6315 12.6356 75.761 12.3624C76.0444 12.8421 76.3288 13.3234 76.6121 13.803C76.563 13.8515 76.5139 13.9001 76.4648 13.9485C76.6636 14.0549 76.8619 14.1591 77.0607 14.2656C77.0325 14.361 77.0035 14.4544 76.9753 14.5498C77.1812 14.7058 77.3872 14.862 77.5937 15.0175C77.4873 15.2016 77.0733 14.8258 77.7282 15.5559C77.381 15.4502 77.0346 15.3447 76.6859 15.2373C75.7743 14.083 74.8631 12.9282 73.9521 11.7734ZM102.027 45.7613C100.979 44.5255 101.378 44.7899 101.964 44.7984C101.984 45.1187 102.006 45.441 102.027 45.7613ZM71.0977 82.0133C70.6278 82.3205 70.1559 82.6246 69.6746 82.921C68.7167 83.0924 67.7584 82.5325 68.4791 82.3131C69.3467 82.0499 70.2528 82.3445 71.0977 82.0133ZM49.2798 82.1501C50.4518 82.2925 49.3491 82.6575 49.0848 82.8702C48.7606 82.5283 48.3085 82.5585 47.5823 82.5187C48.2642 82.4965 49.086 82.1259 49.2798 82.1491C49.2798 82.1494 49.2798 82.1497 49.2798 82.1501ZM89.9587 82.3585C90.4283 82.3494 90.8955 82.2636 91.3155 82.3678C91.1888 82.6615 90.3487 82.3943 90.9495 82.8297C90.6491 82.8372 90.3483 82.8444 90.0502 82.8527C90.2397 82.6723 89.9848 82.5374 89.9599 82.3595C89.9595 82.3592 89.9591 82.3589 89.9587 82.3585ZM112.162 57.7496C112.471 58.6851 112.697 58.7274 113.468 59.2981C113.33 59.5778 112.265 59.0149 111.748 58.5412C111.886 58.2781 112.025 58.0145 112.162 57.7496ZM44.237 11.7111C44.3785 12.1101 43.3886 13.4096 42.7956 13.9735C42.8147 13.8647 42.8335 13.7552 42.852 13.646C43.313 13.0018 43.7759 12.3552 44.237 11.7111ZM47.2368 82.4943C47.3583 82.5048 47.4735 82.5127 47.5823 82.5187C47.4614 82.5226 47.3446 82.5165 47.2368 82.4943ZM1.52256 74.2504C1.96593 74.4872 1.71104 73.4361 2.0305 74.7063C2.03081 74.7062 2.03111 74.7061 2.03141 74.706C2.28641 75.5366 2.36187 75.7239 2.76558 76.4267C2.2477 76.4332 1.19542 74.9745 2.38813 77.0914C2.40689 77.1171 2.58059 76.9206 2.7761 77.2467C2.83733 77.345 2.89128 77.7824 3.24549 78.258C3.35792 78.4094 4.31289 79.4885 2.95882 78.0729C2.76804 78.3178 2.46433 78.4385 2.24283 78.6341C1.62934 78.0444 1.75348 77.182 1.33723 76.47C0.728315 75.4035 -0.021326 74.9456 0.650347 74.4751C1.11843 75.4187 1.98123 76.8944 1.74757 77.3537C2.33853 78.207 2.82842 78.1457 2.49604 77.4126C1.42477 76.1018 1.53935 75.757 1.57016 75.5561C1.63419 75.3297 1.63059 75.2103 1.06738 73.8906C0.952161 73.8879 0.806667 73.8023 0.711357 73.8462C0.873033 72.8927 1.34969 74.1787 1.52256 74.2504ZM5.01444 80.1113C4.38803 79.9827 3.75756 79.7918 3.13525 79.5339C3.39735 79.251 3.86219 79.2621 4.72427 79.6313C4.81418 79.7921 4.91313 79.954 5.01444 80.1113ZM21.775 40.6874C21.6658 40.4946 21.6552 40.2072 21.602 39.9608C21.8451 39.9366 24.5313 36.8786 23.3634 38.5949C23.1938 38.8442 21.7582 40.0405 21.775 40.6874ZM107.897 52.9673C108.091 53.4267 108.283 53.8848 108.475 54.3424C107.946 53.8269 107.414 53.3123 106.883 52.7978C107.222 52.8549 107.559 52.9102 107.897 52.9673ZM63.301 81.6515C63.5033 81.6593 62.8313 81.9428 63.6284 81.8981C63.0343 82.0794 62.4778 82.2329 61.8972 82.4035C61.7232 82.2693 61.5474 82.1358 61.3735 82.0016C61.2379 82.0877 61.0997 82.1733 60.9641 82.2594C61.0455 82.064 61.1179 81.8732 61.2037 81.6745C62.182 82.0934 62.4063 81.6184 63.301 81.6515ZM92.3894 80.8874C92.5654 81.3121 91.1488 81.5646 92.5423 81.6325C92.278 81.9115 91.853 82.0578 91.0374 82.0827C90.9065 81.976 90.7758 81.8701 90.6449 81.7634C90.6268 82.0489 90.417 82.155 89.9587 82.3585C89.9583 82.3582 89.9579 82.3579 89.9575 82.3576C88.7176 82.3782 88.7917 82.283 88.4935 81.8136C89.8061 82.0786 89.8454 81.6497 90.74 81.3947C91.3545 81.2194 92.1568 81.2988 92.3894 80.8874ZM19.055 44.0603C19.3597 43.1131 18.576 43.5507 19.9075 42.5093C19.9116 42.6491 19.9147 42.7889 19.9188 42.9287C19.6316 43.3064 19.3435 43.6836 19.055 44.0603ZM96.9704 82.3429C96.8643 81.6856 95.9903 81.1739 95.8412 82.2433C96.6929 82.4611 96.2769 81.8553 96.9704 82.3429ZM49.6796 81.1208C51.3174 81.1515 51.0077 81.8934 50.3345 82.2643C50.2306 82.1294 50.1267 81.9942 50.0251 81.86C49.7382 81.9213 49.4512 81.9827 49.1643 82.0431C49.336 81.736 49.5079 81.428 49.6796 81.1208ZM118.492 69.3437C119.196 70.5699 118.451 67.8797 118.929 68.7306C119.35 69.4404 118.959 70.5056 118.629 70.1565C118.595 69.9085 118.551 69.6298 118.493 69.3461C118.493 69.3453 118.492 69.3445 118.492 69.3437ZM117.29 76.6432C117.826 76.7074 117.574 76.9165 117.975 75.9284C118.145 75.6734 119.049 73.4235 118.352 74.2695C118.108 75.0761 117.743 75.8945 117.29 76.6432ZM30.7475 81.8547C30.7325 81.6362 32.4605 81.1566 32.6823 81.2766C32.6823 81.2762 32.6823 81.2759 32.6823 81.2756C33.281 81.6026 31.4582 81.6491 32.2489 82.0978C30.498 81.703 29.9742 82.658 30.0962 81.3996C31.1276 81.3444 30.6393 81.6038 30.7475 81.8547ZM61.8654 0.842601C61.8662 0.842789 61.867 0.842978 61.8678 0.843166C61.7637 0.794803 60.8263 0.312658 60.9555 0.226729C62.1677 0.525741 61.8738 0.678347 63.0781 0.692648C63.1012 0.818995 63.1151 0.939034 63.1385 1.06751C62.6956 0.979464 62.4285 1.03069 61.8654 0.842601ZM24.8814 37.5448C24.6603 37.9093 23.9915 38.3601 23.7 38.7432C23.9559 36.9804 25.7658 36.0898 24.8814 37.5448ZM83.9346 24.0739C83.9356 24.0747 83.9366 24.0754 83.9376 24.0761C83.937 24.0761 83.9363 24.0761 83.9357 24.0761C83.9354 24.0754 83.935 24.0747 83.9346 24.0739ZM3.87704 62.6634C3.95719 62.6581 4.0164 62.6664 4.05834 62.6861C4.06163 62.6887 4.06492 62.6914 4.06821 62.6941C4.00674 62.6822 3.94356 62.6715 3.87704 62.6634ZM27.1562 81.9206C26.4365 81.616 28.8344 81.1317 29.6098 81.2473C29.5556 81.3863 29.5472 81.5124 29.4208 81.6721C28.7949 81.312 27.2759 81.9719 27.1562 81.9206ZM81.8273 81.8088C79.9317 81.8005 82.3986 80.5977 82.5003 81.5573C82.4964 81.5759 81.8762 81.8071 81.8273 81.8088ZM42.1043 81.7946C42.5873 81.4305 41.6168 81.3338 43.1686 81.3967C43.2589 81.491 43.3492 81.5855 43.4395 81.6799C42.9946 81.7179 42.5493 81.7565 42.1043 81.7946ZM69.4098 80.2297C67.0241 80.4326 64.7424 80.7904 66.2964 81.7946C66.4769 81.7623 66.66 81.7312 66.8406 81.6989C66.8677 81.209 67.5339 81.4764 68.5092 81.4924C68.6483 81.2979 69.1891 81.2529 69.2906 81.0876C69.4869 80.7681 68.8654 80.5435 69.4098 80.2297ZM91.1555 34.5182C91.2447 34.4955 91.3337 34.4719 91.4222 34.4497C91.7328 34.6838 92.0437 34.919 92.3543 35.1531C92.1911 35.2065 92.0279 35.2599 91.8648 35.3134C91.6284 35.0486 91.393 34.7852 91.1567 34.5204C91.1563 34.5197 91.1559 34.5189 91.1555 34.5182ZM7.54889 80.209C7.0237 80.9813 7.86401 81.1973 9.42705 80.9404C8.76744 80.7607 8.1374 80.515 7.54889 80.209ZM107.746 80.6028C107.795 80.8643 107.844 81.1249 107.896 81.3864C108.058 81.3322 108.182 81.277 108.274 81.2205C108.6 81.0173 108.5 80.8028 108.274 80.566C108.242 80.5339 108.207 80.5014 108.17 80.4685C108.027 80.5132 107.888 80.5581 107.746 80.6028ZM116.596 75.2695C116.408 75.5259 116.667 75.4778 116.649 75.5053C116.168 76.1651 116.048 76.2014 115.586 77.0802C115.554 77.209 115.524 77.3384 115.488 77.4689C116.207 77.4546 116.209 77.0162 117.005 76.3027C116.749 76.3708 116.494 76.4268 116.239 76.4721C116.57 76.0368 116.864 75.573 117.12 75.083C117.093 74.9999 117.066 74.9176 117.036 74.8361C116.894 74.9862 116.738 75.1314 116.596 75.2695ZM88.5977 30.9755C88.2651 30.5297 87.9315 30.0814 87.5989 29.6357C87.4812 29.7047 87.3632 29.7749 87.2455 29.8439C87.6958 30.2206 88.1475 30.5988 88.5977 30.9755ZM0.847256 72.1448C0.795416 72.106 0.743631 72.0676 0.691614 72.0334C0.751441 72.0322 0.801757 72.0763 0.847256 72.1448ZM63.0396 1.98234C63.5672 2.28513 64.3627 2.63063 64.8946 3.02767C65.0619 2.69416 63.5233 1.90469 63.0001 1.54107C62.8855 1.56415 62.8169 1.85297 63.0396 1.98234ZM51.9454 81.1506C52.1035 80.9817 52.2615 80.8136 52.4173 80.6448C52.7991 80.663 53.1818 80.6822 53.5659 80.7004C53.5772 80.5622 53.5883 80.4227 53.5996 80.2844C51.9077 80.4641 52.2978 80.0654 51.4602 79.6722C51.6228 80.1647 51.7828 80.6572 51.9454 81.1506ZM76.7996 17.774C77.6406 18.6658 78.0491 18.8931 77.9385 18.0965C77.5933 17.8208 77.2465 17.5433 76.9013 17.2676C76.8679 17.437 76.8344 17.6065 76.7996 17.774ZM12.4106 53.9055C12.933 53.0126 13.3766 53.3493 13.7633 52.3765C13.3469 52.7283 12.9297 53.0793 12.5148 53.4294C12.4807 53.587 12.4447 53.7478 12.4106 53.9055ZM23.8128 79.3143C23.3813 79.1206 22.5747 80.0411 21.3616 79.3616C21.0725 79.5644 20.8913 79.7581 20.6429 79.9568C20.4983 79.7407 20.334 79.5219 20.1962 79.3074C20.1954 79.3074 20.1946 79.3074 20.1938 79.3074C19.0935 79.3803 19.8069 79.6513 19.782 79.8806C19.7704 79.9757 18.9538 79.8168 19.209 80.0237C19.6495 80.3789 21.2957 80.1746 21.3002 80.6077C20.7218 80.4661 19.5925 80.5844 19.9265 80.8733C20.2925 81.1903 21.3568 80.659 22.0346 80.9221C21.0634 80.23 23.0694 80.4438 23.2975 80.9753C24.4746 80.5671 23.3927 80.4006 22.1863 80.4197C22.9228 80.0123 21.8387 80.2324 21.6602 79.8938C22.4196 79.6894 25.0259 79.8598 23.8128 79.3143ZM79.3459 80.0647C78.5324 80.091 77.2614 79.8582 76.7045 80.2019C76.3801 80.4022 77.654 80.5573 76.7755 80.8718C77.5681 80.8411 77.749 80.7183 77.6135 80.4426C77.7941 80.4095 77.977 80.3772 78.1576 80.345C78.2412 80.3988 78.3269 80.4518 78.4105 80.5056C78.5053 80.3922 78.6008 80.2797 78.6934 80.1663C78.8853 80.1886 79.0794 80.211 79.2713 80.2341C79.2938 80.1771 79.3323 80.1275 79.3459 80.0647ZM30.8584 31.055C30.719 31.2328 30.581 31.4088 30.4422 31.5871C30.5101 31.6099 30.5831 31.6308 30.6547 31.652C30.7099 31.6703 30.7652 31.6887 30.8205 31.707C30.5867 31.6864 29.6585 32.3197 29.5353 32.803C29.4732 33.0459 30.0874 32.8754 29.5303 33.6675C29.9557 33.1109 30.3241 32.5747 30.727 32.0262C30.7743 32.1429 30.824 32.2584 30.8713 32.3751C30.8717 32.3749 30.872 32.3747 30.8724 32.3744C31.0337 32.2144 31.1976 32.053 31.3589 31.893C31.1923 31.6131 31.025 31.3349 30.8584 31.055ZM107.084 80.0857C106.313 80.3018 106.055 80.414 106.419 80.7634C106.42 80.7636 106.421 80.7637 106.421 80.7639C106.708 80.6091 106.995 80.4544 107.282 80.2996C107.217 80.2284 107.151 80.1569 107.084 80.0857ZM3.35978 66.5166C3.22896 65.5366 2.85199 65.8278 2.61241 66.3936C2.37273 66.9587 2.38973 67.7106 2.72613 67.5192C2.74313 67.4987 3.14872 66.5431 3.35978 66.5166ZM49.3786 80.7126C49.8282 80.7019 50.2787 80.6921 50.7306 80.6814C50.6267 80.5183 50.5203 80.3557 50.4164 80.1926C50.0707 80.3657 49.7242 80.5396 49.3786 80.7126ZM79.6761 22.2913C79.6903 22.8883 80.3512 23.916 81.0325 24.1286C80.8725 23.8569 80.7126 23.5852 80.5526 23.3136C80.9586 23.7434 81.3639 24.1651 81.7707 24.6C82.1853 24.3055 81.526 23.9583 80.9872 23.0691C80.9045 22.9309 80.7534 21.7418 80.1628 21.7664C80.0424 21.7726 80.6727 22.658 79.978 22.2501C80.1679 22.5205 80.3506 22.7387 80.5369 22.9888C80.4571 23.0824 80.377 23.1759 80.2986 23.2712C80.0905 22.944 79.8843 22.6185 79.6761 22.2913ZM74.6096 80.1043C73.4922 80.0763 73.3542 80.279 73.1215 80.6374C73.6412 80.5969 74.161 80.5569 74.6806 80.5163C74.6559 80.3793 74.6344 80.2422 74.6096 80.1043ZM85.8643 30.1321C86.2033 30.6447 86.2655 30.2576 86.4634 30.4142C87.2107 31.0069 87.4476 31.6317 88.1272 32.2645C88.0451 32.2525 87.9689 32.242 87.8895 32.2306C87.89 32.2312 87.8905 32.2319 87.891 32.2325C90.4364 35.7727 89.5136 33.5785 87.7923 31.6203C87.8384 31.5047 87.886 31.3908 87.9313 31.2757C87.0511 30.4883 86.2335 29.7669 85.8643 30.1321ZM5.18248 77.9877C5.19642 77.9076 5.73692 77.8103 5.10669 77.5279C4.2823 77.6224 5.14468 78.0015 5.18133 78.3245C4.99283 78.2523 4.80376 78.1692 4.619 78.0835C5.39988 78.9941 5.66132 78.9186 5.58428 78.3145C5.57862 78.2756 5.1711 78.0702 5.18248 77.9877ZM2.31899 71.5664C1.36108 71.4448 1.93477 72.8911 2.23178 72.7612C2.20867 72.5709 2.03 72.4441 2.07378 72.2292C2.12007 72.0136 2.32613 71.9425 2.31899 71.5664ZM41.7901 79.8733C41.7427 79.8692 41.266 79.4791 41.3134 79.7845C41.903 80.5072 43.0911 80.042 42.8833 79.7903C42.4903 79.8028 42.2283 79.9112 41.7901 79.8723C41.7901 79.8727 41.7901 79.873 41.7901 79.8733ZM74.8728 16.6967C74.8668 16.7305 75.4924 17.7539 75.7021 17.7818C75.9091 17.7771 76.0852 17.7155 76.2768 17.6826C75.7426 17.2719 75.0021 16.1652 74.8743 16.6985C74.8738 16.6979 74.8733 16.6973 74.8728 16.6967Z" fill="#000F55"/>
</svg>
