<svg width="330" height="144" viewBox="0 0 330 144" fill="none" xmlns="http://www.w3.org/2000/svg">
<path d="M222.26 39.4386C221.127 38.0904 225.506 41.83 222.834 39.0465C223.483 39.51 224.137 39.9756 224.786 40.439C224.821 40.7207 224.861 41.0051 224.897 41.2868C224.019 40.6722 223.141 40.0573 222.259 39.4393C222.259 39.4391 222.26 39.4388 222.26 39.4386ZM219.568 40.5015C220.69 40.6595 223.234 42.4643 220.912 39.9727C220.581 39.9611 220.245 39.9455 219.914 39.9338C219.088 39.0931 218.257 38.2479 217.432 37.4077C217.055 37.2068 216.679 37.0062 216.303 36.8046C216.092 36.2072 215.885 35.612 215.675 35.0139C216.018 35.3464 216.365 35.6836 216.708 36.0161C218.355 36.9594 219.716 37.9323 221.753 39.4669C221.626 39.2655 221.499 39.0643 221.373 38.8628C222.306 39.7695 223.238 40.6761 224.167 41.5794C223.204 40.9936 222.128 40.3381 221.236 39.7957C222.212 41.2394 224.697 42.8146 225.964 43.6685C227.689 44.8309 227.164 44.7403 228.44 45.6079C228.644 45.7467 228.788 45.608 229.173 45.9054C231.11 47.4075 234.79 50.4314 232.314 49.0753C229.178 46.5358 226.242 44.7024 223.212 42.1503C223.705 43.218 221.953 42.073 219.568 40.5015ZM278.919 84.9506C277.797 84.3997 275.903 82.7789 274.687 81.5948C274.686 81.5936 274.684 81.5924 274.683 81.5912C274.415 81.3306 273.967 80.5395 274.912 81.2994C276.451 82.539 276.867 83.5568 277.91 83.9072C278.233 84.248 278.579 84.5971 278.919 84.9506ZM282.316 87.5782C283.187 88.4317 282.502 88.4143 281.377 87.3896C281.376 87.3898 281.376 87.3901 281.376 87.3904C280.907 86.9626 282.084 87.476 280.095 86.3314C279.888 85.8438 279.673 85.3786 279.465 84.9008C279.905 85.2412 280.308 85.5492 280.769 85.907C280.2 85.995 281.445 86.7256 282.316 87.5782ZM234.068 50.1586C234.452 49.979 233.823 49.4878 232.916 48.4417C233.917 49.244 234.918 50.0471 235.915 50.846C235.298 50.6157 234.686 50.3888 234.068 50.1586ZM210.399 31.4938C210.398 31.4926 210.396 31.4914 210.395 31.4902C210.027 31.2774 209.659 31.064 209.296 30.8539C209.182 30.5926 209.069 30.3335 208.955 30.0722C207.709 29.2544 206.457 28.4318 205.21 27.6146C205.606 27.4019 207.661 29.1014 208.994 29.7821C210.635 31.2287 211.315 32.0669 211.211 32.4294C210.941 32.1187 210.673 31.8078 210.399 31.4938ZM132.717 142.215C132.22 142.329 131.73 142.444 131.233 142.558C131.894 142.61 132.549 142.65 133.215 142.71C134.956 142.213 135.12 142.653 137.402 142.622C144.397 142.528 142.541 141.756 148.858 142.886C143.786 142.833 145.735 143.364 142.678 143.773C142.044 143.461 145.074 142.759 143.021 142.613C139.483 142.943 136.081 143.25 132.156 143.462C132.27 143.516 132.384 143.57 132.499 143.624C133.121 143.59 133.739 143.556 134.361 143.522C133.69 143.666 133.033 143.809 132.351 143.955C133.213 143.628 131.015 143.81 131.309 143.435C131.44 143.267 132.412 143.035 132.985 142.876C131.505 142.789 129.988 142.709 128.492 142.625C129.267 142.491 130.042 142.358 130.811 142.225C131.444 142.221 132.072 142.218 132.706 142.214C132.709 142.214 132.713 142.214 132.717 142.215ZM137.257 16.3686C136.02 17.8349 133.376 19.9939 131.695 20.7631C133.551 19.2974 135.402 17.8342 137.257 16.3686ZM211.145 32.744C211.019 32.5606 210.897 32.3819 210.771 32.1985C211.585 32.6821 212.403 33.1699 213.217 33.6535C213.241 33.9151 213.267 34.1793 213.296 34.4436C212.58 33.8786 211.861 33.3091 211.145 32.744ZM258.522 69.6846C257.975 69.2694 257.931 69.2269 257.275 68.677C257.276 68.6777 257.276 68.6785 257.277 68.6792C257.017 68.4617 254.854 66.6212 255.194 66.7008C256.303 67.5691 257.484 68.4992 258.617 69.3896C258.592 69.4928 258.54 69.5742 258.522 69.6846ZM245.534 59.374C245.533 59.3725 245.531 59.371 245.53 59.3696C245.141 59.0352 244.787 58.6995 244.376 58.3661C246.017 59.3607 245.997 59.8735 247.431 60.8501C248.865 61.826 249.848 62.3063 250.651 63.6612C250.169 63.3909 249.631 63.1237 249.128 62.8544C247.336 61.1578 246.683 60.9176 244.995 59.8768C245.175 59.709 245.354 59.5418 245.534 59.374ZM163.858 143.367C164.328 143.085 164.851 143.362 164.906 143.365C164.905 143.365 164.904 143.365 164.903 143.366C169.062 143.105 164.362 143.522 168.287 143.566C167.703 143.636 167.128 143.71 166.55 143.781C165.655 143.646 164.732 143.492 163.858 143.367ZM299 143.393C299.038 143.475 299.084 143.557 299.122 143.639C296.763 143.62 296.161 143.943 294.201 143.649C295.801 143.563 297.4 143.477 299 143.392C299 143.392 299 143.393 299 143.393ZM267.505 77.4974C265.351 76.0049 263.787 74.864 261.965 73.1172C261.963 73.1157 261.962 73.1143 261.961 73.1128C261.856 73.0114 262.513 73.3092 262.391 73.1585C261.968 72.8585 261.523 72.559 261.092 72.2596C261.121 72.1077 261.152 71.958 261.181 71.8068C262.316 72.748 263.452 73.6896 264.592 74.6342C264.47 74.4361 264.343 74.2353 264.221 74.0373C265.234 74.7803 266.243 75.5206 267.256 76.2637C266.774 76.171 266.292 76.079 265.813 75.9903C266.377 76.4927 266.942 76.9944 267.505 77.4974ZM259.728 142.496C260.143 142.586 259.375 142.736 260.019 142.813C260.664 142.889 261.852 142.722 261.573 142.974C260.706 143.008 259.795 143.047 258.911 143.083C261.755 143.538 264.594 143.126 264.637 143.688C261.907 143.542 259.662 143.61 257.019 143.766C257.129 143.319 259.772 142.934 258.108 142.515C258.642 142.509 259.204 142.501 259.723 142.497C259.725 142.497 259.727 142.497 259.728 142.496ZM177.638 13.5416C176.388 12.5166 173.363 10.3723 171.918 8.90643C171.562 8.54568 170.758 6.85912 170.832 6.77832C171.099 6.51895 172.737 7.74216 171.164 6.20102C171.745 6.654 172.315 7.0846 172.894 7.53099C172.944 7.25535 172.994 6.98067 173.048 6.70906C172.325 6.18858 171.601 5.66763 170.877 5.14779C170.894 5.05637 170.91 4.96481 170.926 4.87339C173.444 6.84859 172.154 5.43302 173.641 6.22659C172.531 5.16523 171.412 4.09739 170.306 3.03941C170.986 3.59666 171.793 4.24797 172.39 4.74381C172.731 4.47782 171.214 3.41387 171.013 3.15693C169.88 1.70838 176.892 7.49769 177.854 7.47679C176.754 6.52642 175.597 5.5332 174.47 4.56325C174.852 4.76708 175.238 4.97427 175.619 5.1781C178.008 7.59023 180.887 10.041 183.812 12.6721C184.102 12.8775 184.392 13.0829 184.677 13.2856C184.712 13.0725 184.752 12.8634 184.787 12.6503C185.222 12.9633 185.662 13.2805 186.096 13.5934C184.47 13.1098 186.194 14.4527 188.032 16.3812C186.793 15.687 185.514 14.5133 185.356 14.9085C189.337 17.6357 193.498 21.4687 197.401 24.0831C198.37 24.7324 198.693 24.3154 200.813 26.0425C200.704 26.0307 200.627 26.1032 200.533 26.126C204.408 28.8483 206.757 30.5017 210.463 33.7398C210.357 33.4155 210.255 33.0934 210.149 32.7691C209.27 32.1991 208.389 31.6292 207.515 31.0626C207.15 30.3781 208.061 30.9174 205.611 28.9976C203.604 27.4244 204.712 28.4707 204.11 28.1153C203.293 27.6348 202.799 26.93 201.917 26.4174C201.236 26.0204 201.741 26.7452 200.18 25.4357C201.03 25.6786 201.901 25.9231 202.758 26.1661C203.103 26.5323 203.443 26.897 203.787 27.2638C203.337 27.0239 202.894 26.7882 202.443 26.5482C203.934 27.5147 205.342 28.428 206.883 29.4269C206.116 29.4395 207.715 30.4648 208.558 31.054C209.871 31.9715 208.588 31.387 209.446 31.9909C210.306 32.5941 211.424 33.0001 212.865 34.233C211.934 33.775 212.901 34.78 212.568 34.7714C212.235 34.7624 210.632 33.559 212.012 34.9188C215.025 37.076 212.334 33.9996 214.376 35.4477C216.828 37.1867 216.629 38.598 215.761 38.2536C215.078 37.9825 213.198 36.4524 212.511 36.1774C215.693 39.1537 216.18 38.5947 216.854 38.9395C219.301 40.1908 217.007 40.1786 219.833 41.7512C219.623 41.9211 219.439 42.0772 219.236 42.2386C219.699 42.5413 220.026 42.7171 220.573 43.0985C219.345 41.4822 220.596 42.4923 221.245 43.0012C222.268 43.8026 220.844 42.366 221.154 42.5277C221.991 42.9652 223.097 43.9337 222.529 43.1997C222.781 43.5319 223.061 43.8854 223.323 44.2238C224.598 45.0586 228.082 46.3987 225.275 44.4755C225.776 44.3501 226.519 45.183 227.154 45.7614C227.79 46.3396 227.938 46.1252 228.501 46.6284C230.74 48.6309 228.923 47.7695 228.334 47.7502C231.596 50.0065 228.646 47.4878 233.231 50.8851C233.84 51.0024 231.955 49.136 233.782 50.3628C233.795 51.0005 234.847 52.2775 237.224 54.3523C237.534 54.452 237.845 54.5504 238.155 54.6501C239.227 56.0706 238.243 55.8999 241.095 57.4222C239.109 57.1837 240.444 57.3868 242.424 59.48C242.827 59.9045 241.642 59.2479 242.21 59.8331C242.467 60.0981 243.267 60.5195 243.893 61.1709C244.198 61.4895 245.557 63.0661 246.787 63.79C246.282 62.7533 248.66 64.0763 247.105 62.3254C250.391 65.037 252.884 66.6881 248.707 64.28C249.463 65.0677 250.221 65.8553 250.977 66.6423C251.644 67.0134 252.315 67.3891 252.986 67.7642C252.82 68.1603 252.658 68.1805 255.038 69.9569C253.965 69.2381 252.894 68.5239 251.816 67.8023C251.73 67.8411 251.535 67.7982 251.519 67.8887C252.863 68.7423 256.414 71.4439 257.332 72.025C258.25 72.6063 256.627 71.2929 256.937 71.4012C259.521 72.3103 258.958 72.6941 260.515 73.7246C261.429 74.3289 259.438 72.6419 259.921 72.9729C261.711 74.2012 262.212 75.19 263.719 76.3812C263.347 75.7508 262.981 75.1205 262.623 74.4983C264.199 75.7539 265.964 77.1431 267.489 78.2329C268.088 78.6609 267.773 78.1623 267.876 78.2261C268.386 78.5406 270.359 79.9534 270.561 80.1113C272.082 81.3033 271.956 81.5526 273.423 82.7239C272.829 82.287 272.271 81.8754 271.691 81.4479C271.159 81.5945 270.622 81.737 270.09 81.8843C271.517 83.0461 272.945 84.2079 274.376 85.3731C273.407 84.4236 272.434 83.4716 271.465 82.5222C273.344 83.5421 275.223 84.5614 277.103 85.5807C277.83 86.4318 278.554 87.2802 279.281 88.1313C281.661 89.9266 281.741 88.8528 282.369 90.3421C283.101 90.8329 283.833 91.3237 284.565 91.815C284.397 91.8254 284.23 91.8366 284.062 91.847C284.938 92.4472 285.813 93.0476 286.689 93.6472C286.057 92.6481 285.456 91.6462 284.826 90.6629C286.518 91.8829 286.342 92.1716 286.535 92.4295C287.046 93.1133 288.518 93.8889 288.907 94.4551C289.038 94.6473 287.294 93.5593 287.691 94.1946C287.768 94.3184 289.341 96.7447 290.847 97.6525C290.926 97.4988 290.948 97.2518 291.007 97.0628C292.916 98.4315 293.31 99.8675 292.912 99.8706C294.003 100.506 295.449 101.624 295.819 101.569C296.325 101.958 296.828 102.345 297.334 102.734C296.402 102.843 298.572 104.394 299.061 104.055C298.206 103.366 297.352 102.675 296.497 101.986C297.58 101.951 295.217 99.5595 300.276 104.354C301.096 105.459 298.452 102.858 299.134 103.74C300.514 105.024 301.982 106.009 303.23 107.311C304.783 108.931 302.446 107.481 306.764 110.363C298.407 102.519 308.416 110.795 312.825 113.862C313.371 115.554 316.738 118.599 321.825 122.218C321.485 121.599 319.854 120.5 319.021 119.73C318.189 118.96 319.251 119.586 318.224 118.615C317.196 117.644 314.952 115.658 313.952 114.624C314.998 115.247 319.914 118.637 316.54 116.552C318.685 118.585 319.597 119.66 322.433 121.953C323.328 122.219 323.576 122.109 325.049 123.151C325.462 123.447 325.945 123.844 326.481 124.425C325.474 123.813 325.691 124.386 325.93 125.023C326.18 125.676 326.385 126.44 325.892 126.28C324.492 124.39 325.789 124.964 324.902 123.754C324.884 123.733 324.813 123.675 324.702 123.592C324.181 123.206 322.784 122.24 322.433 121.953C323.963 123.842 324.483 124.506 322.939 124.111C323.254 124.343 323.538 124.558 323.792 124.751C324.545 125.326 324.913 125.755 325.164 125.674C325.282 126.003 325.371 126.325 325.443 126.648C325.723 127.028 325.959 127.385 326.183 127.835C326.263 127.002 326.691 128.317 327.131 129.219C327.36 129.674 327.473 129.565 327.62 129.673C327.746 129.783 328 130.123 328.036 131.588C328.139 130.614 328.096 129.695 327.912 128.736C328.6 130.559 328.722 132.628 328.271 134.589C329.078 133.361 329.382 130.085 329.674 130.1C329.825 131.123 329.622 134.62 329.398 134.984C328.966 136.415 328.994 135.557 328.957 135.665C328.059 137.788 326.799 139.293 325.941 139.627C324.827 140.907 323.642 141.558 321.952 142.16C321.017 142.459 321.252 142.647 320.67 142.728C318.905 142.884 318.711 142.633 318.326 142.596C317.901 142.521 317.238 142.579 313.549 142.932C314.362 143.114 315.165 143.3 315.978 143.484C315.219 143.553 314.465 143.622 313.706 143.69C313.198 143.657 312.695 143.624 312.187 143.591C312.198 143.196 312.211 142.8 312.222 142.405C311.665 142.384 311.106 142.363 310.549 142.341C311.504 142.303 312.462 142.264 313.418 142.225C313.505 142.155 313.587 142.086 313.674 142.016C312.254 141.909 310.839 141.8 309.42 141.692C309.392 141.829 309.365 141.967 309.338 142.105C306.138 141.913 306.062 141.797 303.021 142.175C300.678 142.171 298.771 142.746 297.417 142.987C296.931 142.91 296.444 142.832 295.953 142.755C295.642 142.87 295.327 142.983 295.016 143.098C294.399 142.939 293.774 142.78 293.157 142.622C292.813 142.982 292.635 143.095 295.042 143.222C294.218 143.67 289.979 143.473 288.254 143.322C286.944 143.208 288.397 142.833 288.233 142.788C287.687 142.633 285.529 142.767 285.076 142.741C283.159 142.634 281.817 142.653 280.086 142.57C279.749 142.553 278.807 142.316 278.727 142.309C278.104 142.268 276.568 142.153 276.393 142.15C267.38 141.972 277.011 143.002 268.63 142.893C268.881 143.029 269.111 143.164 269.357 143.299C268.724 143.308 268.084 143.316 267.451 143.324C266.648 143.21 267.62 143.004 266.025 143.171C266.129 143.003 266.233 142.836 266.342 142.67C265.649 142.76 264.981 142.849 264.271 142.94C263.157 142.359 259.09 142.227 259.379 141.546C259.478 141.314 262.361 141.076 260.837 140.829C259.599 140.78 260.437 141.057 259.932 141.071C256.285 141.172 256.496 140.784 255.006 140.888C254.771 141.054 254.524 141.224 254.284 141.392C253.722 141.343 253.158 141.294 252.591 141.245C252.46 141.357 252.323 141.469 252.192 141.581C252.722 141.588 253.318 141.596 253.804 141.603C253.126 142.036 246.903 142.231 249.276 141.861C250.243 141.712 252.013 141.775 250.894 141.264C249.229 141.338 247.339 141.413 245.587 141.487C245.532 141.376 245.481 141.266 245.427 141.156C243.064 141.227 245.213 141.668 245.208 141.903C244.668 141.91 244.122 141.916 243.582 141.923C243.353 141.816 243.135 141.704 242.895 141.601C242.873 141.771 242.57 142.165 240.96 142.019C239.925 141.923 241.555 141.495 239.581 141.554C239.728 141.819 240.442 142.142 238.242 142.227C238.024 141.951 237.722 141.697 237.553 141.407C234.817 141.673 233.573 141.246 230.362 141.554C228.326 141.75 225.536 142.443 224.22 141.375C222.73 141.347 223.203 141.613 222.762 141.673C220.681 141.956 219.134 141.449 218.746 141.419C216.274 141.228 215.165 141.403 213.151 141.164C213.26 141.362 213.319 141.549 213.407 141.742C215.252 141.446 216.187 141.46 218.775 141.524C217.907 141.563 217.039 141.604 216.171 141.644C216.313 141.804 216.454 141.965 216.59 142.125C224.595 141.492 222.728 142.492 216.017 142.71C215.438 142.413 214.838 142.117 214.265 141.819C210.388 142.269 208.564 141.878 204.18 141.784C203.658 141.774 201.76 141.945 200.944 141.953C200.958 141.954 200.971 141.956 200.985 141.957C200.477 142.237 201.165 142.366 201.247 142.617C200.804 142.649 200.362 142.68 199.92 142.712C198.932 142.52 199.279 142.363 197.336 142.409C197.598 142.599 197.856 142.79 198.119 142.98C195.989 142.987 194.595 142.78 192.613 142.869C192.946 142.797 193.275 142.725 193.608 142.653C189.295 142.469 192.728 141.35 189.468 141.907C189.26 141.809 189.058 141.711 188.851 141.613C190.194 141.589 191.537 141.566 192.875 141.542C192.902 141.403 192.932 141.266 192.954 141.128C191.517 141.169 190.074 141.212 188.638 141.253C189.687 141.16 190.741 141.068 191.79 140.975C190.124 140.909 188.459 140.842 186.793 140.776C188.562 141.284 186.269 141.346 186.7 141.85C183.752 141.431 181.436 140.879 176.865 141.232C175.959 141.303 176.451 141.654 173.88 141.226C174.502 141.786 171.28 142.048 171.694 142.581C172.59 142.555 173.518 142.539 174.386 142.507C173.398 142.323 173.234 141.815 174.735 141.664C176.652 141.472 179.447 141.824 179.333 141.26C180.097 141.287 180.808 141.303 181.55 141.325C181.244 141.465 180.945 141.605 180.645 141.745C182.757 141.526 184.085 141.597 185.1 141.95C182.583 142.031 180.072 142.111 177.555 142.192C177.926 142.216 178.301 142.24 178.672 142.263C176.766 142.623 178.732 142.964 175.177 143.041C175.199 142.876 175.217 142.712 175.239 142.546C173.944 142.986 170.401 142.984 171.531 143.491C170.461 143.335 170.243 143.237 169.637 143.51C166.814 143.125 165.001 142.638 166.006 142.057C164.957 142.15 163.909 142.244 162.866 142.338C163.472 142.496 164.079 142.655 164.685 142.814C162.861 142.804 161.024 142.794 159.205 142.785C159.031 142.315 162.716 142.642 161.653 142.222C161.44 142.137 160.458 142.318 160.201 142.271C157.481 141.757 161.75 142.128 160.948 141.734C156.897 141.612 160.139 140.952 154.558 141.507C154.411 141.371 154.253 141.233 154.116 141.098C152.179 141.09 152.336 141.396 150.671 141.454C149.628 141.49 148.319 140.952 147.167 141.319C146.962 141.386 148.899 142.044 144.828 142.015C141.668 141.993 142.983 141.528 141.275 141.363C139.566 141.198 135.656 141.843 134.504 141.112C135.399 141.209 136.539 141.261 137.533 141.341C137.937 141.198 138.33 141.057 138.729 140.916C136.457 141.1 134.109 140.883 132.58 141.222C129.55 140.703 126.161 141.185 127.078 141.771C128.075 141.687 126.99 141.431 128.376 141.594C128.518 141.731 128.667 141.866 128.809 142.003C126.45 141.987 124.812 141.99 125.888 141.574C125.522 141.564 125.16 141.554 124.794 141.544C124.728 141.845 124.67 142.148 124.605 142.449C124.168 142.483 123.729 142.517 123.292 142.551C122.807 142.485 122.32 142.418 121.829 142.351C122.489 141.874 123.615 141.858 119.891 141.591C119.88 141.756 119.864 141.92 119.853 142.085C116.735 141.876 116.653 141.477 112.738 141.491C115.741 140.919 117.385 141.933 117.374 140.786C118.127 140.861 118.887 140.938 119.64 141.013C119.755 140.846 119.869 140.68 119.978 140.513C115.932 140.601 109.211 141.696 106.502 140.97C106.175 141.058 105.846 141.135 105.513 141.231C102.859 140.793 101.713 141.776 99.0213 141.21C98.7436 141.15 99.3248 140.226 95.8205 140.26C95.9078 140.38 95.9532 140.582 96.0242 140.733C95.2654 140.659 94.5107 140.582 93.7574 140.507C93.621 140.618 93.4778 140.729 93.3413 140.841C94.6354 140.884 95.926 140.927 97.2201 140.97C96.1448 141.008 95.0626 141.047 93.9873 141.085C95.3902 141.266 96.0231 141.268 95.1774 141.558C93.9597 141.576 92.7404 141.594 91.5227 141.612C91.3973 141.686 91.2727 141.761 91.1473 141.836C91.737 142.057 92.3326 142.274 92.9223 142.5C89.7499 142.318 86.9918 142.308 84.5565 141.872C84.1416 141.799 85.6091 141.509 82.7815 141.77C82.7378 141.617 82.6619 141.493 82.6128 141.351C79.1508 141.78 78.0135 141.652 74.4041 141.342C76.7412 141.631 74.656 141.443 74.0608 141.598C73.6529 141.705 75.2447 141.689 75.0647 141.801C74.8845 141.912 72.8161 142.36 74.5845 142.414C78.9202 141.496 80.1013 142.593 85.671 142.152C84.8137 142.27 83.9502 142.389 83.0929 142.507C83.4966 142.588 83.8581 142.661 84.2946 142.746C81.1882 142.566 82.6991 142.683 81.4226 142.824C80.1449 142.966 77.8227 143.086 76.2664 143.125C75.7762 143.137 76.2933 142.931 75.1869 142.912C74.4334 142.899 72.3742 143.204 71.8988 142.844C71.5875 142.61 74.8957 141.965 70.3216 141.966C69.4607 141.737 71.6537 141.808 71.7009 141.78C72.0995 141.507 69.2875 141.302 67.9879 141.51C67.8827 141.528 68.909 141.741 67.793 141.825C65.1446 142.024 63.6152 141.78 61.9006 141.45C61.7149 141.837 59.4863 142.3 56.7123 142.157C56.5705 142.268 56.4352 142.38 56.2933 142.491C56.724 142.433 57.1546 142.375 57.5853 142.316C58.0549 142.386 58.5524 142.436 59.0111 142.518C56.2215 142.613 55.8269 143.147 54.4892 143.343C49.9115 144.01 52.6859 142.598 53.5115 142.355C54.1067 142.454 54.6822 142.564 55.272 142.667C55.2065 142.532 55.14 142.396 55.0799 142.26C48.2273 142.265 54.0364 141.384 50.5581 141.133C49.6626 141.797 47.108 141.861 43.8538 141.44C43.4934 141.443 43.1317 141.444 42.7713 141.448C42.7114 141.545 42.7123 141.693 42.6142 141.757C38.6936 141.87 37.9952 140.847 37.6239 140.75C35.975 140.321 34.6909 140.915 34.2048 140.92C32.1572 140.941 31.5622 140.677 29.6131 140.79C27.5167 140.913 28.9502 141.115 28.3124 141.297C27.8008 141.441 26.1469 141.466 25.4637 141.615C25.7351 141.493 26.0369 141.374 26.3075 141.251C24.1348 141.085 22.359 140.923 19.8913 140.882C17.1068 141.775 14.7375 140.269 15.6983 141.49C18.0354 141.574 19.3421 141.713 20.5926 142.025C19.0586 142.064 17.5233 142.103 15.9893 142.143C15.5417 142.009 15.2239 141.878 14.6944 141.741C13.6689 141.996 11.4342 141.925 10.2272 141.967C10.079 141.972 9.94678 141.976 9.8334 141.981C7.31846 142.03 6.38091 141.715 5.57906 141.459C4.81829 141.136 3.96959 140.738 2.64857 138.782C5.13543 140.978 5.4263 140.647 8.43015 141.476C7.79273 141.112 6.33693 140.659 7.379 140.648C5.99876 140.243 5.55099 140.003 5.24809 139.981C4.95308 139.938 4.8283 140.043 4.26445 139.8C3.24218 139.415 1.86668 137.733 1.72051 137.987C1.72331 137.707 1.76032 137.476 1.7841 137.207C0.698669 135.514 0.11707 133.501 0.141261 131.489C0.303634 132.348 0.576079 133.165 0.934936 133.916C0.853643 133.302 0.83076 132.686 0.866323 132.08C0.252761 129.359 2.2803 125.671 4.35713 124.236C5.86656 123.016 6.7112 122.159 5.90542 122.063C7.74238 120.565 8.08023 120.515 9.25147 119.921C9.29966 119.752 9.35553 119.6 9.3966 119.422C10.665 118.563 11.3499 117.535 12.4722 116.781C13.5941 116.026 14.0822 116.105 13.8588 115.503C14.6542 115.101 15.4273 114.679 16.2107 114.271C16.5368 113.839 16.8635 113.407 17.1858 112.978C17.8748 112.53 18.5652 112.08 19.2543 111.631C19.4181 111.131 22.0284 109.241 23.0237 108.21C24.278 107.625 24.8611 108.428 27.2448 106.33C27.0285 106.187 26.8137 106.044 26.5975 105.901C27.2002 105.493 27.804 105.084 28.411 104.672C28.4949 104.708 28.5743 104.748 28.6581 104.784C28.3509 104.994 28.0476 105.201 27.7398 105.41C28.077 105.318 28.4087 105.229 28.7416 105.14C29.4889 104.297 30.2374 103.454 30.989 102.608C29.7143 103.415 28.439 104.223 27.1643 105.031C28.5344 103.725 29.6767 103.057 30.8408 101.887C32.171 101.273 31.8781 101.752 31.6504 102.399C32.0474 102.047 32.4499 101.693 32.8469 101.341C32.7997 101.846 33.6396 101.466 31.187 103.354C31.4192 103.306 31.6518 103.25 31.8823 103.208C32.2714 102.881 32.5852 102.748 32.9981 102.372C34.1234 101.347 34.639 100.119 34.4173 100.005C34.2998 99.9462 33.2631 101.049 33.2065 100.88C33.07 100.467 35.8838 98.4905 31.7351 101.226C32.8666 100.005 33.2769 99.9333 34.749 98.8729C34.5531 98.8531 34.361 98.8316 34.1693 98.8085C34.8692 98.3387 35.5699 97.8682 36.2698 97.3984C35.784 98.6716 40.8207 95.0505 36.812 98.9791C38.128 97.9855 39.4398 96.9954 40.7525 96.0065C40.5308 96.2722 40.3086 96.5374 40.0869 96.8031C39.4794 97.2318 38.8758 97.6582 38.2689 98.0875C39.037 97.6516 39.8059 97.214 40.5741 96.778C42.0965 95.3749 42.5779 94.6778 43.1295 93.8508C41.1009 95.1568 41.9087 94.9148 40.4747 96.1191C40.405 95.9245 40.2256 95.8361 40.227 95.573C41.2385 95.295 43.5371 93.1139 44.1001 92.6464C45.8139 91.2237 44.6873 92.616 45.8638 91.7026C47.0412 90.7883 48.2772 89.5155 49.4793 89.0746C49.3251 88.9137 49.1067 88.7934 48.9133 88.6885C50.6934 87.1977 50.4911 87.6898 50.701 87.5681C54.0603 85.6392 55.405 83.984 58.818 81.2307C58.3376 81.5206 57.8568 81.8194 57.3747 82.116C59.6852 79.7023 58.0218 81.1922 55.6671 82.8438C57.8133 81.218 58.7779 79.9504 60.1987 78.6829C61.6194 77.4157 64.3092 75.565 65.3449 74.9557C63.3616 76.8419 60.9452 78.5232 58.6101 80.4478C59.0201 80.4131 59.4011 80.357 59.8335 80.3331C60.9876 78.8236 62.0219 78.4145 62.5374 78.0896C64.051 77.1354 63.7556 76.8498 64.8718 76.5299C64.7444 76.4384 64.641 76.3586 64.5198 76.2749C67.4486 74.0546 70.7302 71.8157 72.2676 69.9009C72.6628 70.0505 73.0077 70.2228 73.4333 70.358C74.4888 69.1827 75.709 68.579 76.7001 67.7195C77.6871 66.8633 77.1158 66.9403 78.2528 65.904C78.4633 65.7124 79.0413 65.491 79.5077 64.9532C79.9789 64.4106 81.4028 62.0095 82.1918 62.5103C83.2292 61.7008 84.2285 60.957 85.251 60.1727C84.2941 60.9875 83.3358 61.8013 82.3832 62.6127C83.3567 62.1197 84.3246 61.6302 85.2981 61.1372C85.2878 60.9031 85.2758 60.6661 85.2627 60.4373C87.3869 58.4742 89.2246 57.4267 91.4679 55.5711C91.8424 55.2612 90.7082 55.6733 92.4631 54.4169C94.2186 53.1603 95.9114 52.7242 98.6334 50.2412C98.7707 50.1154 99.294 49.0201 100.559 48.5002C100.847 48.3817 99.9327 49.2585 100.542 48.9211C101.151 48.5833 103.622 46.7589 103.974 46.8182C103.89 46.7649 103.68 46.807 103.548 46.7895C103.933 46.4307 104.321 46.0685 104.711 45.7069C104.851 45.8061 104.995 45.9031 105.135 46.0017C107.268 43.8385 108.107 42.3846 111.747 39.7886C110.612 40.3761 109.475 40.9632 108.344 41.5474C108.178 41.892 108.011 42.238 107.849 42.5793C106.189 43.7979 104.524 45.0204 102.864 46.239C102.716 46.5985 102.572 46.954 102.424 47.3135C101.979 47.6312 101.539 47.9461 101.095 48.2638C101.117 48.0708 101.14 47.8776 101.166 47.6812C100.337 48.3755 99.5075 49.0713 98.6827 49.7623C99.9005 47.768 103.534 46.0401 102.89 45.6781C103.337 45.4614 103.786 45.2448 104.234 45.0287C104.197 44.6368 105.032 44.1017 106.434 43.0672C106.019 43.1852 105.574 43.3306 105.184 43.427C106.658 42.5624 109.005 40.6901 110.439 39.6771C111.068 39.2322 110.611 39.8959 110.809 39.7767C111.823 39.1674 113.329 37.4521 113.719 37.188C116.048 35.6095 117.973 35.1073 120.058 32.8037C117.492 34.655 118.879 33.6355 117.815 34.1017C117.481 34.2476 114.152 36.621 118.226 33.5282C118.704 33.1661 126.341 27.8652 124.202 30.0801C125.3 29.0471 126.129 28.1989 127.123 27.237C130.453 26.0305 128.894 25.9311 127.772 26.0843C128.204 25.7417 128.613 25.413 129.06 25.0622C128.482 26.281 133.34 22.5128 134.793 20.9854C135.28 20.4743 133.625 21.5299 134.839 20.46C135.471 20.0178 136.191 19.5215 136.86 19.0563C135.697 19.4853 137.427 17.9402 137.162 17.6555C138.539 17.0131 139.881 16.8894 139.486 17.7036C140.349 16.822 141.216 15.9365 142.078 15.0542C141.575 15.3327 141.066 15.6164 140.563 15.8949C143.857 13.6174 147.557 10.0072 148.716 10.1312C149.129 9.79953 149.547 9.46495 149.96 9.13324C150.004 8.92397 150.043 8.71789 150.087 8.50862C152.046 7.12203 154 5.7394 155.959 4.35281C154.333 5.73799 154.055 6.2056 152.197 7.46296C152.972 7.05459 153.761 6.63699 154.524 6.23873C156.063 4.68128 156.688 3.91853 158.028 2.76016C158.776 2.12732 159.839 1.3991 161.615 0.947933C161.725 0.91741 162.751 0.741535 163.753 0.794093C164.757 0.827241 165.703 1.07589 165.761 1.10356C166.305 1.3536 165.41 1.44245 165.65 1.5622C165.976 1.71462 167.122 2.14928 167.997 2.77835C168.889 3.38862 169.506 4.11753 169.452 4.12504C168.998 4.21392 167.645 3.40776 165.71 3.20733C163.791 2.96265 161.36 3.54562 159.737 4.936C157.423 6.81921 155.314 8.49338 154.223 9.37376C121.072 36.1205 87.8535 61.262 54.6475 87.505C54.3066 87.7753 54.5514 87.7795 54.4096 87.8992C53.5276 88.6413 52.4892 89.1507 52.1482 89.4059C51.42 89.9519 51.9514 89.8173 51.4287 90.2281C46.025 94.4692 40.8463 98.3703 35.4634 102.647C35.1128 102.925 35.3623 102.503 34.7634 103.013C34.4548 103.277 33.6242 104.277 32.9063 104.846C30.3986 106.834 28.2308 108.425 25.5796 110.513C24.1297 111.655 21.9378 113.347 20.3175 114.624C19.6018 115.189 18.9323 115.874 18.2267 116.433C17.2254 117.227 17.2742 116.867 17.1098 116.976C16.3889 117.454 16.4667 117.747 15.8185 118.248C14.6122 119.178 14.4332 119.083 12.9227 120.289C11.8435 121.152 9.44739 123.22 8.10411 124.33C7.35196 124.859 6.56693 125.433 5.76828 126.033C3.61631 127.54 2.71749 130.315 3.07986 132.436C3.36466 134.034 3.29239 134.246 3.54897 134.882C4.64528 137.084 6.37834 138.006 8.38301 138.531C8.98356 138.679 9.59575 138.758 10.2272 138.773C13.2455 138.826 16.0902 138.962 19.1377 138.974C19.7707 138.977 19.6253 138.739 20.2463 138.733C22.5452 138.71 25.4849 138.667 27.5326 138.701C29.8146 138.738 30.6564 139.084 32.8896 139.013C33.5442 138.993 33.7362 138.69 34.8333 138.651C36.5859 138.59 38.5076 138.857 39.7306 138.887C41.4069 138.926 39.9491 138.618 42.2097 138.659C42.3027 138.661 42.6409 138.881 43.1263 138.871C44.5406 138.841 44.4002 138.667 46.4697 138.684C46.6683 138.686 49.4123 138.896 49.6851 138.897C51.2904 138.901 54.5224 138.974 55.4728 138.93C58.8692 138.771 56.1953 138.439 59.0839 139.159C60.3558 138.983 61.6172 138.804 62.9656 138.633C62.0657 138.792 65.7177 139.023 65.9743 139.008C68.0972 138.888 66.8327 138.608 69.5243 138.654C65.9695 139.302 72.997 138.738 74.5642 138.721C82.1102 138.641 88.9695 138.802 96.5538 138.798C99.0928 138.796 102.495 138.66 105.181 138.663C105.808 138.663 105.334 138.816 105.886 138.82C106.435 138.822 105.825 138.65 106.453 138.659C110.357 138.719 113.416 139.043 116.992 138.638C117.167 138.696 117.161 138.743 117.449 138.807C120.376 138.444 126.013 138.932 128.131 138.999C131.445 139.104 132.291 138.858 134.699 138.908C137.882 138.974 142.662 139.454 140.527 138.661C142.711 138.637 144.813 138.63 147.019 138.703C147.265 138.712 147.095 138.913 147.194 138.917C147.816 138.946 148.019 138.766 148.439 138.758C149.579 138.735 147.719 138.951 149.344 138.891C150.201 138.859 150.688 138.701 153.069 138.698C167.419 138.681 182.998 138.737 197.708 138.763C198.718 138.765 198.053 138.57 199.32 138.583C203.721 138.626 211.599 138.954 215.394 138.909C219.189 138.864 218.333 138.58 220.708 138.46C221.166 138.437 220.79 138.599 221.205 138.602C223.995 138.617 227.322 138.87 229.583 138.908C231.077 138.934 230.958 138.678 231.995 138.66C233.54 138.633 235.131 138.891 235.955 138.9C239.831 138.936 242.496 138.728 246.116 138.834C245.975 138.778 245.881 138.726 245.761 138.671C250.047 138.68 254.328 138.689 258.614 138.698C258.412 138.647 258.217 138.595 258.015 138.543C263.043 138.571 262.469 139.127 262.027 137.953C262.393 137.911 262.781 137.863 263.13 137.825C262.988 138.43 266.03 138.873 269.901 139.027C270.185 139.039 272.09 138.449 271.883 139.146C272.38 138.975 272.676 138.858 273.096 138.708C273.915 138.919 274.745 139.127 275.564 139.338C276.006 139.306 276.454 139.276 276.896 139.244C276.962 139.108 276.912 138.966 277.054 138.832C279.106 138.811 283.317 138.98 284.939 138.963C288.969 138.919 293.072 138.549 296.206 138.949C297.733 138.908 296.217 138.64 298.487 138.674C298.744 138.809 298.985 138.94 299.253 139.079C301.109 138.473 301.496 138.842 304.039 138.969C305.759 139.055 306.886 138.906 308.523 138.935C308.938 138.943 308.88 139.121 309.164 139.115C310.115 139.097 312.828 138.852 313.499 138.845C315.163 138.827 316.762 138.817 318.326 138.812C321.392 138.817 323.951 137.044 325.065 134.139C325.218 133.714 324.867 134.209 325.017 133.774C325.229 133.067 325.376 133.553 325.488 133.125C325.707 131.911 325.495 131.85 325.244 130.254C324.925 128.718 324.069 127.281 322.678 126.169C318.15 122.553 313.435 118.709 308.977 115.191C308.78 115.036 308.689 115.176 308.473 115.009C307.068 113.916 305.791 112.626 304.519 111.63C302.408 109.976 300.679 108.916 298.596 107.279C294.526 104.081 290.963 101.13 286.78 97.8366C283.357 95.1405 280.367 92.8205 276.61 89.8686C260.199 76.975 243.124 64.2371 226.774 51.037C226.358 50.7009 226.62 50.7194 226.488 50.6237C225.229 49.716 224.997 49.7869 224.821 49.1188C223.217 47.9631 222.533 47.8241 220.671 46.3329C219.678 45.5383 220.724 45.7434 218.878 44.6113C217.211 43.5892 218.732 45.1222 214.357 41.3407C214.242 41.2404 213.832 40.5431 212.84 39.8617C211.844 39.1762 212.812 40.2054 210.488 38.4612C205.033 34.3659 198.402 28.833 192.118 23.9976C191.724 23.6946 187.863 20.863 187.075 20.3368C185.55 19.3189 185.715 19.7275 183.814 18.3032C182.346 17.2025 181.309 16.0718 179.582 14.7786C179.381 14.6282 178.892 14.5695 177.638 13.5416ZM124.8 142.711C124.352 142.962 123.544 143.886 120.836 143.605C120.58 143.579 121.965 142.943 120.47 142.842C121.933 142.775 123.358 142.753 124.8 142.71C124.8 142.71 124.8 142.711 124.8 142.711ZM172.049 1.65869C173.613 2.94651 175.184 4.2382 176.748 5.52599C175.58 4.75048 174.41 3.97351 173.245 3.20199C172.845 2.68649 172.449 2.17422 172.049 1.65869ZM286.316 143.194C286.318 143.194 286.319 143.194 286.321 143.194C284.192 143.314 282.061 143.433 279.931 143.552C280.155 143.465 280.38 143.376 280.604 143.289C282.285 143.15 283.967 143.012 285.643 142.874C285.867 142.981 286.092 143.088 286.316 143.194ZM303.14 142.265C304.5 142.37 304.167 142.546 304.915 142.717C304.915 142.717 304.915 142.716 304.915 142.716C305.113 142.761 306.032 142.8 306.388 142.806C306.257 142.696 306.087 142.587 305.945 142.478C309.118 142.212 315.322 143.159 307.29 143.541C307.41 143.402 307.525 143.263 307.645 143.124C303.653 143.163 299.203 142.861 303.14 142.265ZM92.7041 143.111C89.2967 143.567 88.2042 143.663 84.0706 143.351C84.6545 143.222 85.2384 143.093 85.8223 142.963C86.5049 143.095 87.1825 143.226 87.865 143.358C87.867 143.358 87.8689 143.358 87.8708 143.358C88.0073 143.219 88.1443 143.081 88.2753 142.942C89.7495 142.999 91.2299 143.055 92.7041 143.111ZM253.926 67.2881C253.741 65.9863 253.63 66.5713 255.89 68.0855C256.672 68.6097 256.051 67.9191 256.527 68.2592C259.097 70.0942 258.919 70.7293 258.17 70.5437C256.752 69.4577 255.321 68.3588 253.931 67.2917C253.929 67.2905 253.927 67.2893 253.926 67.2881ZM189.43 16.872C189.429 16.8708 189.427 16.8696 189.426 16.8684C189.498 16.6434 190.536 17.3821 189.537 16.3307C190.395 17.0055 191.252 17.6809 192.114 18.359C191.848 18.1766 191.578 17.9892 191.312 17.8067C191.488 18.042 191.665 18.2785 191.841 18.5138C192.303 18.5527 192.495 18.8918 193.344 19.667C193.263 19.2572 193.184 18.8481 193.103 18.4383C194.1 19.3248 195.101 20.2147 196.099 21.1012C196.069 21.1653 196.04 21.2297 196.01 21.2938C196.459 21.535 196.905 21.7723 197.354 22.0135C197.411 22.1623 197.464 22.3074 197.521 22.4561C198.036 22.7815 198.551 23.1076 199.067 23.4324C199.089 23.7024 197.986 22.945 199.879 24.3676C199.182 24.0792 198.487 23.7913 197.786 23.4996C195 21.2909 192.215 19.0813 189.43 16.872ZM273.506 82.3114C270.404 79.9232 271.36 80.4911 272.351 80.6968C272.735 81.2337 273.123 81.7745 273.506 82.3114ZM207.189 142.473C206.053 142.78 204.912 143.085 203.749 143.381C201.434 143.552 199.118 142.992 200.86 142.773C202.956 142.51 205.146 142.804 207.189 142.473ZM154.457 142.61C157.289 142.752 154.624 143.117 153.985 143.33C153.202 142.988 152.109 143.018 150.354 142.979C152.002 142.956 153.988 142.586 154.457 142.609C154.457 142.609 154.457 142.61 154.457 142.61ZM252.774 142.818C253.909 142.809 255.038 142.724 256.053 142.828C255.747 143.121 253.717 142.854 255.169 143.29C254.443 143.297 253.716 143.304 252.995 143.313C253.453 143.132 252.837 142.997 252.777 142.819C252.776 142.819 252.775 142.819 252.774 142.818ZM303.552 105.469C305.089 107.119 305.513 107.263 307.427 108.46C307.5 108.877 305.103 107.598 303.72 106.644C303.666 106.254 303.61 105.863 303.552 105.469ZM114.426 35.4175C114.229 36.0317 111.154 38.5064 109.546 39.6337C109.697 39.4474 109.847 39.26 109.997 39.0731C111.472 37.8561 112.952 36.6345 114.426 35.4175ZM149.519 142.954C149.812 142.965 150.091 142.973 150.354 142.979C150.061 142.983 149.779 142.976 149.519 142.954ZM30.9021 141.388C31.8355 141.048 29.0611 140.933 32.4298 141.067C32.4298 141.066 32.4298 141.066 32.4298 141.066C34.6577 141.153 35.1495 141.177 37.2136 141.203C36.4705 141.64 32.2831 141.797 38.0545 141.887C38.1305 141.887 37.9792 141.627 38.9013 141.663C39.1859 141.674 40.0968 141.887 41.4823 141.949C41.93 141.969 45.2948 142.035 40.7083 142.039C40.8448 142.344 40.5984 142.652 40.6093 142.948C38.819 143.034 37.4431 142.437 35.5491 142.452C32.737 142.475 31.306 143.078 30.7654 142.287C33.13 142.092 37.1903 142.088 37.7199 142.564C40.0075 142.569 40.6644 142.179 38.8198 141.986C30.9185 142.232 36.6507 141.408 29.7324 141.719C29.6505 141.829 29.3659 141.947 29.4094 142.051C27.2976 141.664 30.5691 141.51 30.9021 141.388ZM47.4242 142.23C46.059 142.462 44.6984 142.697 43.3388 142.93C43.3388 142.551 44.0885 142.211 46.2399 141.997C46.6327 142.075 47.0313 142.153 47.4242 142.23ZM45.2153 90.7262C45.2426 90.4427 45.538 89.9705 45.7174 89.5801C46.1511 89.4605 53.984 83.5204 50.1568 86.7433C49.601 87.2114 45.8922 89.6608 45.2153 90.7262ZM291.195 96.1589C292.02 96.9827 292.841 97.8037 293.662 98.6241C292.213 97.5976 290.761 96.572 289.311 95.5468C289.94 95.7519 290.566 95.9538 291.195 96.1589ZM188.344 142.111C188.833 142.119 187.209 142.403 189.136 142.358C187.7 142.539 186.355 142.693 184.952 142.863C184.531 142.729 184.106 142.596 183.686 142.462C183.358 142.548 183.024 142.633 182.696 142.719C182.893 142.524 183.068 142.333 183.276 142.134C185.64 142.553 186.182 142.078 188.344 142.111ZM258.649 141.347C259.074 141.772 255.65 142.025 259.018 142.092C258.38 142.371 257.352 142.518 255.381 142.543C255.065 142.436 254.749 142.33 254.433 142.223C254.389 142.509 253.882 142.615 252.774 142.818C252.773 142.818 252.772 142.818 252.771 142.817C249.774 142.838 249.953 142.743 249.233 142.274C252.405 142.539 252.5 142.11 254.662 141.855C256.148 141.679 258.087 141.759 258.649 141.347ZM36.9825 97.1987C38.5253 95.5311 36.7355 96.5117 40.101 94.3526C39.9554 94.5828 39.8085 94.813 39.6629 95.0432C38.77 95.7624 37.8764 96.4808 36.9825 97.1987ZM269.721 142.803C269.464 142.146 267.352 141.634 266.991 142.703C269.05 142.921 268.044 142.315 269.721 142.803ZM155.423 141.581C159.381 141.611 158.633 142.353 157.006 142.724C156.754 142.589 156.503 142.454 156.258 142.32C155.564 142.381 154.871 142.443 154.177 142.503C154.592 142.196 155.008 141.888 155.423 141.581ZM327.233 126.333C328.203 127.596 327.89 126.818 327.39 125.939C326.887 125.077 326.126 124.229 326.981 125.009C328.411 126.33 328.698 128.894 328.119 128.115C327.903 127.548 327.608 126.931 327.236 126.338C327.235 126.336 327.234 126.335 327.233 126.333ZM322.106 141.548C322.755 141.782 322.104 142.116 324.284 140.733C324.593 140.538 325.942 139.558 326.697 138.551C327.464 137.558 327.797 136.792 326.987 137.7C325.852 139.391 324.102 140.819 322.106 141.548ZM109.665 142.315C109.629 142.096 113.806 141.617 114.342 141.736C114.342 141.736 114.342 141.736 114.342 141.736C115.789 142.063 111.383 142.109 113.294 142.558C109.062 142.163 107.796 143.118 108.091 141.86C110.584 141.804 109.404 142.064 109.665 142.315ZM155.813 4.21899C155.814 4.21779 155.816 4.21659 155.817 4.2154C155.591 4.38055 153.575 5.5559 153.728 5.29499C155.972 3.65328 155.713 4.12514 157.533 2.25436C157.567 2.2544 157.599 2.25478 157.632 2.25533C157.782 2.25242 157.923 2.25634 158.083 2.25327C157.987 2.33273 157.898 2.41094 157.815 2.48831C157.205 3.05537 156.805 3.49636 155.813 4.21899ZM53.8445 84.5087C53.0767 85.1843 51.4651 86.1491 50.5591 86.8786C52.9091 83.877 56.9119 81.811 53.8445 84.5087ZM219.56 40.4969C219.563 40.4984 219.565 40.5 219.568 40.5015C219.567 40.5014 219.565 40.501 219.564 40.5009C219.563 40.4995 219.562 40.4982 219.56 40.4969ZM1.7323 138.286C1.69398 138.138 1.68962 138.044 1.70944 137.995C1.71287 137.992 1.71629 137.99 1.71972 137.987C1.71898 138.08 1.72188 138.178 1.7323 138.286ZM100.985 142.381C99.246 142.076 105.042 141.592 106.916 141.707C106.785 141.846 106.764 141.972 106.459 142.132C104.946 141.772 101.275 142.432 100.985 142.381ZM233.121 142.269C228.54 142.26 234.502 141.058 234.748 142.017C234.738 142.036 233.239 142.267 233.121 142.269ZM137.114 142.255C138.281 141.89 135.935 141.794 139.686 141.857C139.904 141.951 140.123 142.045 140.341 142.14C139.265 142.178 138.189 142.216 137.114 142.255ZM203.109 140.69C197.343 140.893 191.828 141.25 195.584 142.255C196.02 142.222 196.463 142.191 196.899 142.159C196.965 141.669 198.575 141.936 200.932 141.952C201.268 141.758 202.576 141.713 202.821 141.548C203.295 141.228 201.793 141.003 203.109 140.69ZM243.04 60.1464C243.165 60.138 243.288 60.128 243.412 60.1202C244.188 60.6092 244.965 61.1002 245.74 61.5892C245.525 61.6244 245.31 61.6594 245.095 61.6946C244.411 61.179 243.729 60.666 243.045 60.1504C243.043 60.1491 243.042 60.1477 243.04 60.1464ZM53.0431 141.196C52.5193 142.116 54.3497 141.947 58.0625 141.482C56.3917 141.386 54.7139 141.291 53.0431 141.196ZM295.764 141.063C295.884 141.324 296.002 141.585 296.128 141.846C298.099 141.574 297.733 141.275 296.788 140.928C296.444 140.973 296.107 141.018 295.764 141.063ZM323.428 139.466C322.765 139.821 323.194 139.795 323.126 139.834C321.353 140.619 321.095 140.672 318.749 141.046C318.61 141.079 318.469 141.109 318.326 141.136C318.166 141.166 318.005 141.196 317.844 141.226C318.009 141.303 318.168 141.363 318.326 141.411C319.278 141.666 320.199 141.543 322.289 141.026C321.801 141.026 321.326 140.986 320.865 140.912C322.148 140.617 323.362 140.047 324.417 139.232C324.502 139.087 324.583 138.942 324.659 138.795C324.265 139.052 323.839 139.276 323.428 139.466ZM234.894 53.4459C233.851 52.5992 232.804 51.7481 231.761 50.9015C231.639 50.9773 231.518 51.0549 231.396 51.1307C232.56 51.9014 233.729 52.6752 234.894 53.4459ZM25.4637 141.615C25.3572 141.663 25.2533 141.711 25.161 141.76C25.17 141.701 25.2864 141.654 25.4637 141.615ZM159.052 2.66523C160.305 1.91632 162.314 1.17873 163.926 1.17749C163.863 1.01249 162.779 0.968696 161.57 1.27558C160.353 1.55877 159.095 2.23878 158.439 2.60262C158.283 2.79613 158.519 2.97255 159.052 2.66523ZM160.899 141.611C161.281 141.442 161.663 141.274 162.04 141.105C162.962 141.123 163.887 141.142 164.816 141.16C164.843 141.022 164.87 140.883 164.897 140.744C160.808 140.924 161.751 140.525 159.726 140.132C160.119 140.625 160.506 141.117 160.899 141.611ZM200.741 27.736C203.122 29.4871 204.054 29.9969 203 28.6421C202.122 28.073 201.238 27.5001 200.359 26.931C200.488 27.2004 200.617 27.47 200.741 27.736ZM15.1209 115.668C16.9693 114.019 17.3454 114.432 19.0535 112.695C17.9726 113.413 16.8911 114.131 15.8145 114.846C15.5856 115.118 15.3499 115.396 15.1209 115.668ZM92.9048 139.774C91.8619 139.581 89.9123 140.501 86.9804 139.822C86.2817 140.024 85.8438 140.218 85.2432 140.417C84.8938 140.201 84.4968 139.982 84.1637 139.767C84.1618 139.767 84.1598 139.767 84.1579 139.767C81.4986 139.84 83.2228 140.111 83.1627 140.341C83.1345 140.436 81.1609 140.277 81.7776 140.484C82.8424 140.839 86.8211 140.635 86.832 141.068C85.4342 140.926 82.7045 141.044 83.5119 141.333C84.3964 141.65 86.9689 141.119 88.607 141.382C86.2596 140.69 91.1079 140.904 91.6594 141.435C94.5043 141.027 91.8895 140.861 88.9737 140.88C90.7537 140.472 88.1336 140.692 87.7021 140.354C89.5376 140.149 95.8368 140.32 92.9048 139.774ZM227.124 140.525C225.157 140.551 222.086 140.318 220.74 140.662C219.956 140.862 223.035 141.017 220.911 141.332C222.827 141.301 223.264 141.178 222.937 140.903C223.373 140.869 223.815 140.837 224.252 140.805C224.454 140.859 224.661 140.912 224.863 140.966C225.092 140.852 225.323 140.74 225.547 140.626C226.01 140.649 226.48 140.671 226.943 140.694C226.998 140.637 227.091 140.587 227.124 140.525ZM70.9307 71.812C70.5035 72.1518 70.0803 72.4883 69.6536 72.8288C69.7423 72.8444 69.8419 72.8552 69.9388 72.8668C70.0113 72.8791 70.0839 72.8914 70.1565 72.9038C69.7874 72.946 67.5421 74.2978 66.809 75.1381C66.4403 75.5604 67.6549 75.0776 65.8585 76.5707C67.1776 75.5105 68.3792 74.5024 69.652 73.4627C69.6041 73.6404 69.5614 73.8153 69.5135 73.993C69.5144 73.9926 69.5152 73.9921 69.5161 73.9916C69.9607 73.674 70.4111 73.3533 70.8558 73.0356C70.8818 72.6267 70.9047 72.2209 70.9307 71.812ZM294.163 140.546C292.301 140.762 291.678 140.874 292.557 141.223C292.559 141.223 292.561 141.224 292.563 141.224C293.256 141.069 293.95 140.914 294.644 140.759C294.485 140.688 294.327 140.617 294.163 140.546ZM9.51521 140.436C7.67173 140.863 8.73226 141.232 10.2272 141.159C11.7445 141.063 13.5285 140.749 12.6837 140.524C12.6292 140.509 11.1866 140.558 10.2272 140.535C9.8741 140.526 9.60487 140.485 9.51521 140.436ZM154.695 141.173C155.782 141.162 156.871 141.152 157.963 141.141C157.712 140.978 157.455 140.816 157.203 140.653C156.368 140.826 155.531 141 154.695 141.173ZM210.483 36.1541C211.158 37.1471 213.385 39.0642 214.758 39.6388C214.194 39.1369 213.63 38.6348 213.066 38.1329C214.214 38.977 215.353 39.8077 216.509 40.6605C216.882 40.3086 215.399 39.5183 213.527 37.8702C213.238 37.6144 211.689 35.5965 210.726 35.4442C210.531 35.4152 212.552 37.0869 210.944 36.1846C211.557 36.6943 212.101 37.1152 212.685 37.5901C212.654 37.7189 212.622 37.8475 212.594 37.9797C211.889 37.37 211.189 36.7638 210.483 36.1541ZM215.676 140.564C212.976 140.536 212.642 140.739 212.08 141.097C213.336 141.057 214.592 141.017 215.848 140.976C215.788 140.839 215.736 140.702 215.676 140.564ZM229.396 51.1563C230.522 52.1157 230.205 51.4951 230.707 51.8191C232.605 53.0445 233.683 54.1562 235.511 55.4259C235.36 55.3791 235.221 55.3368 235.076 55.2921C235.077 55.2933 235.079 55.2945 235.08 55.2957C243.203 61.9882 239.265 58.0542 234.248 54.25C234.199 54.0736 234.155 53.9008 234.105 53.7251C231.772 52.1339 229.616 50.6725 229.396 51.1563ZM44.5958 140.417C44.4757 140.349 45.4967 139.917 43.5803 140.119C42.0626 140.749 44.5516 140.437 45.1749 140.679C44.6561 140.739 44.1256 140.798 43.6123 140.859C46.7139 141.037 47.1665 140.887 46.0362 140.427C45.9555 140.396 44.7162 140.484 44.5958 140.417ZM24.2124 140.106C23.7865 141.034 27.7007 140.617 27.5587 140.329C27.0184 140.317 26.5984 140.475 26.0253 140.405C25.4465 140.335 25.2986 140.119 24.2124 140.106ZM136.354 140.333C136.24 140.329 135.088 139.939 135.202 140.244C136.627 140.967 139.499 140.502 138.997 140.25C138.047 140.263 137.413 140.371 136.354 140.332C136.354 140.333 136.354 140.333 136.354 140.333ZM196.339 25.3228C196.366 25.3769 198.529 27.2755 198.911 27.3902C199.252 27.4501 199.48 27.4057 199.765 27.4139C198.423 26.5594 195.976 24.4854 196.343 25.3264C196.342 25.3252 196.34 25.324 196.339 25.3228Z" fill="#000F55"/>
</svg>
