<svg width="86" height="75" viewBox="0 0 86 75" fill="none" xmlns="http://www.w3.org/2000/svg">
<path d="M65.0149 52.224C65.0256 52.8814 65.8076 51.2048 65.6108 52.5224C65.7775 52.3272 65.946 52.1314 66.1127 51.9362C65.9786 51.775 65.8458 51.6127 65.7117 51.4515C65.4795 51.7083 65.2472 51.9652 65.0141 52.2235C65.0144 52.2237 65.0146 52.2238 65.0149 52.224ZM62.6546 51.2804C63.3027 51.3208 63.9625 50.5627 63.8319 51.7504C63.6212 51.7179 63.4095 51.6872 63.1989 51.6548C63.1275 52.0506 63.0548 52.4484 62.9827 52.8437C62.8481 52.9171 62.7135 52.9903 62.5796 53.0641C62.775 53.3898 62.972 53.7148 63.1681 54.041C63.2072 53.8864 63.2467 53.7297 63.2858 53.5751C63.8392 53.2166 64.188 52.8067 64.6665 52.1472C64.6961 52.2505 64.7251 52.3536 64.7547 52.4569C64.8602 52.0351 64.9652 51.6134 65.0697 51.1932C64.7654 51.4229 64.4259 51.6802 64.1434 51.8928C63.977 51.1609 64.7268 50.5307 65.0806 50.1796C65.5626 49.7016 65.2689 49.6926 65.6211 49.3345C65.677 49.2771 65.8493 49.3757 65.9351 49.2466C66.3667 48.5945 67.0906 47.2553 66.2243 47.758C65.5861 48.877 64.6848 49.6054 64.1239 50.7446C63.8505 50.1761 63.3408 50.6405 62.6546 51.2804ZM76.7448 32.2202C76.3165 32.4105 75.9801 33.1377 75.8446 33.6888C75.8442 33.6893 75.8439 33.6898 75.8436 33.6903C75.8138 33.8116 75.9621 34.223 76.1571 33.8889C76.4739 33.3436 76.1777 32.7952 76.6665 32.7133C76.6877 32.5514 76.7192 32.3874 76.7448 32.2202ZM77.5049 31.0803C77.5992 30.6824 77.1592 30.6113 76.9939 31.0796C76.9936 31.0794 76.9933 31.0792 76.9931 31.079C76.9241 31.2745 77.4099 31.1128 76.7446 31.5489C76.8814 31.8107 77 32.0583 77.1308 32.3142C77.2292 32.1666 77.3215 32.0335 77.4238 31.8781C77.0017 31.7589 77.4098 31.4776 77.5049 31.0803ZM66.7694 47.3299C67.1214 47.4809 66.9832 47.6947 66.9729 48.2013C67.1813 47.849 67.3891 47.4962 67.5966 47.1453C67.3203 47.2073 67.0457 47.268 66.7694 47.3299ZM61.675 55.4822C61.6746 55.4828 61.6743 55.4833 61.674 55.4838C61.5519 55.5652 61.4294 55.6468 61.3089 55.7271C61.38 55.867 61.4512 56.0058 61.5223 56.1457C61.1618 56.4781 60.8 56.8126 60.4388 57.1445C60.8179 57.3165 61.2162 56.5623 61.7102 56.3208C61.978 55.6659 61.9555 55.2543 61.6845 55.0291C61.6813 55.1796 61.6791 55.3303 61.675 55.4822ZM25.0241 2.06922C24.8656 1.955 24.7092 1.84069 24.5508 1.72647C24.7614 1.67434 24.9704 1.63455 25.1828 1.57413C25.7382 2.07083 25.7904 1.63147 26.5181 1.66202C28.7489 1.7564 28.157 2.52786 30.1716 1.39787C28.5542 1.45162 29.1757 0.920665 28.2006 0.511684C27.9986 0.822989 28.9649 1.52509 28.3101 1.67081C27.1818 1.34134 26.0968 1.03449 24.845 0.821727C24.8815 0.767919 24.9179 0.713921 24.9545 0.660114C25.153 0.694059 25.3499 0.728214 25.5484 0.76216C25.3342 0.618098 25.1248 0.475281 24.9071 0.329564C25.1823 0.656562 24.4811 0.473849 24.5749 0.849558C24.6167 1.0168 24.9266 1.24882 25.1094 1.40861C24.6376 1.49553 24.1537 1.57514 23.6766 1.65958C23.9238 1.79282 24.1708 1.92621 24.4162 2.05946C24.6181 2.0636 24.8185 2.06655 25.0204 2.07069C25.0216 2.0702 25.0228 2.06971 25.0241 2.06922ZM40.5209 74.1985C39.8728 73.6821 38.7191 73.2329 37.904 73.3186C38.741 73.7103 39.6196 74.0052 40.5209 74.1985ZM61.4655 54.8366C61.4851 54.9293 61.5052 55.0198 61.5248 55.1125C61.7885 54.9251 62.0525 54.7357 62.3163 54.5483C62.1855 54.3975 62.0554 54.2455 61.9263 54.0937C61.7728 54.3406 61.619 54.5896 61.4655 54.8366ZM71.8975 38.7649C71.7705 38.9438 71.7654 38.9636 71.6425 39.2087C71.6425 39.2083 71.6425 39.208 71.6426 39.2076C71.5933 39.3044 71.2034 40.1287 71.3817 40.1222C71.6242 39.744 71.8786 39.3378 72.1246 38.9494C72.0502 38.8858 71.9707 38.8319 71.8975 38.7649ZM69.1402 43.2787C69.1401 43.2794 69.1401 43.2801 69.14 43.2808C69.0714 43.4309 69.027 43.5861 68.9437 43.7331C69.4645 43.3438 69.1647 43.0403 69.5594 42.6369C69.9548 42.234 70.331 42.0685 70.1006 41.3682C69.9354 41.4697 69.732 41.5628 69.5521 41.6612C69.3251 42.4449 69.0312 42.5086 68.5054 42.9195C68.7175 43.0394 68.9281 43.1588 69.1402 43.2787ZM34.9554 0.917425C35.1052 1.1989 35.2722 0.922707 35.2895 0.919378C35.2892 0.919053 35.2889 0.918727 35.2886 0.918402C36.615 1.17908 35.116 0.762594 36.3678 0.718705C36.1816 0.648354 35.9984 0.57407 35.8138 0.502895C35.5283 0.638638 35.234 0.79245 34.9554 0.917425ZM78.567 1.61519C78.6089 1.54332 78.6539 1.47242 78.6964 1.40082C77.8512 1.11727 77.6946 0.74845 76.8957 0.875076C77.4774 1.08039 78.0368 1.32881 78.5666 1.61611C78.5667 1.6158 78.5669 1.6155 78.567 1.61519ZM73.4229 35.2427C72.8443 35.8636 72.4559 36.348 72.2371 37.1576C72.237 37.1583 72.237 37.159 72.2369 37.1597C72.2251 37.2069 72.4895 37.11 72.4938 37.184C72.3837 37.3099 72.259 37.433 72.1438 37.5577C72.2477 37.6503 72.3521 37.742 72.4553 37.8341C72.674 37.4162 72.8929 36.998 73.1125 36.5785C73.1431 36.6803 73.1722 36.7832 73.2028 36.885C73.452 36.5689 73.7003 36.2539 73.9496 35.9377C73.6849 35.9349 73.4203 35.9318 73.1558 35.9271C73.2445 35.6989 73.3349 35.4713 73.4229 35.2427ZM65.53 1.78799C65.6623 1.69857 65.4173 1.5486 65.6228 1.4716C65.8283 1.39557 66.2071 1.56244 66.1183 1.30998C65.8416 1.27606 65.5511 1.23717 65.2692 1.20159C66.1764 0.746353 67.0816 1.15829 67.0955 0.596152C66.2248 0.741865 65.5089 0.674171 64.666 0.518519C64.7008 0.964735 65.5439 1.35054 65.0131 1.76943C65.1836 1.77523 65.3628 1.7837 65.5281 1.78701C65.5287 1.78734 65.5294 1.78766 65.53 1.78799ZM50.2176 62.1374C49.9705 62.591 49.1846 63.4913 49.0557 64.1806C49.0241 64.3502 49.4396 65.2453 49.5334 65.3015C49.8531 65.4854 50.2443 64.9615 50.0735 65.6799C50.2013 65.4828 50.3349 65.2976 50.4653 65.1042C50.6521 65.272 50.8384 65.4392 51.0254 65.605C50.842 65.8249 50.6583 66.0449 50.4742 66.2644C50.536 66.32 50.598 66.3757 50.6598 66.4313C51.2072 65.5701 51.1522 66.2483 51.6844 65.9588C51.5494 66.4504 51.4119 66.9446 51.2779 67.4347C51.4125 67.1881 51.5781 66.9014 51.6922 66.681C52.0645 66.8777 51.6643 67.3225 51.6759 67.4495C51.7426 68.1658 53.1064 65.598 53.7494 65.7245C53.5589 66.152 53.3548 66.598 53.1581 67.0339C53.2944 66.9595 53.4317 66.8836 53.568 66.8092C53.787 65.6761 54.3056 64.5785 54.7538 63.3805C54.829 63.2942 54.9047 63.2081 54.9783 63.1228C55.1207 63.2522 55.2634 63.3797 55.4059 63.509C55.5161 63.3768 55.6273 63.2427 55.7375 63.1105C54.9409 63.2016 55.3209 62.6175 55.4493 61.7031C55.0245 61.9638 54.8415 62.5013 54.5166 62.2504C55.604 61.1212 56.191 59.364 57.2904 58.2919C57.563 58.0256 58.0078 58.3087 58.4333 57.546C58.3685 57.54 58.2774 57.4883 58.2028 57.4638C59.2231 56.3249 59.8402 55.6327 60.4614 54.1709C60.573 54.3487 60.6861 54.5258 60.7978 54.7036C60.5401 54.9341 60.2808 55.1643 60.024 55.3933C60.1673 55.7519 60.4629 55.5433 59.929 56.38C59.4917 57.0657 59.6341 56.5828 59.4374 56.72C59.1702 56.9052 59.2399 57.2605 58.9481 57.4569C58.7232 57.6092 58.6492 57.2435 58.3569 57.8272C58.7792 57.7855 59.2136 57.7452 59.6404 57.7043C59.6615 57.5301 59.6811 57.3563 59.7015 57.1817C59.5402 57.2692 59.3814 57.355 59.2202 57.4425C59.6577 57.0518 60.071 56.6825 60.5237 56.2788C60.0136 56.1804 60.4894 55.7681 60.7129 55.522C61.0612 55.139 60.5463 55.3301 60.7721 55.0773C60.9986 54.825 61.5056 54.7193 61.7618 54.1663C61.4066 54.3247 61.4793 53.8493 61.2659 53.8149C61.0525 53.7807 60.6733 54.2971 60.8187 53.6623C61.5897 52.7531 61.5433 54.2402 62.0735 53.6322C62.7105 52.902 61.7906 52.0495 61.4139 52.1488C61.1174 52.2269 60.7392 52.9024 60.4425 52.9825C60.8665 51.6122 61.4984 51.9983 61.7475 51.8757C62.6533 51.4312 61.1551 51.1662 62.1302 50.5781C61.8976 50.4534 61.6893 50.3398 61.4658 50.2209C61.6004 50.0981 61.7168 50.0337 61.8626 49.8746C61.9607 50.6781 62.2164 50.2333 62.3579 50.0115C62.5811 49.6623 62.4498 50.3369 62.5631 50.2788C62.8675 50.1212 63.0517 49.6837 63.0889 50.0473C63.069 49.8821 63.0547 49.7077 63.0374 49.5401C63.4072 49.2011 64.9442 48.8276 64.1772 49.6239C64.5761 49.7569 64.5978 49.356 64.6917 49.0918C64.7855 48.8277 65.0024 48.9711 65.0904 48.7424C65.4397 47.8321 64.7294 48.1224 64.3539 48.0639C65.2323 47.1258 64.7051 48.2549 65.8143 46.804C66.1483 46.8073 65.9545 47.6796 66.4675 47.176C66.1198 46.8031 66.0962 46.178 66.4953 45.2416C66.6433 45.2199 66.792 45.199 66.94 45.1773C66.8489 44.4702 66.2988 44.4537 67.3191 43.8981C66.1497 43.8026 66.9117 43.8417 67.0408 42.8475C67.0675 42.6459 66.6572 42.8909 66.7027 42.6147C66.7236 42.4896 67.0129 42.3371 67.0594 42.0288C67.0815 41.8779 67.0916 41.1133 67.4936 40.8341C67.7419 41.383 68.5622 40.8882 68.5208 41.7318C69.1609 40.5294 69.8737 39.8557 68.4795 40.7742C68.5353 40.4014 68.5918 40.0286 68.6483 39.6563C68.8783 39.5175 69.1086 39.3765 69.3389 39.2358C69.0089 38.9835 68.8912 38.9524 69.4593 38.1916C69.157 38.4864 68.8542 38.7788 68.5503 39.0746C68.4723 39.0417 68.3682 39.0437 68.3071 38.9887C68.7117 38.6469 69.5307 37.4817 69.8082 37.2493C70.0858 37.0169 69.7549 37.5956 69.8983 37.5689C71.0848 37.3415 70.501 37.0493 70.9462 36.6289C71.2081 36.3825 70.8452 37.137 70.9771 36.9999C71.4647 36.491 71.2407 35.9698 71.5635 35.449C71.6715 35.775 71.7839 36.1018 71.8968 36.4247C72.2288 35.8743 72.6101 35.2679 73.0017 34.809C73.1553 34.6287 73.2275 34.8841 73.2591 34.8589C73.4181 34.7347 73.9227 34.1391 73.9672 34.0704C74.2982 33.5508 74.0764 33.3895 74.3841 32.8757C74.2388 33.0618 74.1029 33.2374 73.961 33.4195C73.5303 33.2704 73.0984 33.123 72.667 32.9733C72.9537 32.4604 73.2411 31.9476 73.5287 31.4331C73.4237 31.8757 73.3174 32.3193 73.2124 32.7619C73.8749 32.3859 74.5381 32.0103 75.2014 31.6347C75.2026 31.2212 75.2032 30.8089 75.2044 30.3954C75.7621 29.6234 76.4149 30.2635 75.9947 29.4635C76.2005 29.2622 76.4064 29.0608 76.6116 28.859C76.4958 28.8331 76.38 28.8066 76.2642 28.7807C76.503 28.532 76.7414 28.2833 76.9809 28.0351C77.1251 28.5469 77.2906 29.0639 77.4269 29.5666C77.8552 29.051 77.5785 28.8605 77.5608 28.732C77.514 28.3911 78.0462 28.1103 77.9845 27.8239C77.9628 27.7265 77.4275 28.1586 77.3323 27.8326C77.314 27.7691 76.9893 26.5308 77.4699 26.1764C77.6077 26.2761 77.7605 26.4238 77.9043 26.5417C78.392 25.9645 77.8478 25.1679 77.5849 25.1189C77.9451 24.875 78.2693 24.3904 78.5425 24.4666C78.6571 24.298 78.7706 24.1306 78.8852 23.962C78.2129 23.7874 78.7698 23.1343 79.2801 23.3915C79.1047 23.6948 78.9297 23.9987 78.7543 24.302C79.4848 24.4514 79.2711 25.5751 79.9099 23.3599C79.83 22.8083 79.5492 24.0217 79.5042 23.5851C79.6912 22.9945 80.1039 22.5903 80.1952 21.9741C80.3079 21.2068 79.5851 21.7809 80.8077 20.6012C79.709 24.2156 81.649 20.5429 82.8278 19.2652C82.5641 18.8486 82.5208 18.3395 82.6716 17.7674C82.848 17.0759 83.236 16.3107 83.7019 15.3515C83.9115 15.6259 83.5705 16.161 83.5057 16.5182C83.44 16.8812 83.756 16.5947 83.6754 17.0616C83.624 17.3391 83.4936 17.7754 83.3472 18.1954C83.2542 18.4771 83.1732 18.7495 83.1408 18.9516C83.2577 18.8682 83.493 18.6454 83.7076 18.4236C84.1435 17.9509 84.4603 17.4743 83.7701 18.104C84.0345 17.0889 83.9823 16.5696 84.29 15.4255C84.7922 15.1969 85.0988 15.2966 85.3098 14.0707C84.6173 14.678 84.3856 13.3055 83.7277 13.5376C83.7773 14.2993 84.4286 13.9663 84.6331 14.482C84.6582 14.5408 84.3381 15.255 84.29 15.4255C83.9809 14.5301 83.7967 14.3045 83.0864 14.5625C83.2486 14.114 83.2021 13.8124 83.5138 13.8096C83.3956 13.6908 83.275 13.576 83.1522 13.4678C83.1708 13.3186 83.1938 13.1835 83.1995 13.023C83.6491 13.2713 83.3938 12.8246 83.5978 12.5079C83.796 12.1805 84.1983 12.6182 84.1358 11.6881C84.2731 11.9873 84.38 12.2708 84.4835 12.5807C84.6017 11.9614 84.6612 11.3161 84.6572 10.6638C85.0336 11.039 85.5394 12.0323 85.9019 11.9962C85.7604 11.6804 85.8521 10.5466 85.8247 10.4188C85.7662 9.94138 85.5881 10.2477 85.5756 10.2129C85.3096 9.52003 85.1823 8.92141 84.7538 8.78991C84.7147 8.2303 84.4626 7.88767 84.205 7.38102C84.0599 7.10304 84.3153 7.02786 84.1787 6.88994C83.2075 6.01938 83.7197 7.16813 82.6962 4.92955C83.0274 5.02007 83.3601 5.12207 83.6934 5.24751C83.5709 4.98159 83.4391 4.71955 83.2944 4.45922C83.139 4.33829 82.9828 4.22355 82.823 4.1114C82.5476 4.39437 82.2718 4.67818 81.9957 4.96054C81.846 4.84174 81.693 4.72604 81.5382 4.61631C81.7533 4.86111 81.9572 5.11591 82.1467 5.37674C82.1158 5.44551 82.083 5.51255 82.0512 5.58064C81.6567 5.30917 81.2495 5.07148 80.8325 4.86553C80.9137 4.75438 80.9953 4.64234 81.0759 4.53074C80.1189 4.02316 80.0675 4.13266 79.3695 3.30536C78.6881 2.94902 78.2881 2.19105 77.8865 1.81144C77.6957 1.83239 77.5072 1.85946 77.3209 1.89032C77.2439 1.75207 77.1616 1.61468 77.0764 1.47791C76.8193 1.58204 76.5746 1.69588 76.3356 1.8161C76.2766 1.4465 76.2224 1.29782 77.1135 1.3592C76.9254 0.828013 75.2748 0.789503 74.652 0.963647C74.5573 0.9846 74.5016 1.01684 74.473 1.05449C74.4398 1.10497 74.4481 1.16535 74.473 1.22515C74.5327 1.34946 74.6691 1.47325 74.637 1.49764C74.5999 1.52649 74.5427 1.54484 74.473 1.55649C74.2046 1.60623 73.7308 1.52258 73.6137 1.54337C73.0025 1.65016 72.5742 1.63147 72.0222 1.71426C71.9147 1.73083 71.6143 1.96804 71.5888 1.97548C71.3903 2.01605 70.9003 2.13134 70.8446 2.13465C67.9701 2.31172 71.0415 1.2826 68.3687 1.39103C68.4488 1.25532 68.5224 1.12052 68.6007 0.984805C68.3988 0.97653 68.1948 0.968666 67.9929 0.960392C67.7369 1.07382 68.0466 1.28009 67.5381 1.1137C67.5712 1.28094 67.6045 1.44825 67.6393 1.61466C67.4181 1.52441 67.2049 1.4349 66.9786 1.34465C66.6233 1.92501 65.3264 2.05681 65.4186 2.73814C65.4499 2.96996 66.3694 3.20783 65.8835 3.45539C65.4888 3.50412 65.756 3.22725 65.5949 3.21272C64.4316 3.11171 64.4993 3.4998 64.0238 3.39631C63.949 3.22998 63.8703 3.0604 63.7937 2.89242C63.6144 2.94125 63.4346 2.99008 63.2536 3.0389C63.2118 2.92713 63.1683 2.81524 63.1265 2.70347C63.2954 2.69602 63.4856 2.68846 63.6406 2.68101C63.4245 2.2481 61.4398 2.05364 62.1966 2.42272C62.5048 2.57256 63.0693 2.5089 62.7126 3.02035C62.1815 2.94667 61.5789 2.87138 61.0199 2.7977C61.0025 2.90782 60.9863 3.01814 60.9689 3.12825C60.2156 3.05697 60.9007 2.6167 60.8993 2.38073C60.727 2.37411 60.5529 2.36831 60.3805 2.36169C60.3075 2.46838 60.2381 2.58006 60.1615 2.68345C60.1545 2.51366 60.058 2.11899 59.5444 2.2655C59.2142 2.36086 59.7342 2.78924 59.1046 2.72984C59.1516 2.46495 59.3791 2.14233 58.6777 2.05702C58.608 2.33348 58.5117 2.58675 58.4577 2.87729C57.5855 2.61169 57.1885 3.03862 56.1647 2.72984C55.5151 2.53443 54.6254 1.84082 54.2057 2.90951C53.7306 2.93765 53.8814 2.67151 53.7408 2.61168C53.0773 2.32852 52.5838 2.83528 52.4601 2.86508C51.6716 3.05615 51.3181 2.88073 50.6756 3.11995C50.7104 2.92207 50.7294 2.73477 50.7573 2.54186C51.3459 2.83826 51.644 2.82435 52.4694 2.7606C52.1926 2.72086 51.9157 2.68022 51.6389 2.64048C51.6841 2.47991 51.729 2.3193 51.7725 2.15955C54.3254 2.7921 53.7299 1.79271 51.5897 1.57413C51.4051 1.8713 51.2138 2.16769 51.031 2.46569C49.7947 2.01531 49.2129 2.40629 47.8146 2.49987C47.6484 2.51057 47.0429 2.33938 46.7827 2.33093C46.787 2.32979 46.7914 2.32865 46.7957 2.32751C46.6338 2.04688 46.8531 1.91773 46.8792 1.6669C46.7382 1.63545 46.5971 1.60412 46.456 1.57267C46.1411 1.76387 46.2518 1.92091 45.632 1.87539C45.7156 1.68498 45.798 1.49453 45.8816 1.30412C45.2024 1.2975 44.758 1.50438 44.1258 1.41496C44.2321 1.48699 44.337 1.55923 44.4432 1.63126C43.0675 1.81506 44.1623 2.93452 43.1227 2.37731C43.0565 2.47497 42.9921 2.57359 42.926 2.67124C43.3543 2.69525 43.7828 2.71852 44.2094 2.74253C44.2181 2.88074 44.2275 3.01836 44.2344 3.15657C43.7764 3.11517 43.3162 3.07249 42.8582 3.03109C43.1926 3.12382 43.5289 3.21667 43.8632 3.3094C43.3322 3.37562 42.8009 3.44189 42.2699 3.50812C42.8338 2.99988 42.1027 2.93773 42.2402 2.43444C41.2998 2.85338 40.5611 3.40561 39.1036 3.05208C38.8146 2.98166 38.9716 2.62995 38.1514 3.05794C38.3499 2.49834 37.3225 2.23573 37.4545 1.70352C37.74 1.72918 38.0361 1.74532 38.3129 1.77676C37.9977 1.96138 37.9455 2.46926 38.4243 2.61998C39.0355 2.81205 39.927 2.46006 39.8905 3.02377C40.1342 2.99728 40.3609 2.98166 40.5976 2.95932C40.5002 2.81948 40.4047 2.67876 40.309 2.53893C40.9827 2.75816 41.4059 2.68687 41.7298 2.33435C40.9271 2.25322 40.1262 2.17296 39.3235 2.09266C39.4417 2.06868 39.5616 2.04452 39.6798 2.02137C39.0721 1.66122 39.699 1.32009 38.5653 1.24309C38.5723 1.40781 38.5779 1.57264 38.5848 1.73819C38.1721 1.29772 37.0421 1.30011 37.4026 0.793408C37.0613 0.949045 36.9917 1.04748 36.7984 0.774366C35.8981 1.15936 35.3199 1.6462 35.6403 2.22742C35.306 2.13388 34.9715 2.04021 34.639 1.94667C34.8323 1.78774 35.0257 1.62955 35.219 1.47062C34.6374 1.48056 34.0515 1.49032 33.4716 1.49943C33.4159 1.96963 34.5911 1.64208 34.252 2.06239C34.1842 2.14676 33.8712 1.96604 33.789 2.01356C32.9218 2.52767 34.2831 2.15624 34.0274 2.55016C32.7353 2.67186 33.7693 3.33192 31.9896 2.7772C31.9426 2.91295 31.892 3.05143 31.8485 3.18636C31.2307 3.19451 31.2808 2.88787 30.7498 2.82993C30.4172 2.79388 29.9998 3.33232 29.6325 2.96566C29.567 2.89806 30.1849 2.23996 28.8864 2.26892C27.8786 2.29137 28.298 2.75644 27.7533 2.92123C27.2082 3.08599 25.9613 2.44112 25.5939 3.1722C25.8794 3.07537 26.243 3.02313 26.5599 2.94369C26.6887 3.08607 26.8142 3.22692 26.9413 3.36848C26.2169 3.18468 25.468 3.4013 24.9805 3.06185C24.014 3.58097 22.9331 3.09923 23.2256 2.51305C23.5437 2.59756 23.1977 2.85317 23.6395 2.69029C23.6848 2.55368 23.7325 2.41774 23.7778 2.28113C23.0255 2.29769 22.503 2.29385 22.8461 2.7103C22.7294 2.72024 22.6138 2.73015 22.4971 2.74009C22.4763 2.43872 22.4577 2.13623 22.4368 1.83486C22.2975 1.80092 22.1576 1.76725 22.0183 1.7333C21.8634 1.7995 21.7082 1.86647 21.5515 1.93349C21.7622 2.41038 22.1211 2.42613 20.9335 2.69273C20.93 2.52797 20.9249 2.36386 20.9214 2.1991C19.9271 2.40856 19.9009 2.80767 18.6525 2.79282C19.6102 3.36485 20.1343 2.35085 20.1308 3.49835C20.3711 3.42301 20.6134 3.34665 20.8537 3.27131C20.8902 3.43773 20.9265 3.60438 20.9613 3.7708C19.671 3.68302 17.5277 2.58858 16.6638 3.31428C16.5593 3.22572 16.4545 3.14874 16.3483 3.05355C15.5019 3.49153 15.1365 2.50823 14.2779 3.07454C14.1894 3.13398 14.3747 4.0578 13.2571 4.02469C13.285 3.90462 13.2995 3.70254 13.3221 3.55108C13.0801 3.62474 12.8394 3.70183 12.5992 3.77715C12.5557 3.66625 12.51 3.55539 12.4665 3.44367C12.8792 3.40061 13.2908 3.35684 13.7035 3.31379C13.3606 3.27572 13.0154 3.23761 12.6725 3.19954C13.1199 3.01828 13.3217 3.01636 13.0521 2.72593C12.6637 2.70854 12.2748 2.6901 11.8865 2.67271C11.8465 2.59829 11.8068 2.52301 11.7668 2.4486C11.9548 2.22673 12.1448 2.00975 12.3329 1.78457C12.0772 1.83038 11.8301 1.86524 11.5909 1.8988C10.8359 1.99802 10.169 2.16146 9.64402 2.59239C9.5264 2.69456 10.0446 2.86926 9.1066 2.81437C9.12993 2.96631 9.13715 3.09268 9.1575 3.23355C8.01732 3.10494 7.64952 3.38471 6.83002 4.1809C7.32722 3.58154 6.84824 4.04946 6.60975 4.01256C6.44296 3.98445 6.89128 3.74819 6.7895 3.67912C6.69155 3.60131 5.86071 3.56668 6.35402 3.21945C8.04252 3.38134 7.98801 2.18249 9.95824 2.25493C9.6558 2.1814 9.3508 2.11955 9.03293 2.0735C9.14987 1.96324 9.25925 1.86467 9.39157 1.75155C8.36466 2.16426 8.86459 1.93665 8.38736 1.91795C7.91036 1.90474 7.07768 2.08959 6.54946 2.31338C6.38463 2.38254 6.64128 2.47997 6.29963 2.68077C6.06968 2.81041 5.26761 2.94764 5.33135 3.34744C5.3923 3.59431 6.63097 3.51246 5.40746 4.37426C5.32442 4.72432 5.8475 4.24306 5.87871 4.26219C6.1279 4.41649 5.55061 5.08075 5.11981 5.19999C5.08139 5.20966 5.18868 4.83179 4.86441 5.00642C4.09338 5.43763 3.93581 6.00992 3.87358 6.62795C3.54086 6.42767 2.69454 6.7509 2.37793 7.64872C2.25788 7.63807 2.13759 7.6264 2.01599 7.61824C2.13615 7.51396 2.25713 7.41282 2.38022 7.31551C2.39844 7.14311 2.44229 6.97178 2.45724 6.79462C1.8786 7.55937 1.3592 7.4601 0.969725 7.82728C-0.297439 9.17053 1.42139 8.68125 1.73976 8.53624C1.72571 8.31207 1.70564 8.08655 1.70106 7.85625C1.81292 7.93513 1.92602 8.01399 2.04025 8.09012C1.16853 10.2086 2.69244 8.73827 2.56868 9.83804C1.85809 9.88667 1.54298 10.7334 1.87902 11.7862C1.86624 11.8973 1.8578 12.0097 1.8481 12.1211C1.7505 12.1349 1.60268 12.1275 1.53753 12.1559C1.39382 13.4386 2.5015 13.546 2.59547 13.6336C3.07558 14.0385 2.57089 14.4905 2.60003 14.6403C2.72576 15.2327 3.03017 15.3131 3.12388 15.8761C3.24508 16.4865 2.89866 16.1818 2.80816 16.4303C2.73679 16.6321 2.94211 17.106 2.91943 17.3644C2.98477 17.2309 3.04553 17.0915 3.1155 16.9609C3.31552 17.1855 3.5084 17.3735 3.70487 17.5694C3.96647 17.8352 4.21754 18.1172 4.47345 18.4786C4.19423 19.7067 5.87115 19.5389 4.67506 19.9338C4.20559 19.3489 3.86497 19.0713 3.38859 18.901C3.61681 19.3356 3.84611 19.7699 4.07434 20.2045C4.264 20.2533 4.42863 20.269 4.63437 20.3386C4.58947 20.7998 5.14627 21.4505 5.25377 21.7763C5.75693 23.3025 5.08862 23.1551 6.53947 23.9202C6.05798 23.0114 6.39376 22.8006 5.80348 21.9708C6.16009 22.0046 6.38705 22.4726 6.4949 22.0085C6.95069 22.8843 6.52449 22.7778 6.50207 23.2452C6.48284 23.6483 6.82772 24.2171 6.55298 24.3466C6.72936 24.3154 6.89304 24.274 7.06914 24.2427C7.40872 24.7819 7.74961 25.3202 8.08919 25.8594C8.09 25.5374 8.09113 25.2153 8.09125 24.8937C8.25631 25.0321 8.42131 25.171 8.58637 25.3094C8.97039 26.9214 11.2498 28.6768 9.8767 29.0355C10.2447 29.6969 10.4385 29.6861 10.8745 29.8963C10.812 29.9895 10.7635 30.0723 10.6912 30.1717C11.0428 30.526 10.9175 31.0484 11.2323 31.3581C11.5463 31.6682 11.9109 31.5636 11.4277 31.9439C11.725 32.0854 11.9964 32.2414 12.2823 32.388C12.2542 32.6035 12.2275 32.818 12.1992 33.0316C12.4005 33.2132 12.6019 33.3955 12.8032 33.5772C12.6312 33.8514 13.2871 34.6516 13.3637 35.1391C13.8596 35.3337 14.6906 34.7934 15.0816 35.7426C14.86 35.8521 14.6391 35.9615 14.4175 36.071C14.5847 36.2391 14.7521 36.4078 14.9203 36.5774C14.9955 36.5462 15.0698 36.5135 15.145 36.4823C15.0607 36.3956 14.9773 36.3102 14.8923 36.2239C15.062 36.238 15.23 36.2507 15.3988 36.2634C15.418 36.6696 15.4374 37.0762 15.4575 37.4839C15.0727 37.161 14.6876 36.8379 14.3028 36.5149C14.4718 37.119 14.8476 37.376 14.9572 37.925C15.4871 38.1273 15.5625 37.8808 15.7749 37.5279C15.8387 37.6873 15.9045 37.8479 15.9683 38.0074C16.2198 37.7162 16.5581 37.84 16.0047 37.022C16.1298 37.0231 16.2515 37.028 16.3791 37.0254C16.4518 37.1711 16.583 37.2123 16.6438 37.384C16.8091 37.8523 16.4611 38.5121 16.2518 38.6055C16.1418 38.654 16.0784 38.1292 15.9467 38.2352C15.6259 38.4943 16.3672 39.321 15.1745 38.2069C15.2347 38.7893 15.4635 38.783 15.8365 39.231C15.697 39.2659 15.5589 39.3013 15.4203 39.3376C15.6168 39.5304 15.8134 39.7237 16.01 39.9165C16.403 39.2264 17.6831 40.7552 17.2493 38.9239C17.5572 39.3512 17.8643 39.777 18.1727 40.202C18.1758 40.0723 18.1782 39.9429 18.1813 39.8132C18.0224 39.6335 17.8648 39.4547 17.7067 39.2746C17.9669 39.4395 18.2267 39.6052 18.4869 39.7701C18.7014 40.4134 18.6275 40.7656 18.5271 41.1858C17.9263 40.6596 18.321 40.7059 18.0534 40.1688C17.8989 40.2913 17.7318 40.3646 17.5857 40.5189C18.0939 40.5621 18.3826 41.5702 18.4907 41.7779C18.8197 42.4101 18.8589 41.7261 19.1201 42.1229C19.3815 42.5201 19.4809 43.1209 20.023 43.2372C19.8319 43.35 19.6214 43.4466 19.4359 43.5311C19.7704 44.1953 19.9127 43.9304 19.9824 43.9769C21.1079 44.7111 21.0649 45.5235 21.7649 46.7354C21.6118 46.6222 21.4634 46.5038 21.3129 46.3868C21.4796 47.53 21.2211 46.8525 20.5995 46.162C21.0988 46.862 21.023 47.492 21.2466 48.0678C21.4703 48.6433 22.2004 49.411 22.5392 49.6459C22.2925 48.7736 21.647 48.073 21.1909 47.2198C21.4405 47.1916 21.6591 47.1793 21.9294 47.142C21.8428 47.8915 22.2926 48.0091 22.4492 48.1387C22.9088 48.5194 22.5554 48.7222 23.1088 48.7776C22.9741 48.8465 22.8616 48.9056 22.7353 48.9691C23.4156 49.9255 24.317 50.8509 24.2552 51.7929C24.5981 51.6582 24.9207 51.5161 25.2754 51.3862C25.3109 51.9511 25.7739 52.1609 25.9437 52.548C26.1126 52.9337 25.7808 52.9563 25.9475 53.4299C25.9785 53.5175 26.234 53.5789 26.2392 53.8394C26.2451 54.1021 25.8371 55.3431 26.6346 54.9554C26.8627 55.3077 27.1024 55.626 27.3349 55.9652C27.1626 55.6003 26.9888 55.2361 26.8174 54.8726C27.1805 55.0466 27.5419 55.2192 27.9049 55.3932C27.7673 55.5319 27.6269 55.6725 27.4905 55.8084C27.7867 56.7092 28.4067 57.1063 28.8412 57.9298C28.9136 58.0674 28.3999 57.9599 28.8489 58.4895C29.2981 59.0192 30.1649 59.0744 30.5626 60.2096C30.5824 60.2671 30.3135 60.8482 30.8528 61.0034C30.9752 61.0389 30.8657 60.6325 31.0767 60.7583C31.2878 60.8843 31.8888 61.6626 32.1529 61.586C32.0683 61.6272 31.9537 61.6275 31.8575 61.6534C31.9091 61.8185 31.9617 61.985 32.015 62.1512C32.1625 62.0763 32.311 62.0023 32.4578 61.9278C32.6484 62.9449 32.3859 63.6992 33.3229 64.7918C32.9065 64.5815 32.4891 64.3715 32.0737 64.1627C32.1569 63.9801 32.2411 63.7967 32.3253 63.6155C31.9174 63.0969 31.5089 62.5765 31.101 62.0578C31.2048 61.8643 31.3092 61.6726 31.413 61.479C31.2988 61.3453 31.1863 61.2125 31.0721 61.0787C30.9786 61.1895 30.8859 61.3001 30.7933 61.4124C30.6376 61.103 30.4821 60.7929 30.3273 60.4849C30.0115 61.5115 31.4294 62.0951 30.8043 62.3841C30.9767 62.4583 31.1498 62.5323 31.3229 62.606C31.0796 62.8406 31.3286 63.0557 31.6698 63.4969C31.464 63.4767 31.253 63.4442 31.0514 63.4338C31.5347 63.7667 32.0282 64.5877 32.4021 65.0125C32.5664 65.1991 32.6379 64.8635 32.7008 64.9101C33.0256 65.1475 33.0548 65.9761 33.1629 66.0849C33.7043 66.6307 34.4823 66.7655 34.7668 67.4468C34.8208 67.5767 34.8587 67.7251 34.8785 67.9015C34.7399 67.7483 34.6473 67.6386 34.5816 67.5641C34.3289 67.2782 34.4723 67.5287 34.1245 67.4114C33.9874 67.3653 33.1299 66.3666 34.074 67.6994C34.0864 67.7167 34.1227 67.7594 34.1773 67.8202C34.5947 68.4043 36.4944 69.7149 36.169 68.8251C36.3893 69.248 36.5549 69.6085 36.8041 69.9934C38.2956 69.7381 37.4117 70.3596 36.8107 70.6374C36.9567 70.7485 37.0975 70.8544 37.2559 70.9591C37.2682 70.2721 38.9102 71.2377 39.4618 71.7058C39.643 71.881 38.9671 71.8346 39.4414 72.108C39.6989 72.156 39.9928 72.1919 40.2649 72.217C39.7782 72.478 40.4981 72.8268 40.4084 73.1975C41.0161 72.9849 41.486 72.3086 41.2982 71.8769C41.6475 72.1017 42.0209 72.3079 42.4122 72.4927C42.2207 72.5734 42.0221 72.6479 41.8215 72.7176C43.15 72.6645 44.9577 72.9501 45.065 72.0786C45.2327 72.0504 45.402 72.0167 45.5683 71.9801C45.6534 72.1002 45.7388 72.22 45.8279 72.3382C46.5708 72.0121 47.2614 71.6041 47.8862 71.1294C47.231 71.3753 47.0166 71.2584 46.4043 71.655C46.6122 71.4139 46.8061 71.1643 46.9766 70.9141C48.0718 70.8461 48.4349 71.0326 49.6294 69.9027C49.7034 69.8557 50.3134 68.7459 50.2936 68.6884C50.2958 68.4451 49.9391 68.5011 49.9328 68.3867C49.9455 68.0688 50.2182 66.7205 50.1108 66.6958C49.5835 66.5541 48.815 67.2645 47.9271 67.8408C47.0541 68.4393 46.0362 68.8956 45.5763 69.0257C42.3677 70.0268 38.7755 68.7505 37.0658 65.9906C32.2528 58.483 27.2571 51.1571 22.5361 43.5458C22.4635 43.4275 22.6264 43.396 22.6004 43.3425C22.4366 43.0114 22.0401 42.8354 21.9591 42.726C21.7865 42.4918 22.0599 42.5078 21.9466 42.3286C20.7722 40.4792 19.5555 38.8028 18.4145 36.9302C18.3402 36.8083 18.2678 37.0267 18.1602 36.798C18.1055 36.6794 18.1194 36.191 17.9665 35.9419C17.4324 35.0724 16.8997 34.3951 16.3274 33.4837C16.0145 32.9851 15.5224 32.2516 15.1737 31.6934C15.0197 31.4469 14.9631 31.1243 14.813 30.8794C14.5998 30.5321 14.4304 30.7379 14.3836 30.6933C14.1783 30.4977 14.3928 30.3168 14.2474 30.0996C13.9762 29.6963 13.8055 29.7735 13.4889 29.2443C13.2629 28.8659 12.8471 27.9357 12.5862 27.4433C11.7093 26.4611 10.9055 25.0324 10.3171 23.9704C9.96885 23.3418 9.71377 23.4246 9.55793 23.177C9.0106 22.3035 8.87235 21.4651 8.36339 20.6415C7.6877 19.5486 6.89303 18.704 6.21359 17.6609C6.10347 17.4917 6.3294 17.4034 6.22858 17.2329C6.06103 16.9496 5.87503 16.6293 5.68671 16.3141C5.52092 16.0309 5.37732 15.7529 5.25163 15.5315C5.00639 15.0875 4.61203 15.0208 4.53212 14.5004C4.51218 14.3473 4.7928 14.2302 4.77987 13.9892C4.75909 13.607 4.44882 13.2214 4.40644 12.9388C4.35534 12.5606 4.66445 12.8803 4.62902 12.3834C4.62792 12.3635 4.40959 12.2798 4.42689 12.1691C4.48171 11.8496 4.6448 11.9001 4.69875 11.4446C4.69633 11.4044 4.62546 10.7525 4.64951 10.6887C4.73404 10.3312 4.94728 9.60416 5.09285 9.42747C5.60128 8.79885 5.57647 9.52871 5.30738 8.57265C5.61939 8.41019 5.9353 8.278 6.2577 8.15478C5.99653 8.21156 6.37193 7.42325 6.43801 7.39523C6.87749 7.13914 6.84789 7.53761 7.27308 7.11959C6.2347 7.13227 7.84241 6.54187 8.1572 6.44195C9.25033 5.89956 10.3472 5.5557 11.5909 5.5105C12.2134 5.49569 12.8439 5.48494 13.491 5.48605C14.3007 5.48774 15.3858 5.6246 16.2425 5.62129C16.4422 5.6211 16.2913 5.46787 16.4671 5.46456C16.6424 5.46229 16.4479 5.6343 16.648 5.6252C17.8931 5.56557 18.8686 5.24101 20.0092 5.64668C20.0647 5.58803 20.063 5.54168 20.1549 5.47726C21.0883 5.84069 22.8859 5.35195 23.5616 5.28488C24.6183 5.18063 24.8883 5.42628 25.656 5.37668C26.6713 5.31044 28.1955 4.83053 27.5148 5.62276C28.2112 5.64759 28.8817 5.65444 29.5851 5.58077C29.6635 5.57242 29.6095 5.37105 29.6408 5.36691C29.8393 5.338 29.9039 5.51829 30.038 5.52657C30.4015 5.54884 29.8083 5.33297 30.3266 5.39328C30.6 5.42557 30.7553 5.58281 31.5144 5.58614C36.0909 5.60353 41.0593 5.54721 45.7508 5.52071C46.0729 5.51906 45.8608 5.71379 46.2649 5.70137C47.6684 5.65828 50.1808 5.33056 51.3911 5.37521C52.6013 5.41992 52.3283 5.70468 53.0856 5.82392C53.2319 5.8471 53.1119 5.68481 53.2443 5.68233C54.1342 5.66741 55.195 5.41427 55.916 5.37619C56.3927 5.35067 56.3546 5.60599 56.6853 5.62422C57.1781 5.65072 57.6853 5.39277 57.9483 5.38449C59.1845 5.34812 60.0344 5.55588 61.1888 5.44992C61.1437 5.5061 61.1138 5.55812 61.0756 5.61348C62.4425 5.60437 63.8076 5.59525 65.1745 5.58614C65.1101 5.63747 65.0478 5.68924 64.9834 5.7414C66.5871 5.71323 66.4041 5.15688 66.2631 6.33171C66.3797 6.3731 66.5034 6.42107 66.6148 6.45914C66.5695 5.85396 67.5397 5.41108 68.7742 5.25705C68.8648 5.24546 69.4724 5.83553 69.4062 5.13841C69.5647 5.30896 69.6591 5.42652 69.7932 5.57637C70.0543 5.36531 70.319 5.15675 70.5801 4.94652C70.7211 4.97797 70.8641 5.00833 71.0051 5.03978C71.026 5.17639 71.01 5.31823 71.0552 5.45236C71.7099 5.47305 73.0527 5.30417 73.5701 5.3215C73.8712 5.33178 74.1736 5.35993 74.473 5.39188C75.2028 5.49645 75.8085 5.74045 76.4137 5.58827C76.7364 5.72415 76.3375 5.87845 76.8214 6.00246C76.9192 5.89298 77.0155 5.78957 77.1235 5.68098C77.2961 6.40387 77.4937 6.07841 78.0753 6.25304C78.4623 6.3781 78.5973 6.64931 78.9094 6.85476C78.9885 6.90775 79.0895 6.76083 79.1378 6.80753C79.3094 6.96194 79.5943 7.5744 79.6849 7.69249C80.5712 8.76122 81.1452 9.84271 81.496 11.1219C81.5315 11.2595 81.3226 11.1162 81.3587 11.2564C81.4133 11.4817 81.6539 11.2995 81.6906 11.4341C81.7822 11.8159 81.5073 11.8534 81.518 12.3708C81.5319 13.6662 81.2842 15.1196 80.5347 16.4139C80.2111 16.9635 79.8867 17.5053 79.5607 18.0285C79.5179 18.0962 79.3795 18.0029 79.3315 18.0756C79.021 18.5507 78.904 19.1567 78.6262 19.5907C78.1658 20.3112 77.624 20.7287 77.1728 21.4427C76.2901 22.8377 75.6022 24.148 74.6992 25.5858C73.9605 26.7629 73.2959 27.7706 72.4813 29.0582C68.9226 34.6827 64.841 40.137 61.4931 45.9486C61.4081 46.0966 61.5698 46.1168 61.5366 46.1574C61.2181 46.541 61.0265 46.4719 61.2841 46.8433C60.8777 47.3316 60.507 47.3322 60.1188 47.9869C59.9117 48.3357 60.4833 48.3394 59.905 48.7852C59.3826 49.1876 59.5239 48.4679 58.7675 50.1694C58.7478 50.2146 58.869 50.5755 58.599 50.858C58.3287 51.1423 58.3883 50.6527 57.8387 51.4013C56.549 53.1589 55.2917 55.6213 53.8723 57.7153C53.7833 57.8465 52.8332 59.0512 52.6104 59.2667C52.1788 59.6835 52.0585 59.4631 51.6078 60.074C51.2597 60.5461 51.2116 61.0871 50.8015 61.6416C50.7536 61.7061 50.4656 61.6825 50.2176 62.1374ZM22.499 1.57315C22.3562 1.32208 22.0985 0.397914 21.2351 0.679156C21.1532 0.705647 21.5951 1.34119 21.1182 1.4423C21.5848 1.50936 22.0393 1.53108 22.499 1.57413C22.499 1.57381 22.499 1.57348 22.499 1.57315ZM53.1931 68.4523C53.4996 67.8817 53.8077 67.3094 54.1143 66.7388C53.7813 67.0556 53.4482 67.3731 53.1154 67.688C53.1409 67.9432 53.1676 68.1971 53.1931 68.4523ZM74.009 1.08978C74.0096 1.08978 74.0103 1.08978 74.0109 1.08978C73.3317 0.970557 72.6522 0.851111 71.973 0.731888C72.0444 0.819649 72.116 0.907785 72.1874 0.995546C72.7236 1.13378 73.2601 1.27184 73.7947 1.41008C73.866 1.3033 73.9376 1.19656 74.009 1.08978ZM79.4472 3.24488C79.9007 3.37415 79.889 3.16955 80.2019 3.15637C80.2018 3.15664 80.2016 3.15692 80.2014 3.1572C80.284 3.15396 80.5805 3.29666 80.6877 3.36303C80.5874 3.42804 80.4779 3.48555 80.377 3.55005C81.0856 4.3121 83.4454 5.16139 81.3793 2.95089C81.3347 3.09027 81.2876 3.22717 81.2401 3.36505C80.0689 2.43806 78.486 2.12666 79.4472 3.24488ZM12.2633 1.17278C12.0051 1.0646 11.7886 0.976693 11.5909 0.909728C10.8536 0.705137 10.3019 0.718214 9.19312 1.17443C9.43002 1.25757 9.66234 1.34776 9.88977 1.44463C10.1132 1.27859 10.3403 1.12063 10.5831 0.968302C10.5839 0.968242 10.5846 0.968183 10.5853 0.968123C10.6474 1.1017 10.7079 1.23599 10.7647 1.3706C11.0349 1.32203 11.3102 1.28272 11.5909 1.25321C11.8152 1.2264 12.0394 1.19958 12.2633 1.17278ZM70.2217 39.6269C70.8279 40.3694 70.4281 40.0127 71.0642 39.3916C71.2847 39.1767 71.2629 39.5084 71.385 39.3652C72.0457 38.5926 71.574 38.1986 71.1859 38.2186C70.863 38.6882 70.5386 39.1637 70.2226 39.6253C70.2223 39.6258 70.222 39.6264 70.2217 39.6269ZM56.092 61.5808C56.0917 61.5813 56.0914 61.5818 56.091 61.5824C56.2645 61.7231 56.5319 61.4124 56.4647 61.9113C56.6502 61.6168 56.835 61.3219 57.0214 61.026C56.9491 61.1016 56.8764 61.1795 56.804 61.2551C56.7881 61.1379 56.7715 61.0199 56.7556 60.9026C57.0372 60.9346 56.9735 60.7583 57.0971 60.4038C57.2731 60.6349 57.4496 60.8656 57.6257 61.0967C57.7845 60.6944 57.9438 60.2907 58.1026 59.8884C58.0474 59.8473 57.9922 59.806 57.937 59.7648C58.0968 59.6765 58.2566 59.59 58.4164 59.5016C58.3704 59.421 58.3243 59.3421 58.2783 59.2615C58.4342 59.1315 58.5901 59.0012 58.7467 58.8716C58.6104 58.7157 58.3101 59.0296 58.7567 58.4188C58.4607 58.5054 58.1655 58.592 57.8686 58.6802C57.276 59.6467 56.684 60.6138 56.092 61.5808ZM74.6694 33.1279C73.9691 34.1622 74.2788 33.9422 74.814 33.9389C74.7654 33.6691 74.718 33.3977 74.6694 33.1279ZM48.7742 1.81094C48.4119 1.50377 48.0482 1.19967 47.6773 0.903266C46.9389 0.731882 46.2003 1.29174 46.7558 1.51115C47.4245 1.7744 48.1229 1.47977 48.7742 1.81094ZM31.9571 1.67422C32.8605 1.53179 32.0105 1.1668 31.8068 0.954045C31.5569 1.29599 31.2084 1.26582 30.6486 1.30559C31.1742 1.32776 31.8077 1.69841 31.9571 1.6752C31.9571 1.67487 31.9571 1.67455 31.9571 1.67422ZM63.3121 1.46574C63.6741 1.47492 64.0342 1.56071 64.3579 1.45646C64.2603 1.16275 63.6127 1.42996 64.0758 0.99457C63.8443 0.98712 63.6124 0.979899 63.3826 0.971622C63.5286 1.15202 63.3322 1.28684 63.313 1.46476C63.3127 1.46509 63.3124 1.46541 63.3121 1.46574ZM81.4351 23.0935C81.5216 22.3072 81.7193 22.273 82.3058 21.7973C82.1206 21.5606 81.2633 22.0278 80.8891 22.4235C81.0714 22.6462 81.2537 22.8693 81.4351 23.0935ZM32.6373 67.0407C32.8508 66.7035 32.2171 65.6151 31.7924 65.1439C31.787 65.2354 31.7812 65.3276 31.7751 65.4195C32.0621 65.9593 32.3503 66.501 32.6373 67.0407ZM30.3823 1.33C30.476 1.31943 30.5648 1.31155 30.6486 1.30559C30.5554 1.30166 30.4654 1.3078 30.3823 1.33ZM2.42933 15.7243C2.66177 15.3464 3.02779 16.0958 2.59288 15.1855C2.59319 15.1854 2.5935 15.1853 2.59381 15.1852C2.33003 14.5672 2.27823 14.4223 2.16095 13.8102C1.75425 14.0765 1.82007 15.4672 1.45123 13.6284C1.44903 13.604 1.70939 13.625 1.65003 13.338C1.63294 13.2492 1.39473 12.9728 1.33558 12.5168C1.31658 12.3724 1.27976 11.2606 1.2469 12.7715C0.941495 12.7307 0.634561 12.8193 0.339056 12.8226C0.270183 13.4788 0.912982 13.9096 1.01339 14.5374C1.17043 15.4734 0.792388 16.1519 1.5964 16.0651C1.48742 15.2521 1.27024 13.9557 0.790799 13.8138C0.704668 13.0166 1.10339 12.7962 1.32933 13.3894C1.4791 15.9981 1.88906 13.9995 2.2469 16.1837C2.1537 16.2478 2.07831 16.3779 1.97723 16.4037C2.59794 16.8847 2.33474 15.859 2.42933 15.7243ZM1.26208 10.5339C0.943383 10.9367 0.646286 11.3736 0.380099 11.844C0.76224 11.8696 1.10073 11.6249 1.42017 10.9621C1.36414 10.8224 1.31133 10.6786 1.26208 10.5339ZM18.149 42.7732C18.0084 42.9365 17.9382 43.1788 17.8377 43.3867C18.0554 43.4055 19.8736 45.9644 19.1643 44.5259C19.0614 44.3169 17.9975 43.3186 18.149 42.7732ZM78.533 27.0948C78.6138 26.7089 78.6935 26.3242 78.7734 25.9398C78.3966 26.3707 78.0177 26.8007 77.6395 27.2308C77.9376 27.185 78.235 27.1406 78.533 27.0948ZM42.7645 2.17273C42.9204 2.16499 42.4025 1.88148 43.0169 1.92616C42.5589 1.74485 42.13 1.59137 41.6824 1.42082C41.5484 1.55494 41.4129 1.68853 41.2788 1.82265C41.1743 1.73655 41.0677 1.65096 40.9633 1.56485C41.0259 1.76025 41.0817 1.95108 41.1479 2.14979C41.902 1.73085 42.0749 2.20585 42.7645 2.17273ZM65.1857 2.93686C65.3213 2.51221 64.2294 2.25968 65.3035 2.19178C65.0998 1.91278 64.7722 1.76644 64.1435 1.7416C64.0426 1.8483 63.9419 1.95422 63.841 2.06092C63.8271 1.7754 63.6653 1.66928 63.3121 1.46574C63.3118 1.46606 63.3114 1.46639 63.3111 1.46671C62.3554 1.44604 62.4125 1.54124 62.1827 2.01063C63.1945 1.74569 63.2247 2.17455 63.9143 2.42956C64.388 2.60491 65.0063 2.5255 65.1857 2.93686ZM16.3659 39.9492C16.446 40.7454 15.8199 40.3819 16.8209 41.2505C16.854 41.1326 16.8863 41.0148 16.9195 40.897C16.7357 40.5806 16.5511 40.2647 16.3659 39.9492ZM68.7167 1.48136C68.6348 2.1387 67.9612 2.65039 67.8462 1.58097C68.5027 1.36322 68.1821 1.96899 68.7167 1.48136ZM32.2652 2.70347C33.5276 2.6728 33.2889 1.93088 32.77 1.55997C32.6899 1.69493 32.6099 1.83012 32.5315 1.96425C32.3104 1.90298 32.0892 1.84159 31.868 1.78115C32.0003 2.08831 32.1328 2.39631 32.2652 2.70347ZM84.8295 13.3839C85.3756 12.3936 84.984 14.5136 85.3433 13.8266C85.6522 13.2535 85.1763 12.4607 84.8778 12.7501C84.8667 12.9431 84.852 13.158 84.8296 13.382C84.8296 13.3826 84.8295 13.3833 84.8295 13.3839ZM83.7915 7.72433C84.3096 7.64443 84.0894 7.49057 84.3481 8.27324C84.4553 8.48004 85.1859 10.205 84.5594 9.57848C84.3726 8.95605 84.108 8.31971 83.7915 7.72433ZM17.6725 1.96962C17.6609 2.18804 18.9929 2.66766 19.1638 2.54772C19.1638 2.54804 19.1638 2.54837 19.1638 2.54869C19.6253 2.22166 18.2203 2.17519 18.8297 1.72647C17.4802 2.12132 17.0764 1.16623 17.1705 2.42467C17.9655 2.47988 17.5891 2.22047 17.6725 1.96962ZM47.97 71.3061C47.9706 71.3058 47.9712 71.3055 47.9717 71.3052C47.9044 71.3624 47.3442 71.986 47.4695 72.0458C48.2953 71.5454 48.0215 71.4506 48.9609 71.2764C48.9407 71.1561 48.9153 71.043 48.8949 70.9211C48.5708 71.0566 48.345 71.0425 47.97 71.3061ZM20.3345 45.4006C20.2085 45.0949 19.6905 44.7195 19.5039 44.3987C19.3678 45.8825 20.8389 46.6208 20.3345 45.4006ZM62.6523 51.2822C62.6531 51.2816 62.6538 51.281 62.6546 51.2804C62.654 51.2804 62.6534 51.2804 62.6529 51.2804C62.6527 51.281 62.6525 51.2816 62.6523 51.2822ZM6.37053 24.3743C6.44286 24.3782 6.49886 24.3708 6.54143 24.3539C6.545 24.3517 6.54858 24.3494 6.55215 24.3471C6.49334 24.3575 6.43319 24.367 6.37053 24.3743ZM14.9043 1.9037C14.3496 2.20832 16.1979 2.69261 16.7956 2.57701C16.7538 2.43797 16.7473 2.31193 16.6499 2.15223C16.1675 2.51227 14.9966 1.85237 14.9043 1.9037ZM57.0444 2.01552C55.5833 2.02379 57.4848 3.22655 57.5632 2.26697C57.5602 2.24838 57.0822 2.01715 57.0444 2.01552ZM26.4263 2.02967C26.7985 2.39382 26.0504 2.49052 27.2466 2.4276C27.3162 2.33328 27.3858 2.23874 27.4554 2.14442C27.1124 2.10634 26.7692 2.06775 26.4263 2.02967ZM47.4731 3.59454C45.6342 3.3917 43.8755 3.03386 45.0733 2.02967C45.2125 2.06193 45.3536 2.09312 45.4928 2.12537C45.5137 2.61529 46.0272 2.34786 46.779 2.33191C46.8861 2.52641 47.303 2.57138 47.3812 2.73667C47.5325 3.05617 47.0535 3.2808 47.4731 3.59454ZM67.0725 42.5292C67.1589 42.5489 67.2454 42.5695 67.3312 42.5888C67.5666 42.3936 67.802 42.1975 68.0373 42.0023C67.8766 41.9561 67.7159 41.9101 67.5551 41.8639C67.3942 42.0854 67.2339 42.3058 67.073 42.5274C67.0728 42.528 67.0726 42.5286 67.0725 42.5292ZM2.75812 9.10989C1.84456 8.94668 2.1908 8.37719 3.1797 7.6003C2.99674 8.09737 2.85568 8.60416 2.75812 9.10989ZM76.8382 3.51396C76.9374 3.26942 77.0387 3.02642 77.1453 2.78426C77.6855 3.22078 77.4551 3.47189 77.0943 3.72295C77.0095 3.65183 76.9264 3.58257 76.8382 3.51396ZM82.9459 8.88232C82.7981 8.68447 83.04 8.70943 83.0259 8.68811C82.6567 8.1738 82.5448 8.15314 82.2749 7.42925C82.2703 7.32119 82.2669 7.21221 82.2595 7.10199C82.9147 7.09304 82.8248 7.46894 83.4727 8.01819C83.2399 7.97475 83.0081 7.94033 82.7768 7.91394C83.0169 8.26079 83.2346 8.62392 83.43 9.00356C83.395 9.07198 83.3598 9.13951 83.3235 9.2065C83.2007 9.0946 83.0656 8.98632 82.9459 8.88232ZM65.4738 45.4975C65.2627 45.8709 65.0513 46.2464 64.8403 46.6198C64.7179 46.5609 64.5951 46.5009 64.4727 46.4419C64.8061 46.1276 65.1404 45.8119 65.4738 45.4975ZM2.91943 17.3644C2.89385 17.4169 2.86803 17.4692 2.84002 17.519C2.89049 17.487 2.91266 17.4318 2.91943 17.3644ZM48.5393 70.0854C48.8657 69.7463 49.4193 69.3666 49.762 68.9898C49.9879 69.2688 48.9338 70.0862 48.6414 70.4984C48.5435 70.4907 48.4008 70.2301 48.5393 70.0854ZM34.0117 2.67369C34.1336 2.84256 34.2553 3.01064 34.3754 3.17952C34.6698 3.16131 34.9647 3.14207 35.2607 3.12386C35.2695 3.26212 35.278 3.40159 35.2867 3.53985C33.9826 3.36022 34.2833 3.75892 33.6377 4.15213C33.763 3.6596 33.8863 3.16704 34.0117 2.67369ZM57.4393 56.543C58.0225 55.7972 58.3489 55.6084 58.4151 56.279C58.1568 56.5089 57.8974 56.7405 57.639 56.9705C57.5728 56.8275 57.5065 56.6845 57.4393 56.543ZM12.348 31.6971C12.639 32.446 13.1162 32.1592 13.266 32.9765C12.9585 32.6829 12.65 32.3899 12.3434 32.0977C12.3453 31.965 12.3461 31.8297 12.348 31.6971ZM12.3273 4.51002C12.1579 4.60865 11.9135 4.41825 11.5909 4.29743C11.3288 4.18097 10.9877 4.14114 10.6464 4.51438C10.4438 4.33321 10.3 4.15798 10.1022 3.98914C10.0415 4.21826 9.97729 4.45282 9.93665 4.67987C9.93616 4.67997 9.93568 4.68007 9.93519 4.68017C9.2518 4.7583 9.61605 4.39948 9.55379 4.17697C9.52134 4.08278 9.04006 4.37845 9.14735 4.13468C9.33376 3.69035 10.5123 3.69551 10.4651 3.28092C10.0695 3.45831 9.26161 3.51954 9.43077 3.18674C9.6379 2.80899 10.5003 3.20357 10.9757 2.9206C10.4873 3.47564 11.1442 3.42582 11.5909 3.18289C11.7523 3.09852 11.8854 2.984 11.9301 2.84897C12.6618 3.17813 12.2611 3.35013 11.5909 3.3944C11.4405 3.40499 11.2775 3.41185 11.1126 3.41628C11.6435 3.80317 10.8781 3.61084 10.7868 3.96561C10.9695 4.019 11.2774 4.02566 11.5909 4.0521C12.2815 4.10193 12.9433 4.1506 12.3273 4.51002ZM55.1318 3.75957C54.5047 3.7333 53.5251 3.96613 53.0958 3.62237C52.8458 3.42209 53.8277 3.267 53.1506 2.95248C53.7615 2.98314 53.9009 3.10601 53.7964 3.38166C53.9357 3.41476 54.0767 3.44704 54.2159 3.47931C54.2803 3.42553 54.3464 3.37246 54.4108 3.31867C54.4839 3.43209 54.5575 3.5446 54.6289 3.65801C54.7768 3.63568 54.9264 3.61331 55.0743 3.59014C55.0917 3.64717 55.1213 3.6968 55.1318 3.75957ZM24.4464 50.8293C24.3561 50.6804 24.2666 50.533 24.1769 50.3837C24.2439 50.364 24.3152 50.3459 24.3853 50.3275C24.4398 50.3117 24.4943 50.2958 24.5488 50.28C24.3302 50.299 23.6129 49.7716 23.6017 49.3651C23.5958 49.1608 24.1227 49.3003 23.7789 48.6366C24.0516 49.1027 24.2764 49.5521 24.5302 50.0116C24.5981 49.913 24.6679 49.8153 24.7358 49.7166C24.7361 49.7168 24.7364 49.717 24.7367 49.7172C24.8508 49.851 24.9671 49.9858 25.0812 50.1196C24.8697 50.3566 24.6579 50.5922 24.4464 50.8293ZM76.2707 3.91486C75.799 3.60374 75.6087 3.47811 75.9238 3.16669C75.9244 3.16662 75.925 3.16654 75.9256 3.16647C76.1128 3.35075 76.2858 3.53987 76.448 3.73343C76.3876 3.79319 76.3298 3.85411 76.2707 3.91486ZM6.61434 21.0738C6.16875 22.8505 5.33464 20.0133 6.00621 20.2287C6.03674 20.2382 6.42717 21.0522 6.61434 21.0738ZM32.0332 3.11165C32.3797 3.12242 32.727 3.13214 33.0753 3.1429C32.9952 3.306 32.9132 3.46854 32.8331 3.63165C32.5667 3.45861 32.2996 3.28469 32.0332 3.11165ZM59.1252 52.7555C59.0126 52.2524 59.4021 51.3909 59.9816 51.2163C59.8922 51.4442 59.8028 51.6721 59.7134 51.8999C59.9949 51.5405 60.2776 51.1878 60.559 50.8241C61.0008 51.0751 60.4697 51.3632 60.163 52.1089C60.1163 52.2249 60.2278 53.226 59.6815 53.2012C59.5698 53.1951 59.9612 52.4532 59.4105 52.7923C59.5276 52.5657 59.6492 52.3831 59.7672 52.1735C59.6744 52.0941 59.5814 52.0148 59.4895 51.9339C59.3676 52.2083 59.2471 52.4812 59.1252 52.7555ZM51.4811 3.72002C50.6198 3.74803 50.5134 3.54524 50.3341 3.18684C50.7346 3.22741 51.1353 3.26736 51.5359 3.30793C51.5168 3.44501 51.5002 3.58212 51.4811 3.72002ZM63.1466 46.1896C63.3494 45.7599 63.4877 46.0866 63.6361 45.956C64.1962 45.4616 64.282 44.9366 64.7716 44.4079C64.6989 44.4175 64.6313 44.4258 64.5609 44.4348C64.5612 44.4343 64.5616 44.4338 64.5619 44.4333C66.1498 41.467 65.7655 43.31 64.6002 44.9486C64.6667 45.0463 64.7343 45.1426 64.8 45.2399C64.1591 45.8975 63.5616 46.4999 63.1466 46.1896ZM2.9186 11.6683C2.9842 11.7069 3.43627 11.4824 3.18912 11.9712C2.53257 12.344 2.88832 11.6806 2.67745 11.4756C2.59862 11.6151 2.52452 11.761 2.45275 11.9057C2.36169 10.9794 2.56793 10.8807 2.96153 11.2706C2.98707 11.2964 2.85321 11.6274 2.9186 11.6683ZM4.40801 16.9224C3.66873 17.5187 3.47881 16.3019 3.77849 16.2241C3.85216 16.3521 3.76468 16.5282 3.90229 16.6388C4.041 16.7482 4.24605 16.6765 4.40801 16.9224ZM26.1841 3.95097C26.1475 3.95511 25.7801 4.34518 25.8166 4.03983C26.2711 3.31704 27.1869 3.78228 27.0267 4.03397C26.7238 4.02152 26.5218 3.91306 26.1841 3.95194C26.1841 3.95162 26.1841 3.95129 26.1841 3.95097ZM55.9004 57.4378C55.8878 57.4093 56.2459 56.551 56.4322 56.529C56.6228 56.5343 56.7971 56.5874 56.9796 56.6165C56.5764 56.9589 56.1307 57.8866 55.9014 57.4363C55.9011 57.4368 55.9007 57.4373 55.9004 57.4378Z" fill="#000F55"/>
</svg>
