<svg width="215" height="90" viewBox="0 0 215 90" fill="none" xmlns="http://www.w3.org/2000/svg">
<path d="M59.5679 1.00417C58.2848 0.643407 62.5681 0.879897 59.7238 0.34112C60.317 0.304718 60.9137 0.267175 61.5068 0.230774C61.6572 0.430308 61.8114 0.629355 61.9618 0.828889C61.1653 0.887646 60.3684 0.946393 59.5679 1.00515C59.5679 1.00482 59.5679 1.0045 59.5679 1.00417ZM58.4803 3.50307C59.2103 2.93396 61.5294 2.78222 59.0241 2.25704C58.825 2.45236 58.621 2.64763 58.4218 2.84295C57.552 2.69146 56.6768 2.54002 55.807 2.38936C55.4941 2.46382 55.1817 2.53837 54.8689 2.612C54.4705 2.2726 54.0757 1.93227 53.6774 1.59203C54.0311 1.64171 54.3896 1.69225 54.7432 1.74193C56.1415 1.46631 57.3857 1.39093 59.2841 1.33961C59.1174 1.2593 58.9503 1.17969 58.7836 1.09938C59.747 1.23598 60.7099 1.37292 61.6693 1.50952C60.8361 1.64361 59.9045 1.79273 59.1324 1.9177C60.3681 2.44988 62.5474 2.15369 63.6819 2.0427C65.2267 1.89119 64.8776 2.14423 66.0238 2.0383C66.2067 2.02174 66.2275 1.8234 66.5892 1.82005C68.4146 1.80432 71.9599 1.90945 69.8865 2.37227C66.8822 2.31266 64.3199 2.68431 61.3725 2.54853C62.1522 3.08368 60.5994 3.26578 58.4803 3.50307ZM113.672 1.79906C112.762 2.05897 110.907 1.95408 109.651 1.77367C109.65 1.77367 109.648 1.77367 109.647 1.77367C109.37 1.73393 108.744 1.38852 109.647 1.40259C111.118 1.42671 111.83 1.97043 112.602 1.60131C112.947 1.67003 113.31 1.73117 113.672 1.79906ZM116.87 1.76683C117.772 1.90012 117.363 2.30982 116.233 2.19894C116.233 2.19926 116.233 2.19959 116.233 2.19991C115.761 2.15355 116.687 1.82972 114.996 2.15841C114.65 1.90269 114.31 1.67005 113.969 1.42261C114.383 1.41847 114.761 1.41176 115.195 1.40845C114.903 1.82877 115.967 1.63458 116.87 1.76683ZM71.4117 2.14084C71.5537 1.7627 70.9593 1.76509 69.9472 1.50268C70.9024 1.5151 71.8579 1.52835 72.809 1.54077C72.3417 1.74104 71.879 1.94056 71.4117 2.14084ZM48.9697 2.08224C48.9683 2.08224 48.9668 2.08224 48.9654 2.08224C48.6523 2.14185 48.3385 2.20168 48.0295 2.26046C47.8425 2.1255 47.6576 1.99114 47.4706 1.85618C46.3648 1.98286 45.2531 2.10952 44.1473 2.23702C44.2816 1.82478 46.2665 1.89186 47.3601 1.60375C48.9861 1.72795 49.7696 1.96724 49.8753 2.31661C49.5746 2.23881 49.2745 2.16004 48.9697 2.08224ZM183.771 87.3747C183.401 87.4889 183.036 87.6033 182.666 87.7175C183.158 87.7696 183.646 87.8094 184.142 87.8698C185.438 87.3731 185.56 87.8125 187.259 87.7819C192.467 87.6875 191.085 86.9161 195.788 88.0461C192.012 87.9923 193.463 88.5233 191.187 88.9323C190.715 88.6209 192.971 87.9189 191.442 87.7731C188.808 88.1026 186.276 88.4095 183.353 88.6222C183.438 88.676 183.523 88.73 183.609 88.7838C184.072 88.7499 184.532 88.7157 184.995 88.6818C184.495 88.8258 184.006 88.9687 183.498 89.1144C184.14 88.7874 182.504 88.9701 182.723 88.5944C182.82 88.4271 183.544 88.1951 183.97 88.0353C182.869 87.9484 181.739 87.8688 180.625 87.7844C181.203 87.6511 181.779 87.5177 182.352 87.3845C182.823 87.3803 183.291 87.3774 183.762 87.3733C183.765 87.3737 183.768 87.3742 183.771 87.3747ZM0.16544 26.8556C0.554572 28.2541 0.61896 30.7955 0.185947 32.133C0.179324 30.3727 0.172064 28.6159 0.16544 26.8556ZM49.9814 2.60468C49.8231 2.53853 49.6697 2.47309 49.5113 2.40694C50.2104 2.28443 50.9137 2.16276 51.6128 2.04025C51.7469 2.23143 51.884 2.42264 52.0222 2.61298C51.3435 2.6105 50.6602 2.60716 49.9814 2.60468ZM94.7094 2.3918C94.1979 2.40337 94.1527 2.3971 93.5157 2.36983C93.5164 2.36999 93.5172 2.37015 93.5179 2.37032C93.2654 2.36013 91.1528 2.24847 91.3883 2.10129C92.4372 2.0988 93.556 2.10129 94.6293 2.10129C94.6618 2.1981 94.6688 2.29416 94.7094 2.3918ZM82.363 2.30587C82.3615 2.30554 82.3601 2.30522 82.3586 2.30489C81.9768 2.28253 81.6152 2.23702 81.2213 2.22872C82.6397 1.99707 82.8638 2.41268 84.1524 2.29512C85.4409 2.17674 86.2372 1.94743 87.3306 2.51679C86.924 2.60207 86.4863 2.72407 86.0675 2.82342C84.2383 2.59576 83.7457 2.81 82.2785 3.03435C82.3069 2.79097 82.3345 2.54924 82.363 2.30587ZM207.535 87.2927C207.769 86.8628 208.285 86.8759 208.33 86.8517C208.329 86.8524 208.329 86.8532 208.328 86.8539C209.77 85.7681 209.631 85.7929 209.585 85.9596C209.508 86.0919 209.502 86.3633 210.768 85.1786C210.457 85.5951 210.125 85.9922 209.76 86.3691C209.044 86.76 208.269 87.0653 207.535 87.2927ZM191.107 2.54755C191.078 2.46559 191.044 2.38344 191.016 2.30147C192.772 2.32051 193.22 1.99784 194.679 2.29171C193.488 2.37779 192.297 2.46327 191.107 2.54853C191.107 2.5482 191.107 2.54788 191.107 2.54755ZM103.561 2.98796C101.614 3.14444 100.174 3.21339 98.3035 2.96501C98.3021 2.96469 98.3006 2.96436 98.2992 2.96404C98.1913 2.94875 98.7128 2.77727 98.5721 2.73407C98.1863 2.75972 97.7879 2.79915 97.3979 2.82977C97.3451 2.69244 97.2948 2.55515 97.242 2.41865C98.3395 2.45756 99.4377 2.49644 100.539 2.53535C100.377 2.45504 100.21 2.37543 100.047 2.29512C100.982 2.25374 101.914 2.2125 102.849 2.17111C102.524 2.39623 102.199 2.6214 101.878 2.84734C102.439 2.89451 103.001 2.93996 103.561 2.98796ZM213.097 16.5558C213.187 16.2469 213.337 16.8189 213.414 16.3392C213.49 15.8594 213.323 14.975 213.575 15.1823C213.609 15.8282 213.648 16.5065 213.684 17.1646C213.913 16.0967 213.922 15.0301 213.947 14.2308C213.97 13.3182 213.908 12.702 214.185 12.6443C214.224 13.1955 214.234 13.7184 214.222 14.2308C214.178 15.7039 214.246 17.0496 214.367 18.5728C213.92 18.4915 213.535 16.5233 213.116 17.7625C213.11 17.3644 213.102 16.9461 213.098 16.5602C213.098 16.5587 213.098 16.5573 213.097 16.5558ZM21.532 8.20011C20.3286 8.16616 17.5714 8.34827 16.0509 8.08829C15.6769 8.02423 14.4306 7.19432 14.4369 7.08493C14.4735 6.7165 15.9955 6.66635 14.3655 6.42627C14.9139 6.42377 15.4459 6.40994 15.9903 6.40332C15.8927 6.15576 15.7956 5.90887 15.7021 5.66214C15.0395 5.6994 14.376 5.73685 13.7134 5.77493C13.6808 5.69297 13.6484 5.61082 13.6159 5.52885C15.9982 5.52719 14.5919 5.21084 15.8278 4.91609C14.6897 4.76709 13.5432 4.61882 12.4092 4.46982C13.0636 4.48803 13.8359 4.50152 14.4131 4.52304C14.4904 4.10332 13.1131 4.20339 12.8771 4.1256C11.5478 3.686 18.3156 3.90787 18.8694 3.29703C17.7883 3.22915 16.6539 3.16291 15.5483 3.09587C15.8654 3.02053 16.1866 2.94514 16.5037 2.8698C19.0118 3.29111 21.8244 3.44036 24.747 3.70277C25.011 3.6854 25.2755 3.66756 25.5355 3.65101C25.4583 3.46149 25.3853 3.27269 25.3081 3.08317C25.7065 3.06082 26.1099 3.03863 26.5082 3.01628C25.3336 3.64048 26.9603 3.63197 28.9238 4.01281C27.8792 4.23218 26.5905 4.09918 26.6794 4.50791C30.2647 4.19344 34.4635 4.63785 37.9513 4.28282C38.8171 4.19507 38.8143 3.66781 40.85 3.71644C40.7809 3.7744 40.769 3.87903 40.7243 3.9552C44.245 3.70268 46.3811 3.55172 50.0399 3.80921C49.8286 3.61971 49.6208 3.42941 49.4095 3.2399C48.633 3.33429 47.8552 3.43017 47.0828 3.52456C46.5544 3.21162 47.3353 3.07352 45.0182 3.07682C43.1196 3.07931 44.2498 3.21748 43.7335 3.31021C43.0344 3.4368 42.4208 3.18777 41.6689 3.32925C41.0875 3.43771 41.7165 3.69591 40.2 3.63051C40.8099 3.29602 41.4319 2.95063 42.0458 2.612C42.4158 2.68735 42.7829 2.76385 43.1529 2.84002C42.7789 2.92944 42.4112 3.01768 42.0372 3.1071C43.3543 2.94649 44.5988 2.795 45.9606 2.6286C45.5174 3.11212 46.9251 2.93084 47.6894 2.87371C48.88 2.78439 47.8599 3.11715 48.6404 3.06169C49.421 3.00536 50.2628 2.63359 51.6734 2.71307C50.9174 2.9283 51.9458 3.12131 51.7471 3.31998C51.5479 3.51864 50.0558 3.56263 51.4893 3.77943C54.2456 3.61467 51.2547 2.8581 53.1163 2.73553C55.352 2.58817 55.8841 3.82143 55.2177 4.08654C54.6933 4.29518 52.8886 4.25322 52.3602 4.46103C55.5921 4.83607 55.6202 4.09569 56.1731 3.9508C58.1813 3.42345 56.8323 4.83099 59.2104 4.32188C59.1657 4.58509 59.1295 4.82183 59.0847 5.07428C59.4951 5.02627 59.7675 4.96246 60.2633 4.92439C58.8013 4.41153 59.998 4.43351 60.6121 4.43271C61.5796 4.43106 60.0852 4.1809 60.3413 4.11632C61.0324 3.94351 62.1254 4.02198 61.4548 3.79603C61.7557 3.90118 62.0817 4.00663 62.3907 4.11095C63.5211 3.97994 66.1778 2.88133 63.6494 3.10319C63.8852 2.69502 64.7031 2.8912 65.3414 2.9533C65.9795 3.01533 65.9676 2.75538 66.5286 2.8034C68.7602 2.99549 67.3004 3.44015 66.9467 3.7887C69.8939 3.54862 67.0085 3.38977 71.2557 3.22916C71.6663 2.94518 69.7039 2.64216 71.338 2.47822C71.639 2.97157 72.8423 3.32598 75.1878 3.48989C75.4154 3.37646 75.6425 3.26203 75.8702 3.1486C77.1508 3.60396 76.4962 4.07748 78.8664 3.51284C77.5939 4.55188 78.4688 3.88715 80.5908 4.31016C81.0218 4.39544 80.026 4.61101 80.6277 4.7203C80.9004 4.76958 81.5625 4.60686 82.2286 4.7325C82.5538 4.79459 84.0744 5.19523 85.1273 5.00495C84.3549 4.50156 86.3555 4.07333 84.6399 3.65687C87.8109 3.75954 90.0302 3.51785 86.477 4.20421C87.282 4.35655 88.0876 4.50824 88.8926 4.65975C89.4536 4.5397 90.0194 4.4206 90.5845 4.30137C90.6698 4.7151 90.5841 4.83116 92.7943 4.75838C91.8353 4.85603 90.8803 4.9553 89.9173 5.05378C89.8848 5.13732 89.7508 5.22416 89.783 5.30523C90.9625 5.14633 94.2837 5.07794 95.0885 4.96784C95.8935 4.85773 94.339 4.82759 94.5708 4.72079C96.5014 3.84007 96.3484 4.48963 97.7337 4.33848C98.5468 4.24906 96.6055 4.15197 97.0405 4.11388C98.6534 3.9743 99.4015 4.44237 100.832 4.44834C100.324 4.18265 99.8197 3.91283 99.3239 3.64467C100.824 3.65874 102.496 3.6611 103.891 3.57582C104.438 3.54253 104.024 3.34493 104.114 3.33169C104.557 3.2638 106.362 3.15626 106.553 3.15543C107.992 3.15386 108.033 3.42754 109.43 3.44253C108.882 3.4657 108.366 3.48659 107.829 3.50893C107.585 3.95265 107.337 4.39635 107.093 4.8409C108.462 4.87318 109.833 4.9048 111.207 4.93708C110.203 4.78891 109.195 4.64143 108.191 4.49326C109.76 4.13477 111.329 3.77547 112.899 3.41616C113.716 3.63638 114.53 3.85655 115.347 4.07677C117.566 4.01868 117.119 3.12474 118.172 3.90784C118.826 3.84163 119.48 3.77547 120.135 3.71009C120.041 3.82183 119.949 3.93379 119.855 4.04553C120.644 3.97681 121.432 3.90854 122.221 3.83899C121.392 3.44329 120.579 3.02688 119.758 2.64276C121.31 2.55677 121.339 2.89247 121.571 2.97624C122.185 3.19813 123.403 2.89884 123.891 3.10417C124.056 3.17466 122.535 3.39565 123.059 3.65053C123.162 3.69993 125.198 4.63684 126.497 4.42051C126.473 4.25078 126.373 4.04267 126.32 3.85804C128.067 3.75495 128.958 4.6409 128.727 4.88923C129.658 4.71538 131.018 4.70085 131.209 4.4293C131.685 4.42267 132.157 4.41639 132.633 4.40977C132.137 5.07114 134.121 4.9502 134.251 4.38145C133.434 4.36737 132.616 4.35256 131.799 4.33848C132.416 3.64137 129.933 3.22059 135.1 3.86634C136.088 4.22897 133.344 3.81693 134.149 4.08849C135.547 4.24655 136.86 4.1143 138.19 4.3668C139.844 4.68222 137.808 4.9856 141.662 4.58407C133.162 3.57815 142.828 3.90453 146.821 3.59242C147.918 4.58595 151.29 4.90064 155.933 4.60507C155.449 4.32856 153.988 4.47102 153.146 4.37998C152.305 4.28892 153.215 4.12487 152.167 3.99572C151.119 3.86661 148.892 3.69107 147.83 3.49575C148.729 3.33925 153.167 2.96926 150.233 3.41372C152.423 3.68771 153.452 3.96926 156.166 4.02063C156.98 3.58929 156.919 3.3207 159.566 3.30826C158.001 3.90764 161.008 4.32421 160.346 4.94343C158.469 4.79921 159.518 4.19736 158.433 3.9093C158.321 3.88051 156.573 4.03138 156.166 4.02063C157.931 4.56127 158.541 4.7625 157.456 5.40581C158.704 5.34951 159.48 5.43028 159.594 5.12311C159.854 5.25637 160.115 5.38974 160.372 5.52299C160.778 5.51967 161.143 5.50734 161.574 5.50981C160.981 5.04647 162.13 5.3317 162.947 5.12164C163.765 4.91135 162.668 4.54559 164.912 4.54062C164.164 4.43216 163.48 4.3391 162.757 4.23643C164.204 4.11723 165.655 3.99726 167.103 3.87805C166.086 3.59495 163.884 3.17442 163.944 2.80194C164.61 2.94257 166.894 2.69541 167.144 2.68524C168.111 2.64716 167.584 2.88207 167.657 2.88787C169.177 3.00203 170.429 2.92204 171.006 3.27799C172.149 3.11738 173.01 3.20895 174.221 3.19986C174.888 3.1949 174.759 2.93346 175.149 2.98308C177.742 3.31423 175.271 3.65208 180.274 3.00896C179.669 2.82683 179.071 2.64052 178.465 2.45674C179.031 2.38802 179.592 2.31892 180.157 2.25021C180.536 2.28332 180.91 2.31669 181.288 2.34981C181.28 2.7447 181.27 3.14041 181.262 3.5353C181.677 3.55682 182.093 3.57773 182.508 3.59926C181.797 3.63817 181.083 3.67704 180.372 3.71595C180.307 3.78544 180.246 3.85495 180.181 3.92444C181.238 4.03207 182.292 4.14067 183.349 4.24913C183.369 4.11176 183.389 3.97343 183.409 3.83606C185.792 4.02731 185.848 4.1436 188.113 3.76527C189.857 3.76941 191.277 3.19505 192.285 2.9533C192.647 3.03027 193.009 3.10824 193.375 3.18522C193.607 3.07096 193.841 2.9572 194.072 2.84295C194.532 3.0019 194.997 3.16088 195.457 3.319C195.713 2.95822 195.845 2.84558 194.053 2.71893C194.667 2.27021 197.822 2.46816 199.107 2.61884C200.082 2.73318 199 3.10747 199.122 3.15299C199.529 3.30766 201.136 3.1742 201.473 3.19986C201.768 3.22199 202.046 3.23872 202.311 3.25209C203.423 3.30971 204.343 3.44297 205.393 3.81468C205.657 3.90173 206.281 4.38637 206.331 4.42108C206.783 4.62834 207.778 5.31269 207.881 5.39946C209.325 6.39317 209.865 7.05947 210.185 7.28966C210.491 7.53602 210.525 7.41385 210.55 7.26949C210.574 7.12742 210.586 6.96454 210.867 7.17781C211.129 7.39878 211.749 7.97225 212.477 9.56516C212.513 9.3188 212.547 9.08289 212.569 8.83229C212.831 9.31229 213.061 9.8159 213.253 10.3298C213.36 11.0255 212.939 10.2816 213.455 11.5479C213.272 11.5008 213.089 11.4579 212.905 11.4139C213.137 11.9378 213.327 12.4667 213.479 13.0475C213.348 13.3157 213.258 13.7512 213.146 14.2308C212.848 15.4119 212.643 16.9724 212.147 16.8158C211.915 16.7426 211.677 14.5962 211.43 15.7304C211.381 16.6521 211.658 16.0282 211.672 16.4042C211.773 19.1199 211.385 18.9621 211.489 20.0719C211.655 20.2467 211.825 20.4304 211.993 20.6092C211.944 21.0277 211.895 21.4475 211.846 21.8701C211.958 21.9677 212.07 22.0693 212.182 22.1669C212.189 21.7726 212.197 21.3285 212.204 20.9667C212.637 21.4712 212.832 26.1045 212.462 24.3376C212.313 23.6181 212.376 22.3004 211.865 23.1331C211.939 24.373 212.014 25.7797 212.088 27.0847C211.977 27.1253 211.867 27.1632 211.757 27.2038C211.828 28.9625 212.269 27.363 212.504 27.3663C212.511 27.7686 212.517 28.175 212.524 28.5773C212.417 28.7479 212.305 28.9099 212.202 29.0886C212.372 29.105 212.766 29.3302 212.62 30.5293C212.524 31.3002 212.096 30.0861 212.155 31.5562C212.42 31.4463 212.743 30.9153 212.828 32.5527C212.552 32.7153 212.298 32.9402 212.008 33.0661C212.274 35.1025 211.847 36.0292 212.155 38.4194C212.351 39.9357 213.044 42.0129 211.976 42.9927C211.948 44.1019 212.214 43.7498 212.274 44.0781C212.557 45.627 212.05 46.7791 212.02 47.0677C211.829 48.9086 212.004 49.7339 211.765 51.2338C211.963 51.1525 212.15 51.1082 212.343 51.0431C212.047 49.669 212.061 48.9731 212.125 47.0461C212.164 47.6923 212.205 48.3388 212.245 48.985C212.405 48.8794 212.566 48.7747 212.726 48.6731C212.093 42.7131 213.093 44.1034 213.311 49.0998C213.014 49.5307 212.718 49.9772 212.42 50.404C212.87 53.2904 212.479 54.6486 212.385 57.9128C212.375 58.3009 212.546 59.7144 212.554 60.3219C212.555 60.3118 212.557 60.3017 212.558 60.2916C212.838 60.6695 212.967 60.1576 213.218 60.0966C213.25 60.4258 213.281 60.7553 213.313 61.0845C213.121 61.8198 212.964 61.5613 213.01 63.0083C213.2 62.8132 213.391 62.6206 213.581 62.4255C213.588 64.011 213.381 65.0486 213.47 66.5244C213.398 66.2764 213.326 66.0315 213.254 65.7835C213.07 68.9952 211.951 66.4392 212.508 68.8663C212.41 69.0207 212.312 69.1711 212.214 69.3256C212.19 68.3256 212.167 67.3253 212.143 66.3294C212.004 66.3091 211.867 66.2872 211.729 66.2709C211.77 67.3401 211.813 68.4145 211.854 69.4837C211.761 68.7031 211.669 67.918 211.576 67.1375C211.51 68.3773 211.443 69.6174 211.377 70.8572C211.885 69.5406 211.947 71.2475 212.451 70.9265C212.093 72.8039 211.637 74.3369 211.733 76.8697C211.75 77.2762 211.757 77.707 211.744 78.1803C211.691 78.8068 212.203 78.6088 211.219 80.2248C211.957 79.9873 211.172 82.3127 211.73 82.2999C212.071 81.6603 212.364 80.9657 212.554 80.293C212.105 80.9882 211.625 80.8733 211.833 79.7791C212.008 78.8127 212.274 77.5483 212.165 76.8697C212.122 76.5659 212.036 76.3856 211.861 76.4119C211.888 75.843 211.904 75.3138 211.926 74.7611C212.066 74.9886 212.206 75.2114 212.346 75.4349C212.127 73.8622 212.198 72.8741 212.551 72.1181C212.619 73.7032 212.687 75.2854 212.755 76.8697C212.768 77.1725 212.767 77.4733 212.754 77.7763C212.803 77.4898 212.84 77.198 212.864 76.9057C213.116 78.4302 213.764 76.8768 213.253 79.8221C213.099 79.7615 212.943 79.705 212.788 79.6456C213.059 80.811 211.536 83.4631 212.446 82.8784C211.822 83.5989 211.626 83.6647 211.515 84.2541C209.617 85.9486 208.011 86.156 208.36 85.2648C207.761 85.8132 207.086 86.2982 206.359 86.699C206.863 86.6629 207.375 86.5879 207.888 86.4731C206.58 87.2245 205.106 87.7045 203.615 87.8684C203.52 87.6434 204.219 87.5293 204.81 87.3529C205.403 87.1818 205.884 86.9827 205.421 86.9137C205.243 86.8885 204.542 87.2528 204.328 87.2378C202.17 87.0699 205.477 86.8832 204.771 86.5897C202.669 86.9261 203.193 86.4031 202.311 86.448C201.921 86.4443 201.267 86.5019 200.032 86.6667C199.923 86.531 199.805 86.3925 199.703 86.2576C198.261 86.2494 198.378 86.5561 197.138 86.614C196.362 86.6501 195.387 86.1116 194.53 86.4783C194.377 86.5459 195.819 87.204 192.788 87.175C190.435 87.1526 191.414 86.6875 190.143 86.5227C188.87 86.3579 185.959 87.0028 185.101 86.2717C185.768 86.3686 186.617 86.4208 187.357 86.5002C187.657 86.3579 187.95 86.217 188.247 86.0755C186.556 86.2593 184.808 86.0426 183.669 86.3821C181.413 85.863 178.89 86.3447 179.573 86.9309C180.315 86.8464 179.507 86.5908 180.539 86.7537C180.645 86.8903 180.756 87.0262 180.862 87.1628C179.105 87.1463 177.886 87.1501 178.687 86.7336C178.414 86.7237 178.144 86.7138 177.872 86.7039C177.823 87.0052 177.78 87.3077 177.731 87.6091C177.406 87.643 177.079 87.6767 176.754 87.7106C176.392 87.6444 176.03 87.5775 175.664 87.5105C176.156 87.0336 176.994 87.0178 174.222 86.7512C174.213 86.916 174.202 87.0801 174.193 87.2448C171.872 87.0354 171.811 86.6363 168.896 86.6511C171.132 86.0791 172.356 87.0931 172.348 85.9456C172.909 86.0209 173.474 86.0973 174.035 86.1726C174.121 86.0062 174.205 85.8396 174.287 85.6731C171.274 85.7609 166.271 86.8554 164.254 86.1297C164.01 86.2182 163.765 86.2952 163.517 86.3904C161.541 85.9524 160.688 86.9357 158.684 86.3694C158.477 86.31 158.91 85.3861 156.301 85.4192C156.366 85.5393 156.4 85.7414 156.453 85.8929C155.888 85.8192 155.326 85.7421 154.765 85.6668C154.663 85.7777 154.557 85.8885 154.455 86.0003C155.419 86.0433 156.379 86.0871 157.343 86.1301C156.542 86.1682 155.737 86.2063 154.936 86.2444C155.981 86.4257 156.452 86.4276 155.822 86.718C154.916 86.7354 154.008 86.7538 153.101 86.7712C153.008 86.8456 152.915 86.9209 152.822 86.9953C153.261 87.2172 153.704 87.4342 154.143 87.6594C151.781 87.4781 149.728 87.4682 147.915 87.032C147.606 86.9583 148.698 86.6692 146.593 86.9299C146.561 86.7768 146.504 86.6525 146.468 86.511C143.89 86.9399 143.043 86.8119 140.356 86.5022C142.096 86.7912 140.544 86.6032 140.1 86.758C139.797 86.8647 140.982 86.849 140.848 86.9607C140.714 87.0716 139.174 87.5196 140.49 87.5734C143.718 86.6553 144.598 87.753 148.744 87.3117C148.106 87.4301 147.463 87.5488 146.825 87.6672C147.126 87.7474 147.395 87.8202 147.72 87.9055C145.407 87.7258 146.532 87.8425 145.581 87.9841C144.63 88.1256 142.901 88.2459 141.743 88.2848C141.378 88.2971 141.763 88.0911 140.939 88.0719C140.378 88.0587 138.845 88.364 138.491 88.0041C138.259 87.7698 140.722 87.1247 137.317 87.1262C136.676 86.8965 138.308 86.9678 138.343 86.9402C138.64 86.6669 136.547 86.4615 135.579 86.6702C135.501 86.6882 136.265 86.9011 135.434 86.9846C133.462 87.1841 132.323 86.94 131.047 86.6096C130.909 86.9971 129.249 87.4598 127.184 87.3166C127.079 87.4275 126.978 87.5394 126.872 87.6511C127.193 87.5924 127.513 87.5345 127.834 87.4758C128.184 87.5453 128.554 87.596 128.896 87.6779C126.819 87.7732 126.525 88.3072 125.529 88.5026C122.121 89.17 124.186 87.7582 124.801 87.5148C125.244 87.6134 125.673 87.7233 126.112 87.8268C126.063 87.6919 126.014 87.5559 125.969 87.4201C120.867 87.4242 125.192 86.5441 122.602 86.2932C121.936 86.9572 120.034 87.0212 117.611 86.5999C117.342 86.6032 117.073 86.604 116.805 86.6082C116.76 86.705 116.761 86.8529 116.688 86.9167C113.769 87.0293 113.249 86.0068 112.972 85.9099C111.745 85.4803 110.789 86.0748 110.427 86.0799C108.902 86.1006 108.459 85.8366 107.008 85.95C105.448 86.0725 106.515 86.275 106.04 86.4563C105.659 86.6003 104.428 86.6259 103.919 86.7751C104.121 86.6531 104.346 86.5334 104.547 86.4109C102.93 86.2445 101.608 86.0823 99.7703 86.0418C97.6971 86.9348 95.9332 85.4284 96.6485 86.6501C98.3885 86.7338 99.3614 86.873 100.292 87.1843C99.1502 87.224 98.0072 87.2627 96.8651 87.3025C96.5319 87.1684 96.2953 87.0377 95.901 86.9011C95.0475 87.1859 93.0686 87.0637 92.2918 87.1472C88.6533 87.5388 89.7789 88.0245 86.4576 87.2082C88.8514 87.1287 88.8476 86.7322 91.2216 86.7869C90.7093 86.5037 89.503 86.5624 90.2835 86.2229C87.9869 86.3065 88.7293 86.6096 87.8354 86.8786C87.0645 87.1106 85.512 87.1236 85.5997 87.425C85.441 87.2593 85.3182 87.0988 85.1599 86.9333C83.6723 86.935 82.1847 86.9351 80.6971 86.9367C81.3312 86.7637 81.9651 86.5904 82.5992 86.4182C82.12 86.3529 81.64 86.2878 81.1607 86.2224C77.5019 86.7606 71.1925 85.7743 72.2004 87.1262C70.4361 87.1692 70.2154 86.9997 69.2562 86.7439C69.1505 86.8465 69.0478 86.9319 68.9421 87.0461C67.804 86.9387 66.9304 87.324 65.9264 87.2238C64.9225 87.1245 64.6733 86.7605 64.5269 87.3723C63.8765 87.1968 63.2299 87.051 62.5836 86.8879C62.1937 87.0269 61.804 87.1643 61.4181 87.3025C60.8083 87.2296 60.1972 87.1571 59.5875 87.0842C59.2616 87.3762 56.864 87.2504 55.8071 87.4465C54.8037 87.1317 54.8313 86.1405 52.4708 86.3181C52.5317 86.564 52.5918 86.8091 52.6527 87.0549C52.1122 87.0036 51.5704 86.9524 51.0258 86.9011C50.9933 86.8209 50.9651 86.7406 50.9326 86.6604C51.209 86.6852 51.4816 86.7099 51.758 86.7356C51.5182 86.5998 51.2832 86.4647 51.0474 86.3289C50.2223 86.53 49.3961 86.7312 48.5669 86.9324C49.6846 87.0847 50.8028 87.2371 51.9205 87.3894C50.5179 87.5699 49.5417 87.3898 48.3221 87.591C47.2612 87.2516 47.6529 87.056 48.0838 86.6877C47.6896 86.7192 47.2908 86.7495 46.8966 86.781C47.1566 86.4126 46.4898 86.1931 48.7944 86.2229C48.6359 86.1179 48.4743 86.0177 48.3199 85.9085C47.9419 85.925 47.6967 85.8362 47.2822 85.8767C46.152 85.9877 45.2855 86.6347 45.3627 86.8616C45.4044 86.9804 46.5188 86.7531 46.4741 86.9211C46.3638 87.3308 43.8075 87.1469 47.4945 87.5583C46.2708 87.8191 45.9975 87.6224 44.6478 87.5471C44.7534 87.6836 44.856 87.8192 44.9576 87.9557C44.3318 87.8928 43.7051 87.8302 43.0793 87.7673C43.9493 87.066 39.335 86.8027 43.4888 86.1892C42.2613 86.1578 41.038 86.1262 39.8145 86.093C40.0665 86.021 40.3186 85.9497 40.5706 85.8777C41.1234 85.9158 41.6729 85.9533 42.2258 85.9905C41.5755 85.8589 40.9241 85.7281 40.2738 85.5965C38.7371 85.7596 38.1348 86.0104 37.4315 86.3201C39.2198 86.546 38.6355 86.2374 40.029 86.176C39.9803 86.3721 40.0447 86.5525 39.9228 86.7585C39.2028 86.3524 36.8539 86.6479 36.3093 86.6677C34.6516 86.7281 35.9515 86.329 34.8426 86.3206C33.7327 86.3123 32.4237 86.5498 31.5171 86.1541C31.5334 86.3759 31.6059 86.6054 31.6709 86.8074C29.9431 86.8802 30.2878 86.6182 30.109 86.5842C27.2551 86.0262 25.7065 86.4973 22.442 86.5544C22.8566 86.6232 23.2755 86.6852 23.6942 86.7497C21.2314 87.2207 22.8904 87.0765 25.0287 87.2321C23.0244 87.185 21.8767 87.586 20.4619 87.7053C19.0473 87.8243 16.6213 87.6183 15.7347 87.4577C17.7634 87.1994 19.9514 87.3698 22.2037 87.2985C21.9476 87.0726 21.6988 86.8813 21.4346 86.6331C20.0647 87.1073 19.271 86.7902 18.8197 86.7273C17.4947 86.5427 17.5363 86.9498 16.7356 86.512C16.7681 86.6626 16.7919 86.7892 16.8245 86.9299C15.3424 86.8958 13.7973 86.8021 12.4092 86.8117C11.2379 86.8212 10.1927 86.6938 9.31692 86.684C9.26644 86.2885 9.26439 85.9198 9.22979 85.514C8.11757 85.3913 7.42872 84.6579 6.69198 84.1607C5.9607 83.6309 6.01295 84.0964 5.16456 83.3705C5.00934 83.2287 4.87409 82.7944 4.47574 82.4632C4.05295 82.2075 2.23717 80.797 3.02352 80.2391C2.69838 79.3174 2.54807 78.3961 2.50745 77.4456C2.60977 78.3694 2.84042 79.2708 3.18932 80.1122C3.13265 79.3073 3.18226 78.5246 3.32325 77.7793C3.12465 77.7061 2.92343 77.6266 2.72944 77.5448C2.6878 77.3139 2.66156 77.0919 2.6479 76.8697C2.53895 75.0648 2.77767 73.6201 2.71219 71.694C2.69977 71.3322 2.32328 72.1858 2.41923 70.5805C2.51527 68.9747 3.21797 67.7831 2.94655 65.0475C2.93248 64.9092 2.3943 64.0991 2.76687 63.1193C2.85131 62.8964 2.97626 63.8348 3.08717 63.323C3.19811 62.8107 3.28934 60.5252 3.55346 60.3463C3.45992 60.3707 3.36301 60.5133 3.26783 60.5825C3.22313 60.1923 3.1784 59.7982 3.13453 59.4039C3.29927 59.3673 3.46425 59.3279 3.62816 59.2913C3.24484 57.0473 2.61954 55.8875 2.82644 52.5624C2.58719 53.4973 2.34698 54.4326 2.10773 55.3635C2.2758 55.6197 2.445 55.8762 2.61307 56.1283C2.54602 57.6607 2.47945 59.1974 2.4124 60.7298C2.60365 60.9818 2.79436 61.2295 2.98561 61.4815C2.96078 61.888 2.93672 62.2904 2.91189 62.6969C2.77363 62.5953 2.6361 62.4928 2.49784 62.3871C2.53178 63.1918 2.56644 63.9976 2.60038 64.7983C1.78428 63.1682 2.66979 60.246 1.98713 60.4568C2.09305 60.0952 2.1997 59.733 2.30645 59.3714C1.97543 59.2128 2.0707 58.4775 2.12286 57.1812C1.95976 57.478 1.79888 57.8057 1.63412 58.0781C1.86426 56.8178 1.84191 54.5823 1.93049 53.2773C1.9694 52.7041 2.20939 53.2766 2.2376 53.1061C2.38498 52.2321 1.96622 50.5614 1.99933 50.2118C2.19642 48.1223 2.99033 46.7644 2.46708 44.4838C2.33792 46.8377 2.39247 45.5571 2.10187 46.3946C2.01075 46.6567 1.82068 49.6977 1.9051 45.8898C1.91566 45.4433 2.4642 38.5339 2.88454 40.8052C2.75042 39.6872 2.59533 38.8118 2.45292 37.7874C3.56071 35.283 2.52003 36.1497 1.94709 36.8775C1.94461 36.4669 1.93879 36.0762 1.93879 35.6534C2.5407 36.5519 2.57808 31.9745 2.27422 30.4215C2.17321 29.9012 1.98055 31.3562 1.88948 30.1529C1.93169 29.5799 1.98634 28.9299 2.03351 28.3244C1.65269 29.2025 1.50593 27.4792 1.11852 27.5034C1.46374 26.4017 2.19547 25.5591 2.59208 26.1645C2.43149 25.254 2.2711 24.3388 2.10968 23.4283C2.01778 23.8511 1.92669 24.2794 1.83479 24.7022C2.07821 21.7263 1.52432 17.8998 2.33818 17.2778C2.33239 16.8835 2.32738 16.485 2.32158 16.0906C2.18415 15.9687 2.04644 15.8508 1.90901 15.7288C1.94238 15.2292 1.97582 14.7299 2.00928 14.2308C2.09437 12.896 2.43741 11.595 3.00766 10.4201C2.53509 11.9683 2.64403 12.3648 2.39179 14.0119C2.56313 13.372 2.79889 12.7527 3.08111 12.1991C3.35297 9.84857 3.09175 9.00522 5.93596 6.44729C6.00274 6.3932 6.6546 5.97443 7.34369 5.68188C8.02951 5.37873 8.73698 5.20249 8.7863 5.20207C9.24398 5.1928 8.72716 5.6451 8.93368 5.64962C9.21319 5.65176 10.1219 5.53411 10.9302 5.58966C11.7422 5.6311 12.4354 5.81031 12.4084 5.8511C12.0615 6.35299 9.59431 6.68656 7.75265 8.41448C5.81666 10.0544 5.11306 12.7466 5.15361 13.8468C5.15012 13.9741 5.14983 14.1019 5.15284 14.2308C5.51412 35.2987 5.3046 56.0612 5.16366 76.8697C5.0263 80.7197 8.49863 84.2785 12.4092 84.1983C17.5194 84.2145 22.6377 84.2169 27.7692 84.1962C28.0931 84.1942 27.9518 84.0397 28.0898 84.0331C28.9475 83.9943 29.7897 84.2351 30.1068 84.245C30.7843 84.2655 30.4112 84.043 30.9062 84.0428C36.0205 84.0453 40.8466 84.1761 45.965 84.1381C46.2984 84.1356 45.958 84.3136 46.5434 84.2821C46.8456 84.2649 47.7916 83.9918 48.4737 83.9877C50.856 83.9736 52.8571 84.0611 55.3694 84.057C56.7436 84.0545 58.805 84.0777 60.3414 84.0736C61.02 84.0719 61.7269 83.9469 62.3973 83.9428C63.3486 83.937 63.1544 84.1902 63.3007 84.2059C63.943 84.2746 64.032 83.9967 64.6417 84.0033C65.776 84.0165 65.837 84.2021 67.2761 84.1864C68.3047 84.1748 70.6587 84.0283 71.9556 83.9852C74.9884 84.2005 78.81 84.115 81.6395 84.0438C83.3143 84.0016 83.4695 84.2614 84.1525 84.2606C86.5589 84.2556 88.3851 83.9237 90.6453 83.913C93.6448 83.899 96.3031 84.1184 99.2092 84.1342C99.6804 84.1366 99.5722 83.8986 100.035 83.8925C101.746 83.8701 103.935 83.8268 105.459 83.8607C107.158 83.898 107.785 84.2436 109.448 84.1732C109.935 84.1523 110.078 83.8493 110.895 83.8104C112.2 83.7493 113.63 84.0164 114.541 84.0463C115.789 84.086 114.704 83.7773 116.387 83.8187C116.456 83.8205 116.708 84.0412 117.069 84.0306C118.122 84.0008 118.018 83.8271 119.558 83.8436C119.706 83.8459 121.749 84.0562 121.952 84.057C123.147 84.0603 125.554 84.1339 126.261 84.0892C128.79 83.9303 126.799 83.5984 128.95 84.3187C129.897 84.1424 130.836 83.9637 131.84 83.7924C131.17 83.9522 133.889 84.1827 134.08 84.1678C135.66 84.0478 134.719 83.7675 136.723 83.8139C134.076 84.4613 139.308 83.8973 140.475 83.8807C146.093 83.8005 151.2 83.962 156.847 83.9579C158.737 83.9562 161.27 83.8193 163.27 83.8226C163.736 83.8228 163.384 83.9761 163.795 83.9794C164.204 83.9816 163.75 83.8096 164.217 83.8187C167.124 83.8784 169.401 84.2029 172.064 83.7973C172.193 83.8559 172.189 83.9023 172.404 83.9667C174.583 83.6033 178.78 84.092 180.357 84.1591C182.824 84.2633 183.454 84.0177 185.246 84.0673C187.617 84.1335 191.175 84.6134 189.586 83.8212C191.212 83.7964 192.777 83.7895 194.419 83.8632C194.602 83.8715 194.476 84.0729 194.549 84.077C195.012 84.1059 195.163 83.9256 195.476 83.9174C196.325 83.8951 194.94 84.111 196.15 84.0507C196.788 84.0184 197.151 83.8611 198.923 83.8578C200.043 83.856 201.173 83.855 202.311 83.8546C205.94 83.9632 209.402 80.6581 209.323 76.8697C209.337 72.1199 209.353 67.3675 209.364 62.731C209.366 61.9789 209.171 62.474 209.184 61.5308C209.227 58.2541 209.555 52.3889 209.51 49.5635C209.465 46.7382 209.181 47.3756 209.061 45.6076C209.038 45.2661 209.2 45.5461 209.203 45.2371C209.218 43.1597 209.471 40.683 209.509 39C209.535 37.887 209.279 37.9761 209.261 37.204C209.234 36.0535 209.492 34.8694 209.501 34.2555C209.537 31.3696 209.329 29.3855 209.435 26.6904C209.379 26.7958 209.327 26.8654 209.272 26.9547C209.281 23.7636 209.29 20.5766 209.299 17.3856C209.248 17.536 209.196 17.6814 209.144 17.8319C209.172 14.0878 209.728 14.5151 208.554 14.8444C208.523 14.6427 208.489 14.4321 208.457 14.2308C208.446 14.1866 208.435 14.1435 208.425 14.1019C209.006 14.2124 209.594 12.524 208.646 10.5656C208.583 10.3971 207.525 9.93906 208.13 9.60044C207.824 9.49292 207.631 9.45301 207.37 9.3963C207.228 8.94117 207.023 8.48315 206.769 8.04035C206.547 7.91868 206.317 7.80619 206.087 7.70897C205.987 7.80904 205.94 7.94506 205.808 8.02436C205.032 7.55254 203.396 6.96464 202.311 6.98288C202.024 6.97733 201.773 6.97515 201.575 6.978C198.574 7.02188 195.52 7.39122 193.186 6.99216C192.05 7.03284 193.178 7.30097 191.488 7.26705C191.297 7.1313 191.117 7.00119 190.918 6.8613C189.536 7.46783 189.248 7.09886 187.354 6.97214C186.074 6.88604 185.235 7.03428 184.016 7.00534C183.707 6.99789 183.751 6.81987 183.539 6.82566C182.831 6.84402 180.811 7.08905 180.311 7.09567C175.783 7.16023 171.892 7.13275 167.579 7.06735C167.116 7.06073 167.717 7.23641 167.237 7.22896C166.465 7.21726 166.919 6.9473 166.472 6.93405C165.225 6.89863 165.216 7.1833 163.476 7.1982C157.748 7.24702 151.162 7.03317 145.178 7.01413C144.991 7.01413 145.003 7.18092 144.799 7.18258C143.474 7.19073 142.133 6.96527 140.93 6.96774C138.934 6.97106 137.434 7.20538 135.462 7.20455C131.608 7.20372 128.165 7.08374 124.201 7.07711C120.957 7.07132 118.139 7.09357 114.582 7.09274C99.0439 7.08943 83.1884 7.61885 67.5446 7.33735C67.1465 7.32991 67.3086 7.18254 67.1872 7.18892C66.0326 7.25267 65.9296 7.45151 65.519 7.03512C64.0482 7.11719 63.5841 7.43001 61.808 7.40766C60.8612 7.39595 61.5681 6.91109 59.9665 7.16109C58.5203 7.3871 60.1162 7.65282 55.8156 7.3813C55.7018 7.37383 55.1414 7.0783 54.2471 7.15523C53.3487 7.23141 54.3887 7.44303 52.2259 7.50678C47.1484 7.65579 40.7214 7.40033 34.8186 7.47895C34.4487 7.48392 30.8858 7.64192 30.1825 7.71478C28.8215 7.85635 29.1058 8.07597 27.338 8.1298C25.972 8.17119 24.845 7.92241 23.2391 7.97209C23.0521 7.97813 22.7388 8.23403 21.532 8.20011ZM177.876 87.8708C177.543 88.1219 176.941 89.046 174.926 88.7648C174.735 88.7383 175.766 88.1028 174.653 88.0016C175.742 87.9346 176.803 87.9129 177.876 87.8698C177.876 87.8701 177.876 87.8705 177.876 87.8708ZM12.7948 2.30733C14.3031 2.3537 15.8165 2.39963 17.3248 2.446C16.284 2.55777 15.2418 2.66932 14.2051 2.78192C13.7337 2.62381 13.2663 2.46544 12.7948 2.30733ZM200.55 2.74627C200.549 2.74627 200.547 2.74627 200.546 2.74627C201.134 2.70203 201.722 2.65776 202.311 2.61349C203.468 2.53797 204.65 2.63502 205.802 2.91185C205.588 2.93769 205.375 2.96953 205.166 3.00706C204.21 2.85907 203.248 2.8352 202.311 2.92713C201.89 2.9736 201.47 3.02007 201.05 3.06657C200.884 2.95979 200.717 2.85305 200.55 2.74627ZM188.024 3.67543C187.011 3.57111 187.259 3.39517 186.702 3.22379C186.702 3.22412 186.702 3.22444 186.702 3.22477C186.555 3.18015 185.871 3.14111 185.606 3.13444C185.704 3.24455 185.83 3.35326 185.935 3.46255C183.573 3.72914 178.954 2.78178 184.934 2.4001C184.845 2.53916 184.76 2.67752 184.67 2.81658C187.642 2.77767 190.955 3.07931 188.024 3.67543ZM153.981 88.2712C151.444 88.7265 150.63 88.8225 147.553 88.5104C147.988 88.3813 148.422 88.2523 148.857 88.1232C149.365 88.2549 149.87 88.3856 150.378 88.5172C150.379 88.5172 150.381 88.5172 150.382 88.5172C150.484 88.379 150.586 88.2405 150.683 88.1022C151.781 88.1585 152.883 88.2149 153.981 88.2712ZM90.916 3.34634C90.2089 2.43688 90.4129 2.96551 92.4325 2.76043C93.1317 2.68923 92.4503 2.5301 92.8853 2.50361C95.2343 2.35889 95.4222 2.96823 94.8979 3.28531C93.5685 3.30684 92.2253 3.32647 90.9203 3.34634C90.9189 3.34634 90.9175 3.34634 90.916 3.34634ZM29.968 3.5353C29.9666 3.5353 29.9652 3.5353 29.9637 3.5353C29.9027 3.31347 30.8497 3.2538 29.7817 3.04362C30.5942 3.04445 31.4067 3.04621 32.2233 3.04704C31.9838 3.0677 31.7392 3.08741 31.4997 3.10807C31.7111 3.18424 31.923 3.26138 32.1345 3.33755C32.4231 3.08257 32.6912 3.23079 33.5448 3.31607C33.309 3.04369 33.0743 2.77111 32.8386 2.49873C33.8303 2.57985 34.8257 2.66125 35.8174 2.74237C35.8296 2.81101 35.842 2.87977 35.8542 2.94841C36.2281 2.86068 36.5982 2.77199 36.9721 2.68427C37.0737 2.76621 37.1716 2.84742 37.2732 2.92937C37.7243 2.8673 38.1761 2.80527 38.6272 2.74237C38.7645 2.94088 37.7703 3.02667 39.5328 2.97624C38.9921 3.17989 38.4527 3.38292 37.908 3.58656C35.2614 3.57001 32.6146 3.55268 29.968 3.5353ZM109.289 3.06657C106.375 3.10465 107.196 2.96078 107.87 2.51045C108.342 2.69585 108.818 2.88117 109.289 3.06657ZM213.074 55.6728C213.381 56.5184 213.686 57.3675 213.982 58.2335C214.153 59.9572 213.593 61.6816 213.374 60.3847C213.111 58.8236 213.405 57.1932 213.074 55.6728ZM199.956 87.7697C202.065 87.9122 200.081 88.2771 199.606 88.4899C199.022 88.148 198.209 88.1781 196.902 88.1383C198.129 88.1162 199.608 87.7455 199.956 87.7687C199.956 87.7691 199.956 87.7694 199.956 87.7697ZM213.419 21.7336C213.41 20.8885 213.324 20.0478 213.429 19.292C213.722 19.52 213.455 21.0317 213.891 19.9506C213.898 20.4912 213.905 21.0324 213.914 21.5689C213.733 21.228 213.598 21.6866 213.42 21.7314C213.42 21.7321 213.42 21.7329 213.419 21.7336ZM137.531 2.7204C139.19 3.06813 139.504 2.91934 141.175 2.67841C141.41 2.96153 139.418 3.43578 138.17 3.54018C137.959 3.26698 137.746 2.99359 137.531 2.7204ZM1.04381 48.9834C1.4047 49.3817 1.45176 52.32 1.34507 53.7799C1.29155 53.6061 1.23731 53.4316 1.18297 53.2578C1.1366 51.8349 1.09018 50.4063 1.04381 48.9834ZM196.28 88.1139C196.499 88.1245 196.706 88.1324 196.902 88.1383C196.684 88.1423 196.474 88.1361 196.28 88.1139ZM107.968 86.5476C108.663 86.2074 106.597 86.0931 109.105 86.2263C109.105 86.226 109.105 86.2257 109.105 86.2254C110.764 86.3131 111.13 86.3366 112.667 86.363C112.114 86.8001 108.996 86.9564 113.293 87.0466C113.35 87.047 113.237 86.7869 113.924 86.8225C114.135 86.8336 114.814 87.047 115.845 87.1091C116.178 87.129 118.684 87.1948 115.269 87.1989C115.37 87.5036 115.187 87.812 115.195 88.1076C113.862 88.1935 112.838 87.5969 111.428 87.6115C109.334 87.6347 108.269 88.238 107.866 87.4465C109.627 87.252 112.65 87.2473 113.044 87.7233C114.747 87.7291 115.236 87.3392 113.863 87.1462C107.98 87.3913 112.248 86.5673 107.097 86.8786C107.036 86.9887 106.824 87.1072 106.857 87.2107C105.284 86.8233 107.72 86.6693 107.968 86.5476ZM120.269 87.3894C119.253 87.622 118.24 87.8565 117.227 88.09C117.227 87.7108 117.785 87.3706 119.387 87.157C119.68 87.2347 119.976 87.3124 120.269 87.3894ZM34.7733 87.489C34.6269 87.6951 34.2368 87.884 33.9522 88.0802C33.6432 87.9064 26.3253 87.7396 30.0483 87.569C30.589 87.5442 33.887 87.9087 34.7733 87.489ZM126.014 3.03093C126.876 3.16919 127.734 3.30768 128.592 3.44595C127.272 3.53365 125.95 3.62366 124.63 3.71302C125.093 3.48571 125.552 3.25824 126.014 3.03093ZM212.712 69.7025C212.72 69.3385 213.004 70.5476 212.959 69.1133C213.14 70.1825 213.294 71.1838 213.464 72.2286C213.33 72.5416 213.197 72.8579 213.063 73.171C213.149 73.4149 213.234 73.6636 213.32 73.9075C213.125 73.7612 212.934 73.6309 212.735 73.4764C213.154 71.7161 212.679 71.3124 212.712 69.7025ZM211.948 17.3596C212.373 17.043 212.626 19.592 212.693 17.0844C212.972 17.5601 213.119 18.3249 213.144 19.7925C213.037 20.028 212.931 20.2632 212.824 20.4987C213.11 20.5313 213.216 20.9089 213.419 21.7336C213.419 21.7343 213.419 21.735 213.418 21.7358C213.439 23.9669 213.344 23.8335 212.875 24.3701C213.14 22.0081 212.711 21.9375 212.456 20.3276C212.28 19.2219 212.36 17.7783 211.948 17.3596ZM42.5702 87.4841C40.9 87.8426 42.3989 88.1769 39.4354 87.7961C39.6265 87.705 39.8184 87.6147 40.0095 87.5236C40.8631 87.5096 41.7167 87.4965 42.5702 87.4841ZM211.986 8.80001C211.563 9.32994 211.711 10.9252 212.789 10.8951C212.409 9.22178 212.172 10.244 211.986 8.80001ZM200.676 86.7405C201.44 86.7484 201.968 86.8042 202.311 86.8889C203.11 87.0684 202.953 87.4289 202.311 87.7121C202.176 87.7745 202.021 87.8328 201.854 87.884C201.667 87.749 201.48 87.6138 201.298 87.4797C200.781 87.541 200.265 87.6023 199.749 87.6628C200.057 87.3556 200.367 87.0476 200.676 86.7405ZM160.948 3.85999C163.2 3.39055 158.517 3.59891 160.09 3.30582C161.346 3.07154 163.002 3.54455 162.375 3.84095C161.94 3.84923 161.456 3.85502 160.952 3.85999C160.951 3.85999 160.949 3.85999 160.948 3.85999ZM173.981 3.72572C173.611 3.22415 174.144 3.37035 172.365 3.46059C171.857 3.48626 167.819 3.29789 169.514 3.71351C170.957 3.71351 172.481 3.72075 173.981 3.72572ZM166.609 87.4743C166.582 87.2559 169.691 86.7763 170.09 86.8962C170.09 86.8959 170.09 86.8956 170.09 86.8952C171.168 87.2223 167.888 87.2687 169.31 87.7175C166.16 87.3226 165.217 88.2777 165.437 87.0193C167.293 86.9641 166.414 87.2235 166.609 87.4743ZM2.81746 10.3695C2.81802 10.3681 2.81857 10.3667 2.81913 10.3654C2.69309 10.5352 1.90494 12.1934 1.86742 11.972C2.54925 9.83845 2.59752 10.3268 3.3216 8.35684C3.47745 8.32177 3.621 8.30193 3.78145 8.2677C3.39009 8.97276 3.27605 9.40824 2.81746 10.3695ZM26.8615 87.0486C27.6217 86.9914 29.009 87.2282 29.875 87.2141C27.1187 88.1231 23.8249 87.2754 26.8615 87.0486ZM58.4738 3.50405C58.476 3.50372 58.4782 3.5034 58.4803 3.50307C58.4797 3.50357 58.4788 3.50404 58.4781 3.50454C58.4767 3.50437 58.4753 3.50421 58.4738 3.50405ZM85.773 87.5939C85.675 87.5349 85.6196 87.4837 85.5997 87.4387C85.5997 87.4344 85.5997 87.4302 85.5997 87.426C85.6527 87.4812 85.7091 87.5371 85.773 87.5939ZM160.146 87.5402C158.851 87.2356 163.166 86.7513 164.561 86.8669C164.464 87.006 164.449 87.132 164.221 87.2917C163.095 86.9317 160.362 87.5916 160.146 87.5402ZM212.87 36.3656C212.861 39.7765 211.659 35.3375 212.618 35.1546C212.637 35.1614 212.868 36.2775 212.87 36.3656ZM187.045 87.4143C187.914 87.0501 186.167 86.9534 188.96 87.0163C189.122 87.1107 189.285 87.2052 189.447 87.2995C188.647 87.3376 187.845 87.3762 187.045 87.4143ZM211.291 58.7101C211.494 63.003 211.851 67.1087 212.856 64.3125C212.823 63.9876 212.792 63.6581 212.76 63.3332C212.27 63.2845 212.537 62.0855 212.553 60.3306C212.359 60.0804 212.314 59.1072 212.149 58.9246C211.829 58.5714 211.604 59.6897 211.291 58.7101ZM81.2581 4.45371C81.3272 4.37009 81.3948 4.28603 81.4639 4.20323C82.1428 4.10885 82.8236 4.01492 83.5025 3.92053C83.3928 4.08101 83.2829 4.24148 83.1732 4.40195C82.5352 4.41933 81.9004 4.43682 81.2624 4.4542C81.261 4.45403 81.2595 4.45387 81.2581 4.45371ZM124.452 86.3557C124.062 87.2761 125.425 87.1066 128.189 86.6414C126.945 86.5461 125.696 86.4509 124.452 86.3557ZM193.516 4.878C193.426 4.61652 193.338 4.35584 193.245 4.09435C191.777 4.36674 192.05 4.6662 192.753 5.01227C193.009 4.96761 193.26 4.92267 193.516 4.878ZM172.376 4.98933C172.984 5.04388 172.674 4.83275 172.737 4.83699C174.278 4.94793 174.495 5.04478 176.386 4.88582C176.617 4.83036 176.845 4.77204 177.077 4.71493C176.203 4.16701 175.568 4.46563 173.719 4.14367C174.052 4.33161 174.384 4.51981 174.718 4.70858C173.689 4.66885 172.665 4.62966 171.637 4.58993C171.515 4.64789 171.393 4.70531 171.271 4.76326C171.637 4.83775 172.014 4.92146 172.376 4.98933ZM73.407 4.21593C72.4069 4.1944 71.4022 4.17203 70.4021 4.1505C70.3655 4.28544 70.3304 4.4213 70.2938 4.55624C71.3302 4.44284 72.3706 4.32933 73.407 4.21593ZM103.919 86.7751C103.84 86.823 103.762 86.8712 103.694 86.9201C103.7 86.8605 103.787 86.8139 103.919 86.7751ZM4.74851 8.4493C5.46124 7.62807 6.5852 6.52398 7.64098 5.96055C7.34257 5.62653 4.91637 7.60718 4.22076 8.4981C4.16992 8.68124 4.44388 8.79265 4.74851 8.4493ZM204.706 86.4787C204.939 86.2469 205.153 86.0077 205.349 85.7627C205.965 85.5715 206.565 85.3158 207.136 84.9974C207.082 84.8688 207.026 84.7397 206.97 84.6118C204.597 86.0324 204.926 85.2758 203.629 85.1895C203.95 85.6377 204.306 86.0696 204.706 86.4787ZM41.5866 5.09284C43.7859 4.99928 44.5661 4.82454 43.3262 4.40977C42.55 4.50495 41.7691 4.60022 40.993 4.6954C41.1921 4.82783 41.3915 4.9604 41.5866 5.09284ZM63.864 86.4627C62.0235 86.6176 61.993 86.061 60.1941 86.3718C61.1573 86.4745 62.1205 86.5783 63.0797 86.6809C63.3389 86.6083 63.6048 86.5352 63.864 86.4627ZM154.13 84.9339C153.354 84.7403 151.902 85.6608 149.719 84.9813C149.199 85.1841 148.873 85.3778 148.426 85.5765C148.166 85.3604 147.87 85.1415 147.622 84.9271C147.621 84.9271 147.619 84.9271 147.618 84.9271C145.638 84.9999 146.922 85.271 146.877 85.5003C146.856 85.5954 145.387 85.4364 145.846 85.6434C146.639 85.9985 149.601 85.7943 149.609 86.2273C148.568 86.0858 146.536 86.2041 147.137 86.4929C147.795 86.81 149.711 86.2786 150.93 86.5417C149.183 85.8497 152.792 86.0634 153.203 86.595C155.321 86.1868 153.374 86.0203 151.203 86.0393C152.529 85.632 150.578 85.8521 150.257 85.5135C151.623 85.3091 156.313 85.4795 154.13 84.9339ZM211.126 40.8306C211.152 42.2945 210.919 44.5815 211.263 45.5837C211.463 46.1675 211.618 43.8751 211.933 45.4559C211.902 44.0296 211.779 43.7042 211.504 43.9481C211.47 43.623 211.438 43.2939 211.406 42.9689C211.46 42.8185 211.513 42.6643 211.567 42.5139C211.453 42.3432 211.341 42.1715 211.227 42.0048C211.25 41.6595 211.272 41.3102 211.295 40.9649C211.238 40.9243 211.188 40.8551 211.126 40.8306ZM11.0758 86.388C11.4634 86.4384 11.8505 86.4649 12.2401 86.4675C12.1981 86.3997 12.149 86.3286 12.1031 86.2581C12.0702 86.2025 12.0381 86.1467 12.0065 86.0908C12.0573 86.1404 12.202 86.2021 12.4092 86.2554C13.0878 86.4205 14.3447 86.5672 14.9613 86.4099C15.3714 86.3056 14.4382 85.9351 16.1767 85.8704C14.9168 85.8894 13.7497 85.94 12.5263 85.9715C12.636 85.8613 12.7415 85.7501 12.8512 85.6399C12.8505 85.6398 12.8498 85.6396 12.8491 85.6395C12.7029 85.6305 12.5561 85.6214 12.4092 85.6123C12.1781 85.596 11.9517 85.5708 11.7261 85.5374C11.5267 85.8283 11.3109 86.1122 11.0758 86.388ZM194.707 5.39507C196.093 5.17898 196.558 5.06676 195.903 4.71737C195.902 4.7172 195.9 4.71704 195.899 4.71688C195.382 4.87168 194.866 5.02642 194.35 5.18121C194.468 5.25241 194.585 5.32387 194.707 5.39507ZM91.9777 85.6219C89.0303 86.949 95.6678 86.1355 94.404 85.6834C94.3471 85.6627 92.2541 85.7684 91.9777 85.6219ZM200.134 86.3323C200.858 86.3227 201.584 86.3139 202.311 86.3044C202.392 86.3033 202.473 86.3011 202.553 86.298C202.472 86.2261 202.39 86.1533 202.311 86.0796C202.207 85.9905 202.104 85.9015 202.002 85.8123C201.38 85.9853 200.756 86.1592 200.134 86.3323ZM51.1621 5.69535C52.0136 6.05964 54.1994 6.19163 55.2675 5.79544C54.7065 5.74907 54.1452 5.70265 53.5842 5.65629C54.6448 5.61077 55.6936 5.56066 56.7623 5.51762C56.8193 5.01009 55.5875 5.30453 53.7337 5.16461C53.4467 5.14205 51.6117 4.51206 50.978 4.98689C50.8505 5.08448 52.8026 5.15084 51.446 5.43462C52.0392 5.45695 52.5512 5.452 53.1119 5.4644C53.1526 5.58528 53.1929 5.7063 53.2376 5.82718C52.5442 5.78341 51.8555 5.73911 51.1621 5.69535ZM211.165 49.3533C211.137 51.3641 211.34 51.6124 211.698 52.031C211.658 51.096 211.618 50.1605 211.577 49.2255C211.44 49.2701 211.303 49.3087 211.165 49.3533ZM69.1348 5.81155C70.2356 5.87017 69.7641 5.57845 70.2072 5.52299C71.8819 5.31439 73.0243 5.52288 74.6787 5.39214C74.5689 5.44844 74.4681 5.50106 74.3624 5.5557C74.3638 5.5557 74.3652 5.5557 74.3667 5.5557C82.2004 5.80157 78.0857 5.13998 73.3983 5.24761C73.2886 5.13915 73.1831 5.03056 73.0734 4.92292C70.9757 5.11251 69.0413 5.29494 69.1348 5.81155ZM118.163 85.5765C118.074 85.5086 118.834 85.0771 117.407 85.2791C116.277 85.909 118.13 85.5964 118.594 85.8387C118.208 85.8991 117.813 85.9579 117.431 86.0183C119.74 86.1963 120.077 86.0466 119.236 85.5862C119.176 85.5553 118.253 85.6441 118.163 85.5765ZM102.987 85.2659C102.67 86.1941 105.584 85.7767 105.479 85.4886C105.077 85.4771 104.764 85.6342 104.337 85.5647C103.906 85.4952 103.796 85.2784 102.987 85.2659ZM186.479 85.493C186.394 85.4888 185.536 85.0988 185.621 85.4041C186.682 86.1269 188.82 85.6617 188.446 85.41C187.739 85.4224 187.268 85.5309 186.479 85.492C186.479 85.4923 186.479 85.4926 186.479 85.493ZM37.8993 5.91409C37.9399 5.93998 40.0799 6.09677 40.356 5.95119C40.5836 5.78729 40.6966 5.61163 40.8673 5.44194C39.6883 5.59925 37.302 5.47942 37.9036 5.91409C37.9022 5.91409 37.9007 5.91409 37.8993 5.91409Z" fill="#000F55"/>
</svg>
