<svg width="80" height="166" viewBox="0 0 80 166" fill="none" xmlns="http://www.w3.org/2000/svg">
<path d="M71.0159 11.5427C70.3599 10.2113 68.9542 8.75275 67.542 8.14393C67.1045 7.95101 67.3963 7.82064 67.0762 7.69016C66.5608 7.49371 66.0323 7.48634 65.4949 7.45763C65.3019 7.45092 65.1076 7.43953 64.9112 7.42075C64.5708 7.38716 64.9945 7.0513 64.6375 7.02378C62.6816 6.87535 60.8312 6.96089 58.8497 6.8895C49.0899 6.53726 39.4962 6.41118 29.617 6.25815C26.3595 6.20798 22.3997 5.90318 19.0351 6.03648C18.6423 6.05234 18.8765 6.34714 18.8017 6.37144C17.6297 6.7434 18.0194 6.14826 17.2541 6.06919C16.1993 5.96077 15.1035 5.88673 14 5.84103C12.2944 5.74254 10.566 6.34337 9.33926 7.30535C8.55925 7.9525 9.70991 7.78699 8.74639 8.16673C8.67901 8.19775 8.66074 7.792 8.43117 7.95526C7.89255 8.31815 7.17769 9.31614 6.92044 9.73635C6.40557 10.5408 6.34392 10.6981 6.05237 11.5548C5.82191 12.2829 5.61994 13.1264 5.59214 14C5.57396 14.6381 5.56797 15.2762 5.59509 15.8889C5.61116 16.231 5.93208 15.7781 5.98669 16.3237C6.04121 16.8697 6.014 18.3143 5.93835 18.8013C5.86266 19.2884 5.61042 19.081 5.55261 19.1672C5.06462 19.8764 5.74048 21.5474 5.75719 21.7623C6.04199 25.6823 5.65698 29.0439 5.65807 32.7236C5.65972 35.517 5.78683 38.5039 5.7694 41.1619C5.74739 44.3285 5.57349 47.0123 5.60339 50.0887C5.60617 50.4133 5.9835 50.0329 5.98766 50.4294C6.03157 54.6423 5.99044 58.8259 5.73571 63.0206C5.70983 63.4413 5.37854 62.8991 5.33288 63.3194C5.06062 65.8926 4.40659 69.9642 5.84899 71.4925C5.79267 73.2355 5.73447 75.3516 5.44372 76.911C5.25658 77.9164 4.89568 76.9399 5.04968 78.175C5.08399 78.4535 5.40005 78.0913 5.42761 78.509C5.54331 80.2678 5.44057 82.1893 5.60387 83.9292C5.63783 84.2831 5.92104 84.1865 5.97204 84.2868C6.38505 85.1295 5.70231 86.5324 5.6527 86.8382C5.28275 89.1671 5.42834 90.8678 5.4193 93.0373C5.41705 93.5407 5.79746 92.9456 5.80895 93.4301C5.86347 95.9426 5.83078 98.5454 5.66198 101.006C5.62352 101.553 5.29948 101.05 5.26452 101.311C5.11432 102.464 5.72635 102.72 5.59411 103.826C5.56702 104.059 5.28962 103.927 5.25915 103.97C4.7809 104.636 5.45854 105.214 5.4735 105.385C5.67792 107.551 4.9705 108.935 5.07067 111.027C5.08337 111.277 5.43437 110.713 5.4486 111.416C5.5455 116.103 5.44908 121.06 5.16833 125.699C5.12515 126.421 4.86148 125.906 4.82897 125.951C4.3211 126.691 5.00159 127.17 5.02722 127.405C5.21169 129.26 4.64102 130.994 5.45153 132.254C5.22584 138.56 5.47428 144.842 5.20615 151.105C5.13947 152.466 5.3541 153.846 5.85233 155.164C5.88587 155.249 5.51137 155.252 5.58221 155.425C6.55825 157.465 6.86393 156.82 8.23333 157.336C8.55834 157.446 8.93585 158.683 9.01548 158.786C9.20762 159.155 8.62241 159.373 8.70493 159.474C9.48046 160.294 10.1032 158.789 11.2345 159.218C11.2716 159.233 11.0144 159.466 11.1062 159.529C11.3981 159.73 11.7539 159.704 12.0535 159.877C12.6853 160.233 12.9378 161 14 160.747C14.0842 160.726 14.173 160.699 14.267 160.665C14.4312 160.604 14.1805 159.669 15.4789 159.713C15.9966 159.732 18.288 159.716 18.9301 159.776C19.5716 159.837 19.1312 160.138 19.1769 160.151C20.9051 160.55 20.2498 160.715 21.1157 161.305C21.9814 161.893 21.7414 160.491 22.0943 160.334C22.4479 160.178 23.7149 160.507 24.0264 160.621C24.3376 160.736 23.9494 160.927 24.2261 160.992C26.0611 161.415 25.0315 160.296 25.6361 160.074C27.0616 159.547 28.1718 160.586 29.4768 160.688C29.8299 160.716 29.5417 160.479 29.8561 160.457C31.1014 160.372 31.8503 160.697 33.267 160.399C33.4988 160.351 34.6441 159.726 35.3854 160.184C35.4904 160.251 35.1921 160.51 35.7228 160.568C36.5156 160.655 37.9441 160.711 38.7963 160.625C39.4255 160.561 38.7043 160.134 39.4963 160.266C39.8483 160.326 39.196 160.575 39.8572 160.666C40.515 160.756 42.1968 160.745 42.8367 160.737C43.4755 160.728 43.1259 160.404 43.1775 160.382C43.4899 160.257 44.7158 160.101 44.8242 160.101C50.2887 160.062 55.3279 160.608 60.6483 160.427C61.0659 160.413 60.7878 160.072 60.8515 160.066C62.2808 159.923 61.1539 160.831 62.1524 161.135C62.0081 160.442 62.5975 160.568 63.6044 160.492C64.0895 160.454 63.8253 160.186 63.8696 160.159C64.5891 159.751 65.0901 160.277 65.2192 160.385C65.3101 160.461 65.4026 160.505 65.4949 160.529C65.8716 160.63 66.2187 160.34 66.4827 160.527C66.8265 160.75 66.1293 161.235 67.0952 161.1C67.312 160.812 66.548 160.283 67.1961 160.066C69.6789 159.513 73.5579 156.582 74.1592 154.445C74.798 152.808 74.7703 152.025 74.843 151.105C74.8511 150.93 74.8615 150.749 74.875 150.555C75.0371 148.219 74.5561 149.075 74.3359 147.624C74.1158 146.169 75.2992 146.876 75.5537 146.667C75.808 146.462 75.5462 146.238 75.686 145.982C75.8258 145.728 75.9987 146.279 76.0512 145.68C76.1037 145.081 75.6512 143.443 75.3852 143.231C74.8216 142.782 74.2301 143.52 74.4379 141.935C74.4503 141.844 74.7615 142.14 74.7929 141.791C75.0325 139.019 75.0473 136.138 75.2592 133.369C75.2889 132.989 75.635 133.329 75.6562 133.108C75.8776 130.8 75.2939 131.625 74.6455 130.36C75.5084 130.644 76.0364 129.944 76.0415 128.193C76.0448 127.14 75.6679 127.321 75.4023 126.64C75.3222 126.436 75.581 125.69 75.4038 125.556C74.8244 125.11 74.1758 125.812 74.434 124.006C74.4463 123.927 74.7635 124.179 74.7827 123.905C74.9084 122.136 74.3024 121.924 74.229 120.011C74.1714 118.512 74.5409 115.845 74.601 114.138C75.5712 114.174 75.3491 112.561 74.6801 111.907C74.7075 110.799 74.6697 109.602 74.7622 108.531C74.7937 108.163 75.0746 108.405 75.1049 108.358C75.5811 107.646 74.9303 107.164 74.9047 106.925C74.6567 104.333 75.15 102.221 74.6679 99.7471C74.6506 99.6593 73.9766 99.517 74.4687 98.8557C74.5026 98.8129 74.8093 99.63 74.833 98.4663C74.8567 97.3024 75.218 95.1084 74.9057 93.4926C74.8305 93.1016 74.2834 92.1126 74.7109 91.3188C74.7689 91.213 74.9622 91.3288 75.0698 91.1761C75.4125 90.6826 74.7313 90.4132 75.31 89.8332C75.8887 89.2532 76.3221 88.0468 75.9228 86.4173C75.9112 86.3654 75.3713 85.9797 75.3798 85.4672C75.3939 84.6491 75.5064 83.4879 75.5029 82.6337C75.501 82.2247 75.1658 82.4865 75.1596 82.4155C74.9718 79.6657 75.2706 77.7086 75.4003 74.7628C75.4248 74.2228 74.9676 72.6709 75.3291 71.6255C75.7247 70.4776 77.3706 71.6572 76.9785 69.0186C76.8216 67.9544 74.7335 66.6071 75.8154 64.6946C75.5473 60.9854 76.101 57.5552 75.7182 53.8357C75.7013 53.6684 75.1185 53.1395 75.1264 52.7463C75.1393 52.1625 75.4117 51.8421 75.4296 51.4252C75.5117 49.6786 75.2787 48.0802 75.3149 46.3962C75.3281 45.7568 75.6097 45.9804 75.6254 45.2178C75.6409 44.4557 75.2701 43.9475 75.4492 42.9147C75.5857 42.1348 76.3437 41.3549 76.4321 40.3196C75.6844 40.2802 75.6998 39.5691 75.5024 38.3053C75.4641 38.0624 75.2039 38.3229 75.1723 38.208C75.0382 37.7403 75.2539 37.3075 75.1079 36.8634C75.0728 36.7554 74.8175 36.7503 74.7744 36.662C74.3983 35.911 74.9727 34.6738 75.0727 34.4613C75.4525 33.6469 75.1204 33.2664 75.27 32.6417C75.4195 32.0181 75.6065 32.9506 75.6972 32.2221C75.8849 30.7121 75.8437 28.7719 75.8554 27.2383C75.8585 26.6264 75.5177 27.0439 75.5102 26.9563C75.4238 25.691 75.7863 24.4115 75.1074 23.7099C76.8629 22.8326 74.9371 22.9469 75.2885 21.1383C75.317 20.9958 76.1471 20.8146 76.269 21.3615C76.3908 21.9085 76.1313 22.7379 76.3212 23.4967C76.3658 23.6764 77.1437 24.7059 77.1909 24.8463C77.5591 25.9465 76.3186 26.1024 76.2504 26.1607C75.5151 26.8207 76.3532 28.0787 76.4111 28.41C76.6764 29.9255 76.502 31.213 76.6914 32.4806C76.8138 33.3096 77.6264 33.3907 77.6015 34.0417C77.5193 36.2057 76.3857 36.961 77.3686 39.0003C77.5782 39.4375 78.4664 39.003 77.768 40.5697C77.724 40.6682 77.0851 41.8314 77.4892 42.5035C77.5402 42.5879 77.799 42.5852 77.8207 42.6965C77.9614 43.4426 77.7552 43.9401 77.854 44.7528C77.9527 45.5654 78.0999 46.5426 78.0122 47.4705C77.9597 48.0296 77.4774 48.7471 77.3593 49.0148C77.0192 49.7706 77.5769 50.581 77.165 51.0492C76.751 51.5214 76.1224 50.5983 75.8549 51.8365C76.5274 51.8823 77.2177 51.9877 77.894 52.0614C77.8703 54.7749 77.6529 57.4448 77.6826 60.1674C77.6869 60.5049 78.0485 60.1597 78.0624 60.5216C78.1199 62.0482 77.8622 63.3816 77.9648 64.9648C78.0456 66.1903 78.4284 67.5341 78.5248 68.8155C77.7553 69.5983 78.0166 71.4998 77.9462 72.8811C77.9219 73.365 77.7164 73.3326 77.6494 73.6767C77.4014 74.9749 78.0814 74.3666 78.1884 74.7225C78.6452 76.2495 77.106 76.3802 77.144 78.1804C77.1455 78.2758 77.9659 79.4416 78.017 79.6022C78.3502 80.6225 77.7315 79.7711 77.6708 80.4096C77.5601 81.5754 77.3641 82.3855 77.6044 83.7534C77.6756 84.1522 78.187 85.109 77.7915 85.8835C77.7397 85.9854 77.4685 85.9291 77.4526 86.0111C77.1879 87.4956 78.04 87.5347 78.3286 88.3829C78.6171 89.2314 78.0289 90.5418 77.8593 90.8085C77.4207 91.5062 77.6719 90.2739 77.6289 90.2361C77.1167 89.7923 77.2049 90.748 77.1616 91.4783C76.3261 91.584 76.3762 92.6052 77.1201 92.2353C77.2013 92.1932 77.1234 91.6249 77.1616 91.4783C77.9813 92.1193 78.0863 93.2416 77.3203 94.4813C76.9612 95.0615 76.5426 94.513 76.6958 96.2757C76.7649 97.0757 77.3402 96.7666 77.497 97.4725C77.8549 99.0854 77.3182 101.181 77.4028 102.844C77.4335 103.448 77.7484 102.86 77.7802 103.272C77.8657 104.367 77.6294 105.332 77.7504 106.431C77.7618 106.531 78.0915 106.287 78.0957 106.629C78.1339 109.221 77.9228 111.477 77.9169 114.183C77.9143 115.49 78.0961 117.828 78.0595 119.182C77.9981 121.529 77.5188 124.417 77.6352 126.422C77.7097 127.729 78.0395 127.443 78.2641 128.003C78.6996 129.084 77.9196 130.998 77.7988 131.256C77.7948 131.264 77.7171 130.139 77.5478 130.739C77.1951 131.088 77.7972 131.243 77.7988 131.256C77.7208 131.425 77.6459 133.673 77.7089 134.12C77.7434 134.362 78.0558 134.227 78.0678 134.353C78.3474 137.359 78.4268 140.37 78.2807 143.419C78.2744 143.473 77.925 143.392 77.9145 143.518C77.7591 145.283 78.1866 146.413 78.4404 147.869C78.6716 149.196 78.6215 150.272 78.1566 151.105C78.1114 151.207 78.0611 151.306 78.0058 151.4C78.0826 152.787 77.3731 154.695 76.7858 155.636C76.2174 156.58 76.7108 157.013 76.6807 157.115C75.453 160.082 73.6671 161.277 70.7492 162.644C69.5697 163.203 67.2426 163.87 65.4949 163.887C65.233 163.9 64.9902 163.913 64.776 163.925C63.7259 163.985 63.0932 163.825 62.1255 163.927C61.9946 163.941 62.1268 164.244 62.0869 164.255C61.0069 164.618 61.526 163.877 61.303 163.745C60.4946 163.264 59.9952 163.008 58.6122 163.234C58.2932 163.286 57.364 164.352 56.7825 164.414C56.0265 164.494 56.3118 164.111 55.5202 164.204C55.4525 164.212 55.4666 164.447 54.978 164.437C52.7102 164.392 50.2377 164.255 47.8809 164.278C47.559 164.28 47.9717 164.654 47.5066 164.664C45.3241 164.708 42.9319 164.694 40.8056 164.519C40.2823 164.475 40.6104 164.213 40.4968 164.136C39.7993 163.665 38.8101 164.349 38.647 164.362C34.7539 164.69 31.7744 164.072 27.8066 164.366C27.5906 164.383 25.928 165.116 25.1863 164.488C25.1355 164.446 24.4016 163.803 23.7528 164.243C23.7124 164.27 24.1697 164.601 23.3717 164.567C22.5737 164.534 21.2894 164.755 20.1924 164.391C19.8451 164.276 19.0244 163.635 17.9884 164.146C17.9209 164.182 16.3217 165.338 15.7509 164.54C15.6583 164.409 15.7552 163.565 14.5188 163.998C14.2826 164.082 14.7114 164.27 14.0891 164.388C14.0597 164.393 14.03 164.398 14 164.403C12.7347 164.562 11.1534 164.149 9.58761 163.987C9.31865 163.974 7.93018 164.055 7.28358 163.183C7.1869 163.05 7.56669 162.945 7.15418 162.669C5.21808 161.359 3.31624 159.665 2.34418 157.471C2.01768 156.699 2.60831 156.873 2.37784 156.064C2.13649 155.253 1.80942 153.647 1.51324 152.815C1.21044 151.967 0.564818 153.028 0.416118 151.642C0.401714 151.464 0.39135 151.285 0.385059 151.105C0.178195 146.76 0.581037 142.452 0.641488 138.111C0.650791 137.448 0.391049 137.998 0.386118 137.02C0.366794 133.415 0.123258 127.192 0.675179 124.064C1.11724 121.558 1.45378 124.712 1.63367 122.797C1.71949 121.873 0.875575 120.873 0.849007 120.65C0.579127 118.471 0.95296 116.956 0.838265 114.995C0.814465 114.59 0.472419 114.987 0.455942 114.643C0.396624 113.465 0.549297 112.228 0.521371 111.102C0.508056 110.598 0.246815 110.691 0.266978 110.226C0.312213 109.115 0.422027 108.132 0.666879 107.049C0.68919 106.95 1.01417 107.616 1.02625 106.793C1.04489 105.463 1.28644 103.811 1.03699 102.28C0.961957 101.825 0.364895 101.808 0.77723 100.831C0.86335 100.626 1.58029 100.888 0.960823 99.75C0.857882 99.5587 0.022333 97.6478 0.560922 96.7101C0.702672 96.4627 1.28935 95.8312 1.19715 95.2849C1.18244 95.2108 0.861734 95.5076 0.830452 95.055C0.725786 93.4595 0.760003 91.7875 0.659554 90.1484C0.632097 89.7107 0.300233 90.3626 0.269907 89.7103C0.186025 87.9164 0.270524 85.6767 0.374399 83.9225C0.413326 83.2758 0.688232 83.7228 0.718148 83.6757C1.20475 82.919 0.54795 82.4715 0.509653 82.2204C0.280331 80.6583 0.588856 79.4688 0.507211 78.0289C0.485512 77.6316 0.172344 77.9133 0.144419 77.8342C-0.128423 77.0139 0.433987 77.625 0.495981 77.1057C0.671519 75.6511 0.64635 74.0294 0.606332 72.5584C0.591173 72.018 0.228047 72.6253 0.218638 72.1404C0.156065 69.2703 0.190812 66.2866 0.391001 63.4856C0.429353 62.9581 0.70897 63.29 0.772835 63.1801C1.21965 62.4225 0.610189 61.3121 0.552133 61.0566C0.28705 59.895 0.534322 59.4438 0.488168 58.4179C0.258376 53.4064 0.422147 47.2185 0.523324 42.488C0.65354 36.3236 0.919546 31.5401 0.850472 25.6617C0.846432 25.2881 0.474454 25.6648 0.466196 25.3428C0.384251 21.5429 0.498573 17.7969 0.436893 14C0.431087 13.5152 0.449238 13.0304 0.49168 12.5456C0.538501 12.08 0.101797 12.7142 0.17808 11.9533C0.333529 10.3838 1.01895 8.44784 1.91781 7.13785C2.35247 6.50373 2.09264 7.53456 2.5243 6.90992C3.54071 5.47474 4.83643 4.12339 6.26899 3.04687C6.88777 2.59252 5.71569 2.94871 6.55851 2.38214C8.7603 0.946132 11.3939 0.166779 14 0.182652C17.1068 0.197525 20.2129 0.283436 23.3742 0.573602C23.7231 0.605678 24.0292 1.33868 24.7708 1.19811C24.8267 0.994684 24.8237 0.75539 24.8481 0.537958C32.1781 0.42083 39.4333 0.674938 46.784 0.714227C47.0939 0.7158 46.5583 0.327419 47.1583 0.328486C50.631 0.334227 54.0033 0.226635 57.5555 0.612664C57.908 0.650417 57.7272 1.33367 58.7658 1.23034C58.949 1.21148 60.5133 1.12036 60.9178 0.972038C60.9727 0.949666 60.6873 0.630748 61.1914 0.621453C62.6039 0.598101 64.0491 0.602938 65.4949 0.636057C67.5623 0.666437 69.626 1.23405 71.3634 2.21922C71.8998 2.53053 71.1619 2.53044 71.5323 2.75432C74.1221 4.30023 76.571 6.82301 77.2576 9.67067C77.6533 11.5471 76.8523 11.0416 76.484 12.0513C76.4393 12.1914 76.5452 13.2348 76.201 13.3056C75.3656 13.4736 74.4112 13.1177 73.5258 13.3598C73.348 13.4076 73.5716 14.3991 73.0945 13.8185C73.0694 13.7762 72.8661 13.0941 72.677 12.9609C72.5518 12.8672 72.2427 13.1082 72.0706 12.9166C71.8976 12.7343 72.1337 12.4415 71.8756 12.1415C71.6089 11.8576 71.3037 12.1124 71.0159 11.5427ZM73.5515 159.233C72.6447 159.643 73.3008 160.656 73.9149 159.694C73.9428 159.645 73.5981 159.209 73.5515 159.233ZM76.7504 57.4296C76.2228 58.5271 76.9987 59.2781 77.4062 58.5039C77.8133 57.7297 76.9104 57.0952 76.7504 57.4296ZM76.3652 46.0487C75.9491 47.3314 77.6456 47.5333 77.3027 46.1595C77.2833 46.0796 76.3893 45.9737 76.3652 46.0487ZM74.8606 8.23904C74.8592 8.25549 75.214 8.91041 75.2307 8.92161C75.769 9.10307 75.0379 7.74396 74.8606 8.23904ZM75.9458 34.7551C75.7163 35.1555 75.9812 36.3085 76.2666 35.8109C76.4961 35.4104 76.2312 34.2564 75.9458 34.7551ZM29.512 161.272C29.4988 161.254 29.0121 161.238 29.0219 161.339C29.0549 161.664 29.7322 161.572 29.512 161.272ZM75.9262 15.5603C75.8624 18.3962 74.461 20.1157 74.6191 17.0274C74.6477 16.4681 75.066 18.2327 75.1923 17.5209C75.4225 16.2184 74.5426 15.3536 75.0141 14.0244C75.1004 13.7838 75.933 15.3986 75.9282 15.5653C75.9275 15.5637 75.9269 15.562 75.9262 15.5603ZM72.1882 158.545C72.1684 158.548 71.6436 158.969 71.6371 158.987C71.5801 159.528 72.6824 158.65 72.1882 158.545ZM4.9423 153.73C4.93731 153.691 4.67837 152.25 4.6696 152.201C4.32284 151.846 4.19187 152.428 4.29702 153.02C4.39793 153.613 4.72748 154.142 4.9423 153.73ZM74.6269 114.111C74.2448 113.376 74.1998 112.496 74.6796 111.91C74.6542 112.641 74.6504 113.376 74.6269 114.111Z" fill="#000F55"/>
</svg>
