<svg width="341" height="78" viewBox="0 0 341 78" fill="none" xmlns="http://www.w3.org/2000/svg">
<path d="M79.2167 0.905876C77.4195 0.545109 83.419 0.7816 79.4351 0.242823C80.2658 0.206421 81.1018 0.168878 81.9325 0.132477C82.1432 0.33201 82.359 0.531058 82.5697 0.730592C81.4541 0.789348 80.3379 0.848096 79.2167 0.906852C79.2167 0.906527 79.2167 0.906201 79.2167 0.905876ZM77.6934 3.40478C78.7158 2.83566 81.9642 2.68393 78.455 2.15874C78.1761 2.35406 77.8904 2.54933 77.6115 2.74465C76.3931 2.59317 75.1673 2.44172 73.9489 2.29106C73.5108 2.36552 73.0732 2.44007 72.635 2.51371C72.0771 2.1743 71.5241 1.83397 70.9661 1.49374C71.4615 1.54341 71.9637 1.59396 72.4591 1.64363C74.4176 1.36801 76.1603 1.29263 78.8192 1.24131C78.5857 1.161 78.3517 1.0814 78.1182 1.00109C79.4676 1.13768 80.8163 1.27462 82.1601 1.41122C80.993 1.54531 79.6883 1.69443 78.6067 1.8194C80.3375 2.35158 83.3901 2.0554 84.979 1.9444C87.1427 1.79289 86.6538 2.04594 88.2592 1.94C88.5154 1.92345 88.5446 1.7251 89.0512 1.72175C91.6079 1.70602 96.5736 1.81115 93.6696 2.27397C89.4615 2.21436 85.8727 2.58602 81.7443 2.45023C82.8364 2.98538 80.6615 3.16749 77.6934 3.40478ZM154.998 1.70076C153.723 1.96067 151.126 1.85578 149.366 1.67537C149.364 1.67537 149.362 1.67537 149.36 1.67537C148.973 1.63563 148.096 1.29022 149.36 1.30429C151.421 1.32841 152.417 1.87213 153.499 1.50301C153.983 1.57173 154.491 1.63287 154.998 1.70076ZM159.477 1.66853C160.741 1.80182 160.168 2.21152 158.585 2.10064C158.585 2.10097 158.585 2.10129 158.585 2.10162C157.924 2.05525 159.221 1.73142 156.852 2.06012C156.368 1.8044 155.892 1.57175 155.414 1.32431C155.994 1.32017 156.523 1.31346 157.131 1.31015C156.722 1.73048 158.213 1.53628 159.477 1.66853ZM95.8058 2.04254C96.0046 1.6644 95.1721 1.66679 93.7545 1.40439C95.0925 1.4168 96.4307 1.43005 97.763 1.44247C97.1084 1.64275 96.4603 1.84226 95.8058 2.04254ZM64.3723 1.98395C64.3703 1.98395 64.3683 1.98395 64.3663 1.98395C63.9279 2.04356 63.4881 2.10338 63.0554 2.16216C62.7934 2.02721 62.5345 1.89284 62.2725 1.75788C60.7237 1.88456 59.1666 2.01122 57.6177 2.13872C57.8059 1.72649 60.5862 1.79356 62.1178 1.50546C64.3952 1.62965 65.4927 1.86894 65.6407 2.21831C65.2196 2.14052 64.7993 2.06174 64.3723 1.98395ZM302.672 75.4709C302.154 75.5851 301.642 75.6994 301.124 75.8136C301.813 75.8658 302.496 75.9055 303.191 75.966C305.007 75.4693 305.178 75.9086 307.557 75.8781C314.852 75.7837 312.916 75.0122 319.504 76.1422C314.215 76.0885 316.247 76.6194 313.059 77.0284C312.398 76.7171 315.558 76.015 313.417 75.8693C309.728 76.1988 306.18 76.5056 302.086 76.7184C302.206 76.7722 302.325 76.8262 302.444 76.88C303.094 76.846 303.737 76.8119 304.386 76.7779C303.686 76.922 303.001 77.0648 302.29 77.2105C303.189 76.8835 300.897 77.0662 301.203 76.6905C301.34 76.5233 302.353 76.2913 302.951 76.1315C301.408 76.0446 299.826 75.9649 298.266 75.8805C299.074 75.7473 299.882 75.6139 300.684 75.4806C301.345 75.4765 302 75.4735 302.66 75.4694C302.664 75.4699 302.668 75.4704 302.672 75.4709ZM0.919926 38.1092C1.30906 40.068 1.37345 43.6276 0.940433 45.501C0.93381 43.0354 0.92655 40.5748 0.919926 38.1092ZM65.7894 2.50638C65.5676 2.44023 65.3527 2.37479 65.131 2.30864C66.1101 2.18613 67.0952 2.06447 68.0743 1.94196C68.2622 2.13313 68.4543 2.32434 68.6478 2.51468C67.6972 2.5122 66.7401 2.50887 65.7894 2.50638ZM128.438 2.2935C127.721 2.30507 127.658 2.2988 126.766 2.27153C126.767 2.27169 126.768 2.27186 126.769 2.27202C126.415 2.26183 123.456 2.15017 123.786 2.00299C125.255 2.00051 126.822 2.00299 128.326 2.00299C128.371 2.09981 128.381 2.19586 128.438 2.2935ZM111.145 2.20757C111.143 2.20724 111.141 2.20692 111.139 2.20659C110.604 2.18423 110.097 2.13872 109.546 2.13042C111.532 1.89878 111.846 2.31438 113.651 2.19683C115.456 2.07844 116.571 1.84913 118.103 2.4185C117.533 2.50377 116.92 2.62577 116.334 2.72512C113.771 2.49747 113.081 2.71171 111.026 2.93605C111.066 2.69267 111.105 2.45095 111.145 2.20757ZM335.701 74.241C335.981 73.6793 336.614 73.4628 336.668 73.4147C336.667 73.4158 336.667 73.4168 336.666 73.4179C338.326 71.517 338.092 71.5513 338.076 71.7849C337.987 71.9675 338.088 72.3369 339.273 70.2139C339.016 70.8926 338.703 71.5451 338.325 72.1715C337.544 72.9958 336.621 73.6991 335.701 74.241ZM263.457 2.44926C263.417 2.36729 263.369 2.28514 263.329 2.20317C265.789 2.22222 266.417 1.89955 268.461 2.19341C266.793 2.2795 265.125 2.36497 263.457 2.45023C263.457 2.44991 263.457 2.44958 263.457 2.44926ZM140.836 2.88966C138.109 3.04614 136.091 3.11509 133.472 2.86672C133.47 2.86639 133.468 2.86607 133.466 2.86574C133.315 2.85045 134.045 2.67897 133.848 2.63577C133.308 2.66142 132.75 2.70085 132.204 2.73147C132.13 2.59415 132.059 2.45685 131.985 2.32036C133.522 2.35926 135.06 2.39814 136.603 2.43705C136.376 2.35674 136.142 2.27713 135.915 2.19683C137.224 2.15544 138.529 2.1142 139.838 2.07281C139.383 2.29793 138.928 2.5231 138.479 2.74905C139.264 2.79622 140.051 2.84166 140.836 2.88966ZM304.409 3.34618C303.976 3.25677 304.778 3.10679 304.106 3.02979C303.434 2.95377 302.195 3.12064 302.485 2.86818C303.39 2.83426 304.34 2.79536 305.262 2.75979C302.295 2.30455 299.336 2.71649 299.29 2.15435C302.137 2.30006 304.478 2.23237 307.234 2.07672C307.12 2.52293 304.364 2.90874 306.099 3.32763C305.542 3.33342 304.956 3.34189 304.415 3.34521C304.413 3.34553 304.411 3.34586 304.409 3.34618ZM25.9416 8.10181C24.2561 8.06786 20.3941 8.24997 18.2645 7.99C17.7406 7.92593 15.995 7.09602 16.0039 6.98663C16.0551 6.6182 18.1868 6.56806 15.9037 6.32797C16.6718 6.32548 17.4172 6.31165 18.1795 6.30502C18.0429 6.05747 17.9069 5.81057 17.776 5.56385C16.8478 5.60111 15.9185 5.63855 14.9904 5.67664C14.9448 5.59467 14.8994 5.51252 14.8538 5.43055C18.1908 5.4289 16.2208 5.11254 17.952 4.81779C16.3579 4.6688 14.752 4.52052 13.1637 4.37152C14.0803 4.38974 15.162 4.40322 15.9705 4.42474C16.0787 4.00502 14.1496 4.10509 13.8191 4.0273C11.9572 3.5877 21.4366 3.80957 22.2123 3.19873C20.6979 3.13086 19.1091 3.06462 17.5605 2.99757C18.0047 2.92223 18.4545 2.84684 18.8987 2.77151C22.4116 3.19281 26.3511 3.34206 30.4446 3.60447C30.8145 3.5871 31.1851 3.56926 31.5491 3.55272C31.4411 3.3632 31.3387 3.1744 31.2305 2.98487C31.7886 2.96252 32.3535 2.94034 32.9116 2.91798C31.2663 3.54219 33.5448 3.53368 36.295 3.91452C34.8318 4.13388 33.0268 4.00089 33.1513 4.40961C38.1731 4.09515 44.0542 4.53956 48.9393 4.18452C50.152 4.09678 50.1481 3.56952 52.9994 3.61814C52.9026 3.6761 52.8861 3.78073 52.8234 3.8569C57.7546 3.60438 60.7466 3.45342 65.8713 3.71091C65.5754 3.52141 65.2842 3.33111 64.9883 3.1416C63.9007 3.23599 62.8114 3.33187 61.7294 3.42626C60.9893 3.11333 62.0831 2.97522 58.8376 2.97853C56.1784 2.98101 57.7613 3.11918 57.0382 3.21191C56.059 3.33851 55.1996 3.08947 54.1464 3.23096C53.3321 3.33942 54.213 3.59762 52.0891 3.53221C52.9432 3.19772 53.8146 2.85233 54.6744 2.51371C55.1925 2.58905 55.7068 2.66555 56.2249 2.74172C55.7011 2.83114 55.1861 2.91938 54.6622 3.0088C56.507 2.84819 58.2502 2.69671 60.1576 2.53031C59.5368 3.01382 61.5085 2.83254 62.579 2.77541C64.2466 2.68609 62.8179 3.01886 63.9111 2.96339C65.0044 2.90707 66.1834 2.5353 68.1593 2.61478C67.1004 2.83 68.5409 3.02301 68.2624 3.22168C67.9835 3.42034 65.8935 3.46433 67.9014 3.68113C71.762 3.51637 67.5727 2.75981 70.1802 2.63724C73.3117 2.48988 74.057 3.72313 73.1236 3.98824C72.389 4.19688 69.8615 4.15492 69.1212 4.36274C73.648 4.73777 73.6873 3.9974 74.4618 3.85251C77.2746 3.32516 75.3851 4.73269 78.716 4.22358C78.6534 4.4868 78.6027 4.72354 78.54 4.97599C79.1147 4.92797 79.4963 4.86416 80.1907 4.82609C78.143 4.31324 79.819 4.33522 80.6793 4.33442C82.0345 4.33276 79.9412 4.08261 80.3 4.01803C81.2681 3.84521 82.7989 3.92368 81.8597 3.69773C82.281 3.80288 82.7378 3.90833 83.1705 4.01266C84.7539 3.88164 88.4749 2.78303 84.9335 3.00489C85.2638 2.59672 86.4094 2.7929 87.3034 2.855C88.1972 2.91704 88.1805 2.65709 88.9662 2.7051C92.0919 2.8972 90.0473 3.34185 89.5519 3.69041C93.68 3.45032 89.6385 3.29147 95.5873 3.13086C96.1625 2.84688 93.4137 2.54386 95.7026 2.37992C96.1243 2.87328 97.8096 3.22768 101.095 3.39159C101.414 3.27816 101.732 3.16373 102.051 3.0503C103.844 3.50567 102.927 3.97919 106.247 3.41454C104.465 4.45358 105.69 3.78885 108.663 4.21186C109.266 4.29714 107.871 4.51271 108.714 4.622C109.096 4.67129 110.024 4.50856 110.957 4.63421C111.412 4.6963 113.542 5.09693 115.017 4.90665C113.935 4.40327 116.737 3.97503 114.334 3.55858C118.775 3.66124 121.884 3.41955 116.907 4.10591C118.035 4.25825 119.163 4.40994 120.29 4.56146C121.076 4.4414 121.869 4.3223 122.66 4.20308C122.78 4.6168 122.66 4.73286 125.755 4.66008C124.412 4.75773 123.075 4.857 121.726 4.95548C121.68 5.03902 121.492 5.12586 121.538 5.20693C123.19 5.04803 127.842 4.97964 128.969 4.86955C130.096 4.75943 127.919 4.72929 128.244 4.62249C130.948 3.74177 130.733 4.39133 132.674 4.24018C133.813 4.15077 131.094 4.05367 131.703 4.01559C133.962 3.876 135.01 4.34407 137.013 4.35004C136.301 4.08435 135.596 3.81454 134.901 3.54637C137.002 3.56044 139.345 3.5628 141.298 3.47753C142.064 3.44423 141.485 3.24664 141.61 3.2334C142.231 3.1655 144.759 3.05796 145.027 3.05714C147.042 3.05556 147.099 3.32925 149.057 3.34423C148.288 3.3674 147.566 3.38829 146.814 3.41063C146.473 3.85435 146.124 4.29805 145.783 4.7426C147.701 4.77488 149.621 4.8065 151.545 4.83879C150.139 4.69061 148.727 4.54314 147.321 4.39496C149.519 4.03648 151.717 3.67718 153.915 3.31787C155.059 3.53809 156.199 3.75826 157.344 3.97848C160.452 3.92038 159.826 3.02644 161.3 3.80954C162.217 3.74334 163.133 3.67717 164.05 3.6118C163.919 3.72353 163.789 3.83549 163.658 3.94723C164.763 3.87851 165.867 3.81024 166.972 3.7407C165.81 3.34499 164.672 2.92858 163.522 2.54447C165.695 2.45848 165.737 2.79417 166.061 2.87795C166.921 3.09983 168.628 2.80054 169.311 3.00587C169.542 3.07636 167.412 3.29735 168.146 3.55223C168.29 3.60163 171.142 4.53854 172.962 4.32221C172.928 4.15248 172.787 3.94437 172.713 3.75974C175.16 3.65665 176.409 4.5426 176.084 4.79094C177.388 4.61708 179.294 4.60256 179.562 4.331C180.228 4.32438 180.889 4.31809 181.555 4.31147C180.861 4.97284 183.64 4.85191 183.822 4.28315C182.677 4.26907 181.531 4.25426 180.387 4.24018C181.252 3.54307 177.774 3.12229 185.011 3.76804C186.395 4.13068 182.552 3.71863 183.679 3.9902C185.638 4.14826 187.477 4.01601 189.338 4.2685C191.655 4.58393 188.805 4.8873 194.203 4.48578C182.296 3.47985 195.836 3.80623 201.427 3.49413C202.965 4.48766 207.687 4.80235 214.19 4.50677C213.513 4.23026 211.467 4.37272 210.288 4.28168C209.109 4.19062 210.385 4.02658 208.916 3.89743C207.448 3.76831 204.328 3.59277 202.842 3.39745C204.101 3.24095 210.316 2.87096 206.207 3.31542C209.275 3.58941 210.715 3.87097 214.518 3.92233C215.657 3.49099 215.572 3.2224 219.279 3.20996C217.087 3.80934 221.299 4.22591 220.371 4.84513C217.743 4.70091 219.212 4.09907 217.692 3.81101C217.536 3.78221 215.087 3.93309 214.518 3.92233C216.989 4.46297 217.844 4.6642 216.323 5.30751C218.072 5.25121 219.159 5.33198 219.318 5.02481C219.683 5.15807 220.049 5.29144 220.408 5.42469C220.977 5.42138 221.489 5.40904 222.092 5.41151C221.261 4.94817 222.871 5.2334 224.016 5.02335C225.16 4.81305 223.625 4.44729 226.768 4.44232C225.72 4.33386 224.762 4.2408 223.749 4.13814C225.775 4.01893 227.809 3.89896 229.836 3.77976C228.412 3.49665 225.327 3.07612 225.411 2.70364C226.345 2.84427 229.543 2.59711 229.893 2.58694C231.248 2.54886 230.51 2.78378 230.612 2.78957C232.742 2.90373 234.495 2.82374 235.304 3.17969C236.904 3.01909 238.11 3.11065 239.807 3.10157C240.74 3.0966 240.559 2.83516 241.105 2.88478C244.738 3.21593 241.277 3.55378 248.285 2.91066C247.436 2.72853 246.599 2.54222 245.751 2.35844C246.543 2.28972 247.329 2.22063 248.121 2.15191C248.651 2.18503 249.175 2.21839 249.705 2.25151C249.694 2.6464 249.68 3.04211 249.669 3.437C250.249 3.45853 250.832 3.47944 251.413 3.50096C250.417 3.53988 249.418 3.57874 248.421 3.61766C248.33 3.68714 248.245 3.75666 248.154 3.82614C249.635 3.93377 251.11 4.04237 252.591 4.15083C252.619 4.01346 252.647 3.87513 252.676 3.73777C256.012 3.92902 256.092 4.0453 259.263 3.66697C261.706 3.67111 263.695 3.09676 265.108 2.855C265.614 2.93198 266.122 3.00994 266.634 3.08692C266.958 2.97266 267.286 2.85891 267.611 2.74465C268.254 2.9036 268.907 3.06258 269.55 3.2207C269.909 2.85992 270.094 2.74728 267.584 2.62063C268.444 2.17191 272.864 2.36986 274.663 2.52054C276.028 2.63489 274.513 3.00917 274.684 3.0547C275.254 3.20937 277.504 3.07591 277.977 3.10157C279.975 3.20836 281.375 3.18967 283.181 3.27246C283.532 3.28903 284.514 3.52623 284.598 3.53368C285.247 3.57424 286.849 3.68954 287.031 3.69285C296.43 3.86991 286.387 2.8408 295.127 2.94923C294.865 2.81352 294.624 2.67871 294.368 2.543C295.029 2.53473 295.696 2.52686 296.356 2.51859C297.193 2.63201 296.18 2.83829 297.843 2.6719C297.735 2.83914 297.626 3.00645 297.512 3.17285C298.235 3.08261 298.932 2.99309 299.673 2.90285C300.834 3.48321 305.075 3.61501 304.773 4.29633C304.671 4.52816 301.664 4.76603 303.253 5.01358C304.544 5.06231 303.67 4.78545 304.197 4.77092C308.001 4.66991 307.78 5.05799 309.334 4.9545C309.579 4.78818 309.836 4.6186 310.087 4.45062C310.673 4.49944 311.261 4.54828 311.853 4.5971C311.989 4.48533 312.132 4.37344 312.268 4.26167C311.716 4.25422 311.094 4.24666 310.587 4.23921C311.294 3.8063 317.784 3.61183 315.309 3.98092C314.301 4.13076 312.455 4.0671 313.622 4.57855C315.358 4.50486 317.329 4.42958 319.156 4.3559C319.213 4.46602 319.266 4.57633 319.323 4.68645C321.787 4.61517 319.546 4.1749 319.551 3.93893C320.114 3.93231 320.684 3.92651 321.247 3.91989C321.486 4.02658 321.713 4.13826 321.963 4.24165C321.986 4.07185 322.302 3.67719 323.981 3.8237C325.061 3.91906 323.36 4.34744 325.419 4.28803C325.266 4.02314 324.522 3.70052 326.815 3.61521C327.043 3.89168 327.358 4.14494 327.534 4.43549C327.93 4.3987 328.295 4.37519 328.64 4.36118C330.747 4.35939 332.057 4.85259 334.513 6.23117C336.343 7.18324 338.622 9.70122 337.901 11.3582C338.252 12.8139 338.363 12.3134 338.507 12.7513C338.639 13.2326 338.691 13.6995 338.688 14.1325C338.679 15.5852 338.372 16.6178 338.349 16.9299C338.158 19.5083 338.333 20.6643 338.094 22.7651C338.292 22.6512 338.479 22.5892 338.672 22.4981C338.376 20.5734 338.39 19.5987 338.454 16.8996C338.493 17.8047 338.534 18.7102 338.574 19.6154C338.734 19.4674 338.895 19.3207 339.055 19.1784C338.85 16.4791 338.816 14.8562 338.871 14.1325C338.908 13.5017 339.02 13.5222 339.156 14.1325C339.339 14.9765 339.552 16.9704 339.64 19.7762C339.343 20.3797 339.046 21.0051 338.748 21.6029C339.199 25.6457 338.808 27.5481 338.714 32.1202C338.704 32.6637 338.875 34.6435 338.883 35.4944C338.884 35.4803 338.885 35.4661 338.887 35.4519C339.167 35.9813 339.296 35.2643 339.547 35.1788C339.579 35.64 339.61 36.1014 339.641 36.5625C339.45 37.5924 339.293 37.2304 339.339 39.2571C339.529 38.9838 339.72 38.7141 339.91 38.4408C339.917 40.6616 339.71 42.1149 339.799 44.1819C339.727 43.8346 339.655 43.4915 339.583 43.1442C339.399 47.6426 338.28 44.0627 338.837 47.4621C338.739 47.6784 338.641 47.8891 338.543 48.1054C338.519 46.7049 338.496 45.3037 338.472 43.9088C338.333 43.8804 338.196 43.8497 338.058 43.8269C338.099 45.3245 338.142 46.8293 338.183 48.3269C338.09 47.2336 337.997 46.134 337.905 45.0407C337.838 46.7772 337.772 48.5142 337.706 50.2508C338.214 48.4066 338.276 50.7974 338.78 50.3479C338.361 53.4228 337.808 55.8381 338.162 60.6042C338.232 61.549 338.584 61.0358 338.156 63.7175C338.461 63.3637 338.678 64.2008 338.898 64.9658C339.085 65.6191 339.189 66.2673 339.454 66.0832C339.482 65.7152 339.493 65.3408 339.485 64.9658C339.471 64.3649 339.457 63.7645 339.437 63.1895C339.253 64.2201 338.745 64.3909 338.594 62.8253C338.402 60.8268 338.754 57.9117 338.19 58.031C338.217 57.2341 338.232 56.4929 338.255 55.7188C338.395 56.0374 338.535 56.3495 338.675 56.6625C338.456 54.4597 338.527 53.0757 338.88 52.0168C338.961 54.6414 339.041 57.2604 339.121 59.885C339.145 59.4983 339.17 59.1064 339.193 58.7198C339.553 60.7071 339.894 58.6571 339.971 62.3641C339.806 62.3413 339.641 62.3232 339.476 62.3004C339.68 62.925 339.789 64.0521 339.897 64.9658C340.021 66.1566 339.956 67.0732 340.337 66.3752C340.002 67.6583 339.807 67.8562 339.852 68.6513C338.314 71.871 336.2 72.7688 336.579 71.6019C335.925 72.5295 335.108 73.361 334.17 74.0429C334.826 73.8287 335.475 73.5431 336.101 73.1894C334.534 74.6043 332.539 75.5614 330.463 75.8911C330.329 75.6761 331.306 75.4856 332.11 75.1693C332.919 74.8633 333.551 74.5008 332.933 74.5635C332.696 74.5939 331.745 75.1323 331.449 75.1486C329.938 75.2439 330.364 75.0917 331.009 74.9379C331.661 74.7732 332.517 74.4297 332.052 74.3944C329.165 75.1341 329.869 74.448 328.64 74.5442C328.094 74.5405 327.177 74.5981 325.448 74.7629C325.295 74.6271 325.129 74.4887 324.987 74.3537C322.967 74.3456 323.131 74.6522 321.394 74.7102C320.307 74.7462 318.942 74.2078 317.741 74.5744C317.527 74.642 319.547 75.3001 315.301 75.2712C312.006 75.2487 313.378 74.7836 311.596 74.6189C309.814 74.4541 305.737 75.099 304.535 74.3679C305.469 74.4647 306.658 74.517 307.694 74.5964C308.115 74.454 308.525 74.3132 308.941 74.1716C306.572 74.3554 304.124 74.1388 302.529 74.4782C299.369 73.9591 295.835 74.4409 296.791 75.027C297.832 74.9425 296.7 74.6869 298.145 74.8498C298.293 74.9864 298.449 75.1224 298.597 75.259C296.137 75.2424 294.428 75.2462 295.55 74.8298C295.169 74.8199 294.791 74.8099 294.409 74.8C294.341 75.1014 294.28 75.4039 294.212 75.7052C293.757 75.7392 293.299 75.7728 292.844 75.8068C292.337 75.7406 291.829 75.6736 291.317 75.6066C292.006 75.1297 293.18 75.114 289.296 74.8474C289.285 75.0121 289.268 75.1762 289.257 75.341C286.006 75.1315 285.92 74.7324 281.838 74.7473C284.969 74.1752 286.683 75.1892 286.672 74.0417C287.457 74.1171 288.25 74.1934 289.035 74.2688C289.155 74.1024 289.274 73.9357 289.387 73.7693C285.168 73.8571 278.16 74.9515 275.335 74.2258C274.993 74.3144 274.651 74.3914 274.303 74.4865C271.536 74.0486 270.341 75.0319 267.534 74.4655C267.244 74.4061 267.85 73.4823 264.196 73.5154C264.287 73.6355 264.334 73.8376 264.408 73.989C263.617 73.9153 262.83 73.8383 262.044 73.7629C261.902 73.8738 261.753 73.9847 261.61 74.0964C262.96 74.1395 264.306 74.1832 265.655 74.2263C264.534 74.2644 263.405 74.3025 262.284 74.3406C263.747 74.5218 264.407 74.5237 263.525 74.8142C262.255 74.8316 260.984 74.85 259.714 74.8674C259.583 74.9418 259.453 75.0171 259.322 75.0915C259.937 75.3134 260.559 75.5303 261.173 75.7555C257.865 75.5742 254.989 75.5644 252.45 75.1281C252.017 75.0544 253.547 74.7654 250.599 75.0261C250.553 74.873 250.474 74.7487 250.423 74.6071C246.812 75.036 245.626 74.908 241.862 74.5984C244.3 74.8873 242.125 74.6994 241.504 74.8542C241.079 74.9609 242.739 74.9451 242.551 75.0568C242.363 75.1678 240.207 75.6157 242.051 75.6696C246.572 74.7514 247.804 75.8492 253.612 75.4079C252.718 75.5263 251.817 75.6449 250.923 75.7633C251.344 75.8436 251.721 75.9164 252.176 76.0016C248.937 75.822 250.513 75.9387 249.181 76.0802C247.849 76.2218 245.427 76.3421 243.804 76.381C243.293 76.3932 243.832 76.1873 242.679 76.1681C241.893 76.1549 239.746 76.4601 239.25 76.1002C238.925 75.8659 242.375 75.2208 237.605 75.2223C236.707 74.9927 238.994 75.064 239.043 75.0363C239.459 74.7631 236.527 74.5577 235.172 74.7663C235.062 74.7843 236.132 74.9972 234.968 75.0808C232.207 75.2803 230.612 75.0361 228.824 74.7058C228.63 75.0932 226.306 75.556 223.413 75.4128C223.265 75.5236 223.124 75.6355 222.976 75.7472C223.425 75.6885 223.874 75.6306 224.324 75.5719C224.813 75.6415 225.332 75.6921 225.81 75.7741C222.901 75.8694 222.49 76.4034 221.095 76.5987C216.321 77.2662 219.214 75.8543 220.075 75.611C220.696 75.7095 221.296 75.8195 221.911 75.923C221.843 75.788 221.774 75.6521 221.711 75.5163C214.565 75.5204 220.623 74.6402 216.995 74.3894C216.062 75.0533 213.398 75.1173 210.004 74.696C209.628 74.6993 209.251 74.7002 208.875 74.7043C208.813 74.8011 208.814 74.9491 208.712 75.0129C204.623 75.1255 203.895 74.103 203.508 74.0061C201.788 73.5765 200.449 74.1709 199.942 74.176C197.807 74.1967 197.186 73.9328 195.154 74.0461C192.968 74.1686 194.462 74.3712 193.797 74.5525C193.264 74.6964 191.539 74.7221 190.827 74.8713C191.11 74.7492 191.424 74.6296 191.707 74.507C189.441 74.3407 187.589 74.1785 185.016 74.1379C182.112 75.031 179.641 73.5245 180.643 74.7463C183.08 74.8299 184.443 74.9691 185.747 75.2804C184.147 75.3202 182.546 75.3589 180.947 75.3986C180.48 75.2645 180.149 75.1338 179.596 74.9973C178.401 75.282 175.629 75.1598 174.541 75.2433C169.445 75.6349 171.021 76.1207 166.369 75.3044C169.722 75.2248 169.717 74.8284 173.042 74.883C172.325 74.5999 170.635 74.6585 171.728 74.3191C168.511 74.4027 169.551 74.7057 168.299 74.9748C167.219 75.2067 165.045 75.2197 165.168 75.5212C164.945 75.3554 164.773 75.195 164.552 75.0295C162.468 75.0311 160.385 75.0312 158.301 75.0329C159.189 74.8599 160.077 74.6866 160.965 74.5144C160.294 74.449 159.622 74.3839 158.95 74.3186C153.825 74.8567 144.988 73.8704 146.4 75.2223C143.929 75.2654 143.62 75.0958 142.276 74.84C142.128 74.9427 141.984 75.028 141.836 75.1423C140.242 75.0348 139.019 75.4202 137.612 75.32C136.206 75.2206 135.857 74.8566 135.652 75.4684C134.741 75.2929 133.835 75.1472 132.93 74.9841C132.384 75.1231 131.838 75.2604 131.298 75.3986C130.444 75.3258 129.588 75.2532 128.734 75.1804C128.277 75.4724 124.919 75.3465 123.439 75.5426C122.033 75.2278 122.072 74.2367 118.766 74.4143C118.851 74.6601 118.935 74.9052 119.02 75.1511C118.263 75.0997 117.505 75.0486 116.742 74.9973C116.696 74.917 116.657 74.8368 116.611 74.7565C116.998 74.7814 117.38 74.8061 117.767 74.8317C117.431 74.696 117.102 74.5608 116.772 74.425C115.616 74.6262 114.459 74.8274 113.298 75.0285C114.863 75.1808 116.429 75.3332 117.995 75.4855C116.03 75.666 114.663 75.486 112.955 75.6872C111.469 75.3478 112.017 75.1522 112.621 74.7839C112.069 74.8153 111.51 74.8457 110.958 74.8771C111.322 74.5088 110.388 74.2893 113.616 74.3191C113.394 74.214 113.168 74.1138 112.952 74.0046C112.422 74.0212 112.079 73.9324 111.498 73.9729C109.915 74.0838 108.701 74.7309 108.81 74.9577C108.868 75.0765 110.429 74.8493 110.366 75.0173C110.212 75.4269 106.631 75.243 111.796 75.6545C110.082 75.9152 109.699 75.7186 107.808 75.6432C107.956 75.7797 108.1 75.9154 108.242 76.0519C107.366 75.989 106.488 75.9263 105.611 75.8634C106.83 75.1622 100.367 74.8988 106.185 74.2854C104.466 74.2539 102.752 74.2223 101.039 74.1892C101.392 74.1172 101.745 74.0459 102.098 73.9739C102.872 74.012 103.642 74.0494 104.416 74.0867C103.505 73.9551 102.593 73.8242 101.682 73.6926C99.5295 73.8557 98.6858 74.1066 97.7007 74.4162C100.206 74.6422 99.3872 74.3335 101.339 74.2722C101.271 74.4683 101.361 74.6487 101.19 74.8547C100.182 74.4485 96.8918 74.744 96.1289 74.7639C93.807 74.8242 95.6278 74.4251 94.0746 74.4167C92.5201 74.4084 90.6866 74.646 89.4168 74.2502C89.4396 74.472 89.5411 74.7015 89.6322 74.9035C87.2122 74.9764 87.695 74.7143 87.4444 74.6804C83.4471 74.1224 81.2781 74.5935 76.7057 74.6506C77.2864 74.7193 77.8731 74.7813 78.4595 74.8459C75.01 75.3169 77.3338 75.1727 80.3287 75.3283C77.5215 75.2811 75.9138 75.6822 73.9322 75.8014C71.9509 75.9204 68.5529 75.7144 67.3111 75.5539C70.1526 75.2956 73.2172 75.4659 76.3719 75.3947C76.0132 75.1687 75.6647 74.9775 75.2947 74.7292C73.3759 75.2035 72.2641 74.8864 71.6321 74.8234C69.7762 74.6389 69.8346 75.046 68.713 74.6081C68.7586 74.7587 68.7919 74.8854 68.8374 75.0261C65.0054 74.9631 60.872 74.6969 58.3778 75.2531C58.1501 74.8913 57.9782 74.5428 57.7163 74.1736C56.0937 74.4459 54.7041 74.167 53.3377 74.2307C51.9768 74.2944 52.4949 74.5868 50.895 74.6994C50.5989 74.7201 49.9822 74.5371 49.2534 74.6721C48.5174 74.8077 45.8031 75.8165 45.4786 74.9353C44.1064 74.9311 42.8078 74.8989 41.464 74.884C42.7736 74.8343 44.0837 74.7862 45.3875 74.7365C44.2716 74.5229 43.1626 74.31 42.0466 74.0964C41.9043 74.2869 41.7615 74.4807 41.6249 74.6687C38.6183 74.9005 36.4365 74.5891 33.4016 74.6628C32.8949 74.6752 34.0904 75.0517 31.8419 74.9558C29.5928 74.8597 27.9238 74.157 24.092 74.4284C23.8984 74.4425 22.7637 74.9807 21.3914 74.6081C21.0791 74.5237 22.3935 74.3987 21.6767 74.2878C20.9592 74.1769 17.7579 74.0856 17.5074 73.8215C17.5415 73.9151 17.7413 74.012 17.8381 74.1072C17.2916 74.1519 16.7396 74.1966 16.1874 74.2405C16.1362 74.0757 16.0809 73.9107 16.0296 73.7468C14.9579 73.8775 14.0627 74.0364 13.1637 74.1808C11.6017 74.4228 9.64032 74.436 7.31968 72.561C8.16701 73.517 9.24335 74.3343 10.4794 74.914C10.88 74.8478 11.2685 74.7562 11.6368 74.6437C12.1382 74.7386 12.6489 74.7945 13.1637 74.8107C14.7906 74.8613 16.4192 74.9118 18.0445 74.9626C18.3975 74.7713 18.7444 74.5806 19.0974 74.3894C19.6667 74.4142 20.2304 74.4383 20.7997 74.4631C20.6574 74.6014 20.5138 74.7389 20.3658 74.8771C21.493 74.8432 22.6216 74.8086 23.7431 74.7746C21.4598 75.5907 17.3669 74.7052 17.6621 75.3879C17.1556 75.2819 16.6484 75.1753 16.1419 75.0685C15.9234 75.3941 14.9236 75.3073 13.1637 75.2548C13.133 75.2539 13.1022 75.2529 13.0712 75.2517C13.1016 75.2636 13.1325 75.2754 13.1637 75.287C13.5549 75.4382 13.976 75.5879 14.3303 75.7409C13.9867 75.6961 13.5912 75.6608 13.1637 75.6325C11.2706 75.57 8.88586 74.7905 7.63444 73.8686C6.95177 73.38 7.78334 73.6356 7.59123 73.4765C6.59925 72.7491 4.70956 71.2207 4.48817 70.7211C3.36255 68.685 3.41751 66.9161 3.39706 64.9658C3.3997 64.2995 3.35083 63.5893 3.22157 62.8002C3.14889 64.6555 3.13438 64.8988 3.08381 64.9658C3.04682 65.0194 2.97534 64.9611 2.86955 65.4918C2.74501 65.8594 3.21187 70.2214 2.65654 64.9658C2.65751 64.9019 2.65853 64.8364 2.65959 64.7695C2.67015 64.1442 3.21868 54.4665 3.63903 57.6477C3.5049 56.0818 3.34982 54.8558 3.20741 53.4208C4.31519 49.9131 3.27451 51.1271 2.70158 52.1464C2.69909 51.5712 2.69328 51.0241 2.69328 50.4319C3.29519 51.6904 3.33256 45.279 3.02871 43.1038C2.9277 42.375 2.73504 44.4129 2.64396 42.7276C2.68617 41.925 2.74083 41.0146 2.788 40.1665C2.40717 41.3964 2.26042 38.9827 1.873 39.0165C2.21822 37.4735 2.94995 36.2932 3.34656 37.1412C3.18597 35.8659 3.02558 34.584 2.86417 33.3088C2.77227 33.9009 2.68118 34.5008 2.58928 35.093C2.83269 30.9248 2.2788 25.5653 3.09267 24.6941C3.08687 24.1417 3.08186 23.5835 3.07607 23.0312C2.93863 22.8604 2.80093 22.6953 2.66349 22.5245C2.78269 20.0253 2.90268 17.5317 3.02187 15.0325C3.10716 17.2578 3.30279 17.7875 3.14394 20.1212C3.302 19.2219 3.46094 18.3059 3.61901 17.4236C3.447 16.0036 3.29883 15.0792 3.19168 14.1325C3.09292 12.7793 3.00447 11.0917 4.80257 8.42359C4.86973 8.32424 5.56258 7.48926 6.39682 6.8577C7.21946 6.20844 8.14427 5.77825 8.20901 5.76152C8.80888 5.59737 8.14207 6.25272 8.41274 6.18748C8.77387 6.08937 9.98184 5.67557 11.1028 5.61067C12.2245 5.51896 13.2019 5.71369 13.1626 5.7528C12.8183 6.13626 10.8485 6.35314 8.99275 7.78232C7.09724 9.14462 5.7304 11.8047 5.8412 14.1325C5.87178 16.4903 5.8835 18.521 5.89819 19.6903C6.08895 34.8741 6.12725 49.9436 6.10013 64.9658C5.99566 68.7268 9.38081 72.1496 13.1637 72.0779C36.8035 72.1759 60.3839 72.361 84.1673 72.2923C84.621 72.2903 84.423 72.1359 84.6164 72.1292C85.8176 72.0904 86.9973 72.3312 87.4414 72.3411C88.3903 72.3616 87.8678 72.1392 88.5611 72.139C95.7245 72.1415 102.484 72.2723 109.653 72.2342C110.12 72.2317 109.643 72.4097 110.463 72.3782C110.887 72.361 112.212 72.088 113.167 72.0838C116.504 72.0698 119.307 72.1573 122.826 72.1532C124.75 72.1507 127.638 72.1739 129.79 72.1698C130.74 72.168 131.73 72.0431 132.669 72.0389C134.002 72.0331 133.73 72.2864 133.935 72.3021C134.834 72.3708 134.959 72.0928 135.813 72.0995C137.402 72.1127 137.487 72.2983 139.503 72.2826C140.943 72.271 144.241 72.1244 146.057 72.0814C150.305 72.2966 155.658 72.2112 159.621 72.14C161.967 72.0978 162.184 72.3576 163.141 72.3568C166.511 72.3517 169.069 72.0199 172.235 72.0091C176.436 71.9951 180.16 72.2145 184.23 72.2303C184.89 72.2328 184.738 71.9947 185.386 71.9886C187.783 71.9663 190.849 71.9229 192.984 71.9569C195.364 71.9942 196.242 72.3397 198.571 72.2694C199.253 72.2485 199.453 71.9455 200.598 71.9066C202.425 71.8454 204.429 72.1126 205.704 72.1424C207.453 72.1822 205.932 71.8735 208.29 71.9149C208.387 71.9167 208.739 72.1373 209.246 72.1268C210.72 72.097 210.574 71.9232 212.732 71.9398C212.939 71.9421 215.801 72.1523 216.085 72.1532C217.759 72.1565 221.13 72.2301 222.121 72.1854C225.662 72.0264 222.874 71.6946 225.886 72.4149C227.213 72.2386 228.528 72.0599 229.934 71.8885C228.996 72.0483 232.804 72.2789 233.072 72.264C235.286 72.1439 233.967 71.8637 236.774 71.91C233.067 72.5575 240.395 71.9935 242.029 71.9769C249.898 71.8966 257.051 72.0582 264.96 72.054C267.608 72.0524 271.156 71.9155 273.957 71.9188C274.61 71.919 274.117 72.0722 274.692 72.0755C275.265 72.0778 274.629 71.9058 275.283 71.9149C279.355 71.9745 282.544 72.2991 286.274 71.8934C286.456 71.9521 286.45 71.9984 286.75 72.0628C289.803 71.6994 295.68 72.1881 297.89 72.2552C301.345 72.3595 302.228 72.1138 304.738 72.1634C308.058 72.2296 313.042 72.7096 310.816 71.9173C313.094 71.8925 315.286 71.8857 317.586 71.9593C317.842 71.9677 317.666 72.169 317.768 72.1732C318.417 72.2021 318.629 72.0218 319.067 72.0135C320.256 71.9913 318.316 72.2071 320.011 72.1468C320.905 72.1145 321.412 71.9573 323.895 71.954C325.463 71.9521 327.046 71.9511 328.64 71.9508C332.283 72.0546 335.722 68.7483 335.639 64.9658C335.655 56.2377 335.679 47.4127 335.693 38.8687C335.695 37.8152 335.5 38.5087 335.513 37.1876C335.556 32.5981 335.884 24.3831 335.839 20.4256C335.794 16.4683 335.509 17.3611 335.39 14.8847C335.367 14.4064 335.529 14.7986 335.532 14.3658C335.532 14.2884 335.533 14.2106 335.533 14.1325C335.63 12.1477 334.669 9.8216 333.388 8.72272C332.531 7.98804 332.44 8.2774 331.78 7.92993C330.788 7.4373 329.678 6.98678 329.045 6.95385C328.909 6.94461 328.774 6.93982 328.64 6.93912C324.895 6.92511 322.202 7.10911 318.604 7.00811C318.752 7.0643 318.849 7.11632 318.974 7.17168C314.505 7.16257 310.041 7.15344 305.571 7.14434C305.782 7.19567 305.986 7.24744 306.197 7.2996C300.952 7.27143 301.551 6.71508 302.012 7.8899C301.631 7.93129 301.226 7.97927 300.862 8.01734C301.01 7.41216 297.838 6.96928 293.801 6.81525C293.505 6.80366 291.518 7.39373 291.735 6.6966C291.216 6.86715 290.908 6.98472 290.469 7.13457C289.615 6.92351 288.75 6.71495 287.896 6.50472C287.435 6.53617 286.967 6.56652 286.506 6.59798C286.438 6.73459 286.49 6.87643 286.342 7.01055C284.202 7.03125 279.811 6.86237 278.119 6.8797C273.917 6.92358 269.638 7.29293 266.37 6.89386C264.778 6.93455 266.359 7.20267 263.991 7.16875C263.723 7.033 263.472 6.90289 263.193 6.76301C261.258 7.36953 260.853 7.00057 258.201 6.87384C256.408 6.78774 255.233 6.93598 253.525 6.90704C253.092 6.89959 253.154 6.72157 252.858 6.72736C251.866 6.74572 249.037 6.99075 248.336 6.99737C241.994 7.06194 236.544 7.03445 230.503 6.96905C229.854 6.96243 230.696 7.13812 230.024 7.13066C228.943 7.11897 229.579 6.849 228.953 6.83576C227.206 6.80033 227.193 7.08501 224.756 7.0999C216.733 7.14872 207.509 6.93487 199.127 6.91583C198.865 6.91583 198.881 7.08262 198.596 7.08428C196.741 7.09244 194.862 6.86697 193.177 6.86945C190.381 6.87276 188.28 7.10708 185.518 7.10625C180.12 7.10542 175.297 6.98544 169.745 6.97882C165.201 6.97302 161.255 6.99527 156.272 6.99444C134.509 6.99113 112.301 7.52056 90.3894 7.23906C89.8318 7.23161 90.0587 7.08425 89.8887 7.09063C88.2715 7.15438 88.1273 7.35321 87.5522 6.93683C85.4921 7.01889 84.842 7.33172 82.3543 7.30937C81.0283 7.29765 82.0182 6.81279 79.775 7.0628C77.7494 7.2888 79.9847 7.55452 73.9611 7.283C73.8016 7.27554 73.0167 6.98 71.7642 7.05694C70.5058 7.13311 71.9624 7.34473 68.9331 7.40848C61.8212 7.5575 52.8193 7.30203 44.5516 7.38065C44.0334 7.38562 39.0431 7.54362 38.0579 7.61648C36.1516 7.75805 36.5498 7.97767 34.0738 8.0315C32.1605 8.0729 30.582 7.82412 28.3327 7.87379C28.0707 7.87983 27.6319 8.13573 25.9416 8.10181ZM294.415 75.9669C293.948 76.218 293.106 77.1422 290.283 76.8609C290.015 76.8344 291.46 76.1989 289.9 76.0978C291.426 76.0307 292.912 76.009 294.415 75.966C294.415 75.9663 294.415 75.9666 294.415 75.9669ZM13.7038 2.20903C15.8164 2.2554 17.9362 2.30133 20.0487 2.3477C18.5911 2.45947 17.1312 2.57102 15.6792 2.68362C15.0187 2.52551 14.3642 2.36714 13.7038 2.20903ZM276.684 2.64798C276.682 2.64798 276.68 2.64798 276.678 2.64798C278.899 2.52875 281.121 2.40931 283.341 2.29008C283.108 2.37785 282.874 2.46598 282.64 2.55374C280.887 2.69198 279.133 2.83004 277.385 2.96827C277.151 2.8615 276.917 2.75476 276.684 2.64798ZM259.139 3.57713C257.721 3.47281 258.068 3.29688 257.288 3.12549C257.288 3.12582 257.288 3.12614 257.288 3.12647C257.082 3.08185 256.123 3.04282 255.753 3.03614C255.889 3.14626 256.066 3.25496 256.214 3.36425C252.905 3.63085 246.436 2.68348 254.812 2.3018C254.687 2.44087 254.567 2.57922 254.442 2.71829C258.604 2.67938 263.244 2.98102 259.139 3.57713ZM260.946 76.3673C257.393 76.8227 256.253 76.9187 251.943 76.6066C252.552 76.4775 253.161 76.3484 253.769 76.2194C254.481 76.351 255.188 76.4817 255.9 76.6134C255.902 76.6134 255.904 76.6134 255.906 76.6134C256.048 76.4751 256.191 76.3366 256.327 76.1984C257.865 76.2547 259.409 76.311 260.946 76.3673ZM123.125 3.24804C122.134 2.33858 122.42 2.86722 125.249 2.66214C126.228 2.59093 125.274 2.43181 125.883 2.40531C129.173 2.2606 129.436 2.86993 128.702 3.18701C126.84 3.20854 124.958 3.22817 123.131 3.24804C123.129 3.24804 123.127 3.24804 123.125 3.24804ZM37.7575 3.437C37.7556 3.437 37.7535 3.437 37.7515 3.437C37.6661 3.21517 38.9925 3.1555 37.4966 2.94533C38.6346 2.94615 39.7727 2.94792 40.9164 2.94874C40.5809 2.96941 40.2383 2.98911 39.9029 3.00978C40.199 3.08595 40.4959 3.16309 40.792 3.23926C41.1961 2.98428 41.5719 3.13249 42.7674 3.21777C42.4371 2.94539 42.1084 2.67281 41.7781 2.40043C43.1672 2.48155 44.5613 2.56295 45.9504 2.64407C45.9676 2.71271 45.9849 2.78147 46.002 2.85012C46.5257 2.76239 47.0441 2.6737 47.5678 2.58597C47.7102 2.66792 47.8472 2.74912 47.9896 2.83107C48.6214 2.769 49.2542 2.70697 49.8861 2.64407C50.0784 2.84258 48.6858 2.92838 51.1544 2.87795C50.3973 3.08159 49.6415 3.28462 48.8787 3.48827C45.1717 3.47171 41.4644 3.45439 37.7575 3.437ZM148.859 2.96827C144.777 3.00636 145.927 2.86249 146.872 2.41215C147.532 2.59755 148.199 2.78287 148.859 2.96827ZM339.403 28.9826C339.71 30.167 340.014 31.3564 340.311 32.5693C340.482 34.9836 339.922 37.3989 339.703 35.5824C339.44 33.3959 339.734 31.1122 339.403 28.9826ZM325.342 75.8659C328.296 76.0083 325.517 76.3733 324.85 76.586C324.033 76.2441 322.894 76.2743 321.064 76.2345C322.782 76.2123 324.854 75.8417 325.342 75.8649C325.342 75.8652 325.342 75.8655 325.342 75.8659ZM311.661 3.02393C310.478 3.03312 309.3 3.11891 308.242 3.01466C308.561 2.72094 310.678 2.98816 309.164 2.55277C309.921 2.54532 310.679 2.5381 311.431 2.52982C310.953 2.71021 311.596 2.84504 311.658 3.02296C311.659 3.02328 311.66 3.02361 311.661 3.02393ZM188.416 2.6221C190.739 2.96983 191.179 2.82104 193.52 2.58011C193.85 2.86323 191.059 3.33748 189.311 3.44188C189.015 3.16868 188.718 2.8953 188.416 2.6221ZM2.75495 69.5361C3.17395 70.0775 5.85237 73.7915 8.00046 74.7536C7.73728 74.675 7.47407 74.5861 7.21346 74.487C5.2904 73.3415 3.70737 71.5955 2.75495 69.5361ZM320.193 76.2101C320.499 76.2207 320.789 76.2285 321.064 76.2345C320.759 76.2384 320.465 76.2323 320.193 76.2101ZM196.498 74.6438C197.471 74.3035 194.578 74.1892 198.091 74.3225C198.091 74.3222 198.091 74.3218 198.091 74.3215C200.414 74.4093 200.927 74.4327 203.08 74.4592C202.305 74.8963 197.938 75.0525 203.957 75.1428C204.036 75.1432 203.878 74.8831 204.84 74.9187C205.136 74.9297 206.086 75.1432 207.531 75.2053C207.998 75.2251 211.507 75.291 206.724 75.2951C206.866 75.5998 206.609 75.9082 206.621 76.2037C204.754 76.2896 203.319 75.693 201.344 75.7077C198.411 75.7309 196.919 76.3342 196.355 75.5426C198.821 75.3482 203.055 75.3435 203.608 75.8195C205.993 75.8253 206.678 75.4353 204.755 75.2424C196.515 75.4874 202.493 74.6635 195.278 74.9748C195.193 75.0849 194.896 75.2033 194.941 75.3068C192.739 74.9194 196.151 74.7655 196.498 74.6438ZM213.727 75.4855C212.304 75.7182 210.885 75.9527 209.467 76.1862C209.467 75.807 210.249 75.4667 212.492 75.2531C212.902 75.3309 213.318 75.4086 213.727 75.4855ZM93.9775 75.5851C93.7725 75.7913 93.2261 75.9802 92.8275 76.1764C92.3947 76.0025 82.1448 75.8357 87.3595 75.6652C88.1168 75.6404 92.7362 76.0049 93.9775 75.5851ZM172.285 2.93263C173.492 3.0709 174.694 3.20938 175.896 3.34765C174.046 3.43536 172.196 3.52536 170.346 3.61473C170.994 3.38742 171.637 3.15994 172.285 2.93263ZM339.041 48.6334C339.049 48.1235 339.333 49.8171 339.288 47.8081C339.469 49.3056 339.623 50.7081 339.793 52.1715C339.659 52.61 339.526 53.053 339.391 53.4915C339.478 53.8332 339.563 54.1815 339.649 54.5232C339.454 54.3182 339.263 54.1357 339.064 53.9194C339.483 51.4537 339.008 50.8883 339.041 48.6334ZM305.535 4.49505C305.092 4.0704 308.662 3.81787 305.15 3.74997C305.816 3.47098 306.887 3.32464 308.943 3.2998C309.273 3.4065 309.602 3.51242 309.932 3.61912C309.977 3.3336 310.506 3.22748 311.661 3.02393C311.662 3.02426 311.664 3.02459 311.665 3.02491C314.79 3.00424 314.603 3.09944 315.354 3.56883C312.046 3.30389 311.947 3.73275 309.692 3.98775C308.143 4.16311 306.121 4.08369 305.535 4.49505ZM104.898 75.5802C102.559 75.9387 104.658 76.2731 100.508 75.8922C100.775 75.8012 101.044 75.7109 101.312 75.6198C102.507 75.6057 103.703 75.5927 104.898 75.5802ZM293.989 3.03956C294.257 3.6969 296.459 4.20859 296.835 3.13916C294.689 2.92142 295.737 3.52718 293.989 3.03956ZM326.349 74.8366C327.42 74.8446 328.16 74.9003 328.64 74.985C329.758 75.1478 329.537 75.5153 328.64 75.8082C328.451 75.8707 328.234 75.9289 328 75.9801C327.738 75.8452 327.477 75.71 327.22 75.5758C326.497 75.6371 325.774 75.6985 325.051 75.7589C325.483 75.4518 325.917 75.1438 326.349 74.8366ZM221.215 3.76169C224.37 3.29225 217.81 3.50061 220.013 3.20752C221.773 2.97324 224.091 3.44625 223.215 3.74265C222.605 3.75093 221.927 3.75672 221.221 3.76169C221.219 3.76169 221.217 3.76169 221.215 3.76169ZM239.47 3.62742C238.952 3.12585 239.699 3.27205 237.206 3.3623C236.494 3.38796 230.838 3.19959 233.213 3.61521C235.234 3.61521 237.369 3.62245 239.47 3.62742ZM278.633 75.5705C278.595 75.3521 282.951 74.8724 283.51 74.9924C283.51 74.9921 283.51 74.9917 283.51 74.9914C285.019 75.3184 280.425 75.3649 282.417 75.8136C278.004 75.4188 276.684 76.3739 276.992 75.1154C279.591 75.0602 278.361 75.3196 278.633 75.5705ZM2.82657 15.0659C2.82657 15.0639 2.82657 15.0618 2.82657 15.0598C2.8163 15.3523 2.49574 17.7622 2.3847 17.4691C2.45125 15.4431 2.57441 15.0859 2.52402 14.1325C2.50555 13.6947 2.46179 13.1403 2.5064 12.2563C2.64416 12.1178 2.77624 12.0071 2.92208 11.8672C2.79655 12.7069 2.82308 13.272 2.83405 14.1325C2.84025 14.4051 2.83901 14.7096 2.82657 15.0659ZM82.8958 75.1447C83.9607 75.0876 85.9038 75.3243 87.1167 75.3102C83.2561 76.2193 78.6426 75.3716 82.8958 75.1447ZM77.6843 3.40575C77.6874 3.40543 77.6903 3.4051 77.6934 3.40478C77.6925 3.40527 77.6913 3.40575 77.6904 3.40624C77.6883 3.40608 77.6863 3.40591 77.6843 3.40575ZM165.411 75.6901C165.273 75.6311 165.196 75.5798 165.168 75.5348C165.168 75.5306 165.168 75.5264 165.168 75.5221C165.242 75.5774 165.321 75.6333 165.411 75.6901ZM269.582 75.6364C267.768 75.3318 273.812 74.8475 275.766 74.9631C275.629 75.1021 275.608 75.2282 275.289 75.3879C273.712 75.0278 269.884 75.6877 269.582 75.6364ZM332.277 4.21709C334.605 5.22332 334.014 5.4184 333.071 5.08728C332.104 4.77458 330.564 4.47122 330.506 3.99368C330.516 3.94614 332.156 4.13948 332.277 4.21709ZM307.257 75.5104C308.474 75.1463 306.028 75.0496 309.939 75.1125C310.167 75.2068 310.395 75.3014 310.622 75.3957C309.501 75.4338 308.378 75.4723 307.257 75.5104ZM337.62 33.2368C337.822 39.2497 338.18 45.0004 339.184 41.0838C339.152 40.6287 339.121 40.1673 339.089 39.7123C338.599 39.644 338.866 37.9647 338.882 35.5066C338.688 35.1562 338.643 33.793 338.477 33.5372C338.158 33.0426 337.933 34.6089 337.62 33.2368ZM109.597 4.35541C109.694 4.27179 109.789 4.18773 109.885 4.10494C110.836 4.01055 111.79 3.91662 112.741 3.82224C112.587 3.98271 112.433 4.14318 112.28 4.30366C111.386 4.32103 110.497 4.33852 109.603 4.3559C109.601 4.35574 109.599 4.35557 109.597 4.35541ZM219.587 74.4519C219.041 75.3723 220.949 75.2028 224.821 74.7375C223.079 74.6423 221.329 74.5471 219.587 74.4519ZM266.831 4.77971C266.706 4.51822 266.583 4.25754 266.452 3.99605C264.396 4.26845 264.778 4.5679 265.763 4.91398C266.121 4.86931 266.473 4.82437 266.831 4.77971ZM237.221 4.89103C238.074 4.94558 237.639 4.73446 237.728 4.73869C239.886 4.84964 240.19 4.94648 242.838 4.78752C243.163 4.73206 243.482 4.67374 243.806 4.61663C242.582 4.06871 241.693 4.36734 239.103 4.04537C239.57 4.23331 240.035 4.42151 240.502 4.61028C239.061 4.57055 237.627 4.53137 236.187 4.49164C236.016 4.54959 235.845 4.60701 235.674 4.66497C236.186 4.73946 236.715 4.82317 237.221 4.89103ZM98.6005 4.11763C97.1997 4.0961 95.7925 4.07373 94.3918 4.0522C94.3405 4.18715 94.2913 4.323 94.24 4.45795C95.6917 4.34455 97.1488 4.23103 98.6005 4.11763ZM190.827 74.8713C190.716 74.9192 190.607 74.9673 190.511 75.0163C190.521 74.9566 190.642 74.91 190.827 74.8713ZM3.92831 11.5137C4.39165 10.0646 5.49094 8.1152 6.78019 7.03647C6.62456 6.95178 5.72878 7.64364 4.9777 8.70676C4.2042 9.75494 3.67841 11.154 3.42136 11.8901C3.42987 12.1497 3.7228 12.1215 3.92831 11.5137ZM331.962 74.2954C332.277 74.0039 332.564 73.6977 332.819 73.3821C333.637 72.9959 334.403 72.4889 335.085 71.8778C335.01 71.7584 334.933 71.639 334.857 71.521C333.481 72.89 332.673 73.0752 332.194 73.1752C331.691 73.2446 331.387 73.172 330.478 73.1871C330.921 73.5931 331.414 73.9666 331.962 74.2954ZM54.0311 4.99454C57.1116 4.90099 58.2043 4.72624 56.4677 4.31147C55.3804 4.40665 54.287 4.50192 53.1996 4.5971C53.4786 4.72954 53.7578 4.8621 54.0311 4.99454ZM134.724 74.5588C132.146 74.7138 132.103 74.1571 129.583 74.468C130.932 74.5706 132.282 74.6744 133.625 74.7771C133.988 74.7045 134.36 74.6314 134.724 74.5588ZM261.155 73.0301C260.068 72.8364 258.035 73.7569 254.977 73.0774C254.249 73.2802 253.792 73.474 253.166 73.6726C252.801 73.4565 252.387 73.2377 252.04 73.0232C252.038 73.0232 252.036 73.0232 252.034 73.0232C249.261 73.0961 251.059 73.3671 250.996 73.5965C250.967 73.6915 248.908 73.5326 249.552 73.7395C250.662 74.0947 254.811 73.8905 254.822 74.3235C253.365 74.1819 250.518 74.3002 251.36 74.5891C252.283 74.9062 254.965 74.3748 256.673 74.6379C254.225 73.9458 259.281 74.1596 259.856 74.6911C262.823 74.283 260.096 74.1165 257.056 74.1355C258.912 73.7282 256.18 73.9482 255.73 73.6096C257.644 73.4052 264.213 73.5756 261.155 73.0301ZM335.947 9.2007C336.896 10.4628 337.372 12.7285 337.476 14.1325C337.504 14.4042 337.542 14.6469 337.592 14.8513C337.701 15.2957 337.796 14.5504 337.911 14.1325C337.983 13.8834 338.062 13.7495 338.165 14.1325C338.195 14.257 338.228 14.4329 338.262 14.6723C338.259 14.478 338.255 14.2983 338.25 14.1325C338.173 12.6471 337.898 12.3716 337.72 12.6918C337.623 12.2831 337.497 11.8793 337.346 11.4925C337.342 11.2938 337.329 11.0889 337.311 10.8877C337.127 10.72 336.939 10.562 336.749 10.4201C336.59 10.019 336.398 9.62377 336.181 9.24661C336.105 9.2347 336.016 9.19046 335.947 9.2007ZM60.7052 74.5759C61.2745 74.5726 61.8383 74.5693 62.4075 74.5652C62.3448 74.498 62.2701 74.4281 62.1981 74.3591C62.1466 74.3046 62.095 74.2501 62.0434 74.1955C62.3733 74.3903 65.0854 74.7141 66.2278 74.5061C66.8023 74.4017 65.4952 74.0312 67.9301 73.9665C66.1654 73.9856 64.5307 74.0362 62.8172 74.0676C62.9709 73.9575 63.1186 73.8462 63.2723 73.7361C63.2713 73.7359 63.2703 73.7358 63.2693 73.7356C62.7001 73.7108 62.1241 73.6848 61.5548 73.6599C61.2701 73.9654 60.9899 74.2704 60.7052 74.5759ZM268.5 5.29677C270.442 5.08068 271.092 4.96846 270.175 4.61907C270.173 4.61891 270.171 4.61874 270.169 4.61858C269.446 4.77338 268.722 4.92812 267.999 5.08291C268.165 5.15412 268.329 5.22557 268.5 5.29677ZM174.101 73.718C169.973 75.0452 179.27 74.2316 177.5 73.7795C177.42 73.7588 174.488 73.8646 174.101 73.718ZM325.591 74.4284C326.605 74.4188 327.621 74.41 328.64 74.4006C328.753 74.3994 328.867 74.3963 328.979 74.3912C328.865 74.3213 328.751 74.2495 328.64 74.1757C328.495 74.0867 328.35 73.9976 328.207 73.9084C327.335 74.0815 326.462 74.2554 325.591 74.4284ZM67.4432 5.59705C68.6358 5.96135 71.6973 6.09333 73.1934 5.69714C72.4076 5.65078 71.6215 5.60435 70.8356 5.55799C72.3212 5.51247 73.7902 5.46236 75.2871 5.41932C75.3668 4.9118 73.6416 5.20624 71.045 5.06631C70.6429 5.04375 68.0728 4.41376 67.1853 4.88859C67.0067 4.98618 69.7409 5.05254 67.8407 5.33632C68.6716 5.35865 69.3887 5.3537 70.1741 5.3661C70.2311 5.48698 70.2875 5.608 70.3501 5.72888C69.379 5.68511 68.4144 5.64082 67.4432 5.59705ZM337.494 20.1312C337.466 22.9476 337.669 23.2954 338.027 23.8817C337.987 22.5721 337.947 21.2619 337.906 19.9522C337.769 20.0147 337.632 20.0688 337.494 20.1312ZM92.6166 5.71325C94.1585 5.77188 93.4981 5.48015 94.1187 5.42469C96.4644 5.21609 98.0645 5.42458 100.382 5.29384C100.228 5.35014 100.087 5.40276 99.9387 5.45741C99.9407 5.45741 99.9427 5.45741 99.9447 5.45741C110.917 5.70328 105.154 5.04169 98.5883 5.14932C98.4346 5.04086 98.2869 4.93226 98.1332 4.82463C95.1951 5.01422 92.4857 5.19664 92.6166 5.71325ZM210.778 73.6726C210.653 73.6047 211.717 73.1733 209.719 73.3753C208.136 74.0052 210.732 73.6925 211.382 73.9348C210.841 73.9953 210.288 74.0541 209.752 74.1145C212.987 74.2925 213.459 74.1427 212.28 73.6824C212.196 73.6514 210.904 73.7403 210.778 73.6726ZM189.522 73.3621C189.078 74.2902 193.16 73.8729 193.011 73.5847C192.448 73.5732 192.01 73.7304 191.412 73.6609C190.809 73.5914 190.655 73.3746 189.522 73.3621ZM306.465 73.5891C306.345 73.585 305.144 73.1949 305.263 73.5003C306.75 74.2231 309.744 73.7578 309.22 73.5061C308.23 73.5186 307.569 73.627 306.465 73.5881C306.465 73.5885 306.465 73.5888 306.465 73.5891ZM48.8665 5.81579C48.9234 5.84168 51.9207 5.99847 52.3075 5.8529C52.6263 5.68899 52.7846 5.51333 53.0236 5.34364C51.3723 5.50095 48.0299 5.38112 48.8726 5.81579C48.8705 5.81579 48.8686 5.81579 48.8665 5.81579Z" fill="#000F55"/>
</svg>
