<svg width="68" height="70" viewBox="0 0 68 70" fill="none" xmlns="http://www.w3.org/2000/svg">
<path d="M31.55 1.70504C31.0199 1.34427 32.7896 1.58076 31.6144 1.04199C31.8595 1.00558 32.1061 0.968042 32.3511 0.931641C32.4133 1.13117 32.4769 1.33022 32.5391 1.52976C32.21 1.58851 31.8808 1.64726 31.55 1.70602C31.55 1.70569 31.55 1.70537 31.55 1.70504ZM31.1007 4.20394C31.4023 3.63483 32.3605 3.48309 31.3253 2.95791C31.243 3.15322 31.1588 3.3485 31.0765 3.54382C30.7171 3.39233 30.3555 3.24088 29.9961 3.09022C29.8669 3.16469 29.7378 3.23923 29.6085 3.31287C29.4439 2.97346 29.2808 2.63314 29.1162 2.2929C29.2624 2.34258 29.4105 2.39312 29.5566 2.4428C30.1343 2.16718 30.6484 2.0918 31.4327 2.04047C31.3639 1.96016 31.2948 1.88056 31.226 1.80025C31.624 1.93685 32.0219 2.07379 32.4182 2.21039C32.074 2.34447 31.6891 2.49359 31.3701 2.61857C31.8806 3.15074 32.7811 2.85456 33.2498 2.74356C33.8881 2.59206 33.7438 2.8451 34.2174 2.73917C34.293 2.72261 34.3016 2.52427 34.451 2.52092C35.2052 2.50519 36.67 2.61032 35.8134 3.07314C34.5721 3.01352 33.5134 3.38518 32.2956 3.2494C32.6178 3.78454 31.9762 3.96665 31.1007 4.20394ZM53.9043 2.49992C53.5281 2.75983 52.762 2.65494 52.243 2.47453C52.2424 2.47453 52.2418 2.47453 52.2412 2.47453C52.1269 2.43479 51.8683 2.08938 52.2412 2.10346C52.8491 2.12758 53.143 2.6713 53.4621 2.30218C53.6049 2.37089 53.7548 2.43203 53.9043 2.49992ZM55.2254 2.4677C55.258 2.47935 55.2865 2.4931 55.3109 2.50844C55.5173 2.61342 55.4904 2.78989 55.3109 2.8725C55.2305 2.91747 55.1116 2.93527 54.9623 2.8998C54.9623 2.90013 54.9623 2.90046 54.9623 2.90078C54.7674 2.85442 55.1499 2.53059 54.4512 2.85928C54.3085 2.60356 54.1679 2.37091 54.0269 2.12348C54.198 2.11934 54.354 2.11263 54.5335 2.10932C54.4127 2.52964 54.8526 2.33545 55.2254 2.4677ZM36.4435 2.8417C36.5022 2.46357 36.2566 2.46595 35.8384 2.20355C36.2331 2.21597 36.6279 2.22922 37.0209 2.24163C36.8278 2.44191 36.6366 2.64143 36.4435 2.8417ZM27.1712 2.78311C27.1706 2.78311 27.17 2.78311 27.1694 2.78311C27.04 2.84272 26.9103 2.90255 26.7827 2.96133C26.7054 2.82637 26.629 2.692 26.5518 2.55705C26.0949 2.68372 25.6355 2.81039 25.1787 2.93789C25.2342 2.52565 26.0543 2.59273 26.5061 2.30462C27.1779 2.42882 27.5016 2.6681 27.5453 3.01747C27.4211 2.93968 27.2971 2.8609 27.1712 2.78311ZM47.6508 68.097C47.498 68.2112 47.3472 68.3255 47.1943 68.4397C47.3975 68.4918 47.5991 68.5316 47.8039 68.592C48.3397 68.0953 48.39 68.5347 49.092 68.5042C51.2436 68.4098 50.6727 67.6383 52.616 68.7683C51.0558 68.7146 51.6554 69.2455 50.7148 69.6545C50.5199 69.3432 51.452 68.6411 50.8204 68.4954C49.7321 68.8248 48.6856 69.1317 47.4781 69.3444C47.5134 69.3983 47.5484 69.4523 47.5837 69.5061C47.7752 69.4721 47.9651 69.438 48.1566 69.404C47.95 69.5481 47.748 69.6909 47.5381 69.8366C47.8034 69.5096 47.1271 69.6923 47.2176 69.3166C47.2579 69.1494 47.5568 68.9174 47.7332 68.7576C47.2781 68.6706 46.8113 68.591 46.3512 68.5066C46.5896 68.3734 46.8278 68.24 47.0646 68.1067C47.2593 68.1026 47.4525 68.0996 47.6473 68.0955C47.6485 68.096 47.6497 68.0965 47.6508 68.097ZM0.787076 10.1597C0.853605 10.9646 0.576755 12.127 0.0423687 12.7189C0.195983 11.8426 0.445454 10.9831 0.787076 10.1597ZM27.5892 3.30555C27.5237 3.23939 27.4604 3.17395 27.3949 3.1078C27.6838 2.98529 27.9743 2.86363 28.2632 2.74112C28.3186 2.93229 28.3753 3.1235 28.4324 3.31385C28.1519 3.31136 27.8696 3.30803 27.5892 3.30555ZM46.0694 3.09267C45.8581 3.10423 45.8394 3.09797 45.5762 3.07069C45.5765 3.07086 45.5768 3.07102 45.5771 3.07118C45.4728 3.061 44.6 2.94934 44.6972 2.80215C45.1306 2.79967 45.5929 2.80215 46.0363 2.80215C46.0498 2.89897 46.0527 2.99502 46.0694 3.09267ZM40.9683 3.00673C40.9677 3.00641 40.9671 3.00608 40.9665 3.00576C40.8087 2.9834 40.6593 2.93788 40.4965 2.92959C41.0826 2.69794 41.1752 3.11355 41.7076 2.99599C42.24 2.8776 42.569 2.64829 43.0207 3.21766C42.8528 3.30294 42.6719 3.42493 42.4989 3.52429C41.7431 3.29663 41.5396 3.51087 40.9333 3.73521C40.9451 3.49184 40.9565 3.25011 40.9683 3.00673ZM57.5335 69.0368C57.6422 68.7295 57.8799 68.9591 57.9011 68.9576C57.9009 68.958 57.9006 68.9584 57.9003 68.9588C59.2757 68.3282 57.7533 69.1919 59.133 68.8174C58.9536 68.9527 58.7735 69.0865 58.5857 69.2132C58.2273 69.1732 57.8648 69.1002 57.5335 69.0368ZM66.9942 29.81C67.0761 29.7982 67.1583 29.7842 67.2402 29.7724C67.2212 30.498 67.5439 30.683 67.25 31.286C67.1639 30.794 67.0784 30.302 66.9932 29.81C66.9935 29.81 66.9938 29.81 66.9942 29.81ZM49.7268 3.68883C48.9222 3.84531 48.3271 3.91426 47.5544 3.66588C47.5538 3.66555 47.5532 3.66523 47.5526 3.6649C47.5081 3.64962 47.7235 3.47813 47.6654 3.43493C47.506 3.46058 47.3414 3.50001 47.1803 3.53063C47.1584 3.39331 47.1376 3.25602 47.1158 3.11952C47.5693 3.15843 48.023 3.19731 48.4782 3.23621C48.411 3.15591 48.3422 3.0763 48.275 2.99599C48.6612 2.9546 49.0461 2.91336 49.4323 2.87197C49.298 3.09709 49.164 3.32226 49.0313 3.54821C49.263 3.59538 49.4951 3.64083 49.7268 3.68883ZM66.0972 41.8903C66.1866 41.7626 66.3366 41.999 66.4136 41.8008C66.4896 41.6025 66.3228 41.2371 66.5752 41.3228C66.6092 41.5897 66.6481 41.8699 66.6836 42.1418C67.1389 41.2667 66.7269 40.3937 67.2891 40.3802C67.1434 41.2201 67.211 41.9106 67.3667 42.7236C66.9205 42.69 66.5347 41.8769 66.1158 42.3889C66.11 42.2244 66.1015 42.0515 66.0982 41.8921C66.0979 41.8915 66.0976 41.8909 66.0972 41.8903ZM15.8347 8.90097C15.3375 8.86703 14.1983 9.04913 13.5701 8.78916C13.4155 8.72509 12.9006 7.89519 12.9032 7.78579C12.9184 7.41737 13.5472 7.36722 12.8737 7.12713C13.1003 7.12464 13.3202 7.11081 13.545 7.10419C13.5047 6.85663 13.4646 6.60974 13.426 6.36301C13.1522 6.40027 12.8781 6.43771 12.6043 6.4758C12.5908 6.39383 12.5774 6.31168 12.564 6.22972C13.5483 6.22806 12.9673 5.9117 13.4779 5.61695C13.0077 5.46796 12.534 5.31968 12.0654 5.17069C12.3358 5.1889 12.6549 5.20239 12.8934 5.22391C12.9253 4.80418 12.3563 4.90425 12.2588 4.82647C11.7096 4.38686 14.5058 4.60874 14.7346 3.99789C14.2879 3.93002 13.8192 3.86378 13.3624 3.79673C13.4934 3.72139 13.6262 3.64601 13.7572 3.57067C14.7934 3.99198 15.9555 4.14123 17.163 4.40364C17.2721 4.38626 17.3814 4.36843 17.4888 4.35188C17.4569 4.16236 17.4268 3.97356 17.3949 3.78404C17.5595 3.76168 17.7261 3.7395 17.8908 3.71715C17.4054 4.34135 18.0775 4.33284 18.8888 4.71368C18.4572 4.93304 17.9247 4.80005 17.9615 5.20877C19.4428 4.89431 21.1776 5.33872 22.6187 4.98369C22.9764 4.89594 22.9752 4.36868 23.8163 4.41731C23.7878 4.47526 23.7829 4.57989 23.7644 4.65607C25.219 4.40354 26.1016 4.25259 27.6133 4.51008C27.526 4.32057 27.4402 4.13027 27.3529 3.94077C27.032 4.03515 26.7107 4.13104 26.3915 4.22542C26.1732 3.91249 26.4959 3.77438 25.5385 3.77769C24.7541 3.78017 25.221 3.91835 25.0077 4.01108C24.7188 4.13767 24.4654 3.88863 24.1547 4.03012C23.9145 4.13858 24.1743 4.39678 23.5478 4.33137C23.7998 3.99689 24.0568 3.6515 24.3104 3.31287C24.4633 3.38821 24.615 3.46472 24.7678 3.54089C24.6133 3.6303 24.4614 3.71855 24.3068 3.80796C24.851 3.64736 25.3652 3.49587 25.9279 3.32947C25.7448 3.81299 26.3264 3.6317 26.6422 3.57458C27.1341 3.48525 26.7126 3.81802 27.0351 3.76255C27.3576 3.70623 27.7054 3.33446 28.2882 3.41394C27.9759 3.62917 28.4008 3.82217 28.3187 4.02084C28.2364 4.21951 27.6199 4.2635 28.2122 4.48029C29.351 4.31554 28.1152 3.55897 28.8844 3.4364C29.8081 3.28904 30.028 4.5223 29.7526 4.78741C29.536 4.99605 28.7904 4.95409 28.572 5.1619C29.9073 5.53693 29.9189 4.79656 30.1474 4.65167C30.9771 4.12432 30.4197 5.53185 31.4023 5.02275C31.3838 5.28596 31.3689 5.5227 31.3504 5.77515C31.5199 5.72714 31.6325 5.66333 31.8373 5.62526C31.2333 5.1124 31.7277 5.13438 31.9814 5.13358C32.3812 5.13192 31.7637 4.88177 31.8695 4.81719C32.1551 4.64438 32.6067 4.72285 32.3296 4.49689C32.4539 4.60204 32.5887 4.7075 32.7163 4.81182C33.1834 4.6808 34.281 3.58219 33.2364 3.80406C33.3338 3.39588 33.6717 3.59207 33.9354 3.65416C34.1991 3.7162 34.1942 3.45625 34.426 3.50427C35.348 3.69636 34.7448 4.14102 34.5987 4.48957C35.8164 4.24948 34.6243 4.09064 36.3791 3.93003C36.5487 3.64605 35.7379 3.34302 36.4131 3.17909C36.5375 3.67244 37.0346 4.02685 38.0037 4.19076C38.0977 4.07733 38.1916 3.96289 38.2856 3.84946C38.8148 4.30483 38.5443 4.77835 39.5236 4.2137C38.9978 5.25274 39.3593 4.58802 40.2361 5.01103C40.4141 5.09631 40.0027 5.31188 40.2513 5.42116C40.364 5.47045 40.6375 5.30773 40.9128 5.43337C41.0471 5.49546 41.6754 5.8961 42.1104 5.70582C41.7913 5.20243 42.6178 4.77419 41.909 4.35774C43.2192 4.4604 44.1361 4.21871 42.6681 4.90508C43.0006 5.05742 43.3335 5.20911 43.6661 5.36062C43.8979 5.24057 44.1317 5.12146 44.3652 5.00224C44.4004 5.41596 44.365 5.53203 45.2782 5.45925C44.882 5.5569 44.4874 5.65617 44.0895 5.75464C44.076 5.83819 44.0207 5.92502 44.034 6.0061C44.5213 5.84719 45.8935 5.7788 46.2261 5.66871C46.5587 5.55859 45.9164 5.52846 46.0122 5.42165C46.8098 4.54093 46.7466 5.1905 47.319 5.03935C47.6549 4.94993 46.8528 4.85283 47.0326 4.81475C47.699 4.67516 48.0081 5.14324 48.599 5.1492C48.3891 4.88352 48.1809 4.6137 47.976 4.34553C48.5958 4.35961 49.2867 4.36197 49.8629 4.27669C50.089 4.2434 49.9181 4.0458 49.9551 4.03256C50.1383 3.96467 50.884 3.85713 50.963 3.8563C51.5572 3.85472 51.5742 4.12841 52.1517 4.1434C51.925 4.16657 51.7118 4.18745 51.4902 4.2098C51.3894 4.65352 51.2866 5.09722 51.1858 5.54176C51.7518 5.57405 52.318 5.60567 52.8856 5.63795C52.4708 5.48977 52.0545 5.3423 51.6397 5.19412C52.288 4.83564 52.9364 4.47634 53.5847 4.11703C53.9223 4.33725 54.2586 4.55742 54.5962 4.77764C54.997 4.75224 55.1873 4.56707 55.3109 4.43213C55.4773 4.25921 55.5426 4.1685 55.778 4.61909C56.0604 4.56542 56.3452 4.523 56.6368 4.49376C56.5825 4.59955 56.5298 4.706 56.478 4.81254C56.8156 4.78189 57.1579 4.76856 57.5034 4.77165C57.2388 4.31012 56.9399 3.83854 56.5905 3.41361C57.3424 3.41851 57.2984 3.77101 57.3883 3.86866C57.6229 4.13419 58.2398 3.97629 58.403 4.2406C58.453 4.32415 57.7334 4.36403 57.8999 4.6706C57.9532 4.72967 58.4945 5.85203 59.0346 5.8527C59.0901 5.692 59.1301 5.48355 59.1778 5.30374C59.9291 5.50014 59.8363 6.47922 59.636 6.64937C60.0382 6.65881 60.5012 6.93428 60.7146 6.75297C60.8788 6.85374 61.0391 6.95906 61.1974 7.06947C60.6529 7.48313 61.3159 7.84496 61.7278 7.45926C61.4847 7.23176 61.2298 7.01528 60.964 6.81265C61.5564 6.41024 61.0252 5.37659 62.3351 7.31039C62.4003 7.85745 61.8097 6.77843 61.8863 7.20935C62.2244 7.70515 62.7048 8.0062 62.865 8.5883C63.0328 9.3195 62.3249 8.81013 63.5109 9.84777C62.217 6.46757 64.5807 9.70894 65.336 11.3636C64.6078 12.1237 64.6784 13.2754 64.8893 14.9316C64.9028 15.0448 64.9186 15.16 64.9366 15.2771C65.037 15.2046 65.0821 15.0789 65.1033 14.9316C65.1413 14.6757 65.0905 14.3602 65.1302 14.138C65.1898 13.7869 65.3915 14.1491 65.4721 13.6956C65.5587 13.2416 65.5328 12.2646 65.5684 11.7565C65.8756 12.0686 66.5847 14.0022 65.9124 12.7729C65.8388 13.6422 65.643 14.1011 65.5566 14.9316C65.5405 15.0671 65.5284 15.2133 65.5211 15.3738C65.9524 15.7097 66.221 15.6849 66.2335 16.7782C65.6341 16.1316 65.2175 17.374 64.5983 17.1004C64.7425 16.3251 65.3443 16.7585 65.6324 16.3101C65.6612 16.2641 65.5103 15.5417 65.5211 15.3738C64.9804 16.1028 64.7792 16.3549 64.1359 15.9064C64.1922 16.4221 64.1114 16.7428 64.4186 16.7898C64.2853 16.8973 64.152 17.0054 64.0187 17.1112C64.022 17.279 64.0344 17.4301 64.0319 17.608C64.4952 17.363 64.21 17.8379 64.4201 18.1755C64.6304 18.5131 64.9961 18.0601 65.0011 18.9873C65.1096 18.6783 65.2026 18.3957 65.3053 18.0967C65.4245 18.6946 65.5444 19.2944 65.6637 19.8923C65.9468 19.4724 66.3673 18.5623 66.7398 18.5872C66.5991 18.8626 66.8463 19.806 66.8565 19.9093C66.8946 20.3091 66.6596 20.0912 66.6538 20.1214C66.5397 20.7495 66.6197 21.2668 66.2637 21.5052C66.4243 21.9772 66.3328 22.3331 66.3418 22.8336C66.3468 23.109 66.6083 23.0555 66.5586 23.2167C66.2275 24.2883 65.8896 23.2673 66.5328 25.3345C66.7149 25.0842 66.9012 24.8373 67.085 24.5871C67.1537 24.8206 67.2228 25.0527 67.2915 25.2862C67.2584 25.4424 67.225 25.5972 67.1919 25.7534C66.797 25.75 66.4013 25.746 66.0064 25.7427C65.9849 25.914 65.964 26.086 65.9425 26.2573C65.9035 25.9634 65.8647 25.6687 65.8258 25.3748C65.7563 25.3479 65.6868 25.3228 65.6173 25.296C65.5096 25.7327 65.401 26.1679 65.2926 26.6046C65.4299 26.613 65.5683 26.6213 65.7056 26.6297C65.5144 27.614 65.3981 27.6374 65.7764 28.573C65.7723 29.2936 66.3467 29.8804 66.5884 30.2969C66.5114 30.4464 66.4335 30.596 66.3565 30.7472C66.4707 30.8429 66.5845 30.9396 66.6988 31.0354C66.5398 31.2252 66.3808 31.4176 66.2227 31.6074C66.5835 31.7131 66.6961 31.7679 66.8228 31.0273C67.2715 31.281 67.0736 32.5848 66.9229 33.1156C66.8085 33.5183 66.4342 33.0715 66.3887 33.1219C66.234 33.29 66.3675 33.9537 66.3418 34.0931C66.2351 34.6826 66.2537 35.0957 66.171 35.6282C66.1544 35.7318 65.9172 36.0216 65.9097 36.0462C65.8692 36.2377 65.7539 36.7103 65.7506 36.764C65.5735 39.5366 66.6026 36.5741 66.4942 39.1522C66.6299 39.0749 66.7647 39.0039 66.9004 38.9284C66.9087 39.1231 66.9166 39.3199 66.9248 39.5147C66.8114 39.7616 66.6051 39.4629 66.7715 39.9533C66.6043 39.9214 66.437 39.8893 66.2706 39.8557C66.3608 40.069 66.4503 40.2747 66.5406 40.493C65.9602 40.8357 65.8284 42.0866 65.1471 41.9977C64.9153 41.9675 64.6774 41.0806 64.4298 41.5493C64.3811 41.93 64.658 41.6723 64.6725 41.8276C64.7735 42.9497 64.3854 42.8845 64.4889 43.343C64.6552 43.4152 64.8248 43.4912 64.9928 43.565C64.944 43.7379 64.8951 43.9114 64.8463 44.086C64.9581 44.1263 65.07 44.1683 65.1817 44.2086C65.1892 44.0457 65.1968 43.8622 65.2042 43.7127C65.6371 43.9212 65.8316 45.8355 65.4625 45.1055C65.3127 44.8082 65.3763 44.2637 64.8649 44.6078C64.9385 45.1201 65.0138 45.7013 65.0875 46.2405C64.9774 46.2573 64.8671 46.2729 64.757 46.2897C64.8282 47.0163 65.2685 46.3555 65.5045 46.3568C65.5111 46.523 65.5169 46.691 65.5235 46.8572C65.4168 46.9277 65.3052 46.9946 65.2018 47.0684C65.3716 47.0752 65.7662 47.1683 65.6197 47.6637C65.5244 47.9822 65.096 47.4806 65.1554 48.088C65.4203 48.0426 65.7429 47.8232 65.8282 48.4997C65.5517 48.5669 65.2985 48.6598 65.0079 48.7119C65.2735 49.5532 64.8466 49.9361 65.1554 50.9236C65.3508 51.5502 66.0444 52.4084 64.9757 52.8132C64.9476 53.2715 65.2137 53.126 65.2735 53.2617C65.5567 53.9016 65.0499 54.3776 65.0201 54.4969C64.8291 55.2575 65.0045 55.5985 64.7653 56.2182C64.9631 56.1846 65.1504 56.1663 65.3434 56.1394C65.047 55.5717 65.0609 55.2841 65.1246 54.4879C65.1644 54.7549 65.205 55.0221 65.2447 55.2891C65.4053 55.2454 65.5659 55.2021 65.7257 55.1602C65.0931 52.6977 66.0925 53.2721 66.3111 55.3365C66.0139 55.5145 65.7175 55.699 65.4195 55.8754C65.681 56.5678 65.6589 57.0474 65.576 57.5919C65.515 57.9977 65.4057 58.4245 65.2899 58.9842C65.2619 59.1402 65.3252 59.7549 65.2674 60.0088C65.2696 60.0049 65.2717 60.001 65.2738 59.9971C65.5081 60.2205 65.6857 60.0384 65.9363 60.0661C65.9334 60.2178 65.9272 60.3697 65.9176 60.5229C65.6397 60.7912 65.5345 60.6343 65.367 61.2525C65.5754 61.2367 65.784 61.2173 65.9935 61.1919C65.7572 61.8974 65.3735 62.2496 65.1354 62.8884C65.1263 62.7537 65.1139 62.6211 65.0997 62.4885C64.2447 63.6717 63.8504 62.1078 63.7785 63.2752C63.6611 63.2747 63.5444 63.2705 63.4282 63.2662C63.6432 62.9173 63.8365 62.5566 64.0047 62.1877C63.8864 62.1157 63.7688 62.0438 63.6494 61.9738C63.4922 62.3612 63.308 62.7429 63.0975 63.1107C63.2002 62.806 63.2864 62.4984 63.3544 62.1933C63.0609 62.572 62.7406 62.9238 62.3988 63.2456C63.1099 63.1612 62.7527 63.7194 63.2195 63.9384C62.2938 64.3911 61.5036 64.4516 60.6247 65.4948C60.4446 65.6934 60.7487 65.9391 59.8752 65.9444C60.3234 66.3461 59.5439 67.038 59.8735 67.4615C60.1343 67.3127 60.4022 67.1562 60.6377 66.986C60.2564 66.9862 59.9914 66.5558 60.3138 66.1996C60.7202 65.7535 61.6045 65.5147 61.226 65.0907C61.4186 64.9722 61.5889 64.8483 61.7665 64.7175C61.7935 64.8818 61.8187 65.0472 61.8393 65.2137C62.1878 64.6226 62.4935 64.3912 62.9723 64.3861C62.5068 65.0329 61.9609 65.631 61.344 66.1642C61.4555 66.1149 61.5678 66.0627 61.6778 66.0085C61.3806 66.6633 62.1391 66.5816 61.1394 67.3109C61.0611 67.1658 60.9812 67.0215 60.9019 66.876C60.7724 67.4927 59.6306 68.0204 60.2022 68.3121C59.7834 68.3298 59.6812 68.2615 59.5761 68.5969C58.4699 68.6069 57.7776 68.2341 57.9513 67.5987C57.6528 67.774 57.3407 67.9362 57.0187 68.0829C57.2406 68.208 57.4677 68.326 57.7052 68.4365C57.0945 68.5608 56.4697 68.6333 55.8506 68.6538C55.7723 68.2018 57.0103 68.4059 56.6121 68.024C56.5346 67.9498 56.2375 68.1618 56.1489 68.1198C55.246 67.6647 56.6301 67.9411 56.3359 67.5643C55.4521 67.5506 55.6789 67.1698 55.3109 67.1703C55.15 67.1666 54.8796 67.2241 54.3695 67.389C54.3241 67.2532 54.2754 67.1147 54.2334 66.9798C53.6375 66.9717 53.6858 67.2783 53.1736 67.3362C52.8528 67.3723 52.4502 66.8339 52.0959 67.2005C52.0328 67.2681 52.6287 67.9262 51.3763 67.8973C50.4042 67.8748 50.8088 67.4097 50.2833 67.2449C49.7576 67.0802 48.5549 67.7251 48.2004 66.994C48.4758 67.0908 48.8266 67.143 49.1322 67.2225C49.2565 67.0801 49.3775 66.9393 49.5001 66.7977C48.8014 66.9815 48.0791 66.7649 47.6088 67.1043C46.6765 66.5852 45.6339 67.0669 45.9161 67.6531C46.223 67.5686 45.8892 67.313 46.3154 67.4759C46.359 67.6125 46.405 67.7484 46.4487 67.885C45.7231 67.8685 45.2191 67.8723 45.55 67.4559C45.4375 67.4459 45.326 67.436 45.2135 67.4261C45.1933 67.7275 45.1755 68.0299 45.1553 68.3313C45.0209 68.3653 44.886 68.3989 44.7516 68.4329C44.6022 68.3667 44.4525 68.2997 44.3014 68.2327C44.5046 67.7558 44.8508 67.74 43.7052 67.4734C43.7019 67.6382 43.697 67.8023 43.6936 67.9671C42.7345 67.7576 42.7092 67.3585 41.5051 67.3734C42.4289 66.8013 42.9343 67.8153 42.931 66.6678C43.1628 66.7432 43.3965 66.8195 43.6283 66.8949C43.6635 66.7284 43.6985 66.5618 43.7321 66.3954C42.4875 66.4832 40.4202 67.5776 39.5869 66.8519C39.4861 66.9405 39.385 67.0174 39.2825 67.1126C38.4662 66.6746 38.1137 67.6579 37.2856 67.0916C37.2001 67.0322 37.3789 66.1084 36.301 66.1415C36.3278 66.2616 36.3418 66.4636 36.3636 66.6151C36.1302 66.5414 35.8981 66.4643 35.6663 66.389C35.6244 66.4999 35.5803 66.6108 35.5383 66.7225C35.9364 66.7656 36.3334 66.8093 36.7315 66.8524C36.4007 66.8905 36.0678 66.9286 35.737 66.9666C36.1686 67.1479 36.3633 67.1498 36.1031 67.4402C35.7286 67.4576 35.3535 67.4761 34.9789 67.4935C34.9403 67.5679 34.902 67.6432 34.8634 67.7176C35.0448 67.9394 35.228 68.1564 35.4094 68.3816C34.4336 68.2003 33.5851 68.1905 32.836 67.7542C32.7084 67.6805 33.1598 67.3915 32.29 67.6522C32.2766 67.4991 32.2532 67.3747 32.2381 67.2332C31.1732 67.6621 30.8233 67.5341 29.713 67.2244C30.4319 67.5134 29.7905 67.3255 29.6074 67.4803C29.4819 67.587 29.9716 67.5712 29.9162 67.6829C29.8608 67.7938 29.2245 68.2418 29.7685 68.2957C31.1022 67.3775 31.4655 68.4753 33.1788 68.034C32.9151 68.1524 32.6495 68.271 32.3858 68.3894C32.51 68.4697 32.6212 68.5425 32.7555 68.6277C31.7999 68.4481 32.2646 68.5648 31.872 68.7063C31.4789 68.8479 30.7646 68.9682 30.2859 69.0071C30.1351 69.0193 30.2941 68.8134 29.9538 68.7942C29.722 68.7809 29.0886 69.0862 28.9423 68.7263C28.8466 68.492 29.8642 67.8469 28.4572 67.8484C28.1923 67.6187 28.867 67.6901 28.8815 67.6624C29.0041 67.3892 28.1391 67.1838 27.7393 67.3924C27.7069 67.4104 28.0226 67.6233 27.6793 67.7068C26.8647 67.9064 26.3942 67.6622 25.8668 67.3319C25.8097 67.7193 25.1241 68.1821 24.2708 68.0388C24.2271 68.1497 24.1855 68.2616 24.1419 68.3733C24.2744 68.3146 24.4068 68.2567 24.5393 68.198C24.6838 68.2676 24.8368 68.3182 24.9779 68.4002C24.1198 68.4954 23.9984 69.0295 23.5869 69.2248C22.1788 69.8922 23.0322 68.4804 23.2862 68.2371C23.4693 68.3356 23.6463 68.4456 23.8277 68.5491C23.8076 68.4141 23.7871 68.2781 23.7686 68.1424C21.6607 68.1465 23.4476 67.2663 22.3777 67.0155C22.1022 67.6794 21.3164 67.7434 20.3153 67.3221C20.2045 67.3254 20.0932 67.3262 19.9824 67.3304C19.9639 67.4272 19.9642 67.5752 19.934 67.639C18.728 67.7516 18.5132 66.7291 18.3989 66.6322C17.8917 66.2026 17.4967 66.797 17.3472 66.8021C16.7173 66.8228 16.5343 66.5588 15.9347 66.6722C15.2899 66.7947 15.7308 66.9973 15.5346 67.1785C15.3772 67.3225 14.8685 67.3481 14.6583 67.4974C14.7418 67.3753 14.8346 67.2556 14.9179 67.1331C14.2495 66.9667 13.7033 66.8046 12.9442 66.764C12.6156 67.1066 12.3058 67.0961 12.0654 67.0219C11.6992 66.9016 11.5247 66.6028 11.6628 67.3642C11.8082 67.3876 11.9416 67.4097 12.0654 67.433C12.5401 67.5215 12.8555 67.6601 13.1599 67.9065C12.7952 67.9372 12.4303 67.9673 12.0654 67.9978C11.9533 68.0067 11.8413 68.0139 11.7295 68.0194C11.591 67.8806 11.4973 67.7453 11.3432 67.5977C10.967 67.8656 10.1442 67.6199 9.81075 67.6213C8.23349 67.6059 8.41886 68.1747 7.45456 66.8478C8.4194 67.2112 8.55279 66.8348 9.4639 67.1644C9.33374 66.8389 8.87019 66.7484 9.26389 66.5185C8.39634 66.3138 8.5612 66.6795 8.11867 66.7927C7.73088 66.8857 7.13682 66.5896 7.02608 66.8688C7.04452 66.6901 7.07677 66.5244 7.10119 66.348C6.5625 66.0438 6.05284 65.6885 5.57881 65.2909C5.89195 65.3287 6.20169 65.3496 6.50522 65.3555C6.38976 65.1922 6.28009 65.0265 6.17744 64.8591C4.60034 64.3805 4.09663 61.6647 3.16123 62.6857C2.75966 62.0521 2.88318 61.8781 2.96043 61.4195C2.84913 61.4196 2.75402 61.413 2.63149 61.4148C2.55492 60.9372 2.07492 60.7063 2.05793 60.2584C2.0456 59.815 2.38916 59.6444 1.77556 59.705C1.89124 59.3946 1.99143 59.0997 2.12105 58.8147C1.9635 58.6706 1.81081 58.5208 1.66086 58.3649C1.71318 58.1014 1.77519 57.846 1.84655 57.5919C1.84799 57.5869 1.84944 57.5819 1.85089 57.5769C1.55885 57.4422 1.68473 56.4516 1.4886 56.0149C1.8034 55.6004 2.79458 55.6118 2.61696 54.6365C2.37113 54.6617 2.12601 54.6865 1.88018 54.7117C1.9315 54.4883 1.98266 54.2645 2.03398 54.0394C2.11422 54.026 2.19446 54.0144 2.27469 54.001C2.24986 54.1152 2.22516 54.2278 2.1995 54.342C2.33528 54.2429 2.47044 54.1458 2.60622 54.0484C2.40506 53.7075 2.20389 53.3661 2.00273 53.0235C1.85043 53.4853 1.69803 53.9473 1.54573 54.4091C1.36523 53.8296 1.54527 53.4263 1.34408 52.9224C1.68347 52.484 1.87904 52.6459 2.24735 52.8239C2.2159 52.661 2.18554 52.4962 2.15409 52.3334C2.52246 52.4408 2.74195 52.1653 2.71217 53.1175C2.81724 53.052 2.91741 52.9853 3.02661 52.9215C3.01005 52.7653 3.09886 52.664 3.05835 52.4927C2.9474 52.0258 2.30039 51.6677 2.07353 51.6997C1.9547 51.7169 2.18196 52.1773 2.01396 52.1588C1.6043 52.1133 1.78823 51.0571 1.37679 52.5804C1.11599 52.0749 1.31267 51.9619 1.38802 51.4043C1.25151 51.4479 1.11586 51.4903 0.979348 51.5323C1.04225 51.2737 1.10492 51.0148 1.16781 50.7562C1.86905 51.1157 2.13242 49.2092 2.74586 50.9254C2.77732 50.4182 2.80894 49.9128 2.84205 49.4073C2.91406 49.5114 2.98535 49.6156 3.05737 49.7197C3.01929 49.9481 2.98183 50.1751 2.94458 50.4035C3.07618 50.1349 3.20701 49.8657 3.33861 49.5971C3.1755 48.9622 2.92465 48.7133 2.61501 48.4227C2.38905 49.1616 2.6977 48.9202 2.75904 49.4959C2.56295 49.4758 2.38258 49.5024 2.17655 49.4521C2.58273 49.1545 2.28724 48.1841 2.26737 47.959C2.20704 47.2741 2.60613 47.8112 2.61452 47.353C2.6228 46.8945 2.38526 46.3536 2.78102 45.9791C2.5592 45.9858 2.3297 46.0157 2.12773 46.0426C2.05487 45.3287 2.31692 45.4711 2.35086 45.3972C2.90887 44.2181 2.43777 43.5783 2.38065 42.2295C2.31194 42.4008 2.24991 42.5739 2.18534 42.7468C1.71438 41.7293 1.85859 42.4148 1.70294 43.2982C1.75014 42.4701 1.34905 41.9959 1.22982 41.4114C1.1108 40.8269 1.3168 39.8246 1.47737 39.4582C1.73569 40.2964 1.56534 41.2005 1.63654 42.131C1.86251 42.0252 2.05375 41.9224 2.30204 41.8133C1.82777 41.2473 2.14488 40.9193 2.2078 40.7329C2.39234 40.1854 1.98528 40.2026 2.42312 39.8718C2.2725 39.8852 2.14586 39.8951 2.00518 39.9085C2.0681 38.7781 2.33438 37.5588 1.77814 36.8231C2.13991 36.7559 2.48845 36.7052 2.85767 36.6279C2.58535 36.1493 2.86422 35.7394 2.80055 35.3363C2.7368 34.9349 2.44443 35.0877 2.33182 34.6157C2.31112 34.5284 2.49412 34.3465 2.35916 34.1315C2.22349 33.9144 1.21476 33.1137 2.09599 33.018C2.10014 32.6132 2.13236 32.2301 2.14726 31.8338C2.19693 32.2201 2.24504 32.6065 2.29471 32.9911C2.50829 32.662 2.72124 32.3348 2.93482 32.0056C2.74439 31.9636 2.55052 31.9215 2.36258 31.8812C2.13076 30.9943 2.44211 30.3507 2.36844 29.4555C2.35602 29.306 1.97953 29.6587 2.07548 28.9954C2.17152 28.332 2.87422 27.8396 2.6028 26.7093C2.58873 26.6522 2.05055 26.3175 2.42312 25.9127C2.50756 25.8206 2.63251 26.2083 2.74342 25.9968C2.85436 25.7852 2.94559 24.8409 3.20971 24.7669C3.11617 24.777 3.01926 24.8359 2.92408 24.8645C2.87938 24.7033 2.83465 24.5405 2.79078 24.3776C2.95552 24.3625 3.1205 24.3461 3.28441 24.331C2.90109 23.4039 2.27579 22.9247 2.48269 21.5508C2.24344 21.9371 2.00323 22.3236 1.76398 22.7082C1.93205 22.814 2.10125 22.92 2.26932 23.0242C2.20227 23.6573 2.1357 24.2922 2.06865 24.9254C2.2599 25.0295 2.45061 25.1318 2.64186 25.236C2.61703 25.4039 2.59297 25.5702 2.56814 25.7381C2.42988 25.6961 2.29235 25.6538 2.15409 25.6101C2.18803 25.9426 2.22269 26.2756 2.25663 26.6064C1.44053 25.9329 2.32604 24.7255 1.64338 24.8126C1.7493 24.6632 1.85595 24.5136 1.9627 24.3641C1.63168 24.2986 1.72695 23.9948 1.77911 23.4592C1.61601 23.5818 1.45513 23.7172 1.29037 23.8298C1.52051 23.3091 1.49816 22.3854 1.58674 21.8462C1.62565 21.6094 1.86564 21.846 1.89385 21.7755C2.04123 21.4144 1.62247 20.7241 1.65558 20.5797C1.85267 19.7163 2.64658 19.1553 2.12333 18.213C1.99417 19.1856 2.04872 18.6565 1.75812 19.0025C1.667 19.1108 1.47693 20.3672 1.56135 18.7939C1.57191 18.6095 2.12045 15.7547 2.54079 16.6931C2.40667 16.2312 2.25158 15.8695 2.10917 15.4463C2.36717 15.2053 2.50864 15.0398 2.56662 14.9316C2.72101 14.6645 2.29571 14.7544 1.89401 14.9316C1.79238 14.9756 1.69223 15.0237 1.60334 15.0703C1.60266 15.0236 1.60172 14.9775 1.60072 14.9316C1.59811 14.8046 1.59722 14.6791 1.60198 14.547C2.17095 14.9247 2.33015 13.0913 2.25042 12.3955C2.20826 12.1546 1.86565 12.7128 1.90769 12.1863C2.01316 11.9563 2.1484 11.704 2.27951 11.4752C1.79235 11.7132 1.90677 10.9487 1.55061 10.8112C2.06425 10.45 2.88201 10.4579 3.13466 10.8494C3.14223 10.447 3.17793 10.0345 3.23973 9.61962C3.06824 9.72599 2.89753 9.84195 2.72957 9.9616C3.50691 8.9394 4.24563 7.33002 5.01933 7.73598C5.13249 7.61703 5.25053 7.50008 5.36953 7.38666C5.31628 7.25014 5.26333 7.11349 5.21366 6.97485C5.87769 6.55988 6.57683 6.22819 7.2923 5.98104C6.748 6.38013 6.731 6.62065 6.08135 6.89435C6.38881 6.86215 6.69723 6.84404 6.99163 6.84572C7.62334 5.98725 7.6587 5.59114 9.20225 5.21902C9.27834 5.18471 10.5 5.27868 10.5375 5.32512C10.7375 5.45502 10.5082 5.7243 10.5985 5.79152C10.8629 5.95463 12.1034 6.44883 12.0651 6.55197C11.911 7.07312 10.9434 7.34297 10.0112 7.76744C9.06778 8.1694 8.15378 8.74753 7.80234 9.04747C6.01015 10.5093 4.9815 12.707 5.00661 14.9316C5.04873 24.79 4.64217 34.5509 4.73893 44.4305C4.7409 44.5644 4.89539 44.506 4.902 44.563C4.9408 44.9174 4.70003 45.2654 4.6901 45.3963C4.66963 45.6763 4.89208 45.5221 4.89224 45.7266C4.88976 47.8397 4.75895 49.8337 4.79703 51.9485C4.79951 52.0862 4.62153 51.9456 4.65299 52.1875C4.67022 52.3123 4.94328 52.7032 4.94741 52.985C4.96148 53.9693 4.87394 54.7961 4.87808 55.8341C4.88018 56.3173 4.86369 57.0061 4.86128 57.5919C4.86085 57.6668 4.862 57.7391 4.86462 57.8075C4.87222 58.0107 5.01194 58.2119 5.03826 58.4047C5.07764 58.6792 4.82269 58.6598 4.81279 58.7057C4.77563 58.9106 5.05436 58.8883 5.0832 59.0637C5.14298 59.3909 4.96415 59.4574 5.10898 59.8683C5.20985 60.1654 5.62089 60.7571 5.85071 61.0609C6.0894 61.9586 6.95066 62.8129 7.6613 63.2557C8.07981 63.5208 7.98062 63.7528 8.15732 63.8667C8.79503 64.2521 9.43511 64.1676 10.0551 64.345C10.7371 64.5339 11.3613 64.7663 12.0654 64.8302C12.2787 64.8439 12.4938 64.8535 12.7124 64.8564C12.9071 64.8589 12.8623 64.6208 13.0534 64.6147C13.7605 64.5923 14.6648 64.549 15.2947 64.583C15.9967 64.6203 16.2557 64.9658 16.9426 64.8955C17.144 64.8746 17.203 64.5716 17.5405 64.5327C18.0796 64.4715 18.6708 64.7387 19.047 64.7685C19.5627 64.8082 19.1142 64.4996 19.8096 64.541C19.8382 64.5428 19.9422 64.7634 20.0916 64.7529C20.5266 64.7231 20.4834 64.5493 21.12 64.5659C21.1811 64.5682 22.0252 64.7784 22.1091 64.7792C22.6029 64.7826 23.5971 64.8562 23.8895 64.8115C24.9343 64.6525 24.1117 64.3206 25.0003 65.041C25.3916 64.8646 25.7796 64.6859 26.1944 64.5146C25.9176 64.6744 27.041 64.905 27.1199 64.8901C27.7729 64.77 27.3839 64.4897 28.2119 64.5361C27.1184 65.1835 29.2802 64.6195 29.7622 64.603C32.0835 64.5227 34.1935 64.6843 36.5265 64.6801C37.3076 64.6784 38.3542 64.5416 39.1805 64.5449C39.3731 64.5451 39.2276 64.6983 39.3971 64.7016C39.5662 64.7039 39.3786 64.5319 39.5717 64.541C40.7726 64.6006 41.7135 64.9252 42.8137 64.5195C42.8673 64.5781 42.8656 64.6245 42.9542 64.6889C43.8546 64.3255 45.5884 64.8142 46.2402 64.8813C47.2595 64.9856 47.5199 64.7399 48.2604 64.7895C49.2397 64.8557 50.7099 65.3356 50.0533 64.5434C50.7251 64.5186 51.3718 64.5117 52.0503 64.5854C52.1258 64.5938 52.0737 64.7951 52.104 64.7993C52.2954 64.8282 52.3578 64.6479 52.4871 64.6396C52.8377 64.6173 52.2655 64.8332 52.7655 64.7729C53.0292 64.7406 53.1789 64.5834 53.9112 64.58C54.3739 64.5782 54.8407 64.5772 55.3109 64.5769C58.1378 64.6426 61.0386 62.6598 61.9687 59.9296C62.0404 59.7235 61.8126 59.7975 61.9027 59.5467C62.0771 59.0578 62.3266 58.3294 62.4094 57.5919C62.4776 56.7932 62.5296 56.0399 62.51 55.5281C62.4653 54.3607 62.1805 54.6241 62.0613 53.8936C62.0381 53.7525 62.2004 53.8682 62.2029 53.7405C62.2178 52.8822 62.4709 51.8589 62.509 51.1635C62.5345 50.7037 62.2792 50.7405 62.261 50.4215C62.2345 49.9461 62.4924 49.4569 62.5007 49.2033C62.5371 48.0109 62.3293 47.1911 62.4353 46.0776C62.3791 46.1211 62.3271 46.1499 62.2717 46.1868C62.2808 44.8683 62.29 43.5516 62.2991 42.2331C62.2477 42.2953 62.196 42.3554 62.1438 42.4175C62.172 40.8706 62.7283 41.0471 61.5535 41.1832C61.5121 41.0706 61.4641 40.9514 61.4261 40.8439C62.0313 40.8876 62.4741 39.9518 62.6282 38.761C62.6398 38.6737 62.0497 38.0876 62.7468 38.1514C62.5763 37.9986 62.4587 37.9075 62.3088 37.7782C62.5199 37.5263 62.7285 37.271 62.9387 37.0191C62.9072 36.8831 62.8769 36.7452 62.8454 36.6092C62.7088 36.589 62.567 36.6045 62.4329 36.5609C62.4122 35.9294 62.581 34.6342 62.5637 34.1351C62.5198 32.8955 62.1505 31.6335 62.5496 30.6693C62.5089 30.1997 62.2407 30.666 62.2747 29.9675C62.4104 29.8886 62.5405 29.8144 62.6804 29.7321C62.0739 29.1613 62.4428 29.042 62.5696 28.2597C62.6557 27.7306 62.5074 27.3842 62.5364 26.8803C62.5438 26.7527 62.7218 26.7708 62.716 26.6834C62.6977 26.3909 62.4527 25.5562 62.446 25.3497C62.3815 23.4787 62.409 21.8712 62.4744 20.0892C62.481 19.8977 62.3053 20.146 62.3127 19.9478C62.3244 19.6289 62.5944 19.8165 62.6077 19.6318C62.6431 19.1165 62.3584 19.1126 62.3435 18.3939C62.3209 17.296 62.3547 16.1218 62.3995 14.9316C62.4539 13.9498 62.3074 12.9375 61.933 12.0568C61.9106 12.0057 61.7595 12.0763 61.7338 12.0233C61.5698 11.6801 61.5722 11.2242 61.3674 10.9209C61.0262 10.4209 60.5575 10.2306 60.1491 9.83647C59.3371 9.07269 58.5073 8.43757 57.3882 8.08346C56.6973 7.87248 56.0451 7.78778 55.3109 7.79082C54.9809 7.79263 54.6397 7.79381 54.2802 7.7936C47.8603 7.79029 41.3093 8.31972 34.8458 8.03822C34.6813 8.03078 34.7482 7.88341 34.6981 7.88979C34.2211 7.95354 34.1785 8.15238 34.0088 7.73599C33.4011 7.81805 33.2094 8.13088 32.4755 8.10853C32.0844 8.09681 32.3764 7.61196 31.7147 7.86196C31.1172 8.08797 31.7766 8.35369 29.9997 8.08216C29.9526 8.0747 29.7211 7.77916 29.3516 7.8561C28.9804 7.93227 29.4101 8.1439 28.5165 8.20765C26.4186 8.35666 23.7632 8.10119 21.3244 8.17982C21.1715 8.18478 19.6994 8.34279 19.4088 8.41564C18.8465 8.55722 18.964 8.77684 18.2336 8.83066C17.6692 8.87206 17.2035 8.62328 16.54 8.67296C16.4628 8.67899 16.3333 8.93489 15.8347 8.90097ZM45.2153 68.593C45.0775 68.8441 44.829 69.7683 43.9961 69.487C43.9172 69.4605 44.3434 68.825 43.8834 68.7239C44.3335 68.6568 44.7719 68.6351 45.2153 68.592C45.2153 68.5924 45.2153 68.5927 45.2153 68.593ZM12.2248 3.0082C12.8479 3.05456 13.4732 3.1005 14.0964 3.14686C13.6664 3.25863 13.2358 3.37019 12.8075 3.48278C12.6127 3.32468 12.4196 3.1663 12.2248 3.0082ZM66.7954 33.7117C66.7954 33.7111 66.7954 33.7106 66.7954 33.71C66.9147 34.365 67.0341 35.0205 67.1533 35.6756C67.0656 35.6067 66.9774 35.5377 66.8897 35.4688C66.7514 34.9516 66.6134 34.4341 66.4751 33.9185C66.5819 33.8497 66.6887 33.7806 66.7954 33.7117ZM65.8663 28.5363C65.9706 28.118 66.1465 28.2204 66.3179 27.9903C66.3176 27.9903 66.3173 27.9903 66.3169 27.9903C66.3616 27.9295 66.4006 27.6467 66.4073 27.5373C66.2972 27.5776 66.1885 27.6297 66.0792 27.6734C65.8126 26.6975 66.7599 24.789 67.1416 27.2599C67.0025 27.2229 66.8642 27.1876 66.7251 27.1506C66.764 28.3785 66.4624 29.7473 65.8663 28.5363ZM35.3423 68.9934C34.2942 69.4488 33.9581 69.5448 32.6865 69.2326C32.8661 69.1036 33.0458 68.9745 33.2254 68.8455C33.4354 68.9771 33.6438 69.1078 33.8538 69.2395C33.8544 69.2395 33.8549 69.2395 33.8555 69.2395C33.8975 69.1012 33.9397 68.9627 33.98 68.8245C34.4334 68.8807 34.8888 68.9371 35.3423 68.9934ZM44.5021 4.04721C44.21 3.13774 44.2943 3.66638 45.1287 3.4613C45.4176 3.3901 45.136 3.23097 45.3158 3.20448C46.2863 3.05976 46.3639 3.6691 46.1473 3.98618C45.598 4.0077 45.0431 4.02734 44.5039 4.04721C44.5033 4.04721 44.5027 4.04721 44.5021 4.04721ZM19.3202 4.23616C19.3196 4.23616 19.319 4.23616 19.3184 4.23616C19.2933 4.01433 19.6845 3.95466 19.2432 3.74449C19.5789 3.74532 19.9146 3.74708 20.252 3.74791C20.1531 3.76857 20.052 3.78827 19.9531 3.80894C20.0404 3.88511 20.128 3.96225 20.2153 4.03842C20.3346 3.78344 20.4454 3.93165 20.798 4.01694C20.7006 3.74455 20.6037 3.47198 20.5062 3.19959C20.916 3.28071 21.3273 3.36212 21.737 3.44323C21.742 3.51188 21.7472 3.58064 21.7522 3.64928C21.9067 3.56155 22.0596 3.47286 22.2141 3.38513C22.2561 3.46708 22.2965 3.54829 22.3385 3.63024C22.5249 3.56816 22.7116 3.50614 22.8979 3.44323C22.9547 3.64175 22.5439 3.72754 23.2721 3.67711C23.0487 3.88076 22.8258 4.08379 22.6008 4.28743C21.5073 4.27087 20.4137 4.25355 19.3202 4.23616ZM52.0935 3.76744C50.8892 3.80552 51.2284 3.66165 51.5072 3.21131C51.702 3.39671 51.8987 3.58204 52.0935 3.76744ZM66.0631 58.087C66.3529 58.4769 66.6188 58.8991 66.8493 59.3555C66.893 60.2254 66.1133 60.8676 66.0575 60.2294C65.9699 59.4875 66.3631 58.791 66.0631 58.087ZM54.3382 68.492C55.2095 68.6344 54.3897 68.9994 54.1931 69.2121C53.9521 68.8702 53.616 68.9004 53.0761 68.8606C53.583 68.8384 54.194 68.4678 54.3382 68.491C54.3382 68.4913 54.3382 68.4916 54.3382 68.492ZM66.4195 44.0296C66.4103 43.6804 66.3245 43.333 66.4288 43.0208C66.7225 43.115 66.4553 43.7396 66.8906 43.2929C66.8981 43.5163 66.9053 43.7399 66.9136 43.9615C66.7332 43.8207 66.5984 44.0102 66.4205 44.0287C66.4201 44.029 66.4198 44.0293 66.4195 44.0296ZM63.9207 7.29205C64.1699 8.11546 64.3574 8.11515 65.0048 8.64562C64.8254 8.88259 63.9286 8.38739 63.4923 8.04981C63.6411 7.80243 63.7844 7.54999 63.9207 7.29205ZM0.700065 20.0721C1.06095 20.2367 1.10801 21.4507 1.00132 22.0539C0.947795 21.9821 0.893557 21.91 0.839218 21.8382C0.792853 21.2503 0.746429 20.66 0.700065 20.0721ZM52.8192 68.8362C52.9095 68.8467 52.9952 68.8546 53.0761 68.8606C52.9862 68.8645 52.8994 68.8584 52.8192 68.8362ZM16.3312 67.2698C16.6184 66.9296 15.7649 66.8153 16.8012 66.9486C16.8012 66.9482 16.8012 66.9479 16.8012 66.9476C17.4865 67.0354 17.6378 67.0588 18.2727 67.0853C18.0442 67.5224 16.7561 67.6786 18.5314 67.7688C18.5548 67.7692 18.5082 67.5092 18.7919 67.5447C18.8794 67.5558 19.1597 67.7692 19.5858 67.8313C19.7236 67.8512 20.7586 67.917 19.3477 67.9212C19.3897 68.2259 19.3139 68.5343 19.3173 68.8298C18.7666 68.9157 18.3433 68.3191 17.7607 68.3338C16.8957 68.3569 16.4555 68.9602 16.2892 68.1687C17.0165 67.9743 18.2656 67.9696 18.4285 68.4456C19.1322 68.4514 19.3342 68.0614 18.7668 67.8684C16.3363 68.1135 18.0996 67.2896 15.9714 67.6009C15.9462 67.711 15.8587 67.8294 15.8721 67.9329C15.2224 67.5455 16.2288 67.3915 16.3312 67.2698ZM21.4136 68.1116C20.9937 68.3443 20.5752 68.5788 20.1569 68.8122C20.1569 68.4331 20.3875 68.0928 21.0493 67.8792C21.1702 67.957 21.2928 68.0347 21.4136 68.1116ZM1.44612 47.3244C1.23997 47.2639 1.05106 47.1027 0.854842 46.9852C1.0287 46.8575 1.1955 43.8339 1.36605 45.3722C1.39089 45.5956 1.02636 46.9582 1.44612 47.3244ZM59.3547 4.48439C59.6766 4.75738 59.9755 5.04459 60.2522 5.34302C59.6891 5.15093 59.1144 5.01024 58.5411 4.91935C58.8027 4.76489 59.0722 4.61877 59.3547 4.48439ZM63.7425 63.6841C63.8412 63.5591 63.7636 64.1577 64.0917 63.6169C63.9741 64.1074 63.8151 64.5583 63.6218 65.0305C63.4257 65.0484 63.2303 65.062 63.0373 65.0686C63.0238 65.2064 63.0055 65.346 62.986 65.485C62.8974 65.2986 62.8042 65.1223 62.7101 64.9351C63.5448 64.6725 63.3095 64.2093 63.7425 63.6841ZM64.9484 42.2224C65.373 42.0916 65.6255 43.1448 65.6934 42.1087C65.9724 42.3052 66.1188 42.6212 66.1436 43.2276C66.0369 43.3249 65.931 43.422 65.8243 43.5194C66.1098 43.5328 66.2159 43.6888 66.4195 44.0296C66.4192 44.0299 66.4188 44.0302 66.4185 44.0305C66.4392 44.9523 66.344 44.8972 65.8746 45.1189C66.1395 44.143 65.7107 44.1138 65.4557 43.4487C65.2803 42.9918 65.3597 42.3953 64.9484 42.2224ZM1.451 50.5459C1.09254 49.8558 0.758186 50.4751 1.13901 49.2507C1.23008 49.3296 1.32038 49.4089 1.41146 49.4879C1.42553 49.8405 1.43859 50.1932 1.451 50.5459ZM66.4039 38.8165C65.7465 38.8954 65.2348 39.5452 66.3042 39.6561C66.522 39.0229 65.9162 39.3322 66.4039 38.8165ZM54.6353 67.4627C54.951 67.4707 55.1694 67.5264 55.3109 67.6111C55.6419 67.805 55.5768 68.1597 55.3109 68.4343C55.2553 68.4968 55.1913 68.555 55.1223 68.6062C55.045 68.4712 54.9678 68.3361 54.8922 68.2019C54.6789 68.2632 54.4655 68.3246 54.2522 68.385C54.3799 68.0779 54.5077 67.7699 54.6353 67.4627ZM65.6817 17.3493C66.1512 18.2798 65.9428 16.3448 66.2359 16.9948C66.4702 17.5139 65.9972 18.1978 65.7008 17.9392C65.6925 17.7594 65.6867 17.5594 65.6817 17.3511C65.6817 17.3505 65.6817 17.3499 65.6817 17.3493ZM65.816 22.7342C66.3176 22.5814 66.1714 22.8017 66.0811 22.0665C66.0554 21.8565 66.2438 20.1881 65.8282 20.8885C65.8282 21.4847 65.821 22.1145 65.816 22.7342ZM40.5599 68.1966C40.5487 67.9781 41.8334 67.4985 41.9983 67.6185C41.9983 67.6181 41.9983 67.6178 41.9983 67.6175C42.4434 67.9445 41.0882 67.991 41.676 68.4397C40.3743 68.0449 39.9849 68.9999 40.0756 67.7415C40.8424 67.6863 40.4794 67.9457 40.5599 68.1966ZM7.19129 5.81359C7.19183 5.8133 7.19238 5.813 7.19292 5.81271C7.11098 5.83663 6.30571 5.94465 6.32228 5.80856C7.16602 5.41453 7.10053 5.69181 7.73189 5.01516C7.81993 5.09855 7.89945 5.18225 7.98871 5.26667C7.70894 5.45923 7.60371 5.653 7.19129 5.81359ZM1.88653 44.0555C1.94366 44.3696 1.70694 44.9428 1.72101 45.3006C0.811948 44.1617 1.65966 42.8008 1.88653 44.0555ZM31.098 4.20492C31.0989 4.20459 31.0998 4.20426 31.1007 4.20394C31.1004 4.20443 31.1 4.20491 31.0998 4.2054C31.0992 4.20524 31.0986 4.20508 31.098 4.20492ZM7.01284 67.0536C7.00242 66.9811 7.0057 66.9245 7.01954 66.8808C7.02156 66.8771 7.02359 66.8733 7.02561 66.8696C7.0195 66.9292 7.0147 66.9901 7.01284 67.0536ZM37.8898 68.2625C37.3547 67.9579 39.1375 67.4736 39.714 67.5892C39.6737 67.7282 39.6674 67.8543 39.5734 68.0139C39.1081 67.6539 37.9788 68.3138 37.8898 68.2625ZM65.8697 50.0751C65.8614 51.4844 64.6587 49.6503 65.6182 49.5747C65.6368 49.5776 65.8681 50.0387 65.8697 50.0751ZM49.0033 68.1365C49.3624 67.7724 48.6408 67.6757 49.7946 67.7386C49.8618 67.8329 49.9289 67.9274 49.996 68.0218C49.6652 68.0598 49.3342 68.0984 49.0033 68.1365ZM64.1602 59.1266C64.1196 60.71 63.5871 62.3725 65.0131 61.7283C65.0391 61.5855 65.0634 61.4415 65.0831 61.2987C64.6307 61.1028 65.0721 60.7369 65.2656 60.0121C65.1039 59.8635 65.1421 59.4599 64.9905 59.3579C64.7004 59.1676 64.4032 59.5453 64.1602 59.1266ZM40.5118 5.15458C40.5403 5.07095 40.5682 4.98689 40.5968 4.9041C40.8773 4.80971 41.1586 4.71578 41.4391 4.6214C41.3938 4.78188 41.3483 4.94234 41.303 5.10282C41.0394 5.1202 40.7771 5.13769 40.5135 5.15506C40.5129 5.1549 40.5123 5.15474 40.5118 5.15458ZM23.1421 67.078C22.981 67.9984 23.544 67.8289 24.6861 67.3636C24.1721 67.2684 23.6561 67.1732 23.1421 67.078ZM64.6637 30.8053C64.9252 30.7684 65.1859 30.7321 65.4474 30.6935C65.175 30.0871 64.8755 30.1997 64.5294 30.4903C64.5741 30.596 64.619 30.6996 64.6637 30.8053ZM64.5524 22.0709C64.4978 22.3225 64.709 22.1941 64.7047 22.2204C64.5938 22.857 64.4969 22.9467 64.6559 23.7278C64.7114 23.8235 64.7697 23.9176 64.8268 24.0133C65.3747 23.6522 65.0761 23.39 65.398 22.6259C65.2101 22.7637 65.0219 22.9008 64.8331 23.0386C64.8729 22.6137 64.912 22.1906 64.9518 21.7657C64.8938 21.7153 64.8364 21.6648 64.7784 21.6144C64.704 21.7656 64.6202 21.9215 64.5524 22.0709ZM37.2679 4.91679C36.8547 4.89527 36.4396 4.87289 36.0264 4.85137C36.0113 4.98631 35.9968 5.12217 35.9816 5.25711C36.4099 5.14371 36.8397 5.0302 37.2679 4.91679ZM14.6583 67.4974C14.6255 67.5452 14.5936 67.5934 14.5652 67.6424C14.568 67.5827 14.6038 67.5361 14.6583 67.4974ZM8.48802 6.02358C8.93726 5.94083 9.53113 5.68951 10.0175 5.60712C9.90536 5.26764 8.69412 5.69902 8.20322 5.71037C8.1588 5.79538 8.29823 6.05777 8.48802 6.02358ZM56.3085 67.4429C56.4078 67.2632 56.501 67.0829 56.586 66.9009C56.8522 66.8832 57.1196 66.8549 57.3874 66.8136C57.3649 66.6769 57.3417 66.5392 57.3185 66.4027C56.233 66.7998 56.4111 66.3368 55.8585 65.9966C55.9921 66.4816 56.1409 66.9638 56.3085 67.4429ZM24.1207 5.7937C25.0294 5.70015 25.3517 5.52541 24.8394 5.11063C24.5187 5.20581 24.1961 5.30108 23.8754 5.39626C23.9577 5.5287 24.04 5.66127 24.1207 5.7937ZM2.61781 59.2652C2.35084 58.5579 2.90567 58.4992 2.56586 57.8167C2.47193 58.1961 2.39961 58.5898 2.35287 58.9889C2.43943 59.082 2.52853 59.1767 2.61781 59.2652ZM35.4041 65.6562C35.0833 65.4625 34.4835 66.383 33.5816 65.7035C33.3667 65.9063 33.232 66.1 33.0473 66.2987C32.9398 66.0826 32.8176 65.8638 32.7152 65.6493C32.7146 65.6493 32.714 65.6493 32.7134 65.6493C31.8954 65.7222 32.4257 65.9932 32.4073 66.2225C32.3986 66.3176 31.7915 66.1587 31.9812 66.3656C32.3087 66.7208 33.5326 66.5165 33.536 66.9495C33.106 66.808 32.2663 66.9263 32.5147 67.2152C32.7868 67.5322 33.5781 67.0009 34.082 67.264C33.3599 66.5719 34.8513 66.7857 35.021 67.3172C35.8961 66.909 35.0917 66.7425 34.1948 66.7616C34.7424 66.3542 33.9364 66.5743 33.8036 66.2357C34.3683 66.0313 36.306 66.2017 35.4041 65.6562ZM64.1256 51.9199C64.1519 52.5247 63.9191 53.4697 64.2628 53.8838C64.4631 54.1249 64.6182 53.1778 64.9327 53.8309C64.9021 53.2416 64.7792 53.1072 64.5036 53.2079C64.4705 53.0736 64.4382 52.9377 64.4059 52.8034C64.4597 52.7413 64.5128 52.6775 64.5665 52.6154C64.4531 52.5449 64.3406 52.4739 64.2272 52.405C64.2495 52.2624 64.2719 52.1181 64.2951 51.9754C64.238 51.9586 64.1884 51.93 64.1256 51.9199ZM2.45535 37.5096C2.45866 37.6775 2.46195 37.8438 2.46609 38.0118C2.53323 37.9933 2.60314 37.9712 2.67213 37.95C2.72666 37.9348 2.78118 37.9196 2.8357 37.9043C2.64091 38.0017 2.31714 38.8017 2.52517 39.1387C2.62953 39.3081 3.00002 38.9226 3.06469 39.6408C3.04564 39.1203 2.99508 38.6381 2.96362 38.1326C3.07374 38.178 3.18503 38.2215 3.29515 38.2669C3.29531 38.2666 3.29548 38.2663 3.29564 38.266C3.32047 38.0981 3.34649 37.9282 3.37132 37.7602C3.06581 37.6763 2.76086 37.5936 2.45535 37.5096ZM64.1466 31.2977C64.3627 31.8704 64.475 32.0622 64.8243 31.7918C64.8245 31.7911 64.8247 31.7906 64.8248 31.79C64.67 31.5767 64.5153 31.3632 64.3605 31.15C64.2893 31.1987 64.2178 31.2473 64.1466 31.2977ZM10.0334 66.1073C8.61116 67.1415 11.3306 66.8964 10.8871 66.3277C10.8712 66.3126 10.0957 66.2819 10.0334 66.1073ZM54.4115 67.0545C54.7107 67.0449 55.0104 67.0361 55.3109 67.0266C55.3444 67.0255 55.3779 67.0242 55.4113 67.0228C55.3774 66.9492 55.3438 66.8756 55.3109 66.8018C55.2682 66.7128 55.2254 66.6237 55.1831 66.5345C54.9261 66.7076 54.6685 66.8815 54.4115 67.0545ZM28.077 6.39621C28.4288 6.76051 29.3319 6.8925 29.7732 6.49631C29.5414 6.44994 29.3095 6.40352 29.0777 6.35715C29.5159 6.31163 29.9493 6.26153 30.3908 6.21849C30.4144 5.71096 29.9054 6.0054 29.1395 5.86548C29.0209 5.84291 28.2627 5.21293 28.0009 5.68775C27.9483 5.78535 28.7548 5.85171 28.1943 6.13548C28.4394 6.15782 28.6509 6.15286 28.8826 6.16527C28.8994 6.28615 28.916 6.40716 28.9345 6.52804C28.648 6.48428 28.3635 6.43998 28.077 6.39621ZM64.1652 55.4412C64.1372 56.272 64.34 56.3746 64.6984 56.5476C64.6578 56.1612 64.6179 55.7748 64.5773 55.3884C64.4402 55.4068 64.3031 55.4228 64.1652 55.4412ZM35.5028 6.51242C35.9576 6.57104 35.7628 6.27932 35.9458 6.22386C36.6378 6.01525 37.1098 6.22374 37.7933 6.09301C37.748 6.14931 37.7063 6.20193 37.6626 6.25657C37.6632 6.25657 37.6638 6.25657 37.6644 6.25657C40.9011 6.50244 39.201 5.84085 37.2643 5.94848C37.219 5.84002 37.1754 5.73142 37.1301 5.62379C36.2634 5.81338 35.4641 5.99581 35.5028 6.51242ZM20.5436 66.2987C20.5066 66.2308 20.8207 65.7994 20.2312 66.0014C19.7644 66.6313 20.53 66.3186 20.7217 66.5609C20.5621 66.6213 20.3989 66.6801 20.241 66.7406C21.1951 66.9186 21.3344 66.7688 20.9867 66.3085C20.9618 66.2775 20.5806 66.3664 20.5436 66.2987ZM14.2734 65.9882C14.1424 66.9163 15.3464 66.4989 15.3028 66.2108C15.1366 66.1993 15.0074 66.3565 14.8311 66.287C14.653 66.2174 14.6075 66.0007 14.2734 65.9882ZM48.7697 66.2152C48.7345 66.2111 48.3801 65.821 48.4153 66.1263C48.8537 66.8491 49.737 66.3839 49.5825 66.1322C49.2903 66.1447 49.0955 66.2531 48.7697 66.2142C48.7697 66.2146 48.7697 66.2149 48.7697 66.2152ZM22.5972 6.61495C22.614 6.64085 23.4981 6.79764 23.6122 6.65206C23.7063 6.48816 23.7529 6.3125 23.8235 6.14281C23.3364 6.30012 22.3504 6.18028 22.599 6.61495C22.5984 6.61495 22.5978 6.61495 22.5972 6.61495Z" fill="#000F55"/>
</svg>
