<svg width="388" height="92" viewBox="0 0 388 92" fill="none" xmlns="http://www.w3.org/2000/svg">
<path d="M89.2983 0.773399C87.2225 0.412633 94.1524 0.649123 89.5507 0.110346C90.5103 0.0739442 91.4759 0.0364013 92.4354 -7.78881e-09C92.6788 0.199534 92.928 0.398581 93.1714 0.598115C91.8828 0.656872 90.5936 0.715619 89.2983 0.774376C89.2983 0.77405 89.2983 0.773725 89.2983 0.773399ZM87.5388 3.2723C88.7198 2.70318 92.472 2.55145 88.4186 2.02627C88.0964 2.22158 87.7663 2.41686 87.4442 2.61218C86.0369 2.46069 84.6209 2.30924 83.2135 2.15858C82.7074 2.23305 82.202 2.30759 81.6959 2.38123C81.0513 2.04182 80.4126 1.7015 79.7681 1.36126C80.3403 1.41094 80.9203 1.46148 81.4925 1.51116C83.7549 1.23554 85.7679 1.16016 88.8392 1.10883C88.5695 1.02852 88.2992 0.948919 88.0295 0.868609C89.5882 1.00521 91.1461 1.14215 92.6983 1.27875C91.3503 1.41283 89.8431 1.56195 88.5938 1.68693C90.593 2.2191 94.1191 1.92292 95.9545 1.81192C98.4539 1.66042 97.8889 1.91346 99.7434 1.80753C100.039 1.79097 100.073 1.59263 100.658 1.58928C103.612 1.57355 109.347 1.67868 105.993 2.1415C101.132 2.08188 96.9867 2.45354 92.2181 2.31776C93.4796 2.8529 90.9673 3.03501 87.5388 3.2723ZM176.834 1.56828C175.361 1.82819 172.361 1.7233 170.329 1.54289C170.326 1.54289 170.324 1.54289 170.322 1.54289C169.874 1.50315 168.861 1.15774 170.322 1.17182C172.702 1.19594 173.853 1.73966 175.102 1.37054C175.661 1.43925 176.249 1.50039 176.834 1.56828ZM182.007 1.53606C183.468 1.66935 182.805 2.07905 180.977 1.96816C180.977 1.96849 180.977 1.96882 180.977 1.96914C180.214 1.92278 181.712 1.59895 178.976 1.92764C178.417 1.67192 177.866 1.43927 177.314 1.19184C177.984 1.1877 178.595 1.18099 179.298 1.17768C178.825 1.598 180.548 1.40381 182.007 1.53606ZM108.461 1.91006C108.69 1.53193 107.729 1.53431 106.091 1.27191C107.637 1.28433 109.182 1.29758 110.721 1.30999C109.965 1.51027 109.217 1.70979 108.461 1.91006ZM72.1516 1.85147C72.1492 1.85147 72.1469 1.85147 72.1445 1.85147C71.6381 1.91108 71.1302 1.9709 70.6303 2.02968C70.3278 1.89473 70.0286 1.76036 69.726 1.62541C67.937 1.75208 66.1383 1.87875 64.3493 2.00625C64.5666 1.59401 67.778 1.66109 69.5473 1.37298C72.178 1.49718 73.4457 1.73646 73.6167 2.08583C73.1301 2.00804 72.6447 1.92926 72.1516 1.85147ZM346.004 89.5051C345.406 89.6193 344.815 89.7336 344.217 89.8478C345.012 89.8999 345.802 89.9397 346.604 90.0001C348.702 89.5034 348.899 89.9428 351.648 89.9123C360.073 89.8179 357.838 89.0464 365.447 90.1764C359.338 90.1227 361.685 90.6536 358.002 91.0626C357.239 90.7513 360.889 90.0492 358.416 89.9035C354.154 90.2329 350.056 90.5398 345.328 90.7526C345.466 90.8064 345.603 90.8604 345.741 90.9142C346.491 90.8802 347.235 90.8461 347.985 90.8121C347.176 90.9562 346.385 91.099 345.563 91.2447C346.602 90.9177 343.954 91.1004 344.308 90.7247C344.466 90.5575 345.636 90.3255 346.327 90.1657C344.545 90.0788 342.717 89.9991 340.915 89.9147C341.849 89.7815 342.782 89.6481 343.709 89.5148C344.471 89.5107 345.228 89.5077 345.99 89.5036C345.995 89.5041 346 89.5046 346.004 89.5051ZM0.756261 44.1322C1.14539 46.3949 1.20978 50.5066 0.776767 52.6706C0.770144 49.8225 0.762884 46.9802 0.756261 44.1322ZM73.7884 2.37391C73.5322 2.30775 73.284 2.24231 73.0278 2.17616C74.159 2.05365 75.2966 1.93199 76.4277 1.80948C76.6447 2.00065 76.8666 2.19186 77.0902 2.38221C75.9921 2.37972 74.8865 2.37639 73.7884 2.37391ZM146.154 2.16103C145.327 2.17259 145.253 2.16633 144.223 2.13905C144.224 2.13922 144.225 2.13938 144.226 2.13954C143.818 2.12936 140.4 2.0177 140.781 1.87051C142.478 1.86803 144.288 1.87051 146.024 1.87051C146.077 1.96733 146.088 2.06338 146.154 2.16103ZM126.179 2.07509C126.176 2.07477 126.174 2.07444 126.172 2.07412C125.554 2.05176 124.969 2.00624 124.332 1.99795C126.626 1.7663 126.989 2.1819 129.074 2.06435C131.159 1.94596 132.447 1.71665 134.216 2.28602C133.558 2.3713 132.85 2.49329 132.172 2.59264C129.213 2.36499 128.416 2.57923 126.042 2.80357C126.088 2.5602 126.133 2.31847 126.179 2.07509ZM383.959 87.5168C384.245 86.8712 384.911 86.5101 384.966 86.4472C384.965 86.4485 384.964 86.4497 384.964 86.451C386.612 84.0466 386.314 84.0986 386.332 84.3683C386.243 84.5841 386.438 84.9923 387.377 82.3429C387.209 83.1639 386.961 83.963 386.623 84.7372C385.885 85.821 384.94 86.7739 383.959 87.5168ZM302.116 2.31678C302.07 2.23481 302.014 2.15266 301.968 2.0707C304.81 2.08974 305.534 1.76707 307.895 2.06093C305.969 2.14702 304.042 2.2325 302.116 2.31776C302.116 2.31743 302.116 2.31711 302.116 2.31678ZM160.476 2.75719C157.325 2.91367 154.995 2.98262 151.969 2.73424C151.967 2.73391 151.964 2.73359 151.962 2.73326C151.788 2.71797 152.631 2.54649 152.404 2.50329C151.779 2.52894 151.135 2.56837 150.504 2.59899C150.418 2.46167 150.337 2.32438 150.252 2.18788C152.027 2.22679 153.804 2.26567 155.586 2.30457C155.323 2.22427 155.054 2.14466 154.791 2.06435C156.303 2.02296 157.81 1.98172 159.323 1.94033C158.797 2.16545 158.272 2.39062 157.752 2.61657C158.66 2.66374 159.568 2.70919 160.476 2.75719ZM349.42 3.21371C348.92 3.12429 349.846 2.97432 349.07 2.89732C348.293 2.8213 346.862 2.98816 347.198 2.7357C348.243 2.70178 349.34 2.66289 350.405 2.62731C346.978 2.17207 343.56 2.58401 343.507 2.02187C346.796 2.16758 349.5 2.09989 352.683 1.94424C352.552 2.39045 349.367 2.77626 351.372 3.19515C350.728 3.20095 350.051 3.20942 349.427 3.21273C349.425 3.21306 349.422 3.21338 349.42 3.21371ZM27.7598 7.96933C25.8129 7.93539 21.352 8.11749 18.892 7.85752C18.2867 7.79345 16.2706 6.96355 16.2807 6.85415C16.3399 6.48573 18.8024 6.43558 16.1651 6.19549C17.0522 6.193 17.9133 6.17917 18.7939 6.17255C18.636 5.92499 18.479 5.6781 18.3277 5.43137C17.2556 5.46863 16.1821 5.50607 15.1101 5.54416C15.0574 5.46219 15.0049 5.38004 14.9523 5.29808C18.8067 5.29642 16.5314 4.98006 18.531 4.68531C16.6897 4.53632 14.8347 4.38804 13 4.23905C14.0588 4.25726 15.3082 4.27075 16.2422 4.29227C16.3671 3.87254 14.1389 3.97261 13.7571 3.89483C11.6064 3.45522 22.5561 3.6771 23.4521 3.06625C21.7029 2.99838 19.8675 2.93214 18.0789 2.86509C18.5919 2.78975 19.1116 2.71437 19.6246 2.63903C23.6824 3.06034 28.2328 3.20959 32.9614 3.472C33.3886 3.45462 33.8165 3.43679 34.2372 3.42024C34.1123 3.23072 33.9941 3.04192 33.8692 2.8524C34.5138 2.83004 35.1664 2.80786 35.811 2.78551C33.9105 3.40971 36.5423 3.4012 39.7192 3.78204C38.029 4.0014 35.9441 3.86841 36.0879 4.27713C41.8886 3.96267 48.6819 4.40708 54.3248 4.05204C55.7255 3.9643 55.721 3.43704 59.0146 3.48567C58.9027 3.54362 58.8836 3.64825 58.8113 3.72442C64.5074 3.4719 67.9633 3.32095 73.8831 3.57844C73.5412 3.38893 73.205 3.19863 72.8631 3.00913C71.6068 3.10351 70.3484 3.1994 69.0986 3.29378C68.2438 2.98085 69.5072 2.84274 65.7583 2.84605C62.6866 2.84853 64.5152 2.98671 63.6798 3.07944C62.5487 3.20603 61.5561 2.95699 60.3394 3.09848C59.399 3.20694 60.4164 3.46514 57.963 3.39973C58.9497 3.06525 59.9561 2.71986 60.9493 2.38123C61.5479 2.45657 62.1419 2.53308 62.7404 2.60925C62.1352 2.69866 61.5405 2.7869 60.9353 2.87632C63.0662 2.71571 65.0798 2.56423 67.283 2.39783C66.5661 2.88135 68.8434 2.70006 70.0801 2.64294C72.0063 2.55361 70.356 2.88638 71.6188 2.83091C72.8816 2.77459 74.2436 2.40282 76.5259 2.4823C75.3027 2.69753 76.9666 2.89053 76.645 3.0892C76.3228 3.28786 73.9087 3.33185 76.2279 3.54865C80.6874 3.3839 75.8483 2.62733 78.8603 2.50476C82.4775 2.3574 83.3384 3.59066 82.2602 3.85577C81.4116 4.06441 78.4921 4.02245 77.637 4.23026C82.866 4.60529 82.9113 3.86492 83.8059 3.72003C87.055 3.19268 84.8724 4.60021 88.72 4.09111C88.6477 4.35432 88.589 4.59106 88.5167 4.84351C89.1806 4.7955 89.6213 4.73168 90.4235 4.69361C88.0582 4.18076 89.9941 4.20274 90.9878 4.20194C92.5533 4.20028 90.1353 3.95013 90.5496 3.88555C91.6679 3.71274 93.4362 3.79121 92.3513 3.56525C92.838 3.6704 93.3656 3.77586 93.8655 3.88018C95.6943 3.74916 99.9927 2.65055 95.9019 2.87242C96.2834 2.46424 97.6067 2.66043 98.6394 2.72252C99.6718 2.78456 99.6525 2.52461 100.56 2.57263C104.171 2.76472 101.809 3.20938 101.237 3.55793C106.005 3.31784 101.337 3.159 108.208 2.99839C108.872 2.71441 105.697 2.41138 108.341 2.24745C108.828 2.7408 110.775 3.0952 114.57 3.25912C114.938 3.14569 115.306 3.03125 115.674 2.91782C117.746 3.37319 116.687 3.84671 120.522 3.28206C118.463 4.3211 119.878 3.65638 123.312 4.07939C124.009 4.16467 122.398 4.38024 123.371 4.48952C123.812 4.53881 124.884 4.37609 125.961 4.50173C126.487 4.56382 128.948 4.96446 130.651 4.77418C129.401 4.27079 132.638 3.84255 129.863 3.4261C134.993 3.52876 138.584 3.28707 132.835 3.97344C134.137 4.12578 135.441 4.27747 136.743 4.42898C137.651 4.30893 138.566 4.18982 139.48 4.0706C139.618 4.48432 139.48 4.60038 143.056 4.52761C141.504 4.62526 139.959 4.72453 138.401 4.823C138.348 4.90655 138.131 4.99338 138.184 5.07446C140.092 4.91555 145.465 4.84716 146.767 4.73707C148.07 4.62695 145.555 4.59682 145.93 4.49001C149.053 3.60929 148.806 4.25886 151.047 4.10771C152.363 4.01829 149.222 3.92119 149.926 3.88311C152.535 3.74352 153.745 4.21159 156.059 4.21756C155.237 3.95188 154.422 3.68206 153.62 3.41389C156.047 3.42797 158.752 3.43033 161.009 3.34505C161.894 3.31176 161.225 3.11416 161.37 3.10092C162.087 3.03303 165.007 2.92549 165.316 2.92466C167.643 2.92308 167.71 3.19677 169.971 3.21175C169.083 3.23493 168.249 3.25581 167.381 3.27816C166.986 3.72188 166.584 4.16557 166.189 4.61012C168.405 4.64241 170.622 4.67403 172.845 4.70631C171.221 4.55813 169.59 4.41066 167.966 4.26248C170.505 3.904 173.044 3.5447 175.583 3.18539C176.905 3.40561 178.221 3.62578 179.543 3.846C183.134 3.78791 182.411 2.89396 184.114 3.67706C185.172 3.61086 186.231 3.5447 187.29 3.47932C187.138 3.59105 186.989 3.70302 186.837 3.81475C188.113 3.74603 189.389 3.67777 190.665 3.60822C189.323 3.21251 188.008 2.7961 186.68 2.41199C189.191 2.326 189.239 2.66169 189.613 2.74547C190.607 2.96736 192.578 2.66806 193.367 2.87339C193.634 2.94388 191.173 3.16488 192.021 3.41975C192.187 3.46916 195.482 4.40607 197.584 4.18973C197.544 4.02001 197.382 3.81189 197.297 3.62726C200.124 3.52417 201.566 4.41013 201.191 4.65846C202.697 4.48461 204.898 4.47008 205.207 4.19852C205.977 4.1919 206.741 4.18562 207.51 4.17899C206.708 4.84036 209.918 4.71943 210.129 4.15067C208.807 4.1366 207.483 4.12178 206.161 4.10771C207.161 3.41059 203.143 2.98981 211.503 3.63556C213.101 3.9982 208.661 3.58615 209.964 3.85772C212.226 4.01578 214.35 3.88353 216.501 4.13603C219.177 4.45145 215.884 4.75483 222.119 4.3533C208.366 3.34737 224.006 3.67376 230.465 3.36165C232.241 4.35518 237.696 4.66987 245.207 4.37429C244.425 4.09778 242.061 4.24024 240.7 4.14921C239.338 4.05815 240.811 3.8941 239.116 3.76495C237.419 3.63583 233.816 3.46029 232.098 3.26497C233.553 3.10848 240.733 2.73848 235.985 3.18295C239.529 3.45693 241.194 3.73849 245.586 3.78985C246.901 3.35851 246.804 3.08993 251.085 3.07748C248.553 3.67687 253.418 4.09344 252.347 4.71266C249.311 4.56843 251.008 3.96659 249.252 3.67853C249.072 3.64974 246.243 3.80061 245.586 3.78985C248.44 4.33049 249.428 4.53173 247.671 5.17504C249.691 5.11874 250.947 5.1995 251.131 4.89234C251.552 5.02559 251.975 5.15896 252.389 5.29222C253.046 5.2889 253.638 5.27656 254.335 5.27903C253.375 4.81569 255.235 5.10093 256.557 4.89087C257.879 4.68057 256.105 4.31481 259.736 4.30984C258.526 4.20138 257.419 4.10833 256.248 4.00566C258.59 3.88645 260.938 3.76649 263.279 3.64728C261.635 3.36417 258.072 2.94365 258.169 2.57116C259.247 2.71179 262.942 2.46464 263.346 2.45447C264.912 2.41638 264.058 2.6513 264.177 2.65709C266.636 2.77125 268.662 2.69127 269.596 3.04721C271.444 2.88661 272.837 2.97817 274.797 2.96909C275.876 2.96412 275.666 2.70268 276.297 2.7523C280.493 3.08346 276.496 3.4213 284.59 2.77818C283.61 2.59606 282.643 2.40974 281.664 2.22596C282.578 2.15724 283.487 2.08815 284.401 2.01943C285.013 2.05255 285.619 2.08592 286.231 2.11904C286.218 2.51392 286.202 2.90964 286.189 3.30452C286.86 3.32605 287.533 3.34696 288.204 3.36849C287.053 3.4074 285.899 3.44627 284.748 3.48518C284.643 3.55466 284.545 3.62418 284.44 3.69366C286.15 3.8013 287.854 3.90989 289.564 4.01836C289.597 3.88099 289.629 3.74266 289.662 3.60529C293.516 3.79654 293.608 3.91283 297.272 3.53449C300.093 3.53863 302.391 2.96428 304.022 2.72252C304.608 2.7995 305.194 2.87746 305.785 2.95444C306.16 2.84019 306.539 2.72643 306.914 2.61218C307.657 2.77112 308.411 2.9301 309.154 3.08823C309.568 2.72744 309.783 2.6148 306.883 2.48816C307.876 2.03943 312.981 2.23738 315.06 2.38807C316.637 2.50241 314.887 2.87669 315.084 2.92222C315.743 3.07689 318.342 2.94343 318.887 2.96909C321.196 3.07588 322.814 3.05719 324.899 3.13998C325.304 3.15655 326.439 3.39376 326.535 3.4012C327.285 3.44177 329.136 3.55706 329.347 3.56037C340.203 3.73744 328.603 2.70832 338.698 2.81675C338.396 2.68104 338.118 2.54624 337.822 2.41052C338.584 2.40225 339.355 2.39439 340.118 2.38611C341.084 2.49954 339.915 2.70581 341.835 2.53942C341.71 2.70666 341.585 2.87397 341.453 3.04038C342.288 2.95013 343.094 2.86062 343.949 2.77037C345.29 3.35073 350.189 3.48253 349.841 4.16386C349.722 4.39568 346.249 4.63355 348.085 4.88111C349.576 4.92984 348.566 4.65297 349.175 4.63844C353.568 4.53743 353.313 4.92552 355.109 4.82203C355.391 4.6557 355.689 4.48612 355.978 4.31814C356.655 4.36697 357.334 4.4158 358.018 4.46462C358.176 4.35285 358.34 4.24096 358.498 4.12919C357.86 4.12174 357.142 4.11418 356.556 4.10673C357.373 3.67382 364.869 3.47936 362.01 3.84844C360.846 3.99828 358.714 3.93462 360.061 4.44607C362.067 4.37239 364.343 4.29711 366.455 4.22342C366.52 4.33354 366.582 4.44386 366.647 4.55397C369.493 4.48269 366.905 4.04243 366.91 3.80645C367.561 3.79983 368.219 3.79403 368.87 3.78741C369.146 3.8941 369.408 4.00578 369.697 4.10917C369.723 3.93938 370.088 3.54471 372.028 3.69122C373.275 3.78658 371.311 4.21496 373.689 4.15556C373.511 3.89067 372.652 3.56805 375.301 3.48274C375.514 3.70652 375.793 3.9151 376 4.14055C376.048 4.19363 376.092 4.24799 376.129 4.30385C379.344 4.2812 380.83 5.2029 383.583 7.72215C385.187 9.18327 386.706 12.2371 385.918 14C385.848 14.1751 385.764 14.337 385.665 14.4838C385.637 16.2783 385.903 15.7088 385.963 16.2398C386.246 18.7459 385.739 20.6098 385.709 21.0768C385.518 24.0552 385.694 25.3905 385.454 27.8171C385.652 27.6855 385.84 27.6139 386.032 27.5086C385.736 25.2854 385.75 24.1595 385.814 21.0418C385.853 22.0873 385.894 23.1333 385.934 24.1788C386.094 24.0079 386.255 23.8385 386.415 23.6741C385.782 14.0315 386.782 16.2808 387 24.3646C386.703 25.0617 386.407 25.7841 386.109 26.4746C386.559 31.1445 386.168 33.342 386.074 38.6232C386.064 39.2511 386.235 41.5379 386.243 42.5208C386.244 42.5045 386.246 42.4881 386.247 42.4718C386.527 43.0833 386.657 42.255 386.907 42.1563C386.939 42.689 386.97 43.222 387.002 43.7546C386.81 44.9442 386.653 44.526 386.699 46.8671C386.889 46.5515 387.08 46.24 387.27 45.9243C387.277 48.4895 387.07 50.1682 387.159 52.5559C387.087 52.1546 387.015 51.7584 386.943 51.3571C386.759 56.5534 385.64 52.4181 386.197 56.3448C386.099 56.5947 386.001 56.8381 385.903 57.0879C385.879 55.4701 385.856 53.8516 385.832 52.2404C385.694 52.2075 385.556 52.1721 385.418 52.1458C385.459 53.8757 385.502 55.6139 385.543 57.3438C385.45 56.0809 385.358 54.8107 385.265 53.5478C385.199 55.5537 385.132 57.5601 385.066 59.566C385.574 57.4358 385.637 60.1974 386.14 59.6782C385.721 63.23 385.169 66.0199 385.522 71.5253C385.593 72.6167 385.944 72.0238 385.516 75.1215C386.076 74.3718 386.339 78.2524 386.871 77.7538C386.845 76.6755 386.829 75.5571 386.798 74.5116C386.613 75.7021 386.105 75.8994 385.954 74.091C385.762 71.7824 386.114 68.4152 385.551 68.553C385.577 67.6325 385.593 66.7763 385.615 65.8821C385.755 66.2502 385.896 66.6107 386.035 66.9722C385.816 64.4278 385.887 62.8291 386.24 61.606C386.321 64.6377 386.401 67.6629 386.482 70.6946C386.506 70.248 386.53 69.7953 386.553 69.3486C386.913 71.6442 387.254 69.2763 387.331 73.5582C387.166 73.5319 387.002 73.5109 386.836 73.4846C387.277 75.0435 387.274 79.3116 387.781 77.9501C387.726 78.4067 387.678 78.7345 387.651 79C387.598 79.5646 387.6 79.8756 387.712 80.4486C386.736 84.4599 384.412 85.847 384.764 84.5023C384.148 85.6582 383.301 86.7107 382.279 87.5751C382.999 87.2446 383.696 86.8238 384.35 86.3196C382.739 88.1508 380.492 89.4327 378.103 89.8752C377.948 89.6672 379.074 89.4242 379.984 89.0139C380.901 88.6172 381.601 88.1466 380.91 88.297C380.645 88.3639 379.572 89.0189 379.232 89.0567C377.503 89.269 377.988 89.0783 378.728 88.8801C379.476 88.6673 380.441 88.2136 379.914 88.2312C378.298 88.8347 377.626 88.7241 377.246 88.6937C376.857 88.6367 376.715 88.574 376 88.5784C375.37 88.5747 374.311 88.6323 372.313 88.7971C372.136 88.6613 371.945 88.5228 371.781 88.3879C369.447 88.3798 369.636 88.6864 367.631 88.7444C366.374 88.7804 364.798 88.242 363.411 88.6086C363.163 88.6762 365.497 89.3343 360.592 89.3054C356.786 89.2829 358.37 88.8178 356.313 88.653C354.254 88.4883 349.544 89.1332 348.156 88.4021C349.235 88.4989 350.608 88.5512 351.805 88.6306C352.292 88.4882 352.766 88.3474 353.246 88.2058C350.51 88.3896 347.681 88.173 345.84 88.5124C342.189 87.9933 338.106 88.475 339.212 89.0612C340.413 88.9767 339.106 88.7211 340.775 88.884C340.946 89.0206 341.126 89.1565 341.297 89.2932C338.455 89.2766 336.482 89.2804 337.778 88.864C337.337 88.854 336.901 88.8441 336.46 88.8342C336.381 89.1356 336.311 89.438 336.232 89.7394C335.706 89.7734 335.178 89.807 334.651 89.841C334.066 89.7748 333.48 89.7078 332.888 89.6408C333.684 89.1639 335.04 89.1481 330.554 88.8816C330.541 89.0463 330.522 89.2104 330.508 89.3752C326.753 89.1657 326.654 88.7666 321.939 88.7815C325.556 88.2094 327.535 89.2234 327.522 88.0759C328.43 88.1513 329.345 88.2276 330.253 88.303C330.391 88.1366 330.528 87.9699 330.659 87.8035C325.786 87.8913 317.69 88.9857 314.427 88.26C314.033 88.3486 313.637 88.4255 313.235 88.5207C310.039 88.0827 308.658 89.066 305.416 88.4997C305.081 88.4403 305.781 87.5165 301.56 87.5496C301.665 87.6697 301.72 87.8717 301.805 88.0232C300.891 87.9495 299.982 87.8725 299.075 87.7971C298.911 87.908 298.738 88.0189 298.574 88.1306C300.133 88.1737 301.687 88.2174 303.246 88.2605C301.951 88.2986 300.647 88.3367 299.352 88.3747C301.042 88.556 301.804 88.5579 300.785 88.8484C299.319 88.8657 297.85 88.8842 296.383 88.9016C296.232 88.976 296.082 89.0513 295.931 89.1257C296.641 89.3475 297.359 89.5645 298.069 89.7897C294.248 89.6084 290.925 89.5986 287.992 89.1623C287.492 89.0886 289.26 88.7996 285.854 89.0603C285.801 88.9072 285.71 88.7829 285.651 88.6413C281.48 89.0702 280.111 88.9422 275.763 88.6325C278.578 88.9215 276.066 88.7336 275.349 88.8884C274.858 88.9951 276.775 88.9793 276.558 89.091C276.341 89.2019 273.85 89.6499 275.98 89.7038C281.203 88.7856 282.625 89.8834 289.334 89.4421C288.302 89.5605 287.262 89.6791 286.229 89.7975C286.715 89.8778 287.151 89.9506 287.677 90.0358C283.935 89.8562 285.755 89.9729 284.217 90.1144C282.678 90.256 279.881 90.3763 278.006 90.4152C277.416 90.4274 278.038 90.2215 276.706 90.2023C275.798 90.189 273.318 90.4943 272.745 90.1344C272.37 89.9001 276.355 89.255 270.845 89.2565C269.808 89.0268 272.45 89.0982 272.507 89.0705C272.987 88.7973 269.6 88.5919 268.034 88.8005C267.907 88.8185 269.144 89.0314 267.799 89.1149C264.609 89.3145 262.767 89.0703 260.701 88.74C260.478 89.1274 257.793 89.5902 254.452 89.447C254.281 89.5578 254.118 89.6697 253.947 89.7814C254.466 89.7227 254.985 89.6648 255.503 89.6061C256.069 89.6757 256.668 89.7263 257.221 89.8083C253.861 89.9035 253.385 90.4376 251.774 90.6329C246.26 91.3004 249.602 89.8885 250.596 89.6452C251.313 89.7437 252.007 89.8537 252.717 89.9572C252.638 89.8222 252.558 89.6862 252.486 89.5505C244.231 89.5546 251.229 88.6744 247.039 88.4236C245.96 89.0875 242.883 89.1515 238.963 88.7302C238.529 88.7335 238.093 88.7344 237.659 88.7385C237.587 88.8353 237.588 88.9833 237.47 89.0471C232.747 89.1597 231.906 88.1372 231.459 88.0403C229.473 87.6107 227.926 88.2051 227.34 88.2102C224.874 88.2309 224.157 87.9669 221.809 88.0803C219.284 88.2028 221.011 88.4054 220.242 88.5866C219.626 88.7306 217.634 88.7563 216.811 88.9055C217.138 88.7834 217.501 88.6637 217.827 88.5412C215.21 88.3749 213.071 88.2127 210.099 88.1721C206.745 89.0651 203.891 87.5587 205.048 88.7805C207.863 88.8641 209.437 89.0033 210.944 89.3146C209.096 89.3544 207.246 89.3931 205.399 89.4328C204.859 89.2987 204.477 89.168 203.839 89.0314C202.458 89.3162 199.256 89.194 197.999 89.2775C192.113 89.6691 193.934 90.1548 188.56 89.3386C192.433 89.259 192.427 88.8626 196.268 88.9172C195.439 88.634 193.487 88.6927 194.75 88.3533C191.034 88.4369 192.236 88.7399 190.789 89.009C189.542 89.2409 187.03 89.2539 187.172 89.5553C186.915 89.3896 186.717 89.2292 186.461 89.0637C184.054 89.0653 181.647 89.0654 179.24 89.0671C180.266 88.8941 181.292 88.7207 182.318 88.5486C181.542 88.4832 180.766 88.4181 179.99 88.3528C174.071 88.8909 163.863 87.9046 165.493 89.2565C162.639 89.2996 162.282 89.13 160.73 88.8742C160.559 88.9769 160.393 89.0622 160.222 89.1765C158.38 89.069 156.967 89.4543 155.343 89.3542C153.718 89.2548 153.315 88.8908 153.078 89.5026C152.026 89.3271 150.98 89.1813 149.934 89.0183C149.303 89.1573 148.673 89.2946 148.049 89.4328C147.062 89.3599 146.073 89.2874 145.087 89.2145C144.56 89.5066 140.68 89.3807 138.97 89.5768C137.347 89.262 137.392 88.2709 133.573 88.4485C133.671 88.6943 133.768 88.9394 133.867 89.1852C132.992 89.1339 132.116 89.0828 131.235 89.0314C131.182 88.9512 131.137 88.871 131.084 88.7907C131.531 88.8156 131.972 88.8403 132.419 88.8659C132.031 88.7301 131.651 88.595 131.27 88.4592C129.935 88.6604 128.598 88.8615 127.256 89.0627C129.065 89.215 130.874 89.3674 132.682 89.5197C130.413 89.7002 128.834 89.5202 126.86 89.7214C125.144 89.382 125.778 89.1864 126.475 88.8181C125.837 88.8495 125.192 88.8799 124.554 88.9113C124.975 88.543 123.896 88.3235 127.625 88.3533C127.368 88.2482 127.107 88.148 126.857 88.0388C126.245 88.0554 125.849 87.9666 125.178 88.0071C123.349 88.118 121.948 88.765 122.073 88.9919C122.14 89.1107 123.943 88.8835 123.871 89.0515C123.692 89.4611 119.556 89.2772 125.521 89.6886C123.542 89.9494 123.099 89.7528 120.916 89.6774C121.087 89.8139 121.253 89.9496 121.417 90.0861C120.405 90.0232 119.391 89.9605 118.378 89.8976C119.786 89.1964 112.32 88.933 119.041 88.3196C117.055 88.2881 115.075 88.2565 113.096 88.2234C113.504 88.1514 113.912 88.0801 114.319 88.0081C115.214 88.0461 116.103 88.0836 116.997 88.1208C115.945 87.9892 114.891 87.8584 113.839 87.7268C111.353 87.8899 110.378 88.1408 109.24 88.4504C112.134 88.6764 111.189 88.3677 113.443 88.3064C113.364 88.5025 113.468 88.6829 113.271 88.8889C112.106 88.4827 108.306 88.7782 107.425 88.7981C104.743 88.8584 106.846 88.4593 105.052 88.4509C103.256 88.4426 101.138 88.6802 99.6716 88.2844C99.6979 88.5062 99.8153 88.7357 99.9205 88.9377C97.125 89.0106 97.6827 88.7485 97.3933 88.7146C92.776 88.1566 90.2706 88.6277 84.9889 88.6848C85.6597 88.7535 86.3374 88.8155 87.0148 88.8801C83.0302 89.3511 85.7144 89.2068 89.1739 89.3625C85.9312 89.3153 84.0742 89.7164 81.7852 89.8356C79.4966 89.9546 75.5716 89.7486 74.1372 89.5881C77.4194 89.3297 80.9594 89.5001 84.6033 89.4289C84.189 89.2029 83.7864 89.0117 83.359 88.7634C81.1427 89.2377 79.8584 88.9205 79.1284 88.8576C76.9846 88.6731 77.052 89.0801 75.7565 88.6423C75.8091 88.7929 75.8476 88.9196 75.9002 89.0603C71.4738 88.9973 66.6993 88.731 63.8183 89.2873C63.5552 88.9255 63.3567 88.577 63.0541 88.2078C61.1798 88.4801 59.5747 88.2012 57.9963 88.2649C56.4244 88.3286 57.0228 88.621 55.1748 88.7336C54.8327 88.7543 54.1204 88.5713 53.2785 88.7063C52.4284 88.8419 49.2931 89.8507 48.9182 88.9694C47.3332 88.9653 45.8332 88.9331 44.281 88.9182C45.7937 88.8685 47.3069 88.8204 48.8131 88.7707C47.524 88.5571 46.243 88.3442 44.954 88.1306C44.7895 88.321 44.6246 88.5149 44.4668 88.7029C40.9939 88.9347 38.4737 88.6233 34.968 88.697C34.3827 88.7094 35.7637 89.0859 33.1664 88.9899C30.5685 88.8939 28.6405 88.1912 24.2145 88.4626C23.9908 88.4767 22.6801 89.0149 21.095 88.6423C20.7342 88.5579 22.2525 88.4329 21.4244 88.322C20.5957 88.2111 16.8979 88.1198 16.6085 87.8557C16.6479 87.9493 16.8787 88.0462 16.9905 88.1414C16.3593 88.186 15.7216 88.2308 15.0838 88.2746C15.0246 88.1099 14.9607 87.9449 14.9015 87.781C14.2171 87.8533 13.595 87.9341 13 88.0164C10.7915 88.2785 8.17866 88.2886 5.50209 84.968C6.21759 86.2514 7.26354 87.4141 8.56176 88.2989C9.01904 88.3314 9.47124 88.33 9.90264 88.2964C10.8892 88.6559 11.9382 88.8544 13 88.8828C14.4102 88.9208 15.8206 88.9587 17.2289 88.9968C17.6367 88.8055 18.0373 88.6148 18.4451 88.4236C19.1027 88.4484 19.7539 88.4725 20.4115 88.4973C20.2471 88.6356 20.0813 88.7731 19.9103 88.9113C21.2123 88.8774 22.5159 88.8427 23.8114 88.8088C21.174 89.6249 16.4462 88.7394 16.7872 89.4221C16.2022 89.3161 15.6163 89.2095 15.0312 89.1027C14.8446 89.3435 14.1642 89.3587 13 89.3291C12.5481 89.3178 12.0297 89.2721 11.4502 89.1703C11.9131 89.4066 12.4598 89.6086 12.9337 89.7749C10.7154 89.6949 7.03701 88.194 5.60953 86.4286C4.96525 85.7043 5.80675 86.2359 5.62925 86.0095C4.67319 84.9524 3.09896 82.6276 3.02839 81.9978C2.77048 80.9176 2.77425 79.921 2.89349 79C3.15621 77.011 3.41666 75.1829 3.0579 72.653C2.92875 76.4613 2.9833 74.3895 2.69269 75.7444C2.60157 76.1686 2.4115 81.0886 2.49592 74.9277C2.50648 74.2055 3.05502 63.0267 3.47536 66.7014C3.34124 64.8925 3.18615 63.4763 3.04374 61.8188C4.15153 57.767 3.11085 59.1693 2.53791 60.3467C2.53543 59.6823 2.52961 59.0504 2.52961 58.3663C3.13152 59.8199 3.1689 52.4142 2.86504 49.9016C2.76403 49.0597 2.57137 51.4137 2.4803 49.4669C2.52251 48.5399 2.57716 47.4882 2.62433 46.5087C2.24351 47.9293 2.09675 45.1412 1.70934 45.1802C2.05456 43.3979 2.78629 42.0346 3.1829 43.0141C3.02231 41.541 2.86192 40.0603 2.7005 38.5872C2.6086 39.2712 2.51751 39.9641 2.42561 40.6482C2.66903 35.8334 2.11514 29.6427 2.929 28.6363C2.92321 27.9983 2.9182 27.3535 2.9124 26.7155C2.77497 26.5182 2.63726 26.3275 2.49983 26.1302C2.61902 23.2433 2.73901 20.363 2.85821 17.4762C2.9435 20.0466 3.13912 20.6585 2.98027 23.3542C3.13834 22.3154 3.29728 21.2572 3.45535 20.2382C3.16712 17.4895 2.94581 16.3486 2.87234 14C2.84697 12.8756 2.98095 11.4053 3.87528 9.61069C3.93345 9.48531 4.57062 8.40367 5.43505 7.55893C6.28098 6.69315 7.29874 6.0957 7.36961 6.06871C8.03115 5.80293 7.30407 6.5912 7.60254 6.48019C7.99658 6.31713 9.34137 5.70653 10.6274 5.55939C11.9114 5.37726 13.0452 5.58229 12.9987 5.62033C12.6456 5.96629 10.7851 6.15785 8.93367 7.5174C7.05916 8.81378 5.53364 11.4384 5.64584 14C5.7016 17.724 5.71559 21.1161 5.73453 22.8564C5.93938 41.6913 5.96841 60.3738 5.92942 79C5.82297 82.7642 9.21364 86.1918 13 86.1172C39.8346 86.2164 66.608 86.394 93.6078 86.3265C94.1319 86.3245 93.9032 86.17 94.1266 86.1634C95.5142 86.1246 96.8769 86.3654 97.3898 86.3753C98.4859 86.3958 97.8823 86.1733 98.6832 86.1732C106.958 86.1757 114.766 86.3065 123.047 86.2684C123.586 86.2659 123.036 86.4439 123.983 86.4124C124.472 86.3952 126.002 86.1222 127.106 86.118C130.96 86.1039 134.198 86.1915 138.262 86.1873C140.486 86.1849 143.821 86.2081 146.307 86.204C147.404 86.2022 148.548 86.0773 149.633 86.0731C151.172 86.0673 150.858 86.3205 151.094 86.3363C152.134 86.405 152.278 86.127 153.264 86.1336C155.099 86.1469 155.198 86.3325 157.526 86.3167C159.19 86.3051 162.999 86.1586 165.097 86.1156C170.004 86.3308 176.187 86.2454 180.765 86.1742C183.475 86.132 183.726 86.3918 184.831 86.391C188.724 86.3859 191.679 86.0541 195.335 86.0433C200.188 86.0293 204.489 86.2487 209.191 86.2645C209.953 86.267 209.778 86.0289 210.526 86.0228C213.296 86.0005 216.837 85.9571 219.303 85.9911C222.052 86.0284 223.066 86.3739 225.756 86.3036C226.545 86.2827 226.776 85.9797 228.097 85.9408C230.208 85.8796 232.523 86.1468 233.996 86.1766C236.016 86.2163 234.26 85.9077 236.983 85.9491C237.095 85.9509 237.502 86.1715 238.087 86.161C239.79 86.1312 239.621 85.9574 242.114 85.974C242.353 85.9763 245.659 86.1865 245.987 86.1873C247.921 86.1907 251.814 86.2643 252.959 86.2196C257.05 86.0606 253.829 85.7287 257.309 86.4491C258.841 86.2728 260.36 86.0941 261.984 85.9227C260.9 86.0825 265.299 86.3131 265.609 86.2982C268.166 86.1781 266.643 85.8978 269.885 85.9442C265.603 86.5916 274.068 86.0276 275.956 86.0111C285.045 85.9308 293.308 86.0924 302.443 86.0882C305.502 86.0865 309.6 85.9497 312.836 85.953C313.59 85.9532 313.02 86.1064 313.684 86.1097C314.346 86.112 313.612 85.94 314.368 85.9491C319.07 86.0087 322.755 86.3333 327.063 85.9276C327.273 85.9863 327.266 86.0326 327.613 86.097C331.139 85.7336 337.928 86.2223 340.48 86.2894C344.472 86.3937 345.492 86.148 348.391 86.1976C352.226 86.2638 357.983 86.7438 355.412 85.9515C358.042 85.9267 360.575 85.9198 363.232 85.9935C363.527 86.0019 363.324 86.2032 363.442 86.2074C364.192 86.2363 364.436 86.056 364.942 86.0477C366.315 86.0254 364.075 86.2413 366.032 86.181C367.065 86.1487 367.651 85.9915 370.519 85.9881C372.331 85.9863 374.159 85.9853 376 85.985C379.65 86.0874 383.08 82.7779 382.996 79C383.011 68.1278 383.038 57.0836 383.054 46.4185C383.055 45.2016 382.86 46.0027 382.873 44.4767C382.916 39.1753 383.244 29.686 383.199 25.1147C383.154 20.5436 382.87 21.5749 382.75 18.7144C382.727 18.1619 382.889 18.6149 382.892 18.1151C382.898 16.8035 382.94 15.3936 382.991 14C383.086 12.4623 382.62 10.9482 381.953 9.95167C381.196 8.89063 381.039 9.1669 380.383 8.60602C379.382 7.79679 378.182 7.10143 377.471 6.96034C376.969 6.8504 376.477 6.80486 376 6.8087C372.375 6.83023 369.508 6.96533 365.817 6.87564C365.987 6.93182 366.1 6.98384 366.244 7.0392C361.082 7.0301 355.925 7.02097 350.762 7.01186C351.006 7.06319 351.241 7.11496 351.485 7.16712C345.427 7.13895 346.118 6.5826 346.651 7.75743C346.21 7.79882 345.743 7.84679 345.323 7.88486C345.494 7.27968 341.829 6.8368 337.166 6.68277C336.824 6.67118 334.529 7.26125 334.779 6.56413C334.181 6.73468 333.824 6.85224 333.318 7.00209C332.331 6.79103 331.332 6.58247 330.345 6.37224C329.813 6.40369 329.273 6.43405 328.74 6.4655C328.661 6.60211 328.722 6.74395 328.551 6.87808C326.078 6.89877 321.006 6.72989 319.052 6.74722C314.198 6.7911 309.256 7.16045 305.48 6.76138C303.641 6.80207 305.468 7.0702 302.733 7.03627C302.423 6.90052 302.133 6.77041 301.811 6.63053C299.575 7.23706 299.108 6.86809 296.045 6.74136C293.973 6.65527 292.616 6.80351 290.644 6.77457C290.144 6.76711 290.214 6.58909 289.872 6.59489C288.727 6.61325 285.459 6.85827 284.65 6.86489C277.323 6.92946 271.029 6.90198 264.051 6.83657C263.301 6.82995 264.273 7.00564 263.497 6.99819C262.248 6.98649 262.983 6.71652 262.259 6.70328C260.242 6.66786 260.226 6.95253 257.412 6.96743C248.145 7.01624 237.49 6.8024 227.808 6.78335C227.506 6.78335 227.524 6.95015 227.195 6.9518C225.051 6.95996 222.881 6.7345 220.935 6.73697C217.705 6.74028 215.278 6.9746 212.088 6.97378C205.853 6.97295 200.281 6.85297 193.869 6.84634C188.62 6.84054 184.061 6.86279 178.306 6.86196C153.167 6.85865 127.514 7.38808 102.204 7.10658C101.56 7.09914 101.822 6.95177 101.626 6.95815C99.7577 7.0219 99.5911 7.22074 98.9268 6.80435C96.5472 6.88641 95.7962 7.19924 92.9226 7.17689C91.391 7.16517 92.5345 6.68032 89.9433 6.93032C87.6036 7.15633 90.1855 7.42205 83.2276 7.15052C83.0434 7.14306 82.1368 6.84752 80.6899 6.92446C79.2363 7.00063 80.9189 7.21225 77.4197 7.27601C69.2048 7.42502 58.8065 7.16955 49.2564 7.24818C48.6579 7.25314 42.8935 7.41114 41.7556 7.484C39.5535 7.62557 40.0135 7.8452 37.1534 7.89902C34.9434 7.94042 33.12 7.69164 30.5219 7.74132C30.2192 7.74735 29.7124 8.00325 27.7598 7.96933ZM336.467 90.0011C335.928 90.2522 334.954 91.1764 331.693 90.8951C331.384 90.8686 333.053 90.2331 331.252 90.132C333.014 90.0649 334.731 90.0432 336.467 90.0001C336.467 90.0005 336.467 90.0008 336.467 90.0011ZM13.6239 2.07656C16.0641 2.12292 18.5128 2.16886 20.953 2.21522C19.2692 2.32699 17.5829 2.43855 15.9057 2.55114C15.1429 2.39304 14.3867 2.23466 13.6239 2.07656ZM317.394 2.5155C317.392 2.5155 317.39 2.5155 317.387 2.5155C319.952 2.39628 322.519 2.27683 325.084 2.15761C324.815 2.24537 324.544 2.3335 324.275 2.42127C322.249 2.5595 320.223 2.69756 318.204 2.8358C317.934 2.72902 317.664 2.62228 317.394 2.5155ZM297.128 3.44465C295.49 3.34033 295.891 3.1644 294.99 2.99302C294.99 2.99334 294.99 2.99367 294.99 2.99399C294.752 2.94938 293.644 2.91034 293.216 2.90366C293.374 3.01378 293.578 3.12249 293.749 3.23177C289.927 3.49837 282.454 2.55101 292.13 2.16933C291.985 2.30839 291.847 2.44675 291.702 2.58581C296.51 2.5469 301.87 2.84854 297.128 3.44465ZM297.806 90.4015C293.702 90.8569 292.386 90.9529 287.407 90.6407C288.11 90.5117 288.813 90.3826 289.517 90.2536C290.339 90.3852 291.155 90.5159 291.977 90.6476C291.98 90.6476 291.982 90.6476 291.984 90.6476C292.149 90.5093 292.314 90.3708 292.471 90.2326C294.247 90.2889 296.03 90.3452 297.806 90.4015ZM140.017 3.11557C138.873 2.2061 139.203 2.73474 142.47 2.52966C143.602 2.45846 142.499 2.29933 143.203 2.27284C147.003 2.12812 147.307 2.73746 146.459 3.05454C144.308 3.07606 142.135 3.0957 140.024 3.11557C140.021 3.11557 140.019 3.11557 140.017 3.11557ZM41.4086 3.30452C41.4062 3.30452 41.4039 3.30452 41.4016 3.30452C41.3029 3.08269 42.8351 3.02302 41.1071 2.81285C42.4217 2.81368 43.7362 2.81544 45.0574 2.81627C44.6698 2.83693 44.2742 2.85663 43.8867 2.8773C44.2287 2.95347 44.5716 3.03061 44.9137 3.10678C45.3806 2.8518 45.8145 3.00001 47.1955 3.0853C46.8139 2.81291 46.4343 2.54034 46.0528 2.26795C47.6573 2.34907 49.2677 2.43048 50.8723 2.51159C50.8919 2.58024 50.9121 2.649 50.9319 2.71764C51.5367 2.62991 52.1356 2.54122 52.7405 2.45349C52.9048 2.53544 53.0633 2.61665 53.2277 2.6986C53.9575 2.63652 54.6886 2.5745 55.4183 2.51159C55.6404 2.7101 54.032 2.7959 56.8834 2.74547C56.0088 2.94911 55.1359 3.15215 54.2547 3.35579C49.9727 3.33923 45.6905 3.32191 41.4086 3.30452ZM169.743 2.8358C165.027 2.87388 166.356 2.73001 167.447 2.27967C168.21 2.46507 168.98 2.6504 169.743 2.8358ZM386.763 34.999C387.071 36.3671 387.375 37.7409 387.671 39.142C387.842 41.9308 387.283 44.7207 387.063 42.6225C386.8 40.0968 387.095 37.4589 386.763 34.999ZM372.191 89.9001C375.603 90.0425 372.392 90.4075 371.623 90.6202C370.679 90.2783 369.363 90.3085 367.249 90.2687C369.234 90.2465 371.626 89.8759 372.191 89.8991C372.191 89.8994 372.191 89.8997 372.191 89.9001ZM357.797 2.89146C356.43 2.90064 355.07 2.98643 353.847 2.88218C354.216 2.58847 356.662 2.85568 354.912 2.42029C355.787 2.41284 356.663 2.40562 357.531 2.39734C356.979 2.57774 357.721 2.71256 357.794 2.89048C357.795 2.89081 357.796 2.89113 357.797 2.89146ZM215.435 2.48962C218.119 2.83736 218.627 2.68856 221.331 2.44763C221.712 2.73076 218.488 3.20501 216.469 3.30941C216.127 3.03621 215.784 2.76282 215.435 2.48962ZM1.6833 80.0578C1.89473 80.4048 2.15051 81.9082 2.90405 83.4716C3.62431 85.0493 4.88163 86.5845 5.85905 87.4514C5.58698 87.2914 5.31869 87.1184 5.05726 86.9335C3.19348 85.1449 1.96129 82.6633 1.6833 80.0578ZM366.243 90.2443C366.596 90.2548 366.932 90.2627 367.249 90.2687C366.897 90.2726 366.557 90.2665 366.243 90.2443ZM223.362 88.6779C224.486 88.3377 221.144 88.2234 225.202 88.3567C225.202 88.3564 225.202 88.356 225.202 88.3557C227.886 88.4435 228.478 88.4669 230.964 88.4934C230.069 88.9305 225.025 89.0867 231.977 89.1769C232.069 89.1773 231.887 88.9173 232.997 88.9528C233.34 88.9639 234.438 89.1773 236.106 89.2394C236.646 89.2593 240.699 89.3251 235.174 89.3293C235.339 89.634 235.042 89.9424 235.055 90.2379C232.898 90.3238 231.241 89.7272 228.96 89.7419C225.572 89.765 223.848 90.3683 223.197 89.5768C226.046 89.3824 230.936 89.3777 231.574 89.8537C234.33 89.8595 235.121 89.4695 232.899 89.2766C223.382 89.5216 230.287 88.6977 221.953 89.009C221.854 89.1191 221.512 89.2375 221.564 89.341C219.02 88.9536 222.961 88.7996 223.362 88.6779ZM243.264 89.5197C241.619 89.7524 239.98 89.9869 238.343 90.2204C238.343 89.8412 239.246 89.5009 241.837 89.2873C242.31 89.3651 242.791 89.4428 243.264 89.5197ZM104.94 89.6193C104.703 89.8255 104.072 90.0144 103.611 90.2106C103.111 90.0367 91.2717 89.8699 97.2952 89.6994C98.17 89.6745 103.506 90.0391 104.94 89.6193ZM196.802 2.80015C198.197 2.93842 199.585 3.07691 200.973 3.21517C198.837 3.30288 196.699 3.39289 194.563 3.48225C195.311 3.25494 196.054 3.02746 196.802 2.80015ZM386.402 57.6978C386.409 57.1088 386.693 59.065 386.648 56.7444C386.829 58.4743 386.983 60.0943 387.153 61.7847C387.019 62.2912 386.886 62.8029 386.752 63.3094C386.838 63.7041 386.923 64.1065 387.009 64.5011C386.814 64.2643 386.623 64.0536 386.424 63.8036C386.843 60.9556 386.368 60.3025 386.402 57.6978ZM350.72 4.36258C350.208 3.93793 354.332 3.6854 350.275 3.6175C351.045 3.3385 352.282 3.19216 354.657 3.16732C355.038 3.27402 355.418 3.37994 355.799 3.48664C355.852 3.20112 356.463 3.095 357.797 2.89146C357.798 2.89178 357.799 2.89211 357.801 2.89243C361.41 2.87176 361.195 2.96696 362.063 3.43635C358.241 3.17141 358.127 3.60027 355.522 3.85528C353.733 4.03063 351.398 3.95122 350.72 4.36258ZM117.554 89.6144C114.852 89.9729 117.277 90.3072 112.483 89.9264C112.792 89.8353 113.102 89.745 113.411 89.654C114.792 89.6399 116.174 89.6268 117.554 89.6144ZM337.384 2.90708C337.693 3.56442 340.237 4.07611 340.671 3.00669C338.192 2.78894 339.403 3.39471 337.384 2.90708ZM373.354 88.8708C374.591 88.8788 375.446 88.9345 376 89.0192C377.292 89.1705 377.037 89.5427 376 89.8424C375.782 89.9049 375.532 89.9631 375.261 90.0143C374.959 89.8794 374.656 89.7442 374.36 89.61C373.525 89.6713 372.69 89.7327 371.854 89.7931C372.354 89.486 372.855 89.178 373.354 88.8708ZM253.322 3.62921C256.966 3.15977 249.388 3.36813 251.934 3.07504C253.966 2.84076 256.644 3.31377 255.631 3.61017C254.928 3.61845 254.144 3.62425 253.329 3.62921C253.326 3.62921 253.324 3.62921 253.322 3.62921ZM274.408 3.49494C273.81 2.99337 274.672 3.13957 271.793 3.22982C270.971 3.25549 264.438 3.06711 267.181 3.48274C269.515 3.48274 271.982 3.48998 274.408 3.49494ZM318.237 89.6047C318.193 89.3862 323.224 88.9066 323.87 89.0266C323.87 89.0262 323.87 89.0259 323.87 89.0256C325.613 89.3526 320.306 89.3991 322.608 89.8478C317.511 89.453 315.986 90.408 316.341 89.1496C319.344 89.0944 317.922 89.3538 318.237 89.6047ZM2.6629 17.5147C2.6629 17.5124 2.6629 17.51 2.6629 17.5077C2.65263 17.8455 2.33207 20.6292 2.22103 20.2907C2.31623 16.9432 2.52724 17.5397 2.18051 14.4232C2.27596 14.2772 2.36897 14.149 2.46423 14C2.48042 13.9732 2.49677 13.9459 2.51332 13.9179C2.51452 13.9455 2.51585 13.9729 2.51731 14C2.58485 15.1881 2.71234 15.8795 2.6629 17.5147ZM92.1392 89.1789C93.3692 89.1218 95.6138 89.3585 97.0148 89.3444C92.5553 90.2535 87.2263 89.4058 92.1392 89.1789ZM87.5283 3.27328C87.5318 3.27295 87.5353 3.27262 87.5388 3.2723C87.5377 3.27279 87.5364 3.27327 87.5353 3.27376C87.533 3.2736 87.5306 3.27344 87.5283 3.27328ZM187.453 89.7243C187.294 89.6653 187.204 89.614 187.172 89.569C187.172 89.5648 187.172 89.5606 187.172 89.5563C187.258 89.6116 187.349 89.6675 187.453 89.7243ZM307.782 89.6706C305.686 89.366 312.667 88.8817 314.925 88.9973C314.767 89.1363 314.743 89.2624 314.375 89.4221C312.553 89.062 308.13 89.7219 307.782 89.6706ZM381.493 4.98091C382.73 5.76015 383.088 6.29964 383.102 6.42819C383.106 6.57137 382.738 6.373 382.231 6.08833C381.233 5.47218 379.546 4.80043 379.546 4.3189C379.569 4.26521 381.376 4.86011 381.493 4.98091ZM351.301 89.5446C352.706 89.1805 349.881 89.0838 354.399 89.1467C354.662 89.241 354.925 89.3355 355.188 89.4299C353.892 89.4679 352.596 89.5065 351.301 89.5446ZM384.98 39.9131C385.183 46.8586 385.54 53.5013 386.545 48.9772C386.512 48.4515 386.481 47.9186 386.449 47.3929C385.959 47.314 386.226 45.3742 386.242 42.5349C386.048 42.1301 386.003 40.5555 385.838 40.2601C385.518 39.6887 385.293 41.498 384.98 39.9131ZM124.391 4.22293C124.503 4.13931 124.612 4.05525 124.724 3.97246C125.823 3.87807 126.924 3.78414 128.022 3.68976C127.845 3.85024 127.667 4.0107 127.49 4.17118C126.457 4.18856 125.43 4.20604 124.398 4.22342C124.396 4.22326 124.393 4.2231 124.391 4.22293ZM250.032 88.4861C249.401 89.4065 251.606 89.237 256.078 88.7717C254.066 88.6765 252.045 88.5813 250.032 88.4861ZM306.013 4.64723C305.869 4.38575 305.726 4.12506 305.575 3.86358C303.201 4.13597 303.642 4.43542 304.779 4.7815C305.193 4.73684 305.599 4.69189 306.013 4.64723ZM271.811 4.75855C272.796 4.81311 272.293 4.60198 272.396 4.60622C274.889 4.71716 275.24 4.81401 278.299 4.65504C278.674 4.59958 279.042 4.54127 279.417 4.48415C278.003 3.93623 276.976 4.23486 273.984 3.91289C274.523 4.10083 275.06 4.28903 275.6 4.47781C273.936 4.43807 272.279 4.39889 270.616 4.35916C270.418 4.41711 270.221 4.47453 270.023 4.53249C270.615 4.60698 271.226 4.69069 271.811 4.75855ZM111.689 3.98515C110.071 3.96363 108.445 3.94125 106.827 3.91973C106.768 4.05467 106.711 4.19053 106.652 4.32547C108.329 4.21207 110.012 4.09855 111.689 3.98515ZM216.811 88.9055C216.683 88.9533 216.558 89.0015 216.446 89.0505C216.457 88.9908 216.597 88.9442 216.811 88.9055ZM3.43002 13.2755C3.59569 11.5231 4.50666 9.07894 5.85279 7.67386C5.68388 7.61363 4.74579 8.53246 4.08228 9.88311C3.38604 11.2191 3.10279 12.9307 3.0067 13.8233C3.06964 14.1154 3.34509 14.0116 3.43002 13.2755ZM379.812 88.1403C380.168 87.8087 380.488 87.4582 380.77 87.0958C381.678 86.5806 382.506 85.9104 383.204 85.1165C383.119 85.0033 383.032 84.8906 382.945 84.7792C381.533 86.5227 380.598 86.7972 380.066 86.9676C379.5 87.1005 379.158 87.0687 378.117 87.1543C378.626 87.5311 379.189 87.8655 379.812 88.1403ZM60.2063 4.86206C63.7646 4.76851 65.0268 4.59377 63.0209 4.17899C61.7649 4.27417 60.5018 4.36944 59.2459 4.46462C59.5681 4.59706 59.8906 4.72963 60.2063 4.86206ZM152.006 88.593C149.028 88.748 148.979 88.1913 146.068 88.5022C147.627 88.6048 149.185 88.7086 150.737 88.8112C151.156 88.7387 151.586 88.6656 152.006 88.593ZM298.048 87.0643C296.792 86.8706 294.443 87.7911 290.912 87.1116C290.07 87.3144 289.543 87.5081 288.819 87.7068C288.398 87.4907 287.92 87.2719 287.519 87.0574C287.516 87.0574 287.514 87.0574 287.512 87.0574C284.309 87.1303 286.385 87.4013 286.313 87.6306C286.279 87.7257 283.902 87.5668 284.645 87.7737C285.927 88.1289 290.72 87.9246 290.733 88.3577C289.049 88.2161 285.761 88.3344 286.734 88.6233C287.799 88.9403 290.898 88.409 292.871 88.6721C290.043 87.98 295.884 88.1938 296.548 88.7253C299.975 88.3171 296.825 88.1506 293.313 88.1697C295.457 87.7623 292.301 87.9824 291.781 87.6438C293.992 87.4394 301.58 87.6098 298.048 87.0643ZM384.42 11.382C384.661 12.1177 384.802 13.0548 384.78 14C384.748 15.8152 384.736 17.6564 384.952 18.6759C385.152 19.6203 385.307 15.9114 385.622 18.4691C385.591 16.1615 385.468 15.635 385.193 16.0295C385.16 15.5036 385.127 14.9711 385.095 14.4452C385.127 14.2982 385.16 14.1489 385.192 14C385.213 13.9098 385.233 13.8194 385.252 13.7298C385.131 13.4785 385.001 13.2325 384.862 13.0065C384.829 12.5095 384.753 12.0066 384.637 11.5184C384.566 11.4773 384.49 11.3965 384.42 11.382ZM66.5066 88.6101C67.1642 88.6068 67.8154 88.6035 68.473 88.5993C68.4006 88.5322 68.3143 88.4623 68.2311 88.3933C68.1716 88.3388 68.112 88.2843 68.0524 88.2297C68.4335 88.4245 71.5662 88.7483 72.8859 88.5403C73.5494 88.4359 72.0395 88.0654 74.8522 88.0007C72.8138 88.0198 70.9255 88.0704 68.9462 88.1018C69.1238 87.9917 69.2944 87.8804 69.4719 87.7703C69.4708 87.7701 69.4696 87.77 69.4684 87.7698C68.8109 87.745 68.1456 87.7189 67.4881 87.6941C67.1592 87.9996 66.8355 88.3046 66.5066 88.6101ZM307.941 5.16429C310.184 4.9482 310.935 4.83598 309.876 4.48659C309.874 4.48643 309.871 4.48627 309.869 4.48611C309.034 4.6409 308.198 4.79564 307.363 4.95044C307.553 5.02164 307.744 5.09309 307.941 5.16429ZM197.491 87.7522C192.723 89.0794 203.461 88.2658 201.417 87.8137C201.325 87.793 197.938 87.8988 197.491 87.7522ZM372.478 88.4626C373.65 88.453 374.823 88.4442 376 88.4347C376.131 88.4336 376.262 88.4298 376.392 88.4234C376.26 88.3548 376.129 88.2837 376 88.2099C375.833 88.1209 375.665 88.0318 375.5 87.9426C374.493 88.1157 373.485 88.2896 372.478 88.4626ZM75.6987 5.46457C77.0763 5.82887 80.6126 5.96086 82.3408 5.56467C81.4331 5.5183 80.525 5.47188 79.6173 5.42551C81.3334 5.37999 83.0301 5.32989 84.7593 5.28685C84.8514 4.77932 82.8586 5.07376 79.8592 4.93384C79.3948 4.91127 76.4259 4.28129 75.4008 4.75611C75.1945 4.85371 78.3528 4.92007 76.1578 5.20384C77.1176 5.22617 77.946 5.22122 78.8532 5.23363C78.9191 5.35451 78.9842 5.47552 79.0565 5.5964C77.9347 5.55263 76.8205 5.50834 75.6987 5.46457ZM384.854 24.7747C384.826 28.0279 385.029 28.4297 385.387 29.1069C385.347 27.5941 385.307 26.0807 385.266 24.5679C385.129 24.64 384.992 24.7025 384.854 24.7747ZM104.777 5.58078C106.558 5.6394 105.795 5.34768 106.512 5.29222C109.221 5.08361 111.07 5.2921 113.746 5.16136C113.569 5.21766 113.406 5.27029 113.234 5.32493C113.237 5.32493 113.239 5.32493 113.241 5.32493C125.916 5.5708 119.258 4.90921 111.675 5.01684C111.497 4.90838 111.327 4.79978 111.149 4.69215C107.755 4.88174 104.625 5.06417 104.777 5.58078ZM239.857 87.7068C239.712 87.6389 240.942 87.2075 238.634 87.4095C236.805 88.0394 239.804 87.7267 240.554 87.969C239.93 88.0294 239.29 88.0882 238.672 88.1487C242.408 88.3267 242.953 88.1769 241.592 87.7166C241.495 87.6856 240.002 87.7745 239.857 87.7068ZM215.304 87.3963C214.791 88.3244 219.506 87.907 219.335 87.6189C218.684 87.6074 218.178 87.7646 217.488 87.6951C216.79 87.6256 216.612 87.4088 215.304 87.3963ZM350.386 87.6233C350.248 87.6192 348.86 87.2291 348.998 87.5345C350.714 88.2572 354.173 87.792 353.568 87.5403C352.424 87.5528 351.661 87.6612 350.386 87.6223C350.386 87.6227 350.386 87.623 350.386 87.6233ZM54.2406 5.68331C54.3064 5.70921 57.7686 5.866 58.2154 5.72042C58.5835 5.55652 58.7664 5.38086 59.0426 5.21117C57.1351 5.36848 53.2742 5.24864 54.2476 5.68331C54.2453 5.68331 54.243 5.68331 54.2406 5.68331Z" fill="#000F55"/>
</svg>
