<svg width="320" height="115" viewBox="0 0 320 115" fill="none" xmlns="http://www.w3.org/2000/svg">
<path d="M81.7991 1.54848C79.9315 1.18772 86.166 1.42421 82.0261 0.885432C82.8894 0.84903 83.758 0.811487 84.6212 0.775085C84.8402 0.974619 85.0645 1.17367 85.2834 1.3732C84.1241 1.43196 82.9642 1.4907 81.7991 1.54946C81.7991 1.54914 81.7991 1.54881 81.7991 1.54848ZM80.2162 4.04738C81.2786 3.47827 84.6542 3.32653 81.0076 2.80135C80.7178 2.99667 80.4208 3.19194 80.131 3.38726C78.865 3.23578 77.5911 3.08433 76.3251 2.93367C75.8697 3.00813 75.415 3.08268 74.9597 3.15632C74.3799 2.81691 73.8052 2.47658 73.2254 2.13635C73.7403 2.18602 74.262 2.23656 74.7768 2.28624C76.8121 2.01062 78.623 1.93524 81.386 1.88392C81.1434 1.80361 80.9002 1.724 80.6576 1.64369C82.0598 1.78029 83.4614 1.91723 84.8577 2.05383C83.645 2.18792 82.2891 2.33704 81.1653 2.46201C82.9638 2.99419 86.1359 2.69801 87.7871 2.58701C90.0355 2.4355 89.5274 2.68855 91.1957 2.58261C91.462 2.56606 91.4922 2.36771 92.0187 2.36436C94.6756 2.34863 99.8358 2.45376 96.8179 2.91658C92.4451 2.85697 88.7158 3.22862 84.4257 3.09284C85.5606 3.62799 83.3005 3.81009 80.2162 4.04738ZM160.548 2.34337C159.223 2.60328 156.524 2.49839 154.696 2.31798C154.694 2.31798 154.691 2.31798 154.689 2.31798C154.287 2.27824 153.376 1.93283 154.689 1.9469C156.831 1.97102 157.866 2.51474 158.99 2.14562C159.493 2.21434 160.021 2.27548 160.548 2.34337ZM165.202 2.31114C166.516 2.44443 165.92 2.85413 164.275 2.74325C164.275 2.74358 164.275 2.7439 164.275 2.74423C163.589 2.69786 164.936 2.37403 162.475 2.70272C161.972 2.44701 161.477 2.21436 160.98 1.96692C161.583 1.96278 162.132 1.95607 162.765 1.95276C162.339 2.37309 163.889 2.17889 165.202 2.31114ZM99.0378 2.68515C99.2445 2.30701 98.3793 2.3094 96.9063 2.047C98.2966 2.05941 99.6873 2.07266 101.072 2.08508C100.391 2.28535 99.718 2.48487 99.0378 2.68515ZM66.3734 2.62656C66.3714 2.62656 66.3692 2.62656 66.3671 2.62656C65.9116 2.68616 65.4546 2.74599 65.005 2.80477C64.7327 2.66982 64.4636 2.53545 64.1914 2.40049C62.5819 2.52717 60.9638 2.65383 59.3543 2.78133C59.5499 2.3691 62.4389 2.43617 64.0306 2.14806C66.3973 2.27226 67.5376 2.51155 67.6915 2.86092C67.2538 2.78313 66.8171 2.70435 66.3734 2.62656ZM280.856 112.483C280.318 112.598 279.786 112.712 279.248 112.826C279.963 112.878 280.673 112.918 281.395 112.979C283.283 112.482 283.46 112.921 285.933 112.891C293.512 112.796 291.501 112.025 298.347 113.155C292.851 113.101 294.963 113.632 291.649 114.041C290.963 113.73 294.246 113.028 292.022 112.882C288.188 113.211 284.501 113.518 280.247 113.731C280.372 113.785 280.495 113.839 280.619 113.893C281.294 113.859 281.963 113.824 282.638 113.791C281.91 113.935 281.198 114.077 280.459 114.223C281.393 113.896 279.011 114.079 279.33 113.703C279.472 113.536 280.525 113.304 281.146 113.144C279.543 113.057 277.898 112.978 276.277 112.893C277.117 112.76 277.957 112.626 278.791 112.493C279.477 112.489 280.157 112.486 280.843 112.482C280.847 112.483 280.852 112.483 280.856 112.483ZM0.915684 40.3059C1.30482 42.3414 1.3692 46.0404 0.936191 47.9872C0.929568 45.425 0.922308 42.868 0.915684 40.3059ZM67.846 3.14899C67.6156 3.08284 67.3922 3.0174 67.1618 2.95125C68.1793 2.82874 69.2029 2.70707 70.2204 2.58457C70.4156 2.77574 70.6152 2.96695 70.8164 3.15729C69.8285 3.15481 68.8339 3.15147 67.846 3.14899ZM132.948 2.93611C132.203 2.94768 132.137 2.94141 131.21 2.91414C131.211 2.9143 131.212 2.91447 131.213 2.91463C130.846 2.90444 127.771 2.79278 128.114 2.6456C129.641 2.64311 131.269 2.6456 132.831 2.6456C132.878 2.74242 132.889 2.83847 132.948 2.93611ZM114.977 2.85018C114.975 2.84985 114.973 2.84953 114.971 2.8492C114.415 2.82684 113.889 2.78133 113.316 2.77303C115.38 2.54138 115.706 2.95699 117.582 2.83944C119.457 2.72105 120.616 2.49174 122.208 3.0611C121.616 3.14638 120.979 3.26838 120.369 3.36773C117.707 3.14007 116.99 3.35431 114.854 3.57866C114.896 3.33528 114.936 3.09355 114.977 2.85018ZM315.136 111.071C315.418 110.488 316.062 110.237 316.117 110.185C316.116 110.186 316.115 110.187 316.115 110.188C317.781 108.163 317.531 108.201 317.523 108.444C317.433 108.635 317.556 109.015 318.693 106.758C318.454 107.474 318.154 108.163 317.783 108.827C317.007 109.715 316.074 110.48 315.136 111.071ZM273.254 3.09187C273.213 3.0099 273.163 2.92775 273.122 2.84578C275.678 2.86483 276.33 2.54215 278.454 2.83602C276.72 2.92211 274.988 3.00758 273.254 3.09284C273.254 3.09252 273.254 3.09219 273.254 3.09187ZM145.832 3.53227C142.998 3.68875 140.901 3.7577 138.179 3.50932C138.177 3.509 138.175 3.50867 138.173 3.50835C138.016 3.49306 138.775 3.32158 138.57 3.27838C138.008 3.30403 137.428 3.34346 136.861 3.37408C136.784 3.23675 136.711 3.09946 136.634 2.96297C138.231 3.00187 139.83 3.04075 141.433 3.07966C141.196 2.99935 140.954 2.91974 140.717 2.83944C142.078 2.79805 143.434 2.75681 144.794 2.71542C144.321 2.94054 143.849 3.16571 143.382 3.39165C144.198 3.43883 145.016 3.48427 145.832 3.53227ZM315.555 7.23643C315.273 6.82657 316.027 7.36644 315.533 6.76893C315.039 6.15071 313.757 5.47331 314.175 5.45908C315.07 6.02567 315.93 6.7554 316.646 7.57683C314.738 4.3898 310.828 3.71648 310.978 3.21246C314.339 4.33082 316.752 6.2463 318.533 9.20216C318.124 9.18174 315.94 6.82829 316.77 8.68891C316.412 8.17459 315.987 7.67103 315.561 7.24061C315.559 7.23922 315.557 7.23782 315.555 7.23643ZM26.4377 8.74442C24.6862 8.71047 20.6731 8.89258 18.46 8.63261C17.9155 8.56854 16.1017 7.73863 16.1108 7.62924C16.1641 7.26081 18.3794 7.21067 16.0068 6.97058C16.8049 6.96809 17.5794 6.95425 18.3717 6.94763C18.2296 6.70008 18.0885 6.45318 17.9523 6.20646C16.9879 6.24371 16.0221 6.28116 15.0577 6.31924C15.0103 6.23728 14.9632 6.15513 14.9158 6.07316C18.3833 6.07151 16.3364 5.75515 18.1352 5.4604C16.4788 5.3114 14.81 5.16313 13.1594 5.01413C14.1119 5.03234 15.236 5.04583 16.0762 5.06735C16.1886 4.64763 14.184 4.7477 13.8405 4.66991C11.9057 4.23031 21.7563 4.45218 22.5624 3.84134C20.9888 3.77346 19.3376 3.70722 17.7285 3.64018C18.1899 3.56484 18.6576 3.48945 19.1191 3.41411C22.7696 3.83542 26.8632 3.98467 31.1171 4.24708C31.5014 4.22971 31.8865 4.21187 32.2649 4.19533C32.1525 4.0058 32.0462 3.81701 31.9338 3.62748C32.5137 3.60513 33.1008 3.58295 33.6807 3.56059C31.9709 4.18479 34.3386 4.17629 37.1966 4.55712C35.6761 4.77649 33.8004 4.64349 33.9298 5.05222C39.1482 4.73775 45.2596 5.18216 50.3361 4.82713C51.5963 4.73938 51.5922 4.21213 54.5551 4.26075C54.4545 4.31871 54.4374 4.42334 54.3722 4.49951C59.4966 4.24699 62.6056 4.09603 67.9312 4.35352C67.6236 4.16402 67.3211 3.97372 67.0135 3.78421C65.8834 3.8786 64.7513 3.97448 63.627 4.06887C62.8579 3.75593 63.9945 3.61783 60.622 3.62114C57.8586 3.62362 59.5036 3.76179 58.7521 3.85452C57.7345 3.98112 56.8415 3.73208 55.747 3.87356C54.9009 3.98202 55.8163 4.24023 53.6092 4.17482C54.4967 3.84033 55.4022 3.49494 56.2957 3.15632C56.8342 3.23166 57.3685 3.30816 57.907 3.38433C57.3626 3.47375 56.8275 3.56199 56.2831 3.65141C58.2002 3.4908 60.0115 3.33932 61.9936 3.17292C61.3486 3.65643 63.3974 3.47515 64.5099 3.41802C66.2428 3.3287 64.7581 3.66147 65.8942 3.606C67.0302 3.54967 68.2555 3.17791 70.3087 3.25738C69.2083 3.47261 70.7052 3.66562 70.4159 3.86429C70.126 4.06295 67.9542 4.10694 70.0407 4.32374C74.0524 4.15898 69.6992 3.40241 72.4088 3.27984C75.6629 3.13249 76.4374 4.36574 75.4674 4.63085C74.7041 4.83949 72.0775 4.79753 71.3083 5.00534C76.0124 5.38038 76.0532 4.64 76.858 4.49512C79.7809 3.96776 77.8175 5.3753 81.2788 4.86619C81.2137 5.12941 81.161 5.36615 81.0959 5.6186C81.6932 5.57058 82.0896 5.50677 82.8113 5.4687C80.6834 4.95584 82.4251 4.97783 83.3189 4.97703C84.7273 4.97537 82.552 4.72521 82.9248 4.66063C83.9308 4.48782 85.5216 4.56629 84.5455 4.34034C84.9834 4.44549 85.458 4.55094 85.9077 4.65526C87.5531 4.52425 91.4199 3.42564 87.7398 3.6475C88.083 3.23933 89.2734 3.43551 90.2025 3.49761C91.1313 3.55964 91.1139 3.2997 91.9304 3.34771C95.1786 3.5398 93.0538 3.98446 92.539 4.33301C96.8287 4.09293 92.629 3.93408 98.8108 3.77347C99.4084 3.48949 96.5521 3.18647 98.9306 3.02253C99.3688 3.51588 101.12 3.87029 104.534 4.0342C104.865 3.92077 105.196 3.80634 105.527 3.69291C107.391 4.14828 106.438 4.6218 109.888 4.05715C108.036 5.09619 109.309 4.43146 112.398 4.85447C113.025 4.93975 111.576 5.15532 112.452 5.26461C112.849 5.3139 113.812 5.15117 114.782 5.27682C115.255 5.3389 117.468 5.73954 119.001 5.54926C117.877 5.04587 120.789 4.61764 118.291 4.20119C122.907 4.30385 126.137 4.06216 120.965 4.74852C122.137 4.90086 123.31 5.05255 124.481 5.20406C125.298 5.08401 126.122 4.96491 126.944 4.84568C127.068 5.25941 126.943 5.37547 130.16 5.30269C128.764 5.40034 127.375 5.49961 125.973 5.59809C125.925 5.68163 125.73 5.76847 125.777 5.84954C127.494 5.69064 132.328 5.62225 133.5 5.51215C134.671 5.40204 132.409 5.3719 132.746 5.2651C135.556 4.38438 135.333 5.03394 137.35 4.88279C138.533 4.79337 135.707 4.69628 136.341 4.65819C138.688 4.51861 139.777 4.98668 141.859 4.99265C141.119 4.72696 140.386 4.45715 139.664 4.18898C141.848 4.20305 144.282 4.20541 146.311 4.12013C147.108 4.08684 146.506 3.88925 146.636 3.87601C147.281 3.80811 149.908 3.70057 150.186 3.69975C152.28 3.69817 152.34 3.97186 154.374 3.98684C153.575 4.01001 152.825 4.0309 152.044 4.05324C151.689 4.49696 151.327 4.94066 150.972 5.38521C152.965 5.41749 154.96 5.44911 156.96 5.48139C155.498 5.33322 154.032 5.18575 152.57 5.03757C154.854 4.67909 157.138 4.31979 159.422 3.96047C160.612 4.18069 161.796 4.40087 162.985 4.62109C166.215 4.56299 165.565 3.66905 167.097 4.45215C168.05 4.38595 169.002 4.31978 169.954 4.25441C169.818 4.36614 169.683 4.4781 169.547 4.58984C170.695 4.52112 171.843 4.45285 172.991 4.3833C171.784 3.9876 170.601 3.57119 169.405 3.18708C171.664 3.10109 171.708 3.43678 172.045 3.52055C172.938 3.74244 174.712 3.44315 175.422 3.64848C175.662 3.71897 173.448 3.93996 174.211 4.19484C174.36 4.24424 177.324 5.18115 179.215 4.96482C179.18 4.79509 179.034 4.58698 178.957 4.40235C181.5 4.29926 182.797 5.18521 182.46 5.43355C183.815 5.25969 185.795 5.24516 186.073 4.97361C186.766 4.96698 187.453 4.9607 188.145 4.95408C187.424 5.61545 190.311 5.49451 190.501 4.92576C189.311 4.91168 188.121 4.89687 186.931 4.88279C187.831 4.18568 184.216 3.7649 191.737 4.41065C193.175 4.77329 189.181 4.36124 190.352 4.6328C192.388 4.79086 194.298 4.65861 196.233 4.91111C198.641 5.22654 195.679 5.52991 201.288 5.12838C188.915 4.12246 202.985 4.44884 208.796 4.13674C210.393 5.13026 215.301 5.44495 222.058 5.14938C221.354 4.87287 219.228 5.01533 218.003 4.92429C216.778 4.83323 218.104 4.66919 216.578 4.54004C215.052 4.41092 211.81 4.23538 210.265 4.04006C211.574 3.88356 218.033 3.51357 213.762 3.95803C216.95 4.23202 218.447 4.51357 222.399 4.56494C223.582 4.1336 223.495 3.86501 227.346 3.85257C225.068 4.45195 229.445 4.86852 228.481 5.48774C225.75 5.34352 227.277 4.74168 225.697 4.45361C225.535 4.42482 222.99 4.57569 222.399 4.56494C224.967 5.10558 225.855 5.30681 224.275 5.95012C226.092 5.89382 227.222 5.97459 227.387 5.66742C227.766 5.80068 228.147 5.93405 228.519 6.0673C229.11 6.06399 229.643 6.05165 230.269 6.05412C229.406 5.59078 231.079 5.87601 232.268 5.66596C233.458 5.45566 231.862 5.0899 235.128 5.08493C234.04 4.97647 233.044 4.88341 231.991 4.78075C234.097 4.66154 236.21 4.54157 238.316 4.42237C236.837 4.13926 233.631 3.71873 233.719 3.34625C234.689 3.48688 238.012 3.23972 238.376 3.22955C239.785 3.19147 239.017 3.42638 239.124 3.43218C241.336 3.54634 243.158 3.46635 243.998 3.8223C245.661 3.6617 246.915 3.75326 248.678 3.74418C249.648 3.73921 249.46 3.47777 250.027 3.52739C253.802 3.85854 250.206 4.19639 257.488 3.55327C256.606 3.37114 255.737 3.18483 254.855 3.00105C255.678 2.93233 256.495 2.86324 257.318 2.79452C257.868 2.82763 258.413 2.861 258.964 2.89412C258.952 3.28901 258.938 3.68472 258.926 4.07961C259.529 4.10114 260.135 4.12204 260.739 4.14357C259.703 4.18248 258.665 4.22135 257.63 4.26026C257.535 4.32975 257.447 4.39927 257.352 4.46875C258.891 4.57638 260.424 4.68498 261.962 4.79344C261.992 4.65607 262.021 4.51774 262.051 4.38038C265.518 4.57162 265.601 4.68791 268.896 4.30958C271.435 4.31372 273.502 3.73937 274.97 3.49761C275.496 3.57459 276.023 3.65255 276.556 3.72953C276.893 3.61527 277.234 3.50152 277.571 3.38726C278.24 3.54621 278.917 3.70519 279.586 3.86331C279.958 3.50253 280.151 3.38989 277.543 3.26324C278.436 2.81452 283.029 3.01247 284.899 3.16315C286.318 3.2775 284.744 3.65178 284.921 3.6973C285.513 3.85197 287.851 3.71852 288.342 3.74418C290.419 3.85097 291.875 3.83227 293.75 3.91507C294.115 3.93164 295.136 4.16884 295.223 4.17628C295.897 4.21685 297.562 4.33214 297.752 4.33546C307.519 4.51252 297.082 3.48341 306.165 3.59184C305.892 3.45613 305.642 3.32132 305.376 3.18561C306.062 3.17734 306.756 3.16947 307.442 3.1612C307.721 3.19765 307.802 3.24368 307.841 3.28386C307.936 3.38213 307.805 3.37987 309.15 3.38862C309.002 3.54014 308.861 3.69457 308.719 3.85018C309.546 3.82634 310.358 3.8881 311.211 4.06019C311.778 4.52482 313.125 5.28569 314.041 6.2131C314.976 7.12229 315.487 8.06952 315.131 8.1716C314.932 8.15119 312.493 6.52144 313.552 7.66547C314.447 8.49901 314.007 7.7512 314.39 8.08601C315.733 9.37565 316.021 10.2691 316.224 10.815C316.405 11.3841 316.458 11.6971 316.707 12.3954C316.928 12.5773 317.15 12.7869 317.361 13.0032C317.42 13.5919 317.425 14.1836 317.376 14.7711C317.377 14.7725 317.378 14.7738 317.379 14.7751C317.49 14.9158 317.601 15.0623 317.711 15.203C317.713 15.0637 317.715 14.9201 317.717 14.7751C317.723 14.326 317.696 13.8664 317.649 13.473C317.772 13.629 317.925 14.124 317.996 14.7751C318.227 16.8507 318.274 20.3284 317.992 18.3625C317.842 17.3153 317.906 15.3973 317.395 16.6093C317.468 18.414 317.544 20.4615 317.617 22.3608C317.507 22.42 317.397 22.4751 317.287 22.5343C317.358 25.094 317.798 22.766 318.034 22.7707C318.041 23.3563 318.047 23.9479 318.053 24.5334C317.947 24.7816 317.835 25.0175 317.731 25.2776C317.901 25.3014 318.296 25.6293 318.149 27.3745C318.054 28.4966 317.626 26.7295 317.685 28.8691C317.95 28.7092 318.273 27.9363 318.358 30.3196C318.081 30.5563 317.828 30.8835 317.538 31.0669C317.803 34.0308 317.376 35.3796 317.685 38.8586C317.881 41.0656 318.574 44.089 317.505 45.515C317.477 47.1294 317.743 46.6171 317.803 47.0948C318.086 49.3493 317.58 51.0261 317.55 51.4463C317.359 54.1256 317.534 55.3269 317.295 57.51C317.493 57.3916 317.68 57.3271 317.873 57.2325C317.577 55.2324 317.591 54.2195 317.654 51.4147C317.694 52.3553 317.735 53.2963 317.774 54.2369C317.935 54.0831 318.096 53.9307 318.255 53.7828C317.623 45.1081 318.622 47.1317 318.841 54.404C318.544 55.0311 318.247 55.6811 317.949 56.3023C318.4 60.5033 318.009 62.4803 317.915 67.2314C317.904 67.7962 318.076 69.8535 318.084 70.7378C318.085 70.7231 318.086 70.7083 318.087 70.6936C318.368 71.2438 318.497 70.4987 318.748 70.4098C318.78 70.889 318.811 71.3685 318.842 71.8477C318.651 72.9179 318.494 72.5417 318.54 74.6478C318.73 74.3638 318.92 74.0836 319.111 73.7996C319.117 76.1073 318.911 77.6175 319 79.7655C318.928 79.4045 318.856 79.0481 318.784 78.6871C318.6 83.3617 317.48 79.6415 318.038 83.1742C317.94 83.3989 317.841 83.6179 317.744 83.8426C317.72 82.3873 317.696 80.9312 317.672 79.4817C317.534 79.4521 317.397 79.4202 317.258 79.3966C317.3 80.9528 317.342 82.5166 317.384 84.0728C317.291 82.9367 317.198 81.794 317.106 80.6579C317.039 82.4624 316.973 84.2675 316.907 86.072C317.415 84.1556 317.477 86.64 317.981 86.1729C317.562 89.3682 317.009 91.8781 317.363 96.8308C317.433 97.8127 317.785 97.2793 317.357 100.066C317.746 99.5966 317.992 101.145 318.285 101.978C318.412 102.36 318.53 102.612 318.7 102.473C318.704 102.31 318.704 102.145 318.7 101.978C318.68 101.152 318.665 100.311 318.638 99.5174C318.454 100.588 317.946 100.766 317.795 99.139C317.603 97.0621 317.955 94.0329 317.391 94.1569C317.418 93.3288 317.433 92.5585 317.456 91.7541C317.595 92.0853 317.736 92.4095 317.876 92.7348C317.657 90.4458 317.728 89.0075 318.081 87.9072C318.162 90.6345 318.242 93.3561 318.322 96.0835C318.346 95.6817 318.37 95.2745 318.394 94.8727C318.754 96.9378 319.095 94.8076 319.172 98.6597C319.007 98.636 318.842 98.6171 318.677 98.5935C318.928 99.393 319.035 100.985 319.175 101.978C319.274 102.824 319.328 103.322 319.598 102.722C319.331 104.072 319.142 104.289 319.22 105.109C317.8 108.536 315.627 109.549 316.002 108.339C315.353 109.323 314.525 110.209 313.564 110.935C314.237 110.692 314.9 110.374 315.536 109.983C313.951 111.5 311.891 112.535 309.735 112.892C309.596 112.678 310.61 112.475 311.441 112.137C312.278 111.809 312.929 111.42 312.292 111.504C312.047 111.543 311.065 112.109 310.758 112.131C309.19 112.255 309.631 112.093 310.301 111.929C310.977 111.752 311.862 111.382 311.38 111.36C308.389 112.165 309.117 111.452 307.841 111.557C307.274 111.553 306.321 111.611 304.524 111.776C304.364 111.64 304.193 111.501 304.045 111.366C301.946 111.358 302.116 111.665 300.311 111.723C299.181 111.759 297.763 111.22 296.515 111.587C296.292 111.655 298.392 112.313 293.98 112.284C290.555 112.261 291.981 111.796 290.13 111.631C288.277 111.467 284.041 112.112 282.792 111.381C283.762 111.477 284.998 111.53 286.075 111.609C286.512 111.467 286.939 111.326 287.371 111.184C284.909 111.368 282.364 111.151 280.708 111.491C277.424 110.972 273.751 111.453 274.745 112.04C275.826 111.955 274.65 111.7 276.151 111.862C276.305 111.999 276.467 112.135 276.621 112.272C274.065 112.255 272.29 112.259 273.455 111.842C273.059 111.832 272.666 111.823 272.27 111.813C272.199 112.114 272.136 112.416 272.065 112.718C271.591 112.752 271.116 112.785 270.643 112.819C270.116 112.753 269.589 112.686 269.057 112.619C269.772 112.142 270.992 112.127 266.956 111.86C266.945 112.025 266.927 112.189 266.915 112.354C263.537 112.144 263.448 111.745 259.206 111.76C262.46 111.188 264.241 112.202 264.229 111.054C265.046 111.13 265.869 111.206 266.685 111.281C266.81 111.115 266.933 110.948 267.051 110.782C262.667 110.87 255.384 111.964 252.448 111.238C252.093 111.327 251.737 111.404 251.376 111.499C248.501 111.061 247.259 112.044 244.341 111.478C244.041 111.419 244.67 110.495 240.873 110.528C240.968 110.648 241.017 110.85 241.094 111.002C240.271 110.928 239.454 110.851 238.637 110.776C238.489 110.886 238.334 110.997 238.186 111.109C239.589 111.152 240.987 111.196 242.39 111.239C241.224 111.277 240.052 111.315 238.886 111.353C240.407 111.534 241.092 111.536 240.176 111.827C238.856 111.844 237.535 111.863 236.216 111.88C236.08 111.954 235.945 112.03 235.809 112.104C236.448 112.326 237.093 112.543 237.732 112.768C234.294 112.587 231.306 112.577 228.667 112.141C228.217 112.067 229.807 111.778 226.743 112.039C226.696 111.886 226.614 111.761 226.56 111.62C222.809 112.049 221.576 111.921 217.665 111.611C220.198 111.9 217.938 111.712 217.293 111.867C216.851 111.973 218.576 111.958 218.381 112.069C218.186 112.18 215.944 112.628 217.861 112.682C222.559 111.764 223.839 112.862 229.874 112.421C228.945 112.539 228.01 112.658 227.081 112.776C227.518 112.856 227.91 112.929 228.383 113.014C225.017 112.835 226.654 112.951 225.271 113.093C223.886 113.234 221.37 113.355 219.683 113.394C219.152 113.406 219.712 113.2 218.513 113.181C217.697 113.167 215.465 113.473 214.95 113.113C214.613 112.879 218.198 112.233 213.241 112.235C212.308 112.005 214.685 112.077 214.736 112.049C215.168 111.776 212.12 111.57 210.712 111.779C210.598 111.797 211.71 112.01 210.501 112.093C207.631 112.293 205.974 112.049 204.116 111.718C203.914 112.106 201.499 112.569 198.493 112.425C198.34 112.536 198.193 112.648 198.039 112.76C198.506 112.701 198.973 112.643 199.439 112.585C199.948 112.654 200.487 112.705 200.984 112.787C197.961 112.882 197.534 113.416 196.084 113.611C191.124 114.279 194.13 112.867 195.025 112.624C195.67 112.722 196.293 112.832 196.933 112.936C196.862 112.801 196.789 112.665 196.724 112.529C189.299 112.533 195.594 111.653 191.824 111.402C190.854 112.066 188.086 112.13 184.559 111.709C184.169 111.712 183.777 111.713 183.386 111.717C183.321 111.814 183.322 111.962 183.216 112.026C178.967 112.138 178.21 111.116 177.808 111.019C176.021 110.589 174.63 111.184 174.103 111.189C171.884 111.209 171.239 110.945 169.127 111.059C166.856 111.181 168.409 111.384 167.718 111.565C167.163 111.709 165.371 111.735 164.631 111.884C164.925 111.762 165.252 111.642 165.545 111.52C163.191 111.353 161.266 111.191 158.592 111.151C155.575 112.044 153.007 110.537 154.049 111.759C156.581 111.843 157.997 111.982 159.352 112.293C157.69 112.333 156.026 112.371 154.364 112.411C153.879 112.277 153.534 112.146 152.961 112.01C151.718 112.295 148.838 112.172 147.707 112.256C142.411 112.648 144.05 113.133 139.216 112.317C142.7 112.237 142.694 111.841 146.15 111.896C145.404 111.612 143.648 111.671 144.784 111.332C141.441 111.415 142.522 111.718 141.221 111.987C140.099 112.219 137.839 112.232 137.967 112.534C137.736 112.368 137.557 112.208 137.327 112.042C135.162 112.044 132.996 112.044 130.831 112.046C131.754 111.873 132.677 111.699 133.6 111.527C132.902 111.462 132.204 111.397 131.506 111.331C126.181 111.869 116.997 110.883 118.464 112.235C115.896 112.278 115.575 112.108 114.179 111.853C114.025 111.955 113.876 112.041 113.722 112.155C112.065 112.047 110.794 112.433 109.332 112.333C107.871 112.233 107.508 111.869 107.295 112.481C106.349 112.306 105.408 112.16 104.467 111.997C103.899 112.136 103.332 112.273 102.771 112.411C101.883 112.338 100.994 112.266 100.106 112.193C99.6317 112.485 96.1421 112.359 94.6037 112.555C93.1433 112.24 93.1834 111.249 89.7477 111.427C89.8364 111.673 89.9238 111.918 90.0126 112.164C89.2257 112.112 88.4372 112.061 87.6445 112.01C87.5972 111.93 87.5562 111.849 87.5089 111.769C87.9112 111.794 88.308 111.819 88.7103 111.844C88.3612 111.709 88.0192 111.573 87.676 111.438C86.475 111.639 85.2725 111.84 84.0656 112.041C85.6924 112.193 87.3199 112.346 88.9468 112.498C86.9053 112.679 85.4844 112.499 83.7092 112.7C82.1651 112.36 82.7353 112.165 83.3624 111.797C82.7887 111.828 82.2081 111.858 81.6344 111.89C82.0129 111.521 81.0424 111.302 84.3967 111.332C84.166 111.227 83.9308 111.126 83.7061 111.017C83.1559 111.034 82.7991 110.945 82.1957 110.986C80.5507 111.096 79.2895 111.743 79.4019 111.97C79.4626 112.089 81.0846 111.862 81.0195 112.03C80.859 112.44 77.1383 112.256 82.5047 112.667C80.7237 112.928 80.3258 112.731 78.3614 112.656C78.5151 112.792 78.6644 112.928 78.8123 113.065C77.9014 113.002 76.9893 112.939 76.0784 112.876C77.3446 112.175 70.6285 111.911 76.6744 111.298C74.8877 111.267 73.1072 111.235 71.3265 111.202C71.6933 111.13 72.0602 111.059 72.427 110.986C73.2316 111.025 74.0314 111.062 74.836 111.099C73.8896 110.968 72.9414 110.837 71.995 110.705C69.7584 110.868 68.8816 111.119 67.8579 111.429C70.4608 111.655 69.6104 111.346 71.6387 111.285C71.5678 111.481 71.6614 111.661 71.4841 111.867C70.4361 111.461 67.0173 111.757 66.2245 111.776C63.8118 111.837 65.7038 111.438 64.0898 111.429C62.4744 111.421 60.5691 111.659 59.2496 111.263C59.2732 111.485 59.3788 111.714 59.4735 111.916C56.9586 111.989 57.4603 111.727 57.2 111.693C53.0461 111.135 50.7922 111.606 46.0407 111.663C46.6441 111.732 47.2539 111.794 47.8632 111.859C44.2786 112.329 46.6934 112.185 49.8056 112.341C46.8884 112.294 45.2178 112.695 43.1586 112.814C41.0997 112.933 37.5687 112.727 36.2783 112.566C39.231 112.308 42.4157 112.479 45.6938 112.407C45.3211 112.181 44.9589 111.99 44.5744 111.742C42.5806 112.216 41.4252 111.899 40.7685 111.836C38.8399 111.652 38.9005 112.059 37.735 111.621C37.7824 111.771 37.817 111.898 37.8643 112.039C33.8822 111.976 29.5869 111.709 26.9951 112.266C26.7585 111.904 26.5799 111.555 26.3077 111.186C24.6215 111.459 23.1776 111.18 21.7576 111.243C20.3434 111.307 20.8818 111.599 19.2192 111.712C18.9115 111.733 18.2707 111.55 17.5133 111.685C16.7485 111.82 13.928 112.829 13.5907 111.948C13.4462 111.947 13.3025 111.947 13.1594 111.946C11.8934 111.936 10.6876 111.679 9.53447 111.213C10.7033 111.624 11.9414 111.808 13.1594 111.761C13.2717 111.757 13.3839 111.753 13.4961 111.749C13.3838 111.728 13.2716 111.708 13.1594 111.687C12.1413 111.494 11.192 111.145 10.3425 110.666C10.1552 110.806 9.95979 110.943 9.76474 111.071C6.83963 110.138 5.25942 108.145 4.07806 105.386C3.92053 104.895 3.84977 106.225 3.36072 103.934C3.25591 103.257 3.27838 102.617 3.37015 101.978C3.59347 100.402 3.88875 98.7103 3.6968 95.8943C3.68272 95.6931 3.14454 94.514 3.51712 93.0879C3.60156 92.7634 3.72651 94.1292 3.83741 93.3843C3.94836 92.6388 4.03959 89.3121 4.3037 89.0518C4.21017 89.0873 4.11326 89.2949 4.01807 89.3955C3.97337 88.8276 3.92864 88.2539 3.88478 87.6801C4.04951 87.6269 4.21449 87.5694 4.3784 87.5162C3.99508 84.25 3.36979 82.562 3.57668 77.7222C3.33743 79.083 3.09722 80.4444 2.85797 81.7993C3.02604 82.1721 3.19524 82.5456 3.36332 82.9124C3.29627 85.1428 3.22969 87.3795 3.16264 89.6099C3.3539 89.9768 3.5446 90.3372 3.73586 90.7041C3.71102 91.2956 3.68696 91.8815 3.66213 92.473C3.52387 92.3251 3.38634 92.176 3.24809 92.0221C3.28203 93.1934 3.31668 94.3663 3.35062 95.5317C2.53452 93.159 3.42004 88.9058 2.73737 89.2126C2.84329 88.6863 2.94995 88.1592 3.05669 87.6328C2.72568 87.402 2.82094 86.3316 2.87311 84.4449C2.71 84.8769 2.54912 85.3539 2.38436 85.7503C2.6145 83.916 2.59215 80.6621 2.68073 78.7628C2.71964 77.9286 2.95963 78.7618 2.98785 78.5137C3.13522 77.2414 2.71646 74.8098 2.74958 74.3009C2.94666 71.2596 3.74057 69.2833 3.21733 65.9638C3.08817 69.3899 3.14272 67.526 2.85211 68.7449C2.761 69.1265 2.57093 73.5526 2.65534 68.0102C2.66591 67.3604 3.21444 57.3038 3.63479 60.6096C3.50066 58.9823 3.34557 57.7083 3.20317 56.2171C4.31095 52.5721 3.27027 53.8336 2.69733 54.8928C2.69485 54.2951 2.68903 53.7266 2.68903 53.1112C3.29095 54.4189 3.32832 47.7565 3.02447 45.4961C2.92346 44.7388 2.73079 46.8565 2.63972 45.1051C2.68193 44.2711 2.73658 43.325 2.78376 42.4438C2.40293 43.7218 2.25617 41.2136 1.86876 41.2487C2.21398 39.6453 2.94571 38.4188 3.34232 39.3C3.18173 37.9748 3.02134 36.6427 2.85992 35.3175C2.76803 35.9328 2.67693 36.5562 2.58504 37.1716C2.82845 32.8401 2.27456 27.2708 3.08843 26.3654C3.08263 25.7915 3.07762 25.2114 3.07183 24.6375C2.93439 24.4599 2.79669 24.2884 2.65925 24.1109C2.77845 21.5138 2.89844 18.9226 3.01763 16.3255C3.10292 18.638 3.29855 19.1884 3.1397 21.6135C3.29776 20.679 3.4567 19.7271 3.61477 18.8103C3.40736 17.0308 3.23459 16.0004 3.12664 14.7751C3.05195 13.5115 3.05336 11.8191 4.58693 9.38817C4.65229 9.28252 5.33679 8.38568 6.18207 7.70201C7.0143 6.99959 7.96424 6.52912 8.03078 6.50981C8.64736 6.32109 7.96367 7.00867 8.24194 6.93232C8.61205 6.81853 9.85683 6.35712 11.0197 6.27265C12.1831 6.1593 13.1992 6.35658 13.1583 6.39541C12.8121 6.76822 10.8757 6.97761 9.02143 8.38537C7.13228 9.7273 5.71768 12.3769 5.82897 14.7751C5.86562 17.4849 5.87804 19.85 5.89395 21.1657C6.22245 48.337 6.09883 75.1561 5.96759 101.978C5.84287 105.803 9.2879 109.317 13.1594 109.245C26.6709 109.304 40.2008 109.343 53.7945 109.305C54.266 109.303 54.0602 109.148 54.2612 109.142C55.5095 109.103 56.7354 109.344 57.1968 109.354C58.1829 109.374 57.6399 109.152 58.3604 109.152C65.8042 109.154 72.8287 109.285 80.2785 109.247C80.7637 109.244 80.2683 109.422 81.1204 109.391C81.5602 109.374 82.9372 109.101 83.93 109.096C87.3974 109.082 90.31 109.17 93.9667 109.166C95.9668 109.163 98.9672 109.187 101.203 109.182C102.191 109.181 103.22 109.056 104.196 109.052C105.58 109.046 105.298 109.299 105.511 109.315C106.446 109.383 106.575 109.105 107.463 109.112C109.113 109.125 109.202 109.311 111.297 109.295C112.794 109.284 116.22 109.137 118.108 109.094C122.522 109.309 128.085 109.224 132.203 109.153C134.641 109.11 134.867 109.37 135.861 109.369C139.363 109.364 142.021 109.033 145.311 109.022C149.677 109.008 153.546 109.227 157.776 109.243C158.462 109.245 158.304 109.007 158.977 109.001C161.468 108.979 164.654 108.936 166.873 108.97C169.346 109.007 170.258 109.352 172.678 109.282C173.387 109.261 173.595 108.958 174.784 108.919C176.683 108.858 178.766 109.125 180.091 109.155C181.908 109.195 180.328 108.886 182.778 108.928C182.878 108.929 183.245 109.15 183.771 109.139C185.304 109.11 185.151 108.936 187.394 108.952C187.609 108.955 190.583 109.165 190.878 109.166C192.618 109.169 196.12 109.243 197.15 109.198C200.831 109.039 197.933 108.707 201.063 109.427C202.442 109.251 203.809 109.072 205.27 108.901C204.295 109.061 208.252 109.292 208.53 109.277C210.831 109.157 209.46 108.876 212.377 108.923C208.525 109.57 216.14 109.006 217.838 108.99C226.016 108.909 233.449 109.071 241.667 109.067C244.419 109.065 248.106 108.928 251.017 108.931C251.695 108.932 251.183 109.085 251.78 109.088C252.376 109.09 251.715 108.918 252.395 108.928C256.625 108.987 259.94 109.312 263.816 108.906C264.004 108.965 263.999 109.011 264.311 109.075C267.483 108.712 273.591 109.201 275.886 109.268C279.477 109.372 280.395 109.126 283.003 109.176C286.453 109.242 291.632 109.722 289.319 108.93C291.686 108.905 293.964 108.898 296.354 108.972C296.62 108.98 296.437 109.182 296.543 109.186C297.218 109.215 297.437 109.034 297.893 109.026C299.128 109.004 297.112 109.22 298.874 109.159C299.802 109.127 300.33 108.97 302.91 108.967C304.54 108.965 306.184 108.964 307.841 108.963C311.486 109.067 314.922 105.76 314.839 101.978C314.854 92.7083 314.879 83.3236 314.894 74.2442C314.896 73.1495 314.701 73.8701 314.714 72.4973C314.757 67.7281 315.084 59.1913 315.04 55.0788C314.995 50.9666 314.71 51.8944 314.591 49.321C314.568 48.824 314.73 49.2315 314.733 48.7818C314.748 45.7581 315.001 42.1533 315.039 39.7036C315.064 38.0837 314.809 38.2134 314.791 37.0896C314.764 35.415 315.022 33.6916 315.03 32.798C315.067 28.5975 314.859 25.7096 314.965 21.7869C314.909 21.9404 314.857 22.0418 314.801 22.1716C314.806 19.705 314.811 17.2401 314.816 14.7751C314.824 13.2441 314.32 11.7447 313.392 10.5302C313.445 10.6831 313.488 10.8325 313.528 10.986C312.466 9.45008 311.705 8.97366 311.45 8.7884C311.164 8.62555 311.267 8.86364 311.09 9.44293C310.857 9.3489 310.605 9.27013 310.38 9.2092C310.643 8.87128 309.761 7.87586 307.841 7.63512C306.914 7.55787 305.881 7.49804 304.787 7.45786C304.479 7.44627 302.414 8.03634 302.639 7.33921C302.101 7.50976 301.78 7.62733 301.324 7.77718C300.437 7.56612 299.538 7.35756 298.65 7.14733C298.171 7.17878 297.685 7.20913 297.206 7.24058C297.135 7.3772 297.19 7.51904 297.036 7.65316C294.811 7.67386 290.249 7.50497 288.491 7.52231C284.124 7.56619 279.678 7.93554 276.281 7.53647C274.627 7.57716 276.27 7.84528 273.809 7.81136C273.531 7.67561 273.27 7.5455 272.98 7.40562C270.969 8.01214 270.549 7.64318 267.793 7.51645C265.929 7.43035 264.709 7.57859 262.934 7.54965C262.484 7.5422 262.548 7.36418 262.24 7.36997C261.209 7.38833 258.269 7.63336 257.542 7.63998C250.95 7.70454 245.288 7.67706 239.01 7.61166C238.335 7.60504 239.21 7.78072 238.512 7.77327C237.389 7.76158 238.049 7.49161 237.399 7.47837C235.584 7.44294 235.57 7.72761 233.038 7.74251C224.701 7.79133 215.115 7.57748 206.406 7.55844C206.133 7.55844 206.15 7.72523 205.854 7.72689C203.925 7.73504 201.973 7.50958 200.222 7.51206C197.317 7.51537 195.133 7.74969 192.263 7.74886C186.654 7.74803 181.642 7.62805 175.873 7.62143C171.151 7.61563 167.05 7.63788 161.872 7.63705C139.257 7.63374 116.179 8.16317 93.4093 7.88167C92.8299 7.87422 93.0657 7.72685 92.889 7.73324C91.2086 7.79699 91.0587 7.99582 90.461 7.57944C88.3203 7.6615 87.6447 7.97432 85.0595 7.95198C83.6816 7.94026 84.7104 7.4554 82.3793 7.70541C80.2744 7.93141 82.5972 8.19713 76.3377 7.92561C76.172 7.91815 75.3563 7.62261 74.0547 7.69955C72.747 7.77572 74.2608 7.98734 71.1128 8.05109C63.7224 8.2001 54.368 7.94464 45.7765 8.02326C45.238 8.02823 40.0523 8.18623 39.0286 8.25909C37.0476 8.40066 37.4614 8.62028 34.8884 8.67411C32.9002 8.7155 31.2598 8.46672 28.9225 8.5164C28.6502 8.52244 28.1942 8.77834 26.4377 8.74442ZM272.276 112.98C271.791 113.231 270.915 114.155 267.981 113.874C267.703 113.847 269.204 113.212 267.584 113.11C269.17 113.043 270.714 113.022 272.276 112.979C272.276 112.979 272.276 112.979 272.276 112.98ZM13.7207 2.85164C15.916 2.89801 18.1188 2.94394 20.3141 2.99031C18.7993 3.10208 17.2823 3.21363 15.7735 3.32623C15.0872 3.16812 14.407 3.00975 13.7207 2.85164ZM286.999 3.29059C286.997 3.29059 286.995 3.29059 286.993 3.29059C289.301 3.17136 291.61 3.05192 293.917 2.93269C293.675 3.02045 293.432 3.10859 293.189 3.19635C291.367 3.33459 289.544 3.47264 287.728 3.61088C287.485 3.5041 287.242 3.39736 286.999 3.29059ZM268.767 4.21974C267.294 4.11542 267.654 3.93948 266.844 3.7681C266.844 3.76843 266.844 3.76875 266.844 3.76908C266.63 3.72446 265.633 3.68542 265.248 3.67875C265.39 3.78887 265.574 3.89757 265.727 4.00686C262.289 4.27346 255.566 3.32609 264.271 2.94441C264.14 3.08347 264.016 3.22183 263.886 3.36089C268.211 3.32199 273.033 3.62363 268.767 4.21974ZM237.496 113.38C233.803 113.835 232.619 113.931 228.14 113.619C228.773 113.49 229.406 113.361 230.038 113.232C230.778 113.364 231.512 113.494 232.252 113.626C232.254 113.626 232.256 113.626 232.258 113.626C232.406 113.488 232.555 113.349 232.697 113.211C234.294 113.267 235.898 113.324 237.496 113.38ZM127.426 3.89065C126.397 2.98119 126.694 3.50983 129.634 3.30475C130.651 3.23354 129.66 3.07442 130.293 3.04792C133.712 2.90321 133.985 3.51254 133.222 3.82962C131.287 3.85115 129.332 3.87078 127.433 3.89065C127.431 3.89065 127.428 3.89065 127.426 3.89065ZM38.7164 4.07961C38.7144 4.07961 38.7121 4.07961 38.7101 4.07961C38.6213 3.85778 39.9998 3.79811 38.4452 3.58793C39.6279 3.58876 40.8104 3.59052 41.9989 3.59135C41.6503 3.61202 41.2943 3.63172 40.9457 3.65238C41.2534 3.72855 41.5619 3.80569 41.8697 3.88186C42.2897 3.62688 42.6801 3.7751 43.9224 3.86038C43.5792 3.588 43.2376 3.31542 42.8944 3.04304C44.3379 3.12416 45.7867 3.20556 47.2302 3.28668C47.2479 3.35532 47.266 3.42408 47.2837 3.49272C47.828 3.405 48.3666 3.31631 48.9108 3.22858C49.0587 3.31053 49.2012 3.39173 49.3491 3.47368C50.0057 3.41161 50.6633 3.34958 51.3199 3.28668C51.5197 3.48519 50.0726 3.57098 52.6379 3.52055C51.851 3.7242 51.0659 3.92723 50.273 4.13088C46.421 4.11432 42.5685 4.097 38.7164 4.07961ZM154.169 3.61088C149.927 3.64897 151.121 3.5051 152.104 3.05476C152.79 3.24016 153.483 3.42548 154.169 3.61088ZM318.604 63.9709C318.911 65.2017 319.215 66.4377 319.512 67.6981C319.683 70.207 319.123 72.7168 318.904 70.8292C318.641 68.557 318.935 66.1839 318.604 63.9709ZM304.414 112.878C307.483 113.021 304.595 113.386 303.903 113.599C303.054 113.257 301.87 113.287 299.968 113.247C301.754 113.225 303.906 112.854 304.414 112.878C304.414 112.878 304.414 112.878 304.414 112.878ZM318.947 14.5495C318.913 13.1793 318.539 11.8647 318.186 10.6949C318.652 10.9127 318.996 13.4357 318.973 11.577C319.232 12.4513 319.385 13.3604 319.432 14.2627C319.222 13.7018 319.129 14.475 318.948 14.546C318.948 14.5472 318.947 14.5483 318.947 14.5495ZM195.275 3.26471C197.689 3.61244 198.146 3.46365 200.578 3.22272C200.921 3.50584 198.021 3.98009 196.205 4.08449C195.897 3.81129 195.588 3.53791 195.275 3.26471ZM1.79406 72.513C2.15494 73.0928 2.202 77.3694 2.09531 79.4943C2.04179 79.2413 1.98755 78.9874 1.93321 78.7344C1.88685 76.6633 1.84042 74.5841 1.79406 72.513ZM299.063 113.223C299.381 113.233 299.683 113.241 299.968 113.247C299.651 113.251 299.345 113.245 299.063 113.223ZM170.524 111.656C171.536 111.316 168.529 111.202 172.18 111.335C172.18 111.335 172.18 111.334 172.18 111.334C174.594 111.422 175.127 111.445 177.364 111.472C176.558 111.909 172.021 112.065 178.275 112.155C178.357 112.156 178.193 111.896 179.192 111.931C179.501 111.942 180.488 112.156 181.989 112.218C182.475 112.238 186.121 112.304 181.151 112.308C181.299 112.612 181.032 112.921 181.043 113.216C179.103 113.302 177.612 112.706 175.56 112.72C172.512 112.743 170.962 113.347 170.376 112.555C172.938 112.361 177.338 112.356 177.912 112.832C180.391 112.838 181.103 112.448 179.104 112.255C170.542 112.5 176.754 111.676 169.257 111.987C169.168 112.097 168.859 112.216 168.907 112.319C166.618 111.932 170.163 111.778 170.524 111.656ZM188.428 112.498C186.949 112.731 185.475 112.965 184.001 113.199C184.001 112.82 184.814 112.479 187.145 112.266C187.571 112.343 188.003 112.421 188.428 112.498ZM63.9889 112.598C63.7759 112.804 63.208 112.993 62.7938 113.189C62.3441 113.015 51.6928 112.848 57.1117 112.678C57.8987 112.653 62.6989 113.018 63.9889 112.598ZM178.512 3.57524C179.766 3.71351 181.016 3.85199 182.264 3.99026C180.342 4.07796 178.419 4.16797 176.497 4.25733C177.171 4.03002 177.839 3.80255 178.512 3.57524ZM318.242 84.3913C318.25 83.8615 318.533 85.6213 318.489 83.5336C318.67 85.0899 318.824 86.5472 318.994 88.068C318.86 88.5236 318.726 88.984 318.592 89.4396C318.678 89.7947 318.764 90.1567 318.85 90.5117C318.655 90.2987 318.464 90.1091 318.265 89.8842C318.684 87.3221 318.209 86.7345 318.242 84.3913ZM315.473 8.88992C315.542 8.20643 317.927 11.2293 315.802 8.11065C316.448 8.48775 317.429 9.34018 318.183 11.5443C318.192 11.9303 318.18 12.3111 318.146 12.6863C318.424 12.6788 318.704 13.2259 318.947 14.5495C318.947 14.5507 318.946 14.5519 318.946 14.553C318.948 14.6285 318.949 14.7026 318.949 14.7751C318.965 17.8152 318.864 17.6452 318.404 18.4098C318.554 16.4707 318.482 15.5926 318.346 14.7751C318.234 14.1126 318.063 13.5007 317.732 12.5117C317.253 10.9456 316.186 9.08083 315.473 8.88992ZM75.3374 112.593C72.9064 112.951 75.088 113.286 70.7747 112.905C71.0528 112.814 71.3322 112.723 71.6103 112.632C72.8526 112.618 74.095 112.605 75.3374 112.593ZM304.982 3.68217C305.242 4.29681 307.26 4.7841 307.841 3.97056C307.884 3.91404 307.921 3.8515 307.95 3.78231C307.913 3.77864 307.876 3.77536 307.841 3.77244C305.741 3.58213 306.771 4.16241 304.982 3.68217ZM305.461 111.849C306.573 111.857 307.342 111.913 307.841 111.998C309.003 112.158 308.773 112.526 307.841 112.821C307.645 112.883 307.419 112.942 307.176 112.993C306.904 112.858 306.632 112.723 306.366 112.588C305.614 112.65 304.863 112.711 304.111 112.772C304.561 112.464 305.011 112.156 305.461 111.849ZM229.358 4.4043C232.636 3.93486 225.819 4.14322 228.109 3.85013C229.938 3.61585 232.347 4.08886 231.436 4.38526C230.803 4.39354 230.098 4.39933 229.364 4.4043C229.362 4.4043 229.36 4.4043 229.358 4.4043ZM248.328 4.27003C247.79 3.76846 248.565 3.91466 245.976 4.00491C245.236 4.03057 239.358 3.8422 241.826 4.25782C243.926 4.25782 246.145 4.26506 248.328 4.27003ZM255.876 112.583C255.837 112.365 260.362 111.885 260.943 112.005C260.943 112.005 260.943 112.004 260.943 112.004C262.511 112.331 257.737 112.378 259.808 112.826C255.222 112.431 253.851 113.386 254.17 112.128C256.871 112.073 255.592 112.332 255.876 112.583ZM2.82233 16.3602C2.82233 16.3581 2.82233 16.356 2.82233 16.3539C2.81206 16.6578 2.49149 19.1621 2.38046 18.8576C2.4591 16.3698 2.61677 16.3034 2.47378 14.7751C2.44421 14.43 2.41435 14.0157 2.4162 13.4844C2.54697 13.3321 2.6735 13.2099 2.81279 13.0556C2.74565 13.7076 2.77057 14.1996 2.80337 14.7751C2.83106 15.2105 2.84452 15.6998 2.82233 16.3602ZM52.4733 112.157C53.5798 112.1 55.5991 112.337 56.8594 112.323C52.8476 113.232 48.0535 112.384 52.4733 112.157ZM80.2067 4.04836C80.2098 4.04804 80.213 4.04771 80.2162 4.04738C80.2153 4.04788 80.2139 4.04835 80.213 4.04885C80.2109 4.04869 80.2088 4.04852 80.2067 4.04836ZM138.219 112.703C138.077 112.644 137.996 112.592 137.967 112.547C137.967 112.543 137.967 112.539 137.967 112.535C138.044 112.59 138.126 112.646 138.219 112.703ZM246.47 112.649C244.585 112.344 250.865 111.86 252.896 111.976C252.754 112.115 252.732 112.241 252.401 112.4C250.762 112.04 246.783 112.7 246.47 112.649ZM318.399 35.8693C318.391 40.8339 317.188 34.3729 318.148 34.1066C318.167 34.1166 318.398 35.7411 318.399 35.8693ZM285.62 112.523C286.885 112.159 284.343 112.062 288.408 112.125C288.644 112.219 288.881 112.314 289.117 112.408C287.952 112.446 286.786 112.485 285.62 112.523ZM316.82 68.3918C317.023 74.6401 317.381 80.616 318.385 76.546C318.353 76.0732 318.322 75.5937 318.29 75.1208C317.8 75.0498 318.067 73.3047 318.083 70.7504C317.889 70.3863 317.844 68.9697 317.678 68.7039C317.359 68.1899 317.134 69.8176 316.82 68.3918ZM113.369 4.99802C113.47 4.9144 113.568 4.83034 113.669 4.74754C114.657 4.65316 115.648 4.55923 116.636 4.46484C116.476 4.62532 116.316 4.78579 116.157 4.94627C115.228 4.96364 114.304 4.98113 113.376 4.99851C113.374 4.99835 113.371 4.99818 113.369 4.99802ZM194.517 111.464C193.95 112.385 195.933 112.215 199.956 111.75C198.146 111.655 196.328 111.56 194.517 111.464ZM276.761 5.42232C276.63 5.16083 276.502 4.90015 276.366 4.63866C274.23 4.91106 274.627 5.21051 275.651 5.55659C276.023 5.51192 276.388 5.46698 276.761 5.42232ZM245.991 5.53364C246.877 5.58819 246.425 5.37707 246.518 5.3813C248.761 5.49225 249.076 5.58909 251.828 5.43013C252.165 5.37467 252.497 5.31635 252.834 5.25924C251.562 4.71132 250.638 5.00995 247.946 4.68798C248.432 4.87592 248.915 5.06412 249.4 5.25289C247.903 5.21316 246.413 5.17398 244.916 5.13424C244.739 5.1922 244.561 5.24962 244.383 5.30758C244.915 5.38207 245.465 5.46578 245.991 5.53364ZM101.942 4.76024C100.486 4.73871 99.0241 4.71634 97.5684 4.69481C97.5152 4.82976 97.464 4.96561 97.4108 5.10055C98.9193 4.98715 100.433 4.87364 101.942 4.76024ZM164.631 111.884C164.515 111.932 164.403 111.98 164.303 112.029C164.313 111.969 164.439 111.923 164.631 111.884ZM3.80364 12.6275C4.20204 11.0971 5.26644 9.02365 6.57499 7.86524C6.41567 7.78653 5.50572 8.53368 4.76988 9.66908C4.00923 10.7893 3.53476 12.2699 3.31316 13.0486C3.33408 13.3173 3.62441 13.2695 3.80364 12.6275ZM311.287 111.263C311.613 110.962 311.909 110.645 312.171 110.318C313.013 109.901 313.797 109.354 314.486 108.698C314.408 108.58 314.329 108.462 314.25 108.346C312.859 109.807 312.019 110.013 311.525 110.13C311.006 110.215 310.692 110.152 309.75 110.184C310.209 110.583 310.72 110.947 311.287 111.263ZM55.6272 5.63715C58.8284 5.54359 59.9638 5.36885 58.1593 4.95408C57.0295 5.04926 55.893 5.14453 54.7632 5.23971C55.0531 5.37214 55.3433 5.50471 55.6272 5.63715ZM106.331 111.571C103.652 111.726 103.607 111.17 100.989 111.481C102.391 111.583 103.793 111.687 105.189 111.79C105.566 111.717 105.953 111.644 106.331 111.571ZM237.713 110.043C236.583 109.849 234.471 110.77 231.293 110.09C230.536 110.293 230.062 110.487 229.411 110.685C229.032 110.469 228.602 110.25 228.241 110.036C228.239 110.036 228.237 110.036 228.235 110.036C225.353 110.109 227.221 110.38 227.156 110.609C227.126 110.704 224.987 110.545 225.655 110.752C226.809 111.107 231.121 110.903 231.133 111.336C229.618 111.195 226.66 111.313 227.535 111.602C228.493 111.919 231.281 111.387 233.056 111.651C230.512 110.958 235.766 111.172 236.364 111.704C239.447 111.296 236.613 111.129 233.453 111.148C235.382 110.741 232.543 110.961 232.075 110.622C234.064 110.418 240.891 110.588 237.713 110.043ZM316.655 42.3681C316.682 44.4989 316.449 47.8276 316.793 49.2863C316.993 50.136 317.148 46.7994 317.462 49.1003C317.432 47.0243 317.309 46.5507 317.033 46.9056C317 46.4325 316.968 45.9535 316.936 45.4804C316.989 45.2616 317.042 45.037 317.096 44.8182C316.983 44.5697 316.87 44.3197 316.757 44.0772C316.779 43.5746 316.802 43.0662 316.825 42.5636C316.768 42.5045 316.718 42.4038 316.655 42.3681ZM29.4137 111.589C30.0052 111.585 30.5911 111.582 31.1826 111.578C31.1175 111.511 31.0398 111.441 30.965 111.372C30.9114 111.317 30.8578 111.263 30.8042 111.208C31.1471 111.403 33.9654 111.727 35.1525 111.519C35.7495 111.414 34.3912 111.044 36.9215 110.979C35.0877 110.998 33.389 111.049 31.6083 111.08C31.7681 110.97 31.9215 110.859 32.0813 110.749C32.0802 110.749 32.0792 110.748 32.0781 110.748C31.4866 110.723 30.8881 110.697 30.2966 110.673C30.0007 110.978 29.7095 111.283 29.4137 111.589ZM278.495 5.93938C280.513 5.72329 281.188 5.61107 280.235 5.26168C280.233 5.26152 280.231 5.26135 280.229 5.26119C279.478 5.41599 278.726 5.57073 277.975 5.72552C278.146 5.79673 278.317 5.86818 278.495 5.93938ZM147.25 110.731C142.96 112.058 152.621 111.244 150.782 110.792C150.699 110.771 147.653 110.877 147.25 110.731ZM304.672 111.441C305.726 111.431 306.782 111.423 307.841 111.413C307.959 111.412 308.076 111.409 308.193 111.403C308.074 111.334 307.956 111.262 307.841 111.188C307.69 111.099 307.539 111.01 307.39 110.921C306.485 111.094 305.578 111.268 304.672 111.441ZM69.5645 6.23966C70.8039 6.60396 73.9852 6.73594 75.5399 6.33975C74.7233 6.29339 73.9064 6.24696 73.0899 6.2006C74.6336 6.15508 76.1601 6.10497 77.7156 6.06193C77.7985 5.5544 76.0057 5.84884 73.3074 5.70892C72.8897 5.68636 70.2188 5.05637 69.2965 5.5312C69.111 5.62879 71.9522 5.69515 69.9776 5.97893C70.841 6.00126 71.5863 5.99631 72.4024 6.00871C72.4616 6.12959 72.5202 6.25061 72.5853 6.37149C71.5761 6.32772 70.5737 6.28342 69.5645 6.23966ZM316.695 54.7729C316.667 57.6996 316.87 58.061 317.228 58.6703C317.188 57.3094 317.148 55.9479 317.107 54.5869C316.97 54.6518 316.833 54.7081 316.695 54.7729ZM95.7238 6.35586C97.326 6.41448 96.6398 6.12276 97.2846 6.0673C99.7222 5.8587 101.385 6.06719 103.793 5.93645C103.633 5.99275 103.486 6.04537 103.333 6.10002C103.335 6.10002 103.337 6.10002 103.339 6.10002C114.741 6.34589 108.752 5.6843 101.929 5.79193C101.77 5.68347 101.616 5.57487 101.456 5.46724C98.4032 5.65682 95.5877 5.83925 95.7238 6.35586ZM185.363 110.685C185.233 110.617 186.34 110.186 184.263 110.388C182.618 111.018 185.315 110.705 185.991 110.947C185.429 111.008 184.854 111.067 184.298 111.127C187.659 111.305 188.149 111.155 186.924 110.695C186.837 110.664 185.494 110.753 185.363 110.685ZM163.275 110.375C162.813 111.303 167.055 110.885 166.901 110.597C166.316 110.586 165.86 110.743 165.239 110.674C164.612 110.604 164.452 110.387 163.275 110.375ZM284.797 110.602C284.673 110.598 283.425 110.208 283.549 110.513C285.093 111.236 288.205 110.77 287.661 110.519C286.631 110.531 285.945 110.64 284.797 110.601C284.797 110.601 284.797 110.601 284.797 110.602ZM50.2604 6.4584C50.3196 6.48429 53.4342 6.64108 53.8362 6.4955C54.1674 6.3316 54.3319 6.15594 54.5803 5.98625C52.8643 6.14356 49.391 6.02373 50.2667 6.4584C50.2646 6.4584 50.2626 6.4584 50.2604 6.4584Z" fill="#000F55"/>
</svg>
