<svg width="79" height="163" viewBox="0 0 79 163" fill="none" xmlns="http://www.w3.org/2000/svg">
<path d="M77.7215 49.5396C78.0823 48.5454 77.8458 51.8642 78.3846 49.6605C78.421 50.12 78.4585 50.5824 78.4949 51.0419C78.2954 51.1585 78.0964 51.2779 77.8968 51.3944C77.8381 50.7773 77.7793 50.1599 77.7206 49.5396C77.7209 49.5396 77.7212 49.5396 77.7215 49.5396ZM75.2226 48.6969C75.7917 49.2625 75.9435 51.0595 76.4687 49.1183C76.2734 48.964 76.0781 48.8059 75.8828 48.6516C76.0342 47.9776 76.1857 47.2995 76.3363 46.6256C76.2619 46.3832 76.1873 46.1411 76.1137 45.8987C76.4531 45.5901 76.7934 45.2842 77.1337 44.9755C77.084 45.2495 77.0335 45.5273 76.9838 45.8014C77.2594 46.8848 77.3348 47.8488 77.3861 49.3197C77.4664 49.1905 77.546 49.0611 77.6263 48.9319C77.4897 49.6784 77.3528 50.4245 77.2162 51.1678C77.0821 50.5223 76.933 49.8005 76.808 49.2022C76.2758 50.1596 76.572 51.8483 76.683 52.7272C76.8345 53.9242 76.5815 53.6537 76.6874 54.5418C76.704 54.6835 76.9023 54.6996 76.9057 54.9799C76.9214 56.3942 76.8163 59.1412 76.3534 57.5347C76.4131 55.2069 76.0414 53.2216 76.1772 50.9379C75.642 51.542 75.4599 50.3389 75.2226 48.6969ZM76.9267 91.4608C76.6667 90.7553 76.7716 89.3186 76.952 88.3453C76.952 88.3442 76.952 88.343 76.952 88.3419C76.9918 88.1277 77.3372 87.6426 77.3231 88.3419C77.299 89.4819 76.7553 90.0331 77.1244 90.6315C77.0557 90.8993 76.9945 91.1804 76.9267 91.4608ZM76.9589 93.9384C76.8256 94.6376 76.4159 94.3204 76.5268 93.4448C76.5264 93.4448 76.5261 93.4448 76.5258 93.4448C76.5722 93.0795 76.896 93.7968 76.5673 92.4864C76.823 92.2187 77.0557 91.9552 77.3031 91.6907C77.3072 92.0116 77.3139 92.3042 77.3173 92.6408C76.8969 92.4143 77.0911 93.2392 76.9589 93.9384ZM76.5849 58.7164C76.963 58.8265 76.9606 58.3659 77.223 57.5817C77.2106 58.3219 77.1974 59.0622 77.1849 59.7992C76.9847 59.437 76.7851 59.0785 76.5849 58.7164ZM76.6435 41.3279C76.6435 41.3268 76.6435 41.3257 76.6435 41.3246C76.5839 41.082 76.524 40.8388 76.4652 40.5994C76.6002 40.4545 76.7346 40.3112 76.8695 40.1663C76.7429 39.3096 76.6162 38.4482 76.4887 37.5914C76.9009 37.6955 76.8338 39.2334 77.122 40.0807C76.9978 41.3406 76.7585 41.9477 76.4091 42.0296C76.4869 41.7966 76.5657 41.5641 76.6435 41.3279ZM2.49496 135.74C2.38074 135.453 2.26642 135.17 2.1522 134.884C2.10007 135.265 2.06028 135.643 1.99987 136.027C2.49657 137.031 2.0572 137.126 2.08775 138.442C2.18214 142.477 2.95359 141.407 1.82361 145.051C1.87736 142.125 1.3464 143.249 0.937419 141.485C1.24872 141.12 1.95082 142.868 2.09654 141.684C1.76708 139.643 1.46022 137.68 1.24746 135.416C1.19365 135.482 1.13966 135.548 1.08585 135.614C1.11979 135.973 1.15395 136.329 1.1879 136.688C1.04383 136.301 0.901017 135.922 0.755299 135.528C1.0823 136.026 0.899584 134.758 1.27529 134.927C1.44254 135.003 1.67455 135.563 1.83435 135.894C1.92126 135.041 2.00088 134.165 2.08531 133.302C2.21856 133.749 2.35195 134.196 2.48519 134.64C2.48933 135.005 2.49229 135.368 2.49642 135.733C2.49594 135.735 2.49545 135.737 2.49496 135.74ZM58.2502 0.756261C57.1666 1.14539 55.1975 1.20978 54.1611 0.776767C55.525 0.770144 56.8862 0.762884 58.2502 0.756261ZM76.121 42.1118C76.1872 41.9891 76.2526 41.8703 76.3188 41.7476C76.4413 42.2892 76.5629 42.8341 76.6855 43.3758C76.4943 43.4797 76.3031 43.586 76.1127 43.6931C76.1152 43.1672 76.1185 42.6377 76.121 42.1118ZM76.3339 76.768C76.3223 76.3718 76.3286 76.3367 76.3559 75.8431C76.3557 75.8437 76.3556 75.8442 76.3554 75.8448C76.3656 75.6492 76.4772 74.0123 76.6244 74.1948C76.6269 75.0075 76.6244 75.8743 76.6244 76.7059C76.5276 76.7311 76.4316 76.7366 76.3339 76.768ZM76.4198 67.2017C76.4202 67.2006 76.4205 67.1995 76.4208 67.1984C76.4432 66.9026 76.4887 66.6224 76.497 66.3171C76.7286 67.4161 76.313 67.5898 76.4306 68.5883C76.549 69.5866 76.7783 70.2036 76.2089 71.0508C76.1236 70.7357 76.0016 70.3966 75.9023 70.0721C76.1299 68.6548 75.9157 68.2731 75.6914 67.1363C75.9347 67.1583 76.1765 67.1797 76.4198 67.2017ZM2.08765 154.212C2.4598 154.405 2.34412 154.825 2.35784 154.863C2.35727 154.862 2.35671 154.862 2.35615 154.861C3.88425 157.212 1.94491 154.656 3.31952 156.95C3.03131 156.665 2.7556 156.37 2.49483 156.055C2.30451 155.445 2.17698 154.805 2.08765 154.212ZM76.0726 151.68C76.1573 151.666 76.2428 151.646 76.3274 151.63C76.066 153.216 76.2191 153.742 75.436 154.89C75.7997 153.845 76.0124 152.759 76.0716 151.68C76.0719 151.68 76.0723 151.68 76.0726 151.68ZM75.7377 83.6268C75.5813 82.1179 75.5123 81.0018 75.7607 79.5528C75.761 79.5517 75.7613 79.5506 75.7617 79.5495C75.777 79.4659 75.9484 79.87 75.9916 79.761C75.966 79.462 75.9266 79.1533 75.8959 78.8512C76.0333 78.8103 76.1706 78.7712 76.3071 78.7303C76.2681 79.5807 76.2293 80.4316 76.1904 81.2851C76.2707 81.1591 76.3503 81.0301 76.4306 80.9041C76.472 81.6284 76.5132 82.3501 76.5546 83.0745C76.3295 82.8226 76.1043 82.5713 75.8784 82.3225C75.8312 82.757 75.7857 83.1923 75.7377 83.6268ZM56.1953 160.891C56.4347 160.98 55.9914 161.13 56.3631 161.207C56.7349 161.283 57.4201 161.117 57.2595 161.369C56.7591 161.403 56.2335 161.442 55.7236 161.477C57.3646 161.933 59.0019 161.521 59.0271 162.083C57.4521 161.937 56.1571 162.005 54.6325 162.16C54.6955 161.714 56.2205 161.328 55.2603 160.91C55.5688 160.904 55.8929 160.895 56.1919 160.892C56.193 160.892 56.1942 160.891 56.1953 160.891ZM70.5256 20.0686C70.5595 19.1361 70.3774 16.9998 70.6374 15.8217C70.7015 15.5319 71.5314 14.5663 71.6408 14.5712C72.0092 14.5995 72.0594 15.7788 72.2994 14.5158C72.3019 14.9407 72.3158 15.353 72.3224 15.7747C72.5699 15.6991 72.8168 15.6239 73.0636 15.5515C73.0263 15.038 72.9889 14.524 72.9508 14.0105C73.0327 13.9853 73.1149 13.9602 73.1969 13.935C73.1985 15.7809 73.5149 14.6912 73.8096 15.6488C73.9586 14.767 74.1069 13.8786 74.2559 13C74.2377 13.5071 74.2242 14.1054 74.2027 14.5527C74.6224 14.6125 74.5223 13.5455 74.6001 13.3626C75.0397 12.3326 74.8178 17.5765 75.4287 18.0056C75.4966 17.1679 75.5628 16.2889 75.6298 15.4323C75.7052 15.678 75.7806 15.9268 75.8559 16.1725C75.4346 18.1158 75.2853 20.2951 75.0229 22.5596C75.0403 22.7642 75.0581 22.9692 75.0747 23.1706C75.2642 23.1108 75.453 23.0542 75.6425 22.9943C75.6649 23.303 75.6871 23.6156 75.7094 23.9243C75.0852 23.0141 75.0937 24.2745 74.7129 25.7959C74.4935 24.9865 74.6265 23.988 74.2178 24.0569C74.5323 26.8349 74.0879 30.0882 74.4429 32.7906C74.5306 33.4614 75.0579 33.4593 75.0093 35.0366C74.9513 34.983 74.8467 34.9739 74.7705 34.9392C75.023 37.6671 75.174 39.3222 74.9165 42.1571C75.106 41.9934 75.2963 41.8324 75.4858 41.6687C75.3914 41.067 75.2955 40.4644 75.2012 39.8659C75.5141 39.4565 75.6522 40.0615 75.6489 38.2662C75.6464 36.7951 75.5082 37.6708 75.4155 37.2708C75.2889 36.7291 75.5379 36.2537 75.3965 35.6711C75.288 35.2206 75.0298 35.7079 75.0952 34.533C75.4297 35.0055 75.7751 35.4875 76.1137 35.9631C76.0384 36.2498 75.9619 36.5342 75.8857 36.8209C75.7963 36.5311 75.708 36.2462 75.6186 35.9564C75.7792 36.9769 75.9307 37.9412 76.0971 38.9964C75.6136 38.653 75.7949 39.7437 75.852 40.3359C75.9413 41.2584 75.6086 40.468 75.664 41.0728C75.7203 41.6775 76.0921 42.3298 76.0126 43.4228C75.7974 42.837 75.6044 43.6339 75.4057 43.4799C75.2071 43.3256 75.1631 42.1694 74.9463 43.2801C75.111 45.4158 75.8676 43.0983 75.9902 44.5407C76.1375 46.2731 74.9043 46.6853 74.6392 46.169C74.4305 45.7626 74.4725 44.3644 74.2647 43.9549C73.8896 46.4591 74.63 46.4808 74.7749 46.9092C75.3023 48.4653 73.8947 47.42 74.4038 49.2626C74.1406 49.228 73.9039 49.1999 73.6514 49.1653C73.6994 49.4832 73.7632 49.6943 73.8013 50.0784C74.3142 48.9456 74.2922 49.8728 74.293 50.3487C74.2947 51.0984 74.5448 49.9404 74.6094 50.1389C74.7822 50.6744 74.7037 51.5212 74.9297 51.0017C74.8245 51.2348 74.7191 51.4874 74.6148 51.7268C74.7458 52.6027 75.8444 54.6611 75.6225 52.7021C76.0307 52.8848 75.8345 53.5185 75.7724 54.013C75.7104 54.5075 75.9703 54.4983 75.9223 54.9329C75.7302 56.662 75.2856 55.5309 74.937 55.2569C75.1771 57.5405 75.3359 55.3048 75.4965 58.5956C75.7805 58.9138 76.0836 57.3932 76.2475 58.6594C75.7541 58.8926 75.3997 59.825 75.2358 61.6422C75.3492 61.8186 75.4637 61.9946 75.5771 62.171C75.1217 63.1633 74.6482 62.6561 75.2129 64.4925C74.1738 63.5066 74.8386 64.1845 74.4155 65.8286C74.3303 66.1626 74.1147 65.391 74.0054 65.8572C73.9561 66.0685 74.1188 66.5815 73.9932 67.0977C73.9311 67.3496 73.5305 68.5278 73.7208 69.3436C74.2241 68.7451 74.6524 70.2952 75.0688 68.9659C74.9662 71.4229 75.2079 73.1425 74.5215 70.3894C74.3692 71.0131 74.2175 71.6373 74.066 72.261C74.186 72.6957 74.3051 73.1341 74.4243 73.572C74.0106 73.6381 73.8945 73.5717 73.9673 75.2842C73.8697 74.5411 73.7704 73.8011 73.6719 73.055C73.5884 73.0298 73.5016 72.926 73.4205 72.9509C73.5794 73.8648 73.6478 76.4382 73.7579 77.0618C73.868 77.6855 73.8981 76.4811 74.0049 76.6606C74.8856 78.1565 74.2361 78.0379 74.3872 79.1114C74.4766 79.7413 74.5737 78.2371 74.6118 78.5742C74.7514 79.8239 74.2833 80.4036 74.2774 81.5117C74.5431 81.1181 74.8129 80.7276 75.081 80.3434C75.067 81.5058 75.0646 82.8015 75.1499 83.8819C75.1832 84.306 75.3808 83.9855 75.394 84.0548C75.4619 84.3984 75.5694 85.7969 75.5703 85.9449C75.5719 87.0593 75.2982 87.0912 75.2832 88.1741C75.26 87.749 75.2391 87.3492 75.2168 86.9336C74.7731 86.7446 74.3294 86.5518 73.8848 86.3629C73.8525 87.4242 73.8209 88.486 73.7886 89.5505C73.9368 88.7726 74.0843 87.9918 74.2325 87.2139C74.5909 88.4298 74.9502 89.6456 75.3095 90.8615C75.0893 91.4946 74.8692 92.1252 74.6489 92.7583C74.707 94.4777 75.601 94.1315 74.8179 94.9472C74.8841 95.4541 74.9502 95.9611 75.0156 96.468C74.9039 96.3956 74.7919 96.3239 74.6802 96.2515C74.7489 96.8625 74.8172 97.4734 74.8867 98.0845C75.2824 97.442 75.6988 96.8121 76.0829 96.1759C76.1689 97.3784 75.8332 97.4015 75.7495 97.5809C75.5276 98.0566 75.8269 99.0007 75.6215 99.3787C75.551 99.5064 75.3301 98.328 75.0752 98.7341C75.0258 98.8134 74.0889 100.391 74.3052 101.398C74.4749 101.379 74.683 101.301 74.8677 101.26C74.9708 102.614 74.0848 103.305 73.8365 103.125C74.0103 103.847 74.0249 104.901 74.2964 105.049C74.303 105.418 74.3093 105.783 74.3159 106.152C73.6546 105.768 73.7755 107.305 74.3443 107.406C74.3583 106.773 74.3732 106.139 74.3872 105.506C75.0843 105.984 75.5051 104.06 74.8594 108.064C74.4967 108.829 74.9088 106.703 74.6372 107.327C74.4792 108.41 74.6114 109.427 74.3589 110.457C74.0435 111.739 73.7401 110.162 74.1416 113.148C75.1476 106.562 74.8212 114.051 75.1333 117.145C74.1398 117.995 73.8251 120.608 74.1206 124.205C74.3972 123.83 74.2547 122.698 74.3457 122.046C74.4368 121.394 74.6008 122.1 74.73 121.288C74.8591 120.475 75.0346 118.75 75.23 117.927C75.3865 118.624 75.7565 122.062 75.312 119.789C75.038 121.486 74.7564 122.283 74.7051 124.386C75.1364 125.016 75.405 124.97 75.4174 127.02C74.8181 125.807 74.4015 128.137 73.7823 127.624C73.9265 126.17 74.5283 126.983 74.8164 126.142C74.8452 126.056 74.6943 124.701 74.7051 124.386C74.1644 125.753 73.9632 126.226 73.3199 125.385C73.3762 126.352 73.2954 126.954 73.6026 127.042C73.4693 127.243 73.336 127.446 73.2027 127.644C73.206 127.959 73.2184 128.243 73.2159 128.576C73.6792 128.117 73.394 129.007 73.6041 129.64C73.8144 130.273 74.1801 129.424 74.1851 131.163C74.2935 130.583 74.3866 130.053 74.4893 129.493C74.6085 130.614 74.7284 131.739 74.8477 132.86C75.1308 132.072 75.5513 130.366 75.9238 130.412C75.7831 130.929 76.0303 132.698 76.0405 132.892C76.0786 133.641 75.8436 133.233 75.8378 133.29C75.7237 134.467 75.8037 135.437 75.4477 135.885C75.6083 136.77 75.5168 137.437 75.5258 138.376C75.5308 138.892 75.7923 138.792 75.7426 139.094C75.4115 141.104 75.0736 139.189 75.7168 143.066C75.8989 142.596 76.0852 142.133 76.269 141.664C76.3377 142.102 76.4068 142.537 76.4755 142.975C76.4424 143.268 76.409 143.558 76.3759 143.851C75.981 143.845 75.5853 143.837 75.1904 143.831C75.1689 144.152 75.148 144.475 75.1264 144.796C75.0875 144.245 75.0487 143.692 75.0098 143.141C74.9403 143.091 74.8708 143.044 74.8013 142.994C74.6936 143.813 74.585 144.629 74.4766 145.448C74.6139 145.463 74.7523 145.479 74.8896 145.495C74.6984 147.34 74.5821 147.384 74.9604 149.139C74.9594 149.477 74.9946 149.799 75.0516 150.105C75.2235 151.066 75.4585 151.95 75.4861 152.639C75.3404 152.93 75.1818 153.213 75.0127 153.487C75.0606 153.711 75.1009 153.94 75.1342 154.173C74.8408 154.495 74.531 154.798 74.213 155.072C74.4181 155.419 74.5279 155.633 75.2562 154.201C75.5607 154.907 73.9256 157.405 72.9493 158.065C72.2602 158.609 72.6656 157.659 72.5515 157.708C72.2179 157.87 71.2804 158.868 71.0146 159.004C69.966 159.627 69.2114 160.03 68.1623 160.33C67.9561 160.391 67.3288 160.332 67.2815 160.333C66.9036 160.407 65.9651 160.455 65.8626 160.455C65.2901 160.511 64.8448 160.52 64.4949 160.526C61.6679 160.572 65.6536 161.385 61.3301 161.288C61.4749 161.424 61.6081 161.558 61.7497 161.694C61.3845 161.702 61.0154 161.71 60.6503 161.719C60.1872 161.605 60.7474 161.399 59.8277 161.565C59.8876 161.398 59.9477 161.231 60.0107 161.064C59.6107 161.155 59.225 161.244 58.8156 161.334C58.173 160.754 55.8271 160.622 55.9938 159.941C56.0505 159.709 57.7137 159.471 56.8348 159.224C56.1207 159.175 56.6041 159.452 56.3128 159.466C54.2086 159.567 54.3309 159.179 53.4709 159.283C53.3355 159.449 53.1931 159.619 53.0546 159.787C52.7303 159.738 52.4051 159.689 52.0777 159.64C52.0021 159.752 51.9233 159.864 51.8477 159.976C52.1533 159.983 52.4973 159.991 52.7777 159.998C52.3867 160.431 48.7968 160.625 50.1658 160.256C50.7232 160.106 51.7443 160.17 51.0991 159.659C50.1384 159.732 49.0484 159.808 48.0373 159.881C48.0058 159.771 47.9765 159.661 47.945 159.551C46.5823 159.622 47.8216 160.062 47.8191 160.298C47.5074 160.305 47.1925 160.311 46.8808 160.317C46.7486 160.211 46.6231 160.099 46.4846 159.996C46.4719 160.165 46.2974 160.56 45.3684 160.413C44.771 160.318 45.7117 159.89 44.5727 159.949C44.6578 160.214 45.0693 160.537 43.8005 160.622C43.6746 160.346 43.5004 160.092 43.4027 159.802C41.8249 160.067 41.1069 159.64 39.2549 159.949C38.08 160.145 36.4706 160.838 35.7114 159.769C34.852 159.741 35.1248 160.007 34.8704 160.067C33.6703 160.35 32.7776 159.844 32.554 159.814C31.1277 159.623 30.4882 159.798 29.326 159.559C29.389 159.757 29.4234 159.944 29.4738 160.137C30.5385 159.841 31.0777 159.855 32.5708 159.918C32.07 159.958 31.5691 159.999 31.0684 160.039C31.1503 160.199 31.2314 160.36 31.3101 160.519C35.928 159.887 34.8508 160.886 30.9795 161.105C30.6456 160.808 30.2996 160.511 29.969 160.213C27.7326 160.664 26.6802 160.273 24.1509 160.179C23.8503 160.168 22.7551 160.34 22.2844 160.348C22.2922 160.349 22.3 160.35 22.3079 160.351C22.015 160.632 22.4116 160.761 22.4589 161.012C22.2038 161.044 21.9486 161.075 21.6935 161.106C21.1238 160.915 21.3241 160.758 20.2029 160.804C20.3541 160.994 20.5033 161.184 20.6544 161.375C19.4259 161.381 18.622 161.175 17.4785 161.264C17.6707 161.192 17.8605 161.12 18.0526 161.048C15.5641 160.864 17.5445 159.744 15.664 160.302C15.5443 160.204 15.4278 160.105 15.3081 160.008C16.0829 159.984 16.858 159.96 17.6296 159.936C17.6454 159.798 17.6623 159.661 17.6749 159.522C16.8465 159.564 16.014 159.606 15.1856 159.648C15.7904 159.555 16.3987 159.462 17.0035 159.37C16.0429 159.303 15.082 159.237 14.1214 159.171C15.1415 159.679 13.819 159.741 14.0676 160.245C13.7003 160.154 13.3501 160.057 13 159.965C11.7396 159.602 10.6483 159.227 8.76704 158.637C8.30909 158.463 8.30711 158.941 7.37202 157.779C7.32601 158.475 5.69937 157.475 5.51983 157.993C5.94401 158.361 6.40727 158.714 6.8703 158.995C6.47164 158.48 6.72667 158.05 7.51564 158.413C8.50517 158.885 9.89265 159.747 10.0105 159.178C10.4022 159.335 10.7797 159.448 11.1797 159.548C10.9879 159.653 10.7905 159.754 10.5889 159.849C11.7279 159.914 12.422 159.977 13 160.265C13.0494 160.29 13.0975 160.316 13.1444 160.345C13.0963 160.347 13.0481 160.35 13 160.353C11.5623 160.432 10.0917 160.206 8.71699 159.674C8.91225 159.788 9.11348 159.896 9.31752 159.997C8.10435 159.863 9.05985 160.778 6.99918 159.718C7.09861 159.586 7.19523 159.452 7.29413 159.318C6.33392 159.325 4.61858 157.702 4.81356 158.576C4.40487 157.954 4.40085 157.784 3.92432 157.646C2.9941 155.895 3.06902 154.622 3.8389 154.919C3.46455 154.409 3.13265 153.856 2.85292 153.273C2.81209 153.676 2.79563 154.088 2.80383 154.508C2.34833 153.431 2.06568 152.274 1.97081 151.116C2.37676 150.974 2.48424 153.268 2.76922 152.529C2.81774 152.387 2.52684 151.838 2.55479 151.671C2.86116 149.99 2.82473 152.568 3.15846 152.019C2.99041 150.375 3.44526 150.791 3.42165 150.105C3.42534 149.803 3.36776 149.296 3.20293 148.339C3.33868 148.254 3.47717 148.163 3.61209 148.084C3.62024 146.967 3.31361 147.057 3.25566 146.097C3.21962 145.495 3.75806 144.74 3.3914 144.076C3.3238 143.957 2.66569 145.075 2.69466 142.726C2.7171 140.903 3.18218 141.662 3.34697 140.676C3.51173 139.69 2.86686 137.435 3.59793 136.77C3.5011 137.287 3.44886 137.945 3.36943 138.518C3.51181 138.751 3.65266 138.978 3.79421 139.208C3.61042 137.897 3.82704 136.543 3.48759 135.661C4.0067 133.913 3.52497 131.957 2.93878 132.487C3.0233 133.062 3.2789 132.436 3.11602 133.235C2.97941 133.317 2.84347 133.403 2.70686 133.485C2.72342 132.125 2.71959 131.179 3.13604 131.8C3.14598 131.589 3.15589 131.38 3.16582 131.169C2.86445 131.131 2.56197 131.098 2.2606 131.06C2.22665 130.808 2.19298 130.555 2.15904 130.303C2.22523 130.023 2.2922 129.742 2.35922 129.458C2.83612 129.84 2.85187 130.489 3.11846 128.34C2.9537 128.334 2.7896 128.325 2.62484 128.319C2.83429 126.52 3.23341 126.473 3.21856 124.214C3.79059 125.947 2.77658 126.895 3.92409 126.888C3.84874 127.323 3.77239 127.761 3.69705 128.196C3.86346 128.262 4.03012 128.328 4.19653 128.391C4.10876 126.057 3.01432 122.18 3.74001 120.617C3.65146 120.428 3.57447 120.239 3.47929 120.047C3.91727 118.516 2.93397 117.855 3.50028 116.302C3.55971 116.141 4.48353 116.477 4.45043 114.455C4.33036 114.505 4.12827 114.532 3.97682 114.573C4.05048 114.135 4.12756 113.7 4.20288 113.265C4.09198 113.186 3.98113 113.104 3.8694 113.025C3.82635 113.772 3.78258 114.516 3.73953 115.263C3.70146 114.642 3.66334 114.018 3.62527 113.398C3.44402 114.207 3.4421 114.572 3.15166 114.084C3.13428 113.382 3.11583 112.678 3.09844 111.976C3.02403 111.903 2.94875 111.832 2.87433 111.759C2.65247 112.099 2.43548 112.443 2.21031 112.783C2.39161 110.953 2.40146 109.362 2.83772 107.957C2.9114 107.718 3.20045 108.565 2.93976 106.933C3.09285 106.908 3.21716 106.864 3.35869 106.836C2.92981 104.839 3.05782 104.183 3.36747 102.101C3.07852 103.449 3.26645 102.246 3.11163 101.903C3.00496 101.667 3.02072 102.586 2.909 102.482C2.79807 102.378 2.35012 101.185 2.29624 102.205C3.21442 104.706 2.11665 105.387 2.55794 108.6C2.43955 108.106 2.32089 107.607 2.20249 107.113C2.12225 107.346 2.04944 107.554 1.96422 107.806C2.14385 106.014 2.02715 106.886 1.88561 106.149C1.74404 105.412 1.62376 104.073 1.58485 103.175C1.57262 102.892 1.77856 103.19 1.79773 102.552C1.81097 102.118 1.50568 100.93 1.8656 100.655C2.09988 100.476 2.74502 102.384 2.74348 99.7456C2.97317 99.2489 2.90183 100.514 2.92951 100.541C3.20273 100.771 3.40815 99.1491 3.19951 98.3994C3.18152 98.3387 2.96861 98.9307 2.88508 98.2869C2.68554 96.7592 2.92971 95.8769 3.26006 94.8878C2.87258 94.7807 2.40983 93.495 2.55306 91.8948C2.44218 91.813 2.33032 91.735 2.21861 91.6531C2.2773 91.9016 2.3352 92.15 2.39389 92.3984C2.32434 92.6693 2.27372 92.9563 2.19175 93.2209C2.09647 91.6117 1.56246 91.3841 1.36709 90.6124C0.699664 87.9716 2.11148 89.5721 2.35483 90.0484C2.2563 90.3917 2.14633 90.7238 2.04283 91.0639C2.17779 91.0261 2.31377 90.9878 2.44955 90.9531C2.44543 87.0001 3.32558 90.3511 3.57645 88.3446C2.91248 87.8281 2.84849 86.3544 3.26982 84.4771C3.26651 84.2693 3.26566 84.0606 3.26152 83.8527C3.16471 83.8181 3.01673 83.8186 2.95294 83.7621C2.84034 81.5004 3.86286 81.0975 3.95973 80.8833C4.38936 79.9321 3.79491 79.1914 3.78982 78.9109C3.76912 77.7297 4.03307 77.3865 3.91969 76.2621C3.79719 75.0528 3.59466 75.8797 3.41337 75.5118C3.2694 75.2167 3.24376 74.2626 3.09454 73.8684C3.21659 74.025 3.33627 74.1991 3.45878 74.3552C3.62516 73.1018 3.78734 72.0775 3.8279 70.6539C2.93488 69.0476 4.44129 67.6809 3.21953 68.2351C3.13591 69.5833 2.99669 70.3371 2.68538 71.0585C2.64565 70.1735 2.60695 69.2879 2.56722 68.4029C2.70131 68.1448 2.83199 67.9614 2.96857 67.656C2.68381 66.9946 2.80601 65.4613 2.72249 64.8594C2.33088 62.0402 1.84517 62.9124 2.66145 60.339C2.74099 62.1938 3.13745 62.1908 3.08282 64.0302C3.36597 63.6333 3.3073 62.6986 3.64676 63.3034C3.56315 61.5239 3.26008 62.0991 2.99103 61.4066C2.75908 60.8092 2.74609 59.6063 2.44467 59.6743C2.61039 59.5513 2.77083 59.4562 2.93634 59.3335C2.93469 58.1809 2.93458 57.0282 2.93293 55.8756C3.10594 56.3669 3.27927 56.8581 3.45145 57.3494C3.5168 56.9781 3.5819 56.6062 3.64725 56.2348C3.10909 53.3999 4.09539 48.5112 2.74348 49.2922C2.70043 47.9252 2.86999 47.7542 3.12579 47.011C3.02315 46.9291 2.93779 46.8494 2.82356 46.7676C2.931 45.8858 2.54567 45.2089 2.64583 44.431C2.74522 43.6531 3.10919 43.46 2.4974 43.3466C2.67289 42.8427 2.81867 42.3417 2.98175 41.8409C2.84276 41.5387 2.70538 41.2368 2.56722 40.9378C2.64007 40.4654 2.71262 39.9919 2.78547 39.5194C2.49343 39.2669 2.61931 37.4092 2.42319 36.5903C2.73799 35.8129 3.72916 35.8342 3.55155 34.0052C3.30572 34.0525 3.0606 34.099 2.81477 34.1462C2.86609 33.7274 2.91725 33.3076 2.96857 32.8856C3.0488 32.8604 3.12904 32.8386 3.20928 32.8134C3.18445 33.0276 3.15975 33.2388 3.13409 33.453C3.26987 33.2671 3.40502 33.0851 3.54081 32.9024C3.33965 32.2631 3.13848 31.6229 2.93732 30.9804C2.78502 31.8464 2.63261 32.7128 2.48031 33.5789C2.29982 32.4921 2.47985 31.7357 2.27866 30.7907C2.61806 29.9687 2.81362 30.2723 3.18194 30.6061C3.15049 30.3007 3.12013 29.9916 3.08868 29.6862C3.45705 29.8877 3.67653 29.3711 3.64676 31.1567C3.75182 31.0339 3.852 30.9087 3.96119 30.7891C3.94464 30.4962 4.03345 30.3062 3.99293 29.985C3.88199 29.1093 3.23497 28.4379 3.00812 28.4978C2.88929 28.5301 3.11654 29.3935 2.94855 29.3589C2.53889 29.2734 2.72282 27.2928 2.31137 30.1495C2.05058 29.2014 2.24726 28.9896 2.3226 27.9438C2.18609 28.0257 2.05045 28.1052 1.91393 28.1839C1.97683 27.699 2.0395 27.2134 2.1024 26.7285C2.80363 27.4026 3.06701 23.8273 3.68045 27.0458C3.7119 26.0947 3.74352 25.1468 3.77663 24.1989C3.84865 24.3942 3.91994 24.5895 3.99195 24.7847C3.95388 25.2131 3.91642 25.6388 3.87917 26.0672C4.01077 25.5633 4.14159 25.0586 4.27319 24.5548C4.11009 23.3641 3.85924 22.8974 3.54959 22.3524C3.32363 23.7381 3.63229 23.2854 3.69363 24.3651C3.49753 24.3274 3.31716 24.3772 3.11114 24.2828C3.51732 23.7249 3.22182 21.905 3.20196 21.4829C3.14162 20.1985 3.54071 21.2057 3.54911 20.3465C3.55739 19.4866 3.31985 18.4723 3.7156 17.7699C3.49378 17.7825 3.26428 17.8387 3.06231 17.8891C2.98945 16.5503 3.2515 16.8174 3.28545 16.6788C3.64874 15.2392 3.57583 14.2282 3.46494 13C3.40693 12.373 3.38978 11.6665 3.5599 10.827C3.42324 11.1155 3.306 11.4179 3.20122 11.7266C3.1002 9.77596 2.86752 11.0185 2.64092 12.7326C2.7501 11.1427 2.61909 10.1479 2.93339 8.98365C3.22333 7.79901 4.5876 6.19955 5.2229 5.81499C4.2945 7.19345 3.25661 8.66698 2.87934 10.4736C3.14849 10.3279 3.38581 10.1907 3.68243 10.0745C3.55348 8.92226 4.16837 8.47255 4.37985 8.21447C5.04308 7.44505 4.72006 7.24423 5.43142 7.02521C5.29816 6.9509 5.1873 6.88702 5.06079 6.82048C6.43405 5.1231 8.51274 4.21575 9.65752 3.26799C9.89692 3.56846 10.0939 3.87097 10.3287 4.18551C11.055 3.6833 11.8343 3.84638 12.5177 3.74743C12.7727 3.71141 12.8998 3.65733 13 3.5916C13.1809 3.48001 13.273 3.33743 13.8313 3.26639C13.9951 3.24569 14.3362 3.42869 14.7394 3.29373C15.1465 3.15806 16.648 2.14933 16.8276 3.03056C17.5866 3.03471 18.305 3.06693 19.0483 3.08183C18.3239 3.1315 17.5992 3.17961 16.8779 3.22928C17.4952 3.44286 18.1087 3.65581 18.726 3.86939C18.8048 3.67896 18.8838 3.48509 18.9594 3.29715C20.6225 3.06533 21.8295 3.37668 23.5084 3.30301C23.7887 3.29059 23.1273 2.9141 24.3711 3.01005C25.6153 3.10609 26.5386 3.80879 28.6583 3.53737C28.7654 3.5233 29.3931 2.98512 30.1522 3.35769C30.325 3.44213 29.5979 3.56708 29.9944 3.67799C30.3913 3.78893 32.1622 3.88016 32.3008 4.14428C32.2819 4.05075 32.1714 3.95383 32.1179 3.85865C32.4202 3.81395 32.7255 3.76922 33.031 3.72535C33.0594 3.89009 33.0899 4.05507 33.1183 4.21898C34.857 3.83566 35.7556 3.21036 38.332 3.41726C37.6076 3.17801 36.8829 2.9378 36.1616 2.69855C35.9631 2.86662 35.7643 3.03582 35.569 3.20389C34.3817 3.13684 33.1911 3.07027 32.0037 3.00322C31.8084 3.19447 31.6165 3.38518 31.4212 3.57643C31.1063 3.5516 30.7945 3.52754 30.4795 3.50271C30.5583 3.36445 30.6377 3.22692 30.7196 3.08866C30.096 3.1226 29.4717 3.15726 28.8513 3.1912C30.1144 2.3751 32.3785 3.26061 32.2152 2.57795C32.4954 2.68387 32.776 2.79052 33.0562 2.89727C33.1791 2.56625 33.7489 2.66152 34.7532 2.71368C34.5233 2.55058 34.2694 2.3897 34.0583 2.22494C35.0348 2.45508 36.7669 2.43273 37.7781 2.52131C38.2221 2.56022 37.7786 2.80021 37.9107 2.82842C38.5879 2.9758 39.8824 2.55704 40.1533 2.59015C41.7723 2.78724 42.8244 3.58115 44.5915 3.0579C42.7676 2.92875 43.7598 2.9833 43.1109 2.69269C42.9078 2.60157 40.5516 2.4115 43.5021 2.49592C43.848 2.50648 49.2015 3.05502 47.4417 3.47536C48.308 3.34124 48.9862 3.18615 49.78 3.04374C51.7204 4.15153 51.0489 3.11085 50.485 2.53791C50.8032 2.53543 51.1058 2.52961 51.4334 2.52961C50.7373 3.13152 54.2839 3.1689 55.4872 2.86504C55.8904 2.76403 54.763 2.57137 55.6954 2.4803C56.1393 2.52251 56.643 2.57716 57.1121 2.62433C56.4317 2.24351 57.767 2.09675 57.7483 1.70934C58.6018 2.05456 59.2547 2.78629 58.7856 3.1829C59.4911 3.02231 60.2002 2.86192 60.9057 2.7005C60.5781 2.6086 60.2463 2.51751 59.9187 2.42561C61.4632 2.58866 63.3033 2.39398 64.4949 2.49224C65.1141 2.54098 65.5497 2.71295 65.6774 2.9977C65.9835 3.02762 66.2923 3.07312 66.5946 3.13124C66.7166 3.0166 66.8388 2.90305 66.9674 2.7927C68.3517 3.24874 69.6087 3.99178 70.6496 4.93857C69.5829 4.27484 69.2484 4.30345 68.1248 3.658C68.5321 3.98569 68.9111 4.34529 69.2363 4.71431C70.9859 5.36472 71.6367 5.28857 73.1918 7.8159C73.3194 7.92328 73.8749 10.0826 73.8012 10.1651C73.7438 10.5288 73.3791 10.1157 73.3445 10.2798C73.337 10.7512 73.0229 13.07 72.8746 12.9994C72.3615 12.7217 72.0676 10.8567 70.951 9.27827C69.8993 7.64861 68.0956 6.556 67.2868 6.28952C66.3942 5.94968 65.4467 5.79018 64.4949 5.81331C47.1939 6.11289 30.1377 5.82083 13 5.70295C9.12559 5.56159 5.54699 9.07851 5.66543 13C5.66758 13.6217 5.67026 14.2437 5.67351 14.8659C5.67549 15.1169 5.82997 15.0074 5.83659 15.1144C5.87539 15.7789 5.63462 16.4315 5.62469 16.6771C5.60421 17.2021 5.82667 16.913 5.82682 17.2965C5.82434 21.2592 5.69353 24.9986 5.73161 28.9644C5.7341 29.2227 5.55612 28.959 5.58758 29.4126C5.60481 29.6467 5.87786 30.3797 5.882 30.9082C5.89607 32.7541 5.80853 34.3045 5.81267 36.2512C5.81514 37.3159 5.79193 38.9131 5.79606 40.1036C5.79782 40.6293 5.92274 41.1771 5.92692 41.6965C5.93271 42.4336 5.67948 42.2831 5.66375 42.3965C5.59504 42.8942 5.87299 42.9631 5.86637 43.4356C5.85313 44.3144 5.66755 44.3617 5.68328 45.4767C5.69487 46.2737 5.84139 48.0976 5.88444 49.1025C5.6692 51.4524 5.75465 54.4135 5.82585 56.6058C5.86806 57.9035 5.60823 58.0238 5.60906 58.553C5.61409 60.4175 5.94594 61.8325 5.9567 63.5837C5.97072 65.9078 5.7513 67.9675 5.73552 70.2192C5.73304 70.5843 5.9711 70.5005 5.97721 70.8587C5.99956 72.1849 6.04289 73.8807 6.00894 75.0619C5.97164 76.3784 5.62609 76.864 5.69646 78.1522C5.71735 78.5299 6.02034 78.6406 6.05924 79.2735C6.12041 80.2845 5.85323 81.3931 5.82341 82.0986C5.78367 83.0656 6.09233 82.2246 6.05093 83.5287C6.04915 83.5823 5.8285 83.7775 5.83903 84.0575C5.86884 84.8734 6.04259 84.7923 6.02603 85.9862C6.02375 86.1007 5.81351 87.6837 5.81267 87.841C5.80935 88.7671 5.73575 90.6315 5.78044 91.1798C5.93941 93.139 6.27127 91.5965 5.55096 93.2629C5.72726 93.9966 5.90596 94.7243 6.0773 95.5021C5.91751 94.983 5.68693 97.0898 5.70183 97.2378C5.82191 98.4624 6.10218 97.733 6.05582 99.2857C5.40837 97.235 5.97237 101.289 5.98893 102.193C6.06921 106.546 5.90764 110.503 5.91178 114.878C5.91348 116.343 6.05034 118.306 6.04703 119.855C6.04683 120.216 5.89361 119.943 5.8903 120.261C5.88803 120.579 6.06004 120.227 6.05093 120.589C5.9913 122.841 5.66675 124.605 6.07242 126.669C6.01376 126.769 5.96742 126.766 5.90299 126.932C6.26642 128.621 5.77768 131.872 5.71062 133.094C5.60636 135.006 5.85202 135.494 5.80241 136.883C5.73618 138.719 5.25626 141.476 6.04849 140.245C6.07332 141.505 6.08018 142.718 6.0065 143.99C5.99815 144.132 5.79679 144.034 5.79265 144.091C5.76374 144.45 5.94403 144.567 5.95231 144.809C5.97458 145.467 5.7587 144.394 5.81901 145.331C5.8513 145.826 6.00855 146.107 6.01187 147.48C6.0137 148.347 6.01471 149.223 6.01503 150.105C5.90068 153.727 9.2178 157.21 13 157.13C15.4949 157.141 17.977 157.151 20.4178 157.158C21.0005 157.16 20.6169 156.965 21.3477 156.978C23.8865 157.021 28.431 157.348 30.6202 157.304C32.8093 157.259 32.3154 156.974 33.6854 156.855C33.95 156.832 33.733 156.994 33.9724 156.997C35.582 157.012 37.501 157.265 38.8051 157.303C39.6674 157.328 39.5984 157.073 40.1966 157.055C41.0881 157.028 42.0055 157.286 42.4812 157.294C44.7173 157.331 46.2546 157.123 48.3428 157.229C48.2611 157.173 48.2072 157.121 48.138 157.066C50.6105 157.075 53.0799 157.084 55.5524 157.093C55.4358 157.042 55.3231 156.99 55.2066 156.938C58.1075 156.966 57.7765 157.522 57.5214 156.347C57.7324 156.306 57.956 156.258 58.1575 156.22C58.0756 156.825 59.8305 157.268 62.0636 157.422C62.2274 157.434 63.3264 156.843 63.2068 157.541C63.4934 157.37 63.6642 157.252 63.9067 157.103C64.102 157.19 64.2984 157.277 64.4949 157.363C64.7003 157.486 64.9127 157.601 65.1345 157.706C65.3251 157.659 65.5177 157.605 65.7018 157.543C65.7078 157.404 65.6646 157.268 65.7001 157.126C66.5321 157.023 68.2078 156.455 68.7332 155.991C70.1211 154.937 70.6872 153.317 71.4198 152.222C71.5456 151.6 71.1526 152.138 71.365 151.252C71.5158 151.172 71.6587 151.093 71.8112 150.997C71.5606 150.58 71.5028 150.365 71.5321 150.105C71.5609 149.726 71.6888 149.301 71.7536 148.551C71.8397 147.559 71.6914 146.909 71.7204 145.965C71.7278 145.725 71.9058 145.759 71.9 145.595C71.8817 145.047 71.6367 143.482 71.63 143.094C71.5655 139.585 71.593 136.571 71.6584 133.229C71.665 132.87 71.4893 133.336 71.4967 132.964C71.5084 132.366 71.7784 132.718 71.7917 132.371C71.8271 131.405 71.5424 131.398 71.5275 130.05C71.4787 125.612 71.6925 120.509 71.7116 115.873C71.7116 115.728 71.5448 115.736 71.5431 115.579C71.535 114.552 71.7604 113.513 71.758 112.581C71.7547 111.034 71.5203 109.872 71.5212 108.344C71.522 105.358 71.642 102.69 71.6486 99.6187C71.6544 97.105 71.6321 94.922 71.633 92.1658C71.6363 80.1265 71.1069 67.8413 71.3884 55.7202C71.3958 55.4117 71.5432 55.5373 71.5368 55.4432C71.473 54.5486 71.2742 54.4688 71.6906 54.1507C71.6085 53.0111 71.2957 52.6514 71.318 51.2753C71.3298 50.5418 71.8146 51.0894 71.5646 49.8485C71.3386 48.7279 71.0729 49.9645 71.3444 46.6323C71.3519 46.5441 71.6474 46.1099 71.5705 45.417C71.4943 44.7208 71.2827 45.5266 71.2189 43.8508C71.0699 39.9167 71.3254 34.9369 71.2468 30.3634C71.2418 30.0767 71.0838 27.3161 71.0109 26.7712C70.8694 25.7166 70.6497 25.9369 70.5959 24.5672C70.5545 23.5088 70.8033 22.6355 70.7536 21.3913C70.7476 21.2464 70.4917 21.0036 70.5256 20.0686ZM1.99889 131.172C1.74781 130.914 0.823649 130.448 1.10489 128.886C1.13138 128.738 1.76692 129.537 1.86804 128.674C1.9351 129.519 1.95682 130.341 1.99987 131.172C1.99954 131.172 1.99922 131.172 1.99889 131.172ZM76.4184 13.2988C76.372 14.4675 76.3261 15.64 76.2797 16.8087C76.1679 16.0024 76.0564 15.1948 75.9438 14.3916C76.1019 14.0262 76.2603 13.6641 76.4184 13.2988ZM71.9268 158.861C71.9278 158.86 71.9288 158.859 71.9298 158.858C70.9333 159.862 69.7316 160.698 68.3947 161.289C68.5101 161.156 68.6221 161.021 68.7293 160.884C69.7249 160.345 70.6214 159.665 71.3844 158.89C71.5637 158.885 71.7447 158.875 71.9268 158.861ZM75.0503 149.07C75.1546 148.286 75.3305 148.478 75.5019 148.046C75.5016 148.046 75.5013 148.046 75.5009 148.046C75.5456 147.932 75.5846 147.402 75.5913 147.197C75.4812 147.272 75.3724 147.37 75.2632 147.452C74.9966 145.622 75.9439 142.043 76.3256 146.676C76.1865 146.607 76.0482 146.541 75.9091 146.472C75.948 148.774 75.6464 151.341 75.0503 149.07ZM1.59852 112.657C1.14315 110.692 1.04714 110.061 1.35927 107.677C1.48834 108.014 1.61739 108.351 1.74646 108.687C1.61482 109.081 1.48408 109.472 1.35244 109.866C1.35244 109.867 1.35244 109.868 1.35244 109.869C1.4907 109.948 1.6292 110.027 1.76746 110.103C1.71116 110.953 1.65481 111.807 1.59852 112.657ZM75.3794 73.8288C76.2888 73.281 75.7602 73.439 75.9653 75.0038C76.0365 75.5456 76.1956 75.0176 76.2221 75.3547C76.3668 77.1748 75.7575 77.3203 75.4404 76.9141C75.4189 75.884 75.3992 74.8433 75.3794 73.8322C75.3794 73.831 75.3794 73.8299 75.3794 73.8288ZM75.1904 26.605C75.1904 26.6039 75.1904 26.6028 75.1904 26.6016C75.4122 26.5544 75.4719 27.2881 75.6821 26.4606C75.6813 27.0902 75.6795 27.7197 75.6787 28.3524C75.658 28.1668 75.6383 27.9773 75.6176 27.7918C75.5415 27.9556 75.4643 28.1198 75.3882 28.2836C75.6431 28.5072 75.4949 28.715 75.4096 29.3763C75.682 29.1936 75.9546 29.0118 76.227 28.8291C76.1459 29.5975 76.0645 30.3688 75.9833 31.1372C75.9147 31.1466 75.8459 31.1563 75.7773 31.1657C75.865 31.4554 75.9537 31.7422 76.0414 32.0319C75.9595 32.1106 75.8783 32.1865 75.7963 32.2652C75.8584 32.6147 75.9204 32.9648 75.9833 33.3143C75.7848 33.4207 75.699 32.6504 75.7495 34.016C75.5458 33.5971 75.3428 33.1791 75.1391 32.757C75.1557 30.7064 75.173 28.6556 75.1904 26.605ZM75.6591 88.065C75.6211 85.8066 75.7649 86.4426 76.2153 86.9655C76.0299 87.3308 75.8445 87.6997 75.6591 88.065ZM25.8866 160.868C25.2314 161.175 24.5735 161.479 23.9025 161.776C22.5669 161.947 21.2308 161.387 22.2357 161.168C23.4452 160.905 24.7085 161.199 25.8866 160.868ZM2.09996 148.28C1.95752 149.915 1.59254 148.377 1.37978 148.009C1.72172 147.556 1.69156 146.926 1.73133 145.914C1.75349 146.864 2.12414 148.01 2.10094 148.28C2.10061 148.28 2.10028 148.28 2.09996 148.28ZM52.1834 161.213C52.8383 161.204 53.4896 161.118 54.0752 161.223C53.8986 161.516 52.7272 161.249 53.5649 161.684C53.1461 161.692 52.7267 161.699 52.311 161.707C52.5752 161.527 52.2198 161.392 52.1851 161.214C52.1846 161.214 52.184 161.214 52.1834 161.213ZM76.0053 109.947C75.6576 111.232 75.8064 111.476 76.0473 112.77C75.7642 112.953 75.2899 111.409 75.1855 110.442C75.4587 110.278 75.7321 110.114 76.0053 109.947ZM41.105 1.63463C40.7964 1.99552 38.5198 2.04258 37.3886 1.93589C37.5233 1.88237 37.6585 1.82813 37.7932 1.77379C38.8957 1.72742 40.0025 1.681 41.105 1.63463ZM1.75574 145.432C1.74517 145.601 1.73728 145.762 1.73133 145.914C1.72739 145.745 1.73354 145.582 1.75574 145.432ZM3.32207 77.0057C3.66231 77.5442 3.77662 75.9437 3.64334 77.887C3.64366 77.887 3.64399 77.887 3.64432 77.887C3.55655 79.1722 3.53312 79.4559 3.50663 80.6466C3.06954 80.218 2.91331 77.8024 2.82307 81.1317C2.82267 81.1756 3.08275 81.0883 3.04718 81.6202C3.03612 81.7844 2.82267 82.3099 2.76057 83.1091C2.7407 83.3674 2.67487 85.3084 2.67073 82.6626C2.36605 82.7413 2.05766 82.5992 1.76209 82.6055C1.67618 81.5727 2.27279 80.779 2.25815 79.6864C2.23497 78.0642 1.63167 77.2387 2.42319 76.9268C2.61765 78.2909 2.62233 80.6332 2.14634 80.9387C2.14055 82.2583 2.53052 82.6373 2.72346 81.5732C2.47839 77.0152 3.30233 80.3219 2.99103 76.3309C2.88095 76.2837 2.76248 76.1196 2.65901 76.1446C3.0464 74.9264 3.20037 76.8136 3.32207 77.0057ZM2.48031 86.5368C2.24766 85.7493 2.01314 84.9644 1.77966 84.18C2.15885 84.1801 2.49912 84.6125 2.71272 85.8536C2.63496 86.0802 2.55725 86.3102 2.48031 86.5368ZM2.38071 20.2928C2.17456 20.1794 1.98564 19.8771 1.78943 19.6566C1.96329 19.4172 2.13008 13.7471 2.30063 16.6318C2.32547 17.0508 1.96094 19.6061 2.38071 20.2928ZM75.6948 101.024C75.5565 101.691 75.418 102.357 75.2798 103.021C75.1921 101.998 75.102 100.974 75.0127 99.9511C75.24 100.31 75.4675 100.665 75.6948 101.024ZM15.0161 160.506C15.2981 160.514 14.3613 160.798 15.4726 160.753C14.6442 160.934 13.8684 161.088 13.0588 161.258C13.0392 161.247 13.0196 161.237 13 161.226C12.7502 161.102 12.5114 160.971 12.2788 160.832C12.07 160.905 11.8544 160.971 11.6365 161.03C11.7842 160.852 11.9132 160.674 12.0546 160.487C12.4246 160.633 12.7313 160.689 13 160.7C13.6906 160.73 14.1028 160.482 15.0161 160.506ZM55.5725 159.742C55.8178 160.167 53.8428 160.419 55.7857 160.487C55.4172 160.766 54.8246 160.913 53.6875 160.937C53.5049 160.831 53.3228 160.725 53.1402 160.618C53.115 160.904 52.8224 161.01 52.1834 161.213C52.1829 161.213 52.1823 161.213 52.1818 161.212C50.453 161.233 50.5563 161.138 50.1406 160.668C51.9707 160.933 52.0254 160.504 53.2728 160.249C54.1295 160.074 55.2481 160.153 55.5725 159.742ZM2.38559 26.3341C2.02712 25.0399 1.69277 26.2013 2.07359 23.9051C2.16467 24.0532 2.25497 24.2019 2.34604 24.35C2.36011 25.0113 2.37317 25.6727 2.38559 26.3341ZM61.9596 161.198C61.8115 160.54 60.593 160.029 60.385 161.098C61.5726 161.316 60.9926 160.71 61.9596 161.198ZM3.1292 148.838C3.12125 149.43 3.0655 149.839 2.98081 150.105C2.79435 150.724 2.43665 150.603 2.15761 150.105C2.09514 150 2.03689 149.88 1.98571 149.751C2.12066 149.606 2.25586 149.461 2.38998 149.319C2.32872 148.919 2.26733 148.519 2.20689 148.119C2.51405 148.359 2.82204 148.598 3.1292 148.838ZM74.8657 128.091C75.3352 129.836 75.1268 126.207 75.4199 127.426C75.6542 128.4 75.1812 129.682 74.8848 129.197C74.8765 128.86 74.8707 128.485 74.8657 128.094C74.8657 128.093 74.8657 128.092 74.8657 128.091ZM75 138.189C75.5016 137.903 75.3554 138.316 75.2651 136.937C75.2394 136.543 75.4278 133.415 75.0122 134.728C75.0122 135.846 75.005 137.027 75 138.189ZM2.39535 122.442C2.61378 122.421 3.09339 124.83 2.97345 125.139C2.97378 125.139 2.9741 125.139 2.97443 125.139C2.6474 125.974 2.60093 123.433 2.1522 124.535C2.54706 122.094 1.59197 121.364 2.85041 121.534C2.90562 122.972 2.6462 122.291 2.39535 122.442ZM70.753 4.77184C70.754 4.77254 70.7549 4.77324 70.7558 4.77394C70.6525 4.65005 69.6391 3.63157 69.8268 3.63012C71.2441 4.63494 70.836 4.60131 72.2432 5.4485C72.225 5.5898 72.1981 5.71861 72.1787 5.86289C71.7008 5.45773 71.3722 5.31861 70.753 4.77184ZM2.82111 14.1626C2.87824 14.7516 2.64152 15.8266 2.6556 16.4975C1.74653 14.3619 2.59424 11.8098 2.82111 14.1626ZM75.2217 48.6919C75.222 48.6936 75.2223 48.6953 75.2226 48.6969C75.2221 48.6965 75.2217 48.6957 75.2212 48.6953C75.2213 48.6941 75.2215 48.693 75.2217 48.6919ZM2.27573 59.8086C2.33474 59.7326 2.386 59.6897 2.431 59.6743C2.43523 59.6743 2.43946 59.6743 2.44369 59.6743C2.38844 59.7153 2.33256 59.759 2.27573 59.8086ZM2.32944 117.435C2.63406 116.431 3.11834 119.774 3.00275 120.856C2.86371 120.78 2.73766 120.768 2.57796 120.592C2.93801 119.719 2.27811 117.602 2.32944 117.435ZM40.8462 160.663C38.2034 160.655 41.6428 159.452 41.7846 160.412C41.7792 160.431 40.9145 160.662 40.8462 160.663ZM2.45541 138.276C2.81956 138.949 2.91625 137.596 2.85334 139.76C2.75902 139.886 2.66447 140.012 2.57015 140.138C2.53208 139.517 2.49349 138.896 2.45541 138.276ZM23.5332 159.084C20.207 159.287 17.0258 159.645 19.1924 160.649C19.4441 160.617 19.6994 160.586 19.9511 160.554C19.9889 160.064 20.9179 160.331 22.2776 160.347C22.4715 160.153 23.2256 160.108 23.367 159.942C23.6407 159.623 22.7742 159.398 23.5332 159.084ZM74.272 66.3457C74.3556 66.3992 74.4397 66.4516 74.5225 66.5051C74.6169 67.0312 74.7108 67.5586 74.8052 68.0847C74.6447 67.9997 74.4842 67.9145 74.3238 67.8295C74.3064 67.3352 74.2889 66.8433 74.2715 66.349C74.2717 66.3479 74.2718 66.3468 74.272 66.3457ZM3.51395 89.7781C2.59354 89.476 2.76306 90.5319 3.22832 92.6737C3.32353 91.7098 3.41874 90.742 3.51395 89.7781ZM73.3693 153.066C73.6379 153.087 73.9065 153.104 74.178 153.111C74.2279 151.925 73.8486 152.108 73.3987 152.502C73.3944 152.691 73.3857 152.876 73.3693 153.066ZM73.7364 136.946C73.6818 137.417 73.893 137.177 73.8887 137.226C73.7778 138.42 73.6809 138.588 73.8399 140.053C73.8954 140.232 73.9537 140.409 74.0108 140.588C74.5587 139.911 74.2601 139.419 74.582 137.986C74.3941 138.245 74.2059 138.502 74.0171 138.76C74.0569 137.963 74.096 137.17 74.1358 136.373C74.0778 136.279 74.0204 136.184 73.9624 136.089C73.888 136.373 73.8042 136.665 73.7364 136.946ZM74.5098 60.2624C74.5313 59.4876 74.5537 58.7091 74.5752 57.9342C74.4403 57.9059 74.3044 57.8787 74.1695 57.8503C74.2829 58.6534 74.3964 59.4594 74.5098 60.2624ZM3.09454 73.8684C3.04667 73.807 2.99851 73.7471 2.94953 73.6939C3.00922 73.6991 3.05582 73.7662 3.09454 73.8684ZM71.7346 6.69998C72.2249 7.38748 72.933 8.37264 73.2689 9.23607C73.6077 9.01461 72.3514 6.94798 71.85 6.23241C71.7101 6.17262 71.5299 6.40795 71.7346 6.69998ZM3.27443 151.968C3.48097 152.15 3.69222 152.321 3.90685 152.476C4.01501 152.964 4.16231 153.447 4.34992 153.917C4.48242 153.875 4.61569 153.831 4.74772 153.788C3.81227 151.856 4.43164 152.148 4.63932 151.129C4.17331 151.377 3.71716 151.655 3.27443 151.968ZM73.6329 35.6073C73.7264 37.3114 73.9012 37.9158 74.3159 36.9552C74.2208 36.3537 74.1255 35.7488 74.0303 35.1473C73.8979 35.3017 73.7653 35.4561 73.6329 35.6073ZM3.40702 42.833C3.25204 41.4069 3.8087 41.3832 3.49784 39.9894C3.3952 40.7358 3.29141 41.4821 3.18877 42.2253C3.26135 42.4261 3.33444 42.6321 3.40702 42.833ZM4.93576 112.773C5.12941 112.172 4.20889 111.047 4.88839 109.356C4.68559 108.952 4.49188 108.7 4.29321 108.353C4.5093 108.152 4.72815 107.923 4.94259 107.731C4.94259 107.73 4.94259 107.728 4.94259 107.727C4.86973 106.193 4.59872 107.188 4.36938 107.153C4.27431 107.137 4.43323 105.998 4.22632 106.354C3.87113 106.968 4.07538 109.264 3.64236 109.27C3.78388 108.464 3.66562 106.889 3.37675 107.355C3.05968 107.865 3.59105 109.349 3.32793 110.294C4.02 108.94 3.80623 111.737 3.27471 112.055C3.68287 113.696 3.84938 112.187 3.83034 110.505C4.23768 111.532 4.01761 110.021 4.35619 109.772C4.56058 110.831 4.39021 114.465 4.93576 112.773ZM37.3866 158.919C36.2524 158.946 34.4804 158.713 33.7038 159.057C33.2515 159.257 35.0277 159.412 33.8029 159.727C34.908 159.696 35.1601 159.573 34.9712 159.297C35.223 159.264 35.478 159.232 35.7299 159.2C35.8464 159.253 35.9659 159.307 36.0824 159.36C36.2147 159.247 36.3477 159.134 36.4769 159.021C36.7444 159.043 37.015 159.066 37.2826 159.089C37.314 159.032 37.3677 158.982 37.3866 158.919ZM8.73685 4.3848C8.46721 4.52223 8.20669 4.67091 7.95193 4.83357C8.0156 4.87309 8.08571 4.91213 8.1533 4.95194C8.2044 4.98478 8.25516 5.01796 8.30559 5.05147C8.06436 4.93919 6.67339 5.51592 6.39282 6.11801C6.26109 6.4049 6.95691 6.18536 6.18312 7.12241C6.74386 6.44615 7.33445 5.86623 8.03981 5.36715C8.03505 5.50168 8.0364 5.63473 8.03721 5.7678C8.03771 5.76765 8.03821 5.76751 8.0387 5.76737C8.28036 5.63132 8.53087 5.50673 8.78221 5.39544C8.75365 5.06178 8.73682 4.72584 8.73685 4.3848ZM72.5854 153.663C72.3883 154.614 72.2613 154.965 72.8134 154.725C72.814 154.724 72.8147 154.723 72.8153 154.722C72.865 154.314 72.8857 153.912 72.8789 153.518C72.7818 153.568 72.6843 153.615 72.5854 153.663ZM4.2478 64.616C2.92066 62.3324 3.73422 67.4753 4.18628 66.4961C4.20698 66.452 4.10126 64.8302 4.2478 64.616ZM3.53739 148.418C3.54702 148.979 3.55582 149.541 3.56528 150.105C3.56639 150.168 3.56812 150.23 3.57047 150.293C3.64315 150.229 3.71633 150.166 3.79011 150.105C3.87915 150.025 3.96818 149.944 4.05738 149.865C3.88434 149.383 3.71043 148.9 3.53739 148.418ZM73.0304 43.0267C72.6661 43.6864 72.5341 45.38 72.9303 46.2076C72.9766 45.7729 73.0231 45.338 73.0694 44.9033C73.1149 45.7251 73.165 46.5377 73.2081 47.3658C73.7156 47.4099 73.4212 46.4555 73.5611 45.0191C73.5837 44.7967 74.2136 43.3749 73.7388 42.884C73.6412 42.7852 73.5749 44.2977 73.2911 43.2466C73.2688 43.7062 73.2737 44.1029 73.2613 44.5374C73.1404 44.5689 73.0194 44.6001 72.8985 44.6348C72.9423 44.0975 72.9866 43.5639 73.0304 43.0267ZM30.7831 158.959C29.2251 158.931 29.0327 159.134 28.7083 159.492C29.4328 159.452 30.1576 159.412 30.8821 159.371C30.8475 159.234 30.8176 159.097 30.7831 158.959ZM72.9142 56.9523C72.8555 57.8052 73.1473 57.4399 73.2027 57.7832C73.4113 59.0808 73.2028 59.9659 73.3336 61.2478C73.2773 61.1627 73.2246 61.0846 73.17 61.0027C73.17 61.0038 73.17 61.0049 73.17 61.0061C72.9241 67.0757 73.5857 63.8876 73.4781 60.2557C73.5866 60.1707 73.6952 60.089 73.8028 60.0039C73.6132 58.3786 73.4308 56.8798 72.9142 56.9523ZM4.29321 84.9052C4.3611 84.8359 4.79254 85.4249 4.59056 84.3194C3.96064 83.4438 4.27329 84.8797 4.03102 85.2392C3.97058 84.94 3.91178 84.6339 3.85134 84.3378C3.67333 86.127 3.82311 86.3881 4.28344 85.7361C4.31438 85.6895 4.22553 84.9746 4.29321 84.9052ZM4.60374 73.1466C3.67562 72.9009 4.09297 75.1589 4.3811 75.077C4.39258 74.7653 4.23544 74.523 4.30493 74.1924C4.37446 73.8586 4.59126 73.7732 4.60374 73.1466ZM4.3767 137.838C4.38084 137.772 4.77092 137.107 4.46556 137.173C3.74277 137.995 4.20801 139.652 4.45971 139.362C4.44726 138.814 4.3388 138.449 4.37768 137.838C4.37735 137.838 4.37703 137.838 4.3767 137.838ZM72.8116 32.7503C72.7857 32.7818 72.6289 34.4398 72.7745 34.6538C72.9384 34.8302 73.1141 34.9177 73.2838 35.05C73.1265 34.1365 73.2463 32.2875 72.8116 32.7537C72.8116 32.7526 72.8116 32.7514 72.8116 32.7503Z" fill="#000F55"/>
</svg>
