<svg width="301" height="141" viewBox="0 0 301 141" fill="none" xmlns="http://www.w3.org/2000/svg">
<path d="M82.9076 0.816124C81.0054 0.455357 87.3554 0.691848 83.1388 0.153071C84.0181 0.116669 84.9028 0.0791259 85.782 0.0427246C86.005 0.242258 86.2335 0.441306 86.4565 0.640839C85.2757 0.699596 84.0943 0.758343 82.9076 0.8171C82.9076 0.816775 82.9076 0.816449 82.9076 0.816124ZM81.2953 3.31502C82.3775 2.74591 85.8156 2.59417 82.1014 2.06899C81.8062 2.26431 81.5038 2.45958 81.2086 2.6549C79.919 2.50341 78.6216 2.35197 77.3321 2.20131C76.8683 2.27577 76.4052 2.35032 75.9414 2.42395C75.3508 2.08455 74.7655 1.74422 74.175 1.40399C74.6993 1.45366 75.2308 1.5042 75.7551 1.55388C77.8281 1.27826 79.6726 1.20288 82.4868 1.15156C82.2397 1.07125 81.992 0.991644 81.7449 0.911334C83.1732 1.04793 84.6007 1.18487 86.0229 1.32147C84.7877 1.45556 83.4067 1.60468 82.262 1.72965C84.0938 2.26183 87.3248 1.96564 89.0066 1.85465C91.2967 1.70314 90.7792 1.95619 92.4784 1.85025C92.7496 1.8337 92.7804 1.63535 93.3167 1.632C96.0228 1.61627 101.279 1.7214 98.2049 2.18422C93.751 2.12461 89.9525 2.49626 85.5829 2.36048C86.7388 2.89563 84.4369 3.07773 81.2953 3.31502ZM163.117 1.61101C161.767 1.87092 159.018 1.76603 157.156 1.58562C157.153 1.58562 157.151 1.58562 157.149 1.58562C156.739 1.54588 155.811 1.20047 157.149 1.21454C159.33 1.23866 160.385 1.78238 161.53 1.41326C162.042 1.48198 162.58 1.54312 163.117 1.61101ZM167.857 1.57878C169.195 1.71207 168.588 2.12177 166.913 2.01089C166.913 2.01121 166.913 2.01154 166.913 2.01187C166.214 1.9655 167.586 1.64167 165.079 1.97036C164.567 1.71465 164.063 1.482 163.557 1.23456C164.17 1.23042 164.73 1.22371 165.374 1.2204C164.941 1.64072 166.519 1.44653 167.857 1.57878ZM100.466 1.95279C100.676 1.57465 99.7953 1.57704 98.2948 1.31463C99.711 1.32705 101.127 1.3403 102.537 1.35272C101.845 1.55299 101.159 1.75251 100.466 1.95279ZM67.1959 1.8942C67.1938 1.8942 67.1917 1.8942 67.1895 1.8942C66.7255 1.9538 66.2601 2.01363 65.8021 2.07241C65.5248 1.93745 65.2507 1.80309 64.9734 1.66813C63.3341 1.79481 61.6861 1.92147 60.0467 2.04897C60.2459 1.63673 63.1885 1.70381 64.8096 1.4157C67.2202 1.5399 68.3817 1.77919 68.5384 2.12856C68.0926 2.05076 67.6478 1.97199 67.1959 1.8942ZM260.656 138.949C260.108 139.064 259.566 139.178 259.018 139.292C259.747 139.344 260.47 139.384 261.205 139.445C263.128 138.948 263.308 139.387 265.827 139.357C273.547 139.262 271.499 138.491 278.471 139.621C272.873 139.567 275.024 140.098 271.65 140.507C270.951 140.196 274.295 139.494 272.029 139.348C268.124 139.677 264.369 139.984 260.036 140.197C260.163 140.251 260.289 140.305 260.415 140.359C261.102 140.325 261.783 140.29 262.471 140.257C261.729 140.401 261.005 140.543 260.251 140.689C261.203 140.362 258.777 140.545 259.101 140.169C259.246 140.002 260.319 139.77 260.951 139.61C259.318 139.523 257.644 139.444 255.993 139.359C256.848 139.226 257.703 139.092 258.552 138.959C259.251 138.955 259.944 138.952 260.643 138.948C260.647 138.949 260.652 138.949 260.656 138.949ZM0.751561 40.3381C1.14069 42.4114 1.20508 46.179 0.772068 48.1618C0.765444 45.5522 0.758184 42.9478 0.751561 40.3381ZM68.6958 2.41663C68.461 2.35048 68.2336 2.28504 67.9989 2.21889C69.0353 2.09638 70.0778 1.97471 71.1142 1.85221C71.313 2.04338 71.5164 2.23459 71.7212 2.42493C70.7151 2.42245 69.702 2.41911 68.6958 2.41663ZM135.005 2.20375C134.246 2.21532 134.179 2.20905 133.235 2.18178C133.236 2.18194 133.237 2.1821 133.238 2.18227C132.864 2.17208 129.732 2.06042 130.081 1.91324C131.636 1.91075 133.295 1.91324 134.886 1.91324C134.934 2.01005 134.944 2.10611 135.005 2.20375ZM116.701 2.11782C116.699 2.11749 116.697 2.11717 116.695 2.11684C116.129 2.09448 115.593 2.04897 115.009 2.04067C117.111 1.80902 117.444 2.22463 119.354 2.10708C121.264 1.98869 122.445 1.75938 124.066 2.32874C123.463 2.41402 122.814 2.53602 122.193 2.63537C119.481 2.40771 118.751 2.62195 116.576 2.8463C116.618 2.60292 116.659 2.36119 116.701 2.11782ZM295.549 137.445C295.833 136.852 296.482 136.583 296.536 136.529C296.535 136.53 296.535 136.531 296.534 136.532C298.201 134.446 297.944 134.485 297.939 134.733C297.849 134.927 297.983 135.313 299.093 132.99C298.865 133.724 298.571 134.432 298.204 135.113C297.432 136.034 296.496 136.829 295.549 137.445ZM277.912 2.3595C277.87 2.27754 277.82 2.19539 277.777 2.11342C280.381 2.13246 281.045 1.80979 283.208 2.10366C281.443 2.18974 279.678 2.27522 277.912 2.36048C277.912 2.36016 277.912 2.35983 277.912 2.3595ZM148.128 2.79991C145.241 2.95639 143.105 3.02534 140.333 2.77696C140.331 2.77664 140.328 2.77631 140.326 2.77599C140.167 2.7607 140.94 2.58922 140.731 2.54602C140.159 2.57167 139.568 2.6111 138.99 2.64172C138.912 2.50439 138.837 2.3671 138.759 2.2306C140.386 2.26951 142.014 2.30839 143.647 2.3473C143.406 2.26699 143.159 2.18738 142.918 2.10708C144.304 2.06569 145.685 2.02445 147.071 1.98306C146.589 2.20818 146.108 2.43335 145.632 2.65929C146.463 2.70647 147.296 2.75191 148.128 2.79991ZM298.927 31.4506C299.017 30.9925 299.167 31.8406 299.244 31.1294C299.32 30.4181 299.153 29.1071 299.405 29.4144C299.439 30.3719 299.478 31.3775 299.514 32.353C299.969 29.2132 299.557 26.0806 300.119 26.0324C299.973 29.0459 300.041 31.5236 300.197 34.4407C299.751 34.3201 299.365 31.4024 298.946 33.2395C298.94 32.6493 298.932 32.0291 298.928 31.457C298.928 31.4548 298.928 31.4527 298.927 31.4506ZM26.5198 8.01206C24.7358 7.97811 20.6483 8.16022 18.3942 7.90024C17.8396 7.83618 15.992 7.00627 16.0015 6.89688C16.0557 6.52845 18.312 6.47831 15.8955 6.23822C16.7084 6.23572 17.4973 6.22189 18.3042 6.21527C18.1596 5.96772 18.0157 5.72082 17.8771 5.4741C16.8947 5.51135 15.9111 5.5488 14.9287 5.58688C14.8805 5.50492 14.8325 5.42277 14.7842 5.3408C18.316 5.33915 16.2312 5.02279 18.0633 4.72804C16.3762 4.57904 14.6765 4.43077 12.9953 4.28177C13.9655 4.29998 15.1104 4.31347 15.9661 4.33499C16.0806 3.91527 14.0389 4.01534 13.689 3.93755C11.7184 3.49795 21.7515 3.71982 22.5726 3.10898C20.9698 3.0411 19.288 2.97486 17.6491 2.90782C18.1191 2.83248 18.5953 2.75709 19.0654 2.68175C22.7836 3.10306 26.9532 3.25231 31.2859 3.51472C31.6774 3.49735 32.0696 3.47951 32.455 3.46297C32.3405 3.27344 32.2322 3.08464 32.1178 2.89512C32.7084 2.87277 33.3064 2.85059 33.897 2.82823C32.1556 3.45243 34.5671 3.44393 37.4781 3.82476C35.9295 4.04413 34.019 3.91113 34.1508 4.31986C39.4659 4.00539 45.6907 4.4498 50.8612 4.09477C52.1447 4.00702 52.1407 3.47976 55.1585 3.52839C55.0561 3.58635 55.0385 3.69098 54.9722 3.76715C60.1916 3.51463 63.3582 3.36367 68.7825 3.62116C68.4693 3.43166 68.1612 3.24136 67.8479 3.05185C66.6968 3.14624 65.5437 3.24212 64.3985 3.33651C63.6152 3.02357 64.7729 2.88547 61.3378 2.88877C58.5232 2.89126 60.1987 3.02943 59.4332 3.12216C58.3968 3.24875 57.4873 2.99972 56.3725 3.1412C55.5107 3.24966 56.443 3.50787 54.195 3.44246C55.0991 3.10797 56.0213 2.76258 56.9314 2.42395C57.4798 2.4993 58.024 2.5758 58.5725 2.65197C58.018 2.74139 57.473 2.82963 56.9185 2.91905C58.8711 2.75844 60.716 2.60696 62.7349 2.44055C62.078 2.92407 64.1647 2.74279 65.2978 2.68566C67.0629 2.59634 65.5507 2.92911 66.7078 2.87364C67.8649 2.81731 69.1128 2.44554 71.2041 2.52502C70.0833 2.74025 71.608 2.93326 71.3133 3.13193C71.0181 3.33059 68.806 3.37458 70.9311 3.59138C75.0173 3.42662 70.5833 2.67005 73.3431 2.54748C76.6576 2.40012 77.4465 3.63338 76.4585 3.89849C75.681 4.10713 73.0058 4.06517 72.2222 4.27298C77.0136 4.64802 77.0552 3.90764 77.8748 3.76275C80.852 3.2354 78.8521 4.64294 82.3776 4.13383C82.3114 4.39705 82.2576 4.63378 82.1914 4.88623C82.7997 4.83822 83.2036 4.77441 83.9385 4.73634C81.7712 4.22348 83.5452 4.24547 84.4556 4.24466C85.89 4.24301 83.6745 3.99285 84.0541 3.92827C85.0788 3.75546 86.6991 3.83393 85.705 3.60798C86.151 3.71313 86.6344 3.81858 87.0924 3.9229C88.7682 3.79189 92.7068 2.69328 88.9584 2.91514C89.308 2.50697 90.5205 2.70315 91.4667 2.76525C92.4127 2.82728 92.3951 2.56733 93.2268 2.61535C96.5351 2.80744 94.3709 3.2521 93.8466 3.60065C98.2159 3.36057 93.9383 3.20172 100.235 3.04111C100.843 2.75713 97.9341 2.45411 100.357 2.29017C100.803 2.78352 102.587 3.13793 106.064 3.30184C106.401 3.18841 106.738 3.07398 107.076 2.96055C108.974 3.41591 108.004 3.88943 111.517 3.32479C109.631 4.36383 110.928 3.6991 114.074 4.12211C114.713 4.20739 113.237 4.42296 114.129 4.53225C114.533 4.58153 115.514 4.41881 116.502 4.54445C116.984 4.60654 119.238 5.00718 120.799 4.8169C119.654 4.31351 122.62 3.88528 120.077 3.46882C124.778 3.57149 128.068 3.3298 122.8 4.01616C123.993 4.1685 125.188 4.32019 126.381 4.4717C127.213 4.35165 128.052 4.23255 128.889 4.11332C129.016 4.52705 128.889 4.64311 132.165 4.57033C130.744 4.66798 129.328 4.76725 127.9 4.86573C127.852 4.94927 127.653 5.03611 127.701 5.11718C129.45 4.95828 134.373 4.88989 135.567 4.77979C136.76 4.66968 134.455 4.63954 134.799 4.53274C137.661 3.65202 137.434 4.30158 139.488 4.15043C140.693 4.06101 137.815 3.96392 138.46 3.92583C140.851 3.78625 141.961 4.25432 144.081 4.26029C143.328 3.9946 142.581 3.72478 141.845 3.45662C144.069 3.47069 146.548 3.47305 148.616 3.38777C149.427 3.35448 148.814 3.15688 148.947 3.14365C149.604 3.07575 152.28 2.96821 152.563 2.96738C154.695 2.96581 154.756 3.23949 156.828 3.25448C156.015 3.27765 155.25 3.29854 154.455 3.32088C154.093 3.7646 153.724 4.2083 153.363 4.65285C155.393 4.68513 157.425 4.71675 159.462 4.74903C157.973 4.60086 156.479 4.45338 154.991 4.30521C157.317 3.94673 159.644 3.58742 161.97 3.22811C163.181 3.44833 164.388 3.6685 165.599 3.88873C168.889 3.83063 168.226 2.93669 169.787 3.71979C170.757 3.65358 171.727 3.58742 172.697 3.52204C172.558 3.63378 172.421 3.74574 172.283 3.85748C173.452 3.78876 174.621 3.72049 175.79 3.65094C174.561 3.25524 173.355 2.83883 172.138 2.45471C174.439 2.36873 174.483 2.70442 174.826 2.78819C175.736 3.01008 177.543 2.71079 178.266 2.91612C178.511 2.98661 176.256 3.2076 177.033 3.46248C177.185 3.51188 180.204 4.44879 182.13 4.23246C182.094 4.06273 181.945 3.85462 181.866 3.66999C184.457 3.5669 185.778 4.45285 185.435 4.70118C186.815 4.52733 188.832 4.5128 189.115 4.24125C189.82 4.23462 190.52 4.22834 191.225 4.22172C190.491 4.88309 193.432 4.76215 193.624 4.1934C192.413 4.17932 191.2 4.16451 189.989 4.15043C190.905 3.45332 187.224 3.03254 194.883 3.67829C196.348 4.04092 192.28 3.62888 193.474 3.90044C195.547 4.0585 197.493 3.92625 199.463 4.17875C201.915 4.49417 198.898 4.79755 204.612 4.39602C192.01 3.3901 206.34 3.71648 212.259 3.40437C213.886 4.3979 218.884 4.71259 225.767 4.41702C225.05 4.14051 222.885 4.28297 221.637 4.19193C220.39 4.10087 221.739 3.93682 220.185 3.80767C218.631 3.67856 215.329 3.50302 213.755 3.3077C215.088 3.1512 221.667 2.78121 217.317 3.22567C220.564 3.49966 222.089 3.78121 226.114 3.83258C227.319 3.40124 227.23 3.13265 231.153 3.12021C228.833 3.71959 233.291 4.13616 232.309 4.75538C229.527 4.61116 231.082 4.00932 229.473 3.72125C229.308 3.69246 226.716 3.84333 226.114 3.83258C228.73 4.37322 229.634 4.57445 228.025 5.21776C229.875 5.16146 231.026 5.24223 231.195 4.93506C231.581 5.06832 231.968 5.20169 232.348 5.33494C232.95 5.33162 233.492 5.31929 234.13 5.32176C233.251 4.85842 234.955 5.14365 236.167 4.9336C237.378 4.7233 235.753 4.35754 239.08 4.35257C237.971 4.24411 236.957 4.15105 235.884 4.04839C238.029 3.92918 240.181 3.80921 242.327 3.69C240.82 3.4069 237.555 2.98637 237.644 2.61389C238.632 2.75452 242.017 2.50736 242.388 2.49719C243.822 2.45911 243.04 2.69402 243.149 2.69982C245.402 2.81398 247.259 2.73399 248.114 3.08994C249.808 2.92934 251.085 3.0209 252.88 3.01182C253.869 3.00685 253.677 2.74541 254.255 2.79503C258.1 3.12618 254.437 3.46403 261.854 2.82091C260.956 2.63878 260.07 2.45247 259.172 2.26869C260.01 2.19997 260.843 2.13087 261.68 2.06216C262.241 2.09527 262.796 2.12864 263.357 2.16176C263.345 2.55665 263.33 2.95236 263.318 3.34725C263.933 3.36877 264.55 3.38968 265.165 3.41121C264.11 3.45012 263.053 3.48899 261.998 3.5279C261.902 3.59739 261.812 3.6669 261.716 3.73639C263.283 3.84402 264.844 3.95262 266.411 4.06108C266.441 3.92371 266.471 3.78538 266.501 3.64801C270.033 3.83926 270.117 3.95555 273.474 3.57722C276.059 3.58136 278.165 3.007 279.659 2.76525C280.196 2.84222 280.733 2.92019 281.275 2.99717C281.619 2.88291 281.966 2.76916 282.309 2.6549C282.99 2.81385 283.68 2.97283 284.361 3.13095C284.741 2.77017 284.938 2.65753 282.28 2.53088C282.986 2.18311 285.954 2.22377 288.141 2.32981C288.883 2.3599 289.542 2.46923 290.027 2.58336C291.642 3.01604 289.76 3.0201 289.965 3.11457C290.616 3.2907 293.123 4.06196 293.565 4.43561C295.515 5.70623 296.672 6.94014 297.641 8.77662C297.842 9.13663 298.066 10.2566 298.077 10.3465C298.339 11.038 298.548 12.8148 298.531 13.0157C298.56 13.3834 298.57 13.7249 298.566 14.0427C298.475 22.2741 299.429 12.7046 299.324 21.626C299.46 21.3489 299.595 21.0941 299.73 20.8231C299.739 21.5218 299.747 22.228 299.755 22.9267C299.641 23.8127 299.435 22.7408 299.602 24.5004C299.434 24.3859 299.267 24.2709 299.101 24.1504C299.191 24.9158 299.28 25.6536 299.371 26.4371C298.79 27.6666 298.658 32.155 297.977 31.836C297.745 31.7275 297.507 28.5454 297.26 30.2269C297.211 31.5932 297.488 30.6684 297.503 31.2257C297.604 35.2518 297.215 35.0178 297.319 36.6632C297.485 36.9222 297.655 37.1946 297.823 37.4597C297.774 38.0801 297.725 38.7024 297.676 39.3289C297.788 39.4735 297.9 39.6242 298.012 39.7689C298.019 39.1843 298.027 38.526 298.034 37.9896C298.467 38.7376 298.662 45.6063 298.293 42.987C298.143 41.9203 298.206 39.9668 297.695 41.2013C297.769 43.0394 297.844 45.1249 297.918 47.0594C297.807 47.1197 297.697 47.1758 297.587 47.2361C297.658 49.8433 298.099 47.4721 298.335 47.4769C298.341 48.0733 298.347 48.6759 298.354 49.2723C298.247 49.5251 298.135 49.7654 298.032 50.0303C298.202 50.0545 298.596 50.3885 298.45 52.166C298.354 53.3089 297.926 51.5091 297.985 53.6884C298.25 53.5255 298.573 52.7383 298.658 55.1658C298.382 55.4068 298.129 55.7401 297.838 55.9269C298.104 58.9458 297.677 60.3195 297.985 63.863C298.181 66.111 298.874 69.1904 297.806 70.6429C297.778 72.2873 298.044 71.7654 298.104 72.252C298.387 74.5483 297.88 76.2562 297.85 76.6841C297.659 79.4132 297.835 80.6367 297.595 82.8602C297.793 82.7397 297.981 82.6741 298.173 82.5776C297.877 80.5405 297.891 79.5088 297.955 76.652C297.994 77.6101 298.035 78.5685 298.075 79.5265C298.235 79.3698 298.396 79.2146 298.556 79.064C297.923 70.2285 298.923 72.2896 299.141 79.6967C298.844 80.3354 298.548 80.9974 298.25 81.6302C298.7 85.9091 298.309 87.9227 298.215 92.7619C298.205 93.3372 298.376 95.4327 298.384 96.3333C298.385 96.3183 298.387 96.3033 298.388 96.2884C298.668 96.8487 298.798 96.0898 299.048 95.9993C299.08 96.4874 299.111 96.9758 299.143 97.4638C298.951 98.5539 298.794 98.1707 298.84 100.316C299.03 100.027 299.221 99.7411 299.411 99.4519C299.418 101.802 299.211 103.341 299.3 105.528C299.228 105.161 299.156 104.798 299.084 104.43C298.9 109.191 297.781 105.402 298.338 109C298.24 109.229 298.142 109.452 298.044 109.681C298.02 108.199 297.997 106.716 297.973 105.239C297.835 105.209 297.697 105.177 297.559 105.153C297.6 106.738 297.643 108.33 297.684 109.916C297.591 108.758 297.499 107.595 297.406 106.437C297.34 108.275 297.273 110.114 297.207 111.952C297.715 110 297.778 112.53 298.281 112.055C297.862 115.309 297.31 117.866 297.663 122.91C297.734 123.91 298.085 123.367 297.657 126.205C298.098 125.664 298.355 127.755 298.704 128.444C298.797 128.641 298.895 128.736 299.01 128.633C299.01 128.57 299.009 128.507 299.007 128.444C298.984 127.51 298.968 126.549 298.939 125.646C298.754 126.737 298.246 126.918 298.095 125.261C297.903 123.146 298.255 120.06 297.692 120.187C297.718 119.343 297.734 118.559 297.756 117.739C297.896 118.077 298.037 118.407 298.176 118.738C297.957 116.407 298.028 114.942 298.381 113.821C298.462 116.599 298.542 119.371 298.623 122.149C298.647 121.74 298.671 121.325 298.694 120.916C299.054 123.019 299.395 120.849 299.472 124.773C299.307 124.749 299.143 124.73 298.977 124.705C299.254 125.603 299.356 127.483 299.519 128.444C299.611 129.089 299.698 129.393 299.915 128.86C299.683 130.24 299.498 130.466 299.593 131.299C298.236 134.827 296.035 135.898 296.409 134.667C295.763 135.679 294.931 136.592 293.958 137.34C294.64 137.083 295.309 136.748 295.949 136.339C294.357 137.907 292.265 138.981 290.07 139.352C289.928 139.139 290.961 138.93 291.805 138.58C292.656 138.241 293.316 137.839 292.669 137.934C292.421 137.977 291.423 138.558 291.11 138.582C289.516 138.719 289.964 138.553 290.646 138.383C291.334 138.202 292.232 137.818 291.743 137.802C288.702 138.64 289.44 137.914 288.141 138.023C287.564 138.019 286.593 138.077 284.763 138.242C284.6 138.106 284.425 137.967 284.275 137.832C282.137 137.824 282.31 138.131 280.472 138.189C279.321 138.225 277.877 137.686 276.605 138.053C276.379 138.121 278.517 138.779 274.023 138.75C270.535 138.727 271.987 138.262 270.102 138.097C268.215 137.933 263.9 138.578 262.628 137.847C263.616 137.943 264.875 137.996 265.971 138.075C266.417 137.933 266.851 137.792 267.291 137.65C264.784 137.834 262.193 137.617 260.505 137.957C257.16 137.438 253.419 137.919 254.432 138.506C255.533 138.421 254.335 138.166 255.864 138.328C256.021 138.465 256.186 138.601 256.343 138.738C253.739 138.721 251.931 138.725 253.118 138.308C252.714 138.298 252.314 138.289 251.91 138.279C251.838 138.58 251.774 138.882 251.702 139.184C251.22 139.218 250.735 139.251 250.253 139.285C249.717 139.219 249.18 139.152 248.638 139.085C249.367 138.608 250.609 138.593 246.499 138.326C246.487 138.491 246.469 138.655 246.457 138.82C243.016 138.61 242.925 138.211 238.604 138.226C241.919 137.654 243.733 138.668 243.721 137.52C244.552 137.596 245.391 137.672 246.223 137.747C246.349 137.581 246.475 137.414 246.595 137.248C242.13 137.336 234.712 138.43 231.722 137.704C231.36 137.793 230.997 137.87 230.63 137.965C227.701 137.527 226.436 138.51 223.464 137.944C223.158 137.885 223.799 136.961 219.932 136.994C220.028 137.114 220.078 137.316 220.156 137.468C219.319 137.394 218.486 137.317 217.655 137.242C217.504 137.352 217.346 137.463 217.195 137.575C218.624 137.618 220.048 137.662 221.476 137.705C220.29 137.743 219.095 137.781 217.908 137.819C219.457 138 220.155 138.002 219.222 138.293C217.878 138.31 216.532 138.329 215.188 138.346C215.049 138.42 214.912 138.496 214.774 138.57C215.424 138.792 216.082 139.009 216.733 139.234C213.231 139.053 210.187 139.043 207.499 138.607C207.041 138.533 208.661 138.244 205.54 138.505C205.492 138.352 205.408 138.227 205.354 138.086C201.533 138.515 200.277 138.387 196.293 138.077C198.873 138.366 196.571 138.178 195.915 138.333C195.464 138.439 197.221 138.424 197.023 138.535C196.824 138.646 194.541 139.094 196.493 139.148C201.278 138.23 202.582 139.328 208.729 138.886C207.783 139.005 206.83 139.124 205.884 139.242C206.329 139.322 206.728 139.395 207.21 139.48C203.781 139.301 205.449 139.417 204.04 139.559C202.63 139.7 200.067 139.821 198.349 139.86C197.808 139.872 198.379 139.666 197.157 139.647C196.326 139.633 194.053 139.939 193.528 139.579C193.185 139.345 196.836 138.699 191.787 138.701C190.837 138.471 193.258 138.543 193.31 138.515C193.75 138.242 190.646 138.036 189.212 138.245C189.096 138.263 190.228 138.476 188.997 138.559C186.073 138.759 184.385 138.515 182.493 138.184C182.288 138.572 179.828 139.035 176.766 138.891C176.61 139.002 176.46 139.114 176.304 139.226C176.779 139.167 177.255 139.109 177.73 139.051C178.248 139.12 178.797 139.171 179.304 139.253C176.225 139.348 175.789 139.882 174.313 140.077C169.26 140.745 172.322 139.333 173.233 139.09C173.89 139.188 174.526 139.298 175.177 139.402C175.104 139.267 175.031 139.131 174.965 138.995C167.401 138.999 173.813 138.119 169.974 137.868C168.985 138.532 166.166 138.596 162.574 138.175C162.176 138.178 161.777 138.179 161.379 138.183C161.313 138.28 161.314 138.428 161.206 138.491C156.878 138.604 156.107 137.582 155.698 137.485C153.878 137.055 152.46 137.65 151.924 137.655C149.664 137.675 149.007 137.411 146.856 137.525C144.542 137.647 146.124 137.85 145.42 138.031C144.856 138.175 143.03 138.201 142.276 138.35C142.576 138.228 142.909 138.108 143.207 137.986C140.809 137.819 138.849 137.657 136.126 137.617C133.052 138.51 130.437 137.003 131.497 138.225C134.077 138.309 135.519 138.448 136.9 138.759C135.206 138.799 133.512 138.837 131.819 138.877C131.325 138.743 130.974 138.612 130.389 138.476C129.124 138.761 126.19 138.638 125.039 138.722C119.645 139.114 121.313 139.599 116.39 138.783C119.938 138.703 119.933 138.307 123.452 138.362C122.693 138.078 120.904 138.137 122.061 137.798C118.657 137.881 119.757 138.184 118.432 138.453C117.289 138.685 114.988 138.698 115.118 139C114.882 138.834 114.7 138.674 114.466 138.508C112.26 138.51 110.055 138.51 107.85 138.512C108.79 138.339 109.73 138.165 110.67 137.993C109.959 137.928 109.248 137.863 108.537 137.797C103.113 138.335 93.7592 137.349 95.2534 138.701C92.6379 138.744 92.3108 138.574 90.8887 138.319C90.7321 138.421 90.5797 138.507 90.423 138.621C88.7359 138.513 87.4407 138.899 85.9523 138.799C84.464 138.699 84.0945 138.335 83.8776 138.947C82.9134 138.772 81.9549 138.626 80.9967 138.463C80.4185 138.602 79.8409 138.739 79.2688 138.877C78.3649 138.804 77.4589 138.732 76.5549 138.659C76.0718 138.951 72.5174 138.825 70.9505 139.021C69.4631 138.706 69.5039 137.715 66.0045 137.893C66.0949 138.139 66.1839 138.384 66.2743 138.63C65.4728 138.578 64.6697 138.527 63.8623 138.476C63.8141 138.396 63.7723 138.315 63.7242 138.235C64.1339 138.26 64.5381 138.285 64.9478 138.31C64.5922 138.175 64.244 138.039 63.8944 137.904C62.6711 138.105 61.4463 138.306 60.217 138.507C61.874 138.659 63.5317 138.812 65.1887 138.964C63.1094 139.145 61.6622 138.965 59.8541 139.166C58.2813 138.826 58.8621 138.631 59.5008 138.263C58.9164 138.294 58.3251 138.324 57.7408 138.356C58.1263 137.987 57.1378 137.768 60.5542 137.798C60.3194 137.693 60.0797 137.592 59.8509 137.483C59.2904 137.5 58.927 137.411 58.3125 137.452C56.637 137.562 55.3524 138.209 55.4669 138.436C55.5287 138.555 57.1808 138.328 57.1145 138.496C56.951 138.906 53.1613 138.722 58.6272 139.133C56.8131 139.394 56.4079 139.197 54.407 139.122C54.5636 139.258 54.7157 139.394 54.8663 139.531C53.9385 139.468 53.0095 139.405 52.0818 139.342C53.3715 138.641 46.5308 138.377 52.6888 137.764C50.869 137.733 49.0555 137.701 47.2417 137.668C47.6153 137.596 47.989 137.525 48.3626 137.452C49.1822 137.491 49.9968 137.528 50.8164 137.565C49.8523 137.434 48.8866 137.303 47.9226 137.171C45.6445 137.334 44.7515 137.585 43.7089 137.895C46.3601 138.121 45.4939 137.812 47.5597 137.751C47.4875 137.947 47.5829 138.127 47.4023 138.333C46.3348 137.927 42.8527 138.223 42.0452 138.242C39.5877 138.303 41.5148 137.904 39.8709 137.895C38.2255 137.887 36.2849 138.125 34.9409 137.729C34.965 137.951 35.0725 138.18 35.169 138.382C32.6075 138.455 33.1185 138.193 32.8533 138.159C28.6224 137.601 26.3267 138.072 21.4871 138.129C22.1018 138.198 22.7228 138.26 23.3435 138.325C19.6924 138.795 22.1519 138.651 25.3219 138.807C22.3506 138.76 20.649 139.161 18.5516 139.28C17.0091 139.368 14.6554 139.279 12.9953 139.163C12.3552 139.121 11.8214 139.017 11.4639 138.922C11.9712 138.954 12.4806 138.961 12.9953 138.939C15.5849 138.822 18.3257 138.933 21.1338 138.873C20.7542 138.647 20.3853 138.456 19.9937 138.208C17.9628 138.682 16.7861 138.365 16.1172 138.302C14.1528 138.118 14.2146 138.525 13.0275 138.087C13.0757 138.237 13.111 138.364 13.1592 138.505C13.1046 138.504 13.05 138.503 12.9953 138.502C8.78807 138.522 5.4366 135.32 3.86955 133.197C4.0766 132.811 4.31322 132.499 4.54873 132.117C3.77105 130.921 3.73327 129.612 3.74004 128.444C3.74088 128.266 3.73821 128.089 3.73042 127.912C3.66667 126.471 3.3743 127.019 3.26169 125.326C3.24099 125.013 3.42399 124.36 3.28903 123.589C3.15337 122.81 2.14463 119.937 3.02586 119.593C3.03001 118.141 3.06223 116.766 3.07713 115.344C3.1268 116.73 3.17491 118.117 3.22458 119.497C3.43816 118.316 3.65111 117.142 3.86469 115.961C3.67426 115.81 3.48039 115.659 3.29245 115.514C3.06063 112.332 3.37198 110.023 3.29831 106.811C3.28589 106.274 2.9094 107.54 3.00536 105.16C3.10139 102.779 3.80409 101.013 3.53267 96.9572C3.5186 96.7523 2.98042 95.5513 3.35299 94.0988C3.43743 93.7682 3.56238 95.1594 3.67329 94.4007C3.78423 93.6413 3.87546 90.253 4.13958 89.9878C4.04605 90.0239 3.94913 90.2354 3.85395 90.3379C3.80925 89.7594 3.76452 89.1751 3.72065 88.5907C3.88539 88.5365 4.05037 88.4779 4.21428 88.4237C3.83096 85.0969 3.20566 83.3777 3.41256 78.4482C3.17331 79.8342 2.9331 81.2208 2.69385 82.6009C2.86192 82.9806 3.03112 83.3609 3.19919 83.7346C3.13214 86.0064 3.06557 88.2845 2.99852 90.5563C3.18977 90.9299 3.38048 91.297 3.57173 91.6707C3.5469 92.2733 3.52284 92.8699 3.49801 93.4725C3.35975 93.3218 3.22222 93.1699 3.08396 93.0132C3.1179 94.2063 3.15256 95.4008 3.1865 96.5878C2.3704 94.1712 3.25591 89.8391 2.57325 90.1516C2.67917 89.6155 2.78582 89.0786 2.89257 88.5425C2.56155 88.3074 2.65682 87.2172 2.70898 85.2955C2.54588 85.7355 2.385 86.2213 2.22024 86.6251C2.45038 84.7568 2.42803 81.4426 2.51661 79.508C2.55552 78.6584 2.79551 79.507 2.82372 79.2543C2.9711 77.9585 2.55234 75.4818 2.58545 74.9635C2.78254 71.8658 3.57645 69.8527 3.0532 66.4717C2.92405 69.9613 2.9786 68.0629 2.68799 69.3044C2.59687 69.6931 2.4068 74.2013 2.49122 68.5561C2.50178 67.8943 3.05032 57.6512 3.47066 61.0183C3.33654 59.3608 3.18145 58.0632 3.03904 56.5444C4.14683 52.8317 3.10615 54.1166 2.53321 55.1954C2.53073 54.5867 2.52491 54.0076 2.52491 53.3808C3.12682 54.7128 3.1642 47.9269 2.86034 45.6246C2.75933 44.8532 2.56667 47.0102 2.4756 45.2263C2.51781 44.3769 2.57246 43.4132 2.61963 42.5157C2.23881 43.8174 2.09205 41.2627 1.70464 41.2984C2.04986 39.6653 2.78159 38.4161 3.1782 39.3136C3.01761 37.9638 2.85722 36.607 2.6958 35.2572C2.6039 35.884 2.51281 36.5189 2.42091 37.1457C2.66433 32.734 2.11044 27.0613 2.9243 26.1392C2.91851 25.5546 2.9135 24.9638 2.9077 24.3792C2.77027 24.1984 2.63256 24.0236 2.49513 23.8428C2.61432 21.1976 2.73431 18.5584 2.85351 15.9132C2.9388 18.2685 3.13442 18.8292 2.97557 21.2992C3.13364 20.3473 3.29258 19.3778 3.45065 18.444C3.22732 16.4925 3.04416 15.4254 2.93883 14.0427C2.87471 12.8083 2.912 11.1339 4.32327 8.81721C4.38786 8.70803 5.06657 7.78102 5.91656 7.07111C6.7525 6.34222 7.7147 5.85124 7.78184 5.8308C8.40658 5.62958 7.71478 6.33349 7.99667 6.25154C8.37103 6.12985 9.63345 5.64446 10.8169 5.55008C12.0003 5.42586 13.036 5.62434 12.9941 5.66305C12.647 6.03095 10.7253 6.23697 8.8716 7.63533C6.98528 8.96831 5.54939 11.6133 5.6609 14.0427C5.70063 16.924 5.71336 19.4561 5.72983 20.8431C6.15965 57.054 5.81544 92.6507 5.69289 128.444C5.57433 132.326 9.08203 135.876 12.9953 135.783C18.4502 135.789 23.9124 135.786 29.3847 135.771C29.8649 135.769 29.6553 135.614 29.86 135.608C31.1315 135.569 32.3801 135.81 32.8501 135.82C33.8545 135.84 33.3014 135.618 34.0352 135.618C41.6171 135.62 48.7718 135.751 56.3597 135.713C56.854 135.71 56.3494 135.888 57.2173 135.857C57.6652 135.84 59.0677 135.567 60.0789 135.562C63.6106 135.548 66.5772 135.636 70.3017 135.632C72.3388 135.629 75.3949 135.653 77.6726 135.648C78.6786 135.647 79.7266 135.522 80.7205 135.518C82.1308 135.512 81.8428 135.765 82.0598 135.781C83.012 135.849 83.1438 135.571 84.0478 135.578C85.7293 135.591 85.8198 135.777 87.9532 135.761C89.478 135.75 92.9679 135.603 94.8905 135.56C99.3866 135.775 105.052 135.69 109.247 135.619C111.73 135.576 111.96 135.836 112.972 135.835C116.54 135.83 119.247 135.499 122.598 135.488C127.045 135.474 130.985 135.693 135.294 135.709C135.992 135.711 135.832 135.473 136.517 135.467C139.055 135.445 142.299 135.402 144.559 135.435C147.078 135.473 148.007 135.818 150.472 135.748C151.195 135.727 151.407 135.424 152.618 135.385C154.552 135.324 156.673 135.591 158.023 135.621C159.873 135.661 158.264 135.352 160.759 135.394C160.862 135.395 161.235 135.616 161.771 135.605C163.332 135.576 163.177 135.402 165.461 135.418C165.68 135.421 168.709 135.631 169.01 135.632C170.782 135.635 174.349 135.709 175.398 135.664C179.147 135.505 176.196 135.173 179.384 135.893C180.788 135.717 182.18 135.538 183.668 135.367C182.675 135.527 186.706 135.758 186.989 135.743C189.332 135.623 187.937 135.342 190.907 135.389C186.984 136.036 194.74 135.472 196.47 135.456C204.799 135.375 212.37 135.537 220.741 135.533C223.543 135.531 227.299 135.394 230.264 135.397C230.955 135.398 230.433 135.551 231.041 135.554C231.648 135.556 230.974 135.384 231.667 135.394C235.976 135.453 239.352 135.778 243.3 135.372C243.492 135.431 243.486 135.477 243.804 135.541C247.035 135.178 253.256 135.667 255.594 135.734C259.252 135.838 260.186 135.592 262.843 135.642C266.357 135.708 271.632 136.188 269.276 135.396C271.687 135.371 274.007 135.364 276.441 135.438C276.712 135.446 276.526 135.648 276.634 135.652C277.321 135.681 277.545 135.5 278.009 135.492C279.267 135.47 277.214 135.686 279.008 135.625C279.954 135.593 280.491 135.436 283.119 135.433C284.779 135.431 286.454 135.43 288.141 135.429C291.787 135.533 295.222 132.225 295.139 128.444C295.154 118.908 295.179 109.248 295.195 99.9047C295.196 98.7897 295.001 99.5237 295.014 98.1254C295.057 93.2678 295.385 84.5728 295.34 80.384C295.295 76.1956 295.011 77.1405 294.891 74.5195C294.868 74.0132 295.03 74.4283 295.033 73.9703C295.048 70.8905 295.301 67.2189 295.339 64.7238C295.365 63.0738 295.109 63.2059 295.091 62.0613C295.065 60.3556 295.323 58.6002 295.331 57.6901C295.367 53.4118 295.159 50.4703 295.265 46.4749C295.209 46.6312 295.157 46.7345 295.102 46.8667C295.111 42.136 295.12 37.4113 295.129 32.6806C295.078 32.9036 295.026 33.1193 294.974 33.3423C295.002 27.7918 295.558 28.4251 294.384 28.9133C294.342 28.5096 294.294 28.0817 294.256 27.6961C294.861 27.8528 295.304 24.4952 295.458 20.2225C295.47 19.9091 294.88 17.8063 295.577 18.0353C295.406 17.4868 295.289 17.1601 295.139 16.696C295.344 15.8156 295.548 14.9237 295.752 14.0427C295.758 14.0247 295.763 14.0066 295.769 13.9885C295.735 13.6143 295.674 13.2405 295.587 12.8828C295.444 12.8505 295.31 12.9118 295.159 12.8235C295.071 11.1727 293.074 8.2827 291.8 7.77862C290.677 7.13822 289.378 6.87292 288.141 6.92845C285.539 7.00624 283.075 7.04392 280.996 6.80411C279.31 6.84479 280.984 7.11292 278.478 7.079C278.194 6.94325 277.928 6.81314 277.633 6.67325C275.585 7.27978 275.157 6.91081 272.35 6.78409C270.451 6.69799 269.208 6.84623 267.4 6.81729C266.942 6.80984 267.007 6.63182 266.694 6.63761C265.644 6.65597 262.649 6.901 261.908 6.90762C255.195 6.97218 249.427 6.9447 243.033 6.8793C242.346 6.87268 243.237 7.04836 242.526 7.04091C241.382 7.02922 242.055 6.75925 241.392 6.74601C239.543 6.71058 239.529 6.99525 236.95 7.01015C228.459 7.05897 218.696 6.84512 209.824 6.82608C209.547 6.82608 209.564 6.99287 209.262 6.99453C207.298 7.00268 205.31 6.77722 203.526 6.77969C200.567 6.78301 198.343 7.01733 195.42 7.0165C189.706 7.01567 184.602 6.89569 178.725 6.88906C173.916 6.88327 169.739 6.90552 164.465 6.90469C141.43 6.90138 117.925 7.43081 94.733 7.14931C94.1428 7.14186 94.3831 6.99449 94.2031 7.00088C92.4916 7.06462 92.3388 7.26346 91.7301 6.84707C89.5496 6.92914 88.8616 7.24196 86.2285 7.21961C84.825 7.2079 85.8729 6.72304 83.4985 6.97304C81.3546 7.19905 83.7205 7.46477 77.3449 7.19325C77.1761 7.18578 76.3454 6.89025 75.0196 6.96719C73.6876 7.04336 75.2295 7.25498 72.0231 7.31873C64.4957 7.46774 54.9679 7.21228 46.2171 7.2909C45.6687 7.29587 40.3868 7.45387 39.3441 7.52673C37.3264 7.6683 37.7479 7.88792 35.1271 7.94175C33.1021 7.98314 31.4312 7.73436 29.0506 7.78404C28.7733 7.79008 28.3089 8.04598 26.5198 8.01206ZM251.917 139.446C251.423 139.697 250.531 140.621 247.543 140.34C247.259 140.313 248.788 139.678 247.138 139.576C248.753 139.509 250.326 139.488 251.917 139.445C251.917 139.445 251.917 139.445 251.917 139.446ZM13.567 2.11928C15.803 2.16565 18.0467 2.21158 20.2827 2.25795C18.7398 2.36972 17.1947 2.48127 15.6578 2.59387C14.9588 2.43576 14.266 2.27739 13.567 2.11928ZM292.371 3.36292C292.369 3.36202 292.367 3.36111 292.365 3.36021C294.925 4.23859 297.183 6.07082 298.596 8.47675C298.381 8.25959 298.159 8.05351 297.931 7.85838C296.667 6.1145 294.932 4.77052 293.012 3.99447C292.81 3.77809 292.596 3.56661 292.371 3.36292ZM273.342 3.48738C271.841 3.38306 272.209 3.20712 271.383 3.03574C271.383 3.03607 271.383 3.03639 271.383 3.03672C271.165 2.9921 270.15 2.95306 269.758 2.94639C269.902 3.05651 270.089 3.16521 270.246 3.2745C266.744 3.54109 259.897 2.59373 268.762 2.21205C268.63 2.35111 268.503 2.48947 268.37 2.62853C272.776 2.58963 277.687 2.89126 273.342 3.48738ZM216.492 139.846C212.731 140.301 211.525 140.397 206.963 140.085C207.607 139.956 208.252 139.827 208.896 139.698C209.65 139.83 210.397 139.96 211.151 140.092C211.153 140.092 211.155 140.092 211.157 140.092C211.308 139.954 211.459 139.815 211.604 139.677C213.231 139.733 214.865 139.79 216.492 139.846ZM129.381 3.15829C128.333 2.24883 128.635 2.77747 131.629 2.57238C132.666 2.50118 131.655 2.34206 132.3 2.31556C135.783 2.17085 136.061 2.78018 135.284 3.09726C133.313 3.11879 131.322 3.13842 129.387 3.15829C129.385 3.15829 129.383 3.15829 129.381 3.15829ZM39.0261 3.34725C39.024 3.34725 39.0218 3.34725 39.0197 3.34725C38.9294 3.12542 40.3332 3.06575 38.7499 2.85557C39.9544 2.8564 41.159 2.85816 42.3695 2.85899C42.0145 2.87966 41.6518 2.89936 41.2968 2.92002C41.6102 2.99619 41.9244 3.07333 42.2378 3.1495C42.6657 2.89452 43.0633 3.04274 44.3286 3.12802C43.9791 2.85564 43.6312 2.58306 43.2816 2.31068C44.7519 2.3918 46.2275 2.4732 47.6977 2.55432C47.7157 2.62296 47.7343 2.69172 47.7523 2.76036C48.3066 2.67264 48.8553 2.58394 49.4095 2.49622C49.5602 2.57817 49.7054 2.65937 49.856 2.74132C50.5247 2.67925 51.1945 2.61722 51.8633 2.55432C52.0669 2.75283 50.5929 2.83862 53.2058 2.78819C52.4043 2.99184 51.6045 3.19487 50.797 3.39852C46.8735 3.38196 42.9496 3.36463 39.0261 3.34725ZM156.619 2.87852C152.298 2.9166 153.515 2.77274 154.516 2.3224C155.215 2.5078 155.92 2.69312 156.619 2.87852ZM298.904 89.441C299.212 90.6946 299.516 91.9535 299.812 93.2372C299.983 95.7927 299.424 98.3491 299.204 96.4265C298.941 94.1121 299.236 91.6951 298.904 89.441ZM284.651 139.344C287.777 139.487 284.835 139.852 284.13 140.065C283.265 139.723 282.059 139.753 280.122 139.713C281.941 139.691 284.134 139.32 284.651 139.344C284.651 139.344 284.651 139.344 284.651 139.344ZM299.25 39.1265C299.24 37.8736 299.155 36.6273 299.259 35.5069C299.553 35.8449 299.285 38.086 299.721 36.4833C299.728 37.2847 299.735 38.0871 299.744 38.8824C299.563 38.377 299.428 39.0569 299.251 39.1233C299.25 39.1244 299.25 39.1255 299.25 39.1265ZM198.487 2.53235C200.946 2.88008 201.412 2.73129 203.889 2.49036C204.238 2.77348 201.285 3.24773 199.434 3.35213C199.121 3.07893 198.806 2.80555 198.487 2.53235ZM1.62994 73.1424C1.99082 73.7329 2.03788 78.0888 1.93119 80.2531C1.87767 79.9954 1.82343 79.7368 1.76909 79.4791C1.72272 77.3697 1.6763 75.2518 1.62994 73.1424ZM279.2 139.689C279.525 139.699 279.832 139.707 280.122 139.713C279.799 139.717 279.488 139.711 279.2 139.689ZM148.279 138.122C149.309 137.782 146.247 137.668 149.965 137.801C149.965 137.801 149.965 137.8 149.965 137.8C152.424 137.888 152.967 137.911 155.245 137.938C154.425 138.375 149.803 138.531 156.173 138.621C156.257 138.622 156.09 138.362 157.108 138.397C157.422 138.408 158.427 138.622 159.956 138.684C160.451 138.704 164.164 138.77 159.102 138.774C159.253 139.078 158.981 139.387 158.993 139.682C157.017 139.768 155.498 139.172 153.408 139.186C150.304 139.209 148.724 139.813 148.128 139.021C150.738 138.827 155.219 138.822 155.804 139.298C158.329 139.304 159.054 138.914 157.018 138.721C148.297 138.966 154.624 138.142 146.987 138.453C146.897 138.563 146.583 138.682 146.631 138.785C144.3 138.398 147.911 138.244 148.279 138.122ZM166.515 138.964C165.008 139.197 163.506 139.431 162.005 139.665C162.005 139.286 162.833 138.945 165.207 138.732C165.641 138.809 166.081 138.887 166.515 138.964ZM39.7681 139.064C39.5511 139.27 38.9728 139.459 38.5509 139.655C38.0928 139.481 27.2441 139.314 32.7634 139.144C33.565 139.119 38.4542 139.484 39.7681 139.064ZM181.414 2.84288C182.691 2.98114 183.964 3.11963 185.236 3.2579C183.278 3.3456 181.319 3.43561 179.361 3.52497C180.047 3.29766 180.728 3.07019 181.414 2.84288ZM298.543 110.24C298.55 109.7 298.834 111.493 298.789 109.366C298.97 110.951 299.124 112.436 299.294 113.985C299.16 114.449 299.027 114.918 298.893 115.382C298.979 115.744 299.064 116.112 299.15 116.474C298.955 116.257 298.764 116.064 298.565 115.835C298.984 113.225 298.509 112.627 298.543 110.24ZM297.778 32.6421C298.203 32.1728 298.456 35.9517 298.523 32.2342C298.802 32.9394 298.949 34.0732 298.974 36.2488C298.867 36.5981 298.761 36.9466 298.654 37.2959C298.94 37.3441 299.046 37.9039 299.25 39.1265C299.249 39.1276 299.249 39.1287 299.249 39.1297C299.269 42.4374 299.174 42.2397 298.705 43.0352C298.97 39.5335 298.541 39.4288 298.286 37.0421C298.11 35.403 298.19 33.2628 297.778 32.6421ZM51.327 139.059C48.8509 139.417 51.073 139.752 46.6797 139.371C46.963 139.28 47.2475 139.189 47.5308 139.098C48.7962 139.084 50.0616 139.071 51.327 139.059ZM299.234 20.4216C298.577 20.7048 298.065 23.0362 299.134 23.4342C299.352 21.162 298.746 22.2718 299.234 20.4216ZM285.717 138.315C286.85 138.323 287.633 138.379 288.141 138.464C289.325 138.622 289.091 138.991 288.141 139.287C287.941 139.349 287.712 139.408 287.464 139.459C287.187 139.324 286.91 139.189 286.639 139.054C285.873 139.116 285.108 139.177 284.342 139.238C284.8 138.93 285.259 138.622 285.717 138.315ZM233.202 3.67194C236.541 3.2025 229.598 3.41086 231.93 3.11777C233.793 2.88349 236.247 3.3565 235.319 3.6529C234.674 3.66118 233.956 3.66697 233.209 3.67194C233.207 3.67194 233.204 3.67194 233.202 3.67194ZM252.524 3.53767C251.976 3.0361 252.766 3.1823 250.128 3.27254C249.375 3.29821 243.388 3.10984 245.901 3.52546C248.04 3.52546 250.3 3.5327 252.524 3.53767ZM235.213 139.049C235.173 138.831 239.782 138.351 240.374 138.471C240.374 138.471 240.374 138.47 240.374 138.47C241.971 138.797 237.109 138.844 239.218 139.292C234.547 138.897 233.15 139.852 233.475 138.594C236.227 138.539 234.924 138.798 235.213 139.049ZM2.6582 15.9485C2.6582 15.9463 2.6582 15.9442 2.6582 15.9421C2.64793 16.2516 2.32737 18.8023 2.21633 18.4921C2.29961 15.8091 2.47148 15.8912 2.2812 14.0427C2.25412 13.7578 2.22963 13.431 2.22156 13.0416C2.3483 12.8844 2.47225 12.7528 2.60769 12.5935C2.56399 13.1435 2.58533 13.5776 2.61873 14.0427C2.65911 14.5628 2.68537 15.1251 2.6582 15.9485ZM28.039 138.623C29.166 138.566 31.2227 138.803 32.5065 138.789C28.4202 139.698 23.5373 138.85 28.039 138.623ZM81.2857 3.316C81.2889 3.31567 81.2921 3.31535 81.2953 3.31502C81.2944 3.31552 81.293 3.31599 81.2921 3.31649C81.2899 3.31633 81.2878 3.31616 81.2857 3.316ZM115.375 139.169C115.229 139.11 115.147 139.058 115.118 139.013C115.118 139.009 115.118 139.005 115.118 139.001C115.196 139.056 115.28 139.112 115.375 139.169ZM225.632 139.115C223.712 138.81 230.109 138.326 232.178 138.442C232.033 138.581 232.011 138.707 231.674 138.866C230.004 138.506 225.952 139.166 225.632 139.115ZM298.7 60.8183C298.691 65.875 297.489 59.2942 298.448 59.023C298.467 59.0332 298.698 60.6877 298.7 60.8183ZM265.509 138.989C266.797 138.625 264.208 138.528 268.348 138.591C268.589 138.685 268.83 138.78 269.071 138.874C267.884 138.912 266.696 138.951 265.509 138.989ZM297.121 93.9438C297.324 100.308 297.681 106.395 298.686 102.249C298.653 101.768 298.622 101.279 298.59 100.798C298.1 100.725 298.367 98.9479 298.383 96.3462C298.189 95.9753 298.144 94.5325 297.979 94.2618C297.659 93.7382 297.434 95.3961 297.121 93.9438ZM115.063 4.26566C115.166 4.18204 115.266 4.09798 115.368 4.01518C116.375 3.9208 117.384 3.82687 118.39 3.73248C118.228 3.89296 118.065 4.05343 117.902 4.2139C116.956 4.23128 116.015 4.24877 115.07 4.26615C115.067 4.26598 115.065 4.26582 115.063 4.26566ZM172.716 137.93C172.138 138.851 174.159 138.681 178.257 138.216C176.412 138.121 174.561 138.026 172.716 137.93ZM281.484 4.68995C281.351 4.42847 281.221 4.16779 281.082 3.9063C278.907 4.17869 279.311 4.47815 280.353 4.82423C280.733 4.77956 281.104 4.73462 281.484 4.68995ZM250.144 4.80128C251.047 4.85583 250.586 4.6447 250.68 4.64894C252.965 4.75989 253.286 4.85673 256.089 4.69777C256.432 4.64231 256.77 4.58399 257.113 4.52688C255.818 3.97896 254.877 4.27759 252.135 3.95562C252.629 4.14356 253.122 4.33176 253.616 4.52053C252.091 4.4808 250.573 4.44161 249.049 4.40188C248.868 4.45984 248.687 4.51726 248.506 4.57521C249.048 4.6497 249.608 4.73342 250.144 4.80128ZM103.424 4.02788C101.941 4.00635 100.452 3.98398 98.9693 3.96245C98.915 4.09739 98.8629 4.23325 98.8087 4.36819C100.345 4.25479 101.887 4.14128 103.424 4.02788ZM142.276 138.35C142.158 138.398 142.044 138.446 141.942 138.495C141.952 138.435 142.08 138.389 142.276 138.35ZM3.58906 12.1295C3.95308 10.5593 4.99702 8.4251 6.31397 7.22655C6.1529 7.15085 5.23685 7.9257 4.51024 9.09672C3.75748 10.2529 3.31089 11.7721 3.10789 12.5722C3.13547 12.8438 3.42381 12.7882 3.58906 12.1295ZM291.648 137.706C291.979 137.4 292.28 137.078 292.545 136.745C293.399 136.312 294.191 135.746 294.883 135.067C294.804 134.95 294.723 134.833 294.643 134.717C293.246 136.224 292.39 136.441 291.89 136.567C291.363 136.659 291.043 136.601 290.085 136.642C290.553 137.037 291.072 137.396 291.648 137.706ZM56.2505 4.90479C59.511 4.81123 60.6675 4.63649 58.8295 4.22172C57.6787 4.3169 56.5212 4.41217 55.3705 4.50735C55.6657 4.63978 55.9613 4.77235 56.2505 4.90479ZM82.8948 138.037C80.1664 138.192 80.121 137.636 77.4542 137.947C78.8822 138.049 80.3101 138.153 81.7322 138.256C82.1164 138.183 82.5105 138.11 82.8948 138.037ZM216.713 136.509C215.562 136.315 213.411 137.236 210.174 136.556C209.403 136.759 208.92 136.953 208.257 137.151C207.871 136.935 207.433 136.716 207.066 136.502C207.063 136.502 207.061 136.502 207.059 136.502C204.124 136.575 206.027 136.846 205.961 137.075C205.93 137.17 203.751 137.011 204.432 137.218C205.607 137.573 209.999 137.369 210.011 137.802C208.468 137.661 205.455 137.779 206.346 138.068C207.322 138.385 210.162 137.853 211.97 138.117C209.379 137.424 214.73 137.638 215.339 138.17C218.479 137.762 215.593 137.595 212.374 137.614C214.339 137.207 211.447 137.427 210.971 137.088C212.997 136.884 219.95 137.054 216.713 136.509ZM296.956 67.4377C296.982 69.6079 296.749 72.9983 297.093 74.4841C297.293 75.3495 297.448 71.9511 297.763 74.2946C297.732 72.1802 297.609 71.6977 297.334 72.0593C297.301 71.5774 297.268 71.0895 297.236 70.6076C297.29 70.3847 297.343 70.156 297.397 69.9332C297.283 69.68 297.171 69.4255 297.057 69.1784C297.08 68.6665 297.102 68.1487 297.125 67.6368C297.068 67.5766 297.018 67.474 296.956 67.4377ZM5.81141 134.828C6.19883 135.258 6.62062 135.65 7.07841 136.004C7.06964 135.912 7.05463 135.81 7.0431 135.712C7.03802 135.637 7.03383 135.562 7.03063 135.488C7.06732 135.894 9.29868 137.672 10.5433 137.667C11.1213 137.669 9.97245 137.16 12.2775 137.417C10.6014 137.3 9.06553 136.782 7.70123 135.849C7.8858 135.846 8.06408 135.832 8.24366 135.817C8.24296 135.817 8.24226 135.816 8.24156 135.815C7.81109 135.508 7.40623 135.157 7.04137 134.78C6.64103 134.823 6.2322 134.841 5.81141 134.828ZM283.25 5.20702C285.305 4.99093 285.993 4.87871 285.023 4.52932C285.021 4.52916 285.019 4.52899 285.017 4.52883C284.251 4.68363 283.486 4.83837 282.72 4.99316C282.895 5.06437 283.069 5.13582 283.25 5.20702ZM124.573 137.197C120.204 138.524 130.044 137.71 128.17 137.258C128.086 137.237 124.983 137.343 124.573 137.197ZM284.914 137.907C285.987 137.897 287.063 137.889 288.141 137.879C288.261 137.878 288.381 137.875 288.5 137.869C288.379 137.8 288.259 137.728 288.141 137.654C287.988 137.565 287.834 137.476 287.682 137.387C286.76 137.56 285.836 137.734 284.914 137.907ZM70.4462 5.5073C71.7085 5.87159 74.9488 6.00358 76.5323 5.60739C75.7006 5.56103 74.8686 5.5146 74.0369 5.46824C75.6092 5.42272 77.164 5.37261 78.7484 5.32957C78.8328 4.82204 77.0068 5.11648 74.2585 4.97656C73.833 4.954 71.1125 4.32401 70.1732 4.79884C69.9842 4.89643 72.8781 4.96279 70.8669 5.24657C71.7464 5.2689 72.5054 5.26395 73.3367 5.27635C73.397 5.39723 73.4567 5.51825 73.523 5.63913C72.4951 5.59536 71.4741 5.55106 70.4462 5.5073ZM296.995 80.0725C296.967 83.0534 297.17 83.4215 297.528 84.0421C297.488 82.6559 297.448 81.2692 297.407 79.883C297.27 79.9491 297.133 80.0064 296.995 80.0725ZM97.0904 5.6235C98.7224 5.68212 98.0234 5.3904 98.6802 5.33494C101.163 5.12634 102.857 5.33483 105.309 5.20409C105.146 5.26039 104.997 5.31301 104.84 5.36766C104.842 5.36766 104.845 5.36766 104.847 5.36766C116.46 5.61353 110.36 4.95193 103.411 5.05957C103.248 4.95111 103.092 4.84251 102.929 4.73487C99.8195 4.92446 96.9518 5.10689 97.0904 5.6235ZM163.393 137.151C163.26 137.083 164.387 136.652 162.272 136.854C160.597 137.484 163.344 137.171 164.032 137.413C163.459 137.474 162.874 137.533 162.307 137.593C165.731 137.771 166.23 137.621 164.983 137.161C164.894 137.13 163.526 137.219 163.393 137.151ZM140.895 136.841C140.425 137.769 144.745 137.351 144.588 137.063C143.992 137.052 143.528 137.209 142.896 137.14C142.257 137.07 142.094 136.853 140.895 136.841ZM264.671 137.068C264.544 137.064 263.272 136.674 263.399 136.979C264.972 137.702 268.141 137.236 267.587 136.985C266.538 136.997 265.839 137.106 264.671 137.067C264.671 137.067 264.671 137.067 264.671 137.068ZM50.7842 5.72604C50.8444 5.75193 54.0168 5.90872 54.4262 5.76314C54.7636 5.59924 54.9311 5.42358 55.1842 5.25389C53.4363 5.4112 49.8986 5.29137 50.7906 5.72604C50.7885 5.72604 50.7863 5.72604 50.7842 5.72604Z" fill="#000F55"/>
</svg>
