<svg width="92" height="290" viewBox="0 0 92 290" fill="none" xmlns="http://www.w3.org/2000/svg">
<path d="M91.2266 73.0229C91.5874 71.3898 91.3509 76.8415 91.8897 73.2214C91.9261 73.9763 91.9636 74.7358 92 75.4907C91.8005 75.6822 91.6014 75.8783 91.4019 76.0698C91.3431 75.0561 91.2844 74.0417 91.2256 73.0229C91.2259 73.0229 91.2263 73.0229 91.2266 73.0229ZM88.7277 71.6386C89.2968 72.5677 89.4486 75.5195 89.9737 72.3308C89.7784 72.0773 89.5831 71.8176 89.3878 71.5642C89.5393 70.4571 89.6908 69.3432 89.8414 68.236C89.767 67.8379 89.6924 67.4402 89.6188 67.0421C89.9582 66.5351 90.2985 66.0325 90.6387 65.5255C90.5891 65.9757 90.5385 66.4319 90.4888 66.8822C90.7645 68.6619 90.8398 70.2455 90.8912 72.6616C90.9715 72.4495 91.0511 72.2368 91.1314 72.0247C90.9948 73.2509 90.8579 74.4765 90.7213 75.6975C90.5872 74.6371 90.438 73.4514 90.3131 72.4686C89.7809 74.0413 90.0771 76.8153 90.1881 78.2591C90.3396 80.2253 90.0865 79.781 90.1925 81.2399C90.209 81.4727 90.4074 81.4992 90.4107 81.9596C90.4265 84.2829 90.3213 88.7953 89.8585 86.1563C89.9181 82.3324 89.5465 79.0712 89.6822 75.3198C89.1471 76.3122 88.965 74.3358 88.7277 71.6386ZM90.4317 141.886C90.1718 140.727 90.2767 138.367 90.4571 136.768C90.4571 136.766 90.4571 136.765 90.4571 136.763C90.4968 136.411 90.8423 135.614 90.8282 136.763C90.8041 138.635 90.2603 139.541 90.6295 140.524C90.5607 140.964 90.4996 141.425 90.4317 141.886ZM90.4639 145.956C90.3307 147.104 89.921 146.583 90.0318 145.145C90.0315 145.145 90.0312 145.145 90.0309 145.145C90.0772 144.545 90.4011 145.723 90.0724 143.571C90.3281 143.131 90.5607 142.698 90.8082 142.264C90.8123 142.791 90.819 143.271 90.8223 143.824C90.402 143.452 90.5962 144.807 90.4639 145.956ZM90.0899 88.0975C90.4681 88.2782 90.4657 87.5217 90.7281 86.2335C90.7157 87.4493 90.7024 88.6654 90.69 89.876C90.4897 89.2812 90.2902 88.6923 90.0899 88.0975ZM90.1485 59.5337C90.1485 59.5319 90.1485 59.53 90.1485 59.5282C90.0889 59.1298 90.0291 58.7302 89.9703 58.337C90.1053 58.099 90.2396 57.8636 90.3746 57.6256C90.2479 56.2181 90.1213 54.8032 89.9938 53.3958C90.406 53.5668 90.3389 56.0931 90.627 57.485C90.5028 59.5545 90.2635 60.5518 89.9142 60.6863C89.992 60.3035 90.0707 59.9216 90.1485 59.5337ZM2.49494 254.403C2.38072 253.932 2.26641 253.467 2.15219 252.997C2.10006 253.622 2.06027 254.243 1.99985 254.874C2.49655 256.525 2.05719 256.68 2.08774 258.842C2.18212 265.47 2.95358 263.712 1.82359 269.698C1.87734 264.892 1.34639 266.739 0.937404 263.841C1.24871 263.241 1.95081 266.112 2.09653 264.167C1.76706 260.814 1.46021 257.59 1.24745 253.871C1.19364 253.979 1.13964 254.087 1.08583 254.196C1.11978 254.786 1.15393 255.371 1.18788 255.961C1.04382 255.324 0.901002 254.702 0.755284 254.055C1.08228 254.873 0.899569 252.789 1.27528 253.068C1.44252 253.192 1.67454 254.113 1.83433 254.657C1.92125 253.254 2.00086 251.817 2.0853 250.399C2.21854 251.134 2.35193 251.867 2.48518 252.597C2.48932 253.197 2.49227 253.792 2.49641 254.392C2.49592 254.395 2.49543 254.399 2.49494 254.403ZM57.6463 0.756261C55.8663 1.14539 52.6316 1.20978 50.9293 0.776767C53.1697 0.770144 55.4058 0.762884 57.6463 0.756261ZM89.6261 60.8214C89.6922 60.6199 89.7577 60.4246 89.8238 60.223C89.9463 61.1129 90.068 62.0079 90.1905 62.8977C89.9993 63.0684 89.8081 63.243 89.6178 63.4189C89.6203 62.555 89.6236 61.6852 89.6261 60.8214ZM89.839 117.75C89.8274 117.099 89.8337 117.042 89.8609 116.231C89.8608 116.232 89.8606 116.233 89.8605 116.234C89.8706 115.913 89.9823 113.224 90.1295 113.523C90.132 114.858 90.1295 116.282 90.1295 117.648C90.0327 117.69 89.9366 117.699 89.839 117.75ZM89.9249 102.036C89.9252 102.034 89.9256 102.032 89.9259 102.031C89.9482 101.545 89.9938 101.084 90.0021 100.583C90.2337 102.388 89.8181 102.674 89.9356 104.314C90.054 105.954 90.2833 106.967 89.714 108.359C89.6287 107.841 89.5067 107.284 89.4074 106.751C89.635 104.423 89.4208 103.796 89.1964 101.929C89.4398 101.965 89.6815 102 89.9249 102.036ZM3.32165 284.499C3.83798 284.768 3.97517 285.372 4.01508 285.424C4.01415 285.423 4.01321 285.423 4.01228 285.422C5.63432 287.044 5.60573 286.843 5.39388 286.813C5.22877 286.727 4.88897 286.785 6.70121 288.045C6.10839 287.756 5.54103 287.424 4.99871 287.039C4.32113 286.259 3.75462 285.369 3.32165 284.499ZM89.6832 240.443C89.7652 240.407 89.8473 240.364 89.9293 240.327C89.9103 242.563 90.2329 243.133 89.9391 244.99C89.853 243.474 89.7675 241.959 89.6822 240.443C89.6826 240.443 89.6829 240.443 89.6832 240.443ZM89.2428 129.017C89.0863 126.539 89.0174 124.705 89.2658 122.325C89.2661 122.323 89.2664 122.321 89.2667 122.319C89.282 122.182 89.4535 122.846 89.4967 122.667C89.4711 122.176 89.4316 121.669 89.401 121.172C89.5383 121.105 89.6756 121.041 89.8121 120.974C89.7732 122.371 89.7343 123.769 89.6954 125.171C89.7757 124.964 89.8553 124.752 89.9356 124.545C89.977 125.735 90.0183 126.92 90.0597 128.11C89.8345 127.696 89.6094 127.283 89.3834 126.875C89.3363 127.588 89.2908 128.303 89.2428 129.017ZM88.7863 277.657C88.8757 277.264 89.0257 277.992 89.1027 277.381C89.1787 276.771 89.0118 275.645 89.2643 275.909C89.2924 276.59 89.324 277.3 89.3542 278C89.3604 278.165 89.3631 278.328 89.3623 278.49C89.3935 278.329 89.4189 278.165 89.4385 278C89.7867 275.456 89.446 273.044 89.9781 273.005C89.8771 274.798 89.8787 276.37 89.9409 278C89.9682 278.859 89.9182 279.742 89.7612 280.658C89.4348 280.4 89.3098 277.59 88.7291 279.286C88.7749 278.863 88.7945 278.424 88.7902 278C88.789 277.886 88.788 277.773 88.7873 277.663C88.7869 277.661 88.7866 277.659 88.7863 277.657ZM84.0307 24.6114C84.0646 23.0798 83.8825 19.5704 84.1425 17.6352C84.2065 17.159 85.0365 15.5729 85.1458 15.5809C85.5143 15.6275 85.5644 17.5646 85.8045 15.4899C85.807 16.1878 85.8208 16.8652 85.8275 17.558C86.075 17.4338 86.3219 17.3103 86.5686 17.1912C86.5314 16.3478 86.4939 15.5033 86.4558 14.6599C86.5378 14.6185 86.62 14.5773 86.7019 14.5359C86.7036 17.5681 87.0199 15.7781 87.3147 17.3512C87.4637 15.9026 87.612 14.4434 87.761 13C87.7427 13.833 87.7293 14.8158 87.7077 15.5506C88.1275 15.6489 88.0274 13.896 88.1052 13.5956C88.5448 11.9037 88.3229 20.5176 88.9337 21.2225C89.0016 19.8465 89.0679 18.4026 89.1349 16.9955C89.2102 17.3991 89.2856 17.8079 89.361 18.2115C88.9397 21.4037 88.7904 24.9835 88.528 28.7033C88.5454 29.0394 88.5632 29.3761 88.5798 29.707C88.7693 29.6087 88.9581 29.5158 89.1476 29.4175C89.17 29.9246 89.1921 30.438 89.2145 30.9451C88.5903 29.45 88.5988 31.5205 88.218 34.0196C87.9986 32.69 88.1316 31.0498 87.7229 31.1629C88.0373 35.7263 87.5929 41.0704 87.948 45.5096C88.0357 46.6116 88.563 46.6081 88.5143 49.199C88.4564 49.111 88.3517 49.096 88.2756 49.0391C88.5281 53.5201 88.6791 56.2389 88.4216 60.8959C88.6111 60.6269 88.8014 60.3624 88.9909 60.0935C88.8965 59.1051 88.8006 58.1152 88.7062 57.132C89.0192 56.4595 89.1573 57.4534 89.1539 54.5042C89.1515 52.0877 89.0133 53.5263 88.9206 52.8691C88.794 51.9793 89.043 51.1984 88.9015 50.2413C88.7931 49.5014 88.5349 50.3019 88.6003 48.3718C88.9348 49.148 89.2801 49.9398 89.6188 50.7211C89.5434 51.192 89.4669 51.6593 89.3908 52.1301C89.3013 51.6541 89.2131 51.1861 89.1237 50.7101C89.2843 52.3864 89.4358 53.9704 89.6022 55.7037C89.1187 55.1397 89.2999 56.9313 89.3571 57.9041C89.4464 59.4195 89.1136 58.1212 89.1691 59.1146C89.2254 60.108 89.5972 61.1795 89.5177 62.9749C89.3025 62.0126 89.1095 63.3217 88.9108 63.0687C88.7121 62.8152 88.6681 60.916 88.4513 62.7406C88.6161 66.2487 89.3727 62.4419 89.4952 64.8114C89.6426 67.657 88.4093 68.3342 88.1442 67.486C87.9356 66.8185 87.9776 64.5217 87.7697 63.849C87.3947 67.9626 88.1351 67.9983 88.28 68.702C88.8073 71.2581 87.3998 69.5411 87.9089 72.5679C87.6457 72.511 87.4089 72.4648 87.1565 72.408C87.2045 72.9302 87.2683 73.277 87.3064 73.908C87.8192 72.0472 87.7973 73.5703 87.7981 74.3519C87.7997 75.5834 88.0499 73.6813 88.1145 74.0072C88.2873 74.8869 88.2088 76.2781 88.4347 75.4246C88.3296 75.8074 88.2241 76.2225 88.1198 76.6157C88.2508 78.0545 89.3494 81.4359 89.1276 78.2178C89.5358 78.5179 89.3396 79.5589 89.2775 80.3713C89.2154 81.1835 89.4754 81.1683 89.4274 81.8824C89.2353 84.7227 88.7906 82.8647 88.4421 82.4145C88.6822 86.1657 88.841 82.4933 89.0016 87.899C89.2856 88.4216 89.5886 85.9238 89.7526 88.0037C89.2592 88.3869 88.9048 89.9184 88.7409 92.9036C88.8543 93.1934 88.9687 93.4825 89.0822 93.7722C88.6268 95.4022 88.1533 94.569 88.7179 97.5857C87.6789 95.9661 88.3436 97.0796 87.9206 99.7806C87.8353 100.329 87.6198 99.0616 87.5105 99.8274C87.4612 100.175 87.6239 101.017 87.4983 101.865C87.4362 102.279 87.0355 104.214 87.2258 105.555C87.7292 104.571 88.1574 107.118 88.5739 104.934C88.4712 108.97 88.7129 111.795 88.0266 107.272C87.8742 108.297 87.7225 109.322 87.571 110.347C87.6911 111.061 87.8102 111.781 87.9294 112.5C87.5157 112.609 87.3996 112.5 87.4724 115.313C87.3747 114.092 87.2755 112.877 87.177 111.651C87.0935 111.61 87.0066 111.439 86.9255 111.48C87.0844 112.981 87.1528 117.209 87.2629 118.233C87.373 119.258 87.4032 117.279 87.51 117.574C88.3907 120.031 87.7411 119.837 87.8923 121.6C87.9817 122.635 88.0788 120.164 88.1169 120.717C88.2565 122.77 87.7884 123.723 87.7824 125.543C88.0481 124.896 88.3179 124.255 88.5861 123.624C88.572 125.533 88.5697 127.661 88.655 129.436C88.6882 130.133 88.8858 129.607 88.8991 129.72C88.967 130.285 89.0745 132.582 89.0753 132.825C89.0769 134.656 88.8032 134.708 88.7882 136.487C88.7651 135.789 88.7442 135.132 88.7218 134.449C88.2781 134.139 87.8344 133.822 87.3899 133.512C87.3576 135.255 87.326 136.999 87.2937 138.748C87.4419 137.47 87.5893 136.188 87.7375 134.91C88.096 136.907 88.4553 138.904 88.8146 140.902C88.5944 141.942 88.3742 142.977 88.154 144.017C88.2121 146.842 89.106 146.273 88.3229 147.613C88.3891 148.446 88.4553 149.279 88.5207 150.111C88.4089 149.992 88.297 149.874 88.1852 149.755C88.254 150.759 88.3222 151.763 88.3918 152.767C88.7875 151.711 89.2039 150.677 89.588 149.631C89.674 151.607 89.3383 151.645 89.2545 151.939C89.0326 152.721 89.3319 154.272 89.1266 154.893C89.0561 155.102 88.8351 153.167 88.5802 153.834C88.5308 153.964 87.5939 156.556 87.8103 158.21C87.98 158.179 88.1881 158.051 88.3727 157.984C88.4758 160.208 87.5899 161.342 87.3415 161.047C87.5154 162.232 87.5299 163.964 87.8015 164.207C87.8081 164.812 87.8144 165.413 87.821 166.019C87.1596 165.388 87.2806 167.913 87.8493 168.078C87.8634 167.038 87.8782 165.997 87.8923 164.957C88.5894 165.743 89.0102 162.583 88.3644 169.159C88.0018 170.417 88.4138 166.924 88.1423 167.949C87.9842 169.729 88.1165 171.399 87.864 173.091C87.5486 175.197 87.2452 172.606 87.6467 177.511C88.6526 166.692 88.3262 178.995 88.6384 184.077C87.6448 185.474 87.3301 189.765 87.6257 195.674C87.9022 195.059 87.7598 193.199 87.8508 192.128C87.9419 191.057 88.1059 192.216 88.235 190.882C88.3642 189.547 88.5397 186.713 88.735 185.362C88.8915 186.506 89.2615 192.154 88.8171 188.42C88.5431 191.208 88.2615 192.517 88.2101 195.972C88.6415 197.007 88.9101 196.93 88.9225 200.298C88.3231 198.306 87.9066 202.134 87.2873 201.291C87.4316 198.903 88.0334 200.238 88.3215 198.856C88.3503 198.715 88.1994 196.489 88.2101 195.972C87.6695 198.218 87.4683 198.994 86.825 197.613C86.8813 199.201 86.8005 200.189 87.1077 200.334C86.9744 200.665 86.841 200.998 86.7078 201.324C86.7111 201.841 86.7234 202.307 86.721 202.855C87.1843 202.1 86.8991 203.563 87.1091 204.603C87.3194 205.643 87.6852 204.247 87.6902 207.104C87.7986 206.152 87.8917 205.281 87.9943 204.36C88.1135 206.202 88.2335 208.05 88.3527 209.891C88.6358 208.598 89.0564 205.794 89.4288 205.871C89.2882 206.719 89.5354 209.626 89.5455 209.944C89.5836 211.175 89.3487 210.504 89.3429 210.597C89.2287 212.532 89.3087 214.126 88.9528 214.86C89.1134 216.314 89.0218 217.411 89.0309 218.952C89.0359 219.801 89.2973 219.636 89.2477 220.132C88.9165 223.433 88.5787 220.288 89.2218 226.656C89.4039 225.885 89.5903 225.125 89.774 224.354C89.8428 225.073 89.9118 225.788 89.9806 226.507C89.9475 226.989 89.9141 227.466 89.881 227.947C89.4861 227.936 89.0904 227.924 88.6955 227.914C88.6739 228.441 88.653 228.971 88.6315 229.499C88.5926 228.594 88.5537 227.686 88.5148 226.78C88.4453 226.698 88.3758 226.62 88.3063 226.538C88.1987 227.883 88.0901 229.224 87.9816 230.569C88.119 230.595 88.2573 230.62 88.3947 230.646C88.2035 233.678 88.0872 233.751 88.4655 236.633C88.4614 238.852 89.0357 240.66 89.2775 241.943C89.2005 242.404 89.1225 242.865 89.0456 243.33C89.1598 243.625 89.2736 243.923 89.3878 244.218C89.2289 244.803 89.0699 245.395 88.9118 245.98C89.2726 246.306 89.3852 246.475 89.5118 244.193C89.9606 244.975 89.7626 248.991 89.6119 250.626C89.4976 251.867 89.1233 250.49 89.0778 250.646C88.9231 251.164 89.0566 253.208 89.0309 253.637C88.9241 255.454 88.9428 256.726 88.86 258.366C88.8434 258.686 88.6062 259.578 88.5988 259.654C88.5582 260.244 88.4429 261.7 88.4396 261.865C88.2626 270.406 89.2917 261.28 89.1832 269.222C89.319 268.984 89.4538 268.766 89.5895 268.533C89.5977 269.133 89.6056 269.739 89.6139 270.339C89.5005 271.1 89.2942 270.179 89.4606 271.69C89.2933 271.592 89.126 271.493 88.9596 271.389C89.0499 272.047 89.1394 272.68 89.2296 273.353C88.6763 274.359 88.5307 277.909 87.9279 278C87.9122 278.002 87.8963 278.002 87.8799 278C87.8656 277.998 87.851 277.994 87.8361 277.988C87.6043 277.895 87.3664 275.163 87.1189 276.606C87.0702 277.779 87.347 276.986 87.3616 277.464C87.3671 277.653 87.3712 277.832 87.3739 278C87.2625 280.741 86.7134 280.514 86.408 281.686C86.4783 281.94 86.5361 282.212 86.5826 282.485C86.3 282.919 85.9839 283.329 85.6373 283.71C85.6558 283.872 85.6669 284.04 85.6766 284.206C85.9955 283.826 86.3173 283.368 86.552 282.977C86.602 283.361 85.7961 284.861 84.8132 285.756C83.8484 286.663 82.9907 287.07 83.8549 286.294C84.5543 285.658 85.7231 284.494 84.6369 284.872C83.6116 285.981 82.1164 286.952 80.5622 287.437C80.4846 287.344 80.4115 287.25 80.3371 287.155C78.271 287.638 80.2372 287.72 80.3169 287.929C79.8099 288.054 79.287 288.139 78.7666 288.184C78.5366 288.094 78.3264 287.991 78.0995 287.89C78.0941 287.938 78.0687 288.003 78 288.068C77.8238 288.238 77.368 288.415 76.2664 288.309C75.2852 288.213 76.8304 287.785 74.9594 287.844C75.0992 288.109 75.7751 288.432 73.691 288.517C73.484 288.241 73.1979 287.988 73.0375 287.697C70.4457 287.963 69.2662 287.536 66.224 287.844C64.294 288.04 61.6502 288.733 60.4031 287.665C58.9914 287.637 59.4395 287.903 59.0217 287.963C57.0502 288.246 55.5839 287.739 55.2165 287.709C52.8735 287.518 51.823 287.694 49.914 287.454C50.0175 287.652 50.0739 287.84 50.1567 288.032C51.9056 287.736 52.7914 287.75 55.2441 287.814C54.4216 287.853 53.5987 287.894 52.7762 287.934C52.9107 288.094 53.0439 288.255 53.1733 288.415C60.759 287.782 58.9894 288.782 52.6301 289C52.0817 288.703 51.5133 288.407 50.9701 288.109C47.2964 288.559 45.5677 288.168 41.413 288.074C40.9191 288.064 39.12 288.235 38.3468 288.243C38.3597 288.244 38.3725 288.246 38.3854 288.247C37.9043 288.527 38.5559 288.657 38.6336 288.907C38.2145 288.939 37.7952 288.97 37.3762 289.002C36.4403 288.81 36.7693 288.653 34.9276 288.699C35.176 288.889 35.421 289.08 35.6694 289.27C33.6513 289.277 32.3307 289.07 30.4524 289.159C30.768 289.087 31.0798 289.015 31.3954 288.943C27.3076 288.759 30.5608 287.64 27.4716 288.197C27.2751 288.099 27.0836 288.001 26.8871 287.903C28.1598 287.879 29.433 287.856 30.7005 287.832C30.7264 287.694 30.7543 287.556 30.775 287.418C29.4141 287.459 28.0467 287.502 26.6858 287.543C27.6793 287.45 28.6786 287.358 29.672 287.265C28.0941 287.199 26.5156 287.132 24.9376 287.066C26.6134 287.574 24.4409 287.637 24.8494 288.14C22.0552 287.721 19.8604 287.169 15.5294 287.522C14.7079 287.59 15.0994 287.914 13 287.567C12.9088 287.552 12.8134 287.534 12.7139 287.512C12.9917 287.795 12.3938 288.007 11.7162 288.124C11.0446 288.249 10.3064 288.259 10.4469 288.569C11.2838 288.747 12.1685 288.833 13 288.804C13.0603 288.802 13.1204 288.8 13.1801 288.798C13.1164 288.785 13.0562 288.771 13 288.756C12.2929 288.565 12.2123 288.209 13 288.038C13.1403 288.004 13.3099 287.976 13.511 287.954C15.3271 287.762 17.976 288.114 17.8677 287.551C18.5918 287.577 19.2653 287.593 19.9688 287.615C19.6792 287.755 19.3957 287.896 19.1112 288.035C21.1129 287.816 22.3706 287.887 23.3328 288.24C20.9478 288.321 18.5679 288.401 16.1829 288.482C16.5342 288.506 16.8904 288.53 17.2417 288.553C15.4359 288.913 17.2987 289.254 13.9301 289.331C13.9508 289.166 13.9673 289.002 13.988 288.836C13.7318 288.928 13.3825 289.001 13 289.063C11.3906 289.355 9.20943 288.754 10.0576 289.41C8.94311 288.941 8.7907 288.739 8.05762 288.718C5.33068 286.971 4.6809 285.005 5.75209 285.384C4.95308 284.731 4.24158 283.949 3.65766 283.07C3.80966 283.683 4.02219 284.294 4.29354 284.892C3.10685 283.384 2.31961 281.549 2.04854 279.658C2.2671 279.536 2.43048 280.425 2.69717 281.163C2.95552 281.905 3.26058 282.493 3.24432 281.922C3.23324 281.701 2.75682 280.829 2.7514 280.558C2.7174 279.179 2.84935 279.568 2.97992 280.156C3.1194 280.751 3.4051 281.539 3.46815 281.111C2.87111 278.469 3.49971 279.119 3.42163 278C3.42532 277.504 3.36775 276.671 3.20292 275.1C3.33867 274.96 3.47715 274.81 3.61208 274.681C3.62023 272.845 3.31359 272.994 3.25565 271.416C3.2196 270.428 3.75804 269.187 3.39138 268.096C3.32378 267.901 2.66568 269.737 2.69464 265.879C2.71709 262.885 3.18216 264.131 3.34695 262.512C3.51171 260.893 2.86684 257.188 3.59792 256.096C3.50109 256.944 3.44885 258.025 3.36941 258.966C3.51179 259.349 3.65264 259.722 3.7942 260.1C3.6104 257.947 3.82702 255.722 3.48757 254.273C4.00669 251.401 3.52495 248.19 2.93877 249.059C3.02328 250.004 3.27889 248.976 3.11601 250.289C2.9794 250.423 2.84346 250.565 2.70685 250.7C2.72341 248.464 2.71957 246.912 3.13603 247.931C3.14596 247.585 3.15587 247.241 3.16581 246.894C2.86444 246.832 2.56195 246.777 2.26058 246.715C2.22664 246.301 2.19297 245.886 2.15902 245.472C2.22522 245.011 2.29219 244.55 2.35921 244.085C2.8361 244.711 2.85185 245.777 3.11845 242.248C2.95369 242.238 2.78958 242.223 2.62482 242.212C2.83428 239.258 3.23339 239.18 3.21854 235.471C3.79057 238.316 2.77657 239.873 3.92407 239.863C3.84873 240.577 3.77238 241.297 3.69703 242.011C3.86345 242.12 4.0301 242.228 4.19652 242.331C4.10874 238.497 3.0143 232.128 3.74 229.562C3.65144 229.251 3.57446 228.94 3.47927 228.624C3.91725 226.109 2.93395 225.023 3.50026 222.472C3.5597 222.209 4.48352 222.76 4.45041 219.439C4.33035 219.522 4.12826 219.565 3.9768 219.632C4.05046 218.913 4.12755 218.198 4.20287 217.484C4.09197 217.355 3.98111 217.219 3.86939 217.09C3.82633 218.316 3.78256 219.539 3.73951 220.765C3.70144 219.746 3.66333 218.721 3.62526 217.702C3.44401 219.031 3.44208 219.631 3.15165 218.83C3.13426 217.676 3.11582 216.52 3.09843 215.366C3.02402 215.248 2.94873 215.13 2.87432 215.011C2.65245 215.57 2.43547 216.134 2.21029 216.693C2.3916 213.687 2.40145 211.073 2.8377 208.765C2.91138 208.372 3.20044 209.763 2.93975 207.083C3.09283 207.042 3.21715 206.97 3.35867 206.923C2.9298 203.643 3.05781 202.565 3.36746 199.145C3.07851 201.359 3.26644 199.383 3.11161 198.819C3.00495 198.433 3.0207 199.941 2.90899 199.771C2.79805 199.6 2.3501 197.64 2.29622 199.316C3.21441 203.424 2.11664 204.543 2.55793 209.821C2.43953 209.009 2.32087 208.191 2.20248 207.378C2.12223 207.761 2.04943 208.103 1.96421 208.517C2.14384 205.573 2.02714 207.005 1.8856 205.796C1.74402 204.585 1.62375 202.384 1.58483 200.909C1.57261 200.445 1.77854 200.935 1.79771 199.886C1.81096 199.173 1.50567 197.221 1.86558 196.771C2.09987 196.476 2.74501 199.611 2.74347 195.276C2.97315 194.46 2.90182 196.538 2.92949 196.583C3.20271 196.961 3.40814 194.296 3.1995 193.065C3.1815 192.965 2.9686 193.937 2.88506 192.88C2.68553 190.37 2.92969 188.921 3.26004 187.296C2.87257 187.12 2.40981 185.008 2.55305 182.38C2.44216 182.245 2.3303 182.117 2.21859 181.983C2.27728 182.391 2.33518 182.799 2.39387 183.207C2.32433 183.652 2.2737 184.124 2.19174 184.558C2.09645 181.915 1.56245 181.541 1.36707 180.273C0.699649 175.935 2.11146 178.564 2.35481 179.347C2.25629 179.911 2.14631 180.456 2.04282 181.015C2.17777 180.953 2.31375 180.89 2.44954 180.833C2.44541 174.339 3.32557 179.844 3.57643 176.548C2.91247 175.699 2.84847 173.279 3.26981 170.195C3.2665 169.853 3.26565 169.511 3.26151 169.169C3.1647 169.112 3.01672 169.113 2.95293 169.02C2.84033 165.305 3.86285 164.643 3.95971 164.291C4.38934 162.729 3.7949 161.512 3.7898 161.051C3.7691 159.111 4.03305 158.547 3.91968 156.7C3.79717 154.714 3.59464 156.072 3.41336 155.468C3.26939 154.983 3.24375 153.416 3.09452 152.768C3.21657 153.025 3.33626 153.311 3.45876 153.568C3.62515 151.509 3.78732 149.826 3.82789 147.488C2.93486 144.849 4.44128 142.604 3.21952 143.514C3.1359 145.729 2.99667 146.967 2.68536 148.152C2.64563 146.699 2.60694 145.244 2.56721 143.79C2.7013 143.366 2.83198 143.065 2.96855 142.563C2.6838 141.477 2.80599 138.958 2.72247 137.969C2.33086 133.338 1.84515 134.771 2.66144 130.544C2.74098 133.59 3.13744 133.586 3.08281 136.607C3.36595 135.955 3.30729 134.42 3.64674 135.413C3.56313 132.49 3.26007 133.435 2.99101 132.297C2.75907 131.316 2.74608 129.34 2.44465 129.452C2.61038 129.25 2.77082 129.093 2.93633 128.892C2.93467 126.999 2.93457 125.105 2.93291 123.212C3.10592 124.019 3.27925 124.826 3.45144 125.633C3.51679 125.023 3.58188 124.412 3.64723 123.802C3.10908 119.145 4.09537 111.114 2.74347 112.397C2.70042 110.152 2.86998 109.871 3.12577 108.65C3.02314 108.515 2.93777 108.385 2.82354 108.25C2.93098 106.802 2.54565 105.69 2.64582 104.412C2.74521 103.134 3.10918 102.817 2.49739 102.631C2.67288 101.803 2.81866 100.98 2.98174 100.157C2.84275 99.6609 2.70537 99.1649 2.56721 98.6737C2.64006 97.8977 2.71261 97.1198 2.78546 96.3438C2.49342 95.929 2.6193 92.8773 2.42317 91.5321C2.73797 90.2551 3.72915 90.2901 3.55153 87.2857C3.3057 87.3633 3.06058 87.4397 2.81475 87.5173C2.86607 86.8293 2.91723 86.1398 2.96855 85.4465C3.04879 85.4052 3.12903 85.3693 3.20926 85.328C3.18443 85.6798 3.15973 86.0268 3.13407 86.3785C3.26985 86.0733 3.40501 85.7742 3.54079 85.4741C3.33964 84.4239 3.13846 83.3723 2.9373 82.3169C2.785 83.7395 2.6326 85.1627 2.4803 86.5853C2.29981 84.8002 2.47984 83.5576 2.27865 82.0053C2.61804 80.655 2.81361 81.1536 3.18192 81.702C3.15047 81.2003 3.12011 80.6927 3.08866 80.191C3.45703 80.5219 3.67652 79.6733 3.64674 82.6064C3.75181 82.4048 3.85198 82.199 3.96118 82.0026C3.94462 81.5214 4.03343 81.2094 3.99292 80.6818C3.88197 79.2433 3.23496 78.1404 3.0081 78.2387C2.88927 78.2918 3.11653 79.7102 2.94853 79.6533C2.53887 79.5129 2.7228 76.2593 2.31136 80.952C2.05056 79.3945 2.24724 79.0466 2.32259 77.3288C2.18608 77.4632 2.05043 77.5938 1.91392 77.7231C1.97682 76.9266 2.03949 76.129 2.10239 75.3324C2.80362 76.4397 3.06699 70.5667 3.68043 75.8536C3.71189 74.2913 3.74351 72.7342 3.77662 71.1771C3.84863 71.4978 3.91992 71.8186 3.99194 72.1394C3.95386 72.843 3.9164 73.5424 3.87915 74.246C4.01075 73.4184 4.14158 72.5893 4.27318 71.7616C4.11007 69.8058 3.85922 69.0391 3.54958 68.1439C3.32362 70.4201 3.63227 69.6764 3.69361 71.45C3.49752 71.3881 3.31715 71.47 3.11112 71.3149C3.5173 70.3984 3.22181 67.4088 3.20194 66.7156C3.14161 64.6057 3.5407 66.2602 3.54909 64.8488C3.55737 63.4362 3.31983 61.7702 3.71559 60.6163C3.49377 60.6369 3.26427 60.7293 3.0623 60.812C2.98944 58.6129 3.25149 59.0516 3.28543 58.8239C3.84344 55.1916 3.37234 53.2206 3.31522 49.0655C3.24651 49.5933 3.18448 50.1264 3.11991 50.6593C2.64895 47.5247 2.79316 49.6363 2.63751 52.3579C2.68471 49.8069 2.28362 48.346 2.16439 46.5453C2.04537 44.7448 2.25137 41.6571 2.41194 40.5287C2.67026 43.1107 2.49991 45.8956 2.57111 48.7622C2.79708 48.4363 2.98832 48.1196 3.23661 47.7834C2.76234 46.0398 3.07945 45.0295 3.14237 44.4552C3.32691 42.7687 2.91985 42.8217 3.35769 41.8026C3.20707 41.844 3.08043 41.8743 2.93975 41.9156C3.00267 38.4335 3.26895 34.6774 2.71271 32.4109C3.07448 32.204 3.42302 32.0478 3.79224 31.8098C3.51992 30.3353 3.79879 29.0726 3.73512 27.8309C3.67137 26.5942 3.379 27.065 3.26639 25.6112C3.24569 25.3421 3.42869 24.7818 3.29373 24.1194C3.15806 23.4507 2.14933 20.9842 3.03056 20.6893C3.03471 19.4423 3.06693 18.2623 3.08183 17.0412C3.1315 18.2312 3.17961 19.4217 3.22928 20.6065C3.44286 19.5925 3.65581 18.5847 3.86939 17.5706C3.67896 17.4413 3.48509 17.3116 3.29715 17.1874C3.1662 15.644 3.20857 14.3399 3.25696 13C3.29684 11.9918 3.47697 10.982 3.81907 9.8703C3.97977 9.44913 3.16505 10.3003 4.09241 8.47269C5.20197 6.73444 6.53117 5.87733 9.34605 4.26849C9.47098 4.20054 10.2658 3.27981 11.549 3.46609C11.8246 3.50226 10.7349 3.82332 11.358 3.82201C11.632 3.82092 12.3132 3.76853 13 3.8308C13.9362 3.90389 14.8931 3.99732 15.0198 4.14428C14.9887 4.05075 14.8072 3.95383 14.7192 3.85865C15.2158 3.81395 15.7175 3.76922 16.2192 3.72535C16.2658 3.89009 16.3161 4.05507 16.3626 4.21898C19.2188 3.83566 20.6948 3.21036 24.9271 3.41726C23.7371 3.17801 22.5466 2.9378 21.3618 2.69855C21.0358 2.86662 20.7092 3.03582 20.3884 3.20389C18.438 3.13684 16.4821 3.07027 14.5317 3.00322C14.2109 3.19447 13.8957 3.38518 13.5749 3.57643C13.3827 3.56721 13.1913 3.55809 13 3.549C12.6923 3.53364 12.3858 3.5329 12.0774 3.54691C12.186 3.39756 12.3015 3.25058 12.4273 3.10493C11.4148 3.19611 10.4224 3.44484 9.50086 3.83367C10.3061 3.069 11.8297 2.78003 13 2.83469C14.1531 2.86872 15.0131 2.91878 14.8791 2.57795C15.3394 2.68387 15.8003 2.79052 16.2606 2.89727C16.4625 2.56625 17.3984 2.66152 19.0483 2.71368C18.6706 2.55058 18.2535 2.3897 17.9068 2.22494C19.5108 2.45508 22.3562 2.43273 24.0171 2.52131C24.7466 2.56022 24.018 2.80021 24.235 2.82842C25.3475 2.9758 27.4738 2.55704 27.9188 2.59015C30.5784 2.78724 32.3066 3.58115 35.2094 3.0579C32.2134 2.92875 33.8433 2.9833 32.7774 2.69269C32.4437 2.60157 28.5732 2.4115 33.4198 2.49592C33.988 2.50648 42.7822 3.05502 39.8914 3.47536C41.3144 3.34124 42.4285 3.18615 43.7325 3.04374C46.9199 4.15153 45.8168 3.11085 44.8906 2.53791C45.4132 2.53543 45.9104 2.52961 46.4485 2.52961C45.305 3.13152 51.131 3.1689 53.1076 2.86504C53.7699 2.76403 51.918 2.57137 53.4495 2.4803C54.1788 2.52251 55.0061 2.57716 55.7767 2.62433C54.6592 2.24351 56.8525 2.09675 56.8218 1.70934C58.2239 2.05456 59.2964 2.78629 58.5259 3.1829C59.6847 3.02231 60.8496 2.86192 62.0085 2.7005C61.4703 2.6086 60.9252 2.51751 60.3871 2.42561C64.1748 2.66903 69.045 2.11514 69.8367 2.929C70.3386 2.92321 70.8458 2.9182 71.3477 2.9124C71.503 2.77497 71.653 2.63726 71.8082 2.49983C73.8738 2.60824 75.9352 2.71731 78 2.82584C78.2104 2.83666 78.4169 2.85372 78.6249 2.87715C78.3983 2.87283 78.1931 2.87837 78 2.88978C76.4682 2.98228 75.8792 3.12163 73.9921 2.98027C74.8093 3.13834 75.6417 3.29728 76.4434 3.45535C77.044 3.37528 77.5471 3.30038 78 3.23238C79.8502 3.07506 81.2784 2.74719 84.4267 5.17806C84.5111 5.24743 85.2058 5.94634 85.7205 6.74607C86.2508 7.53745 86.5919 8.3989 86.603 8.45925C86.7129 9.01748 86.1286 8.39344 86.1694 8.64532C86.2325 8.98297 86.5423 10.1024 86.5642 11.1239C86.6085 12.1473 86.4194 13.0345 86.3797 12.999C85.967 12.6576 85.728 10.5843 84.2316 8.72383C82.8057 6.80965 80.1133 5.58641 78 5.69601C76.4791 5.7137 75.2002 5.72323 74.3836 5.73453C53.7581 6.01969 33.3647 5.96416 13 5.85869C9.20152 5.73328 5.70685 9.15019 5.77236 13C5.69406 27.2472 5.62791 41.506 5.6735 55.846C5.67547 56.2582 5.82996 56.0783 5.83657 56.2541C5.87538 57.3457 5.6346 58.4177 5.62467 58.8212C5.6042 59.6835 5.82665 59.2087 5.82681 59.8387C5.82433 66.3481 5.69352 72.4907 5.7316 79.0053C5.73408 79.4296 5.5561 78.9964 5.58756 79.7415C5.60479 80.1261 5.87785 81.3302 5.88198 82.1983C5.89605 85.2304 5.80851 87.7774 5.81265 90.9751C5.81512 92.7241 5.79191 95.3478 5.79605 97.3033C5.79781 98.167 5.92273 99.0668 5.9269 99.9201C5.9327 101.131 5.67946 100.884 5.66373 101.07C5.59503 101.887 5.87297 102.001 5.86636 102.777C5.85311 104.22 5.66754 104.298 5.68326 106.13C5.69485 107.439 5.84137 110.435 5.88442 112.086C5.66918 115.946 5.75463 120.81 5.82583 124.411C5.86804 126.543 5.60822 126.741 5.60905 127.61C5.61408 130.673 5.94592 132.997 5.95669 135.874C5.97071 139.691 5.75128 143.075 5.73551 146.774C5.73302 147.373 5.97109 147.236 5.97719 147.824C5.99955 150.003 6.04288 152.788 6.00893 154.729C5.97163 156.891 5.62608 157.689 5.69645 159.805C5.71734 160.426 6.02032 160.607 6.05922 161.647C6.12039 163.308 5.85321 165.129 5.82339 166.288C5.78365 167.876 6.09232 166.495 6.05092 168.637C6.04913 168.725 5.82849 169.046 5.83902 169.506C5.86882 170.846 6.04258 170.713 6.02602 172.674C6.02373 172.862 5.81349 175.462 5.81265 175.721C5.80934 177.242 5.73573 180.305 5.78043 181.205C5.93939 184.424 6.27125 181.89 5.55094 184.627C5.72725 185.832 5.90595 187.028 6.07729 188.305C5.91749 187.453 5.68691 190.913 5.70182 191.157C5.8219 193.168 6.10216 191.97 6.0558 194.521C5.40835 191.152 5.97235 197.811 5.98891 199.296C6.0692 206.447 5.90763 212.947 5.91177 220.134C5.91346 222.54 6.05032 225.764 6.04701 228.31C6.04682 228.903 5.89359 228.455 5.89028 228.977C5.88801 229.498 6.06002 228.92 6.05092 229.515C5.99129 233.214 5.66673 236.113 6.0724 239.502C6.01375 239.667 5.9674 239.662 5.90298 239.935C6.26641 242.708 5.77767 248.05 5.7106 250.057C5.60635 253.197 5.852 253.999 5.8024 256.281C5.73616 259.297 5.25625 263.826 6.04848 261.804C6.07331 263.873 6.08016 265.865 6.00649 267.955C5.99814 268.188 5.79677 268.028 5.79263 268.121C5.76372 268.711 5.94401 268.903 5.95229 269.301C5.97456 270.381 5.75869 268.618 5.819 270.159C5.85129 270.971 6.00853 271.432 6.01186 273.688C6.01368 275.113 6.01469 276.551 6.01502 278C5.91005 281.639 9.21496 285.084 13 285.002C20.4623 285.018 27.9842 285.04 35.2806 285.054C36.2378 285.055 35.6077 284.86 36.8082 284.873C40.9787 284.916 48.4438 285.244 52.04 285.199C55.636 285.154 54.8247 284.87 57.075 284.75C57.5096 284.727 57.1532 284.889 57.5465 284.892C60.1906 284.907 63.3429 285.16 65.485 285.198C66.9016 285.224 66.7882 284.968 67.7709 284.95C69.2353 284.924 70.7424 285.182 71.5237 285.19C73.9934 285.214 75.9442 285.128 78 285.102C78.7187 285.087 79.4405 284.989 80.2104 284.776C80.1022 284.752 80.0278 284.72 79.9367 284.689C82.6693 283.943 84.8011 281.344 84.9706 278.501C84.9099 278.632 84.8457 278.754 84.7774 278.878C84.8216 278.553 84.8438 278.262 84.8551 278C84.9554 274.624 85.2994 275.102 84.2426 275.479C84.2012 275.132 84.1532 274.765 84.1151 274.434C84.7203 274.568 85.1632 271.685 85.3172 268.017C85.3288 267.748 84.7387 265.943 85.4359 266.139C85.2653 265.669 85.1478 265.388 84.9979 264.99C85.209 264.214 85.4175 263.427 85.6278 262.651C85.5963 262.232 85.566 261.807 85.5345 261.388C85.3979 261.326 85.256 261.374 85.1219 261.24C85.1012 259.294 85.2701 255.304 85.2528 253.767C85.2089 249.948 84.8395 246.061 85.2386 243.09C85.1979 241.644 84.9298 243.08 84.9637 240.929C85.0995 240.685 85.2296 240.457 85.3695 240.203C84.7629 238.445 85.1319 238.077 85.2586 235.667C85.3447 234.038 85.1965 232.97 85.2254 231.418C85.2329 231.025 85.4109 231.081 85.4051 230.812C85.3868 229.911 85.1417 227.339 85.1351 226.703C85.0705 220.939 85.098 215.988 85.1634 210.498C85.17 209.908 84.9944 210.673 85.0018 210.062C85.0135 209.08 85.2835 209.658 85.2967 209.089C85.3321 207.502 85.0475 207.49 85.0326 205.276C84.9838 197.985 85.1976 189.603 85.2166 181.987C85.2166 181.749 85.0499 181.763 85.0482 181.504C85.04 179.818 85.2655 178.111 85.263 176.579C85.2597 174.039 85.0254 172.129 85.0262 169.62C85.0271 164.714 85.147 160.332 85.1537 155.287C85.1595 151.158 85.1372 147.572 85.138 143.044C85.1413 123.267 84.6119 103.087 84.8934 83.1756C84.9009 82.6688 85.0482 82.8752 85.0418 82.7206C84.9781 81.2511 84.7793 81.12 85.1957 80.5974C85.1136 78.7254 84.8008 78.1347 84.8231 75.874C84.8348 74.6691 85.3197 75.5687 85.0697 73.5302C84.8437 71.6895 84.578 73.7208 84.8495 68.2471C84.8569 68.1022 85.1525 67.3889 85.0755 66.2507C84.9994 65.1071 84.7877 66.4309 84.724 63.6781C84.575 57.2155 84.8304 49.0354 84.7518 41.5224C84.7469 41.0515 84.5889 36.5168 84.516 35.6216C84.3744 33.8893 84.1548 34.2512 84.101 32.0012C84.0596 30.2625 84.3084 28.8281 84.2587 26.7842C84.2526 26.5461 83.9967 26.1474 84.0307 24.6114ZM1.99887 246.9C1.7478 246.476 0.823634 245.71 1.10488 243.144C1.13137 242.901 1.76691 244.214 1.86802 242.797C1.93508 244.184 1.9568 245.534 1.99985 246.9C1.99953 246.9 1.9992 246.9 1.99887 246.9ZM89.9234 13.4908C89.8771 15.4106 89.8311 17.3367 89.7848 19.2565C89.673 17.9319 89.5615 16.6053 89.4489 15.2859C89.607 14.6857 89.7653 14.0909 89.9234 13.4908ZM89.4845 252.463C89.4845 252.461 89.4845 252.459 89.4845 252.457C89.6037 254.475 89.7232 256.494 89.8424 258.512C89.7546 258.3 89.6665 258.088 89.5787 257.876C89.4405 256.282 89.3024 254.688 89.1642 253.1C89.271 252.888 89.3777 252.675 89.4845 252.463ZM88.5553 236.52C88.6597 235.231 88.8356 235.546 89.007 234.838C89.0067 234.838 89.0063 234.838 89.006 234.838C89.0506 234.65 89.0897 233.779 89.0963 233.442C88.9862 233.566 88.8775 233.727 88.7682 233.861C88.5016 230.855 89.449 224.976 89.8307 232.587C89.6916 232.474 89.5533 232.365 89.4142 232.251C89.4531 236.034 89.1515 240.25 88.5553 236.52ZM1.5985 216.486C1.14314 213.257 1.04713 212.222 1.35926 208.305C1.48833 208.858 1.61738 209.411 1.74645 209.965C1.6148 210.612 1.48406 211.254 1.35242 211.9C1.35242 211.902 1.35242 211.904 1.35242 211.906C1.49068 212.035 1.62918 212.165 1.76744 212.289C1.71115 213.686 1.6548 215.089 1.5985 216.486ZM88.8844 112.922C89.7939 112.022 89.2653 112.282 89.4703 114.852C89.5415 115.742 89.7007 114.875 89.7272 115.429C89.8719 118.419 89.2625 118.658 88.9455 117.99C88.9239 116.298 88.9043 114.589 88.8844 112.928C88.8844 112.926 88.8844 112.924 88.8844 112.922ZM88.6955 35.3486C88.6955 35.3468 88.6955 35.345 88.6955 35.3431C88.9173 35.2656 88.977 36.4708 89.1872 35.1115C89.1863 36.1457 89.1846 37.1798 89.1837 38.2191C89.1631 37.9142 89.1434 37.6029 89.1227 37.2981C89.0465 37.5672 88.9694 37.837 88.8932 38.106C89.1482 38.4734 89 38.8147 88.9147 39.9011C89.1871 39.601 89.4597 39.3023 89.732 39.0022C89.6509 40.2644 89.5695 41.5314 89.4884 42.7936C89.4198 42.8091 89.351 42.825 89.2824 42.8405C89.3701 43.3164 89.4588 43.7874 89.5465 44.2633C89.4646 44.3926 89.3834 44.5172 89.3014 44.6466C89.3635 45.2207 89.4255 45.7958 89.4884 46.3699C89.2899 46.5447 89.2041 45.2793 89.2545 47.5225C89.0509 46.8344 88.8479 46.1478 88.6442 45.4545C88.6608 42.086 88.6781 38.7171 88.6955 35.3486ZM89.1642 136.308C89.1261 132.598 89.27 133.643 89.7203 134.502C89.5349 135.102 89.3496 135.708 89.1642 136.308ZM44.2641 288.763C43.1879 289.071 42.1071 289.375 41.0049 289.671C38.811 289.842 36.6162 289.283 38.2668 289.063C40.2538 288.8 42.329 289.095 44.2641 288.763ZM2.09994 275.003C1.95751 277.688 1.59252 275.162 1.37976 274.557C1.72171 273.814 1.69154 272.779 1.73131 271.115C1.75348 272.677 2.12413 274.559 2.10092 275.003C2.10059 275.003 2.10027 275.003 2.09994 275.003ZM87.0107 284.498C87.7075 283.52 88.1512 282.416 88.577 281.434C88.7994 281.849 87.6298 283.747 88.6778 282.487C88.3756 283.225 87.9951 283.932 87.5516 284.589C87.6831 284.074 87.1952 284.555 87.0133 284.496C87.0125 284.497 87.0116 284.497 87.0107 284.498ZM89.5104 172.253C89.1626 174.364 89.3114 174.764 89.5524 176.891C89.2692 177.191 88.795 174.655 88.6906 173.066C88.9638 172.797 89.2372 172.527 89.5104 172.253ZM29.4823 1.63463C28.9753 1.99552 25.2356 2.04258 23.3774 1.93589C23.5987 1.88237 23.8207 1.82813 24.042 1.77379C25.853 1.72742 27.6712 1.681 29.4823 1.63463ZM1.75572 270.324C1.74515 270.602 1.73727 270.866 1.73131 271.115C1.72738 270.838 1.73352 270.571 1.75572 270.324ZM3.32205 157.922C3.6623 158.806 3.77661 156.177 3.64332 159.369C3.64365 159.369 3.64398 159.369 3.6443 159.369C3.55654 161.481 3.53311 161.947 3.50661 163.903C3.06953 163.198 2.91329 159.23 2.82305 164.699C2.82265 164.771 3.08273 164.628 3.04716 165.502C3.0361 165.772 2.82265 166.635 2.76056 167.948C2.74069 168.372 2.67486 171.56 2.67072 167.214C2.36603 167.344 2.05764 167.11 1.76207 167.12C1.67617 165.424 2.27278 164.12 2.25814 162.325C2.23496 159.66 1.63166 158.304 2.42317 157.792C2.61764 160.033 2.62231 163.88 2.14633 164.382C2.14053 166.55 2.53051 167.173 2.72345 165.425C2.47838 157.937 3.30231 163.369 2.99101 156.813C2.88093 156.736 2.76247 156.466 2.659 156.507C3.04638 154.506 3.20036 157.606 3.32205 157.922ZM2.4803 173.578C2.24764 172.285 2.01313 170.995 1.77965 169.707C2.15883 169.707 2.4991 170.417 2.71271 172.456C2.63494 172.828 2.55723 173.206 2.4803 173.578ZM2.38069 64.7606C2.17454 64.5743 1.98563 64.0778 1.78941 63.7156C1.96327 63.3223 2.13007 54.0082 2.30062 58.7467C2.32546 59.4349 1.96093 63.6326 2.38069 64.7606ZM89.1998 157.595C89.0616 158.692 88.9231 159.784 88.7848 160.876C88.6971 159.195 88.6071 157.513 88.5178 155.833C88.7451 156.422 88.9725 157.006 89.1998 157.595ZM26.4073 288.402C26.8706 288.409 25.3317 288.693 27.1573 288.648C25.7964 288.829 24.522 288.983 23.1922 289.153C22.7937 289.019 22.3911 288.886 21.9927 288.752C21.6822 288.838 21.3657 288.923 21.0552 289.009C21.2415 288.814 21.4073 288.623 21.6039 288.424C23.8444 288.843 24.3582 288.368 26.4073 288.402ZM87.6155 278.656C88.1047 278.251 87.9691 281.618 88.3769 278.343C88.6155 278.969 88.7727 280.084 88.0717 281.996C87.8528 282.258 87.6245 282.506 87.3868 282.74C87.6142 282.903 87.5185 283.429 87.0107 284.498C87.0099 284.499 87.009 284.499 87.0081 284.5C85.0392 286.966 84.8655 286.56 84.0571 286.656C86.7183 284.873 86.3767 284.267 87.1556 282.375C87.6522 281.032 88.019 279.199 87.6155 278.656ZM2.38557 74.6845C2.02711 72.5586 1.69276 74.4664 2.07358 70.6945C2.16465 70.9377 2.25495 71.182 2.34603 71.4252C2.3601 72.5116 2.37316 73.5981 2.38557 74.6845ZM89.0929 268.188C88.4356 268.431 87.9239 270.433 88.9933 270.775C89.2111 268.824 88.6053 269.777 89.0929 268.188ZM3.12919 275.919C3.12124 276.891 3.06549 277.564 2.98079 278C2.81206 279.015 2.44709 278.816 2.15759 278C2.09512 277.828 2.03687 277.632 1.98569 277.419C2.12065 277.181 2.25584 276.943 2.38997 276.71C2.3287 276.053 2.26731 275.396 2.20687 274.739C2.51403 275.132 2.82203 275.525 3.12919 275.919ZM88.3708 202.058C88.8402 204.924 88.6319 198.963 88.925 200.966C89.1592 202.565 88.6862 204.672 88.3898 203.875C88.3815 203.321 88.3758 202.705 88.3708 202.063C88.3708 202.061 88.3708 202.059 88.3708 202.058ZM88.5051 218.646C89.0066 218.175 88.8604 218.854 88.7702 216.589C88.7445 215.942 88.9329 210.803 88.5173 212.96C88.5173 214.797 88.51 216.737 88.5051 218.646ZM2.39534 232.559C2.61376 232.524 3.09338 236.482 2.97344 236.99C2.97376 236.99 2.97409 236.99 2.97441 236.99C2.64738 238.361 2.60091 234.186 2.15219 235.997C2.54704 231.987 1.59195 230.788 2.85039 231.067C2.9056 233.429 2.64619 232.311 2.39534 232.559ZM78.6054 2.68035C78.6073 2.68046 78.6092 2.68057 78.6111 2.68068C78.5321 2.67322 78.2989 2.63195 78 2.59102C77.2801 2.4875 76.2113 2.30055 76.402 2.22103C77.1288 2.2473 77.6192 2.2824 78 2.31215C79.0676 2.43404 79.3041 2.40005 81.2163 2.66683C81.3223 2.81688 81.4049 2.95839 81.5103 3.11507C80.5193 2.85623 79.9515 2.83354 78.6054 2.68035ZM2.8211 54.6906C2.87823 55.6582 2.64151 57.424 2.65558 58.5262C1.74652 55.018 2.59423 50.8257 2.8211 54.6906ZM88.7267 71.6304C88.7271 71.6332 88.7274 71.6359 88.7277 71.6386C88.7272 71.6378 88.7267 71.6367 88.7262 71.6359C88.7264 71.634 88.7266 71.6322 88.7267 71.6304ZM2.27572 129.672C2.33473 129.548 2.38599 129.477 2.43098 129.452C2.43521 129.452 2.43945 129.452 2.44368 129.452C2.38842 129.519 2.33254 129.591 2.27572 129.672ZM2.32942 224.334C2.63404 222.685 3.11833 228.177 3.00273 229.953C2.86369 229.829 2.73765 229.81 2.57795 229.52C2.93799 228.087 2.27809 224.608 2.32942 224.334ZM68.838 288.559C64.4966 288.55 70.1465 287.348 70.3794 288.307C70.3706 288.326 68.9501 288.557 68.838 288.559ZM2.4554 258.569C2.81954 259.675 2.91624 257.453 2.85332 261.007C2.759 261.214 2.66446 261.42 2.57014 261.627C2.53206 260.608 2.49347 259.588 2.4554 258.569ZM40.3983 286.98C34.9343 287.183 29.7086 287.54 33.2677 288.545C33.6812 288.512 34.1005 288.481 34.514 288.449C34.5761 287.959 36.1021 288.226 38.3358 288.242C38.6542 288.048 39.8929 288.003 40.1253 287.838C40.5748 287.518 39.1515 287.293 40.3983 286.98ZM87.7771 100.63C87.8607 100.718 87.9447 100.804 88.0275 100.892C88.1219 101.756 88.2159 102.622 88.3102 103.487C88.1498 103.347 87.9893 103.207 87.8288 103.067C87.8114 102.255 87.794 101.447 87.7766 100.635C87.7767 100.633 87.7769 100.632 87.7771 100.63ZM3.51394 178.903C2.59352 178.406 2.76304 180.141 3.22831 183.659C3.32352 182.076 3.41873 180.486 3.51394 178.903ZM87.3528 243.51C87.6143 243.396 87.8749 243.284 88.1364 243.165C87.864 241.297 87.5646 241.644 87.2185 242.539C87.2632 242.865 87.3081 243.184 87.3528 243.51ZM87.2414 216.603C87.1869 217.378 87.398 216.982 87.3938 217.063C87.2828 219.024 87.186 219.301 87.345 221.707C87.4004 222.002 87.4587 222.292 87.5158 222.586C88.0638 221.474 87.7651 220.666 88.0871 218.312C87.8992 218.737 87.711 219.159 87.5222 219.584C87.5619 218.275 87.6011 216.971 87.6408 215.663C87.5829 215.507 87.5255 215.352 87.4675 215.197C87.393 215.662 87.3093 216.143 87.2414 216.603ZM88.0148 90.6371C88.0364 89.3642 88.0587 88.0855 88.0803 86.8126C87.9453 86.766 87.8095 86.7213 87.6745 86.6747C87.7879 87.9939 87.9014 89.3179 88.0148 90.6371ZM3.09452 152.768C3.04665 152.667 2.99849 152.569 2.94951 152.481C3.00921 152.49 3.05581 152.6 3.09452 152.768ZM81.6887 4.1375C82.9412 4.72382 84.6063 5.8732 85.5071 7.10497C85.6054 6.95904 85.0365 6.10456 84.1388 5.33522C83.255 4.54843 82.0504 3.92989 81.4181 3.60491C81.182 3.58851 81.164 3.8825 81.6887 4.1375ZM3.57128 281.029C3.8417 281.319 4.12423 281.584 4.41513 281.822C4.73283 282.58 5.15216 283.3 5.66261 283.956C5.78533 283.888 5.90812 283.818 6.02963 283.748C4.86622 282.424 4.72607 281.69 4.66379 281.246C4.62779 280.783 4.72208 280.503 4.74367 279.673C4.32289 280.078 3.92848 280.527 3.57128 281.029ZM87.1379 50.1365C87.2315 52.9358 87.4062 53.9287 87.821 52.3507C87.7258 51.3627 87.6306 50.369 87.5354 49.381C87.4029 49.6345 87.2704 49.8882 87.1379 50.1365ZM3.40701 101.787C3.25202 99.4444 3.80868 99.4054 3.49782 97.1158C3.39518 98.3419 3.2914 99.5678 3.18876 100.789C3.26133 101.119 3.33443 101.457 3.40701 101.787ZM4.93574 216.676C5.12939 215.688 4.20887 213.841 4.88838 211.062C4.68558 210.4 4.49186 209.985 4.29319 209.416C4.50929 209.085 4.72814 208.709 4.94258 208.393C4.94258 208.391 4.94258 208.389 4.94258 208.388C4.86972 205.868 4.5987 207.501 4.36936 207.445C4.27429 207.418 4.43322 205.548 4.2263 206.132C3.87112 207.141 4.07536 210.911 3.64235 210.922C3.78387 209.597 3.66561 207.01 3.37674 207.775C3.05966 208.614 3.59104 211.051 3.32791 212.604C4.01998 210.379 3.80621 214.973 3.27469 215.496C3.68286 218.192 3.84936 215.714 3.83033 212.951C4.23766 214.638 4.01759 212.155 4.35618 211.746C4.56057 213.485 4.39019 219.455 4.93574 216.676ZM63.155 286.815C61.2918 286.841 58.3809 286.608 57.1053 286.952C56.3623 287.152 59.28 287.307 57.268 287.622C59.0833 287.591 59.4975 287.468 59.1871 287.193C59.6009 287.16 60.0198 287.127 60.4335 287.095C60.6248 287.149 60.8212 287.202 61.0125 287.256C61.2298 287.142 61.4484 287.03 61.6605 286.916C62.1 286.939 62.5446 286.961 62.9841 286.984C63.0357 286.927 63.1238 286.877 63.155 286.815ZM3.38992 34.5258C3.39323 35.0431 3.39652 35.5554 3.40066 36.0727C3.4678 36.0157 3.53771 35.9479 3.6067 35.8825C3.66123 35.8356 3.71575 35.7887 3.77027 35.7418C3.57548 36.0416 3.25171 38.5061 3.45974 39.5443C3.5641 40.0663 3.93459 38.8785 3.99926 41.0912C3.98021 39.4876 3.92965 38.0021 3.89819 36.445C4.00831 36.5847 4.1196 36.7189 4.22972 36.8586C4.22988 36.8577 4.23005 36.8567 4.23021 36.8558C4.25504 36.3386 4.28106 35.8152 4.30589 35.2979C4.00038 35.0392 3.69543 34.7846 3.38992 34.5258ZM86.8357 245.026C87.0518 246.791 87.164 247.381 87.5134 246.548C87.5136 246.546 87.5137 246.544 87.5139 246.543C87.3591 245.886 87.2044 245.228 87.0496 244.571C86.9784 244.721 86.9069 244.871 86.8357 245.026ZM4.24779 137.569C2.92064 133.818 3.7342 142.266 4.18627 140.658C4.20696 140.585 4.10124 137.921 4.24779 137.569ZM3.53737 275.229C3.54701 276.151 3.5558 277.074 3.56526 278C3.56637 278.103 3.56915 278.206 3.57356 278.308C3.64417 278.204 3.71631 278.101 3.79009 278C3.87914 277.868 3.96817 277.736 4.05737 277.606C3.88433 276.815 3.71041 276.021 3.53737 275.229ZM86.5354 62.3242C86.1711 63.4079 86.0391 66.1899 86.4353 67.5494C86.4817 66.8354 86.5281 66.121 86.5745 65.4069C86.62 66.7569 86.6701 68.0917 86.7132 69.452C87.2207 69.5245 86.9262 67.9567 87.0662 65.5972C87.0887 65.2319 87.7187 62.8963 87.2439 62.0898C87.1463 61.9276 87.0799 64.4121 86.7962 62.6854C86.7738 63.4405 86.7788 64.0921 86.7664 64.8058C86.6455 64.8576 86.5245 64.9089 86.4036 64.9658C86.4474 64.0832 86.4917 63.2067 86.5354 62.3242ZM52.3075 286.854C49.7482 286.826 49.4321 287.029 48.8993 287.387C50.0894 287.347 51.28 287.307 52.4701 287.266C52.4134 287.129 52.3642 286.992 52.3075 286.854ZM86.4192 85.1995C86.3606 86.6006 86.6523 86.0005 86.7078 86.5644C86.9164 88.696 86.7079 90.15 86.8386 92.2557C86.7823 92.116 86.7297 91.9876 86.6751 91.8531C86.6751 91.8549 86.6751 91.8567 86.6751 91.8586C86.4292 101.829 87.0908 96.5921 86.9832 90.626C87.0916 90.4863 87.2002 90.3522 87.3079 90.2124C87.1183 87.5426 86.9358 85.0805 86.4192 85.1995ZM4.29319 170.898C4.36108 170.784 4.79252 171.752 4.59054 169.936C3.96062 168.498 4.27328 170.856 4.031 171.447C3.97056 170.955 3.91176 170.452 3.85132 169.966C3.67331 172.905 3.82309 173.334 4.28343 172.263C4.31437 172.186 4.22552 171.012 4.29319 170.898ZM4.60373 151.583C3.6756 151.179 4.09296 154.888 4.38108 154.754C4.39257 154.242 4.23542 153.843 4.30491 153.3C4.37445 152.752 4.59124 152.612 4.60373 151.583ZM4.37669 257.85C4.38083 257.741 4.7709 256.649 4.46555 256.758C3.74276 258.108 4.208 260.829 4.45969 260.353C4.44724 259.453 4.33878 258.853 4.37766 257.85C4.37734 257.85 4.37701 257.85 4.37669 257.85ZM86.3167 45.4435C86.2908 45.4951 86.134 48.2188 86.2796 48.5703C86.4435 48.86 86.6191 49.0038 86.7888 49.2211C86.6315 47.7205 86.7514 44.6832 86.3167 45.449C86.3167 45.4471 86.3167 45.4453 86.3167 45.4435Z" fill="#000F55"/>
</svg>
