<svg width="92" height="365" viewBox="0 0 92 365" fill="none" xmlns="http://www.w3.org/2000/svg">
<path d="M91.2266 85.4786C91.5874 83.5067 91.3509 90.0896 91.8897 85.7183C91.9261 86.6298 91.9636 87.5471 92 88.4586C91.8005 88.6898 91.6014 88.9266 91.4019 89.1578C91.3431 87.9337 91.2844 86.7089 91.2256 85.4786C91.2259 85.4786 91.2263 85.4786 91.2266 85.4786ZM88.7277 83.8071C89.2968 84.9291 89.4486 88.4933 89.9737 84.6429C89.7784 84.3368 89.5831 84.0233 89.3878 83.7172C89.5393 82.3803 89.6908 81.0353 89.8414 79.6984C89.767 79.2176 89.6924 78.7375 89.6188 78.2567C89.9582 77.6445 90.2985 77.0377 90.6387 76.4254C90.5891 76.969 90.5385 77.5199 90.4888 78.0636C90.7645 80.2127 90.8398 82.1249 90.8912 85.0424C90.9715 84.7863 91.0511 84.5294 91.1314 84.2733C90.9948 85.754 90.8579 87.2339 90.7213 88.7083C90.5872 87.4278 90.438 85.9961 90.3131 84.8093C89.7809 86.7085 90.0771 90.0579 90.1881 91.8015C90.3396 94.1757 90.0865 93.6391 90.1925 95.4008C90.209 95.6819 90.4074 95.7139 90.4107 96.2698C90.4265 99.0752 90.3213 104.524 89.8585 101.337C89.9181 96.72 89.5465 92.7821 89.6822 88.2521C89.1471 89.4505 88.965 87.064 88.7277 83.8071ZM90.4317 168.632C90.1718 167.233 90.2767 164.383 90.4571 162.452C90.4571 162.45 90.4571 162.448 90.4571 162.445C90.4968 162.021 90.8423 161.058 90.8282 162.445C90.8041 164.707 90.2603 165.8 90.6295 166.987C90.5607 167.518 90.4996 168.076 90.4317 168.632ZM90.4639 173.546C90.3307 174.933 89.921 174.304 90.0318 172.567C90.0315 172.567 90.0312 172.567 90.0309 172.567C90.0772 171.843 90.4011 173.266 90.0724 170.666C90.3281 170.135 90.5607 169.613 90.8082 169.088C90.8123 169.724 90.819 170.305 90.8223 170.973C90.402 170.523 90.5962 172.16 90.4639 173.546ZM90.0899 103.681C90.4681 103.9 90.4657 102.986 90.7281 101.431C90.7157 102.899 90.7024 104.367 90.69 105.829C90.4897 105.111 90.2902 104.4 90.0899 103.681ZM90.1485 69.1902C90.1485 69.188 90.1485 69.1857 90.1485 69.1836C90.0889 68.7025 90.0291 68.22 89.9703 67.7452C90.1053 67.4578 90.2396 67.1735 90.3746 66.8861C90.2479 65.1866 90.1213 63.4781 89.9938 61.7785C90.406 61.9851 90.3389 65.0357 90.627 66.7163C90.5028 69.2153 90.2635 70.4195 89.9142 70.582C89.992 70.1198 90.0707 69.6587 90.1485 69.1902ZM2.49494 324.506C2.38072 323.938 2.26641 323.376 2.15219 322.808C2.10006 323.564 2.06027 324.313 1.99985 325.075C2.49655 327.068 2.05719 327.256 2.08774 329.867C2.18212 337.87 2.95358 335.747 1.82359 342.975C1.87734 337.172 1.34639 339.402 0.937404 335.903C1.24871 335.178 1.95081 338.645 2.09653 336.296C1.76706 332.248 1.46021 328.355 1.24745 323.863C1.19364 323.995 1.13964 324.125 1.08583 324.256C1.11978 324.969 1.15393 325.675 1.18788 326.387C1.04382 325.619 0.901002 324.868 0.755284 324.087C1.08228 325.074 0.899569 322.558 1.27528 322.895C1.44252 323.044 1.67454 324.156 1.83433 324.812C1.92125 323.119 2.00086 321.383 2.0853 319.671C2.21854 320.558 2.35193 321.445 2.48518 322.325C2.48932 323.049 2.49227 323.768 2.49641 324.493C2.49592 324.497 2.49543 324.502 2.49494 324.506ZM50.1627 0.756261C48.0133 1.14539 44.1075 1.20978 42.0518 0.776767C44.7573 0.770144 47.4573 0.762884 50.1627 0.756261ZM89.6261 70.7451C89.6922 70.5017 89.7577 70.266 89.8238 70.0226C89.9463 71.097 90.068 72.1779 90.1905 73.2523C89.9993 73.4584 89.8081 73.6692 89.6178 73.8816C89.6203 72.8384 89.6236 71.7883 89.6261 70.7451ZM89.839 139.488C89.8274 138.702 89.8337 138.632 89.8609 137.653C89.8608 137.654 89.8606 137.656 89.8605 137.657C89.8706 137.269 89.9823 134.022 90.1295 134.384C90.132 135.996 90.1295 137.715 90.1295 139.365C90.0327 139.415 89.9366 139.426 89.839 139.488ZM89.9249 120.513C89.9252 120.51 89.9256 120.508 89.9259 120.506C89.9482 119.919 89.9938 119.363 90.0021 118.758C90.2337 120.938 89.8181 121.282 89.9356 123.263C90.054 125.243 90.2833 126.467 89.714 128.147C89.6287 127.523 89.5067 126.85 89.4074 126.206C89.635 123.395 89.4208 122.638 89.1964 120.383C89.4398 120.426 89.6815 120.469 89.9249 120.513ZM4.18996 360.633C4.80343 360.919 5.10927 361.575 5.16651 361.63C5.16533 361.629 5.16416 361.629 5.16298 361.628C7.37595 363.292 7.33201 363.019 7.07543 363.023C6.87273 362.933 6.47631 363.09 8.93209 364.139C8.16295 363.932 7.41815 363.655 6.69938 363.298C5.71345 362.537 4.85573 361.595 4.18996 360.633ZM89.6832 287.641C89.7652 287.598 89.8473 287.545 89.9293 287.502C89.9103 290.201 90.2329 290.889 89.9391 293.132C89.853 291.302 89.7675 289.472 89.6822 287.641C89.6826 287.641 89.6829 287.641 89.6832 287.641ZM89.2428 153.093C89.0863 150.1 89.0174 147.886 89.2658 145.012C89.2661 145.01 89.2664 145.007 89.2667 145.005C89.282 144.839 89.4535 145.641 89.4967 145.425C89.4711 144.832 89.4316 144.219 89.401 143.62C89.5383 143.539 89.6756 143.461 89.8121 143.38C89.7732 145.067 89.7343 146.755 89.6954 148.448C89.7757 148.198 89.8553 147.942 89.9356 147.692C89.977 149.129 90.0183 150.56 90.0597 151.997C89.8345 151.497 89.6094 150.999 89.3834 150.506C89.3363 151.367 89.2908 152.231 89.2428 153.093ZM88.7863 332.578C88.8757 332.103 89.0257 332.982 89.1027 332.245C89.1787 331.507 89.0118 330.148 89.2643 330.467C89.2982 331.459 89.3371 332.502 89.3727 333.513C89.8279 330.258 89.416 327.011 89.9781 326.961C89.8324 330.085 89.9001 332.653 90.0558 335.678C89.6095 335.553 89.2237 332.528 88.8048 334.432C88.7991 333.82 88.7906 333.177 88.7873 332.584C88.7869 332.582 88.7866 332.58 88.7863 332.578ZM84.0307 27.0209C84.0646 25.1715 83.8825 20.9338 84.1425 18.597C84.2065 18.0221 85.0365 16.1068 85.1458 16.1165C85.5143 16.1727 85.5644 18.5119 85.8045 16.0066C85.807 16.8494 85.8208 17.6673 85.8275 18.5038C86.075 18.3539 86.3219 18.2047 86.5686 18.061C86.5314 17.0426 86.4939 16.0228 86.4558 15.0044C86.5378 14.9544 86.62 14.9046 86.7019 14.8546C86.7036 18.516 87.0199 16.3547 87.3147 18.2541C87.4637 16.505 87.612 14.7428 87.761 13C87.7427 14.0058 87.7293 15.1927 87.7077 16.0799C88.1275 16.1986 88.0274 14.0819 88.1052 13.7192C88.5448 11.6762 88.3229 22.0777 88.9337 22.9288C89.0016 21.2672 89.0679 19.5237 89.1349 17.8246C89.2102 18.3119 89.2856 18.8056 89.361 19.2929C88.9397 23.1476 88.7904 27.4703 88.528 31.962C88.5454 32.3679 88.5632 32.7744 88.5798 33.174C88.7693 33.0553 88.9581 32.9431 89.1476 32.8244C89.17 33.4367 89.1921 34.0567 89.2145 34.669C88.5903 32.8636 88.5988 35.3637 88.218 38.3815C87.9986 36.776 88.1316 34.7954 87.7229 34.932C88.0373 40.4424 87.5929 46.8956 87.948 52.2559C88.0357 53.5866 88.563 53.5823 88.5143 56.7109C88.4564 56.6047 88.3517 56.5865 88.2756 56.5178C88.5281 61.9287 88.6791 65.2117 88.4216 70.835C88.6111 70.5103 88.8014 70.1908 88.9909 69.8661C88.8965 68.6727 88.8006 67.4773 88.7062 66.2901C89.0192 65.4781 89.1573 66.6783 89.1539 63.117C89.1515 60.1991 89.0133 61.9361 88.9206 61.1426C88.794 60.0681 89.043 59.1251 88.9015 57.9695C88.7931 57.076 88.5349 58.0426 88.6003 55.712C88.9348 56.6492 89.2801 57.6054 89.6188 58.5488C89.5434 59.1175 89.4669 59.6817 89.3908 60.2503C89.3013 59.6754 89.2131 59.1103 89.1237 58.5355C89.2843 60.5598 89.4358 62.4725 89.6022 64.5654C89.1187 63.8844 89.2999 66.0478 89.3571 67.2224C89.4464 69.0523 89.1136 67.4846 89.1691 68.6841C89.2254 69.8838 89.5972 71.1775 89.5177 73.3455C89.3025 72.1836 89.1095 73.7642 88.9108 73.4587C88.7121 73.1526 88.6681 70.8594 88.4513 73.0625C88.6161 77.2986 89.3727 72.7019 89.4952 75.563C89.6426 78.9993 88.4093 79.817 88.1442 78.7927C87.9356 77.9868 87.9776 75.2133 87.7697 74.401C87.3947 79.3683 88.1351 79.4113 88.28 80.2611C88.8073 83.3476 87.3998 81.2742 87.9089 84.9292C87.6457 84.8605 87.4089 84.8048 87.1565 84.7361C87.2045 85.3668 87.2683 85.7854 87.3064 86.5474C87.8192 84.3005 87.7973 86.1396 87.7981 87.0834C87.7997 88.5705 88.0499 86.2736 88.1145 86.6672C88.2873 87.7295 88.2088 89.4093 88.4347 88.3787C88.3296 88.841 88.2241 89.3422 88.1198 89.817C88.2508 91.5544 89.3494 95.6375 89.1276 91.7515C89.5358 92.1139 89.3396 93.371 89.2775 94.352C89.2154 95.3327 89.4754 95.3144 89.4274 96.1766C89.2353 99.6064 88.7906 97.3627 88.4421 96.8192C88.6822 101.349 88.841 96.9142 89.0016 103.442C89.2856 104.073 89.5886 101.057 89.7526 103.568C89.2592 104.031 88.9048 105.88 88.7409 109.485C88.8543 109.835 88.9687 110.184 89.0822 110.534C88.6268 112.502 88.1533 111.496 88.7179 115.139C87.6789 113.183 88.3436 114.528 87.9206 117.789C87.8353 118.451 87.6198 116.921 87.5105 117.846C87.4612 118.265 87.6239 119.282 87.4983 120.306C87.4362 120.806 87.0355 123.143 87.2258 124.761C87.7292 123.574 88.1574 126.649 88.5739 124.012C88.4712 128.886 88.7129 132.296 88.0266 126.835C87.8742 128.073 87.7225 129.311 87.571 130.548C87.6911 131.41 87.8102 132.28 87.9294 133.148C87.5157 133.279 87.3996 133.148 87.4724 136.545C87.3747 135.071 87.2755 133.603 87.177 132.123C87.0935 132.073 87.0066 131.867 86.9255 131.916C87.0844 133.729 87.1528 138.834 87.2629 140.071C87.373 141.308 87.4032 138.919 87.51 139.275C88.3907 142.242 87.7411 142.007 87.8923 144.136C87.9817 145.386 88.0788 142.402 88.1169 143.071C88.2565 145.549 87.7884 146.699 87.7824 148.897C88.0481 148.117 88.3179 147.342 88.5861 146.58C88.572 148.886 88.5697 151.456 88.655 153.599C88.6882 154.44 88.8858 153.804 88.8991 153.942C88.967 154.623 89.0745 157.397 89.0753 157.691C89.0769 159.901 88.8032 159.964 88.7882 162.113C88.7651 161.269 88.7442 160.476 88.7218 159.652C88.2781 159.277 87.8344 158.895 87.3899 158.52C87.3576 160.625 87.326 162.731 87.2937 164.843C87.4419 163.3 87.5893 161.751 87.7375 160.208C88.096 162.62 88.4553 165.031 88.8146 167.443C88.5944 168.699 88.3742 169.95 88.154 171.206C88.2121 174.616 89.106 173.929 88.3229 175.547C88.3891 176.553 88.4553 177.559 88.5207 178.564C88.4089 178.42 88.297 178.278 88.1852 178.134C88.254 179.347 88.3222 180.558 88.3918 181.77C88.7875 180.496 89.2039 179.247 89.588 177.985C89.674 180.37 89.3383 180.416 89.2545 180.772C89.0326 181.715 89.3319 183.588 89.1266 184.338C89.0561 184.591 88.8351 182.253 88.5802 183.059C88.5308 183.216 87.5939 186.346 87.8103 188.343C87.98 188.306 88.1881 188.151 88.3727 188.07C88.4758 190.756 87.5899 192.125 87.3415 191.769C87.5154 193.2 87.5299 195.291 87.8015 195.585C87.8081 196.316 87.8144 197.041 87.821 197.772C87.1596 197.011 87.2806 200.06 87.8493 200.26C87.8634 199.004 87.8782 197.746 87.8923 196.491C88.5894 197.44 89.0102 193.624 88.3644 201.565C88.0018 203.083 88.4138 198.866 88.1423 200.103C87.9842 202.252 88.1165 204.27 87.864 206.313C87.5486 208.855 87.2452 205.727 87.6467 211.65C88.6526 198.586 88.3262 213.442 88.6384 219.578C87.6448 221.265 87.3301 226.447 87.6257 233.582C87.9022 232.839 87.7598 230.594 87.8508 229.3C87.9419 228.007 88.1059 229.406 88.235 227.795C88.3642 226.184 88.5397 222.761 88.735 221.13C88.8915 222.511 89.2615 229.332 88.8171 224.822C88.5431 228.189 88.2615 229.769 88.2101 233.942C88.6415 235.191 88.9101 235.099 88.9225 239.166C88.3231 236.761 87.9066 241.382 87.2873 240.365C87.4316 237.48 88.0334 239.092 88.3215 237.425C88.3503 237.254 88.1994 234.566 88.2101 233.942C87.6695 236.654 87.4683 237.591 86.825 235.923C86.8813 237.841 86.8005 239.034 87.1077 239.209C86.9744 239.609 86.841 240.011 86.7078 240.405C86.7111 241.029 86.7234 241.591 86.721 242.252C87.1843 241.341 86.8991 243.108 87.1091 244.363C87.3194 245.619 87.6852 243.934 87.6902 247.383C87.7986 246.234 87.8917 245.183 87.9943 244.07C88.1135 246.294 88.2335 248.526 88.3527 250.75C88.6358 249.188 89.0564 245.803 89.4288 245.895C89.2882 246.919 89.5354 250.429 89.5455 250.813C89.5836 252.3 89.3487 251.49 89.3429 251.602C89.2287 253.938 89.3087 255.862 88.9528 256.75C89.1134 258.505 89.0218 259.829 89.0309 261.691C89.0359 262.715 89.2973 262.516 89.2477 263.116C88.9165 267.102 88.5787 263.304 89.2218 270.994C89.4039 270.063 89.5903 269.144 89.774 268.213C89.8428 269.082 89.9118 269.945 89.9806 270.814C89.9475 271.395 89.9141 271.971 89.881 272.552C89.4861 272.539 89.0904 272.524 88.6955 272.512C88.6739 273.149 88.653 273.789 88.6315 274.426C88.5926 273.333 88.5537 272.237 88.5148 271.143C88.4453 271.043 88.3758 270.95 88.3063 270.85C88.1987 272.475 88.0901 274.094 87.9816 275.718C88.119 275.749 88.2573 275.78 88.3947 275.811C88.2035 279.473 88.0872 279.56 88.4655 283.04C88.4614 285.72 89.0357 287.903 89.2775 289.453C89.2005 290.009 89.1225 290.565 89.0456 291.128C89.1598 291.484 89.2736 291.844 89.3878 292.2C89.2289 292.906 89.0699 293.621 88.9118 294.327C89.2726 294.721 89.3852 294.925 89.5118 292.17C89.9606 293.113 89.7626 297.963 89.6119 299.938C89.4976 301.436 89.1233 299.774 89.0778 299.961C88.9231 300.586 89.0566 303.055 89.0309 303.574C88.9241 305.767 88.9428 307.303 88.86 309.284C88.8434 309.669 88.6062 310.747 88.5988 310.839C88.5582 311.551 88.4429 313.309 88.4396 313.509C88.2626 323.823 89.2917 312.802 89.1832 322.392C89.319 322.105 89.4538 321.841 89.5895 321.56C89.5977 322.284 89.6056 323.017 89.6139 323.741C89.5005 324.659 89.2942 323.548 89.4606 325.372C89.2933 325.254 89.126 325.134 88.9596 325.01C89.0499 325.803 89.1394 326.568 89.2296 327.38C88.6493 328.655 88.5175 333.308 87.8361 332.977C87.6043 332.865 87.3664 329.566 87.1189 331.309C87.0702 332.726 87.347 331.767 87.3616 332.345C87.4626 336.518 87.0745 336.276 87.178 337.982C87.3443 338.25 87.5139 338.533 87.6819 338.807C87.633 339.451 87.5842 340.096 87.5354 340.745C87.6471 340.895 87.759 341.051 87.8708 341.201C87.8783 340.595 87.8858 339.913 87.8933 339.357C88.3262 340.132 88.5206 347.253 88.1516 344.538C88.0017 343.432 88.0654 341.406 87.5539 342.686C87.6276 344.592 87.7029 346.754 87.7766 348.76C87.6665 348.822 87.5561 348.88 87.446 348.943C87.5173 351.646 87.9576 349.187 88.1935 349.192C88.2002 349.811 88.206 350.435 88.2126 351.054C88.1059 351.316 87.9942 351.565 87.8908 351.839C88.0213 351.859 88.2847 352.068 88.333 353C88.3474 353.291 88.3316 353.651 88.2524 354.084C87.9801 355.264 87.9063 353.372 87.5078 355.562C87.7612 355.47 88.4747 354.742 87.621 357.255C87.2626 357.384 86.8791 357.584 86.5339 357.609C85.1462 360.334 83.7405 361.176 80.4636 362.534C79.7402 362.789 78.8894 363.032 78 363.123C76.2538 363.307 74.5028 363.377 73.4999 362.665C71.7952 362.637 72.3362 362.903 71.8317 362.963C69.4512 363.246 67.6805 362.739 67.2369 362.709C64.4077 362.518 63.1392 362.694 60.8341 362.454C60.9591 362.652 61.0271 362.84 61.1271 363.032C63.239 362.736 64.3085 362.75 67.2702 362.814C66.277 362.853 65.2834 362.894 64.2902 362.934C64.4526 363.094 64.6135 363.255 64.7697 363.415C73.9295 362.782 71.7928 363.782 64.1137 364C63.4516 363.703 62.7653 363.407 62.1093 363.109C57.6733 363.559 55.5858 363.168 50.569 363.074C49.9725 363.064 47.8002 363.235 46.8665 363.243C46.882 363.244 46.8975 363.246 46.9131 363.247C46.3322 363.527 47.1189 363.657 47.2127 363.907C46.7068 363.939 46.2004 363.97 45.6944 364.002C44.5644 363.81 44.9617 363.653 42.7378 363.699C43.0376 363.889 43.3335 364.08 43.6334 364.27C41.1966 364.277 39.6019 364.07 37.3338 364.159C37.715 364.087 38.0914 364.015 38.4725 363.943C33.5365 363.759 37.4647 362.64 33.7345 363.197C33.4972 363.099 33.266 363.001 33.0287 362.903C34.5654 362.879 36.103 362.856 37.6335 362.832C37.6647 362.694 37.6984 362.556 37.7234 362.418C36.0801 362.459 34.4289 362.502 32.7856 362.543C33.9853 362.45 35.1919 362.358 36.3916 362.265C34.4861 362.199 32.5801 362.132 30.6746 362.066C32.6982 362.574 30.0748 362.637 30.5681 363.14C27.1941 362.721 24.5438 362.169 19.3141 362.522C18.2773 362.593 18.8405 362.944 15.8979 362.516C16.6101 363.076 12.9238 363.339 13.3974 363.871C14.4217 363.845 15.4841 363.829 16.4773 363.798C15.3464 363.613 15.1589 363.105 16.8768 362.954C19.0698 362.762 22.2684 363.114 22.1376 362.551C23.012 362.577 23.8253 362.593 24.6747 362.615C24.325 362.755 23.9827 362.896 23.6392 363.035C26.0562 362.816 27.5749 362.887 28.7368 363.24C25.8569 363.321 22.9831 363.401 20.1032 363.482C20.5274 363.506 20.9575 363.53 21.3817 363.553C19.2011 363.913 21.4505 364.254 17.3829 364.331C17.4079 364.166 17.4278 364.002 17.4528 363.836C16.2549 364.192 13.3729 364.259 13 364.54C12.9405 364.578 12.9355 364.621 13 364.669C13.0392 364.704 13.1082 364.741 13.2109 364.781C13.1372 364.771 13.067 364.762 13 364.753C11.7733 364.593 11.511 364.457 10.7071 364.577C6.97939 363.361 5.78595 361.108 7.06202 361.474C5.99234 360.838 5.02439 359.998 4.23036 359.005C4.51609 359.703 4.88488 360.384 5.33161 361.03C3.65935 359.427 2.50391 357.272 2.1053 354.999C2.31605 354.852 2.53856 355.922 2.91228 356.793C3.27397 357.672 3.70264 358.347 3.58617 357.683C3.53344 357.428 2.92384 356.399 2.89417 356.075C2.72741 354.427 2.90313 354.89 3.08401 355.594C3.27819 356.307 3.68904 357.232 3.69214 356.728C3.15052 355.182 3.26147 354.545 3.29857 354.184C3.35982 353.814 3.4251 353.679 3.42163 353C3.42532 352.401 3.36775 351.395 3.20292 349.498C3.33867 349.329 3.47715 349.148 3.61208 348.992C3.62023 346.775 3.31359 346.955 3.25565 345.05C3.2196 343.856 3.75804 342.359 3.39138 341.041C3.32378 340.806 2.66568 343.023 2.69464 338.364C2.71709 334.748 3.18216 336.253 3.34695 334.298C3.51171 332.343 2.86684 327.869 3.59792 326.55C3.50109 327.575 3.44885 328.88 3.36941 330.017C3.51179 330.479 3.65264 330.929 3.7942 331.385C3.6104 328.786 3.82702 326.099 3.48757 324.35C4.00669 320.882 3.52495 317.004 2.93877 318.053C3.02328 319.195 3.27889 317.953 3.11601 319.538C2.9794 319.701 2.84346 319.872 2.70685 320.034C2.72341 317.335 2.71957 315.461 3.13603 316.691C3.14596 316.273 3.15587 315.858 3.16581 315.44C2.86444 315.365 2.56195 315.298 2.26058 315.223C2.22664 314.723 2.19297 314.221 2.15902 313.721C2.22522 313.166 2.29219 312.609 2.35921 312.047C2.8361 312.803 2.85185 314.09 3.11845 309.829C2.95369 309.817 2.78958 309.798 2.62482 309.786C2.83428 306.218 3.23339 306.124 3.21854 301.645C3.79057 305.081 2.77657 306.962 3.92407 306.949C3.84873 307.811 3.77238 308.681 3.69703 309.543C3.86345 309.674 4.0301 309.804 4.19652 309.929C4.10874 305.3 3.0143 297.609 3.74 294.51C3.65144 294.135 3.57446 293.759 3.47927 293.378C3.91725 290.341 2.93395 289.03 3.50026 285.949C3.5597 285.632 4.48352 286.297 4.45041 282.287C4.33035 282.387 4.12826 282.439 3.9768 282.52C4.05046 281.652 4.12755 280.788 4.20287 279.926C4.09197 279.77 3.98111 279.606 3.86939 279.45C3.82633 280.931 3.78256 282.407 3.73951 283.888C3.70144 282.658 3.66333 281.42 3.62526 280.189C3.44401 281.794 3.44208 282.519 3.15165 281.551C3.13426 280.158 3.11582 278.762 3.09843 277.369C3.02402 277.225 2.94873 277.083 2.87432 276.939C2.65245 277.614 2.43547 278.296 2.21029 278.971C2.3916 275.341 2.40145 272.185 2.8377 269.398C2.91138 268.923 3.20044 270.602 2.93975 267.367C3.09283 267.317 3.21715 267.23 3.35867 267.174C2.9298 263.212 3.05781 261.911 3.36746 257.781C3.07851 260.455 3.26644 258.069 3.11161 257.388C3.00495 256.921 3.0207 258.743 2.90899 258.537C2.79805 258.331 2.3501 255.964 2.29622 257.987C3.21441 262.949 2.11664 264.3 2.55793 270.673C2.43953 269.692 2.32087 268.704 2.20248 267.723C2.12223 268.185 2.04943 268.599 1.96421 269.098C2.14384 265.544 2.02714 267.273 1.8856 265.812C1.74402 264.35 1.62375 261.693 1.58483 259.912C1.57261 259.351 1.77854 259.943 1.79771 258.677C1.81096 257.814 1.50567 255.458 1.86558 254.914C2.09987 254.558 2.74501 258.343 2.74347 253.11C2.97315 252.124 2.90182 254.634 2.92949 254.688C3.20271 255.144 3.40814 251.926 3.1995 250.439C3.1815 250.319 2.9686 251.493 2.88506 250.216C2.68553 247.186 2.92969 245.436 3.26004 243.474C2.87257 243.261 2.40981 240.711 2.55305 237.537C2.44216 237.375 2.3303 237.22 2.21859 237.058C2.27728 237.551 2.33518 238.043 2.39387 238.536C2.32433 239.073 2.2737 239.643 2.19174 240.167C2.09645 236.975 1.56245 236.524 1.36707 234.993C0.699649 229.755 2.11146 232.93 2.35481 233.875C2.25629 234.556 2.14631 235.214 2.04282 235.889C2.17777 235.814 2.31375 235.738 2.44954 235.669C2.44541 227.828 3.32557 234.475 3.57643 230.495C2.91247 229.47 2.84847 226.547 3.26981 222.824C3.2665 222.411 3.26565 221.997 3.26151 221.585C3.1647 221.516 3.01672 221.517 2.95293 221.405C2.84033 216.919 3.86285 216.12 3.95971 215.695C4.38934 213.808 3.7949 212.339 3.7898 211.783C3.7691 209.44 4.03305 208.759 3.91968 206.529C3.79717 204.13 3.59464 205.77 3.41336 205.04C3.26939 204.455 3.24375 202.562 3.09452 201.781C3.21657 202.091 3.33626 202.436 3.45876 202.746C3.62515 200.26 3.78732 198.228 3.82789 195.404C2.93486 192.218 4.44128 189.507 3.21952 190.606C3.1359 193.281 2.99667 194.776 2.68536 196.207C2.64563 194.451 2.60694 192.695 2.56721 190.939C2.7013 190.427 2.83198 190.064 2.96855 189.458C2.6838 188.146 2.80599 185.105 2.72247 183.911C2.33086 178.319 1.84515 180.048 2.66144 174.944C2.74098 178.623 3.13744 178.617 3.08281 182.266C3.36595 181.479 3.30729 179.624 3.64674 180.824C3.56313 177.294 3.26007 178.435 2.99101 177.062C2.75907 175.877 2.74608 173.491 2.44465 173.626C2.61038 173.382 2.77082 173.193 2.93633 172.95C2.93467 170.663 2.93457 168.377 2.93291 166.091C3.10592 167.065 3.27925 168.039 3.45144 169.014C3.51679 168.277 3.58188 167.54 3.64723 166.803C3.10908 161.18 4.09537 151.483 2.74347 153.032C2.70042 150.32 2.86998 149.981 3.12577 148.507C3.02314 148.345 2.93777 148.187 2.82354 148.024C2.93098 146.275 2.54565 144.933 2.64582 143.389C2.74521 141.847 3.10918 141.463 2.49739 141.239C2.67288 140.239 2.81866 139.245 2.98174 138.252C2.84275 137.653 2.70537 137.054 2.56721 136.461C2.64006 135.523 2.71261 134.584 2.78546 133.647C2.49342 133.146 2.6193 129.461 2.42317 127.837C2.73797 126.295 3.72915 126.337 3.55153 122.709C3.3057 122.803 3.06058 122.895 2.81475 122.989C2.86607 122.158 2.91723 121.326 2.96855 120.489C3.04879 120.439 3.12903 120.395 3.20926 120.345C3.18443 120.77 3.15973 121.189 3.13407 121.614C3.26985 121.245 3.40501 120.884 3.54079 120.522C3.33964 119.254 3.13846 117.984 2.9373 116.709C2.785 118.427 2.6326 120.146 2.4803 121.864C2.29981 119.708 2.47984 118.208 2.27865 116.333C2.61804 114.703 2.81361 115.305 3.18192 115.967C3.15047 115.361 3.12011 114.748 3.08866 114.142C3.45703 114.542 3.67652 113.517 3.64674 117.059C3.75181 116.816 3.85198 116.567 3.96118 116.33C3.94462 115.749 4.03343 115.372 3.99292 114.735C3.88197 112.998 3.23496 111.666 3.0081 111.785C2.88927 111.849 3.11653 113.562 2.94853 113.493C2.53887 113.324 2.7228 109.395 2.31136 115.061C2.05056 113.181 2.24724 112.761 2.32259 110.686C2.18608 110.849 2.05043 111.006 1.91392 111.162C1.97682 110.201 2.03949 109.237 2.10239 108.276C2.80362 109.613 3.06699 102.521 3.68043 108.905C3.71189 107.018 3.74351 105.138 3.77662 103.258C3.84863 103.645 3.91992 104.033 3.99194 104.42C3.95386 105.27 3.9164 106.114 3.87915 106.964C4.01075 105.964 4.14158 104.963 4.27318 103.964C4.11007 101.602 3.85922 100.676 3.54958 99.5954C3.32362 102.344 3.63227 101.446 3.69361 103.588C3.49752 103.513 3.31715 103.612 3.11112 103.424C3.5173 102.318 3.22181 98.7077 3.20194 97.8706C3.14161 95.3229 3.5407 97.3207 3.54909 95.6165C3.55737 93.9107 3.31983 91.8989 3.71559 90.5056C3.49377 90.5305 3.26427 90.642 3.0623 90.742C2.98944 88.0865 3.25149 88.6162 3.28543 88.3413C3.84344 83.9552 3.37234 81.5752 3.31522 76.5579C3.24651 77.1951 3.18448 77.8389 3.11991 78.4824C2.64895 74.6973 2.79316 77.2471 2.63751 80.5334C2.68471 77.4531 2.28362 75.689 2.16439 73.5146C2.04537 71.3406 2.25137 67.6121 2.41194 66.2495C2.67026 69.3673 2.49991 72.7301 2.57111 76.1916C2.79708 75.7981 2.98832 75.4156 3.23661 75.0096C2.76234 72.9043 3.07945 71.6843 3.14237 70.9908C3.32691 68.9544 2.91985 69.0184 3.35769 67.7877C3.20707 67.8377 3.08043 67.8743 2.93975 67.9243C3.00267 63.7195 3.26895 59.1839 2.71271 56.4472C3.07448 56.1973 3.42302 56.0087 3.79224 55.7213C3.51992 53.9408 3.79879 52.4161 3.73512 50.9167C3.67137 49.4234 3.379 49.9919 3.26639 48.2364C3.24569 47.9115 3.42869 47.2348 3.29373 46.4351C3.15806 45.6275 2.14933 42.6492 3.03056 42.2931C3.03471 40.7874 3.06693 39.3624 3.08183 37.888C3.1315 39.325 3.17961 40.7625 3.22928 42.1932C3.44286 40.9687 3.65581 39.7518 3.86939 38.5273C3.67896 38.3711 3.48509 38.2144 3.29715 38.0645C3.06533 34.7655 3.37668 32.3714 3.30301 29.0413C3.29059 28.4852 2.9141 29.7971 3.01005 27.3299C3.10609 24.862 3.80879 23.0305 3.53737 18.8261C3.5233 18.6136 2.98512 17.3686 3.35769 15.8627C3.44213 15.5201 3.56708 16.9623 3.67799 16.1757C3.74657 15.6891 3.80762 14.161 3.90663 13C3.9668 12.3454 4.11801 11.8395 4.22985 11.763C4.13226 11.7822 4.01112 11.9651 3.90701 12.0532C3.91853 11.503 3.98095 10.9447 4.09649 10.3933C4.26922 10.3895 4.44296 10.3849 4.61409 10.3866C5.2849 7.59613 5.9615 4.97993 10.771 3.67776C9.37685 3.76239 7.94876 4.17061 6.64213 4.89406C6.42706 5.27662 6.24274 5.66722 6.09223 6.05404C4.40309 7.62902 3.28206 9.8459 3.03551 12.1906C3.14752 12.473 3.2713 12.7393 3.40523 13C3.46227 13.1148 3.51932 13.2299 3.57643 13.3456C3.5516 13.9702 3.52754 14.5888 3.50271 15.2135C3.36445 15.0573 3.22692 14.8998 3.08866 14.7373C3.1226 15.9742 3.15726 17.2126 3.1912 18.4432C2.67182 16.8487 2.84164 14.45 2.85782 13C2.86917 12.1606 2.92165 11.6339 2.6556 11.7218C2.83101 11.1598 3.05323 10.6207 3.31592 10.1127C3.08434 9.7996 3.43365 8.61447 4.66576 6.96978C4.2574 7.25319 3.8405 7.61988 3.48376 7.94176C4.55148 6.12522 7.3654 3.64532 9.46017 3.13442C10.3454 2.8777 9.54954 3.39555 9.81681 3.33649C10.6555 3.14185 11.955 2.77396 13 2.68751C13.5903 2.62756 14.0675 2.57789 14.2664 2.59015C17.4778 2.78724 19.5647 3.58115 23.0698 3.0579C19.4521 2.92875 21.4203 2.9833 20.1331 2.69269C19.7302 2.60157 15.0565 2.4115 20.9089 2.49592C21.595 2.50648 32.2142 3.05502 28.7235 3.47536C30.4417 3.34124 31.7871 3.18615 33.3616 3.04374C37.2105 4.15153 35.8785 3.11085 34.76 2.53791C35.3911 2.53543 35.9914 2.52961 36.6413 2.52961C35.2604 3.13152 42.2954 3.1689 44.6822 2.86504C45.4819 2.76403 43.2458 2.57137 45.0951 2.4803C45.9757 2.52251 46.9747 2.57716 47.9053 2.62433C46.5558 2.24351 49.2043 2.09675 49.1672 1.70934C50.8603 2.05456 52.1554 2.78629 51.2249 3.1829C52.6242 3.02231 54.0308 2.86192 55.4302 2.7005C54.7804 2.6086 54.1221 2.51751 53.4723 2.42561C58.046 2.66903 63.9269 2.11514 64.8829 2.929C65.4889 2.92321 66.1014 2.9182 66.7075 2.9124C66.8949 2.77497 67.0761 2.63726 67.2635 2.49983C70.0058 2.61902 72.742 2.73901 75.4843 2.85821C73.0425 2.9435 72.4613 3.13912 69.9006 2.98027C70.8874 3.13834 71.8925 3.29728 72.8606 3.45535C75.1459 3.20307 76.2613 3.00205 78 2.90657C79.1884 2.8608 80.7986 2.95264 82.8947 4.13664C83.0102 4.19886 83.9994 4.86379 84.7626 5.72129C85.5459 6.5632 86.0786 7.54836 86.1018 7.6173C86.3282 8.25708 85.5914 7.5508 85.6847 7.83948C85.8227 8.22231 86.3571 9.51829 86.4723 10.7434C86.6192 11.9674 86.4181 13.0425 86.3797 12.9988C86.0211 12.6493 85.8213 10.7546 84.4401 8.90193C83.1232 7.0208 80.4871 5.54582 78 5.65765C74.7766 5.70372 71.9032 5.71701 70.3734 5.73453C51.1192 5.95498 32.0326 5.97182 13 5.91938C9.23105 5.80897 5.79142 9.20241 5.86312 13C5.76214 36.8761 5.61023 60.7163 5.6735 84.7454C5.67547 85.2432 5.82996 85.0259 5.83657 85.2381C5.87538 86.5563 5.6346 87.8507 5.62467 88.338C5.6042 89.3792 5.82665 88.8059 5.82681 89.5666C5.82433 97.4268 5.69352 104.844 5.7316 112.711C5.73408 113.223 5.5561 112.7 5.58756 113.6C5.60479 114.064 5.87785 115.518 5.88198 116.566C5.89605 120.228 5.80851 123.303 5.81265 127.164C5.81512 129.276 5.79191 132.445 5.79605 134.806C5.79781 135.849 5.92273 136.935 5.9269 137.966C5.9327 139.428 5.67946 139.129 5.66373 139.354C5.59503 140.341 5.87297 140.478 5.86636 141.415C5.85311 143.158 5.66754 143.252 5.68326 145.464C5.69485 147.045 5.84137 150.663 5.88442 152.656C5.66918 157.317 5.75463 163.19 5.82583 167.539C5.86804 170.113 5.60822 170.352 5.60905 171.401C5.61408 175.1 5.94592 177.907 5.95669 181.38C5.97071 185.99 5.75128 190.076 5.73551 194.542C5.73302 195.266 5.97109 195.1 5.97719 195.811C5.99955 198.441 6.04288 201.805 6.00893 204.148C5.97163 206.759 5.62608 207.722 5.69645 210.278C5.71734 211.027 6.02032 211.246 6.05922 212.502C6.12039 214.507 5.85321 216.706 5.82339 218.106C5.78365 220.024 6.09232 218.356 6.05092 220.942C6.04913 221.049 5.82849 221.436 5.83902 221.991C5.86882 223.609 6.04258 223.449 6.02602 225.817C6.02373 226.044 5.81349 229.184 5.81265 229.496C5.80934 231.333 5.73573 235.031 5.78043 236.119C5.93939 240.005 6.27125 236.945 5.55094 240.251C5.72725 241.706 5.90595 243.15 6.07729 244.692C5.91749 243.663 5.68691 247.842 5.70182 248.135C5.8219 250.564 6.10216 249.117 6.0558 252.197C5.40835 248.13 5.97235 256.171 5.98891 257.964C6.0692 266.599 5.90763 274.447 5.91177 283.126C5.91346 286.031 6.05032 289.924 6.04701 292.998C6.04682 293.715 5.89359 293.173 5.89028 293.804C5.88801 294.433 6.06002 293.735 6.05092 294.453C5.99129 298.92 5.66673 302.421 6.0724 306.513C6.01375 306.712 5.9674 306.706 5.90298 307.036C6.26641 310.385 5.77767 316.834 5.7106 319.259C5.60635 323.05 5.852 324.019 5.8024 326.774C5.73616 330.416 5.25625 335.885 6.04848 333.443C6.07331 335.941 6.08016 338.347 6.00649 340.871C5.99814 341.152 5.79677 340.958 5.79263 341.071C5.76372 341.783 5.94401 342.015 5.95229 342.496C5.97456 343.8 5.75869 341.672 5.819 343.531C5.85129 344.512 6.00853 345.069 6.01186 347.793C6.01368 349.514 6.01469 351.251 6.01502 353C5.91213 356.648 9.2204 360.081 13 359.997C23.0737 360.012 33.2898 360.038 43.1639 360.054C44.3199 360.055 43.559 359.86 45.0085 359.873C50.0445 359.916 59.0587 360.244 63.4012 360.199C67.7434 360.154 66.7638 359.87 69.4811 359.75C70.0059 359.727 69.5755 359.889 70.0504 359.892C72.6215 359.904 75.5905 360.07 78 360.155C78.421 360.175 78.8182 360.154 79.1765 360.103C80.3904 359.881 80.2115 359.624 80.9572 359.292C82.0542 358.768 83.1711 358.049 83.6009 357.509C84.7734 356.065 85.1429 354.505 85.1159 353C85.0908 351.455 85.0796 349.902 85.1244 348.154C85.0682 348.316 85.0162 348.423 84.9608 348.56C84.9699 343.655 84.979 338.757 84.9881 333.853C84.9368 334.084 84.885 334.308 84.8329 334.539C84.861 328.785 85.4174 329.441 84.2426 329.947C84.2012 329.529 84.1532 329.085 84.1151 328.685C84.7203 328.848 85.1632 325.367 85.3172 320.937C85.3288 320.613 84.7387 318.433 85.4359 318.67C85.2653 318.101 85.1478 317.763 84.9979 317.282C85.209 316.345 85.4175 315.395 85.6278 314.458C85.5963 313.952 85.566 313.439 85.5345 312.933C85.3979 312.858 85.256 312.916 85.1219 312.753C85.1012 310.404 85.2701 305.586 85.2528 303.73C85.2089 299.119 84.8395 294.424 85.2386 290.838C85.1979 289.091 84.9298 290.826 84.9637 288.228C85.0995 287.934 85.2296 287.658 85.3695 287.352C84.7629 285.228 85.1319 284.785 85.2586 281.875C85.3447 279.907 85.1965 278.618 85.2254 276.744C85.2329 276.269 85.4109 276.336 85.4051 276.011C85.3868 274.923 85.1417 271.818 85.1351 271.05C85.0705 264.09 85.098 258.111 85.1634 251.482C85.17 250.77 84.9944 251.693 85.0018 250.956C85.0135 249.77 85.2835 250.468 85.2967 249.781C85.3321 247.864 85.0475 247.849 85.0326 245.176C84.9838 236.372 85.1976 226.251 85.2166 217.054C85.2166 216.767 85.0499 216.784 85.0482 216.471C85.04 214.435 85.2655 212.374 85.263 210.525C85.2597 207.457 85.0254 205.151 85.0262 202.121C85.0271 196.198 85.147 190.906 85.1537 184.814C85.1595 179.828 85.1372 175.497 85.138 170.03C85.1413 146.15 84.6119 121.781 84.8934 97.7381C84.9009 97.1263 85.0482 97.3754 85.0418 97.1888C84.9781 95.4144 84.7793 95.256 85.1957 94.625C85.1136 92.3645 84.8008 91.6511 84.8231 88.9214C84.8348 87.4665 85.3197 88.5527 85.0697 86.0912C84.8437 83.8686 84.578 86.3214 84.8495 79.7117C84.8569 79.5367 85.1525 78.6755 85.0755 77.3011C84.9994 75.9202 84.7877 77.5186 84.724 74.1946C84.575 66.391 84.8304 56.5133 84.7518 47.4413C84.7469 46.8727 84.5889 41.397 84.516 40.316C84.3744 38.2242 84.1548 38.6612 84.101 35.9442C84.0596 33.8448 84.3084 32.1127 84.2587 29.6446C84.2526 29.3572 83.9967 28.8757 84.0307 27.0209ZM1.99887 315.446C1.7478 314.934 0.823634 314.009 1.10488 310.911C1.13137 310.618 1.76691 312.203 1.86802 310.492C1.93508 312.166 1.9568 313.797 1.99985 315.446C1.99953 315.446 1.9992 315.446 1.99887 315.446ZM89.9234 13.5927C89.8771 15.9107 89.8311 18.2367 89.7848 20.5548C89.673 18.9553 89.5615 17.3535 89.4489 15.7602C89.607 15.0356 89.7653 14.3173 89.9234 13.5927ZM89.4845 302.155C89.4845 302.153 89.4845 302.151 89.4845 302.149C89.6037 304.585 89.7232 307.024 89.8424 309.46C89.7546 309.204 89.6665 308.947 89.5787 308.691C89.4405 306.767 89.3024 304.842 89.1642 302.924C89.271 302.668 89.3777 302.411 89.4845 302.155ZM88.5553 282.903C88.6597 281.348 88.8356 281.728 89.007 280.872C89.0067 280.872 89.0063 280.872 89.006 280.872C89.0506 280.646 89.0897 279.594 89.0963 279.188C88.9862 279.338 88.8775 279.531 88.7682 279.694C88.5016 276.064 89.449 268.964 89.8307 278.155C89.6916 278.018 89.5533 277.887 89.4142 277.749C89.4531 282.317 89.1515 287.408 88.5553 282.903ZM1.5985 278.721C1.14314 274.822 1.04713 273.572 1.35926 268.842C1.48833 269.51 1.61738 270.178 1.74645 270.846C1.6148 271.627 1.48406 272.403 1.35242 273.184C1.35242 273.186 1.35242 273.188 1.35242 273.19C1.49068 273.347 1.62918 273.503 1.76744 273.653C1.71115 275.34 1.6548 277.034 1.5985 278.721ZM88.8844 133.658C89.7939 132.571 89.2653 132.885 89.4703 135.989C89.5415 137.063 89.7007 136.016 89.7272 136.684C89.8719 140.295 89.2625 140.583 88.9455 139.778C88.9239 137.734 88.9043 135.67 88.8844 133.664C88.8844 133.662 88.8844 133.66 88.8844 133.658ZM88.6955 39.9864C88.6955 39.9841 88.6955 39.9819 88.6955 39.9797C88.9173 39.886 88.977 41.3414 89.1872 39.7C89.1863 40.9487 89.1846 42.1975 89.1837 43.4525C89.1631 43.0844 89.1434 42.7084 89.1227 42.3404C89.0465 42.6653 88.9694 42.991 88.8932 43.3159C89.1482 43.7595 89 44.1717 88.9147 45.4835C89.1871 45.1211 89.4597 44.7604 89.732 44.3981C89.6509 45.9222 89.5695 47.4521 89.4884 48.9763C89.4198 48.9949 89.351 49.0141 89.2824 49.0329C89.3701 49.6075 89.4588 50.1763 89.5465 50.7509C89.4646 50.9071 89.3834 51.0576 89.3014 51.2137C89.3635 51.907 89.4255 52.6015 89.4884 53.2947C89.2899 53.5057 89.2041 51.9778 89.2545 54.6865C89.0509 53.8556 88.8479 53.0265 88.6442 52.1893C88.6608 48.1218 88.6781 44.0539 88.6955 39.9864ZM89.1642 161.896C89.1261 157.416 89.27 158.678 89.7203 159.715C89.5349 160.44 89.3496 161.172 89.1642 161.896ZM54.0118 363.763C52.7121 364.071 51.407 364.375 50.0762 364.671C47.4269 364.842 44.7767 364.283 46.7699 364.063C49.1692 363.8 51.675 364.095 54.0118 363.763ZM2.09994 349.381C1.95751 352.623 1.59252 349.573 1.37976 348.842C1.72171 347.945 1.69154 346.695 1.73131 344.687C1.75348 346.573 2.12413 348.845 2.10092 349.381C2.10059 349.381 2.10027 349.381 2.09994 349.381ZM89.1085 340.535C89.0994 339.237 89.0136 337.944 89.1178 336.783C89.4115 337.133 89.1443 339.457 89.5797 337.795C89.5872 338.626 89.5944 339.458 89.6027 340.282C89.4223 339.758 89.2874 340.463 89.1095 340.532C89.1092 340.533 89.1089 340.534 89.1085 340.535ZM89.5104 205.301C89.1626 207.85 89.3114 208.333 89.5524 210.901C89.2692 211.263 88.795 208.201 88.6906 206.283C88.9638 205.958 89.2372 205.632 89.5104 205.301ZM16.1543 1.63463C15.8427 1.81832 14.5198 1.9207 13 1.96289C11.3789 1.98157 9.59523 2.43304 8.46936 2.90334C8.71771 2.73306 8.97451 2.57133 9.23934 2.41953C10.4354 1.96811 11.7143 1.72485 13 1.70145C14.0521 1.67917 15.1042 1.6569 16.1543 1.63463ZM1.75572 343.731C1.74515 344.067 1.73727 344.386 1.73131 344.687C1.72738 344.352 1.73352 344.029 1.75572 343.731ZM3.32205 208.004C3.6623 209.072 3.77661 205.897 3.64332 209.752C3.64365 209.752 3.64398 209.752 3.6443 209.752C3.55654 212.301 3.53311 212.864 3.50661 215.225C3.06953 214.375 2.91329 209.584 2.82305 216.188C2.82265 216.275 3.08273 216.102 3.04716 217.157C3.0361 217.482 2.82265 218.525 2.76056 220.11C2.74069 220.622 2.67486 224.472 2.67072 219.224C2.36603 219.38 2.05764 219.099 1.76207 219.111C1.67617 217.063 2.27278 215.488 2.25814 213.321C2.23496 210.103 1.63166 208.466 2.42317 207.847C2.61764 210.553 2.62231 215.199 2.14633 215.805C2.14053 218.422 2.53051 219.174 2.72345 217.063C2.47838 208.022 3.30231 214.581 2.99101 206.665C2.88093 206.571 2.76247 206.246 2.659 206.295C3.04638 203.879 3.20036 207.622 3.32205 208.004ZM2.4803 226.909C2.24764 225.347 2.01313 223.79 1.77965 222.234C2.15883 222.234 2.4991 223.092 2.71271 225.554C2.63494 226.003 2.55723 226.46 2.4803 226.909ZM2.38069 95.5099C2.17454 95.285 1.98563 94.6854 1.78941 94.248C1.96327 93.7732 2.13007 82.5262 2.30062 88.2481C2.32546 89.0791 1.96093 94.1478 2.38069 95.5099ZM89.1998 187.601C89.0616 188.925 88.9231 190.244 88.7848 191.563C88.6971 189.533 88.6071 187.502 88.5178 185.473C88.7451 186.184 88.9725 186.889 89.1998 187.601ZM32.4493 363.402C33.0088 363.409 31.1505 363.693 33.355 363.648C31.7117 363.829 30.1728 363.983 28.567 364.153C28.0859 364.019 27.5997 363.886 27.1186 363.752C26.7437 363.838 26.3615 363.923 25.9866 364.009C26.2115 363.814 26.4117 363.623 26.6492 363.424C29.3546 363.843 29.975 363.368 32.4493 363.402ZM87.6374 333.813C88.0621 333.326 88.3146 337.244 88.3825 333.39C88.6615 334.121 88.8078 335.297 88.8327 337.552C88.726 337.914 88.6201 338.276 88.5134 338.638C88.7989 338.688 88.905 339.268 89.1085 340.535C89.1082 340.537 89.1079 340.538 89.1076 340.539C89.1282 343.968 89.033 343.763 88.5636 344.588C88.8286 340.957 88.3997 340.849 88.1447 338.375C87.9694 336.675 88.0488 334.456 87.6374 333.813ZM2.38557 107.493C2.02711 104.926 1.69276 107.23 2.07358 102.675C2.16465 102.969 2.25495 103.264 2.34603 103.558C2.3601 104.869 2.37316 106.181 2.38557 107.493ZM89.0929 321.144C88.4356 321.438 87.9239 323.854 88.9933 324.267C89.2111 321.911 88.6053 323.062 89.0929 321.144ZM3.12919 350.487C3.12124 351.661 3.06549 352.473 2.98079 353C2.82507 354.227 2.45467 353.985 2.15759 353C2.09512 352.793 2.03687 352.555 1.98569 352.298C2.12065 352.011 2.25584 351.724 2.38997 351.442C2.3287 350.649 2.26731 349.855 2.20687 349.062C2.51403 349.537 2.82203 350.012 3.12919 350.487ZM88.3708 241.29C88.8402 244.752 88.6319 237.554 88.925 239.972C89.1592 241.902 88.6862 244.447 88.3898 243.484C88.3815 242.816 88.3758 242.072 88.3708 241.297C88.3708 241.295 88.3708 241.292 88.3708 241.29ZM88.5051 261.321C89.0066 260.753 88.8604 261.572 88.7702 258.837C88.7445 258.056 88.9329 251.85 88.5173 254.455C88.5173 256.673 88.51 259.016 88.5051 261.321ZM2.39534 298.129C2.61376 298.087 3.09338 302.866 2.97344 303.48C2.97376 303.48 2.97409 303.48 2.97441 303.48C2.64738 305.135 2.60091 300.094 2.15219 302.281C2.54704 297.439 1.59195 295.99 2.85039 296.328C2.9056 299.18 2.64619 297.83 2.39534 298.129ZM75.4477 2.6629C75.4499 2.6629 75.4521 2.6629 75.4543 2.6629C75.1334 2.65263 72.4891 2.33207 72.8106 2.22103C75.8453 2.31188 75.4679 2.5082 78 2.2246C78.1312 2.21103 78.2696 2.19868 78.4158 2.18836C78.5853 2.3067 78.7289 2.4238 78.9015 2.55124C78.5701 2.54106 78.2807 2.55363 78 2.5761C77.2691 2.63794 76.609 2.69986 75.4477 2.6629ZM2.8211 83.3503C2.87823 84.5187 2.64151 86.6509 2.65558 87.9817C1.74652 83.7455 2.59423 78.6833 2.8211 83.3503ZM88.7267 83.7972C88.7271 83.8005 88.7274 83.8038 88.7277 83.8071C88.7272 83.8062 88.7267 83.8048 88.7262 83.8038C88.7264 83.8015 88.7266 83.7993 88.7267 83.7972ZM2.27572 173.892C2.33473 173.741 2.38599 173.656 2.43098 173.626C2.43521 173.626 2.43945 173.626 2.44368 173.626C2.38842 173.707 2.33254 173.794 2.27572 173.892ZM2.32942 288.197C2.63404 286.206 3.11833 292.838 3.00273 294.983C2.86369 294.833 2.73765 294.809 2.57795 294.46C2.93799 292.729 2.27809 288.528 2.32942 288.197ZM83.6854 361.899C82.5062 362.631 81.8968 362.718 81.7791 362.672C81.6526 362.612 81.971 362.371 82.4212 362.05C83.353 361.44 84.6343 360.285 85.0606 360.509C85.0957 360.551 83.836 361.847 83.6854 361.899ZM2.4554 329.537C2.81954 330.873 2.91624 328.189 2.85332 332.48C2.759 332.73 2.66446 332.98 2.57014 333.23C2.53206 331.999 2.49347 330.768 2.4554 329.537ZM49.3437 361.98C42.7459 362.183 36.4357 362.54 40.7333 363.545C41.2327 363.512 41.739 363.481 42.2383 363.449C42.3133 362.959 44.1559 363.226 46.8531 363.242C47.2376 363.048 48.7334 363.003 49.014 362.838C49.5568 362.518 47.8381 362.293 49.3437 361.98ZM87.7771 118.814C87.8607 118.921 87.9447 119.025 88.0275 119.131C88.1219 120.174 88.2159 121.221 88.3102 122.264C88.1498 122.095 87.9893 121.926 87.8288 121.758C87.8114 120.777 87.794 119.802 87.7766 118.821C87.7767 118.819 87.7769 118.817 87.7771 118.814ZM3.51394 233.338C2.59352 232.739 2.76304 234.834 3.22831 239.082C3.32352 237.17 3.41873 235.25 3.51394 233.338ZM87.3528 291.344C87.6143 291.207 87.8749 291.071 88.1364 290.928C87.864 288.672 87.5646 289.091 87.2185 290.172C87.2632 290.565 87.3081 290.951 87.3528 291.344ZM87.2414 258.854C87.1869 259.789 87.398 259.312 87.3938 259.41C87.2828 261.778 87.186 262.111 87.345 265.017C87.4004 265.373 87.4587 265.723 87.5158 266.079C88.0638 264.736 87.7651 263.761 88.0871 260.918C87.8992 261.431 87.711 261.941 87.5222 262.453C87.5619 260.873 87.6011 259.299 87.6408 257.718C87.5829 257.531 87.5255 257.343 87.4675 257.156C87.393 257.718 87.3093 258.298 87.2414 258.854ZM88.0148 106.748C88.0364 105.211 88.0587 103.667 88.0803 102.13C87.9453 102.074 87.8095 102.02 87.6745 101.963C87.7879 103.556 87.9014 105.155 88.0148 106.748ZM3.09452 201.781C3.04665 201.659 2.99849 201.54 2.94951 201.434C3.00921 201.445 3.05581 201.578 3.09452 201.781ZM79.438 3.51006C81.0842 3.79915 83.343 4.79617 84.6232 6.12731C84.6928 5.96291 83.8609 5.03619 82.6177 4.33153C81.3895 3.59819 79.7918 3.21238 78.9522 3.04994C78.6728 3.09116 78.7467 3.37512 79.438 3.51006ZM3.7861 356.63C4.10186 356.971 4.43565 357.28 4.77976 357.552C5.24506 358.429 5.85242 359.236 6.57668 359.932C6.69235 359.851 6.80763 359.767 6.92158 359.684C5.32097 358.278 5.08175 357.39 4.93836 356.877C4.83013 356.334 4.87774 356.006 4.81961 355.013C4.43151 355.498 4.08175 356.035 3.7861 356.63ZM87.1379 57.843C87.2315 61.2232 87.4062 62.4221 87.821 60.5166C87.7258 59.3236 87.6306 58.1237 87.5354 56.9307C87.4029 57.2367 87.2704 57.5432 87.1379 57.843ZM3.40701 140.22C3.25202 137.391 3.80868 137.344 3.49782 134.579C3.39518 136.06 3.2914 137.54 3.18876 139.014C3.26133 139.413 3.33443 139.821 3.40701 140.22ZM4.93574 278.951C5.12939 277.757 4.20887 275.526 4.88838 272.172C4.68558 271.372 4.49186 270.871 4.29319 270.184C4.50929 269.784 4.72814 269.33 4.94258 268.948C4.94258 268.946 4.94258 268.944 4.94258 268.942C4.86972 265.899 4.5987 267.872 4.36936 267.803C4.27429 267.771 4.43322 265.512 4.2263 266.218C3.87112 267.437 4.07536 271.989 3.64235 272.002C3.78387 270.402 3.66561 267.279 3.37674 268.203C3.05966 269.215 3.59104 272.158 3.32791 274.033C4.01998 271.347 3.80621 276.894 3.27469 277.525C3.68286 280.781 3.84936 277.789 3.83033 274.452C4.23766 276.489 4.01759 273.491 4.35618 272.997C4.56057 275.098 4.39019 282.305 4.93574 278.951ZM76.8228 361.815C74.5729 361.841 71.058 361.608 69.5177 361.952C68.6205 362.152 72.1437 362.307 69.7141 362.622C71.9062 362.591 72.4063 362.468 72.0315 362.193C72.5311 362.16 73.0369 362.127 73.5365 362.095C73.7675 362.149 74.0047 362.202 74.2357 362.256C74.4981 362.142 74.762 362.03 75.0182 361.916C75.5489 361.939 76.0857 361.961 76.6164 361.984C76.6787 361.927 76.7851 361.877 76.8228 361.815ZM3.38992 59.0009C3.39323 59.6256 3.39652 60.2442 3.40066 60.8689C3.4678 60.8 3.53771 60.7181 3.6067 60.6391C3.66123 60.5825 3.71575 60.5259 3.77027 60.4693C3.57548 60.8313 3.25171 63.8072 3.45974 65.0608C3.5641 65.6911 3.93459 64.2568 3.99926 66.9287C3.98021 64.9923 3.92965 63.1986 3.89819 61.3183C4.00831 61.487 4.1196 61.6491 4.22972 61.8178C4.22988 61.8167 4.23005 61.8156 4.23021 61.8145C4.25504 61.1898 4.28106 60.5579 4.30589 59.9332C4.00038 59.6208 3.69543 59.3134 3.38992 59.0009ZM86.8357 293.175C87.0518 295.306 87.164 296.019 87.5134 295.013C87.5136 295.011 87.5137 295.009 87.5139 295.007C87.3591 294.213 87.2044 293.419 87.0496 292.626C86.9784 292.807 86.9069 292.988 86.8357 293.175ZM4.24779 183.428C2.92064 178.898 3.7342 189.099 4.18627 187.157C4.20696 187.07 4.10124 183.853 4.24779 183.428ZM3.53737 349.654C3.54701 350.767 3.5558 351.882 3.56526 353C3.56637 353.125 3.5699 353.249 3.57582 353.372C3.64492 353.247 3.71631 353.122 3.79009 353C3.87914 352.841 3.96817 352.682 4.05737 352.525C3.88433 351.569 3.71041 350.61 3.53737 349.654ZM86.5354 72.5597C86.1711 73.8685 86.0391 77.2277 86.4353 78.8694C86.4817 78.0071 86.5281 77.1445 86.5745 76.2822C86.62 77.9123 86.6701 79.5242 86.7132 81.1667C87.2207 81.2542 86.9262 79.3612 87.0662 76.512C87.0887 76.0709 87.7187 73.2506 87.2439 72.2768C87.1463 72.0808 87.0799 75.081 86.7962 72.9959C86.7738 73.9077 86.7788 74.6946 86.7664 75.5564C86.6455 75.6189 86.5245 75.6808 86.4036 75.7495C86.4474 74.6838 86.4917 73.6255 86.5354 72.5597ZM63.7242 361.854C60.6338 361.826 60.2522 362.029 59.6088 362.387C61.0459 362.347 62.4835 362.307 63.9206 362.266C63.8521 362.129 63.7927 361.992 63.7242 361.854ZM86.4192 100.182C86.3606 101.874 86.6523 101.149 86.7078 101.83C86.9164 104.404 86.7079 106.16 86.8386 108.702C86.7823 108.534 86.7297 108.379 86.6751 108.216C86.6751 108.219 86.6751 108.221 86.6751 108.223C86.4292 120.263 87.0908 113.939 86.9832 106.735C87.0916 106.566 87.2002 106.404 87.3079 106.235C87.1183 103.011 86.9358 100.038 86.4192 100.182ZM4.29319 223.673C4.36108 223.535 4.79252 224.703 4.59054 222.511C3.96062 220.774 4.27328 223.622 4.031 224.335C3.97056 223.742 3.91176 223.135 3.85132 222.547C3.67331 226.096 3.82309 226.614 4.28343 225.321C4.31437 225.228 4.22552 223.81 4.29319 223.673ZM4.60373 200.349C3.6756 199.861 4.09296 204.34 4.38108 204.178C4.39257 203.56 4.23542 203.079 4.30491 202.423C4.37445 201.761 4.59124 201.592 4.60373 200.349ZM4.37669 328.668C4.38083 328.537 4.7709 327.219 4.46555 327.35C3.74276 328.98 4.208 332.266 4.45969 331.691C4.44724 330.605 4.33878 329.88 4.37766 328.668C4.37734 328.668 4.37701 328.668 4.37669 328.668ZM86.3167 52.176C86.2908 52.2384 86.134 55.5273 86.2796 55.9518C86.4435 56.3015 86.6191 56.4752 86.7888 56.7376C86.6315 54.9255 86.7514 51.2579 86.3167 52.1826C86.3167 52.1805 86.3167 52.1783 86.3167 52.176Z" fill="#000F55"/>
</svg>
