<svg width="92" height="143" viewBox="0 0 92 143" fill="none" xmlns="http://www.w3.org/2000/svg">
<path d="M91.2266 48.4435C91.5874 47.4792 91.3509 50.6985 91.8897 48.5608C91.9261 49.0065 91.9636 49.4551 92 49.9008C91.8005 50.0139 91.6014 50.1297 91.4019 50.2428C91.3431 49.6441 91.2844 49.0452 91.2256 48.4435C91.2259 48.4435 91.2263 48.4435 91.2266 48.4435ZM88.7277 47.6262C89.2968 48.1748 89.4486 49.9178 89.9737 48.0349C89.7784 47.8852 89.5831 47.7319 89.3878 47.5822C89.5393 46.9285 89.6908 46.2707 89.8414 45.6169C89.767 45.3818 89.6924 45.147 89.6188 44.9119C89.9582 44.6125 90.2985 44.3158 90.6387 44.0164C90.5891 44.2822 90.5385 44.5516 90.4888 44.8175C90.7645 45.8684 90.8398 46.8035 90.8912 48.2303C90.9715 48.105 91.0511 47.9794 91.1314 47.8541C90.9948 48.5782 90.8579 49.3019 90.7213 50.0229C90.5872 49.3967 90.438 48.6966 90.3131 48.1163C89.7809 49.0449 90.0771 50.683 90.1881 51.5356C90.3396 52.6966 90.0865 52.4342 90.1925 53.2957C90.209 53.4332 90.4074 53.4488 90.4107 53.7207C90.4265 55.0926 90.3213 57.7572 89.8585 56.1989C89.9181 53.9408 89.5465 52.0151 89.6822 49.7999C89.1471 50.3859 88.965 49.2188 88.7277 47.6262ZM90.4317 89.1072C90.1718 88.423 90.2767 87.0294 90.4571 86.0852C90.4571 86.0841 90.4571 86.0831 90.4571 86.082C90.4968 85.8742 90.8423 85.4037 90.8282 86.082C90.8041 87.1878 90.2603 87.7224 90.6295 88.3029C90.5607 88.5626 90.4996 88.8353 90.4317 89.1072ZM90.4639 91.5105C90.3307 92.1888 89.921 91.8812 90.0318 91.0318C90.0315 91.0318 90.0312 91.0318 90.0309 91.0318C90.0772 90.6774 90.4011 91.3732 90.0724 90.1021C90.3281 89.8425 90.5607 89.5869 90.8082 89.3303C90.8123 89.6416 90.819 89.9254 90.8223 90.2519C90.402 90.0322 90.5962 90.8324 90.4639 91.5105ZM90.0899 57.3451C90.4681 57.4518 90.4657 57.0051 90.7281 56.2445C90.7157 56.9624 90.7024 57.6805 90.69 58.3954C90.4897 58.0441 90.2902 57.6964 90.0899 57.3451ZM90.1485 40.4782C90.1485 40.4771 90.1485 40.476 90.1485 40.4749C90.0889 40.2397 90.0291 40.0038 89.9703 39.7715C90.1053 39.631 90.2396 39.492 90.3746 39.3515C90.2479 38.5204 90.1213 37.6848 89.9938 36.8537C90.406 36.9547 90.3389 38.4465 90.627 39.2684C90.5028 40.4905 90.2635 41.0794 89.9142 41.1588C89.992 40.9328 90.0707 40.7073 90.1485 40.4782ZM2.49494 116.066C2.38072 115.788 2.26641 115.513 2.15219 115.235C2.10006 115.605 2.06027 115.972 1.99985 116.344C2.49655 117.319 2.05719 117.41 2.08774 118.687C2.18212 122.601 2.95358 121.563 1.82359 125.098C1.87734 122.26 1.34639 123.35 0.937404 121.639C1.24871 121.285 1.95081 122.98 2.09653 121.831C1.76706 119.852 1.46021 117.948 1.24745 115.752C1.19364 115.816 1.13964 115.88 1.08583 115.944C1.11978 116.292 1.15393 116.637 1.18788 116.986C1.04382 116.61 0.901002 116.243 0.755284 115.861C1.08228 116.343 0.899569 115.113 1.27528 115.278C1.44252 115.351 1.67454 115.895 1.83433 116.216C1.92125 115.388 2.00086 114.539 2.0853 113.702C2.21854 114.135 2.35193 114.569 2.48518 114.999C2.48932 115.354 2.49227 115.705 2.49641 116.059C2.49592 116.062 2.49543 116.064 2.49494 116.066ZM72.4137 0.756261C71.3627 1.14539 69.4526 1.20978 68.4474 0.776767C69.7704 0.770144 71.0907 0.762884 72.4137 0.756261ZM89.6261 41.2386C89.6922 41.1196 89.7577 41.0043 89.8238 40.8853C89.9463 41.4107 90.068 41.9392 90.1905 42.4647C89.9993 42.5655 89.8081 42.6686 89.6178 42.7724C89.6203 42.2623 89.6236 41.7487 89.6261 41.2386ZM89.839 74.8553C89.8274 74.4709 89.8337 74.4368 89.8609 73.9581C89.8608 73.9586 89.8606 73.9592 89.8605 73.9597C89.8706 73.77 89.9823 72.1822 90.1295 72.3592C90.132 73.1475 90.1295 73.9883 90.1295 74.795C90.0327 74.8194 89.9366 74.8247 89.839 74.8553ZM89.9249 65.5759C89.9252 65.5748 89.9256 65.5737 89.9259 65.5726C89.9482 65.2857 89.9938 65.0139 90.0021 64.7178C90.2337 65.7839 89.8181 65.9523 89.9356 66.9208C90.054 67.8892 90.2833 68.4877 89.714 69.3095C89.6287 69.0039 89.5067 68.6749 89.4074 68.3602C89.635 66.9854 89.4208 66.6151 89.1964 65.5124C89.4398 65.5338 89.6815 65.5545 89.9249 65.5759ZM2.04383 133.989C2.41088 134.177 2.28567 134.586 2.29853 134.623C2.29798 134.623 2.29743 134.622 2.29688 134.622C3.75303 136.92 1.89949 134.417 3.19466 136.666C2.91865 136.385 2.65421 136.096 2.40391 135.787C2.23204 135.191 2.12102 134.567 2.04383 133.989ZM76.4031 141.683C76.4245 141.765 76.4501 141.847 76.4715 141.929C75.1516 141.91 74.815 142.233 73.7182 141.939C74.6132 141.853 75.508 141.768 76.4031 141.682C76.4031 141.683 76.4031 141.683 76.4031 141.683ZM89.2428 81.5082C89.0863 80.0447 89.0174 78.962 89.2658 77.5565C89.2661 77.5554 89.2664 77.5543 89.2667 77.5532C89.282 77.4722 89.4535 77.8642 89.4967 77.7584C89.4711 77.4684 89.4316 77.169 89.401 76.8759C89.5383 76.8362 89.6756 76.7984 89.8121 76.7587C89.7732 77.5835 89.7343 78.4089 89.6954 79.2368C89.7757 79.1146 89.8553 78.9895 89.9356 78.8672C89.977 79.5699 90.0183 80.2699 90.0597 80.9726C89.8345 80.7282 89.6094 80.4844 89.3834 80.2431C89.3363 80.6646 89.2908 81.0868 89.2428 81.5082ZM54.4284 140.786C54.6606 140.876 54.2307 141.026 54.5912 141.103C54.9518 141.179 55.6165 141.012 55.4607 141.264C54.9752 141.298 54.4654 141.337 53.9708 141.373C55.5627 141.828 57.1508 141.416 57.1752 141.978C55.6475 141.832 54.3913 141.9 52.9125 142.056C52.9736 141.61 54.4528 141.224 53.5214 140.805C53.8207 140.799 54.1351 140.791 54.4251 140.787C54.4262 140.787 54.4273 140.787 54.4284 140.786ZM84.0307 19.8565C84.0646 18.9521 83.8825 16.8798 84.1425 15.7371C84.2065 15.4559 85.0365 14.5193 85.1458 14.524C85.5143 14.5515 85.5644 15.6954 85.8045 14.4703C85.807 14.8824 85.8208 15.2824 85.8275 15.6915C86.075 15.6182 86.3219 15.5452 86.5686 15.4749C86.5314 14.9769 86.4939 14.4782 86.4558 13.9802C86.5378 13.9557 86.62 13.9314 86.7019 13.9069C86.7036 15.6975 87.0199 14.6405 87.3147 15.5694C87.4637 14.714 87.612 13.8523 87.761 13C87.7427 13.4919 87.7293 14.0723 87.7077 14.5061C88.1275 14.5642 88.0274 13.5291 88.1052 13.3517C88.5448 12.3526 88.3229 17.4392 88.9337 17.8554C89.0016 17.0428 89.0679 16.1902 89.1349 15.3593C89.2102 15.5976 89.2856 15.8391 89.361 16.0774C88.9397 17.9624 88.7904 20.0762 88.528 22.2728C88.5454 22.4713 88.5632 22.6701 88.5798 22.8655C88.7693 22.8075 88.9581 22.7526 89.1476 22.6945C89.17 22.994 89.1921 23.2971 89.2145 23.5966C88.5903 22.7137 88.5988 23.9363 88.218 25.4121C87.9986 24.627 88.1316 23.6584 87.7229 23.7252C88.0373 26.4199 87.5929 29.5756 87.948 32.197C88.0357 32.8477 88.563 32.8456 88.5143 34.3755C88.4564 34.3236 88.3517 34.3147 88.2756 34.2811C88.5281 36.9272 88.6791 38.5326 88.4216 41.2825C88.6111 41.1237 88.8014 40.9675 88.9909 40.8087C88.8965 40.2251 88.8006 39.6405 88.7062 39.06C89.0192 38.6629 89.1573 39.2498 89.1539 37.5083C89.1515 36.0814 89.0133 36.9308 88.9206 36.5427C88.794 36.0173 89.043 35.5562 88.9015 34.991C88.7931 34.5541 88.5349 35.0268 88.6003 33.8871C88.9348 34.3454 89.2801 34.8129 89.6188 35.2743C89.5434 35.5524 89.4669 35.8283 89.3908 36.1064C89.3013 35.8253 89.2131 35.549 89.1237 35.2678C89.2843 36.2577 89.4358 37.1931 89.6022 38.2166C89.1187 37.8835 89.2999 38.9415 89.3571 39.5159C89.4464 40.4107 89.1136 39.6441 89.1691 40.2307C89.2254 40.8173 89.5972 41.45 89.5177 42.5102C89.3025 41.942 89.1095 42.715 88.9108 42.5656C88.7121 42.4159 88.6681 41.2944 88.4513 42.3718C88.6161 44.4434 89.3727 42.1955 89.4952 43.5946C89.6426 45.275 88.4093 45.6749 88.1442 45.174C87.9356 44.7799 87.9776 43.4236 87.7697 43.0264C87.3947 45.4555 88.1351 45.4766 88.28 45.8921C88.8073 47.4014 87.3998 46.3875 87.9089 48.1749C87.6457 48.1413 87.4089 48.1141 87.1565 48.0805C87.2045 48.3889 87.2683 48.5936 87.3064 48.9662C87.8192 47.8674 87.7973 48.7668 87.7981 49.2284C87.7997 49.9556 88.0499 48.8323 88.1145 49.0248C88.2873 49.5443 88.2088 50.3658 88.4347 49.8618C88.3296 50.0879 88.2241 50.3329 88.1198 50.5652C88.2508 51.4147 89.3494 53.4115 89.1276 51.5112C89.5358 51.6884 89.3396 52.3031 89.2775 52.7828C89.2154 53.2624 89.4754 53.2535 89.4274 53.6751C89.2353 55.3523 88.7906 54.2552 88.4421 53.9893C88.6822 56.2044 88.841 54.0358 89.0016 57.2279C89.2856 57.5365 89.5886 56.0616 89.7526 57.2898C89.2592 57.5161 88.9048 58.4204 88.7409 60.1832C88.8543 60.3543 88.9687 60.525 89.0822 60.6961C88.6268 61.6586 88.1533 61.1666 88.7179 62.9479C87.6789 61.9916 88.3436 62.6491 87.9206 64.244C87.8353 64.5679 87.6198 63.8195 87.5105 64.2717C87.4612 64.4767 87.6239 64.9743 87.4983 65.475C87.4362 65.7194 87.0355 66.8622 87.2258 67.6535C87.7292 67.073 88.1574 68.5766 88.5739 67.2872C88.4712 69.6705 88.7129 71.3384 88.0266 68.6679C87.8742 69.2729 87.7225 69.8784 87.571 70.4834C87.6911 70.9051 87.8102 71.3304 87.9294 71.7551C87.5157 71.8192 87.3996 71.7548 87.4724 73.4159C87.3747 72.6952 87.2755 71.9774 87.177 71.2536C87.0935 71.2292 87.0066 71.1284 86.9255 71.1526C87.0844 72.0391 87.1528 74.5353 87.2629 75.1402C87.373 75.7452 87.4032 74.5769 87.51 74.751C88.3907 76.2021 87.7411 76.0871 87.8923 77.1283C87.9817 77.7394 88.0788 76.2803 88.1169 76.6072C88.2565 77.8195 87.7884 78.3818 87.7824 79.4567C88.0481 79.0749 88.3179 78.6961 88.5861 78.3234C88.572 79.4509 88.5697 80.7077 88.655 81.7557C88.6882 82.1671 88.8858 81.8563 88.8991 81.9234C88.967 82.2568 89.0745 83.6133 89.0753 83.7568C89.0769 84.8379 88.8032 84.8687 88.7882 85.9192C88.7651 85.5068 88.7442 85.1191 88.7218 84.7159C88.2781 84.5326 87.8344 84.3456 87.3899 84.1623C87.3576 85.1918 87.326 86.2217 87.2937 87.2543C87.4419 86.4997 87.5893 85.7424 87.7375 84.9878C88.096 86.1672 88.4553 87.3466 88.8146 88.526C88.5944 89.1401 88.3742 89.7517 88.154 90.3659C88.2121 92.0337 89.106 91.6978 88.3229 92.4891C88.3891 92.9808 88.4553 93.4726 88.5207 93.9643C88.4089 93.894 88.297 93.8245 88.1852 93.7542C88.254 94.347 88.3222 94.9395 88.3918 95.5323C88.7875 94.9091 89.2039 94.2981 89.588 93.681C89.674 94.8474 89.3383 94.8699 89.2545 95.0438C89.0326 95.5052 89.3319 96.421 89.1266 96.7877C89.0561 96.9116 88.8351 95.7685 88.5802 96.1624C88.5308 96.2394 87.5939 97.7699 87.8103 98.7464C87.98 98.7281 88.1881 98.6526 88.3727 98.6129C88.4758 99.9263 87.5899 100.596 87.3415 100.422C87.5154 101.122 87.5299 102.144 87.8015 102.288C87.8081 102.645 87.8144 103 87.821 103.358C87.1596 102.985 87.2806 104.476 87.8493 104.574C87.8634 103.96 87.8782 103.345 87.8923 102.731C88.5894 103.195 89.0102 101.329 88.3644 105.212C88.0018 105.955 88.4138 103.892 88.1423 104.497C87.9842 105.548 88.1165 106.535 87.864 107.534C87.5486 108.777 87.2452 107.248 87.6467 110.144C88.6526 103.755 88.3262 111.02 88.6384 114.021C87.6448 114.846 87.3301 117.38 87.6257 120.869C87.9022 120.506 87.7598 119.408 87.8508 118.775C87.9419 118.143 88.1059 118.827 88.235 118.039C88.3642 117.251 88.5397 115.578 88.735 114.78C88.8915 115.455 89.2615 118.791 88.8171 116.585C88.5431 118.232 88.2615 119.005 88.2101 121.045C88.6415 121.656 88.9101 121.611 88.9225 123.6C88.3231 122.424 87.9066 124.684 87.2873 124.186C87.4316 122.776 88.0334 123.564 88.3215 122.748C88.3503 122.665 88.1994 121.351 88.2101 121.045C87.6695 122.371 87.4683 122.83 86.825 122.014C86.8813 122.952 86.8005 123.536 87.1077 123.621C86.9744 123.817 86.841 124.013 86.7078 124.206C86.7111 124.511 86.7234 124.786 86.721 125.109C87.1843 124.664 86.8991 125.528 87.1091 126.142C87.3194 126.756 87.6852 125.932 87.6902 127.618C87.7986 127.056 87.8917 126.542 87.9943 125.998C88.1135 127.086 88.2335 128.177 88.3527 129.265C88.6358 128.501 89.0564 126.845 89.4288 126.891C89.2882 127.392 89.5354 129.108 89.5455 129.295C89.5836 130.023 89.3487 129.626 89.3429 129.681C89.3321 129.789 89.323 129.896 89.3152 130C89.2421 131.124 89.0997 132.038 88.6913 132.389C88.635 133.346 88.3098 134.011 87.8786 134.913C87.6316 135.406 87.9056 135.437 87.6988 135.699C86.9848 136.547 86.8088 136.434 86.6143 136.629C86.3839 136.799 86.2641 137.329 84.8315 138.903C85.3472 138.737 85.8592 138.535 86.3667 138.284C86.064 138.687 85.735 139.073 85.377 139.441C85.0885 139.624 84.7958 139.793 84.4952 139.95C84.2852 139.615 84.0752 139.28 83.8639 138.946C83.5734 139.111 83.2753 139.263 82.9724 139.399C83.4566 139.099 83.9148 138.76 84.3395 138.39C84.3385 138.303 84.3338 138.219 84.3308 138.133C83.6188 138.552 82.8692 138.875 82.1019 139.103C82.1445 139.234 82.1871 139.367 82.2286 139.498C80.4205 140.002 80.4043 139.874 78.6834 140.444C78.4471 140.458 78.2227 140.481 78 140.51C76.9851 140.649 76.145 141.077 75.5174 141.277C75.2455 141.2 74.9733 141.123 74.6984 141.046C74.5242 141.16 74.3482 141.274 74.1741 141.388C73.8288 141.229 73.4789 141.07 73.1336 140.912C72.9412 141.273 72.8415 141.385 74.1887 141.512C73.7273 141.961 71.3556 141.763 70.39 141.612C69.6575 141.498 70.4703 141.123 70.3786 141.078C70.0728 140.923 68.8655 141.057 68.612 141.031C67.5396 140.924 66.7881 140.943 65.8196 140.86C65.631 140.843 65.1039 140.606 65.0592 140.599C64.7108 140.558 63.8511 140.443 63.7533 140.44C58.7098 140.263 64.0989 141.292 59.4092 141.183C59.5496 141.319 59.6788 141.454 59.8162 141.589C59.462 141.598 59.104 141.606 58.7497 141.614C58.3006 141.5 58.844 141.294 57.9519 141.461C58.0099 141.293 58.0683 141.126 58.1294 140.96C57.7413 141.05 57.3673 141.139 56.9701 141.23C56.3468 140.649 54.0713 140.517 54.233 139.836C54.288 139.604 55.9012 139.366 55.0487 139.119C54.3561 139.07 54.8249 139.347 54.5424 139.362C52.5013 139.463 52.6199 139.074 51.7857 139.178C51.6544 139.344 51.5163 139.514 51.3819 139.682C51.0674 139.633 50.7519 139.584 50.4343 139.535C50.361 139.647 50.2846 139.759 50.2112 139.871C50.5076 139.878 50.8413 139.886 51.1133 139.893C50.7341 140.326 47.2518 140.521 48.5797 140.152C49.1205 140.002 50.1109 140.065 49.485 139.554C48.5532 139.628 47.4959 139.703 46.5151 139.777C46.4846 139.666 46.4561 139.556 46.4256 139.446C45.1038 139.517 46.3059 139.958 46.3035 140.194C46.0011 140.2 45.6956 140.206 45.3933 140.213C45.2651 140.106 45.1433 139.994 45.009 139.891C44.9967 140.061 44.8274 140.455 43.9262 140.309C43.3468 140.213 44.2593 139.785 43.1544 139.844C43.237 140.109 43.6361 140.432 42.4054 140.517C42.2832 140.241 42.1143 139.988 42.0196 139.697C40.4891 139.963 39.7926 139.536 37.9962 139.844C36.8565 140.04 35.2953 140.733 34.5589 139.665C33.7253 139.637 33.9899 139.903 33.7432 139.963C32.5791 140.246 31.7132 139.739 31.4962 139.709C30.1127 139.518 29.4924 139.694 28.3651 139.454C28.4262 139.652 28.4595 139.84 28.5084 140.032C29.5412 139.736 30.0642 139.75 31.5125 139.814C31.0268 139.853 30.5409 139.894 30.0552 139.934C30.1347 140.094 30.2133 140.255 30.2897 140.415C34.7691 139.782 33.7242 140.782 29.9689 141C29.6451 140.703 29.3095 140.407 28.9887 140.109C26.8194 140.559 25.7986 140.168 23.3453 140.074C23.0536 140.064 21.9913 140.235 21.5347 140.243C21.5422 140.244 21.5498 140.246 21.5574 140.247C21.2734 140.527 21.6581 140.657 21.704 140.907C21.4566 140.939 21.2089 140.97 20.9615 141.002C20.4089 140.81 20.6032 140.653 19.5156 140.699C19.6623 140.889 19.807 141.08 19.9536 141.27C18.762 141.277 17.9821 141.07 16.873 141.159C17.0594 141.087 17.2435 141.015 17.4299 140.943C15.016 140.759 16.937 139.64 15.1129 140.197C14.9968 140.099 14.8837 140.001 14.7677 139.903C15.5192 139.879 16.2711 139.856 17.0195 139.832C17.0348 139.694 17.0513 139.556 17.0635 139.418C16.2599 139.459 15.4524 139.502 14.6488 139.543C15.2355 139.45 15.8255 139.358 16.4122 139.265C15.4804 139.199 14.5483 139.132 13.6165 139.066C14.6061 139.574 13.3232 139.637 13.5644 140.14C13.3723 140.091 13.185 140.04 13 139.99C11.588 139.566 10.5208 139.079 8.48557 138.386C8.04552 138.205 8.02485 138.676 7.15839 137.513C7.08501 138.199 5.5282 137.194 5.33003 137.704C5.73337 138.07 6.17342 138.424 6.61517 138.708C6.24607 138.193 6.51467 137.772 7.27213 138.142C8.22158 138.622 9.53068 139.517 9.67209 138.955C10.0453 139.122 10.4074 139.247 10.7903 139.36C10.5987 139.459 10.4033 139.553 10.2026 139.64C11.4023 139.75 12.0883 139.856 12.6604 140.234C11.2171 140.27 9.75093 139.995 8.38967 139.416C8.57433 139.533 8.7661 139.646 8.95959 139.752C7.78338 139.59 8.67601 140.516 6.71014 139.426C6.81316 139.297 6.91353 139.166 7.01609 139.035C6.07933 139.023 4.45457 137.409 4.61217 138.272C4.23343 137.656 4.23508 137.489 3.76948 137.351C2.91121 135.628 3.01081 134.391 3.7699 134.681C3.41153 134.182 3.0935 133.643 2.82463 133.076C2.77675 133.468 2.75217 133.869 2.75066 134.278C2.32203 133.228 2.05678 132.104 1.9681 130.981C2.37779 130.843 2.45964 133.07 2.75259 132.353C2.80316 132.215 2.51878 131.681 2.54796 131.52C2.86661 129.888 2.81033 132.39 3.14766 131.858C2.99459 130.262 3.44334 130.666 3.42163 130C3.42532 129.707 3.36775 129.215 3.20292 128.287C3.33867 128.205 3.47715 128.116 3.61208 128.04C3.62023 126.956 3.31359 127.044 3.25565 126.112C3.2196 125.529 3.75804 124.796 3.39138 124.152C3.32378 124.037 2.66568 125.121 2.69464 122.843C2.71709 121.074 3.18216 121.81 3.34695 120.855C3.51171 119.898 2.86684 117.71 3.59792 117.066C3.50109 117.567 3.44885 118.205 3.36941 118.761C3.51179 118.987 3.65264 119.207 3.7942 119.43C3.6104 118.159 3.82702 116.845 3.48757 115.989C4.00669 114.294 3.52495 112.397 2.93877 112.91C3.02328 113.468 3.27889 112.861 3.11601 113.637C2.9794 113.716 2.84346 113.8 2.70685 113.879C2.72341 112.559 2.71957 111.642 3.13603 112.244C3.14596 112.04 3.15587 111.837 3.16581 111.632C2.86444 111.595 2.56195 111.563 2.26058 111.526C2.22664 111.282 2.19297 111.036 2.15902 110.792C2.22522 110.52 2.29219 110.248 2.35921 109.973C2.8361 110.343 2.85185 110.972 3.11845 108.889C2.95369 108.882 2.78958 108.874 2.62482 108.867C2.83428 107.123 3.23339 107.077 3.21854 104.886C3.79057 106.567 2.77657 107.486 3.92407 107.48C3.84873 107.902 3.77238 108.327 3.69703 108.749C3.86345 108.813 4.0301 108.876 4.19652 108.937C4.10874 106.673 3.0143 102.913 3.74 101.397C3.65144 101.214 3.57446 101.03 3.47927 100.843C3.91725 99.3584 2.93395 98.7172 3.50026 97.2108C3.5597 97.0554 4.48352 97.3806 4.45041 95.4198C4.33035 95.4686 4.12826 95.494 3.9768 95.5337C4.05046 95.1092 4.12755 94.6868 4.20287 94.2653C4.09197 94.189 3.98111 94.1089 3.86939 94.0325C3.82633 94.7566 3.78256 95.4788 3.73951 96.2029C3.70144 95.6012 3.66333 94.9957 3.62526 94.394C3.44401 95.179 3.44208 95.5331 3.15165 95.0599C3.13426 94.3785 3.11582 93.6962 3.09843 93.0148C3.02402 92.9447 2.94873 92.875 2.87432 92.8048C2.65245 93.1348 2.43547 93.4681 2.21029 93.798C2.3916 92.0229 2.40145 90.4795 2.8377 89.1168C2.91138 88.8846 3.20044 89.7059 2.93975 88.1236C3.09283 88.0992 3.21715 88.0566 3.35867 88.0292C2.9298 86.092 3.05781 85.4556 3.36746 83.4359C3.07851 84.7437 3.26644 83.5768 3.11161 83.2438C3.00495 83.0155 3.0207 83.9063 2.90899 83.8055C2.79805 83.7047 2.3501 82.5473 2.29622 83.5369C3.21441 85.9629 2.11664 86.6238 2.55793 89.7405C2.43953 89.2607 2.32087 88.7776 2.20248 88.2978C2.12223 88.5238 2.04943 88.726 1.96421 88.9703C2.14384 87.232 2.02714 88.0775 1.8856 87.3632C1.74402 86.6482 1.62375 85.3488 1.58483 84.478C1.57261 84.2037 1.77854 84.493 1.79771 83.8739C1.81096 83.4523 1.50567 82.3001 1.86558 82.034C2.09987 81.8598 2.74501 83.711 2.74347 81.1515C2.97315 80.6697 2.90182 81.8969 2.92949 81.9233C3.20271 82.1463 3.40814 80.5729 3.1995 79.8456C3.1815 79.7867 2.9686 80.361 2.88506 79.7365C2.68553 78.2546 2.92969 77.3988 3.26004 76.4394C2.87257 76.3355 2.40981 75.0884 2.55305 73.5362C2.44216 73.4568 2.3303 73.3811 2.21859 73.3017C2.27728 73.5427 2.33518 73.7837 2.39387 74.0247C2.32433 74.2874 2.2737 74.5658 2.19174 74.8225C2.09645 73.2615 1.56245 73.0407 1.36707 72.2922C0.699649 69.7307 2.11146 71.2832 2.35481 71.7451C2.25629 72.0782 2.14631 72.4002 2.04282 72.7302C2.17777 72.6935 2.31375 72.6564 2.44954 72.6228C2.44541 68.7882 3.32557 72.0388 3.57643 70.0925C2.91247 69.5914 2.84847 68.1619 3.26981 66.341C3.2665 66.1393 3.26565 65.937 3.26151 65.7353C3.1647 65.7018 3.01672 65.7022 2.95293 65.6474C2.84033 63.4535 3.86285 63.0627 3.95971 62.8549C4.38934 61.9323 3.7949 61.2138 3.7898 60.9418C3.7691 59.796 4.03305 59.463 3.91968 58.3724C3.79717 57.1993 3.59464 58.0014 3.41336 57.6446C3.26939 57.3583 3.24375 56.4328 3.09452 56.0505C3.21657 56.2024 3.33626 56.3713 3.45876 56.5227C3.62515 55.3069 3.78732 54.3133 3.82789 52.9324C2.93486 51.3743 4.44128 50.0485 3.21952 50.5861C3.1359 51.8939 2.99667 52.6251 2.68536 53.3248C2.64563 52.4664 2.60694 51.6074 2.56721 50.749C2.7013 50.4985 2.83198 50.3207 2.96855 50.0244C2.6838 49.3829 2.80599 47.8956 2.72247 47.3117C2.33086 44.5771 1.84515 45.4231 2.66144 42.9269C2.74098 44.726 3.13744 44.7232 3.08281 46.5074C3.36595 46.1224 3.30729 45.2157 3.64674 45.8024C3.56313 44.0762 3.26007 44.6342 2.99101 43.9625C2.75907 43.383 2.74608 42.2162 2.44465 42.2821C2.61038 42.1628 2.77082 42.0705 2.93633 41.9516C2.93467 40.8335 2.93457 39.7155 2.93291 38.5974C3.10592 39.074 3.27925 39.5504 3.45144 40.027C3.51679 39.6668 3.58188 39.3061 3.64723 38.9458C3.10908 36.1959 4.09537 31.4539 2.74347 32.2114C2.70042 30.8855 2.86998 30.7196 3.12577 29.9987C3.02314 29.9192 2.93777 29.842 2.82354 29.7626C2.93098 28.9072 2.54565 28.2506 2.64582 27.4961C2.74521 26.7415 3.10918 26.5542 2.49739 26.4442C2.67288 25.9554 2.81866 25.4694 2.98174 24.9837C2.84275 24.6906 2.70537 24.3977 2.56721 24.1077C2.64006 23.6494 2.71261 23.1901 2.78546 22.7318C2.49342 22.4869 2.6193 20.6849 2.42317 19.8905C2.73797 19.1364 3.72915 19.1571 3.55153 17.383C3.3057 17.4289 3.06058 17.474 2.81475 17.5198C2.86607 17.1135 2.91723 16.7064 2.96855 16.297C3.04879 16.2726 3.12903 16.2514 3.20926 16.227C3.18443 16.4347 3.15973 16.6396 3.13407 16.8474C3.26985 16.6671 3.40501 16.4905 3.54079 16.3133C3.33964 15.6931 3.13846 15.0722 2.9373 14.449C2.785 15.289 2.6326 16.1294 2.4803 16.9695C2.29981 15.9153 2.47984 15.1816 2.27865 14.265C2.61804 13.4676 2.81361 13.762 3.18192 14.0859C3.15047 13.7896 3.12011 13.4898 3.08866 13.1936C3.45703 13.389 3.67652 12.8879 3.64674 14.6199C3.75181 14.5008 3.85198 14.3794 3.96118 14.2633C3.94462 13.9792 4.03343 13.795 3.99292 13.4834C3.97065 13.3129 3.92678 13.1504 3.86905 13C3.63894 12.4562 3.23977 12.0158 3.05338 12.0426C2.92337 12.0646 3.10922 12.9122 2.9493 12.8749C2.56719 12.8052 2.77271 11.1233 2.40949 13C2.38109 13.179 2.34867 13.3917 2.31136 13.643C2.23766 13.3831 2.20049 13.1802 2.1868 13C2.15747 12.5034 2.27898 12.1698 2.44049 11.4085C2.29299 11.4718 2.14719 11.5364 2.00117 11.6033C2.12853 11.0945 2.29164 10.5965 2.48759 10.1187C2.96767 10.8803 4.2453 7.78876 3.93841 10.8126C4.16967 9.98477 4.51568 9.19617 4.9615 8.47388C4.9382 8.66169 4.92102 8.84727 4.91029 9.03236C4.71122 9.3511 4.53226 9.68308 4.37379 10.0288C4.64325 9.65044 4.93703 9.3005 5.2505 8.98269C5.58291 8.0182 5.65192 7.55522 5.72294 6.97008C4.7641 7.84168 5.25616 7.69996 4.81648 8.56442C4.66091 8.44018 4.47956 8.39552 4.34262 8.21711C4.91688 7.93117 5.70086 6.42447 6.00919 6.13483C6.84997 5.24801 6.42286 6.1881 7.02638 5.67597C7.62693 5.18483 8.33985 4.48128 9.09261 4.5752C8.98907 4.37871 8.84471 4.1928 8.71355 4.0317C9.86755 3.4378 9.73518 3.82538 9.86484 3.80236C11.1483 3.73051 11.9765 3.59635 13 3.49072C13.7159 3.42773 14.4928 3.33814 15.4774 3.31522C15.1658 3.24651 14.851 3.18448 14.5363 3.11991C16.3873 2.64895 15.1404 2.79316 13.5333 2.63751C15.0397 2.68471 15.9023 2.28362 16.9656 2.16439C18.0288 2.04537 19.8521 2.25137 20.5185 2.41194C18.9937 2.67026 17.3493 2.49991 15.6565 2.57111C15.849 2.79708 16.036 2.98832 16.2345 3.23661C17.2641 2.76234 17.8607 3.07945 18.1998 3.14237C19.1957 3.32691 19.1644 2.91985 19.7662 3.35769C19.7418 3.20707 19.7239 3.08043 19.6994 2.93975C21.7557 3.00267 23.9737 3.26895 25.312 2.71271C25.4342 3.07448 25.5264 3.42302 25.6669 3.79224C26.5376 3.51992 27.2833 3.79879 28.0165 3.73512C28.7467 3.67137 28.4687 3.379 29.3272 3.26639C29.4861 3.24569 29.817 3.42869 30.2081 3.29373C30.603 3.15806 32.0595 2.14933 32.2336 3.03056C32.9699 3.03471 33.6668 3.06693 34.3878 3.08183C33.6851 3.1315 32.9821 3.17961 32.2825 3.22928C32.8813 3.44286 33.4764 3.65581 34.0752 3.86939C34.1516 3.67896 34.2282 3.48509 34.3015 3.29715C35.9148 3.06533 37.0855 3.37668 38.714 3.30301C38.986 3.29059 38.3444 2.9141 39.551 3.01005C40.7578 3.10609 41.6534 3.80879 43.7095 3.53737C43.8134 3.5233 44.4222 2.98512 45.1586 3.35769C45.3262 3.44213 44.6209 3.56708 45.0056 3.67799C45.3906 3.78893 47.1083 3.88016 47.2428 4.14428C47.2244 4.05075 47.1173 3.95383 47.0653 3.85865C47.3585 3.81395 47.6548 3.76922 47.9511 3.72535C47.9786 3.89009 48.0082 4.05507 48.0357 4.21898C49.7223 3.83566 50.5939 3.21036 53.093 3.41726C52.3903 3.17801 51.6874 2.9378 50.9877 2.69855C50.7952 2.86662 50.6024 3.03582 50.413 3.20389C49.2612 3.13684 48.1063 3.07027 46.9546 3.00322C46.7651 3.19447 46.579 3.38518 46.3896 3.57643C46.0841 3.5516 45.7816 3.52754 45.4761 3.50271C45.5525 3.36445 45.6295 3.22692 45.709 3.08866C45.1041 3.1226 44.4985 3.15726 43.8967 3.1912C45.1219 2.3751 47.3182 3.26061 47.1597 2.57795C47.4315 2.68387 47.7037 2.79052 47.9755 2.89727C48.0947 2.56625 48.6474 2.66152 49.6216 2.71368C49.3986 2.55058 49.1523 2.3897 48.9475 2.22494C49.8948 2.45508 51.5749 2.43273 52.5557 2.52131C52.9865 2.56022 52.5562 2.80021 52.6844 2.82842C53.3413 2.9758 54.5969 2.55704 54.8597 2.59015C56.4301 2.78724 57.4507 3.58115 59.1648 3.0579C57.3956 2.92875 58.3581 2.9833 57.7286 2.69269C57.5316 2.60157 55.2461 2.4115 58.108 2.49592C58.4436 2.50648 63.6365 3.05502 61.9295 3.47536C62.7698 3.34124 63.4277 3.18615 64.1976 3.04374C66.0798 4.15153 65.4284 3.11085 64.8815 2.53791C65.1901 2.53543 65.4837 2.52961 65.8015 2.52961C65.1262 3.13152 68.5665 3.1689 69.7337 2.86504C70.1247 2.76403 69.0312 2.57137 69.9356 2.4803C70.3662 2.52251 70.8548 2.57716 71.3098 2.62433C70.6499 2.24351 71.945 2.09675 71.9269 1.70934C72.7549 2.05456 73.3882 2.78629 72.9332 3.1829C73.6175 3.02231 74.3053 2.86192 74.9896 2.7005C74.6719 2.6086 74.35 2.51751 74.0322 2.42561C75.3392 2.56786 76.8646 2.43783 78 2.46759C78.852 2.48842 79.4813 2.69459 79.6171 3.05816C79.9131 3.10002 80.2102 3.15664 80.5007 3.22479C80.6243 3.11449 80.7486 3.00535 80.8787 2.89948C82.2017 3.39917 83.3926 4.16302 84.3743 5.11137C83.3564 4.44037 83.0292 4.46364 81.9635 3.79475C82.3451 4.13114 82.6985 4.4964 82.9999 4.86807C84.6862 5.53951 85.3179 5.4766 86.7795 7.95666C86.8997 8.06333 87.4026 10.1689 87.3309 10.2476C87.2677 10.6015 86.9107 10.1991 86.8735 10.3588C86.8533 10.8184 86.5242 13.0679 86.3797 12.9994C85.8658 12.7295 85.5745 10.924 84.5138 9.37996C83.5153 7.78819 81.8017 6.67932 81.0263 6.39214C80.0666 5.98815 79.0354 5.79639 78 5.82157C56.1687 6.19706 34.7344 5.58295 13 5.66647C12.6232 5.66842 12.25 5.69895 11.8824 5.75781C11.706 5.78778 11.8089 5.92809 11.7366 5.94715C11.2947 6.06232 10.794 5.96634 10.6205 6.01619C10.2609 6.12241 10.5309 6.26068 10.2834 6.35829C7.7424 7.38382 5.83604 9.80846 5.74081 12.6296C5.73617 12.8124 5.5622 12.6165 5.58775 12.9461C5.58918 12.9613 5.59267 12.9794 5.5979 13C5.65135 13.2805 5.87822 13.912 5.88198 14.3789C5.89605 16.1694 5.80851 17.6734 5.81265 19.5616C5.81512 20.5944 5.79191 22.1437 5.79605 23.2984C5.79781 23.8084 5.92273 24.3398 5.9269 24.8436C5.9327 25.5586 5.67946 25.4126 5.66373 25.5226C5.59503 26.0054 5.87297 26.0722 5.86636 26.5305C5.85311 27.383 5.66754 27.4289 5.68326 28.5104C5.69485 29.2835 5.84137 31.0527 5.88442 32.0274C5.66918 34.3068 5.75463 37.1791 5.82583 39.3057C5.86804 40.5645 5.60822 40.6811 5.60905 41.1944C5.61408 43.003 5.94592 44.3756 5.95669 46.0743C5.97071 48.3287 5.75128 50.3266 5.73551 52.5107C5.73302 52.8649 5.97109 52.7836 5.97719 53.1311C5.99955 54.4174 6.04288 56.0624 6.00893 57.2082C5.97163 58.4852 5.62608 58.9562 5.69645 60.2058C5.71734 60.5721 6.02032 60.6795 6.05922 61.2935C6.12039 62.2741 5.85321 63.3494 5.82339 64.0338C5.78365 64.9718 6.09232 64.1561 6.05092 65.421C6.04913 65.473 5.82849 65.6623 5.83902 65.9339C5.86882 66.7253 6.04258 66.6467 6.02602 67.8048C6.02373 67.9159 5.81349 69.4513 5.81265 69.604C5.80934 70.5023 5.73573 72.3108 5.78043 72.8426C5.93939 74.7431 6.27125 73.2468 5.55094 74.8632C5.72725 75.5749 5.90595 76.2808 6.07729 77.0353C5.91749 76.5317 5.68691 78.5753 5.70182 78.7189C5.8219 79.9068 6.10216 79.1992 6.0558 80.7053C5.40835 78.7162 5.97235 82.6485 5.98891 83.5255C6.0692 87.7479 5.90763 91.5862 5.91177 95.8301C5.91346 97.2508 6.05032 99.1547 6.04701 100.658C6.04682 101.008 5.89359 100.743 5.89028 101.052C5.88801 101.359 6.06002 101.018 6.05092 101.369C5.99129 103.554 5.66673 105.266 6.0724 107.267C6.01375 107.364 5.9674 107.361 5.90298 107.522C6.26641 109.16 5.77767 112.314 5.7106 113.5C5.60635 115.354 5.852 115.828 5.8024 117.175C5.73616 118.956 5.25625 121.63 6.04848 120.436C6.07331 121.658 6.08016 122.834 6.00649 124.069C5.99814 124.206 5.79677 124.111 5.79263 124.166C5.76372 124.515 5.94401 124.628 5.95229 124.863C5.97456 125.501 5.75869 124.46 5.819 125.37C5.85129 125.849 6.00853 126.122 6.01186 127.454C6.01368 128.295 6.01469 129.145 6.01502 130C5.89979 133.622 9.21963 137.107 13 137.028C15.2613 137.037 17.5102 137.046 19.724 137.054C20.2893 137.055 19.9172 136.86 20.6261 136.873C23.0888 136.916 27.4969 137.244 29.6205 137.199C31.7439 137.154 31.2648 136.87 32.5937 136.75C32.8503 136.727 32.6399 136.889 32.8721 136.892C34.4334 136.907 36.2949 137.16 37.5598 137.198C38.3963 137.224 38.3293 136.968 38.9096 136.95C39.7743 136.924 40.6643 137.182 41.1256 137.19C43.2947 137.226 44.7859 137.018 46.8115 137.124C46.7322 137.068 46.6799 137.016 46.6128 136.961C49.0112 136.97 51.4064 136.979 53.8048 136.988C53.6917 136.937 53.5824 136.885 53.4693 136.833C56.2833 136.861 55.9622 137.417 55.7147 136.243C55.9194 136.201 56.1363 136.153 56.3318 136.115C56.2524 136.72 57.9546 137.163 60.1207 137.317C60.2796 137.329 61.3457 136.739 61.2295 137.436C61.5076 137.265 61.6733 137.148 61.9085 136.998C62.3667 137.209 62.8311 137.418 63.2893 137.628C63.5367 137.596 63.7876 137.566 64.035 137.535C64.0717 137.398 64.0435 137.256 64.1229 137.122C65.2716 137.101 67.6277 137.27 68.5355 137.253C70.7904 137.209 73.0861 136.84 74.84 137.239C75.6943 137.198 74.8459 136.93 76.1166 136.964C76.2601 137.099 76.3951 137.23 76.5448 137.369C77.1833 136.997 77.5113 136.992 78 137.074C78.2191 137.124 78.4878 137.204 78.8897 137.205C79.599 137.198 80.0131 136.936 80.635 136.731C80.7928 136.676 80.8389 136.849 80.9451 136.797C81.319 136.64 82.1365 135.855 82.326 135.675C84.1347 134.184 85.0794 132.219 85.156 130C85.1584 129.875 85.1609 129.749 85.1634 129.623C85.17 129.274 84.9944 129.726 85.0018 129.366C85.0135 128.785 85.2835 129.127 85.2967 128.791C85.3321 127.853 85.0475 127.846 85.0326 126.539C84.9838 122.234 85.1976 117.284 85.2166 112.787C85.2166 112.646 85.0499 112.655 85.0482 112.502C85.04 111.506 85.2655 110.498 85.263 109.594C85.2597 108.094 85.0254 106.966 85.0262 105.484C85.0271 102.588 85.147 99.9996 85.1537 97.0205C85.1595 94.5822 85.1372 92.4646 85.138 89.7911C85.1413 78.113 84.6119 66.1963 84.8934 54.4387C84.9009 54.1395 85.0482 54.2613 85.0418 54.1701C84.9781 53.3023 84.7793 53.2249 85.1957 52.9163C85.1136 51.8109 84.8008 51.4621 84.8231 50.1272C84.8348 49.4156 85.3197 49.9469 85.0697 48.7431C84.8437 47.6562 84.578 48.8557 84.8495 45.6234C84.8569 45.5379 85.1525 45.1167 85.0755 44.4446C84.9994 43.7693 84.7877 44.551 84.724 42.9254C84.575 39.1093 84.8304 34.2789 84.7518 29.8425C84.7469 29.5645 84.5889 26.8867 84.516 26.3581C84.3744 25.3351 84.1548 25.5489 84.101 24.2202C84.0596 23.1935 84.3084 22.3465 84.2587 21.1396C84.2526 20.999 83.9967 20.7635 84.0307 19.8565ZM1.99887 111.635C1.7478 111.385 0.823634 110.933 1.10488 109.418C1.13137 109.274 1.76691 110.049 1.86802 109.213C1.93508 110.031 1.9568 110.829 1.99985 111.635C1.99953 111.635 1.9992 111.635 1.99887 111.635ZM89.9234 13.2898C89.8771 14.4234 89.8311 15.5609 89.7848 16.6945C89.673 15.9123 89.5615 15.1289 89.4489 14.3498C89.607 13.9955 89.7653 13.6442 89.9234 13.2898ZM69.3056 141.484C69.3067 141.484 69.3078 141.484 69.3089 141.484C68.1172 141.604 66.9249 141.723 65.7333 141.842C65.8585 141.755 65.9841 141.666 66.1094 141.579C67.0503 141.44 67.9916 141.302 68.9295 141.164C69.0547 141.271 69.1804 141.378 69.3056 141.484ZM78.7596 140.528C79.5694 140.561 79.3952 140.747 79.8763 140.848C79.8763 140.847 79.8762 140.847 79.8762 140.847C80.0034 140.874 80.571 140.797 80.7852 140.744C80.6788 140.657 80.5525 140.577 80.4445 140.489C81.3472 140.166 82.6862 139.776 83.3187 139.695C83.9213 139.578 83.9989 140.21 81.5439 141.29C81.5784 141.134 81.6069 140.979 81.6354 140.823C80.1737 141.363 78.4793 141.35 78 141.12C77.8298 141.037 77.8089 140.937 78 140.82C78.144 140.739 78.3913 140.65 78.7596 140.528ZM1.5985 93.6759C1.14314 91.7693 1.04713 91.1579 1.35926 88.8449C1.48833 89.1716 1.61738 89.4984 1.74645 89.8251C1.6148 90.207 1.48406 90.5862 1.35242 90.9681C1.35242 90.9692 1.35242 90.9703 1.35242 90.9714C1.49068 91.0478 1.62918 91.1244 1.76744 91.1977C1.71115 92.0226 1.6548 92.851 1.5985 93.6759ZM88.8844 72.0042C89.7939 71.4728 89.2653 71.6261 89.4703 73.144C89.5415 73.6695 89.7007 73.1573 89.7272 73.4843C89.8719 75.2498 89.2625 75.391 88.9455 74.9969C88.9239 73.9977 88.9043 72.9883 88.8844 72.0075C88.8844 72.0064 88.8844 72.0053 88.8844 72.0042ZM88.6955 26.1969C88.6955 26.1958 88.6955 26.1947 88.6955 26.1936C88.9173 26.1478 88.977 26.8595 89.1872 26.0569C89.1863 26.6675 89.1846 27.2782 89.1837 27.8919C89.1631 27.7119 89.1434 27.5281 89.1227 27.3481C89.0465 27.507 88.9694 27.6662 88.8932 27.8251C89.1482 28.042 89 28.2436 88.9147 28.8851C89.1871 28.7079 89.4597 28.5315 89.732 28.3543C89.6509 29.0997 89.5695 29.8478 89.4884 30.5932C89.4198 30.6023 89.351 30.6117 89.2824 30.6208C89.3701 30.9018 89.4588 31.18 89.5465 31.461C89.4646 31.5374 89.3834 31.611 89.3014 31.6873C89.3635 32.0264 89.4255 32.3659 89.4884 32.705C89.2899 32.8082 89.2041 32.0609 89.2545 33.3856C89.0509 32.9792 88.8479 32.5738 88.6442 32.1644C88.6608 30.1753 88.6781 28.186 88.6955 26.1969ZM89.1642 85.8133C89.1261 83.6226 89.27 84.2396 89.7203 84.7468C89.5349 85.1011 89.3496 85.459 89.1642 85.8133ZM25.0289 140.763C24.3933 141.071 23.7551 141.375 23.1043 141.671C21.8087 141.842 20.5127 141.283 21.4874 141.063C22.6607 140.8 23.8861 141.095 25.0289 140.763ZM2.09994 128.23C1.95751 129.816 1.59252 128.324 1.37976 127.967C1.72171 127.528 1.69154 126.917 1.73131 125.935C1.75348 126.857 2.12413 127.968 2.10092 128.23C2.10059 128.23 2.10027 128.23 2.09994 128.23ZM50.5369 141.109C51.1721 141.099 51.8039 141.014 52.3719 141.118C52.2006 141.412 51.0644 141.144 51.8769 141.58C51.4706 141.587 51.0639 141.594 50.6606 141.603C50.9169 141.422 50.5722 141.287 50.5385 141.11C50.538 141.109 50.5374 141.109 50.5369 141.109ZM89.5104 107.039C89.1626 108.286 89.3114 108.522 89.5524 109.778C89.2692 109.955 88.795 108.457 88.6906 107.519C88.9638 107.361 89.2372 107.201 89.5104 107.039ZM55.7829 1.63463C55.4835 1.99552 53.2752 2.04258 52.178 1.93589C52.3086 1.88237 52.4397 1.82813 52.5704 1.77379C53.6398 1.72742 54.7135 1.681 55.7829 1.63463ZM1.75572 125.467C1.74515 125.632 1.73727 125.788 1.73131 125.935C1.72738 125.771 1.73352 125.613 1.75572 125.467ZM3.32205 59.0937C3.6623 59.616 3.77661 58.0635 3.64332 59.9485C3.64365 59.9485 3.64398 59.9485 3.6443 59.9485C3.55654 61.1952 3.53311 61.4704 3.50661 62.6254C3.06953 62.2096 2.91329 59.8664 2.82305 63.0959C2.82265 63.1384 3.08273 63.0538 3.04716 63.5697C3.0361 63.729 2.82265 64.2387 2.76056 65.014C2.74069 65.2645 2.67486 67.1473 2.67072 64.5809C2.36603 64.6573 2.05764 64.5194 1.76207 64.5255C1.67617 63.5237 2.27278 62.7538 2.25814 61.694C2.23496 60.1204 1.63166 59.3197 2.42317 59.0172C2.61764 60.3403 2.62231 62.6123 2.14633 62.9087C2.14053 64.1887 2.53051 64.5563 2.72345 63.5241C2.47838 59.1028 3.30231 62.3104 2.99101 58.4391C2.88093 58.3933 2.76247 58.2341 2.659 58.2584C3.04638 57.0767 3.20036 58.9073 3.32205 59.0937ZM2.4803 68.3388C2.24764 67.575 2.01313 66.8136 1.77965 66.0528C2.15883 66.0528 2.4991 66.4723 2.71271 67.6762C2.63494 67.896 2.55723 68.119 2.4803 68.3388ZM6.33026 4.73613C6.29024 4.50236 6.4266 4.15678 6.50952 3.8584C6.65773 3.8407 8.04413 3.03066 9.17104 2.73438C10.2933 2.42996 11.0085 2.35703 9.59343 2.85455C9.1822 2.92466 6.57961 3.87454 6.33026 4.73613ZM89.1998 98.3833C89.0616 99.0311 88.9231 99.6762 88.7848 100.321C88.6971 99.3285 88.6071 98.3353 88.5178 97.3429C88.7451 97.6906 88.9725 98.0356 89.1998 98.3833ZM14.4844 140.402C14.758 140.409 13.8492 140.693 14.9272 140.648C14.2658 140.797 13.639 140.928 13 141.064C12.8475 141.094 12.6938 141.12 12.5385 141.144C12.2823 140.999 12.0326 140.846 11.7961 140.685C11.5897 140.749 11.3784 140.806 11.1638 140.857C11.3159 140.684 11.4482 140.511 11.5946 140.331C12.1937 140.601 12.6192 140.619 13 140.573C13.4335 140.517 13.8239 140.383 14.4844 140.402ZM53.8243 139.637C54.0622 140.062 52.1464 140.315 54.0311 140.383C53.6736 140.661 53.0988 140.808 51.9958 140.833C51.8187 140.726 51.642 140.62 51.465 140.513C51.4405 140.799 51.1567 140.905 50.5369 141.109C50.5363 141.108 50.5358 141.108 50.5353 141.108C48.8584 141.128 48.9586 141.033 48.5553 140.564C50.3306 140.829 50.3836 140.4 51.5936 140.145C52.4246 139.969 53.5096 140.049 53.8243 139.637ZM2.87541 9.8038C3.00979 8.44128 2.15478 9.35013 3.63519 7.36796C3.63229 7.54924 3.63319 7.72928 3.63981 7.90741C3.32492 8.51434 3.06845 9.15033 2.87541 9.8038ZM60.0198 141.093C59.8762 140.436 58.6942 139.924 58.4925 140.993C59.6444 141.211 59.0818 140.605 60.0198 141.093ZM3.12919 128.771C3.12124 129.345 3.06549 129.742 2.98079 130C2.79372 130.601 2.43627 130.483 2.15759 130C2.09512 129.899 2.03687 129.782 1.98569 129.657C2.12065 129.516 2.25584 129.376 2.38997 129.238C2.3287 128.85 2.26731 128.462 2.20687 128.074C2.51403 128.306 2.82203 128.539 3.12919 128.771ZM88.3708 124.639C88.8402 126.331 88.6319 122.811 88.925 123.994C89.1592 124.938 88.6862 126.182 88.3898 125.712C88.3815 125.385 88.3758 125.021 88.3708 124.642C88.3708 124.641 88.3708 124.64 88.3708 124.639ZM87.4912 134.508C88.056 134.45 87.8085 134.792 88.2193 133.409C88.4493 133.043 89.0275 129.813 88.4572 131.13C88.3382 132.265 88.0067 133.441 87.4912 134.508ZM2.39534 103.167C2.61376 103.147 3.09338 105.484 2.97344 105.784C2.97376 105.784 2.97409 105.784 2.97441 105.784C2.64738 106.593 2.60091 104.128 2.15219 105.197C2.54704 102.829 1.59195 102.121 2.85039 102.286C2.9056 103.681 2.64619 103.021 2.39534 103.167ZM84.4828 4.9479C84.4837 4.94861 84.4845 4.94931 84.4854 4.95002C84.3881 4.82742 83.4411 3.8025 83.625 3.80346C84.9682 4.82177 84.5691 4.78242 85.9212 5.62997C85.8978 5.76888 85.8665 5.89539 85.842 6.03712C85.3861 5.635 85.0677 5.49552 84.4828 4.9479ZM12.1412 2.85683C11.5728 2.94927 10.4775 2.91497 9.83456 3.14897C10.9664 2.15221 12.6787 2.19039 13 2.43711C13.0858 2.4969 13.0936 2.56361 13 2.62653C12.8795 2.70471 12.6078 2.77291 12.1412 2.85683ZM88.7267 47.6213C88.7271 47.6229 88.7274 47.6245 88.7277 47.6262C88.7272 47.6257 88.7267 47.625 88.7262 47.6246C88.7264 47.6235 88.7266 47.6224 88.7267 47.6213ZM2.27572 42.4124C2.33473 42.3387 2.38599 42.297 2.43098 42.2821C2.43521 42.2821 2.43945 42.2821 2.44368 42.2821C2.38842 42.3219 2.33254 42.3643 2.27572 42.4124ZM2.32942 98.3099C2.63404 97.3365 3.11833 100.58 3.00273 101.628C2.86369 101.555 2.73765 101.544 2.57795 101.373C2.93799 100.526 2.27809 98.4718 2.32942 98.3099ZM39.5397 140.559C36.9762 140.55 40.3124 139.348 40.4499 140.307C40.4448 140.326 39.606 140.557 39.5397 140.559ZM2.4554 118.526C2.81954 119.179 2.91624 117.867 2.85332 119.965C2.759 120.088 2.66446 120.21 2.57014 120.332C2.53206 119.73 2.49347 119.128 2.4554 118.526ZM22.7461 138.98C19.5196 139.183 16.4338 139.54 18.5354 140.545C18.7796 140.512 19.0272 140.481 19.2714 140.449C19.308 139.959 20.2091 140.226 21.5281 140.242C21.7161 140.048 22.4476 140.003 22.5849 139.838C22.8503 139.518 22.0098 139.293 22.7461 138.98ZM87.7771 64.7455C87.8607 64.7974 87.9447 64.8482 88.0275 64.9002C88.1219 65.4105 88.2159 65.9221 88.3102 66.4324C88.1498 66.3499 87.9893 66.2673 87.8288 66.1849C87.8114 65.7054 87.794 65.2282 87.7766 64.7488C87.7767 64.7477 87.7769 64.7466 87.7771 64.7455ZM3.51394 71.483C2.59352 71.1899 2.76304 72.2141 3.22831 74.2917C3.32352 73.3567 3.41873 72.4179 3.51394 71.483ZM74.5925 139.353C74.6597 139.614 74.7258 139.875 74.796 140.136C75.8991 139.864 75.6943 139.565 75.1657 139.218C74.9733 139.263 74.7848 139.308 74.5925 139.353ZM86.7667 132.932C86.5773 133.313 86.8451 133.181 86.827 133.222C86.3167 134.192 86.194 134.275 85.5841 135.461C85.5339 135.625 85.4824 135.789 85.4232 135.954C86.2392 135.784 86.3171 135.258 87.1973 134.148C86.9221 134.301 86.6439 134.437 86.3641 134.555C86.7515 133.928 87.0662 133.255 87.3009 132.547C87.2683 132.446 87.2347 132.347 87.1988 132.249C87.0649 132.485 86.9109 132.715 86.7667 132.932ZM88.0148 58.8448C88.0364 58.0931 88.0587 57.338 88.0803 56.5864C87.9453 56.5589 87.8095 56.5325 87.6745 56.505C87.7879 57.284 87.9014 58.0658 88.0148 58.8448ZM3.09452 56.0505C3.04665 55.9909 2.99849 55.9328 2.94951 55.8812C3.00921 55.8862 3.05581 55.9513 3.09452 56.0505ZM85.3735 6.85694C85.8321 7.53568 86.5038 8.50149 86.8191 9.34291C87.158 9.12864 85.9683 7.10822 85.5043 6.39814C85.3687 6.33837 85.1819 6.5686 85.3735 6.85694ZM3.26407 131.808C3.46836 131.985 3.67711 132.152 3.88905 132.301C3.98985 132.776 4.1273 133.246 4.30301 133.704C4.43586 133.663 4.56951 133.621 4.70192 133.579C3.81043 131.698 4.41712 131.984 4.63566 130.993C4.16813 131.235 3.70974 131.504 3.26407 131.808ZM87.1379 34.9292C87.2315 36.5821 87.4062 37.1684 87.821 36.2366C87.7258 35.6532 87.6306 35.0664 87.5354 34.483C87.4029 34.6327 87.2704 34.7825 87.1379 34.9292ZM3.40701 25.946C3.25202 24.5627 3.80868 24.5397 3.49782 23.1877C3.39518 23.9117 3.2914 24.6356 3.18876 25.3565C3.26133 25.5513 3.33443 25.7512 3.40701 25.946ZM4.93574 93.7883C5.12939 93.2047 4.20887 92.1138 4.88838 90.4732C4.68558 90.0822 4.49186 89.8372 4.29319 89.5011C4.50929 89.3056 4.72814 89.0834 4.94258 88.897C4.94258 88.8959 4.94258 88.8949 4.94258 88.8938C4.86972 87.4057 4.5987 88.3705 4.36936 88.3369C4.27429 88.3211 4.43322 87.2167 4.2263 87.5619C3.87112 88.1577 4.07536 90.384 3.64235 90.3901C3.78387 89.6079 3.66561 88.0805 3.37674 88.5323C3.05966 89.0273 3.59104 90.4667 3.32791 91.3833C4.01998 90.0698 3.80621 92.7828 3.27469 93.0914C3.68286 94.6832 3.84936 93.2201 3.83033 91.5885C4.23766 92.5846 4.01759 91.1184 4.35618 90.877C4.56057 91.9041 4.39019 95.4289 4.93574 93.7883ZM36.1839 138.815C35.0837 138.841 33.3648 138.608 32.6116 138.952C32.1728 139.152 33.8958 139.307 32.7076 139.622C33.7796 139.591 34.0242 139.468 33.8409 139.193C34.0852 139.16 34.3326 139.127 34.5769 139.095C34.6898 139.149 34.8058 139.202 34.9188 139.256C35.0471 139.142 35.1762 139.03 35.3014 138.916C35.5609 138.939 35.8235 138.961 36.083 138.984C36.1135 138.927 36.1655 138.877 36.1839 138.815ZM24.0631 3.38992C23.7577 3.39323 23.4551 3.39652 23.1497 3.40066C23.1833 3.4678 23.2234 3.53771 23.262 3.6067C23.2897 3.66123 23.3174 3.71575 23.3451 3.77027C23.168 3.57548 21.7128 3.25171 21.0997 3.45974C20.7915 3.5641 21.4929 3.93459 20.1863 3.99926C21.1332 3.98021 22.0104 3.92965 22.9299 3.89819C22.8474 4.00831 22.7681 4.1196 22.6856 4.22972C22.6862 4.22988 22.6867 4.23005 22.6873 4.23021C22.9927 4.25504 23.3018 4.28106 23.6072 4.30589C23.76 4.00038 23.9104 3.69543 24.0631 3.38992ZM73.697 138.836C72.6551 139.052 72.3062 139.164 72.7982 139.513C72.7993 139.514 72.8004 139.514 72.8014 139.514C73.1894 139.359 73.5777 139.204 73.9656 139.05C73.877 138.978 73.7886 138.907 73.697 138.836ZM4.24779 47.0757C2.92064 44.8605 3.7342 49.8491 4.18627 48.8993C4.20696 48.8565 4.10124 47.2834 4.24779 47.0757ZM3.53737 128.364C3.54701 128.908 3.5558 129.453 3.56526 130C3.56637 130.061 3.56807 130.122 3.57035 130.182C3.6431 130.121 3.71631 130.06 3.79009 130C3.87914 129.922 3.96817 129.844 4.05737 129.768C3.88433 129.3 3.71041 128.831 3.53737 128.364ZM86.5354 42.126C86.1711 42.766 86.0391 44.4087 86.4353 45.2115C86.4817 44.7898 86.5281 44.368 86.5745 43.9463C86.62 44.7435 86.6701 45.5317 86.7132 46.335C87.2207 46.3778 86.9262 45.452 87.0662 44.0587C87.0887 43.843 87.7187 42.4638 87.2439 41.9876C87.1463 41.8918 87.0799 43.3589 86.7962 42.3393C86.7738 42.7851 86.7788 43.17 86.7664 43.5914C86.6455 43.6219 86.5245 43.6522 86.4036 43.6858C86.4474 43.1647 86.4917 42.6471 86.5354 42.126ZM29.7784 138.854C28.2672 138.826 28.0806 139.029 27.7659 139.387C28.4687 139.347 29.1717 139.307 29.8745 139.266C29.841 139.129 29.8119 138.992 29.7784 138.854ZM86.4192 55.6339C86.3606 56.4612 86.6523 56.1068 86.7078 56.4398C86.9164 57.6986 86.7079 58.5572 86.8386 59.8005C86.7823 59.718 86.7297 59.6423 86.6751 59.5628C86.6751 59.5639 86.6751 59.565 86.6751 59.5661C86.4292 65.4537 87.0908 62.3612 86.9832 58.8382C87.0916 58.7557 87.2002 58.6765 87.3079 58.594C87.1183 57.0175 86.9358 55.5636 86.4192 55.6339ZM4.29319 66.7562C4.36108 66.689 4.79252 67.2603 4.59054 66.1879C3.96062 65.3387 4.27328 66.7315 4.031 67.0802C3.97056 66.7899 3.91176 66.4931 3.85132 66.2059C3.67331 67.9414 3.82309 68.1947 4.28343 67.5622C4.31437 67.517 4.22552 66.8236 4.29319 66.7562ZM4.60373 55.3504C3.6756 55.112 4.09296 57.3023 4.38108 57.2228C4.39257 56.9205 4.23542 56.6855 4.30491 56.3648C4.37445 56.0409 4.59124 55.9581 4.60373 55.3504ZM4.37669 118.101C4.38083 118.037 4.7709 117.392 4.46555 117.456C3.74276 118.254 4.208 119.861 4.45969 119.58C4.44724 119.048 4.33878 118.694 4.37766 118.101C4.37734 118.101 4.37701 118.101 4.37669 118.101ZM86.3167 32.1579C86.2908 32.1884 86.134 33.7967 86.2796 34.0043C86.4435 34.1753 86.6191 34.2603 86.7888 34.3886C86.6315 33.5025 86.7514 31.7089 86.3167 32.1611C86.3167 32.16 86.3167 32.159 86.3167 32.1579Z" fill="#000F55"/>
</svg>
