<svg width="453" height="419" viewBox="0 0 453 419" fill="none" xmlns="http://www.w3.org/2000/svg">
<path d="M154.234 0.773399C150.392 0.412633 163.22 0.649123 154.701 0.110346C156.478 0.0739442 158.265 0.0364013 160.041 -7.78881e-09C160.492 0.199534 160.953 0.398581 161.404 0.598115C159.018 0.656872 156.632 0.715619 154.234 0.774376C154.234 0.77405 154.234 0.773725 154.234 0.773399ZM150.977 3.2723C153.163 2.70318 160.109 2.55145 152.606 2.02627C152.009 2.22158 151.398 2.41686 150.802 2.61218C148.197 2.46069 145.576 2.30924 142.971 2.15858C142.034 2.23305 141.098 2.30759 140.161 2.38123C138.968 2.04182 137.786 1.7015 136.593 1.36126C137.652 1.41094 138.726 1.46148 139.785 1.51116C143.973 1.23554 147.699 1.16016 153.384 1.10883C152.885 1.02852 152.385 0.948919 151.886 0.868609C154.771 1.00521 157.655 1.14215 160.528 1.27875C158.032 1.41283 155.243 1.56195 152.93 1.68693C156.631 2.2191 163.158 1.92292 166.555 1.81192C171.182 1.66042 170.136 1.91346 173.569 1.80753C174.117 1.79097 174.179 1.59263 175.262 1.58928C180.729 1.57355 191.347 1.67868 185.137 2.1415C176.14 2.08188 168.466 2.45354 159.639 2.31776C161.974 2.8529 157.324 3.03501 150.977 3.2723ZM316.269 1.56828C313.543 1.82819 307.99 1.7233 304.227 1.54289C304.223 1.54289 304.219 1.54289 304.214 1.54289C303.386 1.50315 301.512 1.15774 304.214 1.17182C308.621 1.19594 310.751 1.73966 313.064 1.37054C314.099 1.43925 315.186 1.50039 316.269 1.56828ZM325.846 1.53606C328.549 1.66935 327.323 2.07905 323.938 1.96816C323.938 1.96849 323.938 1.96882 323.938 1.96914C322.526 1.92278 325.299 1.59895 320.234 1.92764C319.199 1.67192 318.181 1.43927 317.158 1.19184C318.399 1.1877 319.53 1.18099 320.831 1.17768C319.955 1.598 323.144 1.40381 325.846 1.53606ZM189.705 1.91006C190.13 1.53193 188.35 1.53431 185.319 1.27191C188.18 1.28433 191.041 1.29758 193.89 1.30999C192.49 1.51027 191.104 1.70979 189.705 1.91006ZM122.494 1.85147C122.49 1.85147 122.485 1.85147 122.481 1.85147C121.544 1.91108 120.604 1.9709 119.678 2.02968C119.118 1.89473 118.564 1.76036 118.004 1.62541C114.693 1.75208 111.363 1.87875 108.052 2.00625C108.454 1.59401 114.398 1.66109 117.673 1.37298C122.543 1.49718 124.89 1.73646 125.206 2.08583C124.306 2.00804 123.407 1.92926 122.494 1.85147ZM384.476 416.505C383.368 416.619 382.274 416.734 381.167 416.848C382.639 416.9 384.1 416.94 385.585 417C389.469 416.503 389.834 416.943 394.922 416.912C410.518 416.818 406.38 416.046 420.466 417.176C409.157 417.123 413.503 417.654 406.685 418.063C405.272 417.751 412.028 417.049 407.45 416.903C399.562 417.233 391.976 417.54 383.223 417.753C383.479 417.806 383.733 417.86 383.989 417.914C385.377 417.88 386.754 417.846 388.142 417.812C386.644 417.956 385.18 418.099 383.658 418.245C385.582 417.918 380.679 418.1 381.335 417.725C381.628 417.557 383.794 417.325 385.073 417.166C381.774 417.079 378.39 416.999 375.055 416.915C376.783 416.781 378.51 416.648 380.226 416.515C381.637 416.511 383.038 416.508 384.45 416.504C384.458 416.504 384.467 416.505 384.476 416.505ZM0.756261 83.1463C1.14539 87.3347 1.20978 94.9458 0.776767 98.9515C0.770144 93.6796 0.762884 88.4182 0.756261 83.1463ZM125.524 2.37391C125.05 2.30775 124.59 2.24231 124.116 2.17616C126.21 2.05365 128.316 1.93199 130.41 1.80948C130.811 2.00065 131.222 2.19186 131.636 2.38221C129.603 2.37972 127.557 2.37639 125.524 2.37391ZM259.479 2.16103C257.947 2.17259 257.811 2.16633 255.904 2.13905C255.906 2.13922 255.908 2.13938 255.91 2.13954C255.154 2.12936 248.827 2.0177 249.532 1.87051C252.674 1.86803 256.024 1.87051 259.239 1.87051C259.336 1.96733 259.357 2.06338 259.479 2.16103ZM222.503 2.07509C222.498 2.07477 222.494 2.07444 222.49 2.07412C221.346 2.05176 220.263 2.00624 219.083 1.99795C223.331 1.7663 224.003 2.1819 227.862 2.06435C231.721 1.94596 234.105 1.71665 237.38 2.28602C236.162 2.3713 234.851 2.49329 233.597 2.59264C228.119 2.36499 226.644 2.57923 222.25 2.80357C222.335 2.5602 222.417 2.31847 222.503 2.07509ZM451.471 408.082C451.437 407.315 451.524 406.539 451.577 406C451.612 405.709 451.654 405.508 451.655 405.461C451.655 405.463 451.656 405.465 451.656 405.467C451.395 396.193 451.812 406.674 451.856 397.922C451.926 399.224 452 400.505 452.071 401.795C451.977 403.186 451.873 404.607 451.777 406C451.735 406.712 451.631 407.411 451.471 408.082ZM451.683 106.467C451.765 106.382 451.847 106.28 451.929 106.195C451.91 111.454 452.233 112.795 451.939 117.166C451.853 113.599 451.768 110.034 451.682 106.467C451.683 106.467 451.683 106.467 451.683 106.467ZM285.989 2.75719C280.157 2.91367 275.843 2.98262 270.242 2.73424C270.238 2.73391 270.234 2.73359 270.229 2.73326C269.907 2.71797 271.468 2.54649 271.047 2.50329C269.891 2.52894 268.698 2.56837 267.53 2.59899C267.372 2.46167 267.221 2.32438 267.063 2.18788C270.35 2.22679 273.639 2.26567 276.938 2.30457C276.451 2.22427 275.952 2.14466 275.465 2.06435C278.265 2.02296 281.055 1.98172 283.855 1.94033C282.881 2.16545 281.909 2.39062 280.948 2.61657C282.627 2.66374 284.31 2.70919 285.989 2.75719ZM450.786 194.031C450.876 193.106 451.026 194.819 451.103 193.382C451.179 191.945 451.012 189.297 451.264 189.918C451.298 191.852 451.337 193.884 451.373 195.854C451.828 189.511 451.416 183.183 451.978 183.086C451.832 189.173 451.9 194.179 452.056 200.072C451.61 199.828 451.224 193.934 450.805 197.645C450.799 196.453 450.791 195.2 450.787 194.044C450.787 194.04 450.787 194.036 450.786 194.031ZM40.3216 7.96933C36.7176 7.93539 28.4603 8.11749 23.9066 7.85752C22.7862 7.79345 19.054 6.96355 19.0729 6.85415C19.1825 6.48573 23.7406 6.43558 18.8588 6.19549C20.5011 6.193 22.0948 6.17917 23.7249 6.17255C23.4327 5.92499 23.142 5.6781 22.862 5.43137C20.8775 5.46863 18.8904 5.50607 16.9059 5.54416C16.8084 5.46219 16.7113 5.38004 16.6139 5.29808C23.7487 5.29642 19.537 4.98006 23.2383 4.68531C19.83 4.53632 16.3961 4.38804 13 4.23905C14.9599 4.25726 17.2727 4.27075 19.0016 4.29227C19.2328 3.87254 15.1082 3.97261 14.4014 3.89483C10.4204 3.45522 30.689 3.6771 32.3477 3.06625C29.1098 2.99838 25.7123 2.93214 22.4013 2.86509C23.351 2.78975 24.313 2.71437 25.2626 2.63903C32.774 3.06034 41.1972 3.20959 49.9501 3.472C50.7409 3.45462 51.5331 3.43679 52.3117 3.42024C52.0805 3.23072 51.8618 3.04192 51.6305 2.8524C52.8237 2.83004 54.0318 2.80786 55.2249 2.78551C51.7069 3.40971 56.5787 3.4012 62.4592 3.78204C59.3307 4.0014 55.4712 3.86841 55.7375 4.27713C66.475 3.96267 79.05 4.40708 89.4954 4.05204C92.0883 3.9643 92.08 3.43704 98.1765 3.48567C97.9696 3.54362 97.9342 3.64825 97.8002 3.72442C108.344 3.4719 114.741 3.32095 125.699 3.57844C125.067 3.38893 124.444 3.19863 123.811 3.00913C121.486 3.10351 119.156 3.1994 116.843 3.29378C115.261 2.98085 117.599 2.84274 110.66 2.84605C104.974 2.84853 108.359 2.98671 106.812 3.07944C104.718 3.20603 102.881 2.95699 100.629 3.09848C98.8879 3.20694 100.772 3.46514 96.2301 3.39973C98.0564 3.06525 99.9195 2.71986 101.758 2.38123C102.866 2.45657 103.965 2.53308 105.073 2.60925C103.953 2.69866 102.852 2.7869 101.732 2.87632C105.677 2.71571 109.404 2.56423 113.482 2.39783C112.155 2.88135 116.371 2.70006 118.66 2.64294C122.225 2.55361 119.171 2.88638 121.508 2.83091C123.846 2.77459 126.367 2.40282 130.591 2.4823C128.327 2.69753 131.407 2.89053 130.812 3.0892C130.216 3.28786 125.747 3.33185 130.04 3.54865C138.295 3.3839 129.337 2.62733 134.912 2.50476C141.608 2.3574 143.202 3.59066 141.206 3.85577C139.635 4.06441 134.231 4.02245 132.648 4.23026C142.327 4.60529 142.411 3.86492 144.067 3.72003C150.082 3.19268 146.042 4.60021 153.164 4.09111C153.03 4.35432 152.921 4.59106 152.787 4.84351C154.016 4.7955 154.832 4.73168 156.317 4.69361C151.938 4.18076 155.522 4.20274 157.362 4.20194C160.259 4.20028 155.783 3.95013 156.55 3.88555C158.62 3.71274 161.894 3.79121 159.885 3.56525C160.786 3.6704 161.763 3.77586 162.688 3.88018C166.074 3.74916 174.03 2.65055 166.458 2.87242C167.164 2.46424 169.614 2.66043 171.525 2.72252C173.436 2.78456 173.401 2.52461 175.081 2.57263C181.764 2.76472 177.392 3.20938 176.333 3.55793C185.159 3.31784 176.518 3.159 189.238 2.99839C190.468 2.71441 184.59 2.41138 189.484 2.24745C190.386 2.7408 193.989 3.0952 201.014 3.25912C201.696 3.14569 202.376 3.03125 203.058 2.91782C206.893 3.37319 204.933 3.84671 212.031 3.28206C208.22 4.3211 210.84 3.65638 217.195 4.07939C218.486 4.16467 215.504 4.38024 217.306 4.48952C218.122 4.53881 220.105 4.37609 222.1 4.50173C223.074 4.56382 227.628 4.96446 230.782 4.77418C228.468 4.27079 234.46 3.84255 229.322 3.4261C238.818 3.52876 245.465 3.28707 234.824 3.97344C237.234 4.12578 239.647 4.27747 242.058 4.42898C243.738 4.30893 245.433 4.18982 247.125 4.0706C247.381 4.48432 247.124 4.60038 253.743 4.52761C250.871 4.62526 248.011 4.72453 245.127 4.823C245.029 4.90655 244.628 4.99338 244.725 5.07446C248.257 4.91555 258.204 4.84716 260.614 4.73707C263.025 4.62695 258.369 4.59682 259.063 4.49001C264.845 3.60929 264.387 4.25886 268.536 4.10771C270.971 4.01829 265.157 3.92119 266.46 3.88311C271.29 3.74352 273.531 4.21159 277.814 4.21756C276.293 3.95188 274.783 3.68206 273.298 3.41389C277.791 3.42797 282.799 3.43033 286.975 3.34505C288.615 3.31176 287.376 3.11416 287.644 3.10092C288.972 3.03303 294.377 2.92549 294.949 2.92466C299.257 2.92308 299.38 3.19677 303.566 3.21175C301.923 3.23493 300.377 3.25581 298.771 3.27816C298.04 3.72188 297.295 4.16557 296.565 4.61012C300.667 4.64241 304.771 4.67403 308.886 4.70631C305.879 4.55813 302.861 4.41066 299.854 4.26248C304.554 3.904 309.254 3.5447 313.953 3.18539C316.4 3.40561 318.838 3.62578 321.285 3.846C327.931 3.78791 326.592 2.89396 329.745 3.67706C331.705 3.61086 333.664 3.5447 335.624 3.47932C335.344 3.59105 335.067 3.70302 334.787 3.81475C337.149 3.74603 339.51 3.67777 341.872 3.60822C339.388 3.21251 336.954 2.7961 334.495 2.41199C339.143 2.326 339.232 2.66169 339.925 2.74547C341.764 2.96736 345.413 2.66806 346.874 2.87339C347.368 2.94388 342.813 3.16488 344.383 3.41975C344.689 3.46916 350.788 4.40607 354.679 4.18973C354.606 4.02001 354.306 3.81189 354.147 3.62726C359.381 3.52417 362.05 4.41013 361.356 4.65846C364.144 4.48461 368.219 4.47008 368.791 4.19852C370.216 4.1919 371.629 4.18562 373.054 4.17899C371.57 4.84036 377.511 4.71943 377.9 4.15067C375.453 4.1366 373.003 4.12178 370.556 4.10771C372.407 3.41059 364.97 2.98981 380.444 3.63556C383.402 3.9982 375.185 3.58615 377.596 3.85772C381.783 4.01578 385.715 3.88353 389.696 4.13603C394.65 4.45145 388.555 4.75483 400.096 4.3533C374.638 3.34737 403.588 3.67376 415.545 3.36165C418.604 4.28635 427.563 4.62301 440 4.42691C440.888 4.41216 441.796 4.51638 442.693 4.75587C442.191 4.49273 441.189 4.21643 440 4.20188C438.185 4.17436 436.003 4.20386 434.49 4.14921C431.97 4.05815 434.697 3.8941 431.558 3.76495C428.417 3.63583 421.747 3.46029 418.568 3.26497C421.261 3.10848 434.551 2.73848 425.764 3.18295C431.279 3.4133 434.335 3.649 440 3.74876C441.1 3.76813 442.296 3.9532 443.535 4.41847C444.77 4.67213 445.398 4.80834 446.546 5.50585C447.571 6.24707 449.686 7.56603 450.708 11.8368C449.262 8.42252 450.315 12.4737 449.76 14C449.612 14.6019 449.457 14.8863 449.287 14.3417C449.29 14.2239 449.294 14.1102 449.297 14C449.293 11.6009 449.056 11.067 449.197 10.7142C449.262 10.3717 449.542 10.2071 448.861 8.70385C448.79 8.55159 448.011 7.31102 446.819 6.3171C445.652 5.29144 444.118 4.62154 443.535 4.41847C445.98 5.6402 446.989 7.19653 447.283 7.81267C447.55 8.48482 447.206 8.24128 445.947 7.47965C448.441 9.75777 448.549 12.0806 448.944 12.2696C448.946 12.8602 448.89 13.4433 448.78 14C448.756 14.1403 448.732 14.2802 448.708 14.4196C448.711 15.636 448.723 16.7311 448.721 18.0205C449.184 16.2446 448.899 19.6871 449.109 22.134C449.319 24.5813 449.685 21.2979 449.69 28.0188C449.799 25.7784 449.892 23.7303 449.994 21.563C450.114 25.8969 450.234 30.2444 450.353 34.5783C450.636 31.5345 451.056 24.9381 451.429 25.1186C451.288 27.1147 451.535 33.9532 451.546 34.7016C451.584 37.5994 451.349 36.02 451.343 36.2392C451.229 40.7917 451.309 44.5414 450.953 46.27C451.113 49.6908 451.022 52.2708 451.031 55.8984C451.036 57.895 451.297 57.5068 451.248 58.6753C450.917 66.4427 450.579 59.0426 451.222 74.0263C451.404 72.2124 451.59 70.4225 451.774 68.6087C451.843 70.301 451.912 71.9835 451.981 73.6759C451.947 74.8082 451.914 75.9304 451.881 77.0628C451.486 77.0384 451.09 77.0092 450.695 76.9849C450.674 78.2268 450.653 79.4736 450.632 80.7156C450.593 78.5848 450.554 76.449 450.515 74.3182C450.445 74.1237 450.376 73.9419 450.306 73.7473C450.199 76.9129 450.09 80.0674 449.982 83.233C450.119 83.2939 450.257 83.3538 450.395 83.4146C450.203 90.5493 450.087 90.7192 450.466 97.5004C450.461 102.724 451.036 106.977 451.277 109.997C451.2 111.08 451.123 112.165 451.046 113.26C451.16 113.954 451.274 114.655 451.388 115.349C451.229 116.725 451.07 118.12 450.912 119.495C451.273 120.262 451.385 120.659 451.512 115.291C451.961 117.13 451.763 126.58 451.612 130.428C451.498 133.347 451.123 130.108 451.078 130.473C450.923 131.692 451.057 136.503 451.031 137.513C450.924 141.786 450.943 144.781 450.86 148.64C450.843 149.391 450.606 151.492 450.599 151.67C450.558 153.058 450.443 156.484 450.44 156.874C450.263 176.971 451.292 155.496 451.183 174.184C451.319 173.624 451.454 173.11 451.589 172.562C451.598 173.973 451.606 175.4 451.614 176.812C451.5 178.601 451.294 176.436 451.461 179.991C451.293 179.76 451.126 179.527 450.96 179.284C451.05 180.83 451.139 182.32 451.23 183.903C450.649 186.387 450.517 195.454 449.836 194.81C449.604 194.591 449.366 188.162 449.119 191.559C449.07 194.319 449.347 192.451 449.362 193.577C449.463 201.71 449.074 201.238 449.178 204.562C449.344 205.085 449.514 205.635 449.682 206.171C449.633 207.424 449.584 208.681 449.535 209.947C449.647 210.239 449.759 210.543 449.871 210.836C449.878 209.655 449.886 208.325 449.893 207.241C450.326 208.752 450.521 222.628 450.152 217.337C450.002 215.182 450.065 211.235 449.554 213.729C449.628 217.443 449.703 221.656 449.777 225.564C449.666 225.685 449.556 225.799 449.446 225.921C449.517 231.188 449.958 226.397 450.194 226.407C450.2 227.612 450.206 228.829 450.213 230.034C450.106 230.545 449.994 231.03 449.891 231.565C450.061 231.614 450.455 232.289 450.309 235.88C450.213 238.189 449.785 234.553 449.844 238.955C450.109 238.626 450.432 237.036 450.517 241.94C450.241 242.427 449.988 243.1 449.697 243.477C449.963 249.576 449.536 252.351 449.844 259.51C450.04 264.051 450.733 270.272 449.665 273.206C449.637 276.528 449.903 275.474 449.963 276.457C450.246 281.096 449.739 284.546 449.709 285.41C449.518 290.924 449.694 293.395 449.454 297.887C449.652 297.644 449.84 297.511 450.032 297.316C449.736 293.201 449.75 291.117 449.814 285.346C449.853 287.281 449.894 289.217 449.934 291.152C450.094 290.836 450.255 290.522 450.415 290.218C449.782 272.369 450.782 276.533 451 291.496C450.703 292.787 450.407 294.124 450.109 295.402C450.559 304.046 450.168 308.114 450.074 317.89C450.064 319.052 450.235 323.286 450.243 325.105C450.244 325.075 450.246 325.044 450.247 325.014C450.527 326.146 450.657 324.613 450.907 324.43C450.939 325.416 450.97 326.403 451.002 327.389C450.81 329.591 450.653 328.817 450.699 333.15C450.889 332.566 451.08 331.989 451.27 331.405C451.277 336.153 451.07 339.261 451.159 343.681C451.087 342.938 451.015 342.204 450.943 341.462C450.759 351.08 449.64 343.426 450.197 350.694C450.099 351.157 450.001 351.607 449.903 352.07C449.879 349.075 449.856 346.079 449.832 343.097C449.694 343.036 449.556 342.97 449.418 342.921C449.459 346.124 449.502 349.341 449.543 352.543C449.45 350.206 449.358 347.854 449.265 345.517C449.199 349.23 449.132 352.944 449.066 356.657C449.574 352.714 449.637 357.826 450.14 356.865C449.721 363.439 449.169 368.604 449.522 378.794C449.593 380.815 449.944 379.717 449.516 385.451C450.076 384.064 450.339 391.247 450.871 390.324C450.845 388.328 450.829 386.258 450.798 384.322C450.613 386.526 450.105 386.891 449.954 383.544C449.762 379.27 450.114 373.038 449.551 373.293C449.577 371.589 449.593 370.004 449.615 368.349C449.755 369.03 449.896 369.697 450.035 370.366C449.816 365.657 449.887 362.697 450.24 360.433C450.321 366.045 450.401 371.645 450.482 377.257C450.506 376.43 450.53 375.592 450.553 374.765C450.913 379.015 451.254 374.631 451.331 382.558C451.166 382.509 451.002 382.47 450.836 382.421C451.277 385.307 451.274 393.208 451.781 390.687C451.625 393.073 451.527 393.56 451.8 394.911C451.415 401.206 450.928 405.249 450.347 403.008C450.387 404.006 450.427 405.003 450.467 406C450.522 407.4 450.293 408.823 449.787 410.148C450.488 408.903 450.943 407.48 451.098 406C451.1 405.985 451.102 405.969 451.104 405.954C451.104 405.969 451.104 405.985 451.104 406C451.16 410.533 448.083 414.892 443.837 416.392C443.558 416.251 445.58 415.495 446.949 414.235C448.347 413.016 449.129 411.641 448.23 412.54C447.909 412.916 446.337 414.617 445.75 414.86C444.324 415.601 443.738 415.642 443.741 415.616C443.737 415.569 444.278 415.355 444.902 415.001C446.186 414.33 447.566 412.896 446.777 413.387C444.31 415.437 442.948 415.376 442.291 415.502C441.584 415.548 441.322 415.553 440 415.578C438.834 415.575 436.873 415.632 433.176 415.797C432.847 415.661 432.494 415.523 432.19 415.388C427.87 415.38 428.22 415.686 424.508 415.744C422.182 415.78 419.264 415.242 416.696 415.609C416.238 415.676 420.558 416.334 411.479 416.305C404.434 416.283 407.366 415.818 403.557 415.653C399.746 415.488 391.028 416.133 388.459 415.402C390.456 415.499 392.998 415.551 395.214 415.631C396.114 415.488 396.992 415.347 397.88 415.206C392.815 415.39 387.58 415.173 384.171 415.512C377.413 414.993 369.856 415.475 371.902 416.061C374.126 415.977 371.706 415.721 374.795 415.884C375.112 416.021 375.446 416.157 375.762 416.293C370.502 416.277 366.849 416.28 369.248 415.864C368.432 415.854 367.624 415.844 366.808 415.834C366.662 416.136 366.533 416.438 366.387 416.739C365.413 416.773 364.435 416.807 363.461 416.841C362.378 416.775 361.292 416.708 360.197 416.641C361.67 416.164 364.18 416.148 355.876 415.882C355.852 416.046 355.816 416.21 355.792 416.375C348.84 416.166 348.656 415.767 339.928 415.781C346.624 415.209 350.288 416.223 350.264 415.076C351.944 415.151 353.638 415.228 355.318 415.303C355.574 415.137 355.827 414.97 356.071 414.803C347.049 414.891 332.064 415.986 326.024 415.26C325.294 415.349 324.56 415.426 323.818 415.521C317.901 415.083 315.345 416.066 309.343 415.5C308.724 415.44 310.02 414.516 302.206 414.55C302.401 414.67 302.502 414.872 302.66 415.023C300.968 414.95 299.285 414.872 297.606 414.797C297.302 414.908 296.982 415.019 296.678 415.131C299.564 415.174 302.441 415.217 305.327 415.26C302.929 415.299 300.516 415.337 298.118 415.375C301.246 415.556 302.658 415.558 300.772 415.848C298.057 415.866 295.338 415.884 292.623 415.902C292.343 415.976 292.066 416.051 291.786 416.126C293.101 416.348 294.429 416.565 295.744 416.79C288.67 416.608 282.52 416.599 277.09 416.162C276.165 416.089 279.437 415.8 273.132 416.06C273.035 415.907 272.866 415.783 272.756 415.641C265.037 416.07 262.501 415.942 254.453 415.633C259.664 415.921 255.015 415.734 253.687 415.888C252.778 415.995 256.327 415.979 255.926 416.091C255.524 416.202 250.912 416.65 254.855 416.704C264.523 415.786 267.156 416.883 279.575 416.442C277.664 416.56 275.738 416.679 273.827 416.798C274.727 416.878 275.533 416.951 276.506 417.036C269.58 416.856 272.949 416.973 270.102 417.114C267.253 417.256 262.075 417.376 258.605 417.415C257.512 417.427 258.665 417.221 256.198 417.202C254.518 417.189 249.927 417.494 248.867 417.134C248.173 416.9 255.549 416.255 245.35 416.257C243.43 416.027 248.32 416.098 248.426 416.071C249.314 415.797 243.044 415.592 240.147 415.801C239.912 415.818 242.2 416.031 239.712 416.115C233.807 416.314 230.397 416.07 226.573 415.74C226.159 416.127 221.19 416.59 215.005 416.447C214.689 416.558 214.387 416.67 214.071 416.781C215.031 416.723 215.991 416.665 216.951 416.606C217.999 416.676 219.108 416.726 220.131 416.808C213.911 416.904 213.031 417.438 210.048 417.633C199.841 418.3 206.027 416.889 207.868 416.645C209.195 416.744 210.478 416.854 211.793 416.957C211.647 416.822 211.499 416.686 211.365 416.55C196.086 416.555 209.038 415.674 201.283 415.424C199.286 416.088 193.59 416.152 186.334 415.73C185.53 415.734 184.724 415.734 183.92 415.738C183.787 415.835 183.789 415.983 183.57 416.047C174.828 416.16 173.271 415.137 172.443 415.04C168.766 414.611 165.903 415.205 164.819 415.21C160.254 415.231 158.927 414.967 154.581 415.08C149.907 415.203 153.103 415.405 151.681 415.587C150.54 415.731 146.852 415.756 145.329 415.905C145.934 415.783 146.607 415.664 147.21 415.541C142.366 415.375 138.406 415.213 132.904 415.172C126.695 416.065 121.412 414.559 123.554 415.78C128.766 415.864 131.679 416.003 134.468 416.315C131.047 416.354 127.624 416.393 124.203 416.433C123.205 416.299 122.497 416.168 121.316 416.031C118.76 416.316 112.833 416.194 110.507 416.278C99.6099 416.669 102.981 417.155 93.0342 416.339C100.203 416.259 100.192 415.863 107.302 415.917C105.768 415.634 102.155 415.693 104.492 415.353C97.614 415.437 99.8376 415.74 97.1606 416.009C94.8517 416.241 90.2023 416.254 90.4649 416.555C89.9895 416.39 89.6218 416.229 89.1478 416.064C84.6926 416.065 80.2374 416.065 75.7822 416.067C77.6812 415.894 79.5797 415.721 81.4788 415.549C80.0434 415.483 78.606 415.418 77.1706 415.353C66.2129 415.891 47.317 414.905 50.3356 416.257C45.0519 416.3 44.391 416.13 41.5182 415.874C41.2017 415.977 40.8939 416.062 40.5774 416.176C37.1692 416.069 34.5527 416.454 31.5459 416.354C28.5393 416.255 27.7928 415.891 27.3546 416.503C25.4068 416.327 23.4703 416.181 21.5347 416.018C20.3667 416.157 19.1998 416.295 18.0441 416.433C16.3641 416.366 14.6806 416.299 13 416.232C12.8496 416.226 12.7003 416.217 12.552 416.205C12.0688 416.338 9.85579 416.24 7.74501 415.013C5.59735 413.853 3.92016 411.592 3.23456 410.069C2.7557 408.341 3.03104 407.505 3.2655 406C3.48209 404.787 3.62954 403.061 3.55153 399.957C3.3057 400.139 3.06058 400.319 2.81475 400.502C2.86607 398.883 2.91723 397.26 2.96855 395.629C3.04879 395.532 3.12903 395.447 3.20926 395.35C3.18443 396.178 3.15973 396.994 3.13407 397.822C3.26985 397.104 3.40501 396.4 3.54079 395.694C3.33964 393.223 3.13846 390.748 2.9373 388.265C2.785 391.612 2.6326 394.961 2.4803 398.309C2.29981 394.108 2.47984 391.184 2.27865 387.532C2.61804 384.354 2.81361 385.528 3.18192 386.818C3.15047 385.638 3.12011 384.443 3.08866 383.263C3.45703 384.041 3.67652 382.044 3.64674 388.946C3.75181 388.472 3.85198 387.988 3.96118 387.525C3.94462 386.393 4.03343 385.659 3.99292 384.417C3.88197 381.033 3.23496 378.438 3.0081 378.669C2.88927 378.794 3.11653 382.131 2.94853 381.997C2.53887 381.667 2.7228 374.011 2.31136 385.053C2.05056 381.389 2.24724 380.57 2.32259 376.528C2.18608 376.844 2.05043 377.151 1.91392 377.456C1.97682 375.581 2.03949 373.705 2.10239 371.83C2.80362 374.436 3.06699 360.617 3.68043 373.057C3.71189 369.381 3.74351 365.717 3.77662 362.053C3.84863 362.807 3.91992 363.562 3.99194 364.317C3.95386 365.973 3.9164 367.618 3.87915 369.274C4.01075 367.327 4.14158 365.376 4.27318 363.428C4.11007 358.826 3.85922 357.022 3.54958 354.916C3.32362 360.272 3.63227 358.522 3.69361 362.695C3.49752 362.549 3.31715 362.742 3.11112 362.377C3.5173 360.221 3.22181 353.186 3.20194 351.555C3.14161 346.59 3.5407 350.483 3.54909 347.162C3.55737 343.839 3.31983 339.918 3.71559 337.203C3.49377 337.252 3.26427 337.469 3.0623 337.664C2.98944 332.489 3.25149 333.522 3.28543 332.986C3.84344 324.439 3.37234 319.801 3.31522 310.024C3.24651 311.266 3.18448 312.52 3.11991 313.774C2.64895 306.399 2.79316 311.367 2.63751 317.771C2.68471 311.769 2.28362 308.331 2.16439 304.094C2.04537 299.858 2.25137 292.592 2.41194 289.937C2.67026 296.012 2.49991 302.565 2.57111 309.311C2.79708 308.544 2.98832 307.798 3.23661 307.007C2.76234 302.905 3.07945 300.527 3.14237 299.176C3.32691 295.208 2.91985 295.332 3.35769 292.934C3.20707 293.032 3.08043 293.103 2.93975 293.2C3.00267 285.007 3.26895 276.169 2.71271 270.836C3.07448 270.349 3.42302 269.981 3.79224 269.421C3.51992 265.952 3.79879 262.981 3.73512 260.059C3.67137 257.149 3.379 258.257 3.26639 254.836C3.24569 254.203 3.42869 252.884 3.29373 251.326C3.15806 249.752 2.14933 243.949 3.03056 243.255C3.03471 240.321 3.06693 237.544 3.08183 234.671C3.1315 237.471 3.17961 240.272 3.22928 243.06C3.44286 240.674 3.65581 238.303 3.86939 235.916C3.67896 235.612 3.48509 235.307 3.29715 235.015C3.06533 228.586 3.37668 223.921 3.30301 217.432C3.29059 216.348 2.9141 218.904 3.01005 214.097C3.10609 209.288 3.80879 205.719 3.53737 197.526C3.5233 197.112 2.98512 194.686 3.35769 191.752C3.44213 191.084 3.56708 193.894 3.67799 192.361C3.78893 190.827 3.88016 183.982 4.14428 183.447C4.05075 183.52 3.95383 183.947 3.85865 184.154C3.81395 182.985 3.76922 181.805 3.72535 180.624C3.89009 180.515 4.05507 180.397 4.21898 180.287C3.83566 173.566 3.21036 170.093 3.41726 160.135C3.17801 162.935 2.9378 165.736 2.69855 168.524C2.86662 169.291 3.03582 170.059 3.20389 170.814C3.13684 175.404 3.07027 180.006 3.00322 184.595C3.19447 185.35 3.38518 186.092 3.57643 186.847C3.5516 188.064 3.52754 189.269 3.50271 190.486C3.36445 190.182 3.22692 189.875 3.08866 189.559C3.1226 191.969 3.15726 194.382 3.1912 196.78C2.3751 191.898 3.26061 183.146 2.57795 183.778C2.68387 182.695 2.79052 181.61 2.89727 180.527C2.56625 180.052 2.66152 177.85 2.71368 173.968C2.55058 174.856 2.3897 175.838 2.22494 176.654C2.45508 172.879 2.43273 166.184 2.52131 162.276C2.56022 160.559 2.80021 162.274 2.82842 161.763C2.9758 159.146 2.55704 154.142 2.59015 153.095C2.78724 146.837 3.58115 142.771 3.0579 135.94C2.92875 142.99 2.9833 139.155 2.69269 141.663C2.60157 142.448 2.4115 151.555 2.49592 140.151C2.50648 138.814 3.05502 118.121 3.47536 124.924C3.34124 121.575 3.18615 118.954 3.04374 115.886C4.15153 108.385 3.11085 110.981 2.53791 113.161C2.53543 111.931 2.52961 110.761 2.52961 109.495C3.13152 112.186 3.1689 98.4769 2.86504 93.8258C2.76403 92.2675 2.57137 96.625 2.4803 93.0213C2.52251 91.3053 2.57716 89.3586 2.62433 87.5453C2.24351 90.175 2.09675 85.014 1.70934 85.0863C2.05456 81.7871 2.78629 79.2634 3.1829 81.0766C3.02231 78.3498 2.86192 75.6088 2.7005 72.8821C2.6086 74.1483 2.51751 75.4309 2.42561 76.6971C2.66903 67.7847 2.11514 56.325 2.929 54.4622C2.92321 53.2812 2.9182 52.0877 2.9124 50.9067C2.77497 50.5414 2.63726 50.1884 2.49983 49.8231C2.61902 44.4794 2.73901 39.1476 2.85821 33.8039C2.9435 38.562 3.13912 39.6947 2.98027 44.6845C3.13834 42.7616 3.29728 40.803 3.45535 38.9166C3.02979 31.4044 2.7501 30.3797 2.87676 19.0693C2.87979 18.8017 2.97897 16.3339 3.07781 14C3.13664 11.8626 4.08039 10.0643 4.14924 9.96236C4.85128 8.87375 4.22345 10.7208 4.53987 10.2399C4.89681 9.57314 6.51588 7.27692 8.74412 6.33531C10.9239 5.29685 13.1008 5.59012 12.9976 5.62033C12.5735 5.85386 10.9257 5.98357 9.07745 7.20475C7.24541 8.37065 5.36583 10.9208 5.47481 14C5.6857 24.9567 5.70346 38.4767 5.73453 43.7632C6.29253 138.731 5.546 231.607 5.6735 325.979C5.67547 326.949 5.82996 326.525 5.83657 326.939C5.87538 329.507 5.6346 332.03 5.62467 332.979C5.6042 335.008 5.82665 333.891 5.82681 335.373C5.82433 350.69 5.69352 365.144 5.7316 380.473C5.73408 381.471 5.5561 380.452 5.58756 382.205C5.60479 383.11 5.87785 385.943 5.88198 387.986C5.89437 394.267 5.82799 399.664 5.81477 406C5.81299 406.624 5.89105 407.254 6.05932 407.876C6.56134 410.432 9.77739 413.37 13 413.204C13.6268 413.205 14.2358 413.204 14.8194 413.204C16.8516 413.202 18.9689 413.077 20.9767 413.073C23.8258 413.067 23.2439 413.321 23.6823 413.336C25.6059 413.405 25.8722 413.127 27.6984 413.134C31.0953 413.147 31.2782 413.332 35.588 413.317C38.6684 413.305 45.7185 413.159 49.6024 413.116C58.6852 413.331 70.1306 413.245 78.6045 413.174C83.6204 413.132 84.0853 413.392 86.1308 413.391C93.3376 413.386 98.8069 413.054 105.576 413.043C114.559 413.029 122.52 413.249 131.223 413.264C132.635 413.267 132.311 413.029 133.695 413.023C138.821 413 145.376 412.957 149.942 412.991C155.03 413.028 156.907 413.374 161.887 413.304C163.346 413.283 163.774 412.98 166.221 412.941C170.128 412.88 174.413 413.147 177.14 413.177C180.878 413.216 177.627 412.908 182.668 412.949C182.875 412.951 183.629 413.172 184.712 413.161C187.865 413.131 187.552 412.957 192.167 412.974C192.61 412.976 198.728 413.187 199.336 413.187C202.916 413.191 210.122 413.264 212.241 413.22C219.814 413.061 213.852 412.729 220.293 413.449C223.129 413.273 225.942 413.094 228.948 412.923C226.942 413.083 235.085 413.313 235.657 413.298C240.39 413.178 237.571 412.898 243.572 412.944C235.646 413.592 251.316 413.028 254.81 413.011C271.636 412.931 286.93 413.092 303.841 413.088C309.502 413.087 317.089 412.95 323.078 412.953C324.474 412.953 323.419 413.106 324.648 413.11C325.874 413.112 324.514 412.94 325.914 412.949C334.619 413.009 341.439 413.333 349.414 412.928C349.802 412.986 349.79 413.033 350.432 413.097C356.959 412.734 369.526 413.222 374.25 413.289C381.639 413.394 383.526 413.148 388.894 413.198C395.992 413.264 406.649 413.744 401.89 412.952C406.759 412.927 411.447 412.92 416.365 412.994C416.912 413.002 416.535 413.203 416.754 413.207C418.142 413.236 418.594 413.056 419.531 413.048C422.073 413.025 417.925 413.241 421.549 413.181C423.461 413.149 424.546 412.991 429.854 412.988C433.208 412.986 436.591 412.985 440 412.985C443.676 413.083 447.077 409.757 446.988 406C446.998 381.633 447.034 356.452 447.054 332.32C447.055 330.067 446.86 331.55 446.873 328.725C446.916 318.912 447.244 301.347 447.199 292.885C447.154 284.423 446.87 286.332 446.75 281.037C446.727 280.015 446.889 280.853 446.892 279.928C446.907 273.706 447.16 266.289 447.198 261.249C447.224 257.915 446.968 258.182 446.95 255.87C446.924 252.424 447.182 248.878 447.19 247.039C447.226 238.396 447.018 232.454 447.124 224.383C447.068 224.699 447.016 224.907 446.961 225.174C446.97 215.618 446.979 206.073 446.988 196.516C446.937 196.967 446.885 197.402 446.833 197.853C446.861 186.64 447.417 187.919 446.243 188.906C446.201 188.09 446.153 187.226 446.115 186.447C446.72 186.763 447.163 179.98 447.317 171.349C447.329 170.716 446.739 166.468 447.436 166.93C447.265 165.822 447.148 165.162 446.998 164.225C447.209 162.399 447.418 160.548 447.628 158.723C447.596 157.737 447.566 156.737 447.535 155.751C447.398 155.605 447.256 155.717 447.122 155.401C447.101 150.823 447.27 141.435 447.253 137.818C447.209 128.832 446.84 119.684 447.239 112.696C447.198 109.291 446.93 112.672 446.964 107.609C447.099 107.037 447.23 106.499 447.369 105.903C446.763 101.765 447.132 100.9 447.259 95.2296C447.345 91.3947 447.196 88.8834 447.225 85.2313C447.233 84.306 447.411 84.4371 447.405 83.8039C447.387 81.6835 447.142 75.6337 447.135 74.1366C447.071 60.5743 447.098 48.9229 447.163 36.0057C447.17 34.6177 446.994 36.4172 447.002 34.9805C447.014 32.6692 447.283 34.0292 447.297 32.6902C447.332 28.9553 447.047 28.9269 447.033 23.7171C447.024 20.5562 447.024 17.308 447.029 14C447.147 10.3496 443.844 6.84716 440 6.90974C430.137 6.85831 420.128 6.79345 410.627 6.78335C410.067 6.78335 410.1 6.95015 409.491 6.9518C405.523 6.95996 401.506 6.7345 397.903 6.73697C391.925 6.74028 387.432 6.9746 381.527 6.97378C369.985 6.97295 359.673 6.85297 347.802 6.84634C338.086 6.84054 329.648 6.86279 318.994 6.86196C272.46 6.85865 224.975 7.38808 178.124 7.10658C176.931 7.09914 177.417 6.95177 177.053 6.95815C173.595 7.0219 173.287 7.22074 172.057 6.80435C167.652 6.88641 166.262 7.19924 160.943 7.17689C158.108 7.16517 160.225 6.68032 155.428 6.93032C151.097 7.15633 155.876 7.42205 142.997 7.15052C142.656 7.14306 140.978 6.84752 138.299 6.92446C135.609 7.00063 138.723 7.21225 132.246 7.27601C117.039 7.42502 97.7915 7.16955 80.1135 7.24818C79.0055 7.25314 68.3352 7.41114 66.2289 7.484C62.1526 7.62557 63.0042 7.8452 57.7099 7.89902C53.619 7.94042 50.2436 7.69164 45.4343 7.74132C44.8742 7.74735 43.9359 8.00325 40.3216 7.96933ZM366.821 417.001C365.823 417.252 364.021 418.176 357.985 417.895C357.412 417.869 360.501 417.233 357.167 417.132C360.43 417.065 363.607 417.043 366.821 417C366.821 417 366.821 417.001 366.821 417.001ZM14.1549 2.07656C18.672 2.12292 23.2046 2.16886 27.7216 2.21522C24.6047 2.32699 21.4834 2.43855 18.3787 2.55114C16.9666 2.39304 15.567 2.23466 14.1549 2.07656ZM451.484 134.749C451.484 134.745 451.484 134.74 451.484 134.736C451.604 139.484 451.723 144.236 451.842 148.984C451.755 148.485 451.666 147.984 451.579 147.485C451.44 143.736 451.302 139.985 451.164 136.248C451.271 135.749 451.378 135.248 451.484 134.749ZM450.555 97.2344C450.66 94.2027 450.836 94.9447 451.007 93.2767C451.007 93.2767 451.006 93.2767 451.006 93.2767C451.051 92.8363 451.09 90.786 451.096 89.9937C450.986 90.2859 450.878 90.6632 450.768 90.9798C450.502 83.9059 451.449 70.0722 451.831 87.9823C451.692 87.7145 451.553 87.4585 451.414 87.1908C451.453 96.0909 451.151 106.013 450.555 97.2344ZM295.257 417.401C287.66 417.857 285.223 417.953 276.007 417.641C277.309 417.512 278.611 417.383 279.913 417.254C281.434 417.385 282.945 417.516 284.467 417.648C284.472 417.648 284.476 417.648 284.48 417.648C284.785 417.509 285.09 417.371 285.382 417.233C288.669 417.289 291.97 417.345 295.257 417.401ZM248.118 3.11557C246 2.2061 246.611 2.73474 252.66 2.52966C254.754 2.45846 252.713 2.29933 254.016 2.27284C261.051 2.12812 261.613 2.73746 260.043 3.05454C256.062 3.07606 252.039 3.0957 248.131 3.11557C248.127 3.11557 248.122 3.11557 248.118 3.11557ZM65.5865 3.30452C65.5822 3.30452 65.5778 3.30452 65.5735 3.30452C65.391 3.08269 68.227 3.02302 65.0285 2.81285C67.4619 2.81368 69.8952 2.81544 72.3407 2.81627C71.6234 2.83693 70.8909 2.85663 70.1736 2.8773C70.8068 2.95347 71.4416 3.03061 72.0747 3.10678C72.9391 2.8518 73.7422 3.00001 76.2985 3.0853C75.5924 2.81291 74.8895 2.54034 74.1833 2.26795C77.1534 2.34907 80.1344 2.43048 83.1045 2.51159C83.1411 2.58024 83.1783 2.649 83.2149 2.71764C84.3345 2.62991 85.443 2.54122 86.5627 2.45349C86.8671 2.53544 87.1603 2.61665 87.4646 2.6986C88.8156 2.63652 90.1687 2.5745 91.5197 2.51159C91.9309 2.7101 88.9533 2.7959 94.2317 2.74547C92.6126 2.94911 90.9969 3.15215 89.3656 3.35579C81.4396 3.33923 73.5125 3.32191 65.5865 3.30452ZM303.144 2.8358C294.415 2.87388 296.873 2.73001 298.894 2.27967C300.306 2.46507 301.732 2.6504 303.144 2.8358ZM450.763 311.181C451.071 313.714 451.375 316.257 451.671 318.85C451.842 324.013 451.283 329.177 451.063 325.293C450.8 320.618 451.095 315.735 450.763 311.181ZM432.949 416.9C439.265 417.042 433.322 417.407 431.898 417.62C430.15 417.278 427.714 417.308 423.8 417.269C427.475 417.247 431.904 416.876 432.949 416.899C432.949 416.899 432.949 416.9 432.949 416.9ZM451.109 209.538C451.099 207.007 451.014 204.489 451.118 202.226C451.412 202.909 451.144 207.436 451.58 204.198C451.587 205.817 451.594 207.438 451.603 209.045C451.422 208.024 451.287 209.397 451.11 209.531C451.109 209.534 451.109 209.536 451.109 209.538ZM387.724 2.48962C392.691 2.83736 393.632 2.68856 398.637 2.44763C399.342 2.73076 393.375 3.20501 389.638 3.30941C389.004 3.03621 388.369 2.76282 387.724 2.48962ZM1.63463 149.416C1.99552 150.609 2.04258 159.409 1.93589 163.781C1.88237 163.261 1.82813 162.738 1.77379 162.218C1.72742 157.956 1.681 153.678 1.63463 149.416ZM421.938 417.244C422.593 417.255 423.214 417.263 423.8 417.269C423.149 417.273 422.52 417.266 421.938 417.244ZM157.455 415.678C159.536 415.338 153.35 415.223 160.861 415.357C160.861 415.356 160.861 415.356 160.861 415.356C165.829 415.443 166.926 415.467 171.528 415.493C169.871 415.93 160.534 416.087 173.403 416.177C173.572 416.177 173.235 415.917 175.291 415.953C175.926 415.964 177.957 416.177 181.046 416.239C182.044 416.259 189.547 416.325 179.32 416.329C179.625 416.634 179.075 416.942 179.1 417.238C175.108 417.324 172.04 416.727 167.817 416.742C161.546 416.765 158.356 417.368 157.15 416.577C162.423 416.382 171.476 416.378 172.657 416.854C177.758 416.859 179.222 416.469 175.109 416.277C157.491 416.522 170.273 415.698 154.847 416.009C154.664 416.119 154.03 416.238 154.127 416.341C149.418 415.954 156.712 415.8 157.455 415.678ZM194.295 416.52C191.251 416.752 188.217 416.987 185.185 417.22C185.186 416.841 186.857 416.501 191.654 416.287C192.53 416.365 193.419 416.443 194.295 416.52ZM2.38069 346.955C2.17454 346.516 1.98563 345.348 1.78941 344.496C1.96327 343.57 2.13007 321.654 2.30062 332.804C2.32546 334.423 1.96093 344.301 2.38069 346.955ZM353.232 2.80015C355.814 2.93842 358.384 3.07691 360.953 3.21517C356.999 3.30288 353.041 3.39289 349.087 3.48225C350.472 3.25494 351.847 3.02746 353.232 2.80015ZM450.402 353.199C450.409 352.109 450.693 355.73 450.648 351.434C450.829 354.636 450.983 357.635 451.153 360.764C451.019 361.701 450.886 362.649 450.752 363.586C450.838 364.317 450.923 365.062 451.009 365.792C450.814 365.354 450.623 364.964 450.424 364.501C450.843 359.229 450.368 358.02 450.402 353.199ZM449.637 196.438C450.062 195.49 450.315 203.124 450.383 195.614C450.661 197.039 450.808 199.329 450.833 203.725C450.726 204.43 450.62 205.134 450.513 205.84C450.799 205.937 450.905 207.068 451.109 209.538C451.108 209.54 451.108 209.542 451.108 209.544C451.128 216.226 451.033 215.827 450.564 217.434C450.829 210.36 450.4 210.149 450.145 205.327C449.969 202.016 450.049 197.692 449.637 196.438ZM2.38557 370.306C2.02711 365.304 1.69276 369.793 2.07358 360.917C2.16465 361.49 2.25495 362.064 2.34603 362.637C2.3601 365.193 2.37316 367.749 2.38557 370.306ZM451.093 171.751C450.436 172.323 449.924 177.033 450.993 177.837C451.211 173.247 450.605 175.489 451.093 171.751ZM435.103 415.871C437.391 415.879 438.974 415.935 440 416.019C441.197 416.104 441.668 416.109 441.612 416.278C441.556 416.432 440.957 416.704 440 416.842C439.596 416.905 439.133 416.963 438.632 417.014C438.072 416.879 437.513 416.744 436.965 416.61C435.419 416.671 433.872 416.733 432.326 416.793C433.251 416.486 434.177 416.178 435.103 415.871ZM450.371 16.1454C450.668 20.4193 450.694 16.354 450.747 14C450.742 12.5414 450.632 11.6714 450.915 13.5372C450.93 13.6887 450.941 13.8432 450.948 14C451.124 17.6972 450.675 22.2265 450.39 20.4211C450.382 19.1184 450.376 17.6682 450.371 16.1584C450.371 16.154 450.371 16.1497 450.371 16.1454ZM450.505 55.1782C451.007 54.0706 450.86 55.6671 450.77 50.338C450.745 48.8161 450.933 36.7224 450.517 41.7996C450.517 46.1209 450.51 50.6865 450.505 55.1782ZM333.077 416.605C332.995 416.386 342.308 415.907 343.503 416.027C343.503 416.026 343.503 416.026 343.503 416.026C346.73 416.353 336.906 416.399 341.167 416.848C331.732 416.453 328.909 417.408 329.566 416.15C335.125 416.094 332.493 416.354 333.077 416.605ZM2.6629 33.8753C2.6629 33.8709 2.6629 33.8666 2.6629 33.8623C2.65263 34.4876 2.33207 39.6405 2.22103 39.0139C2.31623 32.8173 2.52724 33.9216 2.18051 28.1527C2.29218 27.8364 2.4005 27.5655 2.51301 27.2249C2.57924 29.5139 2.71341 30.7827 2.6629 33.8753ZM2.8211 323.26C2.87823 325.537 2.64151 329.692 2.65558 332.285C1.74652 324.03 2.59423 314.166 2.8211 323.26ZM150.958 3.27328C150.964 3.27295 150.971 3.27262 150.977 3.2723C150.975 3.27279 150.972 3.27327 150.971 3.27376C150.966 3.2736 150.962 3.27344 150.958 3.27328ZM90.9839 416.724C90.6903 416.665 90.5244 416.614 90.4649 416.569C90.4649 416.565 90.4649 416.561 90.4649 416.556C90.6235 416.612 90.7925 416.667 90.9839 416.724ZM313.722 416.671C309.844 416.366 322.767 415.882 326.945 415.997C326.653 416.136 326.608 416.262 325.927 416.422C322.554 416.062 314.368 416.722 313.722 416.671ZM450.559 253.359C450.55 263.574 449.348 250.28 450.307 249.732C450.326 249.753 450.557 253.095 450.559 253.359ZM394.279 416.545C396.882 416.18 391.652 416.084 400.015 416.147C400.502 416.241 400.988 416.336 401.475 416.43C399.077 416.468 396.677 416.507 394.279 416.545ZM448.98 320.278C449.183 333.135 449.54 345.431 450.545 337.056C450.512 336.083 450.481 335.097 450.449 334.124C449.959 333.977 450.226 330.387 450.242 325.131C450.048 324.382 450.003 321.467 449.838 320.92C449.518 319.862 449.293 323.212 448.98 320.278ZM219.194 4.22293C219.401 4.13931 219.603 4.05525 219.81 3.97246C221.843 3.87807 223.882 3.78414 225.915 3.68976C225.587 3.85024 225.258 4.0107 224.929 4.17118C223.019 4.18856 221.117 4.20604 219.207 4.22342C219.202 4.22326 219.198 4.2231 219.194 4.22293ZM206.823 415.486C205.656 416.406 209.737 416.237 218.016 415.772C214.29 415.676 210.549 415.581 206.823 415.486ZM449.353 113.682C449.614 113.414 449.875 113.151 450.136 112.871C449.864 108.476 449.565 109.292 449.218 111.398C449.263 112.164 449.308 112.916 449.353 113.682ZM449.241 50.3705C449.187 52.1937 449.398 51.2633 449.394 51.454C449.283 56.0685 449.186 56.7184 449.345 62.38C449.4 63.0738 449.459 63.756 449.516 64.4498C450.064 61.8324 449.765 59.932 450.087 54.3931C449.899 55.3915 449.711 56.3858 449.522 57.3841C449.562 54.3045 449.601 51.2376 449.641 48.158C449.583 47.7928 449.525 47.4268 449.468 47.0615C449.393 48.1568 449.309 49.2873 449.241 50.3705ZM195.681 3.98515C192.686 3.96363 189.677 3.94125 186.681 3.91973C186.572 4.05467 186.467 4.19053 186.357 4.32547C189.461 4.21207 192.577 4.09855 195.681 3.98515ZM145.329 415.905C145.091 415.953 144.86 416.002 144.654 416.05C144.674 415.991 144.933 415.944 145.329 415.905ZM3.4031 25.9727C3.4971 22.5895 3.43599 17.72 3.45512 14C3.45519 13.9861 3.4553 13.9722 3.45543 13.9583C3.44628 13.9659 3.43741 13.9798 3.4289 14C3.12164 14.7555 3.20486 23.8079 3.00517 27.0432C3.06592 27.5775 3.36339 27.4083 3.4031 25.9727ZM446.612 413.369C447.127 412.68 447.537 411.94 447.833 411.189C448.862 409.677 449.434 407.852 449.447 406C449.448 405.887 449.449 405.775 449.45 405.662C449.312 405.601 449.173 405.541 449.034 405.48C449.038 405.658 449.041 405.831 449.044 406C448.944 409.911 447.442 411.086 446.812 411.783C446.038 412.436 445.541 412.782 443.813 413.512C444.694 413.616 445.637 413.581 446.612 413.369ZM100.383 4.86206C106.969 4.76851 109.306 4.59377 105.593 4.17899C103.268 4.27417 100.929 4.36944 98.6047 4.46462C99.2012 4.59706 99.7982 4.72963 100.383 4.86206ZM25.3692 415.593C19.8573 415.748 19.7657 415.191 14.3782 415.502C17.2631 415.605 20.1477 415.709 23.0205 415.811C23.7967 415.739 24.5929 415.666 25.3692 415.593ZM295.705 414.064C293.379 413.871 289.032 414.791 282.495 414.112C280.937 414.314 279.961 414.508 278.621 414.707C277.842 414.491 276.957 414.272 276.214 414.057C276.21 414.057 276.206 414.057 276.201 414.057C270.272 414.13 274.116 414.401 273.982 414.631C273.92 414.726 269.519 414.567 270.894 414.774C273.268 415.129 282.14 414.925 282.164 415.358C279.047 415.216 272.961 415.334 274.761 415.623C276.733 415.94 282.469 415.409 286.122 415.672C280.888 414.98 291.698 415.194 292.928 415.725C299.271 415.317 293.441 415.151 286.939 415.17C290.908 414.762 285.066 414.982 284.104 414.644C288.197 414.439 302.242 414.61 295.705 414.064ZM448.815 266.731C448.841 271.115 448.608 277.965 448.952 280.966C449.152 282.714 449.307 275.849 449.622 280.583C449.591 276.312 449.468 275.337 449.193 276.068C449.16 275.094 449.127 274.108 449.095 273.135C449.149 272.685 449.202 272.223 449.256 271.772C449.142 271.261 449.03 270.747 448.916 270.248C448.939 269.214 448.961 268.167 448.984 267.133C448.927 267.012 448.877 266.804 448.815 266.731ZM3.38992 275.812C3.39323 277.029 3.39652 278.235 3.40066 279.452C3.4678 279.318 3.53771 279.158 3.6067 279.004C3.66123 278.894 3.71575 278.784 3.77027 278.673C3.57548 279.379 3.25171 285.178 3.45974 287.621C3.5641 288.849 3.93459 286.054 3.99926 291.26C3.98021 287.487 3.92965 283.992 3.89819 280.328C4.00831 280.657 4.1196 280.972 4.22972 281.301C4.22988 281.299 4.23005 281.297 4.23021 281.295C4.25504 280.078 4.28106 278.846 4.30589 277.629C4.00038 277.02 3.69543 276.421 3.38992 275.812ZM448.836 117.25C449.052 121.402 449.164 122.792 449.513 120.832C449.514 120.828 449.514 120.823 449.514 120.819C449.359 119.273 449.204 117.726 449.05 116.18C448.978 116.533 448.907 116.885 448.836 117.25ZM109.566 414.752C100.739 416.079 120.618 415.266 116.833 414.814C116.662 414.793 110.394 414.899 109.566 414.752ZM433.481 415.463C435.649 415.453 437.822 415.444 440 415.435C440.243 415.434 440.482 415.423 440.724 415.404C440.478 415.349 440.239 415.284 440 415.21C439.69 415.121 439.38 415.032 439.074 414.943C437.211 415.116 435.344 415.29 433.481 415.463ZM129.06 5.46457C131.61 5.82887 138.156 5.96086 141.355 5.56467C139.675 5.5183 137.994 5.47188 136.314 5.42551C139.49 5.37999 142.631 5.32989 145.832 5.28685C146.003 4.77932 142.314 5.07376 136.762 4.93384C135.902 4.91127 130.406 4.28129 128.509 4.75611C128.127 4.85371 133.973 4.92007 129.91 5.20384C131.687 5.22617 133.22 5.22122 134.9 5.23363C135.021 5.35451 135.142 5.47552 135.276 5.5964C133.199 5.55263 131.137 5.50834 129.06 5.46457ZM448.854 292.255C448.826 298.277 449.029 299.021 449.387 300.275C449.347 297.474 449.307 294.673 449.266 291.873C449.129 292.006 448.992 292.122 448.854 292.255ZM182.886 5.58078C186.183 5.6394 184.771 5.34768 186.098 5.29222C191.113 5.08361 194.534 5.2921 199.489 5.16136C199.16 5.21766 198.858 5.27029 198.542 5.32493C198.546 5.32493 198.551 5.32493 198.555 5.32493C222.016 5.5708 209.693 4.90921 195.655 5.01684C195.326 4.90838 195.01 4.79978 194.681 4.69215C188.399 4.88174 182.606 5.06417 182.886 5.58078ZM187.988 414.707C187.721 414.639 189.997 414.207 185.724 414.409C182.34 415.039 187.89 414.727 189.28 414.969C188.123 415.029 186.94 415.088 185.795 415.149C192.711 415.327 193.72 415.177 191.2 414.717C191.02 414.686 188.257 414.774 187.988 414.707ZM142.539 414.396C141.589 415.324 150.317 414.907 150 414.619C148.795 414.607 147.859 414.765 146.581 414.695C145.291 414.626 144.961 414.409 142.539 414.396ZM392.586 414.623C392.33 414.619 389.761 414.229 390.017 414.534C393.194 415.257 399.597 414.792 398.477 414.54C396.359 414.553 394.947 414.661 392.586 414.622C392.586 414.623 392.586 414.623 392.586 414.623ZM89.3397 5.68331C89.4614 5.70921 95.8701 5.866 96.6972 5.72042C97.3788 5.55652 97.7171 5.38086 98.2284 5.21117C94.6976 5.36848 87.5506 5.24864 89.3526 5.68331C89.3484 5.68331 89.3439 5.68331 89.3397 5.68331Z" fill="#000F55"/>
</svg>
