<svg width="658" height="169" viewBox="0 0 658 169" fill="none" xmlns="http://www.w3.org/2000/svg">
<path d="M657.227 146.761C657.587 143.121 657.351 155.271 657.89 147.203C657.926 148.885 657.964 150.578 658 152.26C657.8 152.687 657.601 153.124 657.402 153.551C657.343 151.292 657.284 149.031 657.226 146.761C657.226 146.761 657.226 146.761 657.227 146.761ZM654.728 143.676C655.297 145.747 655.449 152.325 655.974 145.218C655.778 144.654 655.583 144.075 655.388 143.51C655.539 141.043 655.691 138.561 655.841 136.093C655.767 135.206 655.692 134.32 655.619 133.433C655.958 132.303 656.299 131.183 656.639 130.053C656.589 131.056 656.539 132.073 656.489 133.076C656.764 137.042 656.84 140.571 656.891 145.956C656.971 145.483 657.051 145.009 657.131 144.536C656.995 147.269 656.858 150 656.721 152.721C656.587 150.358 656.438 147.716 656.313 145.526C655.895 148.277 655.988 152.678 656.101 156C656.133 157.099 656.013 158.107 655.833 158.932C655.198 161.543 654.435 162.375 653.953 163.07C653.408 163.735 653.011 164.311 651.511 165.605C651.016 165.993 651.092 166.231 649.988 166.873C648.428 167.762 646.176 168.431 644 168.39C639.477 168.34 635.443 168.192 639.68 167.859C641.153 167.869 642.589 167.866 644 167.856C650.494 167.875 655.754 162.236 655.652 156C655.651 154.65 655.659 153.28 655.682 151.879C655.147 154.091 654.965 149.687 654.728 143.676ZM515.487 168.432C518.069 168.172 523.328 168.277 526.892 168.457C526.896 168.457 526.9 168.457 526.904 168.457C527.688 168.497 529.464 168.842 526.904 168.828C522.731 168.804 520.713 168.26 518.522 168.629C517.542 168.561 516.513 168.5 515.487 168.432ZM506.417 168.464C503.857 168.331 505.018 167.921 508.224 168.032C508.224 168.032 508.224 168.031 508.224 168.031C509.561 168.077 506.935 168.401 511.732 168.072C512.712 168.328 513.677 168.561 514.645 168.808C513.47 168.812 512.399 168.819 511.167 168.822C511.996 168.402 508.976 168.596 506.417 168.464ZM635.354 168.09C634.951 168.468 636.637 168.466 639.508 168.728C636.799 168.716 634.088 168.702 631.391 168.69C632.716 168.49 634.028 168.29 635.354 168.09ZM656.149 116.7C656.149 116.696 656.149 116.692 656.149 116.688C656.089 115.8 656.029 114.91 655.97 114.033C656.105 113.503 656.24 112.978 656.375 112.448C656.248 109.312 656.121 106.158 655.994 103.022C656.406 103.403 656.339 109.033 656.627 112.135C656.503 116.747 656.264 118.969 655.914 119.269C655.992 118.416 656.071 117.565 656.149 116.7ZM2.49494 103.414C2.38072 102.365 2.26641 101.329 2.15219 100.28C2.10006 101.675 2.06027 103.058 1.99985 104.465C2.49655 108.143 2.05719 108.488 2.08774 113.307C2.18212 128.078 2.95358 124.159 1.82359 137.499C1.87734 126.789 1.34639 130.905 0.937404 124.448C1.24871 123.11 1.95081 129.508 2.09653 125.173C1.76706 117.702 1.46021 110.517 1.24745 102.228C1.19364 102.47 1.13964 102.711 1.08583 102.953C1.11978 104.267 1.15393 105.571 1.18788 106.886C1.04382 105.467 0.901002 104.081 0.755284 102.64C1.08228 104.461 0.899569 99.8183 1.27528 100.44C1.44252 100.716 1.67454 102.768 1.83433 103.979C1.92125 100.855 2.00086 97.6504 2.0853 94.4915C2.21854 96.1283 2.35193 97.7637 2.48518 99.3889C2.48932 100.726 2.49227 102.052 2.49641 103.389C2.49592 103.397 2.49543 103.406 2.49494 103.414ZM579.344 0.756261C575.377 1.14539 568.169 1.20978 564.375 0.776767C569.368 0.770144 574.351 0.762884 579.344 0.756261ZM655.626 119.57C655.692 119.121 655.758 118.686 655.824 118.236C655.946 120.219 656.068 122.214 656.191 124.197C655.999 124.577 655.808 124.966 655.618 125.358C655.62 123.433 655.624 121.495 655.626 119.57ZM569.272 167.839C570.723 167.827 570.851 167.834 572.658 167.861C572.656 167.861 572.654 167.861 572.652 167.86C573.368 167.871 579.36 167.982 578.693 168.129C575.717 168.132 572.544 168.129 569.5 168.129C569.408 168.033 569.388 167.937 569.272 167.839ZM604.292 167.925C604.296 167.925 604.3 167.926 604.304 167.926C605.387 167.948 606.413 167.994 607.53 168.002C603.507 168.234 602.871 167.818 599.216 167.936C595.562 168.054 593.303 168.283 590.202 167.714C591.355 167.629 592.597 167.507 593.784 167.407C598.973 167.635 600.37 167.421 604.532 167.196C604.451 167.44 604.373 167.682 604.292 167.925ZM10.0796 167.288C11.2527 167.317 12.4838 167.646 12.6266 167.649C12.6242 167.649 12.6218 167.65 12.6194 167.65C12.7494 167.651 12.8763 167.649 13 167.646C21.2064 167.406 11.6358 167.812 19.8197 167.856C18.5864 167.926 17.3731 168 16.1513 168.071C15.1096 167.997 14.05 167.916 13 167.838C11.9891 167.775 11.0004 167.584 10.0796 167.288ZM295.852 167.683C295.933 167.765 296.029 167.847 296.11 167.929C291.129 167.91 289.858 168.233 285.719 167.939C289.097 167.853 292.474 167.768 295.852 167.682C295.852 167.683 295.852 167.683 295.852 167.683ZM544.165 167.243C549.688 167.086 553.774 167.017 559.078 167.266C559.082 167.266 559.086 167.266 559.09 167.267C559.396 167.282 557.917 167.454 558.316 167.497C559.411 167.471 560.541 167.432 561.647 167.401C561.796 167.538 561.939 167.676 562.089 167.812C558.976 167.773 555.861 167.734 552.737 167.695C553.198 167.776 553.67 167.855 554.132 167.936C551.48 167.977 548.838 168.018 546.186 168.06C547.108 167.835 548.029 167.609 548.939 167.383C547.348 167.336 545.755 167.291 544.165 167.243ZM212.921 166.786C213.798 166.876 212.175 167.026 213.536 167.103C214.897 167.179 217.405 167.012 216.817 167.264C214.985 167.298 213.061 167.337 211.194 167.373C217.202 167.828 223.195 167.416 223.288 167.978C217.522 167.832 212.781 167.9 207.2 168.056C207.431 167.61 213.013 167.224 209.499 166.805C210.628 166.799 211.814 166.791 212.909 166.787C212.913 166.787 212.917 166.787 212.921 166.786ZM650.031 38.8759C650.065 35.4627 649.883 27.6421 650.142 23.3295C650.207 22.2684 651.036 18.7336 651.146 18.7516C651.514 18.8553 651.564 23.1722 651.805 18.5488C651.807 20.1042 651.821 21.6135 651.827 23.1574C652.075 22.8807 652.322 22.6054 652.569 22.3401C652.531 20.4606 652.494 18.5788 652.456 16.6992C652.538 16.6069 652.62 16.5149 652.702 16.4227C652.704 23.18 653.02 19.1911 653.315 22.6965C653.464 19.4685 653.612 16.2165 653.761 13C653.743 14.8562 653.729 17.0467 653.708 18.684C654.127 18.903 654.027 14.9966 654.105 14.3273C654.545 10.5569 654.323 29.753 654.934 31.3239C655.002 28.2573 655.068 25.0397 655.135 21.9039C655.21 22.8032 655.286 23.7143 655.361 24.6137C654.94 31.7276 654.79 39.7051 654.528 47.9948C654.545 48.7437 654.563 49.4942 654.58 50.2316C654.769 50.0126 654.958 49.8053 655.148 49.5863C655.17 50.7164 655.192 51.8605 655.214 52.9906C654.59 49.6587 654.599 54.2727 654.218 59.8421C653.999 56.8791 654.132 53.2239 653.723 53.476C654.037 63.6454 653.593 75.5549 653.948 85.4476C654.036 87.9033 654.563 87.8955 654.514 93.6694C654.456 93.4734 654.352 93.4398 654.276 93.313C654.528 103.299 654.679 109.358 654.422 119.736C654.611 119.136 654.801 118.547 654.991 117.948C654.896 115.745 654.801 113.539 654.706 111.348C655.019 109.849 655.157 112.064 655.154 105.492C655.151 100.107 655.013 103.313 654.921 101.848C654.794 99.8652 655.043 98.125 654.902 95.9921C654.793 94.3432 654.535 96.1271 654.6 91.8259C654.935 93.5556 655.28 95.3201 655.619 97.0613C655.543 98.1107 655.467 99.152 655.391 100.201C655.301 99.1405 655.213 98.0976 655.124 97.0368C655.284 100.773 655.436 104.302 655.602 108.165C655.119 106.908 655.3 110.901 655.357 113.069C655.446 116.446 655.114 113.552 655.169 115.766C655.225 117.98 655.597 120.368 655.518 124.369C655.302 122.225 655.109 125.142 654.911 124.578C654.712 124.013 654.668 119.781 654.451 123.847C654.616 131.665 655.373 123.181 655.495 128.461C655.643 134.803 654.409 136.312 654.144 134.422C653.936 132.934 653.978 127.816 653.77 126.317C653.395 135.484 654.135 135.564 654.28 137.132C654.807 142.828 653.4 139.002 653.909 145.747C653.646 145.62 653.409 145.517 653.156 145.39C653.205 146.554 653.268 147.327 653.306 148.733C653.819 144.587 653.797 147.981 653.798 149.723C653.8 152.467 654.05 148.228 654.114 148.954C654.287 150.915 654.209 154.015 654.435 152.113C654.33 152.966 654.224 153.891 654.12 154.767C654.135 155.132 654.162 155.552 654.199 156C654.398 157.786 653.915 160.074 653.588 161.07C653.443 161.571 653.422 161.777 653.668 161.467C653.894 161.154 654.448 160.314 654.827 158.578C655.107 159.406 653.973 161.931 652.525 163.383C651.088 164.813 651.246 164.979 649.684 165.915C646.4 167.483 645.63 166.952 646.035 166.805C646.413 166.576 647.685 166 648.085 165.613C645.714 166.631 644.548 166.536 644 166.635C642.723 166.776 644.3 166.888 635.796 167.002C634.632 167.286 640.198 167.589 635.563 167.753C634.709 167.259 631.296 166.905 624.644 166.741C623.998 166.854 623.354 166.969 622.708 167.082C619.075 166.627 620.932 166.153 614.21 166.718C617.819 165.679 615.337 166.344 609.318 165.921C608.096 165.835 610.92 165.62 609.214 165.51C608.44 165.461 606.562 165.624 604.673 165.498C603.75 165.436 599.438 165.036 596.451 165.226C598.642 165.729 592.968 166.157 597.834 166.574C588.839 166.471 582.545 166.713 592.623 166.027C590.34 165.874 588.055 165.723 585.771 165.571C584.18 165.691 582.575 165.81 580.972 165.929C580.73 165.516 580.973 165.4 574.704 165.472C577.425 165.375 580.133 165.275 582.865 165.177C582.957 165.093 583.337 165.007 583.246 164.926C579.9 165.084 570.48 165.153 568.197 165.263C565.914 165.373 570.323 165.403 569.666 165.51C564.19 166.391 564.624 165.741 560.694 165.892C558.388 165.982 563.894 166.079 562.661 166.117C558.086 166.256 555.964 165.788 551.907 165.782C553.348 166.048 554.778 166.318 556.184 166.586C551.929 166.572 547.186 166.57 543.231 166.655C541.678 166.688 542.851 166.886 542.598 166.899C541.34 166.967 536.221 167.075 535.679 167.075C531.599 167.077 531.482 166.803 527.518 166.788C529.074 166.765 530.538 166.744 532.059 166.722C532.751 166.278 533.457 165.834 534.149 165.39C530.263 165.358 526.376 165.326 522.48 165.294C525.327 165.442 528.185 165.589 531.033 165.738C526.582 166.096 522.131 166.455 517.68 166.815C515.363 166.594 513.054 166.374 510.737 166.154C504.443 166.212 505.71 167.106 502.724 166.323C500.868 166.389 499.012 166.455 497.157 166.521C497.422 166.409 497.684 166.297 497.949 166.185C495.712 166.254 493.476 166.322 491.239 166.392C493.591 166.787 495.897 167.204 498.226 167.588C493.824 167.674 493.739 167.338 493.083 167.255C491.341 167.033 487.885 167.332 486.502 167.127C486.034 167.056 490.348 166.835 488.861 166.58C488.571 166.531 482.795 165.594 479.109 165.81C479.178 165.98 479.463 166.188 479.613 166.373C474.657 166.476 472.129 165.59 472.786 165.342C470.146 165.515 466.286 165.53 465.744 165.801C464.395 165.808 463.056 165.814 461.707 165.821C463.113 165.16 457.486 165.281 457.117 165.849C459.435 165.863 461.755 165.878 464.073 165.892C462.32 166.589 469.363 167.01 454.708 166.364C451.906 166.002 459.689 166.414 457.406 166.142C453.439 165.984 449.716 166.116 445.946 165.864C441.254 165.549 447.026 165.245 436.095 165.647C460.207 166.653 432.789 166.326 421.465 166.638C418.351 165.645 408.788 165.33 395.619 165.626C396.992 165.902 401.135 165.76 403.522 165.851C405.908 165.942 403.326 166.106 406.299 166.235C409.273 166.364 415.59 166.54 418.601 166.735C416.051 166.892 403.464 167.262 411.786 166.817C405.574 166.543 402.656 166.262 394.956 166.21C392.65 166.641 392.82 166.91 385.315 166.923C389.754 166.323 381.225 165.907 383.102 165.287C388.425 165.432 385.45 166.033 388.528 166.321C388.844 166.35 393.803 166.199 394.956 166.21C389.951 165.67 388.221 165.468 391.3 164.825C387.76 164.881 385.558 164.8 385.235 165.108C384.497 164.974 383.755 164.841 383.029 164.708C381.877 164.711 380.839 164.723 379.618 164.721C381.3 165.184 378.04 164.899 375.722 165.109C373.405 165.319 376.514 165.685 370.149 165.69C372.271 165.799 374.211 165.892 376.263 165.994C372.159 166.114 368.041 166.234 363.937 166.353C366.819 166.636 373.067 167.056 372.896 167.429C371.005 167.288 364.529 167.535 363.82 167.546C361.075 167.584 362.571 167.349 362.364 167.343C358.052 167.229 354.501 167.309 352.864 166.953C349.624 167.113 347.18 167.022 343.745 167.031C341.854 167.036 342.221 167.297 341.115 167.248C333.758 166.917 340.767 166.579 326.576 167.222C328.294 167.404 329.989 167.59 331.707 167.774C330.104 167.843 328.511 167.912 326.908 167.981C325.835 167.947 324.773 167.914 323.7 167.881C323.723 167.486 323.751 167.09 323.774 166.695C322.598 166.674 321.417 166.653 320.241 166.632C322.259 166.593 324.282 166.554 326.3 166.515C326.484 166.445 326.656 166.376 326.84 166.306C323.842 166.199 320.855 166.09 317.857 165.982C317.799 166.119 317.742 166.257 317.684 166.395C310.927 166.203 310.766 166.087 304.344 166.466C299.397 166.461 295.369 167.036 292.509 167.277C291.483 167.2 290.456 167.123 289.418 167.046C288.761 167.16 288.097 167.274 287.44 167.388C286.137 167.229 284.816 167.07 283.513 166.912C282.787 167.273 282.411 167.385 287.495 167.512C285.754 167.961 276.803 167.763 273.159 167.612C270.395 167.498 273.462 167.123 273.116 167.078C271.962 166.923 267.406 167.057 266.449 167.031C262.402 166.924 259.566 166.943 255.91 166.86C255.199 166.843 253.21 166.606 253.041 166.599C251.726 166.558 248.482 166.443 248.113 166.44C229.079 166.263 249.417 167.292 231.718 167.183C232.248 167.319 232.736 167.454 233.254 167.589C231.918 167.598 230.566 167.606 229.23 167.614C227.534 167.5 229.585 167.294 226.219 167.461C226.438 167.293 226.658 167.126 226.888 166.96C225.424 167.05 224.012 167.139 222.513 167.23C220.161 166.649 211.573 166.517 212.184 165.836C212.391 165.604 218.48 165.366 215.262 165.119C212.648 165.07 214.418 165.347 213.351 165.362C205.649 165.463 206.096 165.074 202.948 165.178C202.453 165.344 201.931 165.514 201.424 165.682C200.237 165.633 199.047 165.584 197.848 165.535C197.571 165.647 197.283 165.759 197.006 165.871C198.125 165.878 199.384 165.886 200.41 165.893C198.979 166.326 185.837 166.521 190.849 166.152C192.89 166.002 196.627 166.065 194.265 165.554C190.749 165.628 186.759 165.703 183.057 165.777C182.942 165.666 182.835 165.556 182.719 165.446C177.731 165.517 182.268 165.958 182.258 166.194C181.117 166.2 179.964 166.206 178.823 166.213C178.34 166.106 177.88 165.994 177.373 165.891C177.327 166.061 176.688 166.455 173.287 166.309C171.1 166.213 174.544 165.785 170.374 165.844C170.686 166.109 172.192 166.432 167.548 166.517C167.086 166.241 166.449 165.988 166.091 165.697C160.316 165.963 157.687 165.536 150.907 165.844C146.607 166.04 140.715 166.733 137.936 165.665C134.79 165.637 135.788 165.903 134.857 165.963C130.464 166.246 127.196 165.739 126.377 165.709C121.156 165.518 118.815 165.694 114.561 165.454C114.791 165.652 114.917 165.84 115.102 166.032C118.999 165.736 120.973 165.75 126.439 165.814C124.606 165.853 122.772 165.894 120.939 165.934C121.239 166.094 121.536 166.255 121.824 166.415C138.729 165.782 134.785 166.782 120.613 167C119.391 166.703 118.125 166.407 116.914 166.109C108.727 166.559 104.875 166.168 95.6163 166.074C94.5156 166.064 90.5064 166.235 88.7832 166.243C88.8119 166.244 88.8406 166.246 88.8692 166.247C87.7972 166.527 89.2492 166.657 89.4223 166.907C88.4885 166.939 87.554 166.97 86.6202 167.002C84.5347 166.81 85.2679 166.653 81.1636 166.699C81.7171 166.889 82.2631 167.08 82.8166 167.27C78.3194 167.277 75.3764 167.07 71.1906 167.159C71.8939 167.087 72.5887 167.015 73.2921 166.943C64.1824 166.759 71.4321 165.64 64.548 166.197C64.11 166.099 63.6833 166.001 63.2453 165.903C66.0814 165.879 68.9189 165.856 71.7436 165.832C71.8012 165.694 71.8634 165.556 71.9095 165.418C68.8768 165.459 65.8294 165.502 62.7967 165.543C65.0107 165.45 67.2376 165.358 69.4516 165.265C65.935 165.199 62.4174 165.132 58.9009 165.066C62.6353 165.574 57.7939 165.637 58.7042 166.14C52.4774 165.721 47.5863 165.169 37.9347 165.522C36.0213 165.593 37.0607 165.944 31.6301 165.516C32.9445 166.076 26.1412 166.339 27.0153 166.871C28.9058 166.845 30.8664 166.829 32.6993 166.798C30.6123 166.613 30.2663 166.105 33.4367 165.954C37.4839 165.762 43.387 166.114 43.1455 165.551C44.7593 165.577 46.2603 165.593 47.8279 165.615C47.1825 165.755 46.5507 165.896 45.9168 166.035C50.3775 165.816 53.1803 165.887 55.3246 166.24C50.0096 166.321 44.706 166.401 39.391 166.482C40.174 166.506 40.9676 166.53 41.7506 166.553C37.7263 166.913 41.8775 167.254 34.3707 167.331C34.4168 167.166 34.4536 167.002 34.4997 166.836C31.7668 167.277 24.2843 167.274 26.6712 167.781C24.4113 167.625 23.9506 167.527 22.6709 167.8C16.7093 167.415 12.8804 166.928 15.0022 166.347C14.3348 166.375 13.6673 166.403 13 166.431C11.3876 166.499 9.74578 166.186 8.25391 165.511C9.39887 166.263 10.7228 166.802 12.1268 167.07C7.83016 166.776 3.89357 163.698 2.53836 159.642C2.68847 159.376 3.3701 161.3 4.51289 162.639C5.61836 164.003 6.87661 164.811 6.07616 163.91C5.74052 163.583 4.18287 162.039 3.96904 161.477C3.31271 160.103 3.28453 159.55 3.31246 159.552C3.35864 159.547 3.55292 160.064 3.87263 160.663C4.47791 161.893 5.77838 163.254 5.35283 162.481C3.5015 160.075 3.5743 158.801 3.46975 158.172C3.43879 157.501 3.44387 157.253 3.42163 156C3.42532 154.895 3.36775 153.039 3.20292 149.537C3.33867 149.226 3.47715 148.891 3.61208 148.603C3.62023 144.512 3.31359 144.844 3.25565 141.327C3.2196 139.125 3.75804 136.361 3.39138 133.929C3.32378 133.495 2.66568 137.587 2.69464 128.989C2.71709 122.316 3.18216 125.093 3.34695 121.486C3.51171 117.876 2.86684 109.62 3.59792 107.187C3.50109 109.077 3.44885 111.485 3.36941 113.584C3.51179 114.437 3.65264 115.267 3.7942 116.109C3.6104 111.312 3.82702 106.354 3.48757 103.125C4.00669 96.7252 3.52495 89.5679 2.93877 91.5051C3.02328 93.6116 3.27889 91.32 3.11601 94.2457C2.9794 94.5455 2.84346 94.8615 2.70685 95.1613C2.72341 90.1798 2.71957 86.7202 3.13603 88.9919C3.14596 88.2193 3.15587 87.454 3.16581 86.6814C2.86444 86.543 2.56195 86.4204 2.26058 86.282C2.22664 85.3595 2.19297 84.4331 2.15902 83.5107C2.22522 82.485 2.29219 81.457 2.35921 80.4198C2.8361 81.8151 2.85185 84.1916 3.11845 76.3274C2.95369 76.3043 2.78958 76.2705 2.62482 76.2475C2.83428 69.6635 3.23339 69.4898 3.21854 61.2234C3.79057 67.5653 2.77657 71.0351 3.92407 71.0121C3.84873 72.6034 3.77238 74.2076 3.69703 75.7989C3.86345 76.0411 4.0301 76.2811 4.19652 76.5117C4.10874 67.9678 3.0143 53.7754 3.74 48.055C3.65144 47.3633 3.57446 46.669 3.47927 45.9657C3.91725 40.3616 2.93395 37.9415 3.50026 32.2566C3.5597 31.6702 4.48352 32.8974 4.45041 25.4973C4.33035 25.6816 4.12826 25.7776 3.9768 25.9274C4.05046 24.3251 4.12755 22.7314 4.20287 21.1406C4.09197 20.8524 3.98111 20.55 3.86939 20.2619C3.82633 22.9948 3.78256 25.7201 3.73951 28.453C3.70144 26.1822 3.66333 23.8968 3.62526 21.626C3.44401 24.5886 3.44208 25.925 3.15165 24.1393C3.13426 21.5678 3.11582 18.9928 3.09843 16.4214C3.02402 16.1565 2.94873 15.8935 2.87432 15.6287C2.65245 16.8739 2.43547 18.1318 2.21029 19.377C2.27035 17.1577 2.3116 15.0343 2.35577 13C2.41325 8.57174 5.3625 4.99253 8.65291 3.81181C9.07113 3.65861 8.59898 3.97701 8.69567 3.98684C8.81147 4.06971 9.34861 3.41271 12.325 2.96203C12.4285 3.10834 12.592 3.22473 12.696 3.36337C12.7977 3.35401 12.8991 3.34637 13 3.34039C20.067 2.93354 22.5083 3.06229 30.0202 3.36746C25.0848 3.07851 29.4883 3.26644 30.7452 3.11161C31.6064 3.00495 28.2451 3.0207 28.6253 2.90899C29.0058 2.79805 33.3736 2.3501 29.6392 2.29622C22.565 3.00564 19.4677 2.51161 13 2.45383C11.0128 2.43406 8.58825 3.02583 6.45615 4.8623C7.85156 3.58192 9.64529 2.66663 11.5701 2.29642C10.6479 2.34168 9.81317 2.47551 8.83755 2.77645C11.0909 1.9656 12.3509 2.07882 13 2.05495C14.2311 2.06432 13.3906 1.98055 15.1988 1.8856C17.897 1.74402 22.8011 1.62375 26.0874 1.58483C27.1227 1.57261 26.0307 1.77854 28.3671 1.79771C29.9583 1.81096 34.3068 1.50567 35.3108 1.86558C35.968 2.09987 28.9821 2.74501 38.6413 2.74347C40.4594 2.97315 35.8283 2.90182 35.7286 2.92949C34.8868 3.20271 40.8251 3.40814 43.5695 3.1995C43.7918 3.1815 41.6246 2.9686 43.9812 2.88506C49.5738 2.68553 52.8036 2.92969 56.4245 3.26004C56.8165 2.87257 61.5228 2.40981 67.3807 2.55305C67.6804 2.44216 67.9659 2.3303 68.2656 2.21859C67.356 2.27728 66.4468 2.33518 65.5372 2.39387C64.5456 2.32433 63.4949 2.2737 62.5263 2.19174C68.4173 2.09645 69.2504 1.56245 72.0754 1.36707C81.7424 0.699649 75.8836 2.11146 74.14 2.35481C72.8832 2.25629 71.6677 2.14631 70.4224 2.04282C70.5608 2.17777 70.7011 2.31375 70.828 2.44954C85.2991 2.44541 73.0317 3.32557 80.377 3.57643C82.2681 2.91247 87.6627 2.84847 94.5347 3.26981C95.2958 3.2665 96.0595 3.26565 96.8206 3.26151C96.9471 3.1647 96.9454 3.01672 97.1525 2.95293C105.432 2.84033 106.907 3.86285 107.691 3.95971C111.173 4.38934 113.885 3.7949 114.911 3.7898C119.235 3.7691 120.491 4.03305 124.608 3.91968C129.034 3.79717 126.008 3.59464 127.354 3.41336C128.435 3.26939 131.927 3.24375 133.37 3.09452C132.797 3.21657 132.16 3.33626 131.588 3.45876C136.176 3.62515 139.926 3.78732 145.137 3.82789C151.018 2.93486 156.021 4.44128 153.992 3.21952C149.057 3.1359 146.297 2.99667 143.657 2.68536C146.896 2.64563 150.138 2.60694 153.378 2.56721C154.323 2.7013 154.994 2.83198 156.112 2.96855C158.533 2.6838 164.146 2.80599 166.349 2.72247C176.67 2.33086 173.477 1.84515 182.897 2.66144C176.108 2.74098 176.118 3.13744 169.385 3.08281C170.838 3.36595 174.26 3.30729 172.046 3.64674C178.56 3.56313 176.454 3.26007 178.989 2.99101C181.176 2.75907 185.579 2.74608 185.331 2.44465C185.781 2.61038 186.129 2.77082 186.578 2.93633C190.798 2.93467 195.017 2.93457 199.237 2.93291C197.438 3.10592 195.64 3.27925 193.841 3.45144C195.201 3.51679 196.562 3.58188 197.922 3.64723C208.299 3.10908 226.196 4.09537 223.337 2.74347C228.341 2.70042 228.967 2.86998 231.687 3.12577C231.987 3.02314 232.279 2.93777 232.578 2.82354C235.806 2.93098 238.284 2.54565 241.132 2.64582C243.98 2.74521 244.687 3.10918 245.102 2.49739C246.946 2.67288 248.78 2.81866 250.614 2.98174C251.72 2.84275 252.825 2.70537 253.919 2.56721C255.649 2.64006 257.382 2.71261 259.112 2.78546C260.036 2.49342 266.837 2.6193 269.835 2.42317C272.68 2.73797 272.602 3.72915 279.298 3.55153C279.125 3.3057 278.954 3.06058 278.781 2.81475C280.315 2.86607 281.851 2.91723 283.396 2.96855C283.488 3.04879 283.568 3.12903 283.66 3.20926C282.877 3.18443 282.103 3.15973 281.319 3.13407C282 3.26985 282.666 3.40501 283.335 3.54079C285.675 3.33964 288.019 3.13846 290.371 2.9373C287.2 2.785 284.029 2.6326 280.858 2.4803C284.837 2.29981 287.606 2.47984 291.065 2.27865C294.074 2.61804 292.963 2.81361 291.741 3.18192C292.859 3.15047 293.99 3.12011 295.108 3.08866C294.371 3.45703 296.262 3.67652 289.725 3.64674C290.175 3.75181 290.633 3.85198 291.071 3.96118C292.143 3.94462 292.839 4.03343 294.015 3.99292C297.22 3.88197 299.678 3.23496 299.459 3.0081C299.341 2.88927 296.18 3.11653 296.307 2.94853C296.619 2.53887 303.87 2.7228 293.412 2.31136C296.883 2.05056 297.658 2.24724 301.487 2.32259C301.187 2.18608 300.896 2.05043 300.608 1.91392C302.383 1.97682 304.16 2.03949 305.936 2.10239C303.468 2.80362 316.556 3.06699 304.774 3.68043C308.256 3.71189 311.726 3.74351 315.196 3.77662C314.481 3.84863 313.766 3.91992 313.051 3.99194C311.483 3.95386 309.925 3.9164 308.357 3.87915C310.201 4.01075 312.049 4.14158 313.893 4.27318C318.252 4.11007 319.96 3.85922 321.955 3.54958C316.883 3.32362 318.54 3.63227 314.587 3.69361C314.725 3.49752 314.543 3.31715 314.889 3.11112C316.931 3.5173 323.593 3.22181 325.138 3.20194C329.84 3.14161 326.153 3.5407 329.298 3.54909C332.446 3.55737 336.159 3.31983 338.73 3.71559C338.684 3.49377 338.479 3.26427 338.294 3.0623C343.195 2.98944 342.217 3.25149 342.725 3.28543C350.819 3.84344 355.212 3.37234 364.471 3.31522C363.295 3.24651 362.107 3.18448 360.919 3.11991C367.905 2.64895 363.199 2.79316 357.134 2.63751C362.819 2.68471 366.075 2.28362 370.088 2.16439C374.1 2.04537 380.981 2.25137 383.496 2.41194C377.742 2.67026 371.535 2.49991 365.147 2.57111C365.873 2.79708 366.579 2.98832 367.329 3.23661C371.214 2.76234 373.466 3.07945 374.745 3.14237C378.504 3.32691 378.386 2.91985 380.657 3.35769C380.564 3.20707 380.497 3.08043 380.405 2.93975C388.165 3.00267 396.535 3.26895 401.586 2.71271C402.047 3.07448 402.395 3.42302 402.926 3.79224C406.212 3.51992 409.025 3.79879 411.793 3.73512C414.548 3.67137 413.499 3.379 416.739 3.26639C417.339 3.24569 418.588 3.42869 420.064 3.29373C421.554 3.15806 427.05 2.14933 427.708 3.03056C430.486 3.03471 433.116 3.06693 435.837 3.08183C433.185 3.1315 430.532 3.17961 427.892 3.22928C430.152 3.44286 432.398 3.65581 434.657 3.86939C434.946 3.67896 435.235 3.48509 435.512 3.29715C441.6 3.06533 446.018 3.37668 452.164 3.30301C453.19 3.29059 450.769 2.9141 455.323 3.01005C459.877 3.10609 463.257 3.80879 471.016 3.53737C471.409 3.5233 473.706 2.98512 476.485 3.35769C477.118 3.44213 474.456 3.56708 475.908 3.67799C477.361 3.78893 483.843 3.88016 484.351 4.14428C484.282 4.05075 483.877 3.95383 483.681 3.85865C484.788 3.81395 485.906 3.76922 487.024 3.72535C487.128 3.89009 487.24 4.05507 487.343 4.21898C493.708 3.83566 496.998 3.21036 506.429 3.41726C503.777 3.17801 501.124 2.9378 498.484 2.69855C497.757 2.86662 497.03 3.03582 496.315 3.20389C491.968 3.13684 487.61 3.07027 483.263 3.00322C482.548 3.19447 481.846 3.38518 481.131 3.57643C479.978 3.5516 478.836 3.52754 477.684 3.50271C477.972 3.36445 478.263 3.22692 478.562 3.08866C476.28 3.1226 473.994 3.15726 471.723 3.1912C476.347 2.3751 484.635 3.26061 484.037 2.57795C485.063 2.68387 486.09 2.79052 487.116 2.89727C487.566 2.56625 489.652 2.66152 493.328 2.71368C492.487 2.55058 491.557 2.3897 490.784 2.22494C494.359 2.45508 500.7 2.43273 504.401 2.52131C506.027 2.56022 504.403 2.80021 504.887 2.82842C507.366 2.9758 512.105 2.55704 513.096 2.59015C519.023 2.78724 522.874 3.58115 529.343 3.0579C522.667 2.92875 526.299 2.9833 523.924 2.69269C523.18 2.60157 514.555 2.4115 525.355 2.49592C526.622 2.50648 546.219 3.05502 539.777 3.47536C542.948 3.34124 545.431 3.18615 548.337 3.04374C555.44 4.15153 552.982 3.11085 550.918 2.53791C552.082 2.53543 553.19 2.52961 554.39 2.52961C551.841 3.13152 564.824 3.1689 569.229 2.86504C570.705 2.76403 566.578 2.57137 569.991 2.4803C571.617 2.52251 573.46 2.57716 575.178 2.62433C572.687 2.24351 577.575 2.09675 577.506 1.70934C580.631 2.05456 583.021 2.78629 581.304 3.1829C583.886 3.02231 586.482 2.86192 589.065 2.7005C587.866 2.6086 586.651 2.51751 585.452 2.42561C593.893 2.66903 604.746 2.11514 606.51 2.929C607.629 2.92321 608.759 2.9182 609.877 2.9124C610.223 2.77497 610.558 2.63726 610.904 2.49983C615.965 2.61902 621.014 2.73901 626.075 2.85821C621.569 2.9435 620.496 3.13912 615.77 2.98027C617.592 3.13834 619.447 3.29728 621.233 3.45535C628.348 3.02979 629.318 2.7501 640.03 2.87676C640.252 2.87941 642.069 2.95566 644 3.04089C646.322 3.08283 648.471 4.31703 648.565 4.40972C649.55 5.14222 647.834 4.45487 648.268 4.78502C648.875 5.17067 650.949 6.81957 651.776 8.95101C652.693 11.0424 652.411 13.0931 652.38 12.9978C652.138 12.5815 652.005 10.9235 650.777 9.07553C649.604 7.2414 647.05 5.38132 644 5.49119C633.78 5.68665 621.517 5.70428 616.643 5.73453C526.7 6.29253 438.739 5.546 349.361 5.6735C348.442 5.67547 348.843 5.82996 348.452 5.83657C346.019 5.87538 343.63 5.6346 342.731 5.62467C340.809 5.6042 341.867 5.82665 340.463 5.82681C325.957 5.82433 312.268 5.69352 297.751 5.7316C296.805 5.73408 297.77 5.5561 296.11 5.58756C295.253 5.60479 292.57 5.87785 290.635 5.88198C283.878 5.89605 278.202 5.80851 271.076 5.81265C267.178 5.81512 261.331 5.79191 256.973 5.79605C255.049 5.79781 253.044 5.92273 251.142 5.9269C248.444 5.9327 248.995 5.67946 248.58 5.66373C246.758 5.59503 246.506 5.87297 244.776 5.86636C241.559 5.85311 241.386 5.66754 237.304 5.68326C234.386 5.69485 227.709 5.84137 224.031 5.88442C215.429 5.66918 204.589 5.75463 196.564 5.82583C191.813 5.86804 191.373 5.60822 189.436 5.60905C182.61 5.61408 177.43 5.94592 171.02 5.95669C162.512 5.97071 154.972 5.75128 146.729 5.73551C145.392 5.73302 145.699 5.97109 144.388 5.97719C139.533 5.99955 133.325 6.04288 129.001 6.00893C124.182 5.97163 122.404 5.62608 117.688 5.69645C116.306 5.71734 115.901 6.02032 113.584 6.05922C109.883 6.12039 105.825 5.85321 103.242 5.82339C99.7019 5.78365 102.78 6.09232 98.0066 6.05092C97.8103 6.04913 97.0961 5.82849 96.0709 5.83902C93.0845 5.86882 93.3809 6.04258 89.0105 6.02602C88.5911 6.02373 82.7967 5.81349 82.2204 5.81265C78.8305 5.80934 72.0053 5.73573 69.9984 5.78043C62.826 5.93939 68.4727 6.27125 62.3727 5.55094C59.6867 5.72725 57.0228 5.90595 54.1755 6.07729C56.0759 5.91749 48.3635 5.68691 47.8217 5.70182C43.3388 5.8219 46.009 6.10216 40.325 6.0558C47.8318 5.40835 32.9917 5.97235 29.6821 5.98891C23.9814 6.01763 18.4661 6.0154 13 6.00088C9.27985 5.89696 5.8778 9.21706 5.94164 13C5.92413 17.5981 5.91053 22.2534 5.91177 27.0458C5.91346 32.4075 6.05032 39.5927 6.04701 45.2652C6.04682 46.5875 5.89359 45.5884 5.89028 46.7523C5.88801 47.9132 6.06002 46.6252 6.05092 47.9505C5.99129 56.1948 5.66673 62.6545 6.0724 70.2071C6.01375 70.5748 5.9674 70.563 5.90298 71.1718C6.26641 77.3527 5.77767 89.2555 5.7106 93.7295C5.60635 100.727 5.852 102.515 5.8024 107.598C5.73616 114.321 5.25625 124.414 6.04848 119.907C6.07331 124.518 6.08016 128.958 6.00649 133.616C5.99814 134.134 5.79677 133.777 5.79263 133.984C5.76372 135.298 5.94401 135.727 5.95229 136.614C5.97456 139.021 5.75869 135.093 5.819 138.525C5.85129 140.336 6.00853 141.364 6.01186 146.391C6.01368 149.567 6.01469 152.772 6.01502 156C5.91627 159.674 9.24143 163.077 13 162.988C35.8184 162.999 59.3688 163.034 81.9502 163.054C84.0834 163.055 82.6792 162.86 85.3544 162.873C94.6484 162.916 111.284 163.244 119.298 163.199C127.312 163.154 125.504 162.87 130.519 162.75C131.488 162.727 130.693 162.889 131.57 162.892C137.462 162.907 144.487 163.16 149.261 163.198C152.418 163.224 152.165 162.968 154.355 162.95C157.618 162.924 160.977 163.182 162.718 163.19C170.904 163.226 176.531 163.018 184.176 163.124C183.877 163.068 183.679 163.016 183.426 162.961C192.477 162.97 201.517 162.979 210.568 162.988C210.141 162.937 209.729 162.885 209.302 162.833C219.921 162.861 218.71 163.417 217.776 162.243C218.548 162.201 219.367 162.153 220.104 162.115C219.805 162.72 226.229 163.163 234.404 163.317C235.003 163.329 239.026 162.739 238.588 163.436C239.637 163.265 240.263 163.148 241.151 162.998C242.88 163.209 244.632 163.418 246.361 163.628C247.295 163.596 248.242 163.566 249.176 163.535C249.314 163.398 249.208 163.256 249.508 163.122C253.843 163.101 262.734 163.27 266.16 163.253C274.67 163.209 283.334 162.84 289.953 163.239C293.177 163.198 289.975 162.93 294.77 162.964C295.312 163.099 295.822 163.23 296.386 163.369C300.305 162.763 301.124 163.132 306.495 163.259C310.127 163.345 312.505 163.196 315.964 163.225C316.84 163.233 316.716 163.411 317.316 163.405C319.324 163.387 325.054 163.142 326.472 163.135C339.316 163.071 350.351 163.098 362.585 163.163C363.899 163.17 362.195 162.994 363.556 163.002C365.745 163.014 364.457 163.283 365.725 163.297C369.262 163.332 369.289 163.047 374.223 163.033C390.47 162.984 409.149 163.198 426.122 163.217C426.653 163.217 426.621 163.05 427.198 163.048C430.956 163.04 434.76 163.266 438.172 163.263C443.834 163.26 448.089 163.025 453.682 163.026C464.613 163.027 474.38 163.147 485.623 163.154C494.825 163.159 502.816 163.137 512.906 163.138C556.209 163.141 600.382 162.63 644 162.879C644.538 162.884 645.071 162.827 645.59 162.71C646.341 162.52 646.08 162.733 646.307 162.656C648.423 161.709 648.284 161.219 649.196 160.978C650.691 159.172 650.84 157.955 650.852 156C650.83 155.174 650.818 154.237 650.823 153.115C650.835 150.429 651.32 152.434 651.07 147.891C650.844 143.79 650.578 148.316 650.849 136.118C650.857 135.795 651.152 134.206 651.076 131.669C650.999 129.121 650.788 132.071 650.724 125.936C650.575 111.534 650.83 93.3047 650.752 76.5622C650.747 75.5128 650.589 65.4071 650.516 63.4122C650.374 59.5518 650.155 60.3582 650.101 55.3441C650.06 51.4696 650.308 48.2729 650.259 43.718C650.253 43.1875 649.997 42.2989 650.031 38.8759ZM1.99887 86.6937C1.7478 85.7481 0.823634 84.0417 1.10488 78.3244C1.13137 77.7825 1.76691 80.708 1.86802 77.5502C1.93508 80.6404 1.9568 83.6496 1.99985 86.6937C1.99953 86.6937 1.9992 86.6937 1.99887 86.6937ZM655.923 14.0938C655.877 18.3719 655.831 22.6646 655.785 26.9426C655.673 23.9907 655.561 21.0344 655.449 18.0941C655.607 16.7567 655.765 15.4311 655.923 14.0938ZM269.067 167.484C269.071 167.484 269.075 167.484 269.079 167.484C264.582 167.604 260.082 167.723 255.585 167.842C256.058 167.755 256.531 167.666 257.004 167.579C260.555 167.44 264.108 167.302 267.647 167.164C268.12 167.271 268.594 167.378 269.067 167.484ZM304.596 166.555C307.467 166.66 306.765 166.836 308.344 167.007C308.344 167.007 308.344 167.006 308.344 167.006C308.761 167.051 310.703 167.09 311.454 167.096C311.177 166.986 310.819 166.878 310.52 166.768C317.219 166.502 330.321 167.449 313.358 167.831C313.612 167.692 313.854 167.553 314.108 167.414C305.679 167.453 296.282 167.151 304.596 166.555ZM1.5985 18.9162C1.44872 16.5494 1.33782 14.7115 1.26754 13C1.25757 9.11993 2.63354 4.49007 9.12462 2.02039C7.81188 2.62005 6.63825 3.45833 5.67094 4.46002C4.3555 5.41612 3.23364 6.66784 2.41224 8.13976C2.41025 8.1441 2.40826 8.14843 2.40627 8.15277C2.39177 8.51616 2.39622 8.875 2.42156 9.21474C1.96786 10.4191 1.72533 11.7066 1.70536 13C1.66974 14.9729 1.63411 16.9472 1.5985 18.9162ZM580.032 166.884C582.038 167.794 581.459 167.265 575.731 167.47C573.747 167.542 575.68 167.701 574.446 167.727C567.784 167.872 567.251 167.263 568.738 166.945C572.508 166.924 576.318 166.904 580.02 166.884C580.024 166.884 580.028 166.884 580.032 166.884ZM654.695 62.8039C654.695 62.7998 654.695 62.7957 654.695 62.7916C654.917 62.6187 654.977 65.3047 655.187 62.2754C655.186 64.58 655.185 66.8846 655.184 69.2007C655.163 68.5213 655.143 67.8276 655.123 67.1483C655.047 67.7479 654.969 68.3491 654.893 68.9487C655.148 69.7673 655 70.5281 654.915 72.949C655.187 72.2802 655.46 71.6146 655.732 70.9458C655.651 73.7587 655.57 76.582 655.488 79.3949C655.42 79.4295 655.351 79.4649 655.282 79.4994C655.37 80.5599 655.459 81.6097 655.547 82.6701C655.465 82.9584 655.383 83.236 655.301 83.5243C655.363 84.8038 655.426 86.0853 655.488 87.3648C655.29 87.7542 655.204 84.9342 655.255 89.9333C655.051 88.3999 654.848 86.8697 654.644 85.3247C654.661 77.8181 654.678 70.3105 654.695 62.8039ZM527.918 167.164C536.185 167.126 533.857 167.27 531.943 167.72C530.605 167.535 529.255 167.35 527.918 167.164ZM101.97 166.763C99.5715 167.071 97.163 167.375 94.7068 167.671C89.8176 167.842 84.9266 167.283 88.605 167.063C93.0329 166.8 97.6575 167.095 101.97 166.763ZM2.09994 149.322C1.95751 155.304 1.59252 149.675 1.37976 148.326C1.72171 146.672 1.69154 144.364 1.73131 140.658C1.75348 144.138 2.12413 148.333 2.10092 149.322C2.10059 149.322 2.10027 149.322 2.09994 149.322ZM198.235 167.109C200.632 167.099 203.017 167.014 205.16 167.118C204.514 167.412 200.226 167.144 203.292 167.58C201.759 167.587 200.224 167.594 198.702 167.603C199.669 167.422 198.368 167.287 198.241 167.11C198.239 167.109 198.237 167.109 198.235 167.109ZM447.814 167.51C443.109 167.163 442.217 167.311 437.478 167.552C436.81 167.269 442.461 166.795 446.001 166.691C446.6 166.964 447.203 167.237 447.814 167.51ZM516.58 1.63463C515.451 1.99552 507.117 2.04258 502.976 1.93589C503.469 1.88237 503.964 1.82813 504.457 1.77379C508.493 1.72742 512.545 1.681 516.58 1.63463ZM1.75572 138.894C1.74515 139.514 1.73727 140.102 1.73131 140.658C1.72738 140.04 1.73352 139.445 1.75572 138.894ZM121.885 3.32205C119.914 3.6623 125.773 3.77661 118.659 3.64332C118.659 3.64365 118.659 3.64398 118.659 3.6443C113.955 3.55654 112.916 3.53311 108.557 3.50661C110.126 3.06953 118.969 2.91329 106.781 2.82305C106.621 2.82265 106.94 3.08273 104.993 3.04716C104.392 3.0361 102.468 2.82265 99.5428 2.76056C98.5972 2.74069 91.4917 2.67486 101.177 2.67072C100.889 2.36603 101.409 2.05764 101.386 1.76207C105.167 1.67617 108.073 2.27278 112.072 2.25814C118.011 2.23496 121.033 1.63166 122.174 2.42317C117.181 2.61764 108.606 2.62231 107.488 2.14633C102.657 2.14053 101.27 2.53051 105.165 2.72345C121.851 2.47838 109.746 3.30231 124.356 2.99101C124.528 2.88093 125.129 2.76247 125.038 2.659C129.497 3.04638 122.589 3.20036 121.885 3.32205ZM86.9951 2.4803C89.8778 2.24764 92.7512 2.01313 95.6224 1.77965C95.6222 2.15883 94.0392 2.4991 89.496 2.71271C88.6664 2.63494 87.8246 2.55723 86.9951 2.4803ZM329.495 2.38069C329.91 2.17454 331.017 1.98563 331.824 1.78941C332.7 1.96327 353.457 2.13007 342.897 2.30062C341.363 2.32546 332.009 1.96093 329.495 2.38069ZM480.48 167.2C478.035 167.062 475.6 166.923 473.167 166.785C476.912 166.697 480.661 166.607 484.406 166.518C483.094 166.745 481.792 166.973 480.48 167.2ZM62.1761 166.402C63.2086 166.409 59.7791 166.693 63.8475 166.648C60.8148 166.829 57.9747 166.983 55.0112 167.153C54.1233 167.019 53.2261 166.886 52.3382 166.752C51.6463 166.838 50.9408 166.923 50.249 167.009C50.6641 166.814 51.0336 166.623 51.4718 166.424C56.4648 166.843 57.6097 166.368 62.1761 166.402ZM210.641 165.637C211.539 166.062 204.309 166.315 211.422 166.383C210.073 166.661 207.903 166.808 203.741 166.833C203.073 166.726 202.406 166.62 201.738 166.513C201.645 166.799 200.574 166.905 198.235 167.109C198.233 167.108 198.231 167.108 198.229 167.108C191.9 167.128 192.279 167.033 190.757 166.564C197.456 166.829 197.657 166.4 202.223 166.145C205.359 165.969 209.454 166.049 210.641 165.637ZM307.38 2.38557C312.117 2.02711 307.866 1.69276 316.271 2.07358C315.729 2.16465 315.185 2.25495 314.643 2.34603C312.222 2.3601 309.8 2.37316 307.38 2.38557ZM234.023 167.093C233.481 166.436 229.02 165.924 228.259 166.993C232.606 167.211 230.483 166.605 234.023 167.093ZM3.12919 151.362C3.12124 153.529 3.06549 155.028 2.98079 156C2.92446 158.26 2.5131 157.816 2.15759 156C2.09512 155.618 2.03687 155.179 1.98569 154.705C2.12065 154.174 2.25584 153.644 2.38997 153.126C2.3287 151.661 2.26731 150.196 2.20687 148.732C2.51403 149.608 2.82203 150.486 3.12919 151.362ZM381.394 166.371C375.006 166.84 388.29 166.632 383.827 166.925C380.264 167.159 375.569 166.686 377.345 166.39C378.578 166.382 379.952 166.376 381.382 166.371C381.386 166.371 381.39 166.371 381.394 166.371ZM344.427 166.505C345.476 167.007 343.964 166.86 349.011 166.77C350.452 166.745 361.906 166.933 357.097 166.517C353.005 166.517 348.681 166.51 344.427 166.505ZM2.39534 54.7344C2.61376 54.6575 3.09338 63.4772 2.97344 64.6092C2.97376 64.6092 2.97409 64.6092 2.97441 64.6092C2.64738 67.6649 2.60091 58.3615 2.15219 62.397C2.54704 53.4608 1.59195 50.7874 2.85039 51.4101C2.9056 56.6741 2.64619 54.1819 2.39534 54.7344ZM626.008 2.6629C626.012 2.6629 626.016 2.6629 626.02 2.6629C625.428 2.65263 620.548 2.33207 621.141 2.22103C627.01 2.31623 625.964 2.52724 631.427 2.18051C631.727 2.29218 631.984 2.4005 632.306 2.51301C630.138 2.57924 628.937 2.71341 626.008 2.6629ZM351.936 2.8211C349.779 2.87823 345.844 2.64151 343.388 2.65558C351.206 1.74652 360.549 2.59423 351.936 2.8211ZM654.727 143.658C654.727 143.664 654.727 143.67 654.728 143.676C654.727 143.674 654.727 143.672 654.726 143.67C654.726 143.666 654.727 143.662 654.727 143.658ZM184.839 2.27572C185.117 2.33473 185.275 2.38599 185.331 2.43098C185.331 2.43521 185.331 2.43945 185.331 2.44368C185.181 2.38842 185.021 2.33254 184.839 2.27572ZM2.32942 36.4044C2.63404 32.731 3.11833 44.9699 3.00273 48.9275C2.86369 48.6509 2.73765 48.6078 2.57795 47.9628C2.93799 44.7684 2.27809 37.0155 2.32942 36.4044ZM156.733 166.559C147.058 166.55 159.649 165.348 160.168 166.307C160.148 166.326 156.983 166.557 156.733 166.559ZM2.4554 112.699C2.81954 115.163 2.91624 110.21 2.85332 118.131C2.759 118.592 2.66446 119.052 2.57014 119.513C2.53206 117.242 2.49347 114.97 2.4554 112.699ZM93.355 164.98C81.1786 165.183 69.5331 165.54 77.4644 166.545C78.3859 166.512 79.3204 166.481 80.2419 166.449C80.3802 165.959 83.7809 166.226 88.7586 166.242C89.4682 166.048 92.2287 166.003 92.7466 165.838C93.7483 165.518 90.5764 165.293 93.355 164.98ZM607.426 165.777C607.23 165.861 607.038 165.945 606.842 166.028C604.916 166.122 602.985 166.216 601.06 166.31C601.371 166.15 601.683 165.989 601.994 165.829C603.803 165.811 605.604 165.794 607.413 165.777C607.417 165.777 607.422 165.777 607.426 165.777ZM75.1293 3.51394C76.2355 2.59352 72.3702 2.76304 64.5295 3.22831C68.0579 3.32352 71.6011 3.41873 75.1293 3.51394ZM289.019 165.353C289.272 165.614 289.522 165.875 289.787 166.136C293.95 165.864 293.177 165.565 291.182 165.218C290.456 165.263 289.745 165.308 289.019 165.353ZM348.98 165.241C347.253 165.187 348.134 165.398 347.954 165.394C343.584 165.283 342.968 165.186 337.606 165.345C336.949 165.4 336.303 165.459 335.646 165.516C338.125 166.064 339.925 165.765 345.17 166.087C344.225 165.899 343.283 165.711 342.338 165.522C345.254 165.562 348.159 165.601 351.076 165.641C351.421 165.583 351.768 165.525 352.114 165.468C351.077 165.393 350.006 165.309 348.98 165.241ZM629.695 166.015C632.531 166.036 635.381 166.059 638.217 166.08C638.321 165.945 638.421 165.809 638.525 165.675C635.585 165.788 632.634 165.901 629.695 166.015ZM133.37 3.09452C133.595 3.04665 133.814 2.99849 134.009 2.94951C133.99 3.00921 133.744 3.05581 133.37 3.09452ZM633.492 3.4031C636.45 3.48987 640.607 3.44447 644 3.45202C644.285 3.4527 644.562 3.4662 644.833 3.49114C644.792 3.42909 644.493 3.35061 644 3.31296C641.623 3.14047 635.074 3.17433 632.478 3.00517C631.972 3.06592 632.132 3.36339 633.492 3.4031ZM5.38051 162.322C6.02101 162.829 6.70879 163.242 7.40999 163.551C8.86878 164.66 10.6646 165.331 12.5167 165.438C12.5778 165.303 12.6359 165.166 12.6926 165.029C8.73918 164.804 7.60648 163.226 6.94789 162.584C6.33499 161.796 6.04836 161.315 5.39548 159.625C5.25251 160.468 5.23514 161.375 5.38051 162.322ZM653.138 95.7586C653.231 101.997 653.406 104.21 653.821 100.693C653.726 98.4912 653.631 96.2767 653.535 94.075C653.403 94.6398 653.27 95.2053 653.138 95.7586ZM246.982 3.40701C252.202 3.25202 252.289 3.80868 257.391 3.49782C254.659 3.39518 251.927 3.2914 249.206 3.18876C248.471 3.26133 247.717 3.33443 246.982 3.40701ZM4.93574 19.3402C5.05577 17.975 4.74775 15.8743 4.65801 13C4.59326 11.5362 5.05009 9.72867 6.38261 8.30728C6.92722 7.22116 7.3833 6.53647 8.1787 5.74864C8.83296 5.56893 9.56361 5.44861 10.1687 5.4535C10.1718 5.45234 10.1749 5.45118 10.178 5.45003C12.3148 4.71383 12.7885 4.87846 12.6106 4.72361C12.4479 4.61593 11.6938 4.57692 11.7287 4.46215C11.7422 4.42072 12.3541 4.3301 13 4.33775C14.0754 4.34308 15.2196 4.34872 14.4491 4.2263C14.0978 4.17081 13.5963 4.12897 13 4.09623C11.5587 3.97073 9.47633 4.47982 8.02575 5.42629C6.54966 6.3354 5.69719 7.45974 5.54059 7.34906C6.40476 6.26485 8.01375 4.98293 9.39015 4.39484C10.7479 3.78512 11.7233 3.61152 10.8863 3.60952C8.89712 3.40782 4.49791 7.04783 3.68528 10.3857C5.21165 7.73515 3.82063 10.3006 3.70055 13C3.61967 14.6587 3.46825 16.2861 3.27469 16.7102C3.63872 22.0681 3.81052 18.2554 3.82992 13C3.83209 12.4142 3.88802 11.8105 4.00452 11.2114C3.97723 14.6482 4.31458 9.59154 5.27024 9.12649C4.90522 9.95322 4.42672 11.3993 4.46142 13C4.52079 18.0031 4.53788 23.8555 4.93574 19.3402ZM144.068 164.815C139.916 164.841 133.429 164.608 130.587 164.952C128.931 165.152 135.433 165.307 130.949 165.622C134.995 165.591 135.918 165.468 135.226 165.193C136.148 165.16 137.081 165.127 138.003 165.095C138.43 165.149 138.867 165.202 139.294 165.256C139.778 165.142 140.265 165.03 140.738 164.916C141.717 164.939 142.708 164.961 143.687 164.984C143.802 164.927 143.999 164.877 144.068 164.815ZM396.873 3.38992C395.72 3.39323 394.578 3.39652 393.426 3.40066C393.553 3.4678 393.704 3.53771 393.85 3.6067C393.954 3.66123 394.059 3.71575 394.163 3.77027C393.495 3.57548 388.003 3.25171 385.689 3.45974C384.526 3.5641 387.173 3.93459 382.242 3.99926C385.816 3.98021 389.126 3.92965 392.596 3.89819C392.285 4.00831 391.986 4.1196 391.674 4.22972C391.676 4.22988 391.678 4.23005 391.681 4.23021C392.833 4.25504 394 4.28106 395.152 4.30589C395.729 4.00038 396.296 3.69543 396.873 3.38992ZM285.639 164.836C281.707 165.052 280.391 165.164 282.247 165.513C282.251 165.514 282.255 165.514 282.259 165.514C283.724 165.359 285.189 165.204 286.653 165.05C286.319 164.978 285.985 164.907 285.639 164.836ZM167.24 4.24779C175.6 2.92064 156.774 3.7342 160.358 4.18627C160.52 4.20696 166.456 4.10124 167.24 4.24779ZM3.53737 149.826C3.54701 151.879 3.5558 153.937 3.56526 156C3.56641 156.23 3.57559 156.456 3.59315 156.686C3.65055 156.453 3.71634 156.226 3.79009 156C3.87914 155.706 3.96817 155.413 4.05737 155.123C3.88433 153.358 3.71041 151.59 3.53737 149.826ZM652.535 122.919C652.171 125.334 652.039 131.534 652.435 134.563C652.482 132.972 652.528 131.38 652.574 129.789C652.62 132.797 652.67 135.772 652.713 138.803C653.221 138.965 652.926 135.471 653.066 130.213C653.089 129.399 653.719 124.194 653.244 122.397C653.146 122.035 653.08 127.572 652.796 123.724C652.774 125.406 652.779 126.859 652.766 128.449C652.645 128.564 652.524 128.679 652.404 128.806C652.447 126.839 652.492 124.885 652.535 122.919ZM119.895 164.854C114.191 164.826 113.487 165.029 112.299 165.387C114.952 165.347 117.605 165.307 120.257 165.266C120.131 165.129 120.021 164.992 119.895 164.854ZM641.812 164.419C638.69 164.361 640.027 164.652 638.771 164.708C634.02 164.916 630.78 164.708 626.088 164.839C626.399 164.782 626.685 164.73 626.985 164.675C626.981 164.675 626.976 164.675 626.972 164.675C604.753 164.429 616.424 165.091 629.719 164.983C630.031 165.092 630.329 165.2 630.641 165.308C636.591 165.118 642.077 164.936 641.812 164.419ZM92.9678 4.29319C93.2216 4.36108 91.0652 4.79252 95.1124 4.59054C98.3172 3.96062 93.0611 4.27328 91.745 4.031C92.8405 3.97056 93.9609 3.91176 95.0447 3.85132C88.495 3.67331 87.5392 3.82309 89.9261 4.28343C90.0967 4.31437 92.7135 4.22552 92.9678 4.29319ZM136.012 4.60373C136.912 3.6756 128.646 4.09296 128.946 4.38108C130.087 4.39257 130.974 4.23542 132.184 4.30491C133.406 4.37445 133.719 4.59124 136.012 4.60373ZM4.37669 111.095C4.38083 110.853 4.7709 108.42 4.46555 108.661C3.74276 111.671 4.208 117.735 4.45969 116.674C4.44724 114.669 4.33878 113.331 4.37766 111.095C4.37734 111.095 4.37701 111.095 4.37669 111.095ZM652.317 85.3001C652.291 85.4154 652.134 91.485 652.28 92.2684C652.443 92.9138 652.619 93.2343 652.789 93.7186C652.632 90.3745 652.751 83.6058 652.317 85.3124C652.317 85.3083 652.317 85.3042 652.317 85.3001Z" fill="#000F55"/>
</svg>
