<svg width="91" height="92" viewBox="0 0 91 92" fill="none" xmlns="http://www.w3.org/2000/svg">
<path d="M39.8076 0.773399C39.0782 0.412633 41.5131 0.649123 39.8962 0.110346C40.2334 0.0739442 40.5726 0.0364013 40.9098 -7.78881e-09C40.9953 0.199534 41.0829 0.398581 41.1684 0.598115C40.7156 0.656872 40.2626 0.715619 39.8076 0.774376C39.8076 0.77405 39.8076 0.773725 39.8076 0.773399ZM39.1894 3.2723C39.6043 2.70318 40.9227 2.55145 39.4985 2.02627C39.3853 2.22158 39.2693 2.41686 39.1561 2.61218C38.6616 2.46069 38.1641 2.30924 37.6697 2.15858C37.4918 2.23305 37.3142 2.30759 37.1364 2.38123C36.91 2.04182 36.6855 1.7015 36.4591 1.36126C36.6602 1.41094 36.8639 1.46148 37.065 1.51116C37.8599 1.23554 38.5671 1.16016 39.6463 1.10883C39.5515 1.02852 39.4565 0.948919 39.3618 0.868609C39.9094 1.00521 40.4568 1.14215 41.0021 1.27875C40.5285 1.41283 39.999 1.56195 39.56 1.68693C40.2625 2.2191 41.5013 1.92292 42.1462 1.81192C43.0244 1.66042 42.8259 1.91346 43.4775 1.80753C43.5815 1.79097 43.5933 1.59263 43.7989 1.58928C44.8366 1.57355 46.8519 1.67868 45.6733 2.1415C43.9654 2.08188 42.5089 2.45354 40.8334 2.31776C41.2767 2.8529 40.394 3.03501 39.1894 3.2723ZM70.5634 1.56828C70.0459 1.82819 68.9918 1.7233 68.2777 1.54289C68.2769 1.54289 68.2761 1.54289 68.2752 1.54289C68.1181 1.50315 67.7622 1.15774 68.2752 1.17182C69.1116 1.19594 69.516 1.73966 69.955 1.37054C70.1515 1.43925 70.3577 1.50039 70.5634 1.56828ZM72.3811 1.53606C72.8941 1.66935 72.6614 2.07905 72.019 1.96816C72.019 1.96849 72.019 1.96882 72.019 1.96914C71.751 1.92278 72.2772 1.59895 71.3158 1.92764C71.1195 1.67192 70.9262 1.43927 70.7321 1.19184C70.9675 1.1877 71.1822 1.18099 71.4291 1.17768C71.263 1.598 71.8682 1.40381 72.3811 1.53606ZM46.5403 1.91006C46.621 1.53193 46.2831 1.53431 45.7078 1.27191C46.2508 1.28433 46.7939 1.29758 47.3346 1.30999C47.0689 1.51027 46.8059 1.70979 46.5403 1.91006ZM33.783 1.85147C33.7822 1.85147 33.7814 1.85147 33.7806 1.85147C33.6026 1.91108 33.4242 1.9709 33.2485 2.02968C33.1422 1.89473 33.0371 1.76036 32.9308 1.62541C32.3022 1.75208 31.6703 1.87875 31.0417 2.00625C31.1181 1.59401 32.2464 1.66109 32.868 1.37298C33.7923 1.49718 34.2377 1.73646 34.2978 2.08583C34.1268 2.00804 33.9563 1.92926 33.783 1.85147ZM67.461 89.5051C67.2507 89.6193 67.0431 89.7336 66.8329 89.8478C67.1124 89.8999 67.3897 89.9397 67.6716 90.0001C68.4087 89.5034 68.4779 89.9428 69.4437 89.9123C72.404 89.8179 71.6186 89.0464 74.2922 90.1764C72.1457 90.1227 72.9705 90.6536 71.6764 91.0626C71.4084 90.7513 72.6907 90.0492 71.8218 89.9035C70.3245 90.2329 68.8846 90.5398 67.2233 90.7526C67.2718 90.8064 67.3201 90.8604 67.3686 90.9142C67.6321 90.8802 67.8933 90.8461 68.1568 90.8121C67.8725 90.9562 67.5947 91.099 67.3058 91.2447C67.6709 90.9177 66.7404 91.1004 66.8649 90.7247C66.9204 90.5575 67.3316 90.3255 67.5743 90.1657C66.9481 90.0788 66.3059 89.9991 65.6728 89.9147C66.0008 89.7815 66.3286 89.6481 66.6543 89.5148C66.9223 89.5107 67.1881 89.5077 67.456 89.5036C67.4577 89.5041 67.4593 89.5046 67.461 89.5051ZM0.756261 14.3977C1.14539 15.1927 1.20978 16.6373 0.776767 17.3976C0.770144 16.397 0.762884 15.3983 0.756261 14.3977ZM34.3581 2.37391C34.2681 2.30775 34.1809 2.24231 34.0909 2.17616C34.4883 2.05365 34.8881 1.93199 35.2855 1.80948C35.3617 2.00065 35.4397 2.19186 35.5182 2.38221C35.1324 2.37972 34.744 2.37639 34.3581 2.37391ZM59.784 2.16103C59.4932 2.17259 59.4675 2.16633 59.1054 2.13905C59.1058 2.13922 59.1062 2.13938 59.1066 2.13954C58.9631 2.12936 57.7622 2.0177 57.896 1.87051C58.4923 1.86803 59.1283 1.87051 59.7384 1.87051C59.7569 1.96733 59.7609 2.06338 59.784 2.16103ZM52.7656 2.07509C52.7647 2.07477 52.7639 2.07444 52.7631 2.07412C52.5461 2.05176 52.3405 2.00624 52.1166 1.99795C52.9229 1.7663 53.0503 2.1819 53.7828 2.06435C54.5152 1.94596 54.9679 1.71665 55.5894 2.28602C55.3583 2.3713 55.1095 2.49329 54.8715 2.59264C53.8316 2.36499 53.5516 2.57923 52.7175 2.80357C52.7337 2.5602 52.7494 2.31847 52.7656 2.07509ZM81.0424 90.2554C81.1905 89.9246 81.5086 90.1138 81.5381 90.1077C81.5378 90.1082 81.5374 90.1086 81.537 90.1091C83.3698 89.1535 81.3538 90.4081 83.1747 89.6692C82.9421 89.8603 82.7046 90.0463 82.4565 90.2215C81.9798 90.2652 81.4913 90.264 81.0424 90.2554ZM89.6832 34.8728C89.7652 34.8566 89.8473 34.8372 89.9293 34.8211C89.9103 35.8194 90.2329 36.074 89.9391 36.9035C89.853 36.2266 89.7675 35.5498 89.6822 34.8728C89.6826 34.8728 89.6829 34.8728 89.6832 34.8728ZM64.8159 2.75719C63.709 2.91367 62.8901 2.98262 61.827 2.73424C61.8262 2.73391 61.8254 2.73359 61.8246 2.73326C61.7633 2.71797 62.0597 2.54649 61.9797 2.50329C61.7604 2.52894 61.5339 2.56837 61.3123 2.59899C61.2823 2.46167 61.2536 2.32438 61.2236 2.18788C61.8475 2.22679 62.4718 2.26567 63.098 2.30457C63.0055 2.22427 62.9108 2.14466 62.8184 2.06435C63.3498 2.02296 63.8793 1.98172 64.4108 1.94033C64.2259 2.16545 64.0415 2.39062 63.859 2.61657C64.1778 2.66374 64.4971 2.70919 64.8159 2.75719ZM88.7863 51.4933C88.8757 51.3176 89.0257 51.6428 89.1027 51.3701C89.1787 51.0974 89.0118 50.5947 89.2643 50.7125C89.2982 51.0797 89.3371 51.4653 89.3727 51.8393C89.8279 50.6354 89.416 49.4342 89.9781 49.4157C89.8324 50.5712 89.9001 51.5213 90.0558 52.6398C89.6095 52.5936 89.2237 51.4748 88.8048 52.1792C88.7991 51.9529 88.7906 51.7151 88.7873 51.4957C88.7869 51.4949 88.7866 51.4941 88.7863 51.4933ZM18.1859 7.96933C17.5018 7.93539 15.9345 8.11749 15.0702 7.85752C14.8575 7.79345 14.1491 6.96355 14.1527 6.85415C14.1735 6.48573 15.0387 6.43558 14.1121 6.19549C14.4238 6.193 14.7263 6.17917 15.0357 6.17255C14.9802 5.92499 14.925 5.6781 14.8719 5.43137C14.4952 5.46863 14.1181 5.50607 13.7414 5.54416C13.7229 5.46219 13.7045 5.38004 13.686 5.29808C15.0402 5.29642 14.2408 4.98006 14.9433 4.68531C14.2964 4.53632 13.6446 4.38804 13 4.23905C13.372 4.25726 13.811 4.27075 14.1391 4.29227C14.1831 3.87254 13.4002 3.97261 13.266 3.89483C12.5104 3.45522 16.3575 3.6771 16.6724 3.06625C16.0578 2.99838 15.4129 2.93214 14.7845 2.86509C14.9647 2.78975 15.1473 2.71437 15.3276 2.63903C16.7533 3.06034 18.3521 3.20959 20.0135 3.472C20.1636 3.45462 20.314 3.43679 20.4617 3.42024C20.4179 3.23072 20.3763 3.04192 20.3324 2.8524C20.5589 2.83004 20.7882 2.80786 21.0147 2.78551C20.3469 3.40971 21.2716 3.4012 22.3878 3.78204C21.794 4.0014 21.0614 3.86841 21.112 4.27713C23.1501 3.96267 25.5369 4.40708 27.5195 4.05204C28.0117 3.9643 28.0101 3.43704 29.1673 3.48567C29.128 3.54362 29.1213 3.64825 29.0959 3.72442C31.0972 3.4719 32.3115 3.32095 34.3914 3.57844C34.2713 3.38893 34.1531 3.19863 34.033 3.00913C33.5916 3.10351 33.1495 3.1994 32.7104 3.29378C32.41 2.98085 32.8539 2.84274 31.5367 2.84605C30.4575 2.84853 31.0999 2.98671 30.8065 3.07944C30.409 3.20603 30.0603 2.95699 29.6328 3.09848C29.3023 3.20694 29.6599 3.46514 28.7979 3.39973C29.1445 3.06525 29.4981 2.71986 29.8471 2.38123C30.0574 2.45657 30.2661 2.53308 30.4764 2.60925C30.2638 2.69866 30.0548 2.7869 29.8422 2.87632C30.5909 2.71571 31.2983 2.56423 32.0724 2.39783C31.8206 2.88135 32.6207 2.70006 33.0552 2.64294C33.732 2.55361 33.1522 2.88638 33.5958 2.83091C34.0395 2.77459 34.5181 2.40282 35.3199 2.4823C34.8902 2.69753 35.4748 2.89053 35.3618 3.0892C35.2486 3.28786 34.4004 3.33185 35.2153 3.54865C36.7821 3.3839 35.0819 2.62733 36.1401 2.50476C37.4111 2.3574 37.7135 3.59066 37.3347 3.85577C37.0366 4.06441 36.0108 4.02245 35.7103 4.23026C37.5476 4.60529 37.5635 3.86492 37.8778 3.72003C39.0194 3.19268 38.2525 4.60021 39.6044 4.09111C39.579 4.35432 39.5584 4.59106 39.533 4.84351C39.7662 4.7955 39.9211 4.73168 40.2029 4.69361C39.3718 4.18076 40.0521 4.20274 40.4012 4.20194C40.9512 4.20028 40.1016 3.95013 40.2472 3.88555C40.6401 3.71274 41.2614 3.79121 40.8802 3.56525C41.0512 3.6704 41.2366 3.77586 41.4122 3.88018C42.0548 3.74916 43.565 2.65055 42.1277 2.87242C42.2618 2.46424 42.7267 2.66043 43.0896 2.72252C43.4523 2.78456 43.4455 2.52461 43.7644 2.57263C45.033 2.76472 44.2032 3.20938 44.0021 3.55793C45.6775 3.31784 44.0373 3.159 46.4516 2.99839C46.685 2.71441 45.5694 2.41138 46.4984 2.24745C46.6695 2.7408 47.3535 3.0952 48.6868 3.25912C48.8162 3.14569 48.9453 3.03125 49.0747 2.91782C49.8027 3.37319 49.4306 3.84671 50.7779 3.28206C50.0546 4.3211 50.5519 3.65638 51.7582 4.07939C52.0032 4.16467 51.4371 4.38024 51.7791 4.48952C51.9342 4.53881 52.3106 4.37609 52.6892 4.50173C52.8741 4.56382 53.7384 4.96446 54.337 4.77418C53.8979 4.27079 55.0351 3.84255 54.0599 3.4261C55.8625 3.52876 57.124 3.28707 55.1042 3.97344C55.5618 4.12578 56.0198 4.27747 56.4773 4.42898C56.7963 4.30893 57.1179 4.18982 57.4392 4.0706C57.4876 4.48432 57.4389 4.60038 58.6953 4.52761C58.1502 4.62526 57.6073 4.72453 57.0599 4.823C57.0414 4.90655 56.9652 4.99338 56.9835 5.07446C57.654 4.91555 59.5419 4.84716 59.9995 4.73707C60.4571 4.62695 59.5734 4.59682 59.7051 4.49001C60.8026 3.60929 60.7156 4.25886 61.5031 4.10771C61.9654 4.01829 60.8618 3.92119 61.1091 3.88311C62.0259 3.74352 62.4512 4.21159 63.2642 4.21756C62.9754 3.95188 62.6889 3.68206 62.4071 3.41389C63.2598 3.42797 64.2104 3.43033 65.0031 3.34505C65.3143 3.31176 65.0791 3.11416 65.13 3.10092C65.3821 3.03303 66.408 2.92549 66.5166 2.92466C67.3343 2.92308 67.3576 3.19677 68.1521 3.21175C67.8402 3.23493 67.5469 3.25581 67.242 3.27816C67.1034 3.72188 66.9619 4.16557 66.8233 4.61012C67.602 4.64241 68.381 4.67403 69.1619 4.70631C68.5912 4.55813 68.0184 4.41066 67.4477 4.26248C68.3397 3.904 69.2317 3.5447 70.1237 3.18539C70.5882 3.40561 71.0509 3.62578 71.5154 3.846C72.7768 3.78791 72.5228 2.89396 73.1212 3.67706C73.4931 3.61086 73.8651 3.5447 74.237 3.47932C74.1839 3.59105 74.1313 3.70302 74.0781 3.81475C74.5265 3.74603 74.9746 3.67777 75.4229 3.60822C74.9516 3.21251 74.4895 2.7961 74.0227 2.41199C74.905 2.326 74.9219 2.66169 75.0535 2.74547C75.4025 2.96736 76.0951 2.66806 76.3724 2.87339C76.4662 2.94388 75.6016 3.16488 75.8995 3.41975C75.9577 3.46916 77.1154 4.40607 77.854 4.18973C77.8401 4.02001 77.783 3.81189 77.753 3.62726C77.839 3.61833 77.9214 3.61682 78 3.62167C78.8779 3.67939 79.1894 4.51048 79.0465 4.71636C79.5596 4.59042 80.2871 4.7405 80.4565 4.50885C80.7155 4.56888 80.9688 4.63882 81.2221 4.7197C80.7643 5.25329 81.7661 5.4985 82.0723 5.02928C81.6614 4.82699 81.2358 4.65251 80.7989 4.50919C81.0682 4.22564 80.8885 3.88076 80.9759 3.79032C81.05 3.71436 81.5037 3.81358 82.7359 4.77846C83.0862 5.35663 81.8321 4.289 82.14 4.73845C82.8025 5.20825 83.5214 5.48958 83.9698 6.14699C84.4779 6.99355 83.4758 6.4003 85.2311 7.61473C82.2997 3.69053 86.5839 7.26225 87.6712 9.56214C87.1138 10.4819 87.4058 11.9217 87.5482 14C87.566 14.2826 87.5918 14.5755 87.6257 14.8779C87.7885 14.7161 87.8061 14.3617 87.8116 14C87.8156 13.7499 87.803 13.5018 87.8266 13.3045C87.8773 12.8243 88.0925 13.3292 88.1546 12.7108C88.2279 12.0898 88.0765 10.762 88.0001 10.0889C88.4212 10.5033 89.3261 13.1687 88.519 11.4682C88.5436 12.497 88.3927 13.1055 88.2892 14C88.2507 14.2933 88.2231 14.6216 88.2101 15.0109C88.6415 15.4731 88.9101 15.4389 88.9225 16.9432C88.3231 16.0535 87.9066 17.7629 87.2873 17.3865C87.4316 16.3198 88.0334 16.916 88.3215 16.2991C88.3503 16.2358 88.1994 15.2419 88.2101 15.0109C87.6695 16.0139 87.4683 16.3607 86.825 15.7437C86.8813 16.4532 86.8005 16.8945 87.1077 16.9592C86.9744 17.1071 86.841 17.2558 86.7078 17.4013C86.7111 17.6322 86.7234 17.8401 86.721 18.0848C87.1843 17.7477 86.8991 18.4011 87.1091 18.8656C87.3194 19.3301 87.6852 18.7069 87.6902 19.9826C87.7986 19.5573 87.8917 19.1686 87.9943 18.7572C88.1135 19.5798 88.2335 20.405 88.3527 21.2276C88.6358 20.6499 89.0564 19.3978 89.4288 19.4321C89.2882 19.811 89.5354 21.109 89.5455 21.251C89.5836 21.801 89.3487 21.5013 89.3429 21.5429C89.2287 22.407 89.3087 23.1187 88.9528 23.4468C89.1134 24.0961 89.0218 24.5858 89.0309 25.2744C89.0359 25.6533 89.2973 25.5797 89.2477 25.8015C88.9165 27.2758 88.5787 25.8712 89.2218 28.7152C89.4039 28.3709 89.5903 28.0312 89.774 27.6869C89.8428 28.0081 89.9118 28.3275 89.9806 28.6487C89.9475 28.8636 89.9141 29.0766 89.881 29.2916C89.4861 29.2869 89.0904 29.2814 88.6955 29.2768C88.6739 29.5125 88.653 29.7492 88.6315 29.9849C88.5926 29.5805 88.5537 29.1751 88.5148 28.7706C88.4453 28.7337 88.3758 28.6992 88.3063 28.6623C88.1987 29.2631 88.0901 29.8619 87.9816 30.4627C88.119 30.4743 88.2573 30.4857 88.3947 30.4972C88.2035 31.8514 88.0872 31.8837 88.4655 33.1708C88.4614 34.1623 89.0357 34.9696 89.2775 35.5427C89.2005 35.7484 89.1225 35.9542 89.0456 36.1622C89.1598 36.2939 89.2736 36.427 89.3878 36.5587C89.2289 36.8198 89.0699 37.0845 88.9118 37.3457C89.2726 37.4912 89.3852 37.5666 89.5118 36.5476C89.9606 36.8966 89.7626 38.6905 89.6119 39.4208C89.4976 39.9748 89.1233 39.3601 89.0778 39.4294C88.9231 39.6607 89.0566 40.5738 89.0309 40.7656C88.9241 41.5767 88.9428 42.145 88.86 42.8776C88.8434 43.0202 88.6062 43.4189 88.5988 43.4527C88.5582 43.7162 88.4429 44.3665 88.4396 44.4404C88.2626 48.255 89.2917 44.179 89.1832 47.7261C89.319 47.6198 89.4538 47.5222 89.5895 47.4182C89.5977 47.6861 89.6056 47.9569 89.6139 48.2248C89.5005 48.5646 89.2942 48.1536 89.4606 48.8283C89.2933 48.7844 89.126 48.7403 88.9596 48.6941C89.0499 48.9876 89.1394 49.2705 89.2296 49.5709C88.6493 50.0423 88.5175 51.7634 87.8361 51.6411C87.6043 51.5995 87.3664 50.3793 87.1189 51.0241C87.0702 51.548 87.347 51.1934 87.3616 51.4071C87.4626 52.9508 87.0745 52.8611 87.178 53.492C87.3443 53.5914 87.5139 53.6958 87.6819 53.7974C87.633 54.0354 87.5842 54.274 87.5354 54.5142C87.6471 54.5697 87.759 54.6274 87.8708 54.6829C87.8783 54.4587 87.8858 54.2063 87.8933 54.0006C88.3262 54.2875 88.5206 56.9213 88.1516 55.9169C88.0017 55.5079 88.0654 54.7588 87.5539 55.2322C87.6276 55.937 87.7029 56.7366 87.7766 57.4784C87.6665 57.5015 87.5561 57.5231 87.446 57.5462C87.5173 58.5459 87.9576 57.6367 88.1935 57.6385C88.2002 57.8672 88.206 58.0983 88.2126 58.327C88.1059 58.4239 87.9942 58.516 87.8908 58.6176C88.0606 58.6269 88.4553 58.755 88.3088 59.4365C88.2134 59.8748 87.785 59.1846 87.8444 60.0203C88.1093 59.9578 88.432 59.656 88.5173 60.5868C88.2408 60.6792 87.9875 60.807 87.697 60.8786C87.9626 62.0362 87.5357 62.563 87.8444 63.9217C88.0398 64.7837 88.7335 65.9645 87.6648 66.5214C87.6366 67.152 87.9028 66.9518 87.9626 67.1384C88.2458 68.0189 87.739 68.6738 87.7092 68.8379C87.5181 69.8844 87.6936 70.3535 87.4543 71.2061C87.6522 71.1599 87.8395 71.1347 88.0324 71.0977C87.736 70.3166 87.7499 69.921 87.8137 68.8256C87.8534 69.193 87.8941 69.5605 87.9338 69.9278C88.0944 69.8677 88.255 69.8082 88.4147 69.7505C87.7822 66.3625 88.7816 67.1528 89.0001 69.9931C88.703 70.238 88.4066 70.4918 88.1086 70.7344C88.559 72.3752 88.168 73.1473 88.0744 75.0029C88.0637 75.2235 88.2349 76.027 88.2434 76.3723C88.2445 76.3666 88.2456 76.3608 88.2468 76.3551C88.5274 76.5699 88.6566 76.2789 88.9074 76.2442C88.9388 76.4314 88.9702 76.6187 89.0016 76.8058C88.8104 77.2238 88.6534 77.0768 88.6989 77.8994C88.8893 77.7885 89.0798 77.679 89.2702 77.5681C89.2742 78.1191 89.1985 78.5537 89.1594 79C89.1343 79.3178 89.1124 79.6349 89.115 80.0003C89.0572 79.8378 88.9955 79.6786 88.9308 79.5213C88.5595 81.4865 87.6446 79.7655 87.9467 81.2553C87.8317 81.3211 87.7157 81.3817 87.5998 81.4417C87.715 80.89 87.7825 80.3311 87.8017 79.7742C87.6648 79.7521 87.5285 79.7297 87.3913 79.7108C87.3901 80.2848 87.3372 80.8651 87.2295 81.4363C87.2475 81.0041 87.2354 80.5722 87.1938 80.1537C87.0478 80.7936 86.8345 81.4105 86.5614 81.9913C87.2627 81.4938 87.0354 82.3744 87.5617 82.383C86.7063 83.4381 85.8808 83.9521 84.9265 85.5343C84.7231 85.8351 85.1171 85.9903 84.0439 86.351C84.6217 86.6199 83.6739 87.6667 84.1004 87.9989C84.4269 87.7465 84.7551 87.4739 85.0352 87.1912C84.565 87.343 84.2184 86.9781 84.5964 86.455C85.0771 85.8009 86.0752 85.1027 85.593 84.7939C85.8015 84.5643 85.9786 84.3355 86.1578 84.0915C86.2104 84.2711 86.2603 84.4522 86.3043 84.6362C86.6212 83.7713 86.8997 83.3262 87.4026 83.062C87.0441 84.0956 86.5134 85.0802 85.8309 85.9673C85.9581 85.8605 86.085 85.7485 86.2071 85.6344C85.9142 86.5157 86.8194 86.0947 85.6666 87.3439C85.5628 87.2156 85.4571 87.0888 85.3521 86.9604C85.2422 87.7143 83.8109 88.6871 84.5444 88.7972C84.0124 88.9608 83.8769 88.919 83.7485 89.3071C82.3128 89.6561 81.3659 89.3879 81.5969 88.7044C81.1996 88.9516 80.7775 89.1749 80.3411 89.3688C80.6416 89.4641 80.9531 89.5453 81.2716 89.6135C80.4492 89.8567 79.5932 90.0034 78.7427 90.0503C78.6356 89.6147 80.332 89.7082 79.7861 89.3607C79.6798 89.2957 79.2743 89.5356 79.1514 89.4986C77.9142 89.0961 79.8118 89.2875 79.4085 88.9259C78.1966 88.9767 78.5049 88.5697 78 88.5784C77.7786 88.5747 77.4065 88.6323 76.7047 88.7971C76.6423 88.6613 76.5753 88.5228 76.5175 88.3879C75.6976 88.3798 75.7641 88.6864 75.0594 88.7444C74.6181 88.7804 74.0641 88.242 73.5767 88.6086C73.4898 88.6762 74.3097 89.3343 72.5865 89.3054C71.2491 89.2829 71.8058 88.8178 71.0829 88.653C70.3595 88.4883 68.7048 89.1332 68.2171 88.4021C68.596 88.4989 69.0786 88.5512 69.4991 88.6306C69.6701 88.4882 69.8366 88.3474 70.0053 88.2058C69.0439 88.3896 68.0502 88.173 67.4031 88.5124C66.1205 87.9933 64.6861 88.475 65.0743 89.0612C65.4965 88.9767 65.0372 88.7211 65.6236 88.884C65.6836 89.0206 65.747 89.1565 65.807 89.2932C64.8087 89.2766 64.1153 89.2804 64.5706 88.864C64.4158 88.854 64.2624 88.8441 64.1076 88.8342C64.0798 89.1356 64.0552 89.438 64.0275 89.7394C63.8426 89.7734 63.657 89.807 63.4721 89.841C63.2665 89.7748 63.0605 89.7078 62.8526 89.6408C63.1323 89.1639 63.6086 89.1481 62.0325 88.8816C62.0278 89.0463 62.0211 89.2104 62.0164 89.3752C60.6969 89.1657 60.6621 88.7666 59.0054 88.7815C60.2764 88.2094 60.9718 89.2234 60.9672 88.0759C61.2861 88.1513 61.6076 88.2276 61.9265 88.303C61.9751 88.1366 62.0232 87.9699 62.0694 87.8035C60.3571 87.8913 57.5127 88.9857 56.3663 88.26C56.2276 88.3486 56.0885 88.4255 55.9476 88.5207C54.8244 88.0827 54.3394 89.066 53.2 88.4997C53.0825 88.4403 53.3285 87.5165 51.8454 87.5496C51.8823 87.6697 51.9016 87.8717 51.9316 88.0232C51.6105 87.9495 51.291 87.8725 50.9722 87.7971C50.9145 87.908 50.8539 88.0189 50.7961 88.1306C51.3438 88.1737 51.89 88.2174 52.4377 88.2605C51.9826 88.2986 51.5246 88.3367 51.0695 88.3747C51.6633 88.556 51.9311 88.5579 51.5732 88.8484C51.0579 88.8657 50.5418 88.8842 50.0264 88.9016C49.9734 88.976 49.9206 89.0513 49.8676 89.1257C50.1171 89.3475 50.3692 89.5645 50.6188 89.7897C49.2762 89.6084 48.1089 89.5986 47.0782 89.1623C46.9026 89.0886 47.5237 88.7996 46.327 89.0603C46.3085 88.9072 46.2763 88.7829 46.2555 88.6413C44.7904 89.0702 44.309 88.9422 42.7814 88.6325C43.7706 88.9215 42.888 88.7336 42.6361 88.8884C42.4635 88.9951 43.1372 88.9793 43.061 89.091C42.9847 89.2019 42.1094 89.6499 42.8578 89.7038C44.6927 88.7856 45.1926 89.8834 47.5499 89.4421C47.187 89.5605 46.8216 89.6791 46.4587 89.7975C46.6296 89.8778 46.7826 89.9506 46.9674 90.0358C45.6526 89.8562 46.2921 89.9729 45.7519 90.1144C45.2111 90.256 44.2282 90.3763 43.5696 90.4152C43.3621 90.4274 43.581 90.2215 43.1127 90.2023C42.7938 90.189 41.9223 90.4943 41.7211 90.1344C41.5894 89.9001 42.9895 89.255 41.0536 89.2565C40.6892 89.0268 41.6174 89.0982 41.6374 89.0705C41.8061 88.7973 40.616 88.5919 40.066 88.8005C40.0214 88.8185 40.4558 89.0314 39.9834 89.1149C38.8626 89.3145 38.2153 89.0703 37.4896 88.74C37.4111 89.1274 36.4678 89.5902 35.2938 89.447C35.2338 89.5578 35.1766 89.6697 35.1165 89.7814C35.2988 89.7227 35.481 89.6648 35.6633 89.6061C35.862 89.6757 36.0726 89.7263 36.2667 89.8083C35.0861 89.9035 34.9191 90.4376 34.353 90.6329C32.4156 91.3004 33.5898 89.8885 33.9392 89.6452C34.1911 89.7437 34.4347 89.8537 34.6842 89.9572C34.6565 89.8222 34.6284 89.6862 34.603 89.5505C31.7027 89.5546 34.1613 88.6744 32.6892 88.4236C32.3102 89.0875 31.229 89.1515 29.8518 88.7302C29.6993 88.7335 29.5462 88.7344 29.3937 88.7385C29.3683 88.8353 29.3687 88.9833 29.3272 89.0471C27.6678 89.1597 27.3723 88.1372 27.2151 88.0403C26.5173 87.6107 25.9738 88.2051 25.7681 88.2102C24.9015 88.2309 24.6497 87.9669 23.8248 88.0803C22.9375 88.2028 23.5442 88.4054 23.2743 88.5866C23.0578 88.7306 22.3578 88.7563 22.0686 88.9055C22.1835 88.7834 22.3112 88.6637 22.4258 88.5412C21.5062 88.3749 20.7547 88.2127 19.7103 88.1721C18.5318 89.0651 17.529 87.5587 17.9357 88.7805C18.9248 88.8641 19.4778 89.0033 20.0071 89.3146C19.3578 89.3544 18.7081 89.3931 18.0588 89.4328C17.8694 89.2987 17.7349 89.168 17.5108 89.0314C17.0256 89.3162 15.9007 89.194 15.4591 89.2775C13.7956 89.5925 13.8839 89.9683 13 89.6787C12.7692 89.6079 12.4828 89.4924 12.1144 89.3011C12.4955 89.3114 12.7716 89.2721 13 89.22C13.6007 89.0779 13.8655 88.8773 14.8507 88.9172C14.5595 88.634 13.8738 88.6927 14.3175 88.3533C13.0819 88.4324 13.3937 88.7081 13 88.9654C12.9776 88.98 12.9529 88.9945 12.9254 89.0087C12.4844 89.2498 11.5742 89.162 11.5844 89.4612C11.5122 89.2842 11.4653 89.1151 11.4011 88.9374C10.5597 88.8048 9.73746 88.5633 8.9567 88.2222C9.35864 88.2097 9.75073 88.171 10.1311 88.1102C9.90211 87.9696 9.682 87.8209 9.47076 87.6642C7.23931 87.5018 5.62997 84.1434 4.99008 85.4067C4.32655 84.6177 4.41734 84.387 4.36756 83.7976C4.24898 83.7957 4.14599 83.7851 4.01651 83.7851C3.80813 83.1621 3.25777 82.8396 3.16246 82.2385C3.07578 81.6414 3.4101 81.4207 2.79233 81.4813C2.87148 81.0627 2.94738 80.6646 3.06268 80.2795C2.89664 80.076 2.73863 79.8645 2.58676 79.6438C2.61683 79.4263 2.65356 79.2136 2.69667 79C2.72624 78.8589 2.75582 78.7177 2.78546 78.5768C2.49342 78.3915 2.6193 77.0286 2.42317 76.4278C2.73797 75.8574 3.72915 75.8731 3.55153 74.5312C3.3057 74.5659 3.06058 74.6 2.81475 74.6347C2.86607 74.3274 2.91723 74.0194 2.96855 73.7098C3.04879 73.6913 3.12903 73.6753 3.20926 73.6569C3.18443 73.814 3.15973 73.9689 3.13407 74.1261C3.26985 73.9897 3.40501 73.8562 3.54079 73.7221C3.33964 73.2531 3.13846 72.7834 2.9373 72.312C2.785 72.9474 2.6326 73.5831 2.4803 74.2184C2.29981 73.4211 2.47984 72.8662 2.27865 72.1729C2.61804 71.5698 2.81361 71.7925 3.18192 72.0374C3.15047 71.8133 3.12011 71.5866 3.08866 71.3625C3.45703 71.5104 3.67652 71.1313 3.64674 72.4414C3.75181 72.3513 3.85198 72.2594 3.96118 72.1717C3.94462 71.9568 4.03343 71.8174 3.99292 71.5818C3.88197 70.9393 3.23496 70.4467 3.0081 70.4906C2.88927 70.5143 3.11653 71.1478 2.94853 71.1224C2.53887 71.0597 2.7228 69.6066 2.31136 71.7024C2.05056 71.0068 2.24724 70.8515 2.32259 70.0842C2.18608 70.1443 2.05043 70.2026 1.91392 70.2603C1.97682 69.9046 2.03949 69.5484 2.10239 69.1926C2.80362 69.6872 3.06699 67.0641 3.68043 69.4254C3.71189 68.7276 3.74351 68.0322 3.77662 67.3367C3.84863 67.48 3.91992 67.6233 3.99194 67.7665C3.95386 68.0808 3.9164 68.3932 3.87915 68.7074C4.01075 68.3378 4.14158 67.9675 4.27318 67.5978C4.11007 66.7243 3.85922 66.3819 3.54958 65.9821C3.32362 66.9987 3.63227 66.6665 3.69361 67.4587C3.49752 67.431 3.31715 67.4675 3.11112 67.3983C3.5173 66.989 3.22181 65.6538 3.20194 65.3441C3.14161 64.4018 3.5407 65.1408 3.54909 64.5104C3.55737 63.8795 3.31983 63.1354 3.71559 62.62C3.49377 62.6293 3.26427 62.6705 3.0623 62.7075C2.98944 61.7253 3.25149 61.9212 3.28543 61.8196C3.84344 60.1972 3.37234 59.317 3.31522 57.4612C3.24651 57.6969 3.18448 57.935 3.11991 58.173C2.64895 56.773 2.79316 57.7162 2.63751 58.9317C2.68471 57.7923 2.28362 57.1399 2.16439 56.3356C2.04537 55.5315 2.25137 54.1525 2.41194 53.6485C2.67026 54.8017 2.49991 56.0455 2.57111 57.3258C2.79708 57.1802 2.98832 57.0387 3.23661 56.8886C2.76234 56.1099 3.07945 55.6586 3.14237 55.4021C3.32691 54.6489 2.91985 54.6726 3.35769 54.2174C3.20707 54.2359 3.08043 54.2494 2.93975 54.2679C3.00267 52.7127 3.26895 51.0351 2.71271 50.0229C3.07448 49.9304 3.42302 49.8607 3.79224 49.7544C3.51992 49.0959 3.79879 48.5319 3.73512 47.9773C3.67137 47.425 3.379 47.6353 3.26639 46.986C3.24569 46.8658 3.42869 46.6155 3.29373 46.3197C3.15806 46.021 2.14933 44.9194 3.03056 44.7877C3.03471 44.2308 3.06693 43.7038 3.08183 43.1584C3.1315 43.6899 3.17961 44.2216 3.22928 44.7508C3.44286 44.2979 3.65581 43.8478 3.86939 43.3949C3.67896 43.3371 3.48509 43.2792 3.29715 43.2237C3.06533 42.0035 3.37668 41.118 3.30301 39.8863C3.29059 39.6806 2.9141 40.1658 3.01005 39.2533C3.10609 38.3405 3.80879 37.6631 3.53737 36.108C3.5233 36.0294 2.98512 35.5689 3.35769 35.012C3.44213 34.8852 3.56708 35.4187 3.67799 35.1277C3.78893 34.8365 3.88016 33.5373 4.14428 33.4356C4.05075 33.4495 3.95383 33.5306 3.85865 33.5699C3.81395 33.3481 3.76922 33.124 3.72535 32.8999C3.89009 32.8791 4.05507 32.8567 4.21898 32.8359C3.83566 31.5603 3.21036 30.901 3.41726 29.0108C3.17801 29.5423 2.9378 30.074 2.69855 30.6032C2.86662 30.7488 3.03582 30.8946 3.20389 31.0379C3.13684 31.909 3.07027 32.7825 3.00322 33.6536C3.19447 33.7969 3.38518 33.9377 3.57643 34.0809C3.5516 34.312 3.52754 34.5408 3.50271 34.7718C3.36445 34.7141 3.22692 34.6558 3.08866 34.5957C3.1226 35.0532 3.15726 35.5112 3.1912 35.9664C2.3751 35.0397 3.26061 33.3786 2.57795 33.4984C2.68387 33.2929 2.79052 33.087 2.89727 32.8815C2.56625 32.7913 2.66152 32.3733 2.71368 31.6364C2.55058 31.8051 2.3897 31.9914 2.22494 32.1462C2.45508 31.4298 2.43273 30.159 2.52131 29.4172C2.56022 29.0914 2.80021 29.4168 2.82842 29.3199C2.9758 28.8231 2.55704 27.8734 2.59015 27.6746C2.78724 26.4868 3.58115 25.7149 3.0579 24.4185C2.92875 25.7566 2.9833 25.0286 2.69269 25.5047C2.60157 25.6537 2.4115 27.3824 2.49592 25.2177C2.50648 24.964 3.05502 21.0363 3.47536 22.3274C3.34124 21.6919 3.18615 21.1943 3.04374 20.6119C4.15153 19.1883 3.11085 19.681 2.53791 20.0947C2.53543 19.8612 2.52961 19.6392 2.52961 19.3988C3.13152 19.9096 3.1689 17.3076 2.86504 16.4247C2.76403 16.129 2.57137 16.956 2.4803 16.272C2.52251 15.9463 2.57716 15.5768 2.62433 15.2326C2.24351 15.7318 2.09675 14.7522 1.70934 14.7659C1.89023 14.4378 2.17724 14.15 2.46656 14C2.72731 13.8571 2.98954 13.8436 3.17726 14C3.17914 14.0016 3.18102 14.0032 3.1829 14.0048C3.1824 14.0032 3.1819 14.0016 3.1814 14C3.02125 13.4921 2.90022 12.9587 2.82262 12.4094C2.69401 12.6386 2.57328 12.8827 2.46117 13.1269C2.77291 11.3928 3.26276 9.03937 4.18286 9.12967C4.28722 8.92915 4.40011 8.73078 4.51795 8.53751C4.4404 8.40423 4.36343 8.27083 4.29017 8.13367C4.98482 7.31724 5.79209 6.62517 6.66984 6.07583C6.01779 6.73101 6.01039 7.00801 5.27362 7.62007C5.62848 7.43869 5.99295 7.27966 6.34831 7.15488C7.07245 5.94897 7.08268 5.45624 9.10934 4.65144C9.20408 4.58289 10.852 4.44341 10.9057 4.5002C11.1782 4.60414 10.8668 4.90761 10.9897 4.96315C11.3478 5.07069 13.0518 5.50121 12.9996 5.62033C12.7909 6.13913 11.4466 6.41524 10.2093 7.08925C8.94844 7.72323 7.85445 8.7686 7.47843 9.2775C6.4089 10.6357 5.85428 12.3149 5.89173 14C6.11165 29.5799 5.56273 44.9276 5.6735 60.4895C5.67547 60.6737 5.82996 60.5933 5.83657 60.6718C5.87538 61.1593 5.6346 61.6381 5.62467 61.8183C5.6042 62.2034 5.82665 61.9914 5.82681 62.2728C5.82433 65.18 5.69352 67.9234 5.7316 70.833C5.73408 71.0225 5.5561 70.829 5.58756 71.1618C5.60479 71.3336 5.87785 71.8714 5.88198 72.2591C5.89605 73.6133 5.80851 74.7508 5.81265 76.179C5.81512 76.9585 5.792 78.1272 5.79602 79C5.79603 79.0013 5.79604 79.0026 5.79605 79.0039C5.79784 79.287 5.93965 79.5668 5.97511 79.8326C6.02923 80.2094 5.77416 80.1735 5.76697 80.236C5.74648 80.5132 6.02704 80.4942 6.07764 80.7331C6.18395 81.1773 6.0078 81.2621 6.24307 81.8137C6.40611 82.2141 7.01249 82.9907 7.38026 83.3654C7.95208 84.4972 9.37035 85.4125 10.4747 85.7179C11.1258 85.9057 11.1271 86.1516 11.4072 86.2195C11.984 86.3417 12.5049 86.2735 13 86.1777C13.4927 86.1083 13.9864 86.0478 14.5231 86.0433C16.2282 86.0293 17.7393 86.2487 19.3913 86.2645C19.6592 86.267 19.5977 86.0289 19.8605 86.0228C20.8335 86.0005 22.0776 85.9571 22.9442 85.9911C23.9101 86.0284 24.2663 86.3739 25.2114 86.3036C25.4885 86.2827 25.5697 85.9797 26.0341 85.9408C26.7758 85.8796 27.5891 86.1468 28.1067 86.1766C28.8162 86.2163 28.1992 85.9077 29.156 85.9491C29.1953 85.9509 29.3385 86.1715 29.5439 86.161C30.1425 86.1312 30.083 85.9574 30.9589 85.974C31.043 85.9763 32.2043 86.1865 32.3197 86.1873C32.9991 86.1907 34.367 86.2643 34.7692 86.2196C36.2067 86.0606 35.075 85.7287 36.2975 86.4491C36.8358 86.2728 37.3697 86.0941 37.9404 85.9227C37.5595 86.0825 39.1051 86.3131 39.2137 86.2982C40.1122 86.1781 39.577 85.8978 40.7162 85.9442C39.2117 86.5916 42.1859 86.0276 42.8492 86.0111C46.0428 85.9308 48.9458 86.0924 52.1557 86.0882C53.2303 86.0865 54.6703 85.9497 55.8072 85.953C56.0722 85.9532 55.8719 86.1064 56.1052 86.1097C56.3379 86.112 56.0797 85.94 56.3453 85.9491C57.9976 86.0087 59.2922 86.3333 60.8059 85.9276C60.8796 85.9863 60.8772 86.0326 60.9992 86.097C62.2379 85.7336 64.6234 86.2223 65.5201 86.2894C66.9225 86.3937 67.2808 86.148 68.2996 86.1976C69.6469 86.2638 71.6697 86.7438 70.7663 85.9515C71.6906 85.9267 72.5804 85.9198 73.5139 85.9935C73.6178 86.0019 73.5462 86.2032 73.5878 86.2074C73.8511 86.2363 73.9369 86.056 74.1148 86.0477C74.5973 86.0254 73.81 86.2413 74.4978 86.181C74.8607 86.1487 75.0667 85.9915 76.0742 85.9881C76.7107 85.9863 77.353 85.9853 78 85.985C81.629 86.1112 85.1388 82.7441 85.0479 79C85.0499 78.5791 85.0518 78.1596 85.0536 77.7418C85.0552 77.3142 84.8605 77.5957 84.8729 77.0595C84.916 75.1969 85.2437 71.8628 85.1991 70.2566C85.1544 68.6506 84.8696 69.0129 84.7504 68.0079C84.7272 67.8138 84.8895 67.9729 84.892 67.7973C84.9069 66.6164 85.16 65.2085 85.1981 64.2518C85.2236 63.6191 84.9683 63.6697 84.9501 63.2308C84.9236 62.5768 85.1815 61.9037 85.1898 61.5548C85.2262 59.9142 85.0184 58.7863 85.1244 57.2543C85.0682 57.3142 85.0162 57.3538 84.9608 57.4046C84.9699 55.5906 84.979 53.7789 84.9881 51.965C84.9368 52.0505 84.885 52.1331 84.8329 52.2186C84.861 50.0903 85.4174 50.3332 84.2426 50.5204C84.2012 50.3656 84.1532 50.2015 84.1151 50.0536C84.7203 50.1137 85.1632 48.8263 85.3172 47.1879C85.3288 47.0677 84.7387 46.2614 85.4359 46.3493C85.2653 46.139 85.1478 46.0137 84.9979 45.8357C85.209 45.4892 85.4175 45.1379 85.6278 44.7914C85.5963 44.6042 85.566 44.4145 85.5345 44.2274C85.3979 44.1996 85.256 44.2209 85.1219 44.1609C85.1012 43.292 85.2701 41.51 85.2528 40.8235C85.2089 39.1179 84.8395 37.3816 85.2386 36.055C85.1979 35.4089 84.9298 36.0506 84.9637 35.0895C85.0995 34.9809 85.2296 34.8789 85.3695 34.7656C84.7629 33.9802 85.1319 33.8161 85.2586 32.7398C85.3447 32.0119 85.1965 31.5352 85.2254 30.842C85.2329 30.6664 85.4109 30.6913 85.4051 30.5711C85.3868 30.1686 85.1417 29.0203 85.1351 28.7362C85.0705 26.1619 85.098 23.9504 85.1634 21.4985C85.17 21.2351 84.9944 21.5767 85.0018 21.304C85.0135 20.8653 85.2835 21.1234 85.2967 20.8692C85.3321 20.1603 85.0475 20.1549 85.0326 19.1661C85.0081 17.5319 85.0497 15.7749 85.0997 14C85.1538 12.7393 84.8617 11.458 84.2529 10.3937C84.2142 10.3272 84.073 10.4161 84.0297 10.3475C83.7514 9.90279 83.591 9.33185 83.2397 8.97034C82.6538 8.37679 82.0168 8.19093 81.336 7.81407C80.282 7.24853 79.2082 6.90514 78 6.86473C77.5268 6.85476 77.0448 6.8478 76.5485 6.84634C74.7044 6.84054 73.1027 6.86279 71.0806 6.86196C62.2479 6.85865 53.2348 7.38808 44.342 7.10658C44.1157 7.09914 44.2078 6.95177 44.1388 6.95815C43.4825 7.0219 43.4239 7.22074 43.1905 6.80435C42.3545 6.88641 42.0906 7.19924 41.081 7.17689C40.5428 7.16517 40.9446 6.68032 40.0342 6.93032C39.2121 7.15633 40.1193 7.42205 37.6746 7.15052C37.6099 7.14306 37.2913 6.84752 36.783 6.92446C36.2722 7.00063 36.8634 7.21225 35.634 7.27601C32.7477 7.42502 29.0942 7.16955 25.7388 7.24818C25.5285 7.25314 23.5031 7.41114 23.1033 7.484C22.3296 7.62557 22.4913 7.8452 21.4864 7.89902C20.7098 7.94042 20.0692 7.69164 19.1563 7.74132C19.05 7.74735 18.8719 8.00325 18.1859 7.96933ZM64.11 90.0011C63.9205 90.2522 63.5785 91.1764 62.4327 90.8951C62.3241 90.8686 62.9104 90.2331 62.2775 90.132C62.8969 90.0649 63.4999 90.0432 64.11 90.0001C64.11 90.0005 64.11 90.0008 64.11 90.0011ZM13.2192 2.07656C14.0766 2.12292 14.9369 2.16886 15.7943 2.21522C15.2027 2.32699 14.6102 2.43855 14.0209 2.55114C13.7529 2.39304 13.4872 2.23466 13.2192 2.07656ZM89.4845 40.241C89.4845 40.2401 89.4845 40.2393 89.4845 40.2385C89.6037 41.1398 89.7232 42.0416 89.8424 42.9429C89.7546 42.8481 89.6665 42.7532 89.5787 42.6584C89.4405 41.9468 89.3024 41.2348 89.1642 40.5254C89.271 40.4307 89.3777 40.3357 89.4845 40.241ZM88.5553 33.1203C88.6597 32.5449 88.8356 32.6857 89.007 32.3691C89.0067 32.3691 89.0063 32.3691 89.006 32.3691C89.0506 32.2855 89.0897 31.8964 89.0963 31.746C88.9862 31.8014 88.8775 31.8731 88.7682 31.9332C88.5016 30.5905 89.449 27.9647 89.8307 31.3642C89.6916 31.3134 89.5533 31.2648 89.4142 31.214C89.4531 32.9033 89.1515 34.7866 88.5553 33.1203ZM50.5264 90.4015C49.0844 90.8569 48.6219 90.9529 46.8725 90.6407C47.1196 90.5117 47.3668 90.3826 47.6139 90.2536C47.9028 90.3852 48.1896 90.5159 48.4784 90.6476C48.4792 90.6476 48.4801 90.6476 48.4809 90.6476C48.5387 90.5093 48.5966 90.3708 48.6521 90.2326C49.276 90.2889 49.9025 90.3452 50.5264 90.4015ZM57.6276 3.11557C57.2256 2.2061 57.3416 2.73474 58.4896 2.52966C58.8871 2.45846 58.4997 2.29933 58.747 2.27284C60.0824 2.12812 60.1892 2.73746 59.8911 3.05454C59.1354 3.07606 58.3719 3.0957 57.63 3.11557C57.6292 3.11557 57.6284 3.11557 57.6276 3.11557ZM22.9814 3.30452C22.9806 3.30452 22.9798 3.30452 22.979 3.30452C22.9443 3.08269 23.4826 3.02302 22.8755 2.81285C23.3374 2.81368 23.7992 2.81544 24.2634 2.81627C24.1273 2.83693 23.9882 2.85663 23.8521 2.8773C23.9723 2.95347 24.0928 3.03061 24.2129 3.10678C24.377 2.8518 24.5294 3.00001 25.0146 3.0853C24.8806 2.81291 24.7472 2.54034 24.6132 2.26795C25.1769 2.34907 25.7428 2.43048 26.3065 2.51159C26.3134 2.58024 26.3205 2.649 26.3274 2.71764C26.54 2.62991 26.7504 2.54122 26.9629 2.45349C27.0207 2.53544 27.0763 2.61665 27.1341 2.6986C27.3905 2.63652 27.6473 2.5745 27.9038 2.51159C27.9818 2.7101 27.4167 2.7959 28.4185 2.74547C28.1112 2.94911 27.8045 3.15215 27.4949 3.35579C25.9905 3.33923 24.4858 3.32191 22.9814 3.30452ZM68.072 2.8358C66.4151 2.87388 66.8818 2.73001 67.2654 2.27967C67.5334 2.46507 67.804 2.6504 68.072 2.8358ZM88.7633 73.7295C89.0705 74.2102 89.3746 74.6929 89.671 75.1851C89.8424 76.165 89.2825 77.1452 89.0631 76.408C88.7999 75.5206 89.0945 74.5938 88.7633 73.7295ZM76.6616 89.9001C77.8604 90.0425 76.7325 90.4075 76.4621 90.6202C76.1305 90.2783 75.668 90.3085 74.9252 90.2687C75.6227 90.2465 76.4634 89.8759 76.6616 89.8991C76.6616 89.8994 76.6616 89.8997 76.6616 89.9001ZM89.1085 54.4366C89.0994 53.9562 89.0136 53.4783 89.1178 53.0487C89.4115 53.1783 89.1443 54.0376 89.5797 53.4231C89.5872 53.7304 89.5944 54.038 89.6027 54.343C89.4223 54.1492 89.2874 54.4099 89.1095 54.4354C89.1092 54.4358 89.1089 54.4362 89.1085 54.4366ZM84.6197 4.58259C85.2844 5.50488 85.502 5.49619 86.444 6.11607C86.3372 6.40635 85.1299 5.83087 84.4611 5.48213C84.524 5.18683 84.5777 4.88715 84.6197 4.58259ZM1.63463 26.9763C1.99552 27.2028 2.04258 28.873 1.93589 29.7029C1.88237 29.6041 1.82813 29.5049 1.77379 29.4061C1.72742 28.5973 1.681 27.7852 1.63463 26.9763ZM74.5717 90.2443C74.6961 90.2548 74.8139 90.2627 74.9252 90.2687C74.8015 90.2726 74.6821 90.2665 74.5717 90.2443ZM24.3703 88.6779C24.7653 88.3377 23.5911 88.2234 25.0169 88.3567C25.0169 88.3564 25.0169 88.356 25.0169 88.3557C25.9598 88.4435 26.1679 88.4669 27.0415 88.4934C26.727 88.9305 24.9548 89.0867 27.3974 89.1769C27.4295 89.1773 27.3655 88.9173 27.7558 88.9528C27.8762 88.9639 28.2617 89.1773 28.8481 89.2394C29.0376 89.2593 30.4616 89.3251 28.5205 89.3293C28.5783 89.634 28.474 89.9424 28.4786 90.2379C27.7209 90.3238 27.1386 89.7272 26.337 89.7419C25.1469 89.765 24.5412 90.3683 24.3124 89.5768C25.3132 89.3824 27.0316 89.3777 27.2558 89.8537C28.2239 89.8595 28.5019 89.4695 27.7213 89.2766C24.3772 89.5216 26.8033 88.6977 23.8753 89.009C23.8406 89.1191 23.7202 89.2375 23.7386 89.341C22.8448 88.9536 24.2294 88.7996 24.3703 88.6779ZM31.3629 89.5197C30.7851 89.7524 30.2093 89.9869 29.6338 90.2204C29.6338 89.8412 29.9511 89.5009 30.8616 89.2873C31.0279 89.3651 31.1966 89.4428 31.3629 89.5197ZM2.38069 64.471C2.17454 64.3878 1.98563 64.166 1.78941 64.0043C1.96327 63.8286 2.13007 59.6687 2.30062 61.7851C2.32546 62.0924 1.96093 63.9672 2.38069 64.471ZM77.5793 2.80015C77.7197 2.83977 77.8599 2.8794 78 2.91905C78.3873 3.01777 78.762 3.13641 79.1241 3.27311C78.7474 3.27497 78.3724 3.29704 78 3.33842C77.5974 3.38624 77.1948 3.43434 76.7924 3.48225C77.0554 3.25494 77.3163 3.02746 77.5793 2.80015ZM88.0258 81.78C88.0897 81.5703 88.1765 82.3521 88.3528 81.5002C88.3767 82.1727 88.323 82.814 88.213 83.489C88.0101 83.6169 87.8052 83.7375 87.599 83.848C87.6085 84.02 87.6119 84.1957 87.6123 84.3713C87.4865 84.1959 87.3569 84.0348 87.224 83.8611C88.0726 83.1044 87.7268 82.6666 88.0258 81.78ZM87.6374 51.9502C88.0621 51.7702 88.3146 53.2192 88.3825 51.7938C88.6615 52.0642 88.8078 52.4989 88.8327 53.3332C88.726 53.4671 88.6201 53.6007 88.5134 53.7346C88.7989 53.7531 88.905 53.9678 89.1085 54.4366C89.1082 54.437 89.1079 54.4374 89.1076 54.4378C89.1282 55.7061 89.033 55.6303 88.5636 55.9354C88.8286 54.5927 88.3997 54.5525 88.1447 53.6374C87.9694 53.0088 88.0488 52.1882 87.6374 51.9502ZM2.38557 68.9032C2.02711 67.9538 1.69276 68.8058 2.07358 67.1212C2.16465 67.2298 2.25495 67.339 2.34603 67.4476C2.3601 67.9328 2.37316 68.418 2.38557 68.9032ZM89.0929 47.2643C88.4356 47.3729 87.9239 48.2668 88.9933 48.4194C89.2111 47.5482 88.6053 47.9737 89.0929 47.2643ZM77.0705 88.8708C77.5048 88.8788 77.8052 88.9345 78 89.0192C78.455 89.2105 78.3655 89.5662 78 89.8424C77.9234 89.9049 77.8354 89.9631 77.7404 90.0143C77.6341 89.8794 77.5279 89.7442 77.4239 89.61C77.1304 89.6713 76.8369 89.7327 76.5434 89.7931C76.719 89.486 76.8948 89.178 77.0705 88.8708ZM88.3708 17.7289C88.8402 19.0092 88.6319 16.3468 88.925 17.2412C89.1592 17.9553 88.6862 18.8963 88.3898 18.5405C88.3815 18.2932 88.3758 18.0179 88.3708 17.7314C88.3708 17.7305 88.3708 17.7297 88.3708 17.7289ZM88.5051 25.1377C89.0066 24.9275 88.8604 25.2305 88.7702 24.219C88.7445 23.9301 88.9329 21.6346 88.5173 22.5983C88.5173 23.4185 88.51 24.2851 88.5051 25.1377ZM57.7049 89.6047C57.6895 89.3862 59.4571 88.9066 59.684 89.0266C59.684 89.0262 59.684 89.0259 59.684 89.0256C60.2964 89.3526 58.4318 89.3991 59.2406 89.8478C57.4497 89.453 56.9139 90.408 57.0387 89.1496C58.0937 89.0944 57.5942 89.3538 57.7049 89.6047ZM6.53692 5.93206C6.53758 5.93153 6.53824 5.931 6.53891 5.93047C6.43414 5.98367 5.45969 6.43995 5.47378 6.28364C6.47749 5.4943 6.41181 5.82354 7.18962 4.87158C7.30441 4.93086 7.40838 4.99356 7.52507 5.05394C7.17246 5.35297 7.04326 5.5971 6.53692 5.93206ZM2.8211 59.9735C2.87823 60.4057 2.64151 61.1943 2.65558 61.6866C1.74652 60.1197 2.59423 58.2473 2.8211 59.9735ZM39.1857 3.27328C39.1869 3.27295 39.1881 3.27262 39.1894 3.2723C39.189 3.27279 39.1885 3.27327 39.1881 3.27376C39.1873 3.2736 39.1865 3.27344 39.1857 3.27328ZM11.6667 89.6421C11.6147 89.5762 11.5885 89.5209 11.5826 89.4747C11.5832 89.4705 11.5837 89.4663 11.5843 89.4621C11.6084 89.5211 11.635 89.5809 11.6667 89.6421ZM54.0313 89.6706C53.2951 89.366 55.748 88.8817 56.5411 88.9973C56.4857 89.1363 56.4771 89.2624 56.3478 89.4221C55.7076 89.062 54.1538 89.7219 54.0313 89.6706ZM88.5588 62.7542C88.5505 64.6932 87.3477 62.1698 88.3073 62.0658C88.3259 62.0697 88.5571 62.7042 88.5588 62.7542ZM69.3218 89.5446C69.8158 89.1805 68.823 89.0838 70.4104 89.1467C70.5028 89.241 70.5951 89.3355 70.6875 89.4299C70.2324 89.4679 69.7769 89.5065 69.3218 89.5446ZM86.9797 75.4561C87.1086 77.0069 87.3002 78.5148 87.6804 79C87.8384 79.1969 88.0302 79.2332 88.2661 79C88.353 78.9159 88.4457 78.7974 88.5446 78.6408C88.5123 78.4561 88.4812 78.2688 88.4489 78.0841C87.959 78.0564 88.2264 77.3749 88.2424 76.3772C88.0479 76.235 88.0029 75.6818 87.8376 75.578C87.5181 75.3772 87.2935 76.0129 86.9797 75.4561ZM52.1375 4.22293C52.1768 4.13931 52.2152 4.05525 52.2545 3.97246C52.6404 3.87807 53.0274 3.78414 53.4133 3.68976C53.351 3.85024 53.2885 4.0107 53.2261 4.17118C52.8635 4.18856 52.5026 4.20604 52.14 4.22342C52.1391 4.22326 52.1383 4.2231 52.1375 4.22293ZM33.7409 88.4861C33.5192 89.4065 34.2939 89.237 35.8653 88.7717C35.1581 88.6765 34.4481 88.5813 33.7409 88.4861ZM87.3528 36.2422C87.6143 36.1914 87.8749 36.1414 88.1364 36.0883C87.864 35.254 87.5646 35.4089 87.2185 35.8087C87.2632 35.9542 87.3081 36.0968 87.3528 36.2422ZM87.2414 24.2251C87.1869 24.5712 87.398 24.3946 87.3938 24.4308C87.2828 25.3067 87.186 25.43 87.345 26.5047C87.4004 26.6363 87.4587 26.7658 87.5158 26.8975C88.0638 26.4007 87.7651 26.04 88.0871 24.9887C87.8992 25.1782 87.711 25.3669 87.5222 25.5564C87.5619 24.9718 87.6011 24.3897 87.6408 23.8052C87.5829 23.7358 87.5255 23.6664 87.4675 23.597C87.393 23.8049 87.3093 24.0195 87.2414 24.2251ZM47.6745 3.98515C47.106 3.96363 46.5349 3.94125 45.9664 3.91973C45.9456 4.05467 45.9256 4.19053 45.9048 4.32547C46.494 4.21207 47.0853 4.09855 47.6745 3.98515ZM22.0686 88.9055C22.0236 88.9533 21.9796 89.0015 21.9405 89.0505C21.9444 88.9908 21.9936 88.9442 22.0686 88.9055ZM8.18616 5.69584C8.76272 5.46215 9.54616 5.04487 10.2027 4.87169C10.045 4.532 8.43213 5.2613 7.8118 5.45551C7.7568 5.56114 7.94208 5.79313 8.18616 5.69584ZM79.3708 88.8065C79.5053 88.6174 79.6334 88.426 79.7489 88.2324C80.1125 88.1825 80.4761 88.1116 80.835 88.018C80.8041 87.8828 80.7721 87.7466 80.7401 87.6117C79.2749 88.2014 79.5088 87.682 78.7525 87.3891C78.9345 87.8675 79.1406 88.3403 79.3708 88.8065ZM29.586 4.86206C30.8362 4.76851 31.2797 4.59377 30.5749 4.17899C30.1337 4.27417 29.6898 4.36944 29.2486 4.46462C29.3618 4.59706 29.4751 4.72963 29.586 4.86206ZM3.5979 80.9141C3.27729 79.9659 3.80142 79.8785 3.52052 79C3.51353 78.9745 3.50598 78.9484 3.49782 78.9216C3.49292 78.9477 3.48802 78.9739 3.48312 79C3.38525 79.4978 3.32481 80.0089 3.30684 80.5269C3.40092 80.659 3.4988 80.7905 3.5979 80.9141ZM50.6114 87.0643C50.17 86.8706 49.3449 87.7911 48.104 87.1116C47.8083 87.3144 47.623 87.5081 47.3688 87.7068C47.2209 87.4907 47.0529 87.2719 46.9119 87.0574C46.9111 87.0574 46.9103 87.0574 46.9095 87.0574C45.784 87.1303 46.5137 87.4013 46.4883 87.6306C46.4764 87.7257 45.6411 87.5668 45.9021 87.7737C46.3527 88.1289 48.0366 87.9246 48.0412 88.3577C47.4496 88.2161 46.2944 88.3344 46.6361 88.6233C47.0104 88.9403 48.0991 88.409 48.7925 88.6721C47.799 87.98 49.8509 88.1938 50.0843 88.7253C51.2883 88.3171 50.1817 88.1506 48.9476 88.1697C49.701 87.7623 48.5921 87.9824 48.4095 87.6438C49.1863 87.4394 51.8523 87.6098 50.6114 87.0643ZM86.8147 65.2924C86.841 66.1246 86.6082 67.4246 86.9519 67.9943C87.1522 68.3262 87.3073 67.023 87.6218 67.9217C87.5911 67.1109 87.4683 66.9259 87.1926 67.0645C87.1595 66.8798 87.1272 66.6927 87.095 66.5079C87.1488 66.4224 87.2018 66.3347 87.2556 66.2493C87.1422 66.1522 87.0297 66.0546 86.9163 65.9599C86.9386 65.7636 86.961 65.565 86.9841 65.3687C86.9271 65.3457 86.8775 65.3063 86.8147 65.2924ZM3.38992 50.9675C3.39323 51.1985 3.39652 51.4273 3.40066 51.6583C3.4678 51.6329 3.53771 51.6026 3.6067 51.5734C3.66123 51.5524 3.71575 51.5315 3.77027 51.5106C3.57548 51.6444 3.25171 52.7452 3.45974 53.2088C3.5641 53.4419 3.93459 52.9115 3.99926 53.8997C3.98021 53.1835 3.92965 52.52 3.89819 51.8246C4.00831 51.887 4.1196 51.9469 4.22972 52.0093C4.22988 52.0089 4.23005 52.0085 4.23021 52.0081C4.25504 51.7771 4.28106 51.5433 4.30589 51.3123C4.00038 51.1967 3.69543 51.083 3.38992 50.9675ZM86.8357 36.9196C87.0518 37.7076 87.164 37.9714 87.5134 37.5994C87.5136 37.5985 87.5137 37.5977 87.5139 37.5969C87.3591 37.3035 87.2044 37.0098 87.0496 36.7164C86.9784 36.7834 86.9069 36.8502 86.8357 36.9196ZM15.2805 87.7522C13.6051 89.0794 17.3782 88.2658 16.6598 87.8137C16.6275 87.793 15.4377 87.8988 15.2805 87.7522ZM76.7626 88.4626C77.1742 88.453 77.5866 88.4442 78 88.4347C78.0461 88.4336 78.0921 88.4322 78.138 88.4304C78.0914 88.3571 78.0452 88.2837 78 88.2099C77.9412 88.1209 77.8823 88.0318 77.8241 87.9426C77.4706 88.1157 77.1162 88.2896 76.7626 88.4626ZM35.0293 5.46457C35.5133 5.82887 36.7558 5.96086 37.363 5.56467C37.0441 5.5183 36.7251 5.47188 36.4061 5.42551C37.0091 5.37999 37.6052 5.32989 38.2128 5.28685C38.2451 4.77932 37.5449 5.07376 36.4911 4.93384C36.3279 4.91127 35.2848 4.28129 34.9246 4.75611C34.8522 4.85371 35.9618 4.92007 35.1906 5.20384C35.5279 5.22617 35.8189 5.22122 36.1377 5.23363C36.1608 5.35451 36.1837 5.47552 36.2091 5.5964C35.8149 5.55263 35.4235 5.50834 35.0293 5.46457ZM86.8543 70.1372C86.8263 71.2802 87.029 71.4214 87.3874 71.6593C87.3469 71.1278 87.3069 70.596 87.2663 70.0645C87.1293 70.0899 86.9922 70.1118 86.8543 70.1372ZM45.2459 5.58078C45.8717 5.6394 45.6037 5.34768 45.8555 5.29222C46.8076 5.08361 47.457 5.2921 48.3974 5.16136C48.335 5.21766 48.2777 5.27029 48.2176 5.32493C48.2184 5.32493 48.2192 5.32493 48.22 5.32493C52.6731 5.5708 50.3341 4.90921 47.6696 5.01684C47.6072 4.90838 47.5472 4.79978 47.4848 4.69215C46.2924 4.88174 45.1928 5.06417 45.2459 5.58078ZM30.1658 87.7068C30.115 87.6389 30.5471 87.2075 29.736 87.4095C29.0937 88.0394 30.1471 87.7267 30.4109 87.969C30.1913 88.0294 29.9668 88.0882 29.7496 88.1487C31.0622 88.3267 31.2538 88.1769 30.7754 87.7166C30.7413 87.6856 30.2168 87.7745 30.1658 87.7068ZM21.5391 87.3963C21.3588 88.3244 23.0154 87.907 22.9553 87.6189C22.7266 87.6074 22.5489 87.7646 22.3063 87.6951C22.0614 87.6256 21.9988 87.4088 21.5391 87.3963ZM69.0004 87.6233C68.9518 87.6192 68.4643 87.2291 68.5127 87.5345C69.1159 88.2572 70.3312 87.792 70.1186 87.5403C69.7166 87.5528 69.4486 87.6612 69.0004 87.6223C69.0004 87.6227 69.0004 87.623 69.0004 87.6233ZM27.49 5.68331C27.5131 5.70921 28.7295 5.866 28.8865 5.72042C29.0159 5.55652 29.0801 5.38086 29.1772 5.21117C28.507 5.36848 27.1504 5.24864 27.4924 5.68331C27.4916 5.68331 27.4908 5.68331 27.49 5.68331Z" fill="#000F55"/>
</svg>
