<svg width="68" height="70" viewBox="0 0 68 70" fill="none" xmlns="http://www.w3.org/2000/svg">
<path d="M31.8937 1.70504C31.3636 1.34427 33.1334 1.58076 31.9582 1.04199C32.2032 1.00558 32.4498 0.968042 32.6949 0.931641C32.757 1.13117 32.8207 1.33022 32.8828 1.52976C32.5538 1.58851 32.2245 1.64726 31.8937 1.70602C31.8937 1.70569 31.8937 1.70537 31.8937 1.70504ZM31.4444 4.20394C31.746 3.63483 32.7042 3.48309 31.6691 2.95791C31.5868 3.15322 31.5025 3.3485 31.4202 3.54382C31.0609 3.39233 30.6992 3.24088 30.3399 3.09022C30.2106 3.16469 30.0815 3.23923 29.9523 3.31287C29.7877 2.97346 29.6246 2.63314 29.46 2.2929C29.6061 2.34258 29.7542 2.39312 29.9004 2.4428C30.4781 2.16718 30.9922 2.0918 31.7765 2.04047C31.7076 1.96016 31.6386 1.88056 31.5697 1.80025C31.9678 1.93685 32.3656 2.07379 32.762 2.21039C32.4177 2.34447 32.0329 2.49359 31.7138 2.61857C32.2244 3.15074 33.1248 2.85456 33.5935 2.74356C34.2318 2.59206 34.0876 2.8451 34.5612 2.73917C34.6367 2.72261 34.6453 2.52427 34.7948 2.52092C35.549 2.50519 37.0138 2.61032 36.1571 3.07314C34.9158 3.01352 33.8572 3.38518 32.6394 3.2494C32.9615 3.78454 32.32 3.96665 31.4444 4.20394ZM54.248 2.49992C53.8718 2.75983 53.1057 2.65494 52.5867 2.47453C52.5861 2.47453 52.5855 2.47453 52.5849 2.47453C52.4707 2.43479 52.212 2.08938 52.5849 2.10346C53.1928 2.12758 53.4867 2.6713 53.8058 2.30218C53.9486 2.37089 54.0985 2.43203 54.248 2.49992ZM55.5692 2.4677C55.6018 2.47935 55.6302 2.4931 55.6547 2.50844C55.8611 2.61342 55.8342 2.78989 55.6547 2.8725C55.5743 2.91747 55.4554 2.93527 55.306 2.8998C55.306 2.90013 55.306 2.90046 55.306 2.90078C55.1112 2.85442 55.4937 2.53059 54.7949 2.85928C54.6522 2.60356 54.5117 2.37091 54.3706 2.12348C54.5417 2.11934 54.6978 2.11263 54.8773 2.10932C54.7565 2.52964 55.1964 2.33545 55.5692 2.4677ZM36.7873 2.8417C36.8459 2.46357 36.6003 2.46595 36.1822 2.20355C36.5769 2.21597 36.9716 2.22922 37.3646 2.24163C37.1715 2.44191 36.9804 2.64143 36.7873 2.8417ZM27.5149 2.78311C27.5143 2.78311 27.5137 2.78311 27.5131 2.78311C27.3838 2.84272 27.2541 2.90255 27.1264 2.96133C27.0492 2.82637 26.9728 2.692 26.8955 2.55705C26.4386 2.68372 25.9793 2.81039 25.5224 2.93789C25.5779 2.52565 26.398 2.59273 26.8499 2.30462C27.5217 2.42882 27.8454 2.6681 27.8891 3.01747C27.7648 2.93968 27.6408 2.8609 27.5149 2.78311ZM47.9946 68.097C47.8418 68.2112 47.6909 68.3255 47.5381 68.4397C47.7413 68.4918 47.9428 68.5316 48.1477 68.592C48.6834 68.0953 48.7338 68.5347 49.4357 68.5042C51.5874 68.4098 51.0165 67.6383 52.9597 68.7683C51.3996 68.7146 51.9991 69.2455 51.0585 69.6545C50.8637 69.3432 51.7957 68.6411 51.1642 68.4954C50.0759 68.8248 49.0293 69.1317 47.8218 69.3444C47.8571 69.3983 47.8922 69.4523 47.9275 69.5061C48.119 69.4721 48.3088 69.438 48.5003 69.404C48.2937 69.5481 48.0918 69.6909 47.8818 69.8366C48.1472 69.5096 47.4709 69.6923 47.5614 69.3166C47.6017 69.1494 47.9006 68.9174 48.0769 68.7576C47.6218 68.6706 47.1551 68.591 46.6949 68.5066C46.9333 68.3734 47.1716 68.24 47.4083 68.1067C47.603 68.1026 47.7963 68.0996 47.991 68.0955C47.9922 68.096 47.9934 68.0965 47.9946 68.097ZM1.13083 10.1597C1.19736 10.9646 0.920505 12.127 0.386119 12.7189C0.539733 11.8426 0.789204 10.9831 1.13083 10.1597ZM27.9329 3.30555C27.8675 3.23939 27.8041 3.17395 27.7387 3.1078C28.0275 2.98529 28.3181 2.86363 28.6069 2.74112C28.6623 2.93229 28.719 3.1235 28.7761 3.31385C28.4957 3.31136 28.2133 3.30803 27.9329 3.30555ZM46.4132 3.09267C46.2019 3.10423 46.1832 3.09797 45.92 3.07069C45.9203 3.07086 45.9206 3.07102 45.9209 3.07118C45.8166 3.061 44.9437 2.94934 45.041 2.80215C45.4744 2.79967 45.9366 2.80215 46.3801 2.80215C46.3935 2.89897 46.3964 2.99502 46.4132 3.09267ZM41.312 3.00673C41.3114 3.00641 41.3108 3.00608 41.3102 3.00576C41.1525 2.9834 41.0031 2.93788 40.8403 2.92959C41.4263 2.69794 41.5189 3.11355 42.0514 2.99599C42.5837 2.8776 42.9127 2.64829 43.3645 3.21766C43.1965 3.30294 43.0156 3.42493 42.8426 3.52429C42.0868 3.29663 41.8833 3.51087 41.2771 3.73521C41.2889 3.49184 41.3002 3.25011 41.312 3.00673ZM57.8773 69.0368C57.986 68.7295 58.2236 68.9591 58.2449 68.9576C58.2446 68.958 58.2443 68.9584 58.2441 68.9588C59.6195 68.3282 58.0971 69.1919 59.4767 68.8174C59.2973 68.9527 59.1172 69.0865 58.9295 69.2132C58.5711 69.1732 58.2086 69.1002 57.8773 69.0368ZM67.3379 29.81C67.4199 29.7982 67.502 29.7842 67.584 29.7724C67.5649 30.498 67.8876 30.683 67.5938 31.286C67.5077 30.794 67.4222 30.302 67.3369 29.81C67.3373 29.81 67.3376 29.81 67.3379 29.81ZM50.0706 3.68883C49.266 3.84531 48.6708 3.91426 47.8982 3.66588C47.8976 3.66555 47.897 3.66523 47.8964 3.6649C47.8518 3.64962 48.0673 3.47813 48.0092 3.43493C47.8497 3.46058 47.6851 3.50001 47.524 3.53063C47.5022 3.39331 47.4814 3.25602 47.4596 3.11952C47.913 3.15843 48.3668 3.19731 48.8219 3.23621C48.7547 3.15591 48.6859 3.0763 48.6187 2.99599C49.005 2.9546 49.3898 2.91336 49.7761 2.87197C49.6418 3.09709 49.5077 3.32226 49.3751 3.54821C49.6068 3.59538 49.8389 3.64083 50.0706 3.68883ZM66.441 41.8903C66.5304 41.7626 66.6804 41.999 66.7574 41.8008C66.8334 41.6025 66.6665 41.2371 66.919 41.3228C66.9529 41.5897 66.9918 41.8699 67.0274 42.1418C67.4826 41.2667 67.0707 40.3937 67.6328 40.3802C67.4871 41.2201 67.5548 41.9106 67.7104 42.7236C67.2642 42.69 66.8784 41.8769 66.4595 42.3889C66.4537 42.2244 66.4453 42.0515 66.442 41.8921C66.4416 41.8915 66.4413 41.8909 66.441 41.8903ZM16.1785 8.90097C15.6813 8.86703 14.5421 9.04913 13.9138 8.78916C13.7593 8.72509 13.2444 7.89519 13.247 7.78579C13.2621 7.41737 13.8909 7.36722 13.2175 7.12713C13.444 7.12464 13.6639 7.11081 13.8888 7.10419C13.8485 6.85663 13.8084 6.60974 13.7697 6.36301C13.4959 6.40027 13.2218 6.43771 12.948 6.4758C12.9346 6.39383 12.9212 6.31168 12.9078 6.22972C13.8921 6.22806 13.311 5.9117 13.8217 5.61695C13.3514 5.46796 12.8777 5.31968 12.4092 5.17069C12.6796 5.1889 12.9986 5.20239 13.2371 5.22391C13.2691 4.80418 12.7 4.90425 12.6025 4.82647C12.0533 4.38686 14.8495 4.60874 15.0784 3.99789C14.6317 3.93002 14.163 3.86378 13.7062 3.79673C13.8372 3.72139 13.9699 3.64601 14.1009 3.57067C15.1372 3.99198 16.2992 4.14123 17.5068 4.40364C17.6159 4.38626 17.7252 4.36843 17.8326 4.35188C17.8007 4.16236 17.7705 3.97356 17.7386 3.78404C17.9032 3.76168 18.0699 3.7395 18.2345 3.71715C17.7492 4.34135 18.4213 4.33284 19.2325 4.71368C18.8009 4.93304 18.2685 4.80005 18.3052 5.20877C19.7866 4.89431 21.5214 5.33872 22.9624 4.98369C23.3201 4.89594 23.319 4.36868 24.1601 4.41731C24.1315 4.47526 24.1266 4.57989 24.1082 4.65607C25.5628 4.40354 26.4453 4.25259 27.9571 4.51008C27.8698 4.32057 27.7839 4.13027 27.6966 3.94077C27.3758 4.03515 27.0544 4.13104 26.7353 4.22542C26.517 3.91249 26.8396 3.77438 25.8822 3.77769C25.0978 3.78017 25.5648 3.91835 25.3515 4.01108C25.0626 4.13767 24.8091 3.88863 24.4984 4.03012C24.2582 4.13858 24.5181 4.39678 23.8915 4.33137C24.1435 3.99689 24.4005 3.6515 24.6542 3.31287C24.807 3.38821 24.9587 3.46472 25.1116 3.54089C24.957 3.6303 24.8051 3.71855 24.6506 3.80796C25.1948 3.64736 25.709 3.49587 26.2716 3.32947C26.0885 3.81299 26.6701 3.6317 26.9859 3.57458C27.4778 3.48525 27.0564 3.81802 27.3789 3.76255C27.7013 3.70623 28.0492 3.33446 28.632 3.41394C28.3196 3.62917 28.7446 3.82217 28.6624 4.02084C28.5801 4.21951 27.9636 4.2635 28.5559 4.48029C29.6947 4.31554 28.459 3.55897 29.2281 3.4364C30.1519 3.28904 30.3717 4.5223 30.0964 4.78741C29.8797 4.99605 29.1341 4.95409 28.9157 5.1619C30.2511 5.53693 30.2627 4.79656 30.4911 4.65167C31.3209 4.12432 30.7635 5.53185 31.7461 5.02275C31.7276 5.28596 31.7126 5.5227 31.6941 5.77515C31.8637 5.72714 31.9762 5.66333 32.1811 5.62526C31.577 5.1124 32.0714 5.13438 32.3252 5.13358C32.725 5.13192 32.1075 4.88177 32.2133 4.81719C32.4989 4.64438 32.9504 4.72285 32.6734 4.49689C32.7977 4.60204 32.9324 4.7075 33.0601 4.81182C33.5271 4.6808 34.6248 3.58219 33.5801 3.80406C33.6775 3.39588 34.0155 3.59207 34.2792 3.65416C34.5428 3.7162 34.5379 3.45625 34.7697 3.50427C35.6917 3.69636 35.0886 4.14102 34.9425 4.48957C36.1602 4.24948 34.968 4.09064 36.7228 3.93003C36.8925 3.64605 36.0816 3.34302 36.7568 3.17909C36.8812 3.67244 37.3784 4.02685 38.3474 4.19076C38.4415 4.07733 38.5353 3.96289 38.6294 3.84946C39.1585 4.30483 38.888 4.77835 39.8673 4.2137C39.3416 5.25274 39.703 4.58802 40.5798 5.01103C40.7579 5.09631 40.3464 5.31188 40.595 5.42116C40.7077 5.47045 40.9813 5.30773 41.2565 5.43337C41.3909 5.49546 42.0191 5.8961 42.4542 5.70582C42.135 5.20243 42.9616 4.77419 42.2528 4.35774C43.5629 4.4604 44.4799 4.21871 43.0118 4.90508C43.3444 5.05742 43.6773 5.20911 44.0098 5.36062C44.2416 5.24057 44.4754 5.12146 44.7089 5.00224C44.7442 5.41596 44.7087 5.53203 45.6219 5.45925C45.2257 5.5569 44.8311 5.65617 44.4332 5.75464C44.4198 5.83819 44.3644 5.92502 44.3777 6.0061C44.8651 5.84719 46.2373 5.7788 46.5698 5.66871C46.9024 5.55859 46.2602 5.52846 46.3559 5.42165C47.1536 4.54093 47.0904 5.1905 47.6628 5.03935C47.9987 4.94993 47.1966 4.85283 47.3763 4.81475C48.0427 4.67516 48.3518 5.14324 48.9427 5.1492C48.7328 4.88352 48.5246 4.6137 48.3198 4.34553C48.9396 4.35961 49.6305 4.36197 50.2066 4.27669C50.4328 4.2434 50.2619 4.0458 50.2988 4.03256C50.4821 3.96467 51.2278 3.85713 51.3067 3.8563C51.901 3.85472 51.9179 4.12841 52.4954 4.1434C52.2687 4.16657 52.0556 4.18745 51.8339 4.2098C51.7332 4.65352 51.6304 5.09722 51.5296 5.54176C52.0955 5.57405 52.6617 5.60567 53.2294 5.63795C52.8146 5.48977 52.3982 5.3423 51.9834 5.19412C52.6317 4.83564 53.2801 4.47634 53.9285 4.11703C54.2661 4.33725 54.6023 4.55742 54.9399 4.77764C55.3408 4.75224 55.5311 4.56707 55.6547 4.43213C55.821 4.25921 55.8863 4.1685 56.1217 4.61909C56.4042 4.56542 56.689 4.523 56.9805 4.49376C56.9262 4.59955 56.8736 4.706 56.8217 4.81254C57.1593 4.78189 57.5016 4.76856 57.8471 4.77165C57.5825 4.31012 57.2836 3.83854 56.9342 3.41361C57.6862 3.41851 57.6422 3.77101 57.732 3.86866C57.9666 4.13419 58.5836 3.97629 58.7467 4.2406C58.7968 4.32415 58.0771 4.36403 58.2437 4.6706C58.297 4.72967 58.8383 5.85203 59.3784 5.8527C59.4339 5.692 59.4739 5.48355 59.5215 5.30374C60.2729 5.50014 60.18 6.47922 59.9798 6.64937C60.3819 6.65881 60.8449 6.93428 61.0584 6.75297C61.2226 6.85374 61.3828 6.95906 61.5411 7.06947C60.9966 7.48313 61.6597 7.84496 62.0716 7.45926C61.8285 7.23176 61.5736 7.01528 61.3077 6.81265C61.9001 6.41024 61.369 5.37659 62.6789 7.31039C62.744 7.85745 62.1535 6.77843 62.2301 7.20935C62.5681 7.70515 63.0485 8.0062 63.2088 8.5883C63.3765 9.3195 62.6687 8.81013 63.8547 9.84777C62.5607 6.46757 64.9244 9.70894 65.6797 11.3636C64.9516 12.1237 65.0221 13.2754 65.2331 14.9316C65.2466 15.0448 65.2623 15.16 65.2804 15.2771C65.3807 15.2046 65.4259 15.0789 65.4471 14.9316C65.4851 14.6757 65.4343 14.3602 65.474 14.138C65.5336 13.7869 65.7353 14.1491 65.8158 13.6956C65.9024 13.2416 65.8766 12.2646 65.9122 11.7565C66.2193 12.0686 66.9284 14.0022 66.2561 12.7729C66.1825 13.6422 65.9867 14.1011 65.9003 14.9316C65.8842 15.0671 65.8722 15.2133 65.8648 15.3738C66.2962 15.7097 66.5648 15.6849 66.5772 16.7782C65.9778 16.1316 65.5612 17.374 64.942 17.1004C65.0863 16.3251 65.6881 16.7585 65.9762 16.3101C66.0049 16.2641 65.8541 15.5417 65.8648 15.3738C65.3242 16.1028 65.123 16.3549 64.4796 15.9064C64.5359 16.4221 64.4552 16.7428 64.7624 16.7898C64.6291 16.8973 64.4957 17.0054 64.3625 17.1112C64.3658 17.279 64.3781 17.4301 64.3757 17.608C64.839 17.363 64.5538 17.8379 64.7638 18.1755C64.9741 18.5131 65.3399 18.0601 65.3448 18.9873C65.4533 18.6783 65.5464 18.3957 65.649 18.0967C65.7682 18.6946 65.8882 19.2944 66.0074 19.8923C66.2905 19.4724 66.711 18.5623 67.0835 18.5872C66.9429 18.8626 67.19 19.806 67.2002 19.9093C67.2383 20.3091 67.0034 20.0912 66.9976 20.1214C66.8834 20.7495 66.9634 21.2668 66.6075 21.5052C66.7681 21.9772 66.6765 22.3331 66.6856 22.8336C66.6906 23.109 66.952 23.0555 66.9024 23.2167C66.5712 24.2883 66.2334 23.2673 66.8765 25.3345C67.0586 25.0842 67.2449 24.8373 67.4287 24.5871C67.4974 24.8206 67.5665 25.0527 67.6353 25.2862C67.6021 25.4424 67.5688 25.5972 67.5357 25.7534C67.1408 25.75 66.745 25.746 66.3502 25.7427C66.3286 25.914 66.3077 26.086 66.2862 26.2573C66.2473 25.9634 66.2084 25.6687 66.1695 25.3748C66.1 25.3479 66.0305 25.3228 65.961 25.296C65.8534 25.7327 65.7448 26.1679 65.6363 26.6046C65.7737 26.613 65.912 26.6213 66.0494 26.6297C65.8581 27.614 65.7419 27.6374 66.1202 28.573C66.1161 29.2936 66.6904 29.8804 66.9322 30.2969C66.8552 30.4464 66.7772 30.596 66.7002 30.7472C66.8145 30.8429 66.9283 30.9396 67.0425 31.0354C66.8836 31.2252 66.7246 31.4176 66.5665 31.6074C66.9272 31.7131 67.0399 31.7679 67.1665 31.0273C67.6153 31.281 67.4173 32.5848 67.2666 33.1156C67.1523 33.5183 66.778 33.0715 66.7325 33.1219C66.5778 33.29 66.7113 33.9537 66.6856 34.0931C66.5788 34.6826 66.5975 35.0957 66.5147 35.6282C66.4981 35.7318 66.2609 36.0216 66.2535 36.0462C66.2129 36.2377 66.0976 36.7103 66.0943 36.764C65.9172 39.5366 66.9464 36.5741 66.8379 39.1522C66.9736 39.0749 67.1084 39.0039 67.2442 38.9284C67.2524 39.1231 67.2603 39.3199 67.2686 39.5147C67.1551 39.7616 66.9489 39.4629 67.1153 39.9533C66.948 39.9214 66.7807 39.8893 66.6143 39.8557C66.7046 40.069 66.7941 40.2747 66.8843 40.493C66.304 40.8357 66.1722 42.0866 65.4908 41.9977C65.259 41.9675 65.0211 41.0806 64.7736 41.5493C64.7248 41.93 65.0017 41.6723 65.0162 41.8276C65.1173 42.9497 64.7292 42.8845 64.8327 43.343C64.999 43.4152 65.1686 43.4912 65.3365 43.565C65.2877 43.7379 65.2389 43.9114 65.1901 44.086C65.3018 44.1263 65.4137 44.1683 65.5255 44.2086C65.5329 44.0457 65.5405 43.8622 65.548 43.7127C65.9809 43.9212 66.1753 45.8355 65.8062 45.1055C65.6564 44.8082 65.7201 44.2637 65.2086 44.6078C65.2823 45.1201 65.3576 45.7013 65.4313 46.2405C65.3211 46.2573 65.2108 46.2729 65.1007 46.2897C65.172 47.0163 65.6123 46.3555 65.8482 46.3568C65.8549 46.523 65.8607 46.691 65.8673 46.8572C65.7606 46.9277 65.6489 46.9946 65.5455 47.0684C65.7153 47.0752 66.11 47.1683 65.9635 47.6637C65.8681 47.9822 65.4397 47.4806 65.4991 48.088C65.764 48.0426 66.0866 47.8232 66.1719 48.4997C65.8955 48.5669 65.6422 48.6598 65.3517 48.7119C65.6173 49.5532 65.1903 49.9361 65.4991 50.9236C65.6945 51.5502 66.3881 52.4084 65.3195 52.8132C65.2913 53.2715 65.5575 53.126 65.6173 53.2617C65.9004 53.9016 65.3937 54.3776 65.3639 54.4969C65.1728 55.2575 65.3482 55.5985 65.109 56.2182C65.3069 56.1846 65.4942 56.1663 65.6871 56.1394C65.3907 55.5717 65.4046 55.2841 65.4684 54.4879C65.5081 54.7549 65.5488 55.0221 65.5885 55.2891C65.7491 55.2454 65.9097 55.2021 66.0694 55.1602C65.4369 52.6977 66.4363 53.2721 66.6548 55.3365C66.3577 55.5145 66.0613 55.699 65.7633 55.8754C66.0248 56.5678 66.0026 57.0474 65.9197 57.5919C65.8588 57.9977 65.7494 58.4245 65.6337 58.9842C65.6057 59.1402 65.6689 59.7549 65.6112 60.0088C65.6133 60.0049 65.6154 60.001 65.6175 59.9971C65.8519 60.2205 66.0295 60.0384 66.28 60.0661C66.2771 60.2178 66.2709 60.3697 66.2613 60.5229C65.9835 60.7912 65.8783 60.6343 65.7108 61.2525C65.9191 61.2367 66.1278 61.2173 66.3373 61.1919C66.101 61.8974 65.7173 62.2496 65.4792 62.8884C65.4701 62.7537 65.4576 62.6211 65.4435 62.4885C64.5884 63.6717 64.1941 62.1078 64.1222 63.2752C64.0049 63.2747 63.8882 63.2705 63.7719 63.2662C63.987 62.9173 64.1802 62.5566 64.3484 62.1877C64.2301 62.1157 64.1125 62.0438 63.9932 61.9738C63.836 62.3612 63.6517 62.7429 63.4412 63.1107C63.544 62.806 63.6301 62.4984 63.6981 62.1933C63.4047 62.572 63.0844 62.9238 62.7426 63.2456C63.4536 63.1612 63.0965 63.7194 63.5633 63.9384C62.6376 64.3911 61.8474 64.4516 60.9685 65.4948C60.7884 65.6934 61.0925 65.9391 60.219 65.9444C60.6672 66.3461 59.8877 67.038 60.2172 67.4615C60.478 67.3127 60.746 67.1562 60.9814 66.986C60.6001 66.9862 60.3352 66.5558 60.6575 66.1996C61.064 65.7535 61.9483 65.5147 61.5698 65.0907C61.7623 64.9722 61.9326 64.8483 62.1103 64.7175C62.1372 64.8818 62.1624 65.0472 62.1831 65.2137C62.5316 64.6226 62.8373 64.3912 63.3161 64.3861C62.8506 65.0329 62.3047 65.631 61.6877 66.1642C61.7993 66.1149 61.9116 66.0627 62.0215 66.0085C61.7243 66.6633 62.4829 66.5816 61.4832 67.3109C61.4049 67.1658 61.3249 67.0215 61.2456 66.876C61.1161 67.4927 59.9743 68.0204 60.5459 68.3121C60.1272 68.3298 60.025 68.2615 59.9198 68.5969C58.8137 68.6069 58.1214 68.2341 58.2951 67.5987C57.9966 67.774 57.6845 67.9362 57.3625 68.0829C57.5843 68.208 57.8114 68.326 58.049 68.4365C57.4382 68.5608 56.8135 68.6333 56.1943 68.6538C56.116 68.2018 57.3541 68.4059 56.9558 68.024C56.8784 67.9498 56.5813 68.1618 56.4927 68.1198C55.5897 67.6647 56.9738 67.9411 56.6797 67.5643C55.7959 67.5506 56.0226 67.1698 55.6547 67.1703C55.4938 67.1666 55.2233 67.2241 54.7132 67.389C54.6679 67.2532 54.6192 67.1147 54.5772 66.9798C53.9813 66.9717 54.0296 67.2783 53.5174 67.3362C53.1966 67.3723 52.794 66.8339 52.4397 67.2005C52.3765 67.2681 52.9725 67.9262 51.72 67.8973C50.748 67.8748 51.1525 67.4097 50.6271 67.2449C50.1013 67.0802 48.8986 67.7251 48.5442 66.994C48.8196 67.0908 49.1704 67.143 49.476 67.2225C49.6003 67.0801 49.7213 66.9393 49.8439 66.7977C49.1451 66.9815 48.4228 66.7649 47.9525 67.1043C47.0203 66.5852 45.9777 67.0669 46.2599 67.6531C46.5667 67.5686 46.2329 67.313 46.6591 67.4759C46.7028 67.6125 46.7488 67.7484 46.7925 67.885C46.0668 67.8685 45.5629 67.8723 45.8938 67.4559C45.7812 67.4459 45.6698 67.436 45.5572 67.4261C45.5371 67.7275 45.5192 68.0299 45.4991 68.3313C45.3647 68.3653 45.2297 68.3989 45.0954 68.4329C44.946 68.3667 44.7962 68.2997 44.6451 68.2327C44.8484 67.7558 45.1946 67.74 44.049 67.4734C44.0456 67.6382 44.0407 67.8023 44.0374 67.9671C43.0783 67.7576 43.053 67.3585 41.8488 67.3734C42.7726 66.8013 43.2781 67.8153 43.2747 66.6678C43.5065 66.7432 43.7402 66.8195 43.972 66.8949C44.0073 66.7284 44.0422 66.5618 44.0758 66.3954C42.8313 66.4832 40.7639 67.5776 39.9306 66.8519C39.8299 66.9405 39.7287 67.0174 39.6263 67.1126C38.8099 66.6746 38.4574 67.6579 37.6293 67.0916C37.5439 67.0322 37.7227 66.1084 36.6447 66.1415C36.6716 66.2616 36.6855 66.4636 36.7074 66.6151C36.474 66.5414 36.2418 66.4643 36.0101 66.389C35.9681 66.4999 35.9241 66.6108 35.8821 66.7225C36.2802 66.7656 36.6772 66.8093 37.0753 66.8524C36.7445 66.8905 36.4116 66.9286 36.0808 66.9666C36.5123 67.1479 36.707 67.1498 36.4469 67.4402C36.0723 67.4576 35.6972 67.4761 35.3226 67.4935C35.2841 67.5679 35.2458 67.6432 35.2072 67.7176C35.3886 67.9394 35.5718 68.1564 35.7532 68.3816C34.7773 68.2003 33.9289 68.1905 33.1798 67.7542C33.0521 67.6805 33.5036 67.3915 32.6338 67.6522C32.6203 67.4991 32.597 67.3747 32.5818 67.2332C31.5169 67.6621 31.1671 67.5341 30.0568 67.2244C30.7757 67.5134 30.1342 67.3255 29.9511 67.4803C29.8257 67.587 30.3153 67.5712 30.26 67.6829C30.2045 67.7938 29.5683 68.2418 30.1123 68.2957C31.446 67.3775 31.8093 68.4753 33.5226 68.034C33.2589 68.1524 32.9933 68.271 32.7295 68.3894C32.8537 68.4697 32.9649 68.5425 33.0992 68.6277C32.1436 68.4481 32.6084 68.5648 32.2157 68.7063C31.8227 68.8479 31.1083 68.9682 30.6296 69.0071C30.4788 69.0193 30.6379 68.8134 30.2975 68.7942C30.0658 68.7809 29.4323 69.0862 29.2861 68.7263C29.1903 68.492 30.208 67.8469 28.8009 67.8484C28.5361 67.6187 29.2107 67.6901 29.2252 67.6624C29.3478 67.3892 28.4828 67.1838 28.0831 67.3924C28.0507 67.4104 28.3664 67.6233 28.0231 67.7068C27.2084 67.9064 26.7379 67.6622 26.2105 67.3319C26.1534 67.7193 25.4678 68.1821 24.6145 68.0388C24.5709 68.1497 24.5293 68.2616 24.4857 68.3733C24.6181 68.3146 24.7506 68.2567 24.8831 68.198C25.0275 68.2676 25.1806 68.3182 25.3217 68.4002C24.4636 68.4954 24.3422 69.0295 23.9307 69.2248C22.5225 69.8922 23.376 68.4804 23.6299 68.2371C23.813 68.3356 23.9901 68.4456 24.1715 68.5491C24.1513 68.4141 24.1309 68.2781 24.1124 68.1424C22.0044 68.1465 23.7914 67.2663 22.7214 67.0155C22.4459 67.6794 21.6601 67.7434 20.6591 67.3221C20.5482 67.3254 20.437 67.3262 20.3261 67.3304C20.3077 67.4272 20.3079 67.5752 20.2778 67.639C19.0717 67.7516 18.8569 66.7291 18.7427 66.6322C18.2355 66.2026 17.8405 66.797 17.6909 66.8021C17.0611 66.8228 16.878 66.5588 16.2785 66.6722C15.6336 66.7947 16.0745 66.9973 15.8784 67.1785C15.721 67.3225 15.2122 67.3481 15.0021 67.4974C15.0856 67.3753 15.1784 67.2556 15.2616 67.1331C14.5933 66.9667 14.047 66.8046 13.2879 66.764C12.9593 67.1066 12.6496 67.0961 12.4092 67.0219C12.043 66.9016 11.8684 66.6028 12.0066 67.3642C12.1519 67.3876 12.2854 67.4097 12.4092 67.433C12.8839 67.5215 13.1992 67.6601 13.5037 67.9065C13.1389 67.9372 12.774 67.9673 12.4092 67.9978C12.2971 68.0067 12.1851 68.0139 12.0733 68.0194C11.9347 67.8806 11.841 67.7453 11.687 67.5977C11.3108 67.8656 10.488 67.6199 10.1545 67.6213C8.57724 67.6059 8.76261 68.1747 7.79831 66.8478C8.76315 67.2112 8.89654 66.8348 9.80765 67.1644C9.67749 66.8389 9.21394 66.7484 9.60764 66.5185C8.74009 66.3138 8.90495 66.6795 8.46242 66.7927C8.07463 66.8857 7.48057 66.5896 7.36983 66.8688C7.38827 66.6901 7.42052 66.5244 7.44494 66.348C6.90625 66.0438 6.39659 65.6885 5.92256 65.2909C6.2357 65.3287 6.54544 65.3496 6.84897 65.3555C6.73351 65.1922 6.62384 65.0265 6.52119 64.8591C4.94409 64.3805 4.44038 61.6647 3.50498 62.6857C3.10341 62.0521 3.22693 61.8781 3.30418 61.4195C3.19288 61.4196 3.09777 61.413 2.97524 61.4148C2.89867 60.9372 2.41867 60.7063 2.40168 60.2584C2.38935 59.815 2.73291 59.6444 2.11931 59.705C2.23499 59.3946 2.33518 59.0997 2.4648 58.8147C2.30725 58.6706 2.15456 58.5208 2.00461 58.3649C2.05693 58.1014 2.11894 57.846 2.1903 57.5919C2.19174 57.5869 2.19319 57.5819 2.19464 57.5769C1.9026 57.4422 2.02848 56.4516 1.83235 56.0149C2.14715 55.6004 3.13833 55.6118 2.96071 54.6365C2.71488 54.6617 2.46976 54.6865 2.22393 54.7117C2.27525 54.4883 2.32641 54.2645 2.37773 54.0394C2.45797 54.026 2.53821 54.0144 2.61844 54.001C2.59361 54.1152 2.56891 54.2278 2.54325 54.342C2.67903 54.2429 2.81419 54.1458 2.94997 54.0484C2.74881 53.7075 2.54764 53.3661 2.34648 53.0235C2.19418 53.4853 2.04178 53.9473 1.88948 54.4091C1.70898 53.8296 1.88902 53.4263 1.68783 52.9224C2.02722 52.484 2.22279 52.6459 2.5911 52.8239C2.55965 52.661 2.52929 52.4962 2.49784 52.3334C2.86621 52.4408 3.0857 52.1653 3.05592 53.1175C3.16099 53.052 3.26116 52.9853 3.37036 52.9215C3.3538 52.7653 3.44261 52.664 3.4021 52.4927C3.29115 52.0258 2.64414 51.6677 2.41728 51.6997C2.29845 51.7169 2.52571 52.1773 2.35771 52.1588C1.94805 52.1133 2.13198 51.0571 1.72054 52.5804C1.45974 52.0749 1.65642 51.9619 1.73177 51.4043C1.59526 51.4479 1.45961 51.4903 1.3231 51.5323C1.386 51.2737 1.44867 51.0148 1.51156 50.7562C2.2128 51.1157 2.47617 49.2092 3.08961 50.9254C3.12107 50.4182 3.15269 49.9128 3.1858 49.4073C3.25781 49.5114 3.3291 49.6156 3.40112 49.7197C3.36304 49.9481 3.32558 50.1751 3.28833 50.4035C3.41993 50.1349 3.55076 49.8657 3.68236 49.5971C3.51925 48.9622 3.2684 48.7133 2.95876 48.4227C2.7328 49.1616 3.04145 48.9202 3.10279 49.4959C2.9067 49.4758 2.72633 49.5024 2.5203 49.4521C2.92648 49.1545 2.63099 48.1841 2.61112 47.959C2.55079 47.2741 2.94988 47.8112 2.95827 47.353C2.96655 46.8945 2.72901 46.3536 3.12477 45.9791C2.90295 45.9858 2.67345 46.0157 2.47148 46.0426C2.39862 45.3287 2.66067 45.4711 2.69461 45.3972C3.25262 44.2181 2.78152 43.5783 2.7244 42.2295C2.65569 42.4008 2.59366 42.5739 2.52909 42.7468C2.05813 41.7293 2.20234 42.4148 2.04669 43.2982C2.09389 42.4701 1.6928 41.9959 1.57357 41.4114C1.45455 40.8269 1.66055 39.8246 1.82112 39.4582C2.07944 40.2964 1.90909 41.2005 1.98029 42.131C2.20626 42.0252 2.3975 41.9224 2.64579 41.8133C2.17152 41.2473 2.48863 40.9193 2.55155 40.7329C2.73609 40.1854 2.32903 40.2026 2.76687 39.8718C2.61625 39.8852 2.48961 39.8951 2.34893 39.9085C2.41185 38.7781 2.67813 37.5588 2.12189 36.8231C2.48366 36.7559 2.8322 36.7052 3.20142 36.6279C2.9291 36.1493 3.20797 35.7394 3.1443 35.3363C3.08055 34.9349 2.78818 35.0877 2.67557 34.6157C2.65487 34.5284 2.83787 34.3465 2.70291 34.1315C2.56724 33.9144 1.55851 33.1137 2.43974 33.018C2.44389 32.6132 2.47611 32.2301 2.49101 31.8338C2.54068 32.2201 2.58879 32.6065 2.63846 32.9911C2.85204 32.662 3.06499 32.3348 3.27857 32.0056C3.08814 31.9636 2.89427 31.9215 2.70633 31.8812C2.47451 30.9943 2.78586 30.3507 2.71219 29.4555C2.69977 29.306 2.32328 29.6587 2.41923 28.9954C2.51527 28.332 3.21797 27.8396 2.94655 26.7093C2.93248 26.6522 2.3943 26.3175 2.76687 25.9127C2.85131 25.8206 2.97626 26.2083 3.08717 25.9968C3.19811 25.7852 3.28934 24.8409 3.55346 24.7669C3.45992 24.777 3.36301 24.8359 3.26783 24.8645C3.22313 24.7033 3.1784 24.5405 3.13453 24.3776C3.29927 24.3625 3.46425 24.3461 3.62816 24.331C3.24484 23.4039 2.61954 22.9247 2.82644 21.5508C2.58719 21.9371 2.34698 22.3236 2.10773 22.7082C2.2758 22.814 2.445 22.92 2.61307 23.0242C2.54602 23.6573 2.47945 24.2922 2.4124 24.9254C2.60365 25.0295 2.79436 25.1318 2.98561 25.236C2.96078 25.4039 2.93672 25.5702 2.91189 25.7381C2.77363 25.6961 2.6361 25.6538 2.49784 25.6101C2.53178 25.9426 2.56644 26.2756 2.60038 26.6064C1.78428 25.9329 2.66979 24.7255 1.98713 24.8126C2.09305 24.6632 2.1997 24.5136 2.30645 24.3641C1.97543 24.2986 2.0707 23.9948 2.12286 23.4592C1.95976 23.5818 1.79888 23.7172 1.63412 23.8298C1.86426 23.3091 1.84191 22.3854 1.93049 21.8462C1.9694 21.6094 2.20939 21.846 2.2376 21.7755C2.38498 21.4144 1.96622 20.7241 1.99933 20.5797C2.19642 19.7163 2.99033 19.1553 2.46708 18.213C2.33792 19.1856 2.39247 18.6565 2.10187 19.0025C2.01075 19.1108 1.82068 20.3672 1.9051 18.7939C1.91566 18.6095 2.4642 15.7547 2.88454 16.6931C2.75042 16.2312 2.59533 15.8695 2.45292 15.4463C2.71092 15.2053 2.85239 15.0398 2.91037 14.9316C3.06476 14.6645 2.63946 14.7544 2.23776 14.9316C2.13613 14.9756 2.03598 15.0237 1.94709 15.0703C1.94641 15.0236 1.94547 14.9775 1.94447 14.9316C1.94186 14.8046 1.94097 14.6791 1.94573 14.547C2.5147 14.9247 2.6739 13.0913 2.59417 12.3955C2.55201 12.1546 2.2094 12.7128 2.25144 12.1863C2.35691 11.9563 2.49215 11.704 2.62326 11.4752C2.1361 11.7132 2.25052 10.9487 1.89436 10.8112C2.408 10.45 3.22576 10.4579 3.47841 10.8494C3.48598 10.447 3.52168 10.0345 3.58348 9.61962C3.41199 9.72599 3.24128 9.84195 3.07332 9.9616C3.85066 8.9394 4.58938 7.33002 5.36308 7.73598C5.47624 7.61703 5.59428 7.50008 5.71328 7.38666C5.66003 7.25014 5.60708 7.11349 5.55741 6.97485C6.22144 6.55988 6.92058 6.22819 7.63605 5.98104C7.09175 6.38013 7.07475 6.62065 6.4251 6.89435C6.73256 6.86215 7.04098 6.84404 7.33538 6.84572C7.96709 5.98725 8.00245 5.59114 9.546 5.21902C9.62209 5.18471 10.8437 5.27868 10.8813 5.32512C11.0812 5.45502 10.852 5.7243 10.9423 5.79152C11.2066 5.95463 12.4472 6.44883 12.4089 6.55197C12.2548 7.07312 11.2872 7.34297 10.355 7.76744C9.41153 8.1694 8.49753 8.74753 8.14609 9.04747C6.3539 10.5093 5.32525 12.707 5.35036 14.9316C5.39248 24.79 4.98592 34.5509 5.08268 44.4305C5.08465 44.5644 5.23914 44.506 5.24575 44.563C5.28455 44.9174 5.04378 45.2654 5.03385 45.3963C5.01338 45.6763 5.23583 45.5221 5.23599 45.7266C5.23351 47.8397 5.1027 49.8337 5.14078 51.9485C5.14326 52.0862 4.96528 51.9456 4.99674 52.1875C5.01397 52.3123 5.28703 52.7032 5.29116 52.985C5.30523 53.9693 5.21769 54.7961 5.22183 55.8341C5.22393 56.3173 5.20744 57.0061 5.20503 57.5919C5.2046 57.6668 5.20575 57.7391 5.20837 57.8075C5.21597 58.0107 5.35569 58.2119 5.38201 58.4047C5.42139 58.6792 5.16644 58.6598 5.15654 58.7057C5.11938 58.9106 5.39811 58.8883 5.42695 59.0637C5.48673 59.3909 5.3079 59.4574 5.45273 59.8683C5.5536 60.1654 5.96464 60.7571 6.19446 61.0609C6.43315 61.9586 7.29441 62.8129 8.00505 63.2557C8.42356 63.5208 8.32437 63.7528 8.50107 63.8667C9.13878 64.2521 9.77886 64.1676 10.3989 64.345C11.0809 64.5339 11.705 64.7663 12.4092 64.8302C12.6224 64.8439 12.8376 64.8535 13.0561 64.8564C13.2508 64.8589 13.2061 64.6208 13.3971 64.6147C14.1043 64.5923 15.0086 64.549 15.6385 64.583C16.3405 64.6203 16.5994 64.9658 17.2864 64.8955C17.4877 64.8746 17.5468 64.5716 17.8843 64.5327C18.4234 64.4715 19.0145 64.7387 19.3907 64.7685C19.9064 64.8082 19.458 64.4996 20.1534 64.541C20.1819 64.5428 20.286 64.7634 20.4353 64.7529C20.8704 64.7231 20.8272 64.5493 21.4638 64.5659C21.5249 64.5682 22.369 64.7784 22.4529 64.7792C22.9467 64.7826 23.9409 64.8562 24.2332 64.8115C25.278 64.6525 24.4555 64.3206 25.3441 65.041C25.7353 64.8646 26.1233 64.6859 26.5381 64.5146C26.2613 64.6744 27.3847 64.905 27.4637 64.8901C28.1167 64.77 27.7277 64.4897 28.5557 64.5361C27.4622 65.1835 29.6239 64.6195 30.106 64.603C32.4272 64.5227 34.5373 64.6843 36.8703 64.6801C37.6513 64.6784 38.698 64.5416 39.5243 64.5449C39.7169 64.5451 39.5713 64.6983 39.7409 64.7016C39.91 64.7039 39.7224 64.5319 39.9154 64.541C41.1163 64.6006 42.0573 64.9252 43.1575 64.5195C43.211 64.5781 43.2093 64.6245 43.298 64.6889C44.1983 64.3255 45.9322 64.8142 46.5839 64.8813C47.6032 64.9856 47.8636 64.7399 48.6042 64.7895C49.5834 64.8557 51.0537 65.3356 50.397 64.5434C51.0688 64.5186 51.7155 64.5117 52.394 64.5854C52.4695 64.5938 52.4175 64.7951 52.4477 64.7993C52.6391 64.8282 52.7015 64.6479 52.8308 64.6396C53.1815 64.6173 52.6093 64.8332 53.1092 64.7729C53.3729 64.7406 53.5227 64.5834 54.2549 64.58C54.7176 64.5782 55.1845 64.5772 55.6547 64.5769C58.4815 64.6426 61.3823 62.6598 62.3125 59.9296C62.3842 59.7235 62.1563 59.7975 62.2465 59.5467C62.4209 59.0578 62.6703 58.3294 62.7531 57.5919C62.8213 56.7932 62.8733 56.0399 62.8538 55.5281C62.809 54.3607 62.5243 54.6241 62.405 53.8936C62.3819 53.7525 62.5442 53.8682 62.5466 53.7405C62.5616 52.8822 62.8147 51.8589 62.8528 51.1635C62.8783 50.7037 62.623 50.7405 62.6047 50.4215C62.5782 49.9461 62.8362 49.4569 62.8445 49.2033C62.8808 48.0109 62.6731 47.1911 62.7791 46.0776C62.7229 46.1211 62.6708 46.1499 62.6155 46.1868C62.6246 44.8683 62.6337 43.5516 62.6428 42.2331C62.5915 42.2953 62.5397 42.3554 62.4876 42.4175C62.5157 40.8706 63.0721 41.0471 61.8973 41.1832C61.8559 41.0706 61.8079 40.9514 61.7698 40.8439C62.375 40.8876 62.8179 39.9518 62.9719 38.761C62.9835 38.6737 62.3934 38.0876 63.0906 38.1514C62.92 37.9986 62.8024 37.9075 62.6526 37.7782C62.8637 37.5263 63.0722 37.271 63.2824 37.0191C63.251 36.8831 63.2206 36.7452 63.1892 36.6092C63.0526 36.589 62.9107 36.6045 62.7766 36.5609C62.7559 35.9294 62.9248 34.6342 62.9075 34.1351C62.8636 32.8955 62.4942 31.6335 62.8933 30.6693C62.8526 30.1997 62.5845 30.666 62.6184 29.9675C62.7542 29.8886 62.8843 29.8144 63.0242 29.7321C62.4176 29.1613 62.7866 29.042 62.9133 28.2597C62.9994 27.7306 62.8512 27.3842 62.8801 26.8803C62.8876 26.7527 63.0656 26.7708 63.0598 26.6834C63.0414 26.3909 62.7964 25.5562 62.7898 25.3497C62.7252 23.4787 62.7527 21.8712 62.8181 20.0892C62.8247 19.8977 62.649 20.146 62.6565 19.9478C62.6682 19.6289 62.9382 19.8165 62.9514 19.6318C62.9868 19.1165 62.7022 19.1126 62.6873 18.3939C62.6646 17.296 62.6985 16.1218 62.7432 14.9316C62.7976 13.9498 62.6511 12.9375 62.2768 12.0568C62.2544 12.0057 62.1033 12.0763 62.0776 12.0233C61.9136 11.6801 61.9159 11.2242 61.7112 10.9209C61.3699 10.4209 60.9013 10.2306 60.4928 9.83647C59.6809 9.07269 58.851 8.43757 57.7319 8.08346C57.041 7.87248 56.3889 7.78778 55.6547 7.79082C55.3247 7.79263 54.9835 7.79381 54.624 7.7936C48.2041 7.79029 41.6531 8.31972 35.1895 8.03822C35.025 8.03078 35.092 7.88341 35.0418 7.88979C34.5648 7.95354 34.5222 8.15238 34.3526 7.73599C33.7449 7.81805 33.5531 8.13088 32.8193 8.10853C32.4281 8.09681 32.7202 7.61196 32.0584 7.86196C31.4609 8.08797 32.1203 8.35369 30.3434 8.08216C30.2964 8.0747 30.0649 7.77916 29.6954 7.8561C29.3242 7.93227 29.7539 8.1439 28.8603 8.20765C26.7624 8.35666 24.107 8.10119 21.6681 8.17982C21.5153 8.18478 20.0432 8.34279 19.7526 8.41564C19.1902 8.55722 19.3077 8.77684 18.5773 8.83066C18.0129 8.87206 17.5473 8.62328 16.8838 8.67296C16.8065 8.67899 16.6771 8.93489 16.1785 8.90097ZM45.559 68.593C45.4213 68.8441 45.1727 69.7683 44.3399 69.487C44.261 69.4605 44.6871 68.825 44.2271 68.7239C44.6773 68.6568 45.1156 68.6351 45.559 68.592C45.559 68.5924 45.559 68.5927 45.559 68.593ZM12.5685 3.0082C13.1917 3.05456 13.817 3.1005 14.4402 3.14686C14.0102 3.25863 13.5795 3.37019 13.1512 3.48278C12.9564 3.32468 12.7633 3.1663 12.5685 3.0082ZM67.1392 33.7117C67.1392 33.7111 67.1392 33.7106 67.1392 33.71C67.2584 34.365 67.3779 35.0205 67.4971 35.6756C67.4093 35.6067 67.3212 35.5377 67.2334 35.4688C67.0952 34.9516 66.9571 34.4341 66.8189 33.9185C66.9257 33.8497 67.0324 33.7806 67.1392 33.7117ZM66.21 28.5363C66.3144 28.118 66.4903 28.2204 66.6617 27.9903C66.6613 27.9903 66.661 27.9903 66.6607 27.9903C66.7053 27.9295 66.7443 27.6467 66.751 27.5373C66.6409 27.5776 66.5322 27.6297 66.4229 27.6734C66.1563 26.6975 67.1037 24.789 67.4854 27.2599C67.3463 27.2229 67.2079 27.1876 67.0689 27.1506C67.1078 28.3785 66.8061 29.7473 66.21 28.5363ZM35.6861 68.9934C34.6379 69.4488 34.3018 69.5448 33.0303 69.2326C33.2099 69.1036 33.3895 68.9745 33.5691 68.8455C33.7791 68.9771 33.9875 69.1078 34.1975 69.2395C34.1981 69.2395 34.1987 69.2395 34.1993 69.2395C34.2413 69.1012 34.2834 68.9627 34.3237 68.8245C34.7772 68.8807 35.2326 68.9371 35.6861 68.9934ZM44.8459 4.04721C44.5537 3.13774 44.638 3.66638 45.4724 3.4613C45.7614 3.3901 45.4798 3.23097 45.6595 3.20448C46.6301 3.05976 46.7077 3.6691 46.4911 3.98618C45.9418 4.0077 45.3868 4.02734 44.8477 4.04721C44.8471 4.04721 44.8465 4.04721 44.8459 4.04721ZM19.664 4.23616C19.6634 4.23616 19.6628 4.23616 19.6622 4.23616C19.637 4.01433 20.0283 3.95466 19.587 3.74449C19.9227 3.74532 20.2584 3.74708 20.5958 3.74791C20.4968 3.76857 20.3958 3.78827 20.2968 3.80894C20.3842 3.88511 20.4717 3.96225 20.5591 4.03842C20.6783 3.78344 20.7891 3.93165 21.1418 4.01694C21.0444 3.74455 20.9474 3.47198 20.85 3.19959C21.2597 3.28071 21.671 3.36212 22.0807 3.44323C22.0858 3.51188 22.0909 3.58064 22.096 3.64928C22.2504 3.56155 22.4034 3.47286 22.5578 3.38513C22.5998 3.46708 22.6403 3.54829 22.6823 3.63024C22.8686 3.56816 23.0553 3.50614 23.2417 3.44323C23.2984 3.64175 22.8876 3.72754 23.6158 3.67711C23.3925 3.88076 23.1696 4.08379 22.9445 4.28743C21.8511 4.27087 20.7574 4.25355 19.664 4.23616ZM52.4372 3.76744C51.2329 3.80552 51.5721 3.66165 51.8509 3.21131C52.0457 3.39671 52.2424 3.58204 52.4372 3.76744ZM66.4068 58.087C66.6966 58.4769 66.9625 58.8991 67.1931 59.3555C67.2367 60.2254 66.4571 60.8676 66.4012 60.2294C66.3137 59.4875 66.7069 58.791 66.4068 58.087ZM54.6819 68.492C55.5533 68.6344 54.7334 68.9994 54.5369 69.2121C54.2958 68.8702 53.9597 68.9004 53.4198 68.8606C53.9268 68.8384 54.5378 68.4678 54.6819 68.491C54.6819 68.4913 54.6819 68.4916 54.6819 68.492ZM66.7632 44.0296C66.754 43.6804 66.6683 43.333 66.7725 43.0208C67.0662 43.115 66.799 43.7396 67.2344 43.2929C67.2418 43.5163 67.2491 43.7399 67.2573 43.9615C67.0769 43.8207 66.9421 44.0102 66.7642 44.0287C66.7639 44.029 66.7636 44.0293 66.7632 44.0296ZM64.2644 7.29205C64.5137 8.11546 64.7012 8.11515 65.3485 8.64562C65.1692 8.88259 64.2723 8.38739 63.836 8.04981C63.9849 7.80243 64.1281 7.54999 64.2644 7.29205ZM1.04381 20.0721C1.4047 20.2367 1.45176 21.4507 1.34507 22.0539C1.29155 21.9821 1.23731 21.91 1.18297 21.8382C1.1366 21.2503 1.09018 20.66 1.04381 20.0721ZM53.1629 68.8362C53.2533 68.8467 53.3389 68.8546 53.4198 68.8606C53.3299 68.8645 53.2431 68.8584 53.1629 68.8362ZM16.675 67.2698C16.9621 66.9296 16.1087 66.8153 17.1449 66.9486C17.1449 66.9482 17.1449 66.9479 17.1449 66.9476C17.8303 67.0354 17.9815 67.0588 18.6165 67.0853C18.3879 67.5224 17.0998 67.6786 18.8752 67.7688C18.8985 67.7692 18.852 67.5092 19.1356 67.5447C19.2232 67.5558 19.5034 67.7692 19.9296 67.8313C20.0673 67.8512 21.1024 67.917 19.6915 67.9212C19.7335 68.2259 19.6577 68.5343 19.6611 68.8298C19.1103 68.9157 18.6871 68.3191 18.1045 68.3338C17.2394 68.3569 16.7992 68.9602 16.6329 68.1687C17.3603 67.9743 18.6093 67.9696 18.7722 68.4456C19.4759 68.4514 19.678 68.0614 19.1106 67.8684C16.68 68.1135 18.4433 67.2896 16.3152 67.6009C16.29 67.711 16.2024 67.8294 16.2158 67.9329C15.5662 67.5455 16.5725 67.3915 16.675 67.2698ZM21.7574 68.1116C21.3375 68.3443 20.9189 68.5788 20.5007 68.8122C20.5007 68.4331 20.7313 68.0928 21.3931 67.8792C21.5139 67.957 21.6365 68.0347 21.7574 68.1116ZM1.78987 47.3244C1.58372 47.2639 1.39481 47.1027 1.19859 46.9852C1.37245 46.8575 1.53925 43.8339 1.7098 45.3722C1.73464 45.5956 1.37011 46.9582 1.78987 47.3244ZM59.6984 4.48439C60.0204 4.75738 60.3193 5.04459 60.5959 5.34302C60.0328 5.15093 59.4582 5.01024 58.8848 4.91935C59.1465 4.76489 59.4159 4.61877 59.6984 4.48439ZM64.0863 63.6841C64.185 63.5591 64.1073 64.1577 64.4355 63.6169C64.3178 64.1074 64.1589 64.5583 63.9655 65.0305C63.7694 65.0484 63.5741 65.062 63.381 65.0686C63.3676 65.2064 63.3492 65.346 63.3298 65.485C63.2412 65.2986 63.148 65.1223 63.0539 64.9351C63.8886 64.6725 63.6532 64.2093 64.0863 63.6841ZM65.2921 42.2224C65.7168 42.0916 65.9693 43.1448 66.0372 42.1087C66.3162 42.3052 66.4625 42.6212 66.4874 43.2276C66.3807 43.3249 66.2747 43.422 66.168 43.5194C66.4536 43.5328 66.5597 43.6888 66.7632 44.0296C66.7629 44.0299 66.7626 44.0302 66.7623 44.0305C66.7829 44.9523 66.6877 44.8972 66.2183 45.1189C66.4833 44.143 66.0544 44.1138 65.7994 43.4487C65.6241 42.9918 65.7035 42.3953 65.2921 42.2224ZM1.79475 50.5459C1.43629 49.8558 1.10194 50.4751 1.48276 49.2507C1.57383 49.3296 1.66413 49.4089 1.75521 49.4879C1.76928 49.8405 1.78234 50.1932 1.79475 50.5459ZM66.7476 38.8165C66.0903 38.8954 65.5786 39.5452 66.648 39.6561C66.8657 39.0229 66.26 39.3322 66.7476 38.8165ZM54.9791 67.4627C55.2947 67.4707 55.5131 67.5264 55.6547 67.6111C55.9857 67.805 55.9205 68.1597 55.6547 68.4343C55.599 68.4968 55.5351 68.555 55.466 68.6062C55.3887 68.4712 55.3116 68.3361 55.236 68.2019C55.0226 68.2632 54.8093 68.3246 54.596 68.385C54.7236 68.0779 54.8514 67.7699 54.9791 67.4627ZM66.0255 17.3493C66.4949 18.2798 66.2866 16.3448 66.5796 16.9948C66.8139 17.5139 66.3409 18.1978 66.0445 17.9392C66.0362 17.7594 66.0304 17.5594 66.0255 17.3511C66.0255 17.3505 66.0255 17.3499 66.0255 17.3493ZM66.1597 22.7342C66.6613 22.5814 66.5151 22.8017 66.4249 22.0665C66.3992 21.8565 66.5876 20.1881 66.1719 20.8885C66.1719 21.4847 66.1647 22.1145 66.1597 22.7342ZM40.9036 68.1966C40.8924 67.9781 42.1771 67.4985 42.342 67.6185C42.342 67.6181 42.342 67.6178 42.342 67.6175C42.7872 67.9445 41.4319 67.991 42.0198 68.4397C40.7181 68.0449 40.3287 68.9999 40.4194 67.7415C41.1862 67.6863 40.8231 67.9457 40.9036 68.1966ZM7.53504 5.81359C7.53558 5.8133 7.53613 5.813 7.53667 5.81271C7.45473 5.83663 6.64946 5.94465 6.66603 5.80856C7.50977 5.41453 7.44428 5.69181 8.07564 5.01516C8.16368 5.09855 8.2432 5.18225 8.33246 5.26667C8.05269 5.45923 7.94746 5.653 7.53504 5.81359ZM2.23028 44.0555C2.28741 44.3696 2.05069 44.9428 2.06476 45.3006C1.1557 44.1617 2.00341 42.8008 2.23028 44.0555ZM31.4417 4.20492C31.4426 4.20459 31.4435 4.20426 31.4444 4.20394C31.4441 4.20443 31.4438 4.20491 31.4435 4.2054C31.4429 4.20524 31.4423 4.20508 31.4417 4.20492ZM7.35659 67.0536C7.34617 66.9811 7.34945 66.9245 7.36329 66.8808C7.36531 66.8771 7.36734 66.8733 7.36936 66.8696C7.36325 66.9292 7.35845 66.9901 7.35659 67.0536ZM38.2335 68.2625C37.6984 67.9579 39.4812 67.4736 40.0577 67.5892C40.0174 67.7282 40.0112 67.8543 39.9172 68.0139C39.4519 67.6539 38.3225 68.3138 38.2335 68.2625ZM66.2135 50.0751C66.2052 51.4844 65.0024 49.6503 65.962 49.5747C65.9806 49.5776 66.2118 50.0387 66.2135 50.0751ZM49.3471 68.1365C49.7061 67.7724 48.9846 67.6757 50.1384 67.7386C50.2055 67.8329 50.2726 67.9274 50.3398 68.0218C50.009 68.0598 49.6779 68.0984 49.3471 68.1365ZM64.504 59.1266C64.4634 60.71 63.9308 62.3725 65.3569 61.7283C65.3828 61.5855 65.4072 61.4415 65.4269 61.2987C64.9745 61.1028 65.4159 60.7369 65.6094 60.0121C65.4476 59.8635 65.4859 59.4599 65.3342 59.3579C65.0441 59.1676 64.747 59.5453 64.504 59.1266ZM40.8555 5.15458C40.8841 5.07095 40.912 4.98689 40.9405 4.9041C41.2211 4.80971 41.5023 4.71578 41.7828 4.6214C41.7375 4.78188 41.6921 4.94234 41.6468 5.10282C41.3832 5.1202 41.1209 5.13769 40.8573 5.15506C40.8567 5.1549 40.8561 5.15474 40.8555 5.15458ZM23.4858 67.078C23.3247 67.9984 23.8878 67.8289 25.0299 67.3636C24.5159 67.2684 23.9998 67.1732 23.4858 67.078ZM65.0075 30.8053C65.2689 30.7684 65.5296 30.7321 65.7911 30.6935C65.5187 30.0871 65.2193 30.1997 64.8732 30.4903C64.9178 30.596 64.9628 30.6996 65.0075 30.8053ZM64.8961 22.0709C64.8416 22.3225 65.0527 22.1941 65.0485 22.2204C64.9375 22.857 64.8407 22.9467 64.9996 23.7278C65.0551 23.8235 65.1134 23.9176 65.1705 24.0133C65.7185 23.6522 65.4198 23.39 65.7418 22.6259C65.5539 22.7637 65.3657 22.9008 65.1769 23.0386C65.2166 22.6137 65.2558 22.1906 65.2955 21.7657C65.2376 21.7153 65.1802 21.6648 65.1222 21.6144C65.0477 21.7656 64.964 21.9215 64.8961 22.0709ZM37.6117 4.91679C37.1985 4.89527 36.7834 4.87289 36.3702 4.85137C36.355 4.98631 36.3405 5.12217 36.3254 5.25711C36.7536 5.14371 37.1834 5.0302 37.6117 4.91679ZM15.0021 67.4974C14.9693 67.5452 14.9374 67.5934 14.909 67.6424C14.9117 67.5827 14.9475 67.5361 15.0021 67.4974ZM8.83177 6.02358C9.28101 5.94083 9.87488 5.68951 10.3612 5.60712C10.2491 5.26764 9.03787 5.69902 8.54697 5.71037C8.50255 5.79538 8.64198 6.05777 8.83177 6.02358ZM56.6523 67.4429C56.7516 67.2632 56.8448 67.0829 56.9298 66.9009C57.196 66.8832 57.4634 66.8549 57.7311 66.8136C57.7086 66.6769 57.6854 66.5392 57.6622 66.4027C56.5767 66.7998 56.7549 66.3368 56.2023 65.9966C56.3358 66.4816 56.4846 66.9638 56.6523 67.4429ZM24.4644 5.7937C25.3731 5.70015 25.6954 5.52541 25.1832 5.11063C24.8625 5.20581 24.5399 5.30108 24.2191 5.39626C24.3014 5.5287 24.3838 5.66127 24.4644 5.7937ZM2.96156 59.2652C2.69459 58.5579 3.24942 58.4992 2.90961 57.8167C2.81568 58.1961 2.74336 58.5898 2.69662 58.9889C2.78318 59.082 2.87228 59.1767 2.96156 59.2652ZM35.7478 65.6562C35.427 65.4625 34.8273 66.383 33.9254 65.7035C33.7105 65.9063 33.5758 66.1 33.391 66.2987C33.2835 66.0826 33.1614 65.8638 33.0589 65.6493C33.0583 65.6493 33.0577 65.6493 33.0571 65.6493C32.2391 65.7222 32.7695 65.9932 32.751 66.2225C32.7423 66.3176 32.1352 66.1587 32.3249 66.3656C32.6525 66.7208 33.8764 66.5165 33.8797 66.9495C33.4497 66.808 32.6101 66.9263 32.8584 67.2152C33.1305 67.5322 33.9218 67.0009 34.4258 67.264C33.7036 66.5719 35.1951 66.7857 35.3647 67.3172C36.2398 66.909 35.4355 66.7425 34.5385 66.7616C35.0861 66.3542 34.2801 66.5743 34.1474 66.2357C34.712 66.0313 36.6497 66.2017 35.7478 65.6562ZM64.4694 51.9199C64.4957 52.5247 64.2628 53.4697 64.6066 53.8838C64.8069 54.1249 64.962 53.1778 65.2765 53.8309C65.2458 53.2416 65.123 53.1072 64.8473 53.2079C64.8142 53.0736 64.7819 52.9377 64.7497 52.8034C64.8034 52.7413 64.8565 52.6775 64.9103 52.6154C64.7969 52.5449 64.6844 52.4739 64.571 52.405C64.5933 52.2624 64.6157 52.1181 64.6388 51.9754C64.5818 51.9586 64.5322 51.93 64.4694 51.9199ZM2.7991 37.5096C2.80241 37.6775 2.8057 37.8438 2.80984 38.0118C2.87698 37.9933 2.94689 37.9712 3.01588 37.95C3.07041 37.9348 3.12493 37.9196 3.17945 37.9043C2.98466 38.0017 2.66089 38.8017 2.86892 39.1387C2.97328 39.3081 3.34377 38.9226 3.40844 39.6408C3.38939 39.1203 3.33883 38.6381 3.30737 38.1326C3.41749 38.178 3.52878 38.2215 3.6389 38.2669C3.63906 38.2666 3.63923 38.2663 3.63939 38.266C3.66422 38.0981 3.69024 37.9282 3.71507 37.7602C3.40956 37.6763 3.10461 37.5936 2.7991 37.5096ZM64.4904 31.2977C64.7065 31.8704 64.8187 32.0622 65.1681 31.7918C65.1683 31.7911 65.1684 31.7906 65.1686 31.79C65.0138 31.5767 64.859 31.3632 64.7042 31.15C64.633 31.1987 64.5616 31.2473 64.4904 31.2977ZM10.3771 66.1073C8.95491 67.1415 11.6744 66.8964 11.2309 66.3277C11.215 66.3126 10.4394 66.2819 10.3771 66.1073ZM54.7553 67.0545C55.0545 67.0449 55.3542 67.0361 55.6547 67.0266C55.6882 67.0255 55.7217 67.0242 55.7551 67.0228C55.7211 66.9492 55.6876 66.8756 55.6547 66.8018C55.6119 66.7128 55.5691 66.6237 55.5269 66.5345C55.2699 66.7076 55.0123 66.8815 54.7553 67.0545ZM28.4208 6.39621C28.7726 6.76051 29.6756 6.8925 30.117 6.49631C29.8852 6.44994 29.6533 6.40352 29.4215 6.35715C29.8597 6.31163 30.293 6.26153 30.7346 6.21849C30.7581 5.71096 30.2492 6.0054 29.4832 5.86548C29.3647 5.84291 28.6065 5.21293 28.3447 5.68775C28.292 5.78535 29.0985 5.85171 28.538 6.13548C28.7831 6.15782 28.9947 6.15286 29.2263 6.16527C29.2431 6.28615 29.2598 6.40716 29.2783 6.52804C28.9918 6.48428 28.7072 6.43998 28.4208 6.39621ZM64.5089 55.4412C64.4809 56.272 64.6837 56.3746 65.0421 56.5476C65.0016 56.1612 64.9616 55.7748 64.921 55.3884C64.784 55.4068 64.6468 55.4228 64.5089 55.4412ZM35.8465 6.51242C36.3013 6.57104 36.1065 6.27932 36.2896 6.22386C36.9816 6.01525 37.4535 6.22374 38.1371 6.09301C38.0917 6.14931 38.0501 6.20193 38.0064 6.25657C38.007 6.25657 38.0076 6.25657 38.0082 6.25657C41.2448 6.50244 39.5448 5.84085 37.6081 5.94848C37.5627 5.84002 37.5192 5.73142 37.4738 5.62379C36.6071 5.81338 35.8079 5.99581 35.8465 6.51242ZM20.8873 66.2987C20.8504 66.2308 21.1645 65.7994 20.575 66.0014C20.1081 66.6313 20.8738 66.3186 21.0655 66.5609C20.9059 66.6213 20.7427 66.6801 20.5848 66.7406C21.5389 66.9186 21.6781 66.7688 21.3304 66.3085C21.3056 66.2775 20.9244 66.3664 20.8873 66.2987ZM14.6172 65.9882C14.4861 66.9163 15.6902 66.4989 15.6465 66.2108C15.4803 66.1993 15.3511 66.3565 15.1748 66.287C14.9968 66.2174 14.9513 66.0007 14.6172 65.9882ZM49.1135 66.2152C49.0782 66.2111 48.7238 65.821 48.759 66.1263C49.1974 66.8491 50.0808 66.3839 49.9262 66.1322C49.6341 66.1447 49.4392 66.2531 49.1135 66.2142C49.1135 66.2146 49.1135 66.2149 49.1135 66.2152ZM22.9409 6.61495C22.9577 6.64085 23.8419 6.79764 23.956 6.65206C24.05 6.48816 24.0967 6.3125 24.1672 6.14281C23.6801 6.30012 22.6941 6.18028 22.9427 6.61495C22.9421 6.61495 22.9415 6.61495 22.9409 6.61495Z" fill="#000F55"/>
</svg>
